<svg xmlns="http://www.w3.org/2000/svg">
<defs>
<font id="GT Pressura Light">
<font-face  font-family="GT Pressura" units-per-em="1000" ascent="707" descent="-200" font-style="normal" font-weight="300" font-stretch="normal" cap-height="700" x-height="500" underline-position="-75" underline-thickness="50" />
<missing-glyph  horiz-adv-x="550" d="M184 120 C228 120 213 72 238 72 C253 72 262 83 262 99 C262 122 276 130 288 130 C324 130 344 100 368 100 C392 100 403 116 403 133 C403 165 383 160 383 182 C383 195 394 203 408 203 C442 203 449 153 480 153 C509 153 532 176 532 205 C532 230 521 250 492 250 C459 250 448 263 448 276 C448 310 480 310 480 348 C480 412 402 406 402 444 C402 466 450 470 450 513 C450 542 432 561 403 561 C373 561 350 545 350 508 C350 475 343 460 315 460 C277 460 285 508 243 508 C198 508 226 453 194 453 C176 453 173 488 152 488 C145 488 136 481 136 474 C136 464 144 457 144 450 C144 445 141 442 135 442 C113 442 95 431 95 405 C95 389 105 372 105 356 C105 343 98 316 78 316 C68 316 64 327 51 327 C32 327 18 306 18 288 C18 262 28 236 48 236 C63 236 62 243 78 243 C93 243 106 228 106 205 C106 145 64 156 64 108 C64 84 88 63 116 63 C168 63 148 120 184 120 L184 120 Z M298 340 C298 362 316 387 338 387 C360 387 381 362 381 340 C381 318 360 300 338 300 C316 300 298 318 298 340 L298 340 Z M281 226 C297 226 310 232 319 248 C321 253 328 250 325 244 C319 229 307 210 281 210 C253 210 238 223 228 239 C223 246 227 251 233 246 C246 234 262 226 281 226 L281 226 Z M214 335 C214 323 220 314 228 314 C236 314 242 323 242 335 C242 347 236 356 228 356 C220 356 214 347 214 335 L214 335 Z M310 340 C310 328 316 319 324 319 C332 319 338 328 338 340 C338 352 332 361 324 361 C316 361 310 352 310 340 L310 340 Z M178 340 C178 368 192 390 214 390 C236 390 254 368 254 340 C254 312 236 290 214 290 C192 290 178 312 178 340 L178 340 Z M85 520 C85 501 98 486 114 486 C127 486 138 501 138 520 C138 539 127 554 114 554 C98 554 85 539 85 520 L85 520 Z " />
<glyph glyph-name="NULL" d="" />
<glyph glyph-name="CR" unicode="&#xd;" horiz-adv-x="250" d="" />
<glyph glyph-name="space" unicode="&#x20;" horiz-adv-x="230" d="" />
<glyph glyph-name="exclam" unicode="&#x21;" horiz-adv-x="234" d="M146 680 C146 691 137 700 126 700 L106 700 C95 700 86 691 86 680 L86 210 C86 199 95 190 106 190 L126 190 C137 190 146 199 146 210 L146 680 Z M164 79 C164 87 157 95 148 95 L86 95 C77 95 70 87 70 79 L70 16 C70 7 77 0 86 0 L148 0 C157 0 164 7 164 16 L164 79 Z " />
<glyph glyph-name="quotedbl" unicode="&#x22;" horiz-adv-x="407" d="M68 480 C86 480 92 491 97 498 L137 554 C145 566 153 577 153 605 L153 680 C153 691 144 700 133 700 L63 700 C52 700 43 691 43 680 L43 610 C43 599 52 590 63 590 L73 590 C81 590 85 582 81 575 L43 504 C37 492 46 480 58 480 L68 480 Z M230 480 C248 480 254 491 259 498 L299 554 C307 566 315 577 315 605 L315 680 C315 691 306 700 295 700 L225 700 C214 700 205 691 205 680 L205 610 C205 599 214 590 225 590 L235 590 C243 590 247 582 243 575 L205 504 C199 492 208 480 220 480 L230 480 Z " />
<glyph glyph-name="numbersign" unicode="&#x23;" horiz-adv-x="577" d="M328 240 C327 234 322 230 316 230 L200 230 C194 230 191 234 192 240 L228 440 C229 446 234 450 240 450 L356 450 C362 450 365 446 364 440 L328 240 Z M130 240 C129 234 124 230 118 230 L68 230 C57 230 46 221 44 210 L41 192 C39 181 47 172 58 172 L108 172 C114 172 117 168 116 162 L90 20 C88 9 96 0 107 0 L129 0 C140 0 150 9 152 20 L178 162 C179 168 185 172 190 172 L306 172 C312 172 315 168 314 162 L288 20 C286 9 294 0 305 0 L327 0 C338 0 348 9 350 20 L376 162 C377 168 382 172 388 172 L438 172 C449 172 459 181 461 192 L464 210 C466 221 459 230 448 230 L398 230 C392 230 389 234 390 240 L426 440 C427 446 432 450 438 450 L488 450 C499 450 509 459 511 470 L513 488 C515 499 508 508 497 508 L447 508 C441 508 438 512 439 518 L467 680 C469 691 461 700 450 700 L428 700 C417 700 407 691 405 680 L377 518 C376 512 371 508 365 508 L249 508 C243 508 240 512 241 518 L269 680 C271 691 263 700 252 700 L230 700 C219 700 209 691 207 680 L179 518 C178 512 173 508 167 508 L117 508 C106 508 95 499 93 488 L91 470 C89 459 97 450 108 450 L158 450 C164 450 167 446 166 440 L130 240 Z " />
<glyph glyph-name="dollar" unicode="&#x24;" horiz-adv-x="510" d="M286 704 C279 705 276 708 276 714 L276 750 C276 761 267 770 256 770 L234 770 C223 770 214 761 214 750 L214 714 C214 708 211 705 204 704 C119 688 49 624 49 520 C49 412 130 350 245 338 C340 328 396 277 395 200 C394 115 336 56 245 56 C146 56 95 130 95 200 L95 216 C95 227 86 236 75 236 L50 236 C39 236 30 227 30 216 L30 200 C30 99 98 13 204 -5 C211 -6 214 -9 214 -15 L214 -50 C214 -61 223 -70 234 -70 L256 -70 C267 -70 276 -61 276 -50 L276 -15 C276 -9 279 -6 286 -5 C381 11 460 85 460 200 C460 317 380 387 245 403 C180 411 114 449 114 520 C114 582 156 644 245 644 C320 644 376 592 376 520 L376 507 C376 496 385 487 396 487 L420 487 C431 487 440 496 440 507 L440 520 C440 611 381 687 286 704 L286 704 Z " />
<glyph glyph-name="percent" unicode="&#x25;" horiz-adv-x="647" d="M545 672 C553 685 542 700 529 700 L514 700 C505 700 498 695 492 685 L75 28 C66 14 78 0 91 0 L108 0 C117 0 123 5 129 15 L545 672 Z M177 433 C141 433 125 461 121 484 C116 515 116 554 121 587 C125 614 146 636 177 636 C213 636 230 608 233 587 C238 554 238 515 233 484 C229 456 208 433 177 433 L177 433 Z M177 690 C111 690 71 639 64 585 C59 545 59 525 64 485 C72 420 117 380 177 380 C243 380 283 430 289 485 C294 525 294 545 289 585 C281 649 237 690 177 690 L177 690 Z M445 63 C409 63 393 91 389 114 C384 145 384 184 389 217 C393 244 414 266 445 266 C481 266 498 238 501 217 C506 184 506 145 501 114 C497 86 476 63 445 63 L445 63 Z M445 320 C379 320 339 269 332 215 C327 175 327 155 332 115 C340 50 385 10 445 10 C511 10 551 60 557 115 C562 155 562 175 557 215 C549 279 505 320 445 320 L445 320 Z " />
<glyph glyph-name="ampersand" unicode="&#x26;" horiz-adv-x="605" d="M132 369 C85 330 50 264 50 203 C50 88 138 -8 263 -8 C324 -8 379 14 418 50 C420 52 425 58 432 50 L469 10 C473 6 476 0 491 0 L514 0 C536 0 542 21 531 34 L468 105 C463 111 463 116 466 122 C483 156 491 170 491 300 C491 311 482 320 471 320 L456 320 C445 320 436 311 436 300 C436 200 431 179 423 163 C421 158 416 159 414 162 L244 353 C223 377 147 466 147 523 C147 595 185 646 268 646 C340 646 381 585 381 517 L381 502 C381 491 390 482 401 482 L421 482 C432 482 441 491 441 502 L441 517 C441 621 375 700 269 700 C151 700 86 626 86 523 C86 475 105 431 132 393 C137 386 141 377 132 369 L132 369 Z M263 51 C179 51 112 114 112 203 C112 270 147 304 178 328 C179 329 183 330 185 328 L382 109 C386 104 383 100 381 98 C361 77 319 51 263 51 L263 51 Z " />
<glyph glyph-name="quotesingle" unicode="&#x27;" horiz-adv-x="207" d="M73 590 C81 590 85 582 81 575 L43 504 C37 492 46 480 58 480 L68 480 C86 480 92 491 97 498 L137 554 C145 566 153 577 153 605 L153 680 C153 691 144 700 133 700 L63 700 C52 700 43 691 43 680 L43 610 C43 599 52 590 63 590 L73 590 Z " />
<glyph glyph-name="parenleft" unicode="&#x28;" horiz-adv-x="341" d="M286 -27 C188 -27 140 62 131 120 C118 202 118 428 131 510 C143 583 201 657 286 657 L298 657 C309 657 318 666 318 677 L318 700 C318 711 309 720 298 720 L286 720 C154 720 79 619 66 510 C56 430 56 201 66 120 C82 -9 166 -90 286 -90 L304 -90 C315 -90 324 -81 324 -70 L324 -47 C324 -36 315 -27 304 -27 L286 -27 Z " />
<glyph glyph-name="parenright" unicode="&#x29;" horiz-adv-x="341" d="M30 -27 C19 -27 10 -36 10 -47 L10 -70 C10 -81 19 -90 30 -90 L48 -90 C168 -90 252 -9 268 120 C278 201 278 430 268 510 C255 619 180 720 48 720 L36 720 C25 720 16 711 16 700 L16 677 C16 666 25 657 36 657 L48 657 C133 657 191 583 203 510 C216 428 216 202 203 120 C194 62 146 -27 48 -27 L30 -27 Z " />
<glyph glyph-name="asterisk" unicode="&#x2a;" horiz-adv-x="362" d="M260 501 C269 496 282 499 287 508 L298 527 C303 536 300 548 290 554 L234 585 L290 616 C299 621 303 634 298 643 L287 662 C282 671 270 675 260 669 L205 636 L206 700 C206 711 197 720 186 720 L165 720 C154 720 145 711 145 700 L146 636 L91 669 C82 674 69 671 64 662 L53 643 C48 634 51 622 61 616 L116 585 L61 554 C52 549 48 536 53 527 L64 508 C69 499 81 495 91 501 L146 534 L145 470 C145 459 154 450 165 450 L186 450 C197 450 206 459 206 470 L205 534 L260 501 Z " />
<glyph glyph-name="plus" unicode="&#x2b;" horiz-adv-x="540" d="M229 220 C235 220 239 216 239 210 L239 50 C239 39 248 30 259 30 L281 30 C292 30 301 39 301 50 L301 210 C301 216 305 220 311 220 L470 220 C481 220 490 229 490 240 L490 261 C490 272 481 281 470 281 L311 281 C305 281 301 285 301 291 L301 450 C301 461 292 470 281 470 L259 470 C248 470 239 461 239 450 L239 291 C239 285 235 281 229 281 L70 281 C59 281 50 272 50 261 L50 240 C50 229 59 220 70 220 L229 220 Z " />
<glyph glyph-name="comma" unicode="&#x2c;" horiz-adv-x="284" d="M98 -110 L108 -110 C126 -110 132 -99 137 -92 L177 -36 C185 -24 193 -13 193 15 L193 90 C193 101 184 110 173 110 L103 110 C92 110 83 101 83 90 L83 20 C83 9 92 0 103 0 L113 0 C121 0 125 -8 121 -15 L83 -86 C77 -98 86 -110 98 -110 L98 -110 Z " />
<glyph glyph-name="hyphen" unicode="&#x2d;" horiz-adv-x="453" d="M90 304 C79 304 70 295 70 284 L70 249 C70 238 79 229 90 229 L363 229 C374 229 383 238 383 249 L383 284 C383 295 374 304 363 304 L90 304 Z " />
<glyph glyph-name="period" unicode="&#x2e;" horiz-adv-x="283" d="M185 90 C185 101 176 110 165 110 L95 110 C84 110 75 101 75 90 L75 20 C75 9 84 0 95 0 L165 0 C176 0 185 9 185 20 L185 90 Z " />
<glyph glyph-name="slash" unicode="&#x2f;" horiz-adv-x="458" d="M394 682 C400 696 391 710 378 710 L357 710 C348 710 342 706 338 695 L52 16 C46 1 55 -12 68 -12 L89 -12 C98 -12 105 -8 110 3 L394 682 Z " />
<glyph glyph-name="zero" unicode="0" horiz-adv-x="520" d="M260 51 C155 51 119 141 111 200 C100 284 100 416 111 500 C120 574 169 649 260 649 C366 649 401 560 409 500 C421 416 421 284 409 200 C398 127 353 51 260 51 L260 51 Z M260 708 C128 708 63 609 50 500 C40 420 40 281 50 200 C66 71 140 -8 260 -8 C392 -8 458 90 470 200 C479 280 480 420 470 500 C454 629 380 708 260 708 L260 708 Z " />
<glyph glyph-name="one" unicode="1" horiz-adv-x="363" d="M278 700 L249 700 C242 700 234 696 229 691 L53 505 C46 497 33 481 33 464 L33 429 C33 418 47 412 55 421 L229 607 C232 610 238 609 238 603 L238 20 C238 9 247 0 258 0 L278 0 C289 0 298 9 298 20 L298 680 C298 691 289 700 278 700 L278 700 Z " />
<glyph glyph-name="two" unicode="2" horiz-adv-x="462" d="M101 517 C101 580 150 649 228 649 C315 649 355 584 355 517 C355 440 323 401 280 353 L39 82 C35 78 30 72 30 57 L30 20 C30 9 39 0 50 0 L412 0 C423 0 432 9 432 20 L432 41 C432 52 423 61 412 61 L121 61 C111 61 108 71 113 77 L332 320 C384 378 416 440 416 517 C416 633 335 708 228 708 C121 708 38 624 38 517 L38 502 C38 491 47 482 58 482 L81 482 C92 482 101 491 101 502 L101 517 Z " />
<glyph glyph-name="three" unicode="3" horiz-adv-x="486" d="M93 205 C93 216 84 225 73 225 L50 225 C39 225 30 216 30 205 L30 198 C30 83 122 -8 240 -8 C356 -8 445 83 445 198 C445 261 415 318 371 356 C362 364 364 373 372 380 C409 413 430 462 430 517 C430 624 349 708 240 708 C130 708 45 624 45 517 L45 502 C45 491 54 482 65 482 L88 482 C99 482 108 491 108 502 L108 517 C108 578 154 644 240 644 C324 644 366 583 366 517 C366 451 320 397 242 397 L235 397 C224 397 215 388 215 377 L215 355 C215 344 224 335 235 335 L242 335 C340 335 381 269 381 198 C381 120 328 56 240 56 C156 56 93 120 93 198 L93 205 Z " />
<glyph glyph-name="four" unicode="4" horiz-adv-x="491" d="M91 199 C85 199 84 202 87 207 L300 601 C302 605 308 605 308 599 L308 209 C308 203 304 199 298 199 L91 199 Z M31 222 C24 209 15 194 15 173 L15 160 C15 149 24 140 35 140 L298 140 C304 140 308 136 308 130 L308 20 C308 9 317 0 328 0 L347 0 C358 0 367 9 367 20 L367 130 C367 136 371 140 377 140 L433 140 C444 140 453 149 453 160 L453 179 C453 190 444 199 433 199 L377 199 C371 199 367 203 367 209 L367 680 C367 691 358 700 347 700 L306 700 C295 700 291 697 285 686 L31 222 Z " />
<glyph glyph-name="five" unicode="5" horiz-adv-x="500" d="M50 175 C50 70 138 -8 244 -8 C372 -8 450 104 450 232 C450 359 369 466 244 466 C200 466 168 453 148 437 C134 426 126 435 126 445 L126 630 C126 636 130 640 136 640 L404 640 C415 640 424 649 424 660 L424 680 C424 691 415 700 404 700 L88 700 C77 700 68 691 68 680 L68 325 C68 314 77 305 88 305 L115 305 C124 305 130 307 134 316 C150 357 178 406 244 406 C334 406 391 327 391 232 C391 138 336 52 244 52 C173 52 111 110 111 175 C111 186 108 195 91 195 L70 195 C59 195 50 188 50 175 L50 175 Z " />
<glyph glyph-name="six" unicode="6" horiz-adv-x="506" d="M257 452 C187 452 147 424 127 409 C119 403 111 408 111 416 C110 442 110 462 114 500 C122 580 173 648 251 648 C337 648 381 580 381 517 C381 506 390 497 401 497 L423 497 C434 497 443 506 443 517 C443 624 358 708 251 708 C135 708 63 615 50 500 C41 420 40 280 50 200 C64 84 141 -8 257 -8 C370 -8 456 82 462 195 C463 213 463 232 462 247 C454 360 370 452 257 452 L257 452 Z M115 194 C113 213 114 232 115 248 C123 334 172 390 257 390 C342 390 392 320 399 248 C401 232 401 213 399 194 C392 120 342 54 257 54 C172 54 122 120 115 194 L115 194 Z " />
<glyph glyph-name="seven" unicode="7" horiz-adv-x="420" d="M93 24 C89 15 93 0 111 0 L134 0 C143 0 149 6 153 15 L405 623 C409 632 410 637 410 643 L410 680 C410 691 401 700 390 700 L30 700 C19 700 10 691 10 680 L10 660 C10 649 19 640 30 640 L337 640 C343 640 346 635 344 630 L93 24 Z " />
<glyph glyph-name="eight" unicode="8" horiz-adv-x="520" d="M250 55 C163 55 104 115 104 198 C104 280 157 337 250 337 C343 337 396 280 396 198 C396 115 337 55 250 55 L250 55 Z M250 394 C171 394 120 445 120 517 C120 583 171 645 250 645 C329 645 380 583 380 517 C380 445 329 394 250 394 L250 394 Z M384 356 C375 364 378 373 385 380 C420 415 442 463 442 517 C442 618 361 708 250 708 C139 708 58 618 58 517 C58 463 80 415 115 380 C122 373 125 364 116 356 C71 317 42 261 42 198 C42 83 122 -8 250 -8 C378 -8 458 83 458 198 C458 261 429 317 384 356 L384 356 Z " />
<glyph glyph-name="nine" unicode="9" horiz-adv-x="501" d="M383 506 C385 487 385 468 383 452 C374 370 330 310 241 310 C150 310 110 380 99 452 C97 468 96 487 99 506 C110 576 150 646 241 646 C335 646 375 567 383 506 L383 506 Z M245 52 C169 52 104 114 104 183 C104 194 95 203 84 203 L62 203 C51 203 42 194 42 183 C42 76 138 -8 245 -8 C361 -8 430 70 449 205 C461 290 459 420 449 500 C435 616 357 708 241 708 C128 708 42 618 36 505 C35 487 35 468 36 453 C44 340 128 248 241 248 C314 248 356 281 376 297 C385 304 393 300 394 291 C396 268 394 224 390 200 C376 114 327 52 245 52 L245 52 Z " />
<glyph glyph-name="colon" unicode="&#x3a;" horiz-adv-x="283" d="M193 90 C193 101 184 110 173 110 L103 110 C92 110 83 101 83 90 L83 20 C83 9 92 0 103 0 L173 0 C184 0 193 9 193 20 L193 90 Z M193 470 C193 481 184 490 173 490 L103 490 C92 490 83 481 83 470 L83 400 C83 389 92 380 103 380 L173 380 C184 380 193 389 193 400 L193 470 Z " />
<glyph glyph-name="semicolon" unicode="&#x3b;" horiz-adv-x="284" d="M191 470 C191 481 182 490 171 490 L101 490 C90 490 81 481 81 470 L81 400 C81 389 90 380 101 380 L171 380 C182 380 191 389 191 400 L191 470 Z M96 -110 L106 -110 C124 -110 130 -99 135 -92 L175 -36 C183 -24 191 -13 191 15 L191 90 C191 101 182 110 171 110 L101 110 C90 110 81 101 81 90 L81 20 C81 9 90 0 101 0 L111 0 C119 0 123 -8 119 -15 L81 -86 C75 -98 84 -110 96 -110 L96 -110 Z " />
<glyph glyph-name="less" unicode="&#x3c;" horiz-adv-x="480" d="M114 246 C110 248 110 252 114 254 L415 432 C425 438 430 444 430 453 L430 481 C430 497 416 506 407 500 L45 282 C36 277 30 269 30 260 L30 241 C30 232 36 224 45 219 L407 0 C416 -6 430 3 430 19 L430 47 C430 56 425 62 415 68 L114 246 Z " />
<glyph glyph-name="equal" unicode="&#x3d;" horiz-adv-x="540" d="M470 307 C481 307 490 316 490 327 L490 352 C490 363 481 372 470 372 L70 372 C59 372 50 363 50 352 L50 327 C50 316 59 307 70 307 L470 307 Z M470 129 C481 129 490 138 490 149 L490 174 C490 185 481 194 470 194 L70 194 C59 194 50 185 50 174 L50 149 C50 138 59 129 70 129 L470 129 Z " />
<glyph glyph-name="greater" unicode="&#x3e;" horiz-adv-x="480" d="M65 68 C55 62 50 56 50 47 L50 19 C50 3 64 -6 73 0 L435 219 C444 224 450 232 450 241 L450 260 C450 269 444 277 435 282 L73 500 C64 506 50 497 50 481 L50 453 C50 444 55 438 65 432 L366 254 C370 252 370 248 366 246 L65 68 Z " />
<glyph glyph-name="question" unicode="&#x3f;" horiz-adv-x="452" d="M346 537 C346 474 302 440 282 420 C262 400 236 382 202 342 C191 329 184 307 184 281 L184 210 C184 199 193 190 204 190 L224 190 C235 190 244 199 244 210 L244 281 C244 320 310 370 328 389 C363 426 407 464 407 537 C407 641 331 710 224 710 C122 710 45 624 45 517 L45 510 C45 499 54 490 65 490 L85 490 C96 490 105 499 105 510 L105 517 C105 591 157 650 224 650 C299 650 346 604 346 537 L346 537 Z M263 79 C263 87 256 95 247 95 L185 95 C176 95 169 87 169 79 L169 16 C169 7 176 0 185 0 L247 0 C256 0 263 7 263 16 L263 79 Z " />
<glyph glyph-name="at" unicode="&#x40;" horiz-adv-x="815" d="M507 209 C507 148 465 120 416 120 C330 120 294 180 294 269 C294 360 340 422 416 422 C465 422 507 396 507 339 L507 209 Z M520 -12 C488 -27 453 -33 414 -33 C243 -33 125 103 125 269 C125 452 254 583 415 583 C595 583 695 466 695 305 C695 170 655 125 610 125 C585 125 569 145 569 175 L569 330 C569 416 507 473 414 473 C300 473 229 385 229 269 C229 161 280 70 414 70 C444 70 472 80 492 90 C517 102 532 101 549 90 C569 77 582 70 615 70 C685 70 755 156 755 305 C755 507 615 640 415 640 C204 640 60 480 60 270 C60 71 200 -90 414 -90 C452 -90 499 -80 520 -68 C532 -61 544 -56 544 -40 L544 -27 C544 -14 533 -6 520 -12 L520 -12 Z " />
<glyph glyph-name="A" unicode="A" horiz-adv-x="478" d="M327 260 L151 260 C145 260 141 263 143 271 L234 611 C235 615 236 617 238 617 L240 617 C242 617 243 615 244 611 L335 271 C337 263 333 260 327 260 L327 260 Z M410 15 C412 6 420 0 429 0 L454 0 C470 0 476 11 474 20 L283 685 C281 694 273 700 264 700 L214 700 C205 700 197 694 195 685 L4 20 C1 11 8 0 24 0 L49 0 C58 0 66 6 68 15 L117 184 C120 193 127 198 136 198 L342 198 C351 198 358 193 361 184 L410 15 Z " />
<glyph glyph-name="B" unicode="B" horiz-adv-x="505" d="M271 338 C347 338 408 277 408 201 C408 125 347 64 271 64 L137 64 C131 64 127 68 127 74 L127 328 C127 334 131 338 137 338 L271 338 Z M260 700 L85 700 C74 700 65 691 65 680 L65 20 C65 9 74 0 85 0 L260 0 C375 0 470 88 470 204 C470 261 440 324 399 357 C391 363 391 372 399 379 C437 412 456 468 456 514 C456 622 368 700 260 700 L260 700 Z M137 397 C131 397 127 401 127 407 L127 626 C127 632 131 636 137 636 L275 636 C341 636 393 582 393 516 C393 450 341 397 275 397 L137 397 Z " />
<glyph glyph-name="C" unicode="C" horiz-adv-x="543" d="M500 204 C500 215 491 224 480 224 L453 224 C442 224 433 215 433 204 L433 200 C433 141 385 56 277 56 C169 56 129 142 121 200 C109 282 109 418 121 500 C132 573 182 644 277 644 C372 644 433 574 433 500 L433 496 C433 485 442 476 453 476 L480 476 C491 476 500 485 500 496 L500 500 C500 610 409 708 277 708 C145 708 69 609 54 500 C43 420 43 281 54 200 C71 71 157 -8 277 -8 C397 -8 500 70 500 200 L500 204 Z " />
<glyph glyph-name="D" unicode="D" horiz-adv-x="538" d="M265 636 C360 636 410 573 421 500 C433 418 433 282 421 200 C413 142 373 64 265 64 L139 64 C133 64 129 68 129 74 L129 626 C129 632 133 636 139 636 L265 636 Z M85 700 C74 700 65 691 65 680 L65 20 C65 9 74 0 85 0 L265 0 C385 0 471 71 488 200 C499 281 499 420 488 500 C473 609 397 700 265 700 L85 700 Z " />
<glyph glyph-name="E" unicode="E" horiz-adv-x="470" d="M129 316 C129 322 133 326 139 326 L387 326 C398 326 407 335 407 346 L407 369 C407 380 398 389 387 389 L139 389 C133 389 129 393 129 399 L129 626 C129 632 133 636 139 636 L398 636 C409 636 418 645 418 656 L418 680 C418 691 409 700 398 700 L85 700 C74 700 65 691 65 680 L65 20 C65 9 74 0 85 0 L400 0 C411 0 420 9 420 20 L420 44 C420 55 411 64 400 64 L139 64 C133 64 129 68 129 74 L129 316 Z " />
<glyph glyph-name="F" unicode="F" horiz-adv-x="448" d="M139 326 L387 326 C398 326 407 335 407 346 L407 370 C407 381 398 390 387 390 L139 390 C133 390 129 394 129 400 L129 626 C129 632 133 636 139 636 L398 636 C409 636 418 645 418 656 L418 680 C418 691 409 700 398 700 L85 700 C74 700 65 691 65 680 L65 20 C65 9 74 0 85 0 L109 0 C120 0 129 9 129 20 L129 316 C129 322 133 326 139 326 L139 326 Z " />
<glyph glyph-name="G" unicode="G" horiz-adv-x="546" d="M436 200 C436 141 385 56 277 56 C169 56 129 142 121 200 C109 282 109 418 121 500 C132 573 182 644 277 644 C372 644 433 583 433 500 L433 496 C433 485 442 476 453 476 L480 476 C491 476 500 485 500 496 L500 500 C500 615 409 708 277 708 C145 708 69 609 54 500 C43 420 43 281 54 200 C71 71 157 -8 277 -8 C397 -8 500 70 500 200 L500 362 C500 373 491 382 480 382 L304 382 C293 382 284 373 284 362 L284 338 C284 327 293 318 304 318 L426 318 C432 318 436 314 436 308 L436 200 Z " />
<glyph glyph-name="H" unicode="H" horiz-adv-x="540" d="M411 680 L411 400 C411 394 407 390 401 390 L139 390 C133 390 129 394 129 400 L129 680 C129 691 120 700 109 700 L85 700 C74 700 65 691 65 680 L65 20 C65 9 74 0 85 0 L109 0 C120 0 129 9 129 20 L129 316 C129 322 133 326 139 326 L401 326 C407 326 411 322 411 316 L411 20 C411 9 420 0 431 0 L455 0 C466 0 475 9 475 20 L475 680 C475 691 466 700 455 700 L431 700 C420 700 411 691 411 680 L411 680 Z " />
<glyph glyph-name="I" unicode="I" horiz-adv-x="194" d="M129 680 C129 691 120 700 109 700 L85 700 C74 700 65 691 65 680 L65 20 C65 9 74 0 85 0 L109 0 C120 0 129 9 129 20 L129 680 Z " />
<glyph glyph-name="J" unicode="J" horiz-adv-x="459" d="M5 192 C5 82 95 -8 205 -8 C318 -8 405 69 405 192 L405 680 C405 691 396 700 385 700 L361 700 C350 700 341 691 341 680 L341 202 C341 100 285 56 205 56 C125 56 70 120 70 192 L70 200 C70 211 61 220 50 220 L25 220 C14 220 5 211 5 200 L5 192 Z " />
<glyph glyph-name="K" unicode="K" horiz-adv-x="474" d="M376 13 C380 9 387 0 402 0 L424 0 C450 0 453 24 442 37 L178 349 C170 358 173 365 179 373 L426 664 C438 678 433 700 409 700 L393 700 C378 700 370 693 367 689 L137 414 C135 411 129 411 129 416 L129 680 C129 691 120 700 109 700 L85 700 C74 700 65 691 65 680 L65 20 C65 9 74 0 85 0 L109 0 C120 0 129 9 129 20 L129 297 C129 302 135 302 137 299 L376 13 Z " />
<glyph glyph-name="L" unicode="L" horiz-adv-x="424" d="M129 680 C129 691 120 700 109 700 L85 700 C74 700 65 691 65 680 L65 20 C65 9 74 0 85 0 L384 0 C395 0 404 9 404 20 L404 44 C404 55 395 64 384 64 L139 64 C133 64 129 68 129 74 L129 680 Z " />
<glyph glyph-name="M" unicode="M" horiz-adv-x="682" d="M175 683 C172 695 165 700 154 700 L85 700 C74 700 65 691 65 680 L65 20 C65 9 74 0 85 0 L107 0 C118 0 127 9 127 20 L127 596 C127 602 134 602 135 598 L304 17 C308 5 314 0 325 0 L357 0 C368 0 374 5 378 17 L547 598 C548 602 555 602 555 596 L555 20 C555 9 564 0 575 0 L597 0 C608 0 617 9 617 20 L617 680 C617 691 608 700 597 700 L528 700 C517 700 510 695 507 683 L346 110 C344 104 338 104 336 110 L175 683 Z " />
<glyph glyph-name="N" unicode="N" horiz-adv-x="530" d="M445 0 C456 0 465 9 465 20 L465 680 C465 691 456 700 445 700 L425 700 C414 700 405 691 405 680 L405 116 C405 111 399 110 397 114 L158 683 C152 697 148 700 137 700 L85 700 C74 700 65 691 65 680 L65 20 C65 9 74 0 85 0 L105 0 C116 0 125 9 125 20 L125 589 C125 594 131 595 133 591 L372 17 C378 3 382 0 393 0 L445 0 Z " />
<glyph glyph-name="O" unicode="O" horiz-adv-x="556" d="M277 56 C169 56 129 142 121 200 C109 282 109 418 121 500 C132 573 182 644 277 644 C372 644 422 573 433 500 C445 418 445 282 433 200 C425 142 385 56 277 56 L277 56 Z M277 708 C145 708 69 609 54 500 C43 420 43 281 54 200 C71 71 157 -8 277 -8 C397 -8 483 71 500 200 C511 281 511 420 500 500 C485 609 409 708 277 708 L277 708 Z " />
<glyph glyph-name="P" unicode="P" horiz-adv-x="485" d="M85 700 C74 700 65 691 65 680 L65 20 C65 9 74 0 85 0 L109 0 C120 0 129 9 129 20 L129 270 C129 276 133 280 139 280 L255 280 C371 280 465 374 465 490 C465 606 371 700 255 700 L85 700 Z M255 636 C335 636 401 570 401 490 C401 410 335 344 255 344 L139 344 C133 344 129 348 129 354 L129 626 C129 632 133 636 139 636 L255 636 Z " />
<glyph glyph-name="Q" unicode="Q" horiz-adv-x="556" d="M277 56 C169 56 129 142 121 200 C109 282 109 418 121 500 C132 573 182 644 277 644 C372 644 422 573 433 500 C445 418 445 282 433 200 C425 142 385 56 277 56 L277 56 Z M427 48 C466 84 492 136 500 200 C511 281 511 420 500 500 C485 609 409 708 277 708 C145 708 69 609 54 500 C43 420 43 281 54 200 C71 71 157 -8 277 -8 C302 -8 323 -5 345 2 C352 4 364 8 369 0 L411 -75 C417 -86 422 -90 431 -90 L459 -90 C472 -90 482 -76 475 -62 L424 34 C421 41 423 44 427 48 L427 48 Z " />
<glyph glyph-name="R" unicode="R" horiz-adv-x="509" d="M248 280 C259 280 264 274 267 268 L395 20 C401 8 408 0 424 0 L446 0 C466 0 473 15 465 30 L339 268 C331 283 334 292 346 300 C418 345 465 400 465 490 C465 606 371 700 255 700 L85 700 C74 700 65 691 65 680 L65 20 C65 9 74 0 85 0 L109 0 C120 0 129 9 129 20 L129 270 C129 276 133 280 139 280 L248 280 Z M255 636 C335 636 401 570 401 490 C401 410 335 344 255 344 L139 344 C133 344 129 348 129 354 L129 626 C129 632 133 636 139 636 L255 636 Z " />
<glyph glyph-name="S" unicode="S" horiz-adv-x="500" d="M400 200 C400 115 341 56 250 56 C151 56 100 130 100 200 L100 216 C100 227 91 236 80 236 L55 236 C44 236 35 227 35 216 L35 200 C35 86 121 -8 250 -8 C363 -8 465 69 465 200 C465 323 390 367 282 400 C213 421 119 430 119 520 C119 582 161 644 250 644 C325 644 381 592 381 520 L381 507 C381 496 390 487 401 487 L425 487 C436 487 445 496 445 507 L445 520 C445 623 368 708 250 708 C147 708 54 640 54 520 C54 403 149 365 222 348 C336 321 400 291 400 200 L400 200 Z " />
<glyph glyph-name="T" unicode="T" horiz-adv-x="424" d="M255 636 L402 636 C413 636 422 645 422 656 L422 680 C422 691 413 700 402 700 L22 700 C11 700 2 691 2 680 L2 656 C2 645 11 636 22 636 L170 636 C176 636 180 632 180 626 L180 20 C180 9 189 0 200 0 L225 0 C236 0 245 9 245 20 L245 626 C245 632 249 636 255 636 L255 636 Z " />
<glyph glyph-name="U" unicode="U" horiz-adv-x="538" d="M484 680 C484 691 475 700 464 700 L440 700 C429 700 420 691 420 680 L420 207 C420 127 354 56 269 56 C184 56 118 127 118 207 L118 680 C118 691 109 700 98 700 L74 700 C63 700 54 691 54 680 L54 207 C54 88 150 -8 269 -8 C388 -8 484 88 484 207 L484 680 Z " />
<glyph glyph-name="V" unicode="V" horiz-adv-x="491" d="M485 677 C488 688 482 700 466 700 L437 700 C428 700 421 696 418 685 L252 95 C251 91 249 89 246 89 L244 89 C241 89 239 91 238 95 L73 685 C70 696 63 700 54 700 L25 700 C9 700 3 686 6 676 L196 15 C199 5 206 0 215 0 L275 0 C284 0 291 5 294 15 L485 677 Z " />
<glyph glyph-name="W" unicode="W" horiz-adv-x="693" d="M236 15 L335 549 C336 554 342 554 343 549 L448 15 C450 5 458 0 467 0 L523 0 C532 0 540 5 542 15 L687 680 C689 690 683 700 667 700 L643 700 C634 700 626 696 624 685 L502 113 C501 109 499 107 496 107 L494 107 C491 107 489 109 488 113 L374 685 C372 695 364 700 355 700 L321 700 C312 700 304 695 302 685 L196 113 C195 109 193 107 190 107 L188 107 C185 107 183 109 182 113 L69 685 C67 696 59 700 50 700 L26 700 C10 700 4 690 6 680 L142 15 C144 5 152 0 161 0 L217 0 C226 0 234 5 236 15 L236 15 Z " />
<glyph glyph-name="X" unicode="X" horiz-adv-x="499" d="M229 289 C231 294 235 294 237 289 L378 15 C383 4 389 0 398 0 L433 0 C446 0 456 14 449 28 L274 356 C271 361 270 365 273 370 L433 672 C440 686 430 700 417 700 L386 700 C377 700 372 696 367 685 L237 435 C235 430 231 430 229 435 L99 685 C94 696 89 700 80 700 L49 700 C36 700 26 686 33 672 L193 370 C196 365 195 361 192 356 L18 28 C11 14 21 0 34 0 L67 0 C76 0 83 4 88 15 L229 289 Z " />
<glyph glyph-name="Y" unicode="Y" horiz-adv-x="442" d="M79 685 C75 696 69 700 60 700 L28 700 C15 700 6 687 12 672 L189 240 L189 20 C189 9 198 0 209 0 L235 0 C246 0 255 9 255 20 L255 241 L430 672 C436 687 427 700 414 700 L382 700 C373 700 367 696 363 685 L226 328 C224 323 220 323 218 328 L79 685 Z " />
<glyph glyph-name="Z" unicode="Z" horiz-adv-x="480" d="M431 620 C434 625 436 630 436 636 L436 680 C436 691 427 700 416 700 L64 700 C53 700 44 691 44 680 L44 656 C44 645 53 636 64 636 L358 636 C365 636 367 631 364 626 L39 83 C36 78 34 73 34 67 L34 20 C34 9 43 0 54 0 L426 0 C437 0 446 9 446 20 L446 45 C446 56 437 65 426 65 L116 65 C109 65 107 70 110 75 L431 620 Z " />
<glyph glyph-name="bracketleft" unicode="&#x5b;" horiz-adv-x="292" d="M126 654 C126 660 130 664 136 664 L260 664 C271 664 280 673 280 684 L280 700 C280 711 271 720 260 720 L90 720 C79 720 70 711 70 700 L70 -70 C70 -81 79 -90 90 -90 L262 -90 C273 -90 282 -81 282 -70 L282 -54 C282 -43 273 -34 262 -34 L136 -34 C130 -34 126 -30 126 -24 L126 654 Z " />
<glyph glyph-name="backslash" unicode="&#x5c;" horiz-adv-x="458" d="M337 3 C342 -8 349 -12 358 -12 L379 -12 C392 -12 401 1 395 16 L109 695 C105 706 99 710 90 710 L69 710 C56 710 47 696 53 682 L337 3 Z " />
<glyph glyph-name="bracketright" unicode="&#x5d;" horiz-adv-x="292" d="M30 -34 C19 -34 10 -43 10 -54 L10 -70 C10 -81 19 -90 30 -90 L202 -90 C213 -90 222 -81 222 -70 L222 700 C222 711 213 720 202 720 L32 720 C21 720 12 711 12 700 L12 684 C12 673 21 664 32 664 L156 664 C162 664 166 660 166 654 L166 -24 C166 -30 162 -34 156 -34 L30 -34 Z " />
<glyph glyph-name="asciicircum" unicode="&#x5e;" horiz-adv-x="508" d="M248 666 C253 671 257 671 262 666 L329 601 C335 595 345 585 360 585 L403 585 C416 585 420 600 414 606 L296 718 C290 724 284 730 267 730 L245 730 C227 730 221 724 215 718 L97 606 C91 600 95 585 108 585 L151 585 C166 585 176 595 182 601 L248 666 Z " />
<glyph glyph-name="underscore" unicode="&#x5f;" horiz-adv-x="610" d="M40 0 C29 0 20 -9 20 -20 L20 -39 C20 -50 29 -59 40 -59 L570 -59 C581 -59 590 -50 590 -39 L590 -20 C590 -9 581 0 570 0 L40 0 Z " />
<glyph glyph-name="grave" unicode="&#x60;" horiz-adv-x="297" d="M64 730 C51 730 47 715 53 709 L161 597 C167 591 173 585 191 585 L210 585 C223 585 229 598 224 605 L148 714 C143 721 137 730 122 730 L64 730 Z " />
<glyph glyph-name="a" unicode="a" horiz-adv-x="487" d="M354 241 C360 241 364 237 364 231 L364 171 C364 90 312 46 220 46 C157 46 102 80 102 151 C102 210 152 241 208 241 L354 241 Z M240 455 C310 455 361 410 361 345 L361 306 C361 300 357 296 351 296 L208 296 C103 296 43 233 43 150 C43 65 102 -10 225 -10 C299 -10 339 28 357 28 C370 28 372 15 377 7 C380 2 385 0 391 0 L400 0 C411 0 420 9 420 20 L420 344 C420 458 338 510 240 510 C155 510 66 463 66 370 C66 358 71 350 86 350 L100 350 C109 350 123 350 123 367 C123 420 180 455 240 455 L240 455 Z " />
<glyph glyph-name="b" unicode="b" horiz-adv-x="505" d="M126 320 C131 373 160 451 249 451 C346 451 377 373 383 320 C388 279 388 221 383 180 C377 127 347 49 249 49 C160 49 131 127 126 180 C122 221 122 279 126 320 L126 320 Z M254 -10 C359 -10 436 75 444 180 C447 220 447 280 444 320 C436 425 359 510 254 510 C190 510 169 485 149 485 C134 485 124 491 124 510 L124 687 C124 698 115 707 104 707 L85 707 C74 707 65 698 65 687 L65 20 C65 9 74 0 85 0 L101 0 C107 0 111 3 115 7 C121 14 130 23 140 23 C169 23 180 -10 254 -10 L254 -10 Z " />
<glyph glyph-name="c" unicode="c" horiz-adv-x="478" d="M375 163 C375 111 335 49 247 49 C147 49 111 127 106 180 C102 221 102 279 106 320 C111 373 147 451 247 451 C329 451 376 396 376 336 C376 325 386 320 395 320 L418 320 C429 320 435 329 435 340 C435 430 359 510 247 510 C127 510 53 425 45 320 C42 280 42 220 45 180 C53 75 127 -10 247 -10 C359 -10 435 70 435 160 C435 171 426 180 415 180 L394 180 C385 180 375 176 375 163 L375 163 Z " />
<glyph glyph-name="d" unicode="d" horiz-adv-x="489" d="M106 320 C112 373 143 451 240 451 C329 451 358 373 363 320 C367 279 367 221 363 180 C358 127 329 49 240 49 C142 49 112 127 106 180 C101 221 101 279 106 320 L106 320 Z M235 -10 C309 -10 320 23 349 23 C359 23 368 14 374 7 C378 3 382 0 388 0 L404 0 C415 0 424 9 424 20 L424 687 C424 698 415 707 404 707 L385 707 C374 707 365 698 365 687 L365 510 C365 491 355 485 340 485 C320 485 299 510 235 510 C130 510 53 425 45 320 C42 280 42 220 45 180 C53 75 130 -10 235 -10 L235 -10 Z " />
<glyph glyph-name="e" unicode="e" horiz-adv-x="492" d="M251 451 C333 451 395 394 395 292 C395 286 391 282 385 282 L115 282 C109 282 105 286 105 292 C105 394 162 451 251 451 L251 451 Z M430 226 C441 226 450 235 450 246 L450 310 C450 420 362 510 250 510 C130 510 53 425 45 320 C42 280 42 220 45 180 C53 75 130 -10 250 -10 C354 -10 432 53 444 140 C446 154 437 160 427 160 L407 160 C398 160 388 156 384 143 C369 96 327 49 250 49 C147 49 103 120 103 216 C103 222 107 226 113 226 L430 226 Z " />
<glyph glyph-name="f" unicode="f" horiz-adv-x="342" d="M297 651 C308 651 317 660 317 671 L317 687 C317 698 308 707 297 707 L292 707 C192 707 122 633 122 520 L122 505 C122 499 118 495 112 495 L25 495 C14 495 5 486 5 475 L5 456 C5 445 14 436 25 436 L112 436 C118 436 122 432 122 426 L122 20 C122 9 131 0 142 0 L162 0 C173 0 182 9 182 20 L182 426 C182 432 186 436 192 436 L306 436 C317 436 326 445 326 456 L326 475 C326 486 317 495 306 495 L192 495 C186 495 182 499 182 505 L182 520 C182 590 216 651 292 651 L297 651 Z " />
<glyph glyph-name="g" unicode="g" horiz-adv-x="484" d="M363 180 C358 127 329 49 240 49 C143 49 112 127 106 180 C101 221 101 279 106 320 C112 373 142 451 240 451 C329 451 358 373 363 320 C367 279 367 221 363 180 L363 180 Z M235 510 C130 510 53 425 45 320 C42 280 42 220 45 180 C53 75 130 -10 235 -10 C281 -10 323 15 343 15 C357 15 365 6 365 -10 L365 -30 C365 -90 321 -151 246 -151 C176 -151 142 -107 129 -70 C125 -59 120 -50 103 -50 L87 -50 C72 -50 66 -59 69 -73 C88 -163 166 -210 246 -210 C352 -210 424 -127 424 -30 L424 480 C424 491 415 500 404 500 L388 500 C382 500 378 497 374 493 C368 486 359 477 349 477 C320 477 309 510 235 510 L235 510 Z " />
<glyph glyph-name="h" unicode="h" horiz-adv-x="477" d="M368 20 C368 9 377 0 388 0 L407 0 C418 0 427 9 427 20 L427 336 C427 430 358 510 253 510 C194 510 166 485 146 485 C132 485 124 497 124 506 L124 687 C124 698 115 707 104 707 L85 707 C74 707 65 698 65 687 L65 20 C65 9 74 0 85 0 L104 0 C115 0 124 9 124 20 L124 341 C124 403 174 451 246 451 C318 451 368 403 368 336 L368 20 Z " />
<glyph glyph-name="i" unicode="i" horiz-adv-x="214" d="M149 691 C149 699 142 707 133 707 L81 707 C72 707 65 699 65 691 L65 638 C65 629 72 622 81 622 L133 622 C142 622 149 629 149 638 L149 691 Z M138 480 C138 491 132 500 118 500 L98 500 C84 500 78 491 78 480 L78 20 C78 9 84 0 98 0 L118 0 C132 0 138 9 138 20 L138 480 Z " />
<glyph glyph-name="j" unicode="j" horiz-adv-x="231" d="M94 -30 C94 -120 37 -151 -13 -151 L-55 -151 C-66 -151 -75 -160 -75 -171 L-75 -190 C-75 -201 -66 -210 -55 -210 L-13 -210 C97 -210 154 -130 154 -30 L154 480 C154 491 148 500 134 500 L114 500 C100 500 94 491 94 480 L94 -30 Z M166 691 C166 699 159 707 150 707 L98 707 C89 707 82 699 82 691 L82 638 C82 629 89 622 98 622 L150 622 C159 622 166 629 166 638 L166 691 Z " />
<glyph glyph-name="k" unicode="k" horiz-adv-x="439" d="M373 467 C383 477 382 500 359 500 L341 500 C326 500 318 492 313 487 L132 310 C129 306 124 307 124 312 L124 687 C124 698 115 707 104 707 L85 707 C74 707 65 698 65 687 L65 20 C65 9 74 0 85 0 L104 0 C115 0 124 9 124 20 L124 207 C124 212 129 212 132 209 L324 15 C329 10 339 0 354 0 L374 0 C395 0 402 22 388 35 L174 248 C165 256 166 264 174 272 L373 467 Z " />
<glyph glyph-name="l" unicode="l" horiz-adv-x="190" d="M125 687 C125 698 116 707 105 707 L85 707 C74 707 65 698 65 687 L65 20 C65 9 74 0 85 0 L105 0 C116 0 125 9 125 20 L125 687 Z " />
<glyph glyph-name="m" unicode="m" horiz-adv-x="738" d="M629 20 C629 9 638 0 649 0 L668 0 C679 0 688 9 688 20 L688 336 C688 436 634 510 529 510 C457 510 419 480 397 462 C382 450 373 450 358 462 C336 480 305 510 247 510 C187 510 166 477 135 477 C123 477 116 486 110 493 C106 497 102 500 96 500 L80 500 C69 500 60 491 60 480 L60 20 C60 9 69 0 80 0 L99 0 C110 0 119 9 119 20 L119 341 C119 391 167 451 229 451 C300 451 345 388 345 336 L345 20 C345 9 354 0 365 0 L383 0 C394 0 403 9 403 20 L403 336 C403 401 457 451 519 451 C585 451 629 410 629 336 L629 20 Z " />
<glyph glyph-name="n" unicode="n" horiz-adv-x="482" d="M432 336 C432 450 358 510 253 510 C179 510 163 477 134 477 C122 477 116 486 110 493 C106 497 102 500 96 500 L80 500 C69 500 60 491 60 480 L60 20 C60 9 69 0 80 0 L99 0 C110 0 119 9 119 20 L119 341 C119 403 174 451 246 451 C318 451 373 420 373 336 L373 20 C373 9 382 0 393 0 L412 0 C423 0 432 9 432 20 L432 336 Z " />
<glyph glyph-name="o" unicode="o" horiz-adv-x="500" d="M106 320 C111 373 147 451 247 451 C347 451 383 373 388 320 C392 279 392 221 388 180 C383 127 347 49 247 49 C147 49 111 127 106 180 C102 221 102 279 106 320 L106 320 Z M45 180 C53 75 127 -10 247 -10 C367 -10 441 75 449 180 C452 220 452 280 449 320 C441 425 367 510 247 510 C127 510 53 425 45 320 C42 280 42 220 45 180 L45 180 Z " />
<glyph glyph-name="p" unicode="p" horiz-adv-x="489" d="M380 180 C374 127 343 49 246 49 C157 49 128 127 123 180 C119 221 119 279 123 320 C128 373 157 451 246 451 C344 451 374 373 380 320 C385 279 385 221 380 180 L380 180 Z M251 510 C177 510 166 477 137 477 C127 477 118 486 112 493 C108 497 104 500 98 500 L82 500 C71 500 62 491 62 480 L62 -180 C62 -191 71 -200 82 -200 L101 -200 C112 -200 121 -191 121 -180 L121 -10 C121 9 131 15 144 15 C164 15 187 -10 251 -10 C356 -10 433 75 441 180 C444 220 444 280 441 320 C433 425 356 510 251 510 L251 510 Z " />
<glyph glyph-name="q" unicode="q" horiz-adv-x="484" d="M363 180 C358 127 329 49 240 49 C143 49 112 127 106 180 C101 221 101 279 106 320 C112 373 142 451 240 451 C329 451 358 373 363 320 C367 279 367 221 363 180 L363 180 Z M235 510 C130 510 53 425 45 320 C42 280 42 220 45 180 C53 75 130 -10 235 -10 C299 -10 322 15 342 15 C354 15 365 9 365 -10 L365 -180 C365 -191 374 -200 385 -200 L404 -200 C415 -200 424 -191 424 -180 L424 480 C424 491 415 500 404 500 L388 500 C382 500 378 497 374 493 C368 486 359 477 349 477 C320 477 309 510 235 510 L235 510 Z " />
<glyph glyph-name="r" unicode="r" horiz-adv-x="328" d="M278 442 C289 442 298 451 298 462 L298 480 C298 491 289 500 278 500 L276 500 C165 500 157 445 131 445 C116 445 116 467 113 480 C110 494 104 500 93 500 L80 500 C69 500 60 491 60 480 L60 20 C60 9 69 0 80 0 L99 0 C110 0 119 9 119 20 L119 270 C119 405 201 442 275 442 L278 442 Z " />
<glyph glyph-name="s" unicode="s" horiz-adv-x="449" d="M398 361 C398 454 315 510 225 510 C134 510 49 450 49 372 C49 280 132 250 220 237 C281 228 358 208 358 145 C358 91 307 48 225 48 C151 48 91 90 91 150 L91 163 C91 174 82 183 71 183 L52 183 C41 183 32 174 32 163 L32 150 C32 50 125 -10 225 -10 C341 -10 417 61 417 145 C417 255 304 282 220 297 C171 306 109 317 109 372 C109 414 155 454 225 454 C295 454 339 410 339 361 C339 346 348 340 359 340 L378 340 C389 340 398 346 398 361 L398 361 Z " />
<glyph glyph-name="t" unicode="t" horiz-adv-x="360" d="M186 495 C180 495 176 499 176 505 L176 660 C176 671 167 680 156 680 L136 680 C125 680 116 671 116 660 L116 505 C116 499 112 495 106 495 L25 495 C14 495 5 486 5 475 L5 456 C5 445 14 436 25 436 L106 436 C112 436 116 432 116 426 L116 160 C116 45 167 0 271 0 L322 0 C333 0 342 9 342 20 L342 36 C342 47 333 56 322 56 L271 56 C200 56 176 90 176 160 L176 426 C176 432 180 436 186 436 L312 436 C323 436 332 445 332 456 L332 475 C332 486 323 495 312 495 L186 495 Z " />
<glyph glyph-name="u" unicode="u" horiz-adv-x="477" d="M55 164 C55 50 129 -10 234 -10 C308 -10 324 23 353 23 C365 23 371 14 377 7 C381 3 385 0 391 0 L407 0 C418 0 427 9 427 20 L427 480 C427 491 418 500 407 500 L388 500 C377 500 368 491 368 480 L368 159 C368 97 313 49 241 49 C169 49 114 80 114 164 L114 480 C114 491 105 500 94 500 L75 500 C64 500 55 491 55 480 L55 164 Z " />
<glyph glyph-name="v" unicode="v" horiz-adv-x="470" d="M241 80 C238 72 229 72 226 80 L76 485 C72 496 66 500 57 500 L31 500 C15 500 8 487 12 477 L189 15 C193 5 199 0 208 0 L259 0 C268 0 274 5 278 15 L455 477 C459 487 452 500 436 500 L410 500 C401 500 395 496 391 485 L241 80 Z " />
<glyph glyph-name="w" unicode="w" horiz-adv-x="636" d="M74 485 C71 496 64 500 55 500 L35 500 C19 500 13 487 16 477 L152 15 C155 5 162 0 171 0 L194 0 C203 0 210 5 213 15 L314 396 C315 400 321 400 322 396 L423 15 C426 5 433 0 442 0 L465 0 C474 0 481 5 484 15 L620 477 C623 487 617 500 601 500 L581 500 C572 500 565 496 562 485 L462 126 C460 118 451 118 449 126 L353 485 C350 496 343 500 334 500 L302 500 C293 500 286 496 283 485 L187 126 C185 118 176 118 174 126 L74 485 Z " />
<glyph glyph-name="x" unicode="x" horiz-adv-x="436" d="M343 10 C346 5 350 0 365 0 L389 0 C408 0 416 17 405 33 L256 260 C253 265 252 268 255 273 L388 467 C399 483 391 500 372 500 L350 500 C335 500 331 495 328 490 L222 325 C220 321 216 321 214 325 L108 490 C105 495 101 500 86 500 L64 500 C45 500 37 483 48 467 L181 273 C184 268 183 265 180 260 L31 33 C20 17 28 0 47 0 L71 0 C86 0 90 5 93 10 L214 200 C216 204 220 204 222 200 L343 10 Z " />
<glyph glyph-name="y" unicode="y" horiz-adv-x="442" d="M73 485 C69 496 63 500 54 500 L26 500 C10 500 3 487 7 477 L196 37 C198 32 197 29 195 24 L121 -177 C117 -187 124 -200 140 -200 L162 -200 C171 -200 177 -196 181 -185 L435 477 C439 487 432 500 416 500 L388 500 C379 500 373 496 369 485 L235 117 C233 112 229 112 227 117 L73 485 Z " />
<glyph glyph-name="z" unicode="z" horiz-adv-x="470" d="M53 82 C41 68 40 64 40 51 L40 20 C40 9 49 0 60 0 L410 0 C421 0 430 9 430 20 L430 38 C430 49 421 58 410 58 L121 58 C115 58 112 63 116 68 L400 410 C409 421 420 433 420 451 L420 480 C420 491 411 500 400 500 L70 500 C59 500 50 491 50 480 L50 462 C50 451 59 442 70 442 L340 442 C346 442 349 437 345 432 L53 82 Z " />
<glyph glyph-name="braceleft" unicode="&#x7b;" horiz-adv-x="346" d="M294 -33 C200 -33 148 36 148 120 L148 255 C148 289 120 312 107 320 C120 328 148 350 148 385 L148 510 C148 594 200 663 294 663 L306 663 C317 663 326 672 326 683 L326 700 C326 711 317 720 306 720 L294 720 C162 720 89 620 89 510 L89 380 C89 369 80 364 71 360 L60 355 C50 351 40 346 40 335 L40 305 C40 294 50 289 60 285 L71 280 C80 276 89 270 89 260 L89 120 C89 10 162 -90 294 -90 L316 -90 C327 -90 336 -81 336 -70 L336 -53 C336 -42 327 -33 316 -33 L294 -33 Z " />
<glyph glyph-name="bar" unicode="&#x7c;" horiz-adv-x="225" d="M125 700 C125 711 116 720 105 720 L90 720 C79 720 70 711 70 700 L70 -50 C70 -61 79 -70 90 -70 L105 -70 C116 -70 125 -61 125 -50 L125 700 Z " />
<glyph glyph-name="braceright" unicode="&#x7d;" horiz-adv-x="346" d="M30 -33 C19 -33 10 -42 10 -53 L10 -70 C10 -81 19 -90 30 -90 L52 -90 C184 -90 257 10 257 120 L257 260 C257 270 266 276 275 280 L286 285 C296 289 306 294 306 305 L306 335 C306 346 296 351 286 355 L275 360 C266 364 257 369 257 380 L257 510 C257 620 184 720 52 720 L40 720 C29 720 20 711 20 700 L20 683 C20 672 29 663 40 663 L52 663 C146 663 198 594 198 510 L198 385 C198 350 226 328 239 320 C226 312 198 289 198 255 L198 120 C198 36 146 -33 52 -33 L30 -33 Z " />
<glyph glyph-name="asciitilde" unicode="&#x7e;" horiz-adv-x="548" d="M161 248 C269 248 285 203 389 203 C439 203 480 228 480 264 L480 288 C480 308 461 310 451 297 C440 283 411 271 389 271 C281 271 265 316 161 316 C111 316 70 291 70 255 L70 231 C70 211 89 209 99 222 C110 236 139 248 161 248 L161 248 Z " />
<glyph glyph-name="exclamdown" unicode="&#xa1;" horiz-adv-x="234" d="M126 -190 C137 -190 146 -181 146 -170 L146 300 C146 311 137 320 126 320 L106 320 C95 320 86 311 86 300 L86 -170 C86 -181 95 -190 106 -190 L126 -190 Z M70 431 C70 423 77 415 86 415 L148 415 C157 415 164 423 164 431 L164 494 C164 503 157 510 148 510 L86 510 C77 510 70 503 70 494 L70 431 Z " />
<glyph glyph-name="cent" unicode="&#xa2;" horiz-adv-x="478" d="M288 507 C281 508 278 511 278 517 L278 550 C278 561 269 570 258 570 L236 570 C225 570 216 561 216 550 L216 517 C216 511 213 508 206 507 C110 490 52 412 45 320 C42 280 42 220 45 180 C52 88 110 8 206 -7 C213 -8 216 -11 216 -17 L216 -50 C216 -61 225 -70 236 -70 L258 -70 C269 -70 278 -61 278 -50 L278 -17 C278 -11 281 -8 288 -7 C377 7 435 75 435 160 C435 171 426 180 415 180 L388 180 C379 180 369 176 369 163 C369 111 328 55 247 55 C153 55 116 127 112 180 C109 221 109 279 112 320 C116 373 153 445 247 445 C329 445 370 388 370 336 C370 325 380 320 389 320 L418 320 C429 320 435 329 435 340 C435 425 377 491 288 507 L288 507 Z " />
<glyph glyph-name="sterling" unicode="&#xa3;" horiz-adv-x="525" d="M455 540 C455 634 389 710 295 710 C201 710 139 634 139 540 L139 398 C139 392 135 388 129 388 L69 388 C58 388 49 379 49 368 L49 348 C49 337 58 328 69 328 L129 328 C135 328 139 322 139 316 L139 210 C139 130 105 67 65 67 L60 67 C49 67 40 58 40 47 L40 20 C40 9 49 0 61 0 L455 0 C466 0 475 9 475 20 L475 44 C475 55 466 64 455 64 L172 64 C166 64 164 68 168 72 C186 93 203 150 203 210 L203 316 C203 322 207 328 213 328 L367 328 C378 328 387 337 387 348 L387 368 C387 379 378 388 367 388 L213 388 C207 388 203 392 203 398 L203 540 C203 583 220 646 295 646 C370 646 392 583 392 540 L392 530 C392 519 401 510 412 510 L435 510 C446 510 455 519 455 530 L455 540 Z " />
<glyph glyph-name="currency" unicode="&#xa4;" horiz-adv-x="664" d="M520 63 C528 55 540 55 548 63 L562 77 C570 85 570 97 562 105 L491 176 C519 213 536 258 536 308 C536 356 519 401 492 437 L562 507 C570 515 570 527 562 535 L548 549 C540 557 528 557 520 549 L450 480 C414 507 369 524 320 524 C270 524 225 506 188 478 L118 549 C110 557 98 557 90 549 L76 535 C68 527 68 515 76 507 L146 436 C120 400 104 356 104 308 C104 259 120 214 148 178 L76 105 C68 97 68 85 76 77 L90 63 C98 55 110 55 118 63 L191 135 C227 108 271 92 320 92 C368 92 412 108 448 134 L520 63 Z M319 151 C232 151 162 221 162 308 C162 395 232 465 319 465 C406 465 476 395 476 308 C476 221 406 151 319 151 L319 151 Z " />
<glyph glyph-name="yen" unicode="&#xa5;" horiz-adv-x="458" d="M386 345 C397 345 406 354 406 365 L406 381 C406 392 397 401 386 401 L332 401 C326 401 323 407 325 413 L430 672 C436 687 427 700 414 700 L382 700 C373 700 367 696 363 685 C319 570 283 478 226 328 C224 323 220 323 218 328 L79 685 C75 696 69 700 60 700 L28 700 C15 700 6 687 12 672 L118 413 C120 407 117 401 111 401 L56 401 C45 401 36 392 36 381 L36 365 C36 354 45 345 56 345 L139 345 C143 345 147 343 148 340 L160 310 C163 304 159 298 153 298 L56 298 C45 298 36 289 36 278 L36 262 C36 251 45 242 56 242 L179 242 C185 242 189 238 189 232 L189 20 C189 9 198 0 209 0 L235 0 C246 0 255 9 255 20 L255 232 C255 238 259 242 265 242 L386 242 C397 242 406 251 406 262 L406 278 C406 289 397 298 386 298 L290 298 C284 298 280 304 283 310 L295 340 C296 343 300 345 304 345 L386 345 Z " />
<glyph glyph-name="brokenbar" unicode="&#xa6;" horiz-adv-x="216" d="M127 287 C127 298 118 307 107 307 L85 307 C74 307 65 298 65 287 L65 20 C65 9 74 0 85 0 L107 0 C118 0 127 9 127 20 L127 287 Z M127 687 C127 698 118 707 107 707 L85 707 C74 707 65 698 65 687 L65 420 C65 409 74 400 85 400 L107 400 C118 400 127 409 127 420 L127 687 Z " />
<glyph glyph-name="section" unicode="&#xa7;" horiz-adv-x="530" d="M152 227 C126 251 114 281 114 304 C114 338 145 375 170 397 C181 406 195 407 206 397 L357 261 C388 232 399 198 399 177 C399 145 379 102 352 79 C342 71 326 71 317 79 L152 227 Z M397 310 C334 367 282 412 210 477 C185 499 166 526 166 559 C166 609 193 653 265 653 C333 653 365 600 365 550 L365 520 C365 509 374 500 385 500 L406 500 C417 500 426 509 426 520 L426 550 C426 650 360 712 265 712 C178 712 99 658 99 557 C99 525 106 497 128 470 C140 456 138 441 124 431 C81 400 53 355 53 307 C53 249 70 214 112 175 C190 103 228 69 297 11 C323 -11 346 -37 346 -70 C346 -140 302 -165 248 -165 C183 -165 144 -122 144 -61 L144 -20 C144 -9 135 0 124 0 L103 0 C92 0 83 -9 83 -20 L83 -61 C83 -170 153 -223 248 -223 C336 -223 414 -168 414 -70 C414 -43 408 -18 389 6 C378 20 380 35 392 44 C430 73 461 128 461 178 C461 228 437 274 397 310 L397 310 Z " />
<glyph glyph-name="dieresis" unicode="&#xa8;" horiz-adv-x="398" d="M148 691 C148 699 141 707 132 707 L80 707 C71 707 64 699 64 691 L64 638 C64 629 71 622 80 622 L132 622 C141 622 148 629 148 638 L148 691 Z M319 691 C319 699 312 707 303 707 L251 707 C242 707 235 699 235 691 L235 638 C235 629 242 622 251 622 L303 622 C312 622 319 629 319 638 L319 691 Z " />
<glyph glyph-name="copyright" unicode="&#xa9;" horiz-adv-x="780" d="M40 350 C40 157 197 0 390 0 C583 0 740 157 740 350 C740 543 583 700 390 700 C197 700 40 543 40 350 L40 350 Z M390 643 C551 643 683 511 683 350 C683 189 551 56 390 56 C229 56 96 189 96 350 C96 511 229 643 390 643 L390 643 Z M541 274 C541 283 534 290 525 290 L502 290 C494 290 486 287 486 277 C486 233 447 196 388 196 C322 196 286 247 282 290 C279 324 279 370 282 404 C286 447 322 504 388 504 C448 504 487 460 487 416 C487 407 495 404 503 404 L528 404 C537 404 541 411 541 420 C541 498 478 558 388 558 C290 558 234 488 226 404 C223 371 223 323 226 290 C234 205 290 136 388 136 C478 136 541 196 541 274 L541 274 Z " />
<glyph glyph-name="ordfeminine" unicode="&#xaa;" horiz-adv-x="313" d="M201 565 C204 565 206 563 206 560 L206 548 C206 514 191 491 139 491 C110 491 95 505 95 528 C95 549 108 565 133 565 L201 565 Z M154 665 C186 665 204 646 204 625 L204 613 C204 610 202 608 199 608 L133 608 C80 608 50 569 50 528 C50 485 80 448 141 448 C178 448 198 467 207 467 C212 467 214 460 217 456 C219 454 221 453 224 453 L239 453 C244 453 249 457 249 463 L249 618 C249 675 203 708 154 708 C111 708 62 684 62 638 C62 632 64 628 72 628 L94 628 C98 628 105 628 105 636 C105 654 127 665 154 665 L154 665 Z " />
<glyph glyph-name="guillemotleft" unicode="&#xab;" horiz-adv-x="492" d="M56 274 C49 263 49 257 56 246 L152 85 C155 80 162 70 177 70 L196 70 C215 70 225 83 212 103 L127 248 C121 258 121 263 127 272 L212 417 C225 437 215 450 196 450 L177 450 C162 450 155 440 152 435 L56 274 Z M218 274 C211 263 211 257 218 246 L314 85 C317 80 324 70 339 70 L358 70 C377 70 387 83 374 103 L289 248 C283 258 283 263 289 272 L374 417 C387 437 377 450 358 450 L339 450 C324 450 317 440 314 435 L218 274 Z " />
<glyph glyph-name="logicalnot" unicode="&#xac;" horiz-adv-x="530" d="M420 110 C420 99 429 90 440 90 L460 90 C471 90 480 99 480 110 L480 280 C480 291 471 300 460 300 L70 300 C59 300 50 291 50 280 L50 260 C50 249 59 240 70 240 L410 240 C416 240 420 236 420 230 L420 110 Z " />
<glyph glyph-name="registered" unicode="&#xae;" horiz-adv-x="780" d="M40 350 C40 157 197 0 390 0 C583 0 740 157 740 350 C740 543 583 700 390 700 C197 700 40 543 40 350 L40 350 Z M390 643 C551 643 683 511 683 350 C683 189 551 56 390 56 C229 56 96 189 96 350 C96 511 229 643 390 643 L390 643 Z M328 344 C324 344 320 347 320 352 L320 492 C320 497 324 500 328 500 L415 500 C456 500 493 473 493 422 C493 371 456 344 415 344 L328 344 Z M483 310 C522 333 547 375 547 423 C547 496 488 555 415 555 L281 555 C273 555 265 548 265 539 L265 162 C265 153 273 146 281 146 L304 146 C313 146 320 153 320 162 L320 281 C320 286 324 289 328 289 L392 289 C401 289 405 284 407 279 L475 162 C481 152 485 146 498 146 L520 146 C536 146 542 158 535 170 L468 285 C459 300 468 301 483 310 L483 310 Z " />
<glyph glyph-name="macron" unicode="&#xaf;" horiz-adv-x="402" d="M80 694 C69 694 60 685 60 674 L60 654 C60 643 69 634 80 634 L322 634 C333 634 342 643 342 654 L342 674 C342 685 333 694 322 694 L80 694 Z " />
<glyph glyph-name="degree" unicode="&#xb0;" horiz-adv-x="370" d="M36 585 C36 502 102 436 185 436 C267 436 333 502 333 585 C333 667 267 733 185 733 C102 733 36 667 36 585 L36 585 Z M92 585 C92 634 136 678 185 678 C234 678 278 634 278 585 C278 536 234 492 185 492 C136 492 92 536 92 585 L92 585 Z " />
<glyph glyph-name="plusminus" unicode="&#xb1;" horiz-adv-x="540" d="M229 388 C235 388 239 384 239 378 L239 218 C239 207 248 198 259 198 L281 198 C292 198 301 207 301 218 L301 378 C301 384 305 388 311 388 L470 388 C481 388 490 397 490 408 L490 429 C490 440 481 449 470 449 L311 449 C305 449 301 453 301 459 L301 618 C301 629 292 638 281 638 L259 638 C248 638 239 629 239 618 L239 459 C239 453 235 449 229 449 L70 449 C59 449 50 440 50 429 L50 408 C50 397 59 388 70 388 L229 388 Z M73 70 C62 70 53 61 53 50 L53 20 C53 9 62 0 73 0 L467 0 C478 0 487 9 487 20 L487 50 C487 61 478 70 467 70 L73 70 Z " />
<glyph glyph-name="twosuperior" unicode="&#xb2;" horiz-adv-x="231" d="M150 605 C150 577 139 554 118 530 L19 415 C17 413 15 410 15 402 L15 356 C15 351 20 346 25 346 L206 346 C214 346 216 351 216 356 L216 394 C216 403 211 404 206 404 L99 404 C94 404 92 409 95 412 L169 500 C194 530 208 566 208 605 C208 654 173 700 114 700 C61 700 19 658 19 605 L19 597 C19 589 23 587 29 587 L69 587 C75 587 79 592 79 597 L79 605 C79 626 91 640 114 640 C135 640 150 628 150 605 L150 605 Z " />
<glyph glyph-name="threesuperior" unicode="&#xb3;" horiz-adv-x="243" d="M167 450 C167 429 155 405 122 405 C95 405 79 424 79 445 L79 449 C79 454 74 459 69 459 L26 459 C21 459 16 454 16 449 L16 445 C16 388 63 342 122 342 C188 342 229 388 229 445 C229 477 214 505 192 524 C187 528 189 532 193 536 C212 552 222 577 222 605 C222 658 176 700 122 700 C67 700 24 658 24 605 L24 597 C24 592 29 587 34 587 L76 587 C82 587 86 592 86 597 L86 605 C86 625 105 638 122 638 C139 638 159 628 159 600 C159 581 152 559 123 559 L115 559 C109 559 105 555 105 549 L105 508 C105 502 109 498 115 498 L123 498 C156 498 167 471 167 450 L167 450 Z " />
<glyph glyph-name="acute" unicode="&#xb4;" horiz-adv-x="297" d="M154 730 C139 730 133 721 128 714 L52 605 C47 598 53 585 66 585 L85 585 C103 585 109 591 115 597 L223 709 C229 715 225 730 212 730 L154 730 Z " />
<glyph glyph-name="uni00B5" unicode="&#xb5;" horiz-adv-x="833" d="M62 -180 C62 -191 71 -200 82 -200 L101 -200 C112 -200 121 -191 121 -180 L121 -6 C121 3 129 15 143 15 C163 15 195 -10 241 -10 C315 -10 331 23 360 23 C372 23 378 14 384 7 C388 3 392 0 398 0 L414 0 C425 0 434 9 434 20 L434 480 C434 491 425 500 414 500 L395 500 C384 500 375 491 375 480 L375 159 C375 97 320 49 248 49 C176 49 121 80 121 164 L121 480 C121 491 112 500 101 500 L82 500 C71 500 62 491 62 480 L62 -180 Z " />
<glyph glyph-name="paragraph" unicode="&#xb6;" horiz-adv-x="550" d="M220 350 L220 -80 C220 -91 229 -100 240 -100 L254 -100 C265 -100 274 -91 274 -80 L274 641 C274 647 278 651 284 651 L374 651 C380 651 384 647 384 641 L384 -80 C384 -91 393 -100 404 -100 L418 -100 C429 -100 438 -91 438 -80 L438 680 C438 691 429 700 418 700 L220 700 C126 700 50 624 50 530 C50 439 122 360 210 360 C216 360 220 356 220 350 L220 350 Z " />
<glyph glyph-name="periodcentered" unicode="&#xb7;" horiz-adv-x="435" d="M260 315 C260 326 251 335 240 335 L140 335 C129 335 120 326 120 315 L120 215 C120 204 129 195 140 195 L240 195 C251 195 260 204 260 215 L260 315 Z " />
<glyph glyph-name="cedilla" unicode="&#xb8;" horiz-adv-x="500" d="M243 -45 C234 -45 227 -50 224 -61 L186 -182 C183 -191 189 -200 202 -200 L239 -200 C248 -200 255 -195 258 -184 L286 -63 C288 -54 283 -45 270 -45 L243 -45 Z " />
<glyph glyph-name="onesuperior" unicode="&#xb9;" horiz-adv-x="182" d="M89 700 C85 700 82 698 79 696 L21 650 C16 646 16 641 16 634 L16 589 C16 583 22 582 27 585 L84 625 C85 626 88 625 88 622 L88 360 C88 355 93 350 98 350 L139 350 C144 350 149 355 149 360 L149 690 C149 696 144 700 139 700 L89 700 Z " />
<glyph glyph-name="ordmasculine" unicode="&#xba;" horiz-adv-x="330" d="M52 540 C65 479 115 448 163 448 C211 448 261 479 274 540 C279 564 279 593 273 620 C260 681 210 708 163 708 C116 708 66 681 53 620 C47 593 47 564 52 540 L52 540 Z M163 494 C130 494 106 514 101 540 C95 569 95 594 103 620 C110 644 129 661 163 661 C197 661 216 644 223 620 C231 594 231 569 225 540 C220 514 196 494 163 494 L163 494 Z " />
<glyph glyph-name="guillemotright" unicode="&#xbb;" horiz-adv-x="492" d="M298 435 C295 440 288 450 273 450 L254 450 C235 450 226 438 238 417 L323 272 C329 263 329 258 323 248 L238 103 C226 82 235 70 254 70 L273 70 C288 70 295 80 298 85 L394 246 C401 257 401 263 394 274 L298 435 Z M136 435 C133 440 126 450 111 450 L92 450 C73 450 64 438 76 417 L161 272 C167 263 167 258 161 248 L76 103 C64 82 73 70 92 70 L111 70 C126 70 133 80 136 85 L232 246 C239 257 239 263 232 274 L136 435 Z " />
<glyph glyph-name="onequarter" unicode="&#xbc;" horiz-adv-x="639" d="M202 690 C202 695 197 700 192 700 L151 700 C147 700 144 697 141 695 L55 616 C51 613 45 604 45 595 L45 557 C45 552 52 549 56 553 L141 624 C142 626 145 625 145 622 L145 360 C145 354 150 350 155 350 L192 350 C197 350 202 354 202 360 L202 690 Z M532 672 C540 685 529 700 516 700 L503 700 C494 700 487 695 481 685 L94 28 C86 14 97 0 110 0 L125 0 C134 0 140 5 146 15 L532 672 Z M390 121 L480 270 C481 272 484 272 484 269 L484 122 C484 119 482 117 479 117 L392 117 C389 117 388 119 390 121 L390 121 Z M334 126 C330 119 326 114 326 107 L326 75 C326 69 330 65 336 65 L479 65 C482 65 484 63 484 60 L484 10 C484 4 489 0 494 0 L524 0 C529 0 534 4 534 10 L534 60 C534 63 536 65 539 65 L563 65 C568 65 573 69 573 75 L573 107 C573 113 568 117 563 117 L539 117 C536 117 534 119 534 122 L534 340 C534 345 529 350 524 350 L487 350 C481 350 479 348 476 343 L334 126 Z " />
<glyph glyph-name="onehalf" unicode="&#xbd;" horiz-adv-x="660" d="M55 616 C51 613 45 604 45 595 L45 557 C45 552 52 549 56 553 L141 624 C142 626 145 625 145 622 L145 360 C145 354 150 350 155 350 L192 350 C197 350 202 354 202 360 L202 690 C202 695 197 700 192 700 L151 700 C147 700 144 697 141 695 L55 616 Z M544 255 C544 229 534 212 512 189 L384 57 C382 55 379 52 379 44 L379 10 C379 4 384 0 389 0 L595 0 C601 0 605 4 605 10 L605 44 C605 50 601 54 595 54 L468 54 C463 54 461 59 464 62 L551 154 C582 188 599 216 599 262 C599 316 547 358 493 358 C440 358 388 316 388 262 L388 245 C388 239 393 235 398 235 L434 235 C440 235 444 239 444 245 L444 257 C444 284 467 305 493 305 C529 305 544 282 544 255 L544 255 Z M532 672 C540 685 529 700 516 700 L503 700 C494 700 487 695 481 685 L94 28 C86 14 97 0 110 0 L125 0 C134 0 140 5 146 15 L532 672 Z " />
<glyph glyph-name="threequarters" unicode="&#xbe;" horiz-adv-x="649" d="M532 672 C540 685 529 700 516 700 L503 700 C494 700 487 695 481 685 L94 28 C86 14 97 0 110 0 L125 0 C134 0 140 5 146 15 L532 672 Z M390 121 L480 270 C481 272 484 272 484 269 L484 122 C484 119 482 117 479 117 L392 117 C389 117 388 119 390 121 L390 121 Z M334 126 C330 119 326 114 326 107 L326 75 C326 69 330 65 336 65 L479 65 C482 65 484 63 484 60 L484 10 C484 4 489 0 494 0 L524 0 C529 0 534 4 534 10 L534 60 C534 63 536 65 539 65 L563 65 C568 65 573 69 573 75 L573 107 C573 113 568 117 563 117 L539 117 C536 117 534 119 534 122 L534 340 C534 345 529 350 524 350 L487 350 C481 350 479 348 476 343 L334 126 Z M78 451 C78 457 73 461 68 461 L30 461 C25 461 20 457 20 451 L20 448 C20 390 77 345 136 345 C206 345 251 396 251 454 C251 485 234 515 211 531 C208 533 207 537 211 540 C236 558 243 585 243 612 C243 666 195 708 136 708 C81 708 28 666 28 612 L28 605 C28 599 33 595 38 595 L75 595 C81 595 85 599 85 605 L85 612 C85 633 106 659 136 659 C170 659 188 634 188 612 C188 580 165 560 137 560 L131 560 C125 560 121 555 121 550 L121 518 C121 513 125 508 131 508 L137 508 C170 508 195 483 195 454 C195 417 166 399 136 399 C104 399 78 420 78 448 L78 451 Z " />
<glyph glyph-name="questiondown" unicode="&#xbf;" horiz-adv-x="452" d="M106 -27 C106 36 150 70 170 90 C190 110 216 128 250 168 C261 181 268 203 268 229 L268 300 C268 311 259 320 248 320 L228 320 C217 320 208 311 208 300 L208 229 C208 190 142 140 124 121 C89 84 45 46 45 -27 C45 -131 121 -200 228 -200 C330 -200 407 -114 407 -7 L407 0 C407 11 398 20 387 20 L367 20 C356 20 347 11 347 0 L347 -7 C347 -81 295 -140 228 -140 C153 -140 106 -94 106 -27 L106 -27 Z M189 431 C189 423 196 415 205 415 L267 415 C276 415 283 423 283 431 L283 494 C283 503 276 510 267 510 L205 510 C196 510 189 503 189 494 L189 431 Z " />
<glyph glyph-name="Agrave" unicode="&#xc0;" horiz-adv-x="478" d="M327 260 L151 260 C145 260 141 263 143 271 L234 611 C235 615 236 617 238 617 L240 617 C242 617 243 615 244 611 L335 271 C337 263 333 260 327 260 L327 260 Z M410 15 C412 6 420 0 429 0 L454 0 C470 0 476 11 474 20 L283 685 C281 694 273 700 264 700 L214 700 C205 700 197 694 195 685 L4 20 C2 11 8 0 24 0 L49 0 C58 0 66 6 68 15 L117 184 C120 193 127 198 136 198 L342 198 C351 198 358 193 361 184 L410 15 Z M114 895 C101 895 97 880 103 874 L211 762 C217 756 223 750 241 750 L260 750 C273 750 279 763 274 770 L198 879 C193 886 187 895 172 895 L114 895 Z " />
<glyph glyph-name="Aacute" unicode="&#xc1;" horiz-adv-x="478" d="M327 260 L151 260 C145 260 141 263 143 271 L234 611 C235 615 236 617 238 617 L240 617 C242 617 243 615 244 611 L335 271 C337 263 333 260 327 260 L327 260 Z M410 15 C412 6 420 0 429 0 L454 0 C470 0 476 11 474 20 L283 685 C281 694 273 700 264 700 L214 700 C205 700 197 694 195 685 L4 20 C2 11 8 0 24 0 L49 0 C58 0 66 6 68 15 L117 184 C120 193 127 198 136 198 L342 198 C351 198 358 193 361 184 L410 15 Z M301 895 C286 895 280 886 275 879 L199 770 C194 763 200 750 213 750 L232 750 C250 750 256 756 262 762 L370 874 C376 880 372 895 359 895 L301 895 Z " />
<glyph glyph-name="Acircumflex" unicode="&#xc2;" horiz-adv-x="478" d="M327 260 L151 260 C145 260 141 263 143 271 L234 611 C235 615 236 617 238 617 L240 617 C242 617 243 615 244 611 L335 271 C337 263 333 260 327 260 L327 260 Z M410 15 C412 6 420 0 429 0 L454 0 C470 0 476 11 474 20 L283 685 C281 694 273 700 264 700 L214 700 C205 700 197 694 195 685 L4 20 C2 11 8 0 24 0 L49 0 C58 0 66 6 68 15 L117 184 C120 193 127 198 136 198 L342 198 C351 198 358 193 361 184 L410 15 Z M233 832 C238 837 242 837 247 832 L314 767 C320 761 330 751 345 751 L388 751 C401 751 405 766 399 772 L281 884 C275 890 269 896 252 896 L230 896 C212 896 206 890 200 884 L82 772 C76 766 80 751 93 751 L136 751 C151 751 161 761 167 767 L233 832 Z " />
<glyph glyph-name="Atilde" unicode="&#xc3;" horiz-adv-x="478" d="M327 260 L151 260 C145 260 141 263 143 271 L234 611 C235 615 236 617 238 617 L240 617 C242 617 243 615 244 611 L335 271 C337 263 333 260 327 260 L327 260 Z M410 15 C412 6 420 0 429 0 L454 0 C470 0 476 11 474 20 L283 685 C281 694 273 700 264 700 L214 700 C205 700 197 694 195 685 L4 20 C2 11 8 0 24 0 L49 0 C58 0 66 6 68 15 L117 184 C120 193 127 198 136 198 L342 198 C351 198 358 193 361 184 L410 15 Z M314 832 C246 832 238 857 174 857 C134 857 103 832 103 806 L103 782 C103 763 120 759 128 768 C139 781 152 789 174 789 C242 789 250 764 314 764 C354 764 385 789 385 815 L385 839 C385 858 368 863 360 853 C352 843 339 832 314 832 L314 832 Z " />
<glyph glyph-name="Adieresis" unicode="&#xc4;" horiz-adv-x="478" d="M327 260 L151 260 C145 260 141 263 143 271 L234 611 C235 615 236 617 238 617 L240 617 C242 617 243 615 244 611 L335 271 C337 263 333 260 327 260 L327 260 Z M410 15 C412 6 420 0 429 0 L454 0 C470 0 476 11 474 20 L283 685 C281 694 273 700 264 700 L214 700 C205 700 197 694 195 685 L4 20 C2 11 8 0 24 0 L49 0 C58 0 66 6 68 15 L117 184 C120 193 127 198 136 198 L342 198 C351 198 358 193 361 184 L410 15 Z M192 831 C192 839 185 847 176 847 L124 847 C115 847 108 839 108 831 L108 778 C108 769 115 762 124 762 L176 762 C185 762 192 769 192 778 L192 831 Z M363 831 C363 839 356 847 347 847 L295 847 C286 847 279 839 279 831 L279 778 C279 769 286 762 295 762 L347 762 C356 762 363 769 363 778 L363 831 Z " />
<glyph glyph-name="Aring" unicode="&#xc5;" horiz-adv-x="478" d="M327 260 L151 260 C145 260 141 263 143 271 L234 611 C235 615 236 617 238 617 L240 617 C242 617 243 615 244 611 L335 271 C337 263 333 260 327 260 L327 260 Z M410 15 C412 6 420 0 429 0 L454 0 C470 0 476 11 474 20 L283 685 C281 694 273 700 264 700 L214 700 C205 700 197 694 195 685 L4 20 C2 11 8 0 24 0 L49 0 C58 0 66 6 68 15 L117 184 C120 193 127 198 136 198 L342 198 C351 198 358 193 361 184 L410 15 Z M134 840 C134 779 183 730 244 730 C305 730 354 779 354 840 C354 901 305 950 244 950 C183 950 134 901 134 840 L134 840 Z M188 840 C188 872 213 895 244 895 C276 895 299 872 299 840 C299 809 276 784 244 784 C213 784 188 809 188 840 L188 840 Z " />
<glyph glyph-name="AE" unicode="&#xc6;" horiz-adv-x="723" d="M320 626 L320 270 C320 264 316 260 310 260 L151 260 C145 260 141 263 143 271 L239 630 C240 634 243 636 245 636 L310 636 C316 636 320 632 320 626 L320 626 Z M214 700 C205 700 197 694 195 685 L4 20 C2 11 8 0 24 0 L49 0 C58 0 66 6 68 15 L117 184 C120 193 127 198 136 198 L310 198 C316 198 320 194 320 188 L320 20 C320 9 329 0 340 0 L655 0 C666 0 675 9 675 20 L675 44 C675 55 666 64 655 64 L394 64 C388 64 384 68 384 74 L384 316 C384 322 388 326 394 326 L642 326 C653 326 662 335 662 346 L662 369 C662 380 653 389 642 389 L394 389 C388 389 384 393 384 399 L384 626 C384 632 388 636 394 636 L653 636 C664 636 673 645 673 656 L673 680 C673 691 664 700 653 700 L214 700 Z " />
<glyph glyph-name="Ccedilla" unicode="&#xc7;" horiz-adv-x="543" d="M500 204 C500 215 491 224 480 224 L453 224 C442 224 433 215 433 204 L433 200 C433 141 385 56 277 56 C169 56 129 142 121 200 C109 282 109 418 121 500 C132 573 182 644 277 644 C372 644 433 574 433 500 L433 496 C433 485 442 476 453 476 L480 476 C491 476 500 485 500 496 L500 500 C500 610 409 708 277 708 C145 708 69 609 54 500 C43 420 43 281 54 200 C71 71 157 -8 277 -8 C397 -8 500 70 500 200 L500 204 Z M273 -45 C264 -45 257 -50 254 -61 L216 -182 C213 -191 219 -200 232 -200 L269 -200 C278 -200 285 -195 288 -184 L316 -63 C318 -54 313 -45 300 -45 L273 -45 Z " />
<glyph glyph-name="Egrave" unicode="&#xc8;" horiz-adv-x="470" d="M129 316 C129 322 133 326 139 326 L387 326 C398 326 407 335 407 346 L407 369 C407 380 398 389 387 389 L139 389 C133 389 129 393 129 399 L129 626 C129 632 133 636 139 636 L398 636 C409 636 418 645 418 656 L418 680 C418 691 409 700 398 700 L85 700 C74 700 65 691 65 680 L65 20 C65 9 74 0 85 0 L400 0 C411 0 420 9 420 20 L420 44 C420 55 411 64 400 64 L139 64 C133 64 129 68 129 74 L129 316 Z M124 895 C111 895 107 880 113 874 L221 762 C227 756 233 750 251 750 L270 750 C283 750 289 763 284 770 L208 879 C203 886 197 895 182 895 L124 895 Z " />
<glyph glyph-name="Eacute" unicode="&#xc9;" horiz-adv-x="470" d="M129 316 C129 322 133 326 139 326 L387 326 C398 326 407 335 407 346 L407 369 C407 380 398 389 387 389 L139 389 C133 389 129 393 129 399 L129 626 C129 632 133 636 139 636 L398 636 C409 636 418 645 418 656 L418 680 C418 691 409 700 398 700 L85 700 C74 700 65 691 65 680 L65 20 C65 9 74 0 85 0 L400 0 C411 0 420 9 420 20 L420 44 C420 55 411 64 400 64 L139 64 C133 64 129 68 129 74 L129 316 Z M291 895 C276 895 270 886 265 879 L189 770 C184 763 190 750 203 750 L222 750 C240 750 246 756 252 762 L360 874 C366 880 362 895 349 895 L291 895 Z " />
<glyph glyph-name="Ecircumflex" unicode="&#xca;" horiz-adv-x="470" d="M129 316 C129 322 133 326 139 326 L387 326 C398 326 407 335 407 346 L407 369 C407 380 398 389 387 389 L139 389 C133 389 129 393 129 399 L129 626 C129 632 133 636 139 636 L398 636 C409 636 418 645 418 656 L418 680 C418 691 409 700 398 700 L85 700 C74 700 65 691 65 680 L65 20 C65 9 74 0 85 0 L400 0 C411 0 420 9 420 20 L420 44 C420 55 411 64 400 64 L139 64 C133 64 129 68 129 74 L129 316 Z M242 832 C247 837 251 837 256 832 L323 767 C329 761 339 751 354 751 L397 751 C410 751 414 766 408 772 L290 884 C284 890 278 896 261 896 L239 896 C221 896 215 890 209 884 L91 772 C85 766 89 751 102 751 L145 751 C160 751 170 761 176 767 L242 832 Z " />
<glyph glyph-name="Edieresis" unicode="&#xcb;" horiz-adv-x="470" d="M129 316 C129 322 133 326 139 326 L387 326 C398 326 407 335 407 346 L407 369 C407 380 398 389 387 389 L139 389 C133 389 129 393 129 399 L129 626 C129 632 133 636 139 636 L398 636 C409 636 418 645 418 656 L418 680 C418 691 409 700 398 700 L85 700 C74 700 65 691 65 680 L65 20 C65 9 74 0 85 0 L400 0 C411 0 420 9 420 20 L420 44 C420 55 411 64 400 64 L139 64 C133 64 129 68 129 74 L129 316 Z M203 831 C203 839 196 847 187 847 L135 847 C126 847 119 839 119 831 L119 778 C119 769 126 762 135 762 L187 762 C196 762 203 769 203 778 L203 831 Z M374 831 C374 839 367 847 358 847 L306 847 C297 847 290 839 290 831 L290 778 C290 769 297 762 306 762 L358 762 C367 762 374 769 374 778 L374 831 Z " />
<glyph glyph-name="Igrave" unicode="&#xcc;" horiz-adv-x="194" d="M129 680 C129 691 120 700 109 700 L85 700 C74 700 65 691 65 680 L65 20 C65 9 74 0 85 0 L109 0 C120 0 129 9 129 20 L129 680 Z M-6 895 C-19 895 -23 880 -17 874 L91 762 C97 756 103 750 121 750 L140 750 C153 750 159 763 154 770 L78 879 C73 886 67 895 52 895 L-6 895 Z " />
<glyph glyph-name="Iacute" unicode="&#xcd;" horiz-adv-x="194" d="M129 680 C129 691 120 700 109 700 L85 700 C74 700 65 691 65 680 L65 20 C65 9 74 0 85 0 L109 0 C120 0 129 9 129 20 L129 680 Z M171 895 C156 895 150 886 145 879 L69 770 C64 763 70 750 83 750 L102 750 C120 750 126 756 132 762 L240 874 C246 880 242 895 229 895 L171 895 Z " />
<glyph glyph-name="Icircumflex" unicode="&#xce;" horiz-adv-x="194" d="M129 680 C129 691 120 700 109 700 L85 700 C74 700 65 691 65 680 L65 20 C65 9 74 0 85 0 L109 0 C120 0 129 9 129 20 L129 680 Z M89 832 C94 837 98 837 103 832 L170 767 C176 761 186 751 201 751 L244 751 C257 751 261 766 255 772 L137 884 C131 890 125 896 108 896 L86 896 C68 896 62 890 56 884 L-62 772 C-68 766 -64 751 -51 751 L-8 751 C7 751 17 761 23 767 L89 832 Z " />
<glyph glyph-name="Idieresis" unicode="&#xcf;" horiz-adv-x="194" d="M129 680 C129 691 120 700 109 700 L85 700 C74 700 65 691 65 680 L65 20 C65 9 74 0 85 0 L109 0 C120 0 129 9 129 20 L129 680 Z M56 831 C56 839 49 847 40 847 L-12 847 C-21 847 -28 839 -28 831 L-28 778 C-28 769 -21 762 -12 762 L40 762 C49 762 56 769 56 778 L56 831 Z M227 831 C227 839 220 847 211 847 L159 847 C150 847 143 839 143 831 L143 778 C143 769 150 762 159 762 L211 762 C220 762 227 769 227 778 L227 831 Z " />
<glyph glyph-name="Eth" unicode="&#xd0;" horiz-adv-x="538" d="M129 316 C129 322 133 326 139 326 L239 326 C250 326 259 335 259 346 L259 369 C259 380 250 389 239 389 L139 389 C133 389 129 393 129 399 L129 626 C129 632 133 636 139 636 L265 636 C360 636 410 573 421 500 C433 418 433 282 421 200 C413 142 373 64 265 64 L139 64 C133 64 129 68 129 74 L129 316 Z M85 700 C74 700 65 691 65 680 L65 399 C65 393 61 389 55 389 L23 389 C12 389 3 380 3 369 L3 346 C3 335 12 326 23 326 L55 326 C61 326 65 322 65 316 L65 20 C65 9 74 0 85 0 L265 0 C385 0 471 71 488 200 C499 281 499 420 488 500 C473 609 397 700 265 700 L85 700 Z " />
<glyph glyph-name="Ntilde" unicode="&#xd1;" horiz-adv-x="530" d="M445 0 C456 0 465 9 465 20 L465 680 C465 691 456 700 445 700 L425 700 C414 700 405 691 405 680 L405 116 C405 111 399 110 397 114 L158 683 C152 697 148 700 137 700 L85 700 C74 700 65 691 65 680 L65 20 C65 9 74 0 85 0 L105 0 C116 0 125 9 125 20 L125 589 C125 594 131 595 133 591 L372 17 C378 3 382 0 393 0 L445 0 Z M345 832 C277 832 269 857 205 857 C165 857 134 832 134 806 L134 782 C134 763 151 759 159 768 C170 781 183 789 205 789 C273 789 281 764 345 764 C385 764 416 789 416 815 L416 839 C416 858 399 863 391 853 C383 843 370 832 345 832 L345 832 Z " />
<glyph glyph-name="Ograve" unicode="&#xd2;" horiz-adv-x="556" d="M277 56 C169 56 129 142 121 200 C109 282 109 418 121 500 C132 573 182 644 277 644 C372 644 422 573 433 500 C445 418 445 282 433 200 C425 142 385 56 277 56 L277 56 Z M277 708 C145 708 69 609 54 500 C43 420 43 281 54 200 C71 71 157 -8 277 -8 C397 -8 483 71 500 200 C511 281 511 420 500 500 C485 609 409 708 277 708 L277 708 Z M144 895 C131 895 127 880 133 874 L241 762 C247 756 253 750 271 750 L290 750 C303 750 309 763 304 770 L228 879 C223 886 217 895 202 895 L144 895 Z " />
<glyph glyph-name="Oacute" unicode="&#xd3;" horiz-adv-x="556" d="M277 56 C169 56 129 142 121 200 C109 282 109 418 121 500 C132 573 182 644 277 644 C372 644 422 573 433 500 C445 418 445 282 433 200 C425 142 385 56 277 56 L277 56 Z M277 708 C145 708 69 609 54 500 C43 420 43 281 54 200 C71 71 157 -8 277 -8 C397 -8 483 71 500 200 C511 281 511 420 500 500 C485 609 409 708 277 708 L277 708 Z M331 895 C316 895 310 886 305 879 L229 770 C224 763 230 750 243 750 L262 750 C280 750 286 756 292 762 L400 874 C406 880 402 895 389 895 L331 895 Z " />
<glyph glyph-name="Ocircumflex" unicode="&#xd4;" horiz-adv-x="556" d="M277 56 C169 56 129 142 121 200 C109 282 109 418 121 500 C132 573 182 644 277 644 C372 644 422 573 433 500 C445 418 445 282 433 200 C425 142 385 56 277 56 L277 56 Z M277 708 C145 708 69 609 54 500 C43 420 43 281 54 200 C71 71 157 -8 277 -8 C397 -8 483 71 500 200 C511 281 511 420 500 500 C485 609 409 708 277 708 L277 708 Z M272 832 C277 837 281 837 286 832 L353 767 C359 761 369 751 384 751 L427 751 C440 751 444 766 438 772 L320 884 C314 890 308 896 291 896 L269 896 C251 896 245 890 239 884 L121 772 C115 766 119 751 132 751 L175 751 C190 751 200 761 206 767 L272 832 Z " />
<glyph glyph-name="Otilde" unicode="&#xd5;" horiz-adv-x="556" d="M277 56 C169 56 129 142 121 200 C109 282 109 418 121 500 C132 573 182 644 277 644 C372 644 422 573 433 500 C445 418 445 282 433 200 C425 142 385 56 277 56 L277 56 Z M277 708 C145 708 69 609 54 500 C43 420 43 281 54 200 C71 71 157 -8 277 -8 C397 -8 483 71 500 200 C511 281 511 420 500 500 C485 609 409 708 277 708 L277 708 Z M350 832 C282 832 274 857 210 857 C170 857 139 832 139 806 L139 782 C139 763 156 759 164 768 C175 781 188 789 210 789 C278 789 286 764 350 764 C390 764 421 789 421 815 L421 839 C421 858 404 863 396 853 C388 843 375 832 350 832 L350 832 Z " />
<glyph glyph-name="Odieresis" unicode="&#xd6;" horiz-adv-x="556" d="M277 56 C169 56 129 142 121 200 C109 282 109 418 121 500 C132 573 182 644 277 644 C372 644 422 573 433 500 C445 418 445 282 433 200 C425 142 385 56 277 56 L277 56 Z M277 708 C145 708 69 609 54 500 C43 420 43 281 54 200 C71 71 157 -8 277 -8 C397 -8 483 71 500 200 C511 281 511 420 500 500 C485 609 409 708 277 708 L277 708 Z M230 831 C230 839 223 847 214 847 L162 847 C153 847 146 839 146 831 L146 778 C146 769 153 762 162 762 L214 762 C223 762 230 769 230 778 L230 831 Z M401 831 C401 839 394 847 385 847 L333 847 C324 847 317 839 317 831 L317 778 C317 769 324 762 333 762 L385 762 C394 762 401 769 401 778 L401 831 Z " />
<glyph glyph-name="multiply" unicode="&#xd7;" horiz-adv-x="458" d="M71 77 C78 70 91 70 99 77 L221 200 C225 204 231 204 235 200 L359 77 C366 69 379 69 387 77 L402 92 C410 100 410 113 402 120 L279 244 C275 248 275 254 279 258 L402 380 C409 388 409 401 402 408 L387 423 C379 431 366 431 359 423 L236 301 C232 297 226 297 222 301 L99 423 C92 431 79 431 71 423 L56 408 C48 400 48 387 56 380 L178 257 C182 253 182 247 178 243 L56 120 C49 112 48 100 56 92 L71 77 Z " />
<glyph glyph-name="Oslash" unicode="&#xd8;" horiz-adv-x="524" d="M124 29 C127 35 130 33 131 32 C166 6 211 -8 262 -8 C382 -8 468 71 485 200 C496 281 496 420 485 500 C479 539 465 577 444 610 C443 612 440 614 444 621 L475 678 C481 690 474 700 461 700 L431 700 C422 700 417 695 412 685 L403 668 C399 661 395 665 393 666 C358 692 315 708 262 708 C130 708 54 609 39 500 C28 420 28 281 39 200 C45 156 58 118 79 87 C80 85 83 82 80 76 L52 24 C45 10 53 0 66 0 L95 0 C104 0 110 5 116 15 L124 29 Z M262 644 C304 644 336 630 361 608 C363 606 367 602 364 597 L125 158 C121 151 117 155 116 158 C111 172 108 187 106 200 C94 282 94 418 106 500 C117 573 167 644 262 644 L262 644 Z M262 56 C219 56 187 69 163 89 C161 90 158 93 161 98 L400 540 C404 547 406 543 407 541 C412 527 415 520 418 500 C430 418 430 282 418 200 C410 142 370 56 262 56 L262 56 Z " />
<glyph glyph-name="Ugrave" unicode="&#xd9;" horiz-adv-x="538" d="M484 680 C484 691 475 700 464 700 L440 700 C429 700 420 691 420 680 L420 207 C420 127 354 56 269 56 C184 56 118 127 118 207 L118 680 C118 691 109 700 98 700 L74 700 C63 700 54 691 54 680 L54 207 C54 88 150 -8 269 -8 C388 -8 484 88 484 207 L484 680 Z M144 895 C131 895 127 880 133 874 L241 762 C247 756 253 750 271 750 L290 750 C303 750 309 763 304 770 L228 879 C223 886 217 895 202 895 L144 895 Z " />
<glyph glyph-name="Uacute" unicode="&#xda;" horiz-adv-x="538" d="M484 680 C484 691 475 700 464 700 L440 700 C429 700 420 691 420 680 L420 207 C420 127 354 56 269 56 C184 56 118 127 118 207 L118 680 C118 691 109 700 98 700 L74 700 C63 700 54 691 54 680 L54 207 C54 88 150 -8 269 -8 C388 -8 484 88 484 207 L484 680 Z M331 895 C316 895 310 886 305 879 L229 770 C224 763 230 750 243 750 L262 750 C280 750 286 756 292 762 L400 874 C406 880 402 895 389 895 L331 895 Z " />
<glyph glyph-name="Ucircumflex" unicode="&#xdb;" horiz-adv-x="538" d="M484 680 C484 691 475 700 464 700 L440 700 C429 700 420 691 420 680 L420 207 C420 127 354 56 269 56 C184 56 118 127 118 207 L118 680 C118 691 109 700 98 700 L74 700 C63 700 54 691 54 680 L54 207 C54 88 150 -8 269 -8 C388 -8 484 88 484 207 L484 680 Z M262 832 C267 837 271 837 276 832 L343 767 C349 761 359 751 374 751 L417 751 C430 751 434 766 428 772 L310 884 C304 890 298 896 281 896 L259 896 C241 896 235 890 229 884 L111 772 C105 766 109 751 122 751 L165 751 C180 751 190 761 196 767 L262 832 Z " />
<glyph glyph-name="Udieresis" unicode="&#xdc;" horiz-adv-x="538" d="M484 680 C484 691 475 700 464 700 L440 700 C429 700 420 691 420 680 L420 207 C420 127 354 56 269 56 C184 56 118 127 118 207 L118 680 C118 691 109 700 98 700 L74 700 C63 700 54 691 54 680 L54 207 C54 88 150 -8 269 -8 C388 -8 484 88 484 207 L484 680 Z M227 831 C227 839 220 847 211 847 L159 847 C150 847 143 839 143 831 L143 778 C143 769 150 762 159 762 L211 762 C220 762 227 769 227 778 L227 831 Z M398 831 C398 839 391 847 382 847 L330 847 C321 847 314 839 314 831 L314 778 C314 769 321 762 330 762 L382 762 C391 762 398 769 398 778 L398 831 Z " />
<glyph glyph-name="Yacute" unicode="&#xdd;" horiz-adv-x="442" d="M79 685 C75 696 69 700 60 700 L28 700 C15 700 6 687 12 672 L189 240 L189 20 C189 9 198 0 209 0 L235 0 C246 0 255 9 255 20 L255 241 L430 672 C436 687 427 700 414 700 L382 700 C373 700 367 696 363 685 L226 328 C224 323 220 323 218 328 L79 685 Z M281 895 C266 895 260 886 255 879 L179 770 C174 763 180 750 193 750 L212 750 C230 750 236 756 242 762 L350 874 C356 880 352 895 339 895 L281 895 Z " />
<glyph glyph-name="Thorn" unicode="&#xde;" horiz-adv-x="510" d="M465 380 C465 496 371 590 255 590 L139 590 C133 590 129 594 129 600 L129 680 C129 691 120 700 109 700 L85 700 C74 700 65 691 65 680 L65 20 C65 9 74 0 85 0 L109 0 C120 0 129 9 129 20 L129 110 C129 116 133 120 139 120 L255 120 C371 120 465 214 465 330 L465 380 Z M401 330 C401 250 335 184 255 184 L139 184 C133 184 129 188 129 194 L129 516 C129 522 133 526 139 526 L255 526 C335 526 401 460 401 380 L401 330 Z " />
<glyph glyph-name="germandbls" unicode="&#xdf;" horiz-adv-x="499" d="M249 0 C365 0 449 83 449 198 C449 270 419 318 375 356 C366 364 369 373 376 380 C411 415 434 462 434 517 C434 624 358 710 249 710 C139 710 65 630 65 517 L65 20 C65 9 74 0 85 0 L106 0 C117 0 126 9 126 20 L126 517 C126 590 174 651 249 651 C323 651 375 600 375 517 C375 446 320 396 251 396 L244 396 C233 396 224 387 224 376 L224 356 C224 345 233 336 244 336 L251 336 C339 336 390 270 390 198 C390 122 327 59 249 59 L229 59 C218 59 209 50 209 39 L209 20 C209 9 218 0 229 0 L249 0 Z " />
<glyph glyph-name="agrave" unicode="&#xe0;" horiz-adv-x="487" d="M354 241 C360 241 364 237 364 231 L364 171 C364 90 312 46 220 46 C157 46 102 80 102 151 C102 210 152 241 208 241 L354 241 Z M240 455 C310 455 361 410 361 345 L361 306 C361 300 357 296 351 296 L208 296 C103 296 43 233 43 150 C43 65 102 -10 225 -10 C299 -10 339 28 357 28 C370 28 372 15 377 7 C380 2 385 0 391 0 L400 0 C411 0 420 9 420 20 L420 344 C420 458 338 510 240 510 C155 510 66 463 66 370 C66 358 71 350 86 350 L100 350 C109 350 123 350 123 367 C123 420 180 455 240 455 L240 455 Z M111 730 C98 730 94 715 100 709 L208 597 C214 591 220 585 238 585 L257 585 C270 585 276 598 271 605 L195 714 C190 721 184 730 169 730 L111 730 Z " />
<glyph glyph-name="aacute" unicode="&#xe1;" horiz-adv-x="487" d="M354 241 C360 241 364 237 364 231 L364 171 C364 90 312 46 220 46 C157 46 102 80 102 151 C102 210 152 241 208 241 L354 241 Z M240 455 C310 455 361 410 361 345 L361 306 C361 300 357 296 351 296 L208 296 C103 296 43 233 43 150 C43 65 102 -10 225 -10 C299 -10 339 28 357 28 C370 28 372 15 377 7 C380 2 385 0 391 0 L400 0 C411 0 420 9 420 20 L420 344 C420 458 338 510 240 510 C155 510 66 463 66 370 C66 358 71 350 86 350 L100 350 C109 350 123 350 123 367 C123 420 180 455 240 455 L240 455 Z M301 730 C286 730 280 721 275 714 L199 605 C194 598 200 585 213 585 L232 585 C250 585 256 591 262 597 L370 709 C376 715 372 730 359 730 L301 730 Z " />
<glyph glyph-name="acircumflex" unicode="&#xe2;" horiz-adv-x="487" d="M354 241 C360 241 364 237 364 231 L364 171 C364 90 312 46 220 46 C157 46 102 80 102 151 C102 210 152 241 208 241 L354 241 Z M240 455 C310 455 361 410 361 345 L361 306 C361 300 357 296 351 296 L208 296 C103 296 43 233 43 150 C43 65 102 -10 225 -10 C299 -10 339 28 357 28 C370 28 372 15 377 7 C380 2 385 0 391 0 L400 0 C411 0 420 9 420 20 L420 344 C420 458 338 510 240 510 C155 510 66 463 66 370 C66 358 71 350 86 350 L100 350 C109 350 123 350 123 367 C123 420 180 455 240 455 L240 455 Z M236 666 C241 671 245 671 250 666 L317 601 C323 595 333 585 348 585 L391 585 C404 585 408 600 402 606 L284 718 C278 724 272 730 255 730 L233 730 C215 730 209 724 203 718 L85 606 C79 600 83 585 96 585 L139 585 C154 585 164 595 170 601 L236 666 Z " />
<glyph glyph-name="atilde" unicode="&#xe3;" horiz-adv-x="487" d="M354 241 C360 241 364 237 364 231 L364 171 C364 90 312 46 220 46 C157 46 102 80 102 151 C102 210 152 241 208 241 L354 241 Z M240 455 C310 455 361 410 361 345 L361 306 C361 300 357 296 351 296 L208 296 C103 296 43 233 43 150 C43 65 102 -10 225 -10 C299 -10 339 28 357 28 C370 28 372 15 377 7 C380 2 385 0 391 0 L400 0 C411 0 420 9 420 20 L420 344 C420 458 338 510 240 510 C155 510 66 463 66 370 C66 358 71 350 86 350 L100 350 C109 350 123 350 123 367 C123 420 180 455 240 455 L240 455 Z M314 676 C246 676 238 701 174 701 C134 701 103 676 103 650 L103 626 C103 607 120 603 128 612 C139 625 152 633 174 633 C242 633 250 608 314 608 C354 608 385 633 385 659 L385 683 C385 702 368 707 360 697 C352 687 339 676 314 676 L314 676 Z " />
<glyph glyph-name="adieresis" unicode="&#xe4;" horiz-adv-x="487" d="M354 241 C360 241 364 237 364 231 L364 171 C364 90 312 46 220 46 C157 46 102 80 102 151 C102 210 152 241 208 241 L354 241 Z M240 455 C310 455 361 410 361 345 L361 306 C361 300 357 296 351 296 L208 296 C103 296 43 233 43 150 C43 65 102 -10 225 -10 C299 -10 339 28 357 28 C370 28 372 15 377 7 C380 2 385 0 391 0 L400 0 C411 0 420 9 420 20 L420 344 C420 458 338 510 240 510 C155 510 66 463 66 370 C66 358 71 350 86 350 L100 350 C109 350 123 350 123 367 C123 420 180 455 240 455 L240 455 Z M192 691 C192 699 185 707 176 707 L124 707 C115 707 108 699 108 691 L108 638 C108 629 115 622 124 622 L176 622 C185 622 192 629 192 638 L192 691 Z M363 691 C363 699 356 707 347 707 L295 707 C286 707 279 699 279 691 L279 638 C279 629 286 622 295 622 L347 622 C356 622 363 629 363 638 L363 691 Z " />
<glyph glyph-name="aring" unicode="&#xe5;" horiz-adv-x="487" d="M354 241 C360 241 364 237 364 231 L364 171 C364 90 312 46 220 46 C157 46 102 80 102 151 C102 210 152 241 208 241 L354 241 Z M240 455 C310 455 361 410 361 345 L361 306 C361 300 357 296 351 296 L208 296 C103 296 43 233 43 150 C43 65 102 -10 225 -10 C299 -10 339 28 357 28 C370 28 372 15 377 7 C380 2 385 0 391 0 L400 0 C411 0 420 9 420 20 L420 344 C420 458 338 510 240 510 C155 510 66 463 66 370 C66 358 71 350 86 350 L100 350 C109 350 123 350 123 367 C123 420 180 455 240 455 L240 455 Z M134 670 C134 609 183 560 244 560 C305 560 354 609 354 670 C354 731 305 780 244 780 C183 780 134 731 134 670 L134 670 Z M188 670 C188 702 213 725 244 725 C276 725 299 702 299 670 C299 639 276 614 244 614 C213 614 188 639 188 670 L188 670 Z " />
<glyph glyph-name="ae" unicode="&#xe6;" horiz-adv-x="813" d="M364 220 L364 171 C364 90 312 46 220 46 C157 46 102 70 102 141 C102 200 152 230 208 230 L354 230 C360 230 364 226 364 220 L364 220 Z M414 442 C406 433 391 433 384 442 C347 487 294 510 240 510 C155 510 66 463 66 370 C66 358 71 350 86 350 L100 350 C109 350 123 350 123 367 C123 420 180 455 240 455 C310 455 361 410 361 345 L361 296 C361 290 357 286 351 286 L208 286 C103 286 43 223 43 140 C43 55 102 -10 225 -10 C272 -10 334 5 380 51 C392 63 408 62 419 51 C456 14 507 -10 570 -10 C674 -10 752 53 764 140 C766 154 757 160 747 160 L727 160 C718 160 708 156 704 143 C689 96 647 49 570 49 C467 49 423 124 423 220 C423 226 427 230 433 230 L750 230 C761 230 770 239 770 250 L770 310 C770 420 682 510 570 510 C503 510 450 483 414 442 L414 442 Z M571 451 C653 451 715 398 715 296 C715 290 711 286 705 286 L435 286 C429 286 425 290 425 296 C425 398 482 451 571 451 L571 451 Z " />
<glyph glyph-name="ccedilla" unicode="&#xe7;" horiz-adv-x="478" d="M375 163 C375 111 335 49 247 49 C147 49 111 127 106 180 C102 221 102 279 106 320 C111 373 147 451 247 451 C329 451 376 396 376 336 C376 325 386 320 395 320 L418 320 C429 320 435 329 435 340 C435 430 359 510 247 510 C127 510 53 425 45 320 C42 280 42 220 45 180 C53 75 127 -10 247 -10 C359 -10 435 70 435 160 C435 171 426 180 415 180 L394 180 C385 180 375 176 375 163 L375 163 Z M245 -45 C236 -45 229 -50 226 -61 L188 -182 C185 -191 191 -200 204 -200 L241 -200 C250 -200 257 -195 260 -184 L288 -63 C290 -54 285 -45 272 -45 L245 -45 Z " />
<glyph glyph-name="egrave" unicode="&#xe8;" horiz-adv-x="492" d="M251 451 C333 451 395 394 395 292 C395 286 391 282 385 282 L115 282 C109 282 105 286 105 292 C105 394 162 451 251 451 L251 451 Z M430 226 C441 226 450 235 450 246 L450 310 C450 420 362 510 250 510 C130 510 53 425 45 320 C42 280 42 220 45 180 C53 75 130 -10 250 -10 C354 -10 432 53 444 140 C446 154 437 160 427 160 L407 160 C398 160 388 156 384 143 C369 96 327 49 250 49 C147 49 103 120 103 216 C103 222 107 226 113 226 L430 226 Z M116 730 C103 730 99 715 105 709 L213 597 C219 591 225 585 243 585 L262 585 C275 585 281 598 276 605 L200 714 C195 721 189 730 174 730 L116 730 Z " />
<glyph glyph-name="eacute" unicode="&#xe9;" horiz-adv-x="492" d="M251 451 C333 451 395 394 395 292 C395 286 391 282 385 282 L115 282 C109 282 105 286 105 292 C105 394 162 451 251 451 L251 451 Z M430 226 C441 226 450 235 450 246 L450 310 C450 420 362 510 250 510 C130 510 53 425 45 320 C42 280 42 220 45 180 C53 75 130 -10 250 -10 C354 -10 432 53 444 140 C446 154 437 160 427 160 L407 160 C398 160 388 156 384 143 C369 96 327 49 250 49 C147 49 103 120 103 216 C103 222 107 226 113 226 L430 226 Z M306 730 C291 730 285 721 280 714 L204 605 C199 598 205 585 218 585 L237 585 C255 585 261 591 267 597 L375 709 C381 715 377 730 364 730 L306 730 Z " />
<glyph glyph-name="ecircumflex" unicode="&#xea;" horiz-adv-x="492" d="M251 451 C333 451 395 394 395 292 C395 286 391 282 385 282 L115 282 C109 282 105 286 105 292 C105 394 162 451 251 451 L251 451 Z M430 226 C441 226 450 235 450 246 L450 310 C450 420 362 510 250 510 C130 510 53 425 45 320 C42 280 42 220 45 180 C53 75 130 -10 250 -10 C354 -10 432 53 444 140 C446 154 437 160 427 160 L407 160 C398 160 388 156 384 143 C369 96 327 49 250 49 C147 49 103 120 103 216 C103 222 107 226 113 226 L430 226 Z M241 666 C246 671 250 671 255 666 L322 601 C328 595 338 585 353 585 L396 585 C409 585 413 600 407 606 L289 718 C283 724 277 730 260 730 L238 730 C220 730 214 724 208 718 L90 606 C84 600 88 585 101 585 L144 585 C159 585 169 595 175 601 L241 666 Z " />
<glyph glyph-name="edieresis" unicode="&#xeb;" horiz-adv-x="492" d="M251 451 C333 451 395 394 395 292 C395 286 391 282 385 282 L115 282 C109 282 105 286 105 292 C105 394 162 451 251 451 L251 451 Z M430 226 C441 226 450 235 450 246 L450 310 C450 420 362 510 250 510 C130 510 53 425 45 320 C42 280 42 220 45 180 C53 75 130 -10 250 -10 C354 -10 432 53 444 140 C446 154 437 160 427 160 L407 160 C398 160 388 156 384 143 C369 96 327 49 250 49 C147 49 103 120 103 216 C103 222 107 226 113 226 L430 226 Z M197 691 C197 699 190 707 181 707 L129 707 C120 707 113 699 113 691 L113 638 C113 629 120 622 129 622 L181 622 C190 622 197 629 197 638 L197 691 Z M368 691 C368 699 361 707 352 707 L300 707 C291 707 284 699 284 691 L284 638 C284 629 291 622 300 622 L352 622 C361 622 368 629 368 638 L368 691 Z " />
<glyph glyph-name="igrave" unicode="&#xec;" horiz-adv-x="214" d="M-7 730 C-20 730 -24 715 -18 709 L90 597 C96 591 102 585 120 585 L139 585 C152 585 158 598 153 605 L77 714 C72 721 66 730 51 730 L-7 730 Z M141 480 C141 491 132 500 121 500 L93 500 C82 500 73 491 73 480 L73 20 C73 9 82 0 93 0 L121 0 C132 0 141 9 141 20 L141 480 Z " />
<glyph glyph-name="iacute" unicode="&#xed;" horiz-adv-x="214" d="M163 730 C148 730 142 721 137 714 L61 605 C56 598 62 585 75 585 L94 585 C112 585 118 591 124 597 L232 709 C238 715 234 730 221 730 L163 730 Z M141 480 C141 491 132 500 121 500 L93 500 C82 500 73 491 73 480 L73 20 C73 9 82 0 93 0 L121 0 C132 0 141 9 141 20 L141 480 Z " />
<glyph glyph-name="icircumflex" unicode="&#xee;" horiz-adv-x="214" d="M141 480 C141 491 132 500 121 500 L93 500 C82 500 73 491 73 480 L73 20 C73 9 82 0 93 0 L121 0 C132 0 141 9 141 20 L141 480 Z M100 666 C105 671 109 671 114 666 L181 601 C187 595 197 585 212 585 L255 585 C268 585 272 600 266 606 L148 718 C142 724 136 730 119 730 L97 730 C79 730 73 724 67 718 L-51 606 C-57 600 -53 585 -40 585 L3 585 C18 585 28 595 34 601 L100 666 Z " />
<glyph glyph-name="idieresis" unicode="&#xef;" horiz-adv-x="214" d="M64 691 C64 699 57 707 48 707 L-4 707 C-13 707 -20 699 -20 691 L-20 638 C-20 629 -13 622 -4 622 L48 622 C57 622 64 629 64 638 L64 691 Z M235 691 C235 699 228 707 219 707 L167 707 C158 707 151 699 151 691 L151 638 C151 629 158 622 167 622 L219 622 C228 622 235 629 235 638 L235 691 Z M141 480 C141 491 132 500 121 500 L93 500 C82 500 73 491 73 480 L73 20 C73 9 82 0 93 0 L121 0 C132 0 141 9 141 20 L141 480 Z " />
<glyph glyph-name="eth" unicode="&#xf0;" horiz-adv-x="493" d="M243 49 C142 49 104 127 100 180 C97 221 97 229 100 270 C104 323 142 401 243 401 C342 401 382 323 386 270 C389 229 389 221 386 180 C382 127 342 49 243 49 L243 49 Z M202 641 C226 641 247 637 265 630 C273 627 279 618 270 613 L221 585 C206 576 206 568 206 557 L206 546 C206 531 223 526 234 532 L320 582 C322 584 327 584 330 578 C356 535 375 479 377 415 C377 409 371 405 366 411 C350 428 312 460 243 460 C123 460 46 375 38 270 C35 230 35 220 38 180 C46 75 123 -10 243 -10 C363 -10 432 75 443 180 C452 264 449 340 440 420 C431 496 408 564 372 613 C370 616 372 620 376 623 L418 650 C428 656 431 661 431 674 L431 691 C431 704 416 711 406 705 L333 660 C329 657 326 659 324 660 C290 684 249 700 202 700 L166 700 C155 700 146 691 146 680 L146 661 C146 650 155 641 166 641 L202 641 Z " />
<glyph glyph-name="ntilde" unicode="&#xf1;" horiz-adv-x="482" d="M432 336 C432 450 358 510 253 510 C179 510 163 477 134 477 C122 477 116 486 110 493 C106 497 102 500 96 500 L80 500 C69 500 60 491 60 480 L60 20 C60 9 69 0 80 0 L99 0 C110 0 119 9 119 20 L119 341 C119 403 174 451 246 451 C318 451 373 420 373 336 L373 20 C373 9 382 0 393 0 L412 0 C423 0 432 9 432 20 L432 336 Z M324 676 C256 676 248 701 184 701 C144 701 113 676 113 650 L113 626 C113 607 130 603 138 612 C149 625 162 633 184 633 C252 633 260 608 324 608 C364 608 395 633 395 659 L395 683 C395 702 378 707 370 697 C362 687 349 676 324 676 L324 676 Z " />
<glyph glyph-name="ograve" unicode="&#xf2;" horiz-adv-x="500" d="M106 320 C111 373 147 451 247 451 C347 451 383 373 388 320 C392 279 392 221 388 180 C383 127 347 49 247 49 C147 49 111 127 106 180 C102 221 102 279 106 320 L106 320 Z M45 180 C53 75 127 -10 247 -10 C367 -10 441 75 449 180 C452 220 452 280 449 320 C441 425 367 510 247 510 C127 510 53 425 45 320 C42 280 42 220 45 180 L45 180 Z M117 730 C104 730 100 715 106 709 L214 597 C220 591 226 585 244 585 L263 585 C276 585 282 598 277 605 L201 714 C196 721 190 730 175 730 L117 730 Z " />
<glyph glyph-name="oacute" unicode="&#xf3;" horiz-adv-x="500" d="M106 320 C111 373 147 451 247 451 C347 451 383 373 388 320 C392 279 392 221 388 180 C383 127 347 49 247 49 C147 49 111 127 106 180 C102 221 102 279 106 320 L106 320 Z M45 180 C53 75 127 -10 247 -10 C367 -10 441 75 449 180 C452 220 452 280 449 320 C441 425 367 510 247 510 C127 510 53 425 45 320 C42 280 42 220 45 180 L45 180 Z M307 730 C292 730 286 721 281 714 L205 605 C200 598 206 585 219 585 L238 585 C256 585 262 591 268 597 L376 709 C382 715 378 730 365 730 L307 730 Z " />
<glyph glyph-name="ocircumflex" unicode="&#xf4;" horiz-adv-x="500" d="M106 320 C111 373 147 451 247 451 C347 451 383 373 388 320 C392 279 392 221 388 180 C383 127 347 49 247 49 C147 49 111 127 106 180 C102 221 102 279 106 320 L106 320 Z M45 180 C53 75 127 -10 247 -10 C367 -10 441 75 449 180 C452 220 452 280 449 320 C441 425 367 510 247 510 C127 510 53 425 45 320 C42 280 42 220 45 180 L45 180 Z M242 666 C247 671 251 671 256 666 L323 601 C329 595 339 585 354 585 L397 585 C410 585 414 600 408 606 L290 718 C284 724 278 730 261 730 L239 730 C221 730 215 724 209 718 L91 606 C85 600 89 585 102 585 L145 585 C160 585 170 595 176 601 L242 666 Z " />
<glyph glyph-name="otilde" unicode="&#xf5;" horiz-adv-x="500" d="M106 320 C111 373 147 451 247 451 C347 451 383 373 388 320 C392 279 392 221 388 180 C383 127 347 49 247 49 C147 49 111 127 106 180 C102 221 102 279 106 320 L106 320 Z M45 180 C53 75 127 -10 247 -10 C367 -10 441 75 449 180 C452 220 452 280 449 320 C441 425 367 510 247 510 C127 510 53 425 45 320 C42 280 42 220 45 180 L45 180 Z M320 676 C252 676 244 701 180 701 C140 701 109 676 109 650 L109 626 C109 607 126 603 134 612 C145 625 158 633 180 633 C248 633 256 608 320 608 C360 608 391 633 391 659 L391 683 C391 702 374 707 366 697 C358 687 345 676 320 676 L320 676 Z " />
<glyph glyph-name="odieresis" unicode="&#xf6;" horiz-adv-x="500" d="M106 320 C111 373 147 451 247 451 C347 451 383 373 388 320 C392 279 392 221 388 180 C383 127 347 49 247 49 C147 49 111 127 106 180 C102 221 102 279 106 320 L106 320 Z M45 180 C53 75 127 -10 247 -10 C367 -10 441 75 449 180 C452 220 452 280 449 320 C441 425 367 510 247 510 C127 510 53 425 45 320 C42 280 42 220 45 180 L45 180 Z M198 691 C198 699 191 707 182 707 L130 707 C121 707 114 699 114 691 L114 638 C114 629 121 622 130 622 L182 622 C191 622 198 629 198 638 L198 691 Z M369 691 C369 699 362 707 353 707 L301 707 C292 707 285 699 285 691 L285 638 C285 629 292 622 301 622 L353 622 C362 622 369 629 369 638 L369 691 Z " />
<glyph glyph-name="divide" unicode="&#xf7;" horiz-adv-x="520" d="M70 286 C59 286 50 277 50 266 L50 236 C50 225 59 216 70 216 L450 216 C461 216 470 225 470 236 L470 266 C470 277 461 286 450 286 L70 286 Z M315 90 C315 101 306 110 295 110 L225 110 C214 110 205 101 205 90 L205 20 C205 9 214 0 225 0 L295 0 C306 0 315 9 315 20 L315 90 Z M315 470 C315 481 306 490 295 490 L225 490 C214 490 205 481 205 470 L205 400 C205 389 214 380 225 380 L295 380 C306 380 315 389 315 400 L315 470 Z " />
<glyph glyph-name="oslash" unicode="&#xf8;" horiz-adv-x="495" d="M110 32 C114 37 116 34 117 33 C150 6 194 -10 247 -10 C367 -10 441 75 449 180 C452 220 452 280 449 320 C446 355 436 388 419 416 C418 417 417 420 420 424 L460 475 C470 487 462 500 449 500 L423 500 C414 500 409 495 401 485 L385 465 C382 461 379 463 378 464 C344 493 301 510 247 510 C127 510 53 425 45 320 C42 280 42 220 45 180 C48 144 58 111 75 83 C76 81 79 79 74 73 L36 25 C26 12 32 0 45 0 L74 0 C83 0 89 5 97 15 L110 32 Z M247 451 C289 451 320 436 342 417 C343 416 345 414 342 410 L123 135 C119 130 117 135 116 137 C110 152 107 166 106 180 C102 221 102 279 106 320 C111 373 147 451 247 451 L247 451 Z M247 49 C207 49 177 61 155 79 C154 80 151 83 155 88 L371 363 C375 368 376 365 377 363 C383 348 386 334 388 320 C392 279 392 221 388 180 C383 127 347 49 247 49 L247 49 Z " />
<glyph glyph-name="ugrave" unicode="&#xf9;" horiz-adv-x="477" d="M55 164 C55 50 129 -10 234 -10 C308 -10 324 23 353 23 C365 23 371 14 377 7 C381 3 385 0 391 0 L407 0 C418 0 427 9 427 20 L427 480 C427 491 418 500 407 500 L388 500 C377 500 368 491 368 480 L368 159 C368 97 313 49 241 49 C169 49 114 80 114 164 L114 480 C114 491 105 500 94 500 L75 500 C64 500 55 491 55 480 L55 164 Z M125 730 C112 730 108 715 114 709 L222 597 C228 591 234 585 252 585 L271 585 C284 585 290 598 285 605 L209 714 C204 721 198 730 183 730 L125 730 Z " />
<glyph glyph-name="uacute" unicode="&#xfa;" horiz-adv-x="477" d="M55 164 C55 50 129 -10 234 -10 C308 -10 324 23 353 23 C365 23 371 14 377 7 C381 3 385 0 391 0 L407 0 C418 0 427 9 427 20 L427 480 C427 491 418 500 407 500 L388 500 C377 500 368 491 368 480 L368 159 C368 97 313 49 241 49 C169 49 114 80 114 164 L114 480 C114 491 105 500 94 500 L75 500 C64 500 55 491 55 480 L55 164 Z M315 730 C300 730 294 721 289 714 L213 605 C208 598 214 585 227 585 L246 585 C264 585 270 591 276 597 L384 709 C390 715 386 730 373 730 L315 730 Z " />
<glyph glyph-name="ucircumflex" unicode="&#xfb;" horiz-adv-x="477" d="M55 164 C55 50 129 -10 234 -10 C308 -10 324 23 353 23 C365 23 371 14 377 7 C381 3 385 0 391 0 L407 0 C418 0 427 9 427 20 L427 480 C427 491 418 500 407 500 L388 500 C377 500 368 491 368 480 L368 159 C368 97 313 49 241 49 C169 49 114 80 114 164 L114 480 C114 491 105 500 94 500 L75 500 C64 500 55 491 55 480 L55 164 Z M230 666 C235 671 239 671 244 666 L311 601 C317 595 327 585 342 585 L385 585 C398 585 402 600 396 606 L278 718 C272 724 266 730 249 730 L227 730 C209 730 203 724 197 718 L79 606 C73 600 77 585 90 585 L133 585 C148 585 158 595 164 601 L230 666 Z " />
<glyph glyph-name="udieresis" unicode="&#xfc;" horiz-adv-x="477" d="M55 164 C55 50 129 -10 234 -10 C308 -10 324 23 353 23 C365 23 371 14 377 7 C381 3 385 0 391 0 L407 0 C418 0 427 9 427 20 L427 480 C427 491 418 500 407 500 L388 500 C377 500 368 491 368 480 L368 159 C368 97 313 49 241 49 C169 49 114 80 114 164 L114 480 C114 491 105 500 94 500 L75 500 C64 500 55 491 55 480 L55 164 Z M196 691 C196 699 189 707 180 707 L128 707 C119 707 112 699 112 691 L112 638 C112 629 119 622 128 622 L180 622 C189 622 196 629 196 638 L196 691 Z M367 691 C367 699 360 707 351 707 L299 707 C290 707 283 699 283 691 L283 638 C283 629 290 622 299 622 L351 622 C360 622 367 629 367 638 L367 691 Z " />
<glyph glyph-name="yacute" unicode="&#xfd;" horiz-adv-x="462" d="M73 485 C69 496 63 500 54 500 L26 500 C10 500 3 487 7 477 L196 37 C198 32 197 29 195 24 L121 -177 C117 -187 124 -200 140 -200 L162 -200 C171 -200 177 -196 181 -185 L435 477 C439 487 432 500 416 500 L388 500 C379 500 373 496 369 485 L235 117 C233 112 229 112 227 117 L73 485 Z M288 730 C273 730 267 721 262 714 L186 605 C181 598 187 585 200 585 L219 585 C237 585 243 591 249 597 L357 709 C363 715 359 730 346 730 L288 730 Z " />
<glyph glyph-name="thorn" unicode="&#xfe;" horiz-adv-x="496" d="M124 687 C124 698 115 707 104 707 L85 707 C74 707 65 698 65 687 L65 -180 C65 -191 74 -200 85 -200 L104 -200 C115 -200 124 -191 124 -180 L124 -6 C124 3 132 15 146 15 C166 15 208 -10 254 -10 C359 -10 436 75 444 180 C447 220 447 280 444 320 C436 425 359 510 254 510 C208 510 166 485 146 485 C132 485 124 497 124 506 L124 687 Z M383 180 C377 127 346 49 249 49 C160 49 131 127 126 180 C122 221 122 279 126 320 C131 373 160 451 249 451 C347 451 377 373 383 320 C388 279 388 221 383 180 L383 180 Z " />
<glyph glyph-name="ydieresis" unicode="&#xff;" horiz-adv-x="462" d="M73 485 C69 496 63 500 54 500 L26 500 C10 500 3 487 7 477 L196 37 C198 32 197 29 195 24 L121 -177 C117 -187 124 -200 140 -200 L162 -200 C171 -200 177 -196 181 -185 L435 477 C439 487 432 500 416 500 L388 500 C379 500 373 496 369 485 L235 117 C233 112 229 112 227 117 L73 485 Z M187 691 C187 699 180 707 171 707 L119 707 C110 707 103 699 103 691 L103 638 C103 629 110 622 119 622 L171 622 C180 622 187 629 187 638 L187 691 Z M358 691 C358 699 351 707 342 707 L290 707 C281 707 274 699 274 691 L274 638 C274 629 281 622 290 622 L342 622 C351 622 358 629 358 638 L358 691 Z " />
<glyph glyph-name="Amacron" unicode="&#x100;" horiz-adv-x="478" d="M327 260 L151 260 C145 260 141 263 143 271 L234 611 C235 615 236 617 238 617 L240 617 C242 617 243 615 244 611 L335 271 C337 263 333 260 327 260 L327 260 Z M410 15 C412 6 420 0 429 0 L454 0 C470 0 476 11 474 20 L283 685 C281 694 273 700 264 700 L214 700 C205 700 197 694 195 685 L4 20 C2 11 8 0 24 0 L49 0 C58 0 66 6 68 15 L117 184 C120 193 127 198 136 198 L342 198 C351 198 358 193 361 184 L410 15 Z M123 825 C112 825 103 816 103 805 L103 785 C103 774 112 765 123 765 L365 765 C376 765 385 774 385 785 L385 805 C385 816 376 825 365 825 L123 825 Z " />
<glyph glyph-name="amacron" unicode="&#x101;" horiz-adv-x="487" d="M354 241 C360 241 364 237 364 231 L364 171 C364 90 312 46 220 46 C157 46 102 80 102 151 C102 210 152 241 208 241 L354 241 Z M240 455 C310 455 361 410 361 345 L361 306 C361 300 357 296 351 296 L208 296 C103 296 43 233 43 150 C43 65 102 -10 225 -10 C299 -10 339 28 357 28 C370 28 372 15 377 7 C380 2 385 0 391 0 L400 0 C411 0 420 9 420 20 L420 344 C420 458 338 510 240 510 C155 510 66 463 66 370 C66 358 71 350 86 350 L100 350 C109 350 123 350 123 367 C123 420 180 455 240 455 L240 455 Z M127 694 C116 694 107 685 107 674 L107 654 C107 643 116 634 127 634 L369 634 C380 634 389 643 389 654 L389 674 C389 685 380 694 369 694 L127 694 Z " />
<glyph glyph-name="Abreve" unicode="&#x102;" horiz-adv-x="478" d="M327 260 L151 260 C145 260 141 263 143 271 L234 611 C235 615 236 617 238 617 L240 617 C242 617 243 615 244 611 L335 271 C337 263 333 260 327 260 L327 260 Z M410 15 C412 6 420 0 429 0 L454 0 C470 0 476 11 474 20 L283 685 C281 694 273 700 264 700 L214 700 C205 700 197 694 195 685 L4 20 C2 11 8 0 24 0 L49 0 C58 0 66 6 68 15 L117 184 C120 193 127 198 136 198 L342 198 C351 198 358 193 361 184 L410 15 Z M324 878 C324 832 290 802 244 802 C198 802 163 832 163 878 C163 887 156 895 146 895 L123 895 C114 895 106 887 106 878 C106 807 163 750 244 750 C324 750 381 807 381 878 C381 887 373 895 364 895 L341 895 C331 895 324 887 324 878 L324 878 Z " />
<glyph glyph-name="abreve" unicode="&#x103;" horiz-adv-x="487" d="M354 241 C360 241 364 237 364 231 L364 171 C364 90 312 46 220 46 C157 46 102 80 102 151 C102 210 152 241 208 241 L354 241 Z M240 455 C310 455 361 410 361 345 L361 306 C361 300 357 296 351 296 L208 296 C103 296 43 233 43 150 C43 65 102 -10 225 -10 C299 -10 339 28 357 28 C370 28 372 15 377 7 C380 2 385 0 391 0 L400 0 C411 0 420 9 420 20 L420 344 C420 458 338 510 240 510 C155 510 66 463 66 370 C66 358 71 350 86 350 L100 350 C109 350 123 350 123 367 C123 420 180 455 240 455 L240 455 Z M324 713 C324 667 290 637 244 637 C198 637 163 667 163 713 C163 722 156 730 146 730 L123 730 C114 730 106 722 106 713 C106 642 163 585 244 585 C324 585 381 642 381 713 C381 722 373 730 364 730 L341 730 C331 730 324 722 324 713 L324 713 Z " />
<glyph glyph-name="Aogonek" unicode="&#x104;" horiz-adv-x="478" d="M117 184 C120 193 127 198 136 198 L342 198 C351 198 358 193 361 184 L399 52 C342 35 290 -8 290 -81 C290 -171 358 -210 454 -210 C465 -210 474 -201 474 -190 L474 -170 C474 -159 465 -150 454 -150 C391 -150 350 -129 350 -76 C350 -24 392 0 445 0 L454 0 C470 0 476 11 474 20 L283 685 C281 694 273 700 264 700 L214 700 C205 700 197 694 195 685 L4 20 C2 11 8 0 24 0 L49 0 C58 0 66 6 68 15 L117 184 Z M234 611 C235 615 236 617 238 617 L240 617 C242 617 243 615 244 611 L335 271 C337 263 333 260 327 260 L151 260 C145 260 141 263 143 271 L234 611 Z " />
<glyph glyph-name="aogonek" unicode="&#x105;" horiz-adv-x="487" d="M240 455 C310 455 361 410 361 345 L361 306 C361 300 357 296 351 296 L208 296 C103 296 43 233 43 150 C43 65 102 -10 225 -10 C238 -10 250 -9 261 -7 C243 -25 231 -49 231 -81 C231 -171 299 -210 395 -210 C406 -210 415 -201 415 -190 L415 -170 C415 -159 406 -150 395 -150 C332 -150 291 -129 291 -76 C291 -24 334 0 387 0 L400 0 C411 0 420 9 420 20 L420 344 C420 458 338 510 240 510 C155 510 66 463 66 370 C66 358 71 350 86 350 L100 350 C109 350 123 350 123 367 C123 420 180 455 240 455 L240 455 Z M354 241 C360 241 364 237 364 231 L364 171 C364 90 312 46 220 46 C157 46 102 80 102 151 C102 210 152 241 208 241 L354 241 Z " />
<glyph glyph-name="Cacute" unicode="&#x106;" horiz-adv-x="543" d="M500 204 C500 215 491 224 480 224 L453 224 C442 224 433 215 433 204 L433 200 C433 141 385 56 277 56 C169 56 129 142 121 200 C109 282 109 418 121 500 C132 573 182 644 277 644 C372 644 433 574 433 500 L433 496 C433 485 442 476 453 476 L480 476 C491 476 500 485 500 496 L500 500 C500 610 409 708 277 708 C145 708 69 609 54 500 C43 420 43 281 54 200 C71 71 157 -8 277 -8 C397 -8 500 70 500 200 L500 204 Z M351 895 C336 895 330 886 325 879 L249 770 C244 763 250 750 263 750 L282 750 C300 750 306 756 312 762 L420 874 C426 880 422 895 409 895 L351 895 Z " />
<glyph glyph-name="cacute" unicode="&#x107;" horiz-adv-x="478" d="M375 163 C375 111 335 49 247 49 C147 49 111 127 106 180 C102 221 102 279 106 320 C111 373 147 451 247 451 C329 451 376 396 376 336 C376 325 386 320 395 320 L418 320 C429 320 435 329 435 340 C435 430 359 510 247 510 C127 510 53 425 45 320 C42 280 42 220 45 180 C53 75 127 -10 247 -10 C359 -10 435 70 435 160 C435 171 426 180 415 180 L394 180 C385 180 375 176 375 163 L375 163 Z M296 730 C281 730 275 721 270 714 L194 605 C189 598 195 585 208 585 L227 585 C245 585 251 591 257 597 L365 709 C371 715 367 730 354 730 L296 730 Z " />
<glyph glyph-name="Ccircumflex" unicode="&#x108;" horiz-adv-x="543" d="M500 204 C500 215 491 224 480 224 L453 224 C442 224 433 215 433 204 L433 200 C433 141 385 56 277 56 C169 56 129 142 121 200 C109 282 109 418 121 500 C132 573 182 644 277 644 C372 644 433 574 433 500 L433 496 C433 485 442 476 453 476 L480 476 C491 476 500 485 500 496 L500 500 C500 610 409 708 277 708 C145 708 69 609 54 500 C43 420 43 281 54 200 C71 71 157 -8 277 -8 C397 -8 500 70 500 200 L500 204 Z M276 832 C281 837 285 837 290 832 L357 767 C363 761 373 751 388 751 L431 751 C444 751 448 766 442 772 L324 884 C318 890 312 896 295 896 L273 896 C255 896 249 890 243 884 L125 772 C119 766 123 751 136 751 L179 751 C194 751 204 761 210 767 L276 832 Z " />
<glyph glyph-name="ccircumflex" unicode="&#x109;" horiz-adv-x="478" d="M375 163 C375 111 335 49 247 49 C147 49 111 127 106 180 C102 221 102 279 106 320 C111 373 147 451 247 451 C329 451 376 396 376 336 C376 325 386 320 395 320 L418 320 C429 320 435 329 435 340 C435 430 359 510 247 510 C127 510 53 425 45 320 C42 280 42 220 45 180 C53 75 127 -10 247 -10 C359 -10 435 70 435 160 C435 171 426 180 415 180 L394 180 C385 180 375 176 375 163 L375 163 Z M239 666 C244 671 248 671 253 666 L320 601 C326 595 336 585 351 585 L394 585 C407 585 411 600 405 606 L287 718 C281 724 275 730 258 730 L236 730 C218 730 212 724 206 718 L88 606 C82 600 86 585 99 585 L142 585 C157 585 167 595 173 601 L239 666 Z " />
<glyph glyph-name="Cdotaccent" unicode="&#x10a;" horiz-adv-x="543" d="M500 204 C500 215 491 224 480 224 L453 224 C442 224 433 215 433 204 L433 200 C433 141 385 56 277 56 C169 56 129 142 121 200 C109 282 109 418 121 500 C132 573 182 644 277 644 C372 644 433 574 433 500 L433 496 C433 485 442 476 453 476 L480 476 C491 476 500 485 500 496 L500 500 C500 610 409 708 277 708 C145 708 69 609 54 500 C43 420 43 281 54 200 C71 71 157 -8 277 -8 C397 -8 500 70 500 200 L500 204 Z M316 829 C316 837 309 845 300 845 L242 845 C233 845 226 837 226 829 L226 770 C226 761 233 754 242 754 L300 754 C309 754 316 761 316 770 L316 829 Z " />
<glyph glyph-name="cdotaccent" unicode="&#x10b;" horiz-adv-x="478" d="M375 163 C375 111 335 49 247 49 C147 49 111 127 106 180 C102 221 102 279 106 320 C111 373 147 451 247 451 C329 451 376 396 376 336 C376 325 386 320 395 320 L418 320 C429 320 435 329 435 340 C435 430 359 510 247 510 C127 510 53 425 45 320 C42 280 42 220 45 180 C53 75 127 -10 247 -10 C359 -10 435 70 435 160 C435 171 426 180 415 180 L394 180 C385 180 375 176 375 163 L375 163 Z M291 691 C291 699 284 707 275 707 L217 707 C208 707 201 699 201 691 L201 632 C201 623 208 616 217 616 L275 616 C284 616 291 623 291 632 L291 691 Z " />
<glyph glyph-name="Ccaron" unicode="&#x10c;" horiz-adv-x="543" d="M500 204 C500 215 491 224 480 224 L453 224 C442 224 433 215 433 204 L433 200 C433 141 385 56 277 56 C169 56 129 142 121 200 C109 282 109 418 121 500 C132 573 182 644 277 644 C372 644 433 574 433 500 L433 496 C433 485 442 476 453 476 L480 476 C491 476 500 485 500 496 L500 500 C500 610 409 708 277 708 C145 708 69 609 54 500 C43 420 43 281 54 200 C71 71 157 -8 277 -8 C397 -8 500 70 500 200 L500 204 Z M198 880 C192 886 182 896 167 896 L124 896 C111 896 107 881 113 875 L231 763 C237 757 243 751 261 751 L283 751 C300 751 306 757 312 763 L430 875 C436 881 432 896 419 896 L377 896 C362 896 352 886 346 880 L278 815 C273 810 269 810 264 815 L198 880 Z " />
<glyph glyph-name="ccaron" unicode="&#x10d;" horiz-adv-x="478" d="M375 163 C375 111 335 49 247 49 C147 49 111 127 106 180 C102 221 102 279 106 320 C111 373 147 451 247 451 C329 451 376 396 376 336 C376 325 386 320 395 320 L418 320 C429 320 435 329 435 340 C435 430 359 510 247 510 C127 510 53 425 45 320 C42 280 42 220 45 180 C53 75 127 -10 247 -10 C359 -10 435 70 435 160 C435 171 426 180 415 180 L394 180 C385 180 375 176 375 163 L375 163 Z M173 714 C167 720 157 730 142 730 L99 730 C86 730 82 715 88 709 L206 597 C212 591 218 585 236 585 L258 585 C275 585 281 591 287 597 L405 709 C411 715 407 730 394 730 L352 730 C337 730 327 720 321 714 L253 649 C248 644 244 644 239 649 L173 714 Z " />
<glyph glyph-name="Dcaron" unicode="&#x10e;" horiz-adv-x="538" d="M265 636 C360 636 410 573 421 500 C433 418 433 282 421 200 C413 142 373 64 265 64 L139 64 C133 64 129 68 129 74 L129 626 C129 632 133 636 139 636 L265 636 Z M85 700 C74 700 65 691 65 680 L65 20 C65 9 74 0 85 0 L265 0 C385 0 471 71 488 200 C499 281 499 420 488 500 C473 609 397 700 265 700 L85 700 Z M188 880 C182 886 172 896 157 896 L114 896 C101 896 97 881 103 875 L221 763 C227 757 233 751 251 751 L273 751 C290 751 296 757 302 763 L420 875 C426 881 422 896 409 896 L367 896 C352 896 342 886 336 880 L268 815 C263 810 259 810 254 815 L188 880 Z " />
<glyph glyph-name="dcaron" unicode="&#x10f;" horiz-adv-x="625" d="M106 320 C112 373 143 451 240 451 C329 451 358 373 363 320 C367 279 367 221 363 180 C358 127 329 49 240 49 C142 49 112 127 106 180 C101 221 101 279 106 320 L106 320 Z M235 -10 C309 -10 320 23 349 23 C359 23 368 14 374 7 C378 3 382 0 388 0 L404 0 C415 0 424 9 424 20 L424 687 C424 698 415 707 404 707 L385 707 C374 707 365 698 365 687 L365 510 C365 491 355 485 340 485 C320 485 299 510 235 510 C130 510 53 425 45 320 C42 280 42 220 45 180 C53 75 130 -10 235 -10 L235 -10 Z M489 505 L499 505 C517 505 523 516 528 523 L553 559 C561 571 569 582 569 610 L569 680 C569 691 560 700 549 700 L489 700 C478 700 469 691 469 680 L469 615 C469 604 478 595 489 595 L494 595 C502 595 506 587 502 580 L474 529 C468 517 477 505 489 505 L489 505 Z " />
<glyph glyph-name="Dcroat" unicode="&#x110;" horiz-adv-x="538" d="M129 316 C129 322 133 326 139 326 L239 326 C250 326 259 335 259 346 L259 369 C259 380 250 389 239 389 L139 389 C133 389 129 393 129 399 L129 626 C129 632 133 636 139 636 L265 636 C360 636 410 573 421 500 C433 418 433 282 421 200 C413 142 373 64 265 64 L139 64 C133 64 129 68 129 74 L129 316 Z M85 700 C74 700 65 691 65 680 L65 399 C65 393 61 389 55 389 L23 389 C12 389 3 380 3 369 L3 346 C3 335 12 326 23 326 L55 326 C61 326 65 322 65 316 L65 20 C65 9 74 0 85 0 L265 0 C385 0 471 71 488 200 C499 281 499 420 488 500 C473 609 397 700 265 700 L85 700 Z " />
<glyph glyph-name="dcroat" unicode="&#x111;" horiz-adv-x="505" d="M106 320 C112 373 143 451 240 451 C329 451 358 373 363 320 C367 279 367 221 363 180 C358 127 329 49 240 49 C142 49 112 127 106 180 C101 221 101 279 106 320 L106 320 Z M424 687 C424 698 415 707 404 707 L385 707 C374 707 365 698 365 687 L365 637 C365 631 361 627 355 627 L285 627 C274 627 265 618 265 607 L265 597 C265 586 274 577 285 577 L355 577 C361 577 365 573 365 567 L365 510 C365 491 355 485 340 485 C320 485 299 510 235 510 C130 510 53 425 45 320 C42 280 42 220 45 180 C53 75 130 -10 235 -10 C309 -10 320 23 349 23 C359 23 368 14 374 7 C378 3 382 0 388 0 L404 0 C415 0 424 9 424 20 L424 567 C424 573 428 577 434 577 L469 577 C480 577 489 586 489 597 L489 607 C489 618 480 627 469 627 L434 627 C428 627 424 631 424 637 L424 687 Z " />
<glyph glyph-name="Emacron" unicode="&#x112;" horiz-adv-x="470" d="M129 316 C129 322 133 326 139 326 L387 326 C398 326 407 335 407 346 L407 369 C407 380 398 389 387 389 L139 389 C133 389 129 393 129 399 L129 626 C129 632 133 636 139 636 L398 636 C409 636 418 645 418 656 L418 680 C418 691 409 700 398 700 L85 700 C74 700 65 691 65 680 L65 20 C65 9 74 0 85 0 L400 0 C411 0 420 9 420 20 L420 44 C420 55 411 64 400 64 L139 64 C133 64 129 68 129 74 L129 316 Z M123 825 C112 825 103 816 103 805 L103 785 C103 774 112 765 123 765 L365 765 C376 765 385 774 385 785 L385 805 C385 816 376 825 365 825 L123 825 Z " />
<glyph glyph-name="emacron" unicode="&#x113;" horiz-adv-x="492" d="M251 451 C333 451 395 394 395 292 C395 286 391 282 385 282 L115 282 C109 282 105 286 105 292 C105 394 162 451 251 451 L251 451 Z M430 226 C441 226 450 235 450 246 L450 310 C450 420 362 510 250 510 C130 510 53 425 45 320 C42 280 42 220 45 180 C53 75 130 -10 250 -10 C354 -10 432 53 444 140 C446 154 437 160 427 160 L407 160 C398 160 388 156 384 143 C369 96 327 49 250 49 C147 49 103 120 103 216 C103 222 107 226 113 226 L430 226 Z M133 694 C122 694 113 685 113 674 L113 654 C113 643 122 634 133 634 L375 634 C386 634 395 643 395 654 L395 674 C395 685 386 694 375 694 L133 694 Z " />
<glyph glyph-name="Ebreve" unicode="&#x114;" horiz-adv-x="470" d="M129 316 C129 322 133 326 139 326 L387 326 C398 326 407 335 407 346 L407 369 C407 380 398 389 387 389 L139 389 C133 389 129 393 129 399 L129 626 C129 632 133 636 139 636 L398 636 C409 636 418 645 418 656 L418 680 C418 691 409 700 398 700 L85 700 C74 700 65 691 65 680 L65 20 C65 9 74 0 85 0 L400 0 C411 0 420 9 420 20 L420 44 C420 55 411 64 400 64 L139 64 C133 64 129 68 129 74 L129 316 Z M334 878 C334 832 300 802 254 802 C208 802 173 832 173 878 C173 887 166 895 156 895 L133 895 C124 895 116 887 116 878 C116 807 173 750 254 750 C334 750 391 807 391 878 C391 887 383 895 374 895 L351 895 C341 895 334 887 334 878 L334 878 Z " />
<glyph glyph-name="ebreve" unicode="&#x115;" horiz-adv-x="492" d="M251 451 C333 451 395 394 395 292 C395 286 391 282 385 282 L115 282 C109 282 105 286 105 292 C105 394 162 451 251 451 L251 451 Z M430 226 C441 226 450 235 450 246 L450 310 C450 420 362 510 250 510 C130 510 53 425 45 320 C42 280 42 220 45 180 C53 75 130 -10 250 -10 C354 -10 432 53 444 140 C446 154 437 160 427 160 L407 160 C398 160 388 156 384 143 C369 96 327 49 250 49 C147 49 103 120 103 216 C103 222 107 226 113 226 L430 226 Z M334 713 C334 667 300 637 254 637 C208 637 173 667 173 713 C173 722 166 730 156 730 L133 730 C124 730 116 722 116 713 C116 642 173 585 254 585 C334 585 391 642 391 713 C391 722 383 730 374 730 L351 730 C341 730 334 722 334 713 L334 713 Z " />
<glyph glyph-name="Edotaccent" unicode="&#x116;" horiz-adv-x="470" d="M129 316 C129 322 133 326 139 326 L387 326 C398 326 407 335 407 346 L407 369 C407 380 398 389 387 389 L139 389 C133 389 129 393 129 399 L129 626 C129 632 133 636 139 636 L398 636 C409 636 418 645 418 656 L418 680 C418 691 409 700 398 700 L85 700 C74 700 65 691 65 680 L65 20 C65 9 74 0 85 0 L400 0 C411 0 420 9 420 20 L420 44 C420 55 411 64 400 64 L139 64 C133 64 129 68 129 74 L129 316 Z M301 829 C301 837 294 845 285 845 L227 845 C218 845 211 837 211 829 L211 770 C211 761 218 754 227 754 L285 754 C294 754 301 761 301 770 L301 829 Z " />
<glyph glyph-name="edotaccent" unicode="&#x117;" horiz-adv-x="492" d="M251 451 C333 451 395 394 395 292 C395 286 391 282 385 282 L115 282 C109 282 105 286 105 292 C105 394 162 451 251 451 L251 451 Z M430 226 C441 226 450 235 450 246 L450 310 C450 420 362 510 250 510 C130 510 53 425 45 320 C42 280 42 220 45 180 C53 75 130 -10 250 -10 C354 -10 432 53 444 140 C446 154 437 160 427 160 L407 160 C398 160 388 156 384 143 C369 96 327 49 250 49 C147 49 103 120 103 216 C103 222 107 226 113 226 L430 226 Z M299 691 C299 699 292 707 283 707 L225 707 C216 707 209 699 209 691 L209 632 C209 623 216 616 225 616 L283 616 C292 616 299 623 299 632 L299 691 Z " />
<glyph glyph-name="Eogonek" unicode="&#x118;" horiz-adv-x="470" d="M129 626 C129 632 133 636 139 636 L398 636 C409 636 418 645 418 656 L418 680 C418 691 409 700 398 700 L85 700 C74 700 65 691 65 680 L65 20 C65 9 74 0 85 0 L266 0 C248 -20 236 -46 236 -81 C236 -171 304 -210 400 -210 C411 -210 420 -201 420 -190 L420 -170 C420 -159 411 -150 400 -150 C337 -150 296 -129 296 -76 C296 -24 338 0 391 0 L402 0 C412 1 420 9 420 20 L420 44 C420 55 411 64 400 64 L139 64 C133 64 129 68 129 74 L129 316 C129 322 133 326 139 326 L387 326 C398 326 407 335 407 346 L407 369 C407 380 398 389 387 389 L139 389 C133 389 129 393 129 399 L129 626 Z " />
<glyph glyph-name="eogonek" unicode="&#x119;" horiz-adv-x="492" d="M391 40 C419 68 438 97 444 140 C446 154 437 160 427 160 L407 160 C398 160 388 156 384 143 C369 96 327 49 250 49 C147 49 103 120 103 216 C103 222 107 226 113 226 L430 226 C441 226 450 235 450 246 L450 310 C450 420 362 510 250 510 C130 510 53 425 45 320 C42 280 42 220 45 180 C53 75 130 -10 250 -10 C259 -10 268 -9 277 -8 C264 -28 256 -52 256 -81 C256 -171 324 -210 420 -210 C431 -210 440 -201 440 -190 L440 -170 C440 -159 431 -150 420 -150 C357 -150 316 -129 316 -76 C316 -19 364 13 391 40 L391 40 Z M105 292 C105 394 162 451 251 451 C333 451 395 394 395 292 C395 286 391 282 385 282 L115 282 C109 282 105 286 105 292 L105 292 Z " />
<glyph glyph-name="Ecaron" unicode="&#x11a;" horiz-adv-x="470" d="M129 316 C129 322 133 326 139 326 L387 326 C398 326 407 335 407 346 L407 369 C407 380 398 389 387 389 L139 389 C133 389 129 393 129 399 L129 626 C129 632 133 636 139 636 L398 636 C409 636 418 645 418 656 L418 680 C418 691 409 700 398 700 L85 700 C74 700 65 691 65 680 L65 20 C65 9 74 0 85 0 L400 0 C411 0 420 9 420 20 L420 44 C420 55 411 64 400 64 L139 64 C133 64 129 68 129 74 L129 316 Z M178 880 C172 886 162 896 147 896 L104 896 C91 896 87 881 93 875 L211 763 C217 757 223 751 241 751 L263 751 C280 751 286 757 292 763 L410 875 C416 881 412 896 399 896 L357 896 C342 896 332 886 326 880 L258 815 C253 810 249 810 244 815 L178 880 Z " />
<glyph glyph-name="ecaron" unicode="&#x11b;" horiz-adv-x="492" d="M251 451 C333 451 395 394 395 292 C395 286 391 282 385 282 L115 282 C109 282 105 286 105 292 C105 394 162 451 251 451 L251 451 Z M430 226 C441 226 450 235 450 246 L450 310 C450 420 362 510 250 510 C130 510 53 425 45 320 C42 280 42 220 45 180 C53 75 130 -10 250 -10 C354 -10 432 53 444 140 C446 154 437 160 427 160 L407 160 C398 160 388 156 384 143 C369 96 327 49 250 49 C147 49 103 120 103 216 C103 222 107 226 113 226 L430 226 Z M180 714 C174 720 164 730 149 730 L106 730 C93 730 89 715 95 709 L213 597 C219 591 225 585 243 585 L265 585 C282 585 288 591 294 597 L412 709 C418 715 414 730 401 730 L359 730 C344 730 334 720 328 714 L260 649 C255 644 251 644 246 649 L180 714 Z " />
<glyph glyph-name="Gcircumflex" unicode="&#x11c;" horiz-adv-x="546" d="M436 200 C436 141 385 56 277 56 C169 56 129 142 121 200 C109 282 109 418 121 500 C132 573 182 644 277 644 C372 644 433 583 433 500 L433 496 C433 485 442 476 453 476 L480 476 C491 476 500 485 500 496 L500 500 C500 615 409 708 277 708 C145 708 69 609 54 500 C43 420 43 281 54 200 C71 71 157 -8 277 -8 C397 -8 500 70 500 200 L500 362 C500 373 491 382 480 382 L304 382 C293 382 284 373 284 362 L284 338 C284 327 293 318 304 318 L426 318 C432 318 436 314 436 308 L436 200 Z M278 836 C283 841 287 841 292 836 L359 771 C365 765 375 755 390 755 L433 755 C446 755 450 770 444 776 L326 888 C320 894 314 900 297 900 L275 900 C257 900 251 894 245 888 L127 776 C121 770 125 755 138 755 L181 755 C196 755 206 765 212 771 L278 836 Z " />
<glyph glyph-name="gcircumflex" unicode="&#x11d;" horiz-adv-x="484" d="M363 180 C358 127 329 49 240 49 C143 49 112 127 106 180 C101 221 101 279 106 320 C112 373 142 451 240 451 C329 451 358 373 363 320 C367 279 367 221 363 180 L363 180 Z M235 510 C130 510 53 425 45 320 C42 280 42 220 45 180 C53 75 130 -10 235 -10 C281 -10 323 15 343 15 C357 15 365 6 365 -10 L365 -30 C365 -90 321 -151 246 -151 C176 -151 142 -107 129 -70 C125 -59 120 -50 103 -50 L87 -50 C72 -50 66 -59 69 -73 C88 -163 166 -210 246 -210 C352 -210 424 -127 424 -30 L424 480 C424 491 415 500 404 500 L388 500 C382 500 378 497 374 493 C368 486 359 477 349 477 C320 477 309 510 235 510 L235 510 Z M239 666 C244 671 248 671 253 666 L320 601 C326 595 336 585 351 585 L394 585 C407 585 411 600 405 606 L287 718 C281 724 275 730 258 730 L236 730 C218 730 212 724 206 718 L88 606 C82 600 86 585 99 585 L142 585 C157 585 167 595 173 601 L239 666 Z " />
<glyph glyph-name="Gbreve" unicode="&#x11e;" horiz-adv-x="546" d="M436 200 C436 141 385 56 277 56 C169 56 129 142 121 200 C109 282 109 418 121 500 C132 573 182 644 277 644 C372 644 433 583 433 500 L433 496 C433 485 442 476 453 476 L480 476 C491 476 500 485 500 496 L500 500 C500 615 409 708 277 708 C145 708 69 609 54 500 C43 420 43 281 54 200 C71 71 157 -8 277 -8 C397 -8 500 70 500 200 L500 362 C500 373 491 382 480 382 L304 382 C293 382 284 373 284 362 L284 338 C284 327 293 318 304 318 L426 318 C432 318 436 314 436 308 L436 200 Z M364 878 C364 832 330 802 284 802 C238 802 203 832 203 878 C203 887 196 895 186 895 L163 895 C154 895 146 887 146 878 C146 807 203 750 284 750 C364 750 421 807 421 878 C421 887 413 895 404 895 L381 895 C371 895 364 887 364 878 L364 878 Z " />
<glyph glyph-name="gbreve" unicode="&#x11f;" horiz-adv-x="484" d="M363 180 C358 127 329 49 240 49 C143 49 112 127 106 180 C101 221 101 279 106 320 C112 373 142 451 240 451 C329 451 358 373 363 320 C367 279 367 221 363 180 L363 180 Z M235 510 C130 510 53 425 45 320 C42 280 42 220 45 180 C53 75 130 -10 235 -10 C281 -10 323 15 343 15 C357 15 365 6 365 -10 L365 -30 C365 -90 321 -151 246 -151 C176 -151 142 -107 129 -70 C125 -59 120 -50 103 -50 L87 -50 C72 -50 66 -59 69 -73 C88 -163 166 -210 246 -210 C352 -210 424 -127 424 -30 L424 480 C424 491 415 500 404 500 L388 500 C382 500 378 497 374 493 C368 486 359 477 349 477 C320 477 309 510 235 510 L235 510 Z M327 713 C327 667 293 637 247 637 C201 637 166 667 166 713 C166 722 159 730 149 730 L126 730 C117 730 109 722 109 713 C109 642 166 585 247 585 C327 585 384 642 384 713 C384 722 376 730 367 730 L344 730 C334 730 327 722 327 713 L327 713 Z " />
<glyph glyph-name="Gdotaccent" unicode="&#x120;" horiz-adv-x="546" d="M436 200 C436 141 385 56 277 56 C169 56 129 142 121 200 C109 282 109 418 121 500 C132 573 182 644 277 644 C372 644 433 583 433 500 L433 496 C433 485 442 476 453 476 L480 476 C491 476 500 485 500 496 L500 500 C500 615 409 708 277 708 C145 708 69 609 54 500 C43 420 43 281 54 200 C71 71 157 -8 277 -8 C397 -8 500 70 500 200 L500 362 C500 373 491 382 480 382 L304 382 C293 382 284 373 284 362 L284 338 C284 327 293 318 304 318 L426 318 C432 318 436 314 436 308 L436 200 Z M326 829 C326 837 319 845 310 845 L252 845 C243 845 236 837 236 829 L236 770 C236 761 243 754 252 754 L310 754 C319 754 326 761 326 770 L326 829 Z " />
<glyph glyph-name="gdotaccent" unicode="&#x121;" horiz-adv-x="484" d="M363 180 C358 127 329 49 240 49 C143 49 112 127 106 180 C101 221 101 279 106 320 C112 373 142 451 240 451 C329 451 358 373 363 320 C367 279 367 221 363 180 L363 180 Z M235 510 C130 510 53 425 45 320 C42 280 42 220 45 180 C53 75 130 -10 235 -10 C281 -10 323 15 343 15 C357 15 365 6 365 -10 L365 -30 C365 -90 321 -151 246 -151 C176 -151 142 -107 129 -70 C125 -59 120 -50 103 -50 L87 -50 C72 -50 66 -59 69 -73 C88 -163 166 -210 246 -210 C352 -210 424 -127 424 -30 L424 480 C424 491 415 500 404 500 L388 500 C382 500 378 497 374 493 C368 486 359 477 349 477 C320 477 309 510 235 510 L235 510 Z M292 691 C292 699 285 707 276 707 L218 707 C209 707 202 699 202 691 L202 632 C202 623 209 616 218 616 L276 616 C285 616 292 623 292 632 L292 691 Z " />
<glyph glyph-name="Gcommaaccent" unicode="&#x122;" horiz-adv-x="546" d="M436 200 C436 141 385 56 277 56 C169 56 129 142 121 200 C109 282 109 418 121 500 C132 573 182 644 277 644 C372 644 433 583 433 500 L433 496 C433 485 442 476 453 476 L480 476 C491 476 500 485 500 496 L500 500 C500 615 409 708 277 708 C145 708 69 609 54 500 C43 420 43 281 54 200 C71 71 157 -8 277 -8 C397 -8 500 70 500 200 L500 362 C500 373 491 382 480 382 L304 382 C293 382 284 373 284 362 L284 338 C284 327 293 318 304 318 L426 318 C432 318 436 314 436 308 L436 200 Z M233 -240 L243 -240 C261 -240 267 -229 272 -222 L297 -186 C305 -174 313 -163 313 -135 L313 -65 C313 -54 304 -45 293 -45 L233 -45 C222 -45 213 -54 213 -65 L213 -130 C213 -141 222 -150 233 -150 L238 -150 C246 -150 250 -158 246 -165 L218 -216 C212 -228 221 -240 233 -240 L233 -240 Z " />
<glyph glyph-name="gcommaaccent" unicode="&#x123;" horiz-adv-x="484" d="M363 180 C358 127 329 49 240 49 C143 49 112 127 106 180 C101 221 101 279 106 320 C112 373 142 451 240 451 C329 451 358 373 363 320 C367 279 367 221 363 180 L363 180 Z M235 510 C130 510 53 425 45 320 C42 280 42 220 45 180 C53 75 130 -10 235 -10 C281 -10 323 15 343 15 C357 15 365 6 365 -10 L365 -30 C365 -90 321 -151 246 -151 C176 -151 142 -107 129 -70 C125 -59 120 -50 103 -50 L87 -50 C72 -50 66 -59 69 -73 C88 -163 166 -210 246 -210 C352 -210 424 -127 424 -30 L424 480 C424 491 415 500 404 500 L388 500 C382 500 378 497 374 493 C368 486 359 477 349 477 C320 477 309 510 235 510 L235 510 Z M287 780 L277 780 C259 780 253 769 248 762 L223 726 C215 714 207 703 207 675 L207 605 C207 594 216 585 227 585 L287 585 C298 585 307 594 307 605 L307 670 C307 681 298 690 287 690 L282 690 C274 690 270 698 274 705 L302 756 C308 768 299 780 287 780 L287 780 Z " />
<glyph glyph-name="Hcircumflex" unicode="&#x124;" horiz-adv-x="540" d="M411 680 L411 400 C411 394 407 390 401 390 L139 390 C133 390 129 394 129 400 L129 680 C129 691 120 700 109 700 L85 700 C74 700 65 691 65 680 L65 20 C65 9 74 0 85 0 L109 0 C120 0 129 9 129 20 L129 316 C129 322 133 326 139 326 L401 326 C407 326 411 322 411 316 L411 20 C411 9 420 0 431 0 L455 0 C466 0 475 9 475 20 L475 680 C475 691 466 700 455 700 L431 700 C420 700 411 691 411 680 L411 680 Z M263 836 C268 841 272 841 277 836 L344 771 C350 765 360 755 375 755 L418 755 C431 755 435 770 429 776 L311 888 C305 894 299 900 282 900 L260 900 C242 900 236 894 230 888 L112 776 C106 770 110 755 123 755 L166 755 C181 755 191 765 197 771 L263 836 Z " />
<glyph glyph-name="hcircumflex" unicode="&#x125;" horiz-adv-x="477" d="M368 20 C368 9 377 0 388 0 L407 0 C418 0 427 9 427 20 L427 336 C427 430 358 510 253 510 C194 510 166 485 146 485 C132 485 124 497 124 506 L124 687 C124 698 115 707 104 707 L85 707 C74 707 65 698 65 687 L65 20 C65 9 74 0 85 0 L104 0 C115 0 124 9 124 20 L124 341 C124 403 174 451 246 451 C318 451 368 403 368 336 L368 20 Z M243 836 C248 841 252 841 257 836 L324 771 C330 765 340 755 355 755 L398 755 C411 755 415 770 409 776 L291 888 C285 894 279 900 262 900 L240 900 C222 900 216 894 210 888 L92 776 C86 770 90 755 103 755 L146 755 C161 755 171 765 177 771 L243 836 Z " />
<glyph glyph-name="Hbar" unicode="&#x126;" horiz-adv-x="540" d="M411 680 L411 585 C411 579 407 575 401 575 L139 575 C133 575 129 579 129 585 L129 680 C129 691 120 700 109 700 L85 700 C74 700 65 691 65 680 L65 20 C65 9 74 0 85 0 L109 0 C120 0 129 9 129 20 L129 316 C129 322 133 326 139 326 L401 326 C407 326 411 322 411 316 L411 20 C411 9 420 0 431 0 L455 0 C466 0 475 9 475 20 L475 680 C475 691 466 700 455 700 L431 700 C420 700 411 691 411 680 L411 680 Z M139 511 L401 511 C407 511 411 507 411 501 L411 400 C411 394 407 390 401 390 L139 390 C133 390 129 394 129 400 L129 501 C129 507 133 511 139 511 L139 511 Z " />
<glyph glyph-name="hbar" unicode="&#x127;" horiz-adv-x="477" d="M134 577 L204 577 C215 577 224 586 224 597 L224 607 C224 618 215 627 204 627 L134 627 C128 627 124 631 124 637 L124 687 C124 698 115 707 104 707 L85 707 C74 707 65 698 65 687 L65 637 C65 631 61 627 55 627 L20 627 C9 627 0 618 0 607 L0 597 C0 586 9 577 20 577 L55 577 C61 577 65 573 65 567 L65 20 C65 9 74 0 85 0 L104 0 C115 0 124 9 124 20 L124 341 C124 403 174 451 246 451 C318 451 368 403 368 336 L368 20 C368 9 377 0 388 0 L407 0 C418 0 427 9 427 20 L427 336 C427 430 358 510 253 510 C194 510 166 485 146 485 C132 485 124 497 124 506 L124 567 C124 573 128 577 134 577 L134 577 Z " />
<glyph glyph-name="Itilde" unicode="&#x128;" horiz-adv-x="194" d="M129 680 C129 691 120 700 109 700 L85 700 C74 700 65 691 65 680 L65 20 C65 9 74 0 85 0 L109 0 C120 0 129 9 129 20 L129 680 Z M179 832 C111 832 103 857 39 857 C-1 857 -32 832 -32 806 L-32 782 C-32 763 -15 759 -7 768 C4 781 17 789 39 789 C107 789 115 764 179 764 C219 764 250 789 250 815 L250 839 C250 858 233 863 225 853 C217 843 204 832 179 832 L179 832 Z " />
<glyph glyph-name="itilde" unicode="&#x129;" horiz-adv-x="214" d="M177 676 C109 676 101 701 37 701 C-3 701 -34 676 -34 650 L-34 626 C-34 607 -17 603 -9 612 C2 625 15 633 37 633 C105 633 113 608 177 608 C217 608 248 633 248 659 L248 683 C248 702 231 707 223 697 C215 687 202 676 177 676 L177 676 Z M141 480 C141 491 132 500 121 500 L93 500 C82 500 73 491 73 480 L73 20 C73 9 82 0 93 0 L121 0 C132 0 141 9 141 20 L141 480 Z " />
<glyph glyph-name="Imacron" unicode="&#x12a;" horiz-adv-x="194" d="M129 680 C129 691 120 700 109 700 L85 700 C74 700 65 691 65 680 L65 20 C65 9 74 0 85 0 L109 0 C120 0 129 9 129 20 L129 680 Z M-23 825 C-34 825 -43 816 -43 805 L-43 785 C-43 774 -34 765 -23 765 L219 765 C230 765 239 774 239 785 L239 805 C239 816 230 825 219 825 L-23 825 Z " />
<glyph glyph-name="imacron" unicode="&#x12b;" horiz-adv-x="214" d="M-14 694 C-25 694 -34 685 -34 674 L-34 654 C-34 643 -25 634 -14 634 L228 634 C239 634 248 643 248 654 L248 674 C248 685 239 694 228 694 L-14 694 Z M141 480 C141 491 132 500 121 500 L93 500 C82 500 73 491 73 480 L73 20 C73 9 82 0 93 0 L121 0 C132 0 141 9 141 20 L141 480 Z " />
<glyph glyph-name="Ibreve" unicode="&#x12c;" horiz-adv-x="194" d="M128 680 C128 691 119 700 108 700 L84 700 C73 700 64 691 64 680 L64 20 C64 9 73 0 84 0 L108 0 C119 0 128 9 128 20 L128 680 Z M177 878 C177 832 143 802 97 802 C51 802 16 832 16 878 C16 887 9 895 -1 895 L-24 895 C-33 895 -41 887 -41 878 C-41 807 16 750 97 750 C177 750 234 807 234 878 C234 887 226 895 217 895 L194 895 C184 895 177 887 177 878 L177 878 Z " />
<glyph glyph-name="ibreve" unicode="&#x12d;" horiz-adv-x="214" d="M188 713 C188 667 154 637 108 637 C62 637 27 667 27 713 C27 722 20 730 10 730 L-13 730 C-22 730 -30 722 -30 713 C-30 642 27 585 108 585 C188 585 245 642 245 713 C245 722 237 730 228 730 L205 730 C195 730 188 722 188 713 L188 713 Z M141 480 C141 491 132 500 121 500 L93 500 C82 500 73 491 73 480 L73 20 C73 9 82 0 93 0 L121 0 C132 0 141 9 141 20 L141 480 Z " />
<glyph glyph-name="Iogonek" unicode="&#x12e;" horiz-adv-x="194" d="M129 680 C129 691 120 700 109 700 L85 700 C74 700 65 691 65 680 L65 55 C4 40 -55 -4 -55 -81 C-55 -171 13 -210 109 -210 C120 -210 129 -201 129 -190 L129 -170 C129 -159 120 -150 109 -150 C46 -150 5 -129 5 -76 C5 -24 47 0 100 0 L109 0 C120 0 129 9 129 20 L129 680 Z " />
<glyph glyph-name="iogonek" unicode="&#x12f;" horiz-adv-x="214" d="M149 691 C149 699 142 707 133 707 L81 707 C72 707 65 699 65 691 L65 638 C65 629 72 622 81 622 L133 622 C142 622 149 629 149 638 L149 691 Z M118 0 C132 0 138 9 138 20 L138 480 C138 491 132 500 118 500 L98 500 C84 500 78 491 78 480 L78 56 C15 43 -46 -2 -46 -81 C-46 -171 22 -210 118 -210 C129 -210 138 -201 138 -190 L138 -170 C138 -159 129 -150 118 -150 C55 -150 14 -129 14 -76 C14 -24 56 0 109 0 L118 0 Z " />
<glyph glyph-name="Idotaccent" unicode="&#x130;" horiz-adv-x="194" d="M129 680 C129 691 120 700 109 700 L85 700 C74 700 65 691 65 680 L65 20 C65 9 74 0 85 0 L109 0 C120 0 129 9 129 20 L129 680 Z M143 829 C143 837 136 845 127 845 L69 845 C60 845 53 837 53 829 L53 770 C53 761 60 754 69 754 L127 754 C136 754 143 761 143 770 L143 829 Z " />
<glyph glyph-name="dotlessi" unicode="&#x131;" horiz-adv-x="214" d="M141 480 C141 491 132 500 121 500 L93 500 C82 500 73 491 73 480 L73 20 C73 9 82 0 93 0 L121 0 C132 0 141 9 141 20 L141 480 Z " />
<glyph glyph-name="IJ" unicode="&#x132;" horiz-adv-x="453" d="M129 680 C129 691 120 700 109 700 L85 700 C74 700 65 691 65 680 L65 20 C65 9 74 0 85 0 L109 0 C120 0 129 9 129 20 L129 680 Z M199 56 C188 56 179 47 179 36 L179 12 C179 1 188 -8 199 -8 C312 -8 399 69 399 192 L399 680 C399 691 390 700 379 700 L355 700 C344 700 335 691 335 680 L335 202 C335 100 279 56 199 56 L199 56 Z " />
<glyph glyph-name="ij" unicode="&#x133;" horiz-adv-x="360" d="M149 691 C149 699 142 707 133 707 L81 707 C72 707 65 699 65 691 L65 638 C65 629 72 622 81 622 L133 622 C142 622 149 629 149 638 L149 691 Z M138 480 C138 491 132 500 118 500 L98 500 C84 500 78 491 78 480 L78 20 C78 9 84 0 98 0 L118 0 C132 0 138 9 138 20 L138 480 Z M223 -30 C223 -120 166 -151 116 -151 L74 -151 C63 -151 54 -160 54 -171 L54 -190 C54 -201 63 -210 74 -210 L116 -210 C226 -210 283 -130 283 -30 L283 480 C283 491 277 500 263 500 L243 500 C229 500 223 491 223 480 L223 -30 Z M295 691 C295 699 288 707 279 707 L227 707 C218 707 211 699 211 691 L211 638 C211 629 218 622 227 622 L279 622 C288 622 295 629 295 638 L295 691 Z " />
<glyph glyph-name="Jcircumflex" unicode="&#x134;" horiz-adv-x="459" d="M5 192 C5 82 95 -8 205 -8 C318 -8 405 69 405 192 L405 680 C405 691 396 700 385 700 L361 700 C350 700 341 691 341 680 L341 202 C341 100 285 56 205 56 C125 56 70 120 70 192 L70 200 C70 211 61 220 50 220 L25 220 C14 220 5 211 5 200 L5 192 Z M359 836 C364 841 368 841 373 836 L440 771 C446 765 456 755 471 755 L514 755 C527 755 531 770 525 776 L407 888 C401 894 395 900 378 900 L356 900 C338 900 332 894 326 888 L208 776 C202 770 206 755 219 755 L262 755 C277 755 287 765 293 771 L359 836 Z " />
<glyph glyph-name="jcircumflex" unicode="&#x135;" horiz-adv-x="264" d="M109 -30 C109 -120 52 -151 2 -151 L-40 -151 C-51 -151 -60 -160 -60 -171 L-60 -190 C-60 -201 -51 -210 -40 -210 L2 -210 C112 -210 169 -130 169 -30 L169 480 C169 491 163 500 149 500 L129 500 C115 500 109 491 109 480 L109 -30 Z M132 666 C137 671 141 671 146 666 L213 601 C219 595 229 585 244 585 L287 585 C300 585 304 600 298 606 L180 718 C174 724 168 730 151 730 L129 730 C111 730 105 724 99 718 L-19 606 C-25 600 -21 585 -8 585 L35 585 C50 585 60 595 66 601 L132 666 Z " />
<glyph glyph-name="Kcommaaccent" unicode="&#x136;" horiz-adv-x="474" d="M376 13 C380 9 387 0 402 0 L424 0 C450 0 453 24 442 37 L178 349 C170 358 173 365 179 373 L426 664 C438 678 433 700 409 700 L393 700 C378 700 370 693 367 689 L137 414 C135 411 129 411 129 416 L129 680 C129 691 120 700 109 700 L85 700 C74 700 65 691 65 680 L65 20 C65 9 74 0 85 0 L109 0 C120 0 129 9 129 20 L129 297 C129 302 135 302 137 299 L376 13 Z M203 -240 L213 -240 C231 -240 237 -229 242 -222 L267 -186 C275 -174 283 -163 283 -135 L283 -65 C283 -54 274 -45 263 -45 L203 -45 C192 -45 183 -54 183 -65 L183 -130 C183 -141 192 -150 203 -150 L208 -150 C216 -150 220 -158 216 -165 L188 -216 C182 -228 191 -240 203 -240 L203 -240 Z " />
<glyph glyph-name="kcommaaccent" unicode="&#x137;" horiz-adv-x="439" d="M373 467 C383 477 382 500 359 500 L341 500 C326 500 318 492 313 487 L132 310 C129 306 124 307 124 312 L124 687 C124 698 115 707 104 707 L85 707 C74 707 65 698 65 687 L65 20 C65 9 74 0 85 0 L104 0 C115 0 124 9 124 20 L124 207 C124 212 129 212 132 209 L324 15 C329 10 339 0 354 0 L374 0 C395 0 402 22 388 35 L174 248 C165 256 166 264 174 272 L373 467 Z M176 -240 L186 -240 C204 -240 210 -229 215 -222 L240 -186 C248 -174 256 -163 256 -135 L256 -65 C256 -54 247 -45 236 -45 L176 -45 C165 -45 156 -54 156 -65 L156 -130 C156 -141 165 -150 176 -150 L181 -150 C189 -150 193 -158 189 -165 L161 -216 C155 -228 164 -240 176 -240 L176 -240 Z " />
<glyph glyph-name="kgreenlandic" unicode="&#x138;" horiz-adv-x="439" d="M373 467 C383 477 382 500 359 500 L341 500 C326 500 318 492 313 487 L132 305 C128 301 124 302 124 307 L124 480 C124 491 115 500 104 500 L85 500 C74 500 65 491 65 480 L65 20 C65 9 74 0 85 0 L104 0 C115 0 124 9 124 20 L124 207 C124 212 129 212 132 209 L319 15 C324 10 334 0 349 0 L374 0 C395 0 402 22 388 35 L174 248 C165 256 166 264 174 272 L373 467 Z " />
<glyph glyph-name="Lacute" unicode="&#x139;" horiz-adv-x="424" d="M129 680 C129 691 120 700 109 700 L85 700 C74 700 65 691 65 680 L65 20 C65 9 74 0 85 0 L384 0 C395 0 404 9 404 20 L404 44 C404 55 395 64 384 64 L139 64 C133 64 129 68 129 74 L129 680 Z M191 895 C176 895 170 886 165 879 L89 770 C84 763 90 750 103 750 L122 750 C140 750 146 756 152 762 L260 874 C266 880 262 895 249 895 L191 895 Z " />
<glyph glyph-name="lacute" unicode="&#x13a;" horiz-adv-x="187" d="M120 687 C120 698 111 707 100 707 L80 707 C69 707 60 698 60 687 L60 20 C60 9 69 0 80 0 L100 0 C111 0 120 9 120 20 L120 687 Z M156 895 C141 895 135 886 130 879 L54 770 C49 763 55 750 68 750 L87 750 C105 750 111 756 117 762 L225 874 C231 880 227 895 214 895 L156 895 Z " />
<glyph glyph-name="Lcommaaccent" unicode="&#x13b;" horiz-adv-x="424" d="M129 680 C129 691 120 700 109 700 L85 700 C74 700 65 691 65 680 L65 20 C65 9 74 0 85 0 L384 0 C395 0 404 9 404 20 L404 44 C404 55 395 64 384 64 L139 64 C133 64 129 68 129 74 L129 680 Z M191 -240 L201 -240 C219 -240 225 -229 230 -222 L255 -186 C263 -174 271 -163 271 -135 L271 -65 C271 -54 262 -45 251 -45 L191 -45 C180 -45 171 -54 171 -65 L171 -130 C171 -141 180 -150 191 -150 L196 -150 C204 -150 208 -158 204 -165 L176 -216 C170 -228 179 -240 191 -240 L191 -240 Z " />
<glyph glyph-name="lcommaaccent" unicode="&#x13c;" horiz-adv-x="211" d="M154 -65 C154 -54 145 -45 134 -45 L74 -45 C63 -45 54 -54 54 -65 L54 -130 C54 -141 63 -150 74 -150 L79 -150 C87 -150 91 -158 87 -165 L59 -216 C53 -228 62 -240 74 -240 L84 -240 C102 -240 108 -229 113 -222 L138 -186 C146 -174 154 -163 154 -135 L154 -65 Z M134 687 C134 698 125 707 114 707 L94 707 C83 707 74 698 74 687 L74 20 C74 9 83 0 94 0 L114 0 C125 0 134 9 134 20 L134 687 Z " />
<glyph glyph-name="Lcaron" unicode="&#x13d;" horiz-adv-x="424" d="M129 680 C129 691 120 700 109 700 L85 700 C74 700 65 691 65 680 L65 20 C65 9 74 0 85 0 L384 0 C395 0 404 9 404 20 L404 44 C404 55 395 64 384 64 L139 64 C133 64 129 68 129 74 L129 680 Z M224 505 L234 505 C252 505 258 516 263 523 L288 559 C296 571 304 582 304 610 L304 680 C304 691 295 700 284 700 L224 700 C213 700 204 691 204 680 L204 615 C204 604 213 595 224 595 L229 595 C237 595 241 587 237 580 L209 529 C203 517 212 505 224 505 L224 505 Z " />
<glyph glyph-name="lcaron" unicode="&#x13e;" horiz-adv-x="244" d="M125 687 C125 698 116 707 105 707 L85 707 C74 707 65 698 65 687 L65 20 C65 9 74 0 85 0 L105 0 C116 0 125 9 125 20 L125 687 Z M205 505 L215 505 C233 505 239 516 244 523 L269 559 C277 571 285 582 285 610 L285 680 C285 691 276 700 265 700 L205 700 C194 700 185 691 185 680 L185 615 C185 604 194 595 205 595 L210 595 C218 595 222 587 218 580 L190 529 C184 517 193 505 205 505 L205 505 Z " />
<glyph glyph-name="Ldot" unicode="&#x13f;" horiz-adv-x="424" d="M129 680 C129 691 120 700 109 700 L85 700 C74 700 65 691 65 680 L65 20 C65 9 74 0 85 0 L384 0 C395 0 404 9 404 20 L404 44 C404 55 395 64 384 64 L139 64 C133 64 129 68 129 74 L129 680 Z M310 334 C310 342 303 350 294 350 L236 350 C227 350 220 342 220 334 L220 275 C220 266 227 259 236 259 L294 259 C303 259 310 266 310 275 L310 334 Z " />
<glyph glyph-name="ldot" unicode="&#x140;" horiz-adv-x="304" d="M125 687 C125 698 116 707 105 707 L85 707 C74 707 65 698 65 687 L65 20 C65 9 74 0 85 0 L105 0 C116 0 125 9 125 20 L125 687 Z M290 334 C290 342 283 350 274 350 L216 350 C207 350 200 342 200 334 L200 275 C200 266 207 259 216 259 L274 259 C283 259 290 266 290 275 L290 334 Z " />
<glyph glyph-name="Lslash" unicode="&#x141;" horiz-adv-x="424" d="M138 381 C134 378 129 381 129 385 L129 680 C129 691 120 700 109 700 L85 700 C74 700 65 691 65 680 L65 331 C65 325 61 320 57 317 L10 284 C-5 274 -5 267 -5 256 L-5 239 C-5 224 13 218 23 225 L56 248 C58 250 65 249 65 243 L65 20 C65 9 74 0 85 0 L384 0 C395 0 404 9 404 20 L404 44 C404 55 395 64 384 64 L139 64 C133 64 129 68 129 74 L129 300 C129 303 131 307 135 310 L280 413 C289 420 300 430 300 443 L300 464 C300 477 284 485 275 478 L138 381 Z " />
<glyph glyph-name="lslash" unicode="&#x142;" horiz-adv-x="220" d="M128 687 C128 698 119 707 108 707 L88 707 C77 707 68 698 68 687 L68 339 C68 333 64 328 60 325 L10 292 C-5 282 -5 275 -5 264 L-5 247 C-5 232 13 226 23 233 L59 256 C61 258 68 257 68 251 L68 20 C68 9 77 0 88 0 L108 0 C119 0 128 9 128 20 L128 298 C128 301 130 305 134 308 L196 350 C205 357 216 367 216 380 L216 401 C216 414 200 422 191 415 L137 379 C133 376 128 379 128 383 L128 687 Z " />
<glyph glyph-name="Nacute" unicode="&#x143;" horiz-adv-x="530" d="M445 0 C456 0 465 9 465 20 L465 680 C465 691 456 700 445 700 L425 700 C414 700 405 691 405 680 L405 116 C405 111 399 110 397 114 L158 683 C152 697 148 700 137 700 L85 700 C74 700 65 691 65 680 L65 20 C65 9 74 0 85 0 L105 0 C116 0 125 9 125 20 L125 589 C125 594 131 595 133 591 L372 17 C378 3 382 0 393 0 L445 0 Z M321 895 C306 895 300 886 295 879 L219 770 C214 763 220 750 233 750 L252 750 C270 750 276 756 282 762 L390 874 C396 880 392 895 379 895 L321 895 Z " />
<glyph glyph-name="nacute" unicode="&#x144;" horiz-adv-x="482" d="M432 336 C432 450 358 510 253 510 C179 510 163 477 134 477 C122 477 116 486 110 493 C106 497 102 500 96 500 L80 500 C69 500 60 491 60 480 L60 20 C60 9 69 0 80 0 L99 0 C110 0 119 9 119 20 L119 341 C119 403 174 451 246 451 C318 451 373 420 373 336 L373 20 C373 9 382 0 393 0 L412 0 C423 0 432 9 432 20 L432 336 Z M303 730 C288 730 282 721 277 714 L201 605 C196 598 202 585 215 585 L234 585 C252 585 258 591 264 597 L372 709 C378 715 374 730 361 730 L303 730 Z " />
<glyph glyph-name="Ncommaaccent" unicode="&#x145;" horiz-adv-x="530" d="M445 0 C456 0 465 9 465 20 L465 680 C465 691 456 700 445 700 L425 700 C414 700 405 691 405 680 L405 116 C405 111 399 110 397 114 L158 683 C152 697 148 700 137 700 L85 700 C74 700 65 691 65 680 L65 20 C65 9 74 0 85 0 L105 0 C116 0 125 9 125 20 L125 589 C125 594 131 595 133 591 L372 17 C378 3 382 0 393 0 L445 0 Z M234 -240 L244 -240 C262 -240 268 -229 273 -222 L298 -186 C306 -174 314 -163 314 -135 L314 -65 C314 -54 305 -45 294 -45 L234 -45 C223 -45 214 -54 214 -65 L214 -130 C214 -141 223 -150 234 -150 L239 -150 C247 -150 251 -158 247 -165 L219 -216 C213 -228 222 -240 234 -240 L234 -240 Z " />
<glyph glyph-name="ncommaaccent" unicode="&#x146;" horiz-adv-x="482" d="M432 336 C432 450 358 510 253 510 C179 510 163 477 134 477 C122 477 116 486 110 493 C106 497 102 500 96 500 L80 500 C69 500 60 491 60 480 L60 20 C60 9 69 0 80 0 L99 0 C110 0 119 9 119 20 L119 341 C119 403 174 451 246 451 C318 451 373 420 373 336 L373 20 C373 9 382 0 393 0 L412 0 C423 0 432 9 432 20 L432 336 Z M217 -240 L227 -240 C245 -240 251 -229 256 -222 L281 -186 C289 -174 297 -163 297 -135 L297 -65 C297 -54 288 -45 277 -45 L217 -45 C206 -45 197 -54 197 -65 L197 -130 C197 -141 206 -150 217 -150 L222 -150 C230 -150 234 -158 230 -165 L202 -216 C196 -228 205 -240 217 -240 L217 -240 Z " />
<glyph glyph-name="Ncaron" unicode="&#x147;" horiz-adv-x="530" d="M445 0 C456 0 465 9 465 20 L465 680 C465 691 456 700 445 700 L425 700 C414 700 405 691 405 680 L405 116 C405 111 399 110 397 114 L158 683 C152 697 148 700 137 700 L85 700 C74 700 65 691 65 680 L65 20 C65 9 74 0 85 0 L105 0 C116 0 125 9 125 20 L125 589 C125 594 131 595 133 591 L372 17 C378 3 382 0 393 0 L445 0 Z M208 880 C202 886 192 896 177 896 L134 896 C121 896 117 881 123 875 L241 763 C247 757 253 751 271 751 L293 751 C310 751 316 757 322 763 L440 875 C446 881 442 896 429 896 L387 896 C372 896 362 886 356 880 L288 815 C283 810 279 810 274 815 L208 880 Z " />
<glyph glyph-name="ncaron" unicode="&#x148;" horiz-adv-x="482" d="M432 336 C432 450 358 510 253 510 C179 510 163 477 134 477 C122 477 116 486 110 493 C106 497 102 500 96 500 L80 500 C69 500 60 491 60 480 L60 20 C60 9 69 0 80 0 L99 0 C110 0 119 9 119 20 L119 341 C119 403 174 451 246 451 C318 451 373 420 373 336 L373 20 C373 9 382 0 393 0 L412 0 C423 0 432 9 432 20 L432 336 Z M184 714 C178 720 168 730 153 730 L110 730 C97 730 93 715 99 709 L217 597 C223 591 229 585 247 585 L269 585 C286 585 292 591 298 597 L416 709 C422 715 418 730 405 730 L363 730 C348 730 338 720 332 714 L264 649 C259 644 255 644 250 649 L184 714 Z " />
<glyph glyph-name="napostrophe" unicode="&#x149;" horiz-adv-x="486" d="M436 336 C436 450 362 510 257 510 C183 510 167 477 138 477 C126 477 120 486 114 493 C110 497 106 500 100 500 L84 500 C73 500 64 491 64 480 L64 20 C64 9 73 0 84 0 L103 0 C114 0 123 9 123 20 L123 341 C123 403 178 451 250 451 C322 451 377 420 377 336 L377 20 C377 9 386 0 397 0 L416 0 C427 0 436 9 436 20 L436 336 Z M19 505 L29 505 C47 505 53 516 58 523 L83 559 C91 571 99 582 99 610 L99 680 C99 691 90 700 79 700 L19 700 C8 700 -1 691 -1 680 L-1 615 C-1 604 8 595 19 595 L24 595 C32 595 36 587 32 580 L4 529 C-2 517 7 505 19 505 L19 505 Z " />
<glyph glyph-name="Eng" unicode="&#x14a;" horiz-adv-x="530" d="M401 0 L401 -27 C401 -110 368 -146 295 -146 C284 -146 275 -155 275 -166 L275 -190 C275 -201 284 -210 295 -210 C401 -210 465 -148 465 -25 L465 680 C465 691 456 700 445 700 L425 700 C414 700 405 691 405 680 L405 162 C405 157 399 156 397 160 L158 683 C152 697 148 700 137 700 L85 700 C74 700 65 691 65 680 L65 20 C65 9 74 0 85 0 L105 0 C116 0 125 9 125 20 L125 589 C125 594 131 595 133 591 L401 0 Z " />
<glyph glyph-name="eng" unicode="&#x14b;" horiz-adv-x="482" d="M432 336 C432 450 358 510 253 510 C179 510 163 477 134 477 C122 477 116 486 110 493 C106 497 102 500 96 500 L80 500 C69 500 60 491 60 480 L60 20 C60 9 69 0 80 0 L99 0 C110 0 119 9 119 20 L119 341 C119 403 174 451 246 451 C318 451 373 420 373 336 L373 -27 C373 -110 340 -154 267 -154 C256 -154 247 -163 247 -174 L247 -190 C247 -201 256 -210 267 -210 C373 -210 432 -148 432 -25 L432 336 Z " />
<glyph glyph-name="Omacron" unicode="&#x14c;" horiz-adv-x="556" d="M277 56 C169 56 129 142 121 200 C109 282 109 418 121 500 C132 573 182 644 277 644 C372 644 422 573 433 500 C445 418 445 282 433 200 C425 142 385 56 277 56 L277 56 Z M277 708 C145 708 69 609 54 500 C43 420 43 281 54 200 C71 71 157 -8 277 -8 C397 -8 483 71 500 200 C511 281 511 420 500 500 C485 609 409 708 277 708 L277 708 Z M161 825 C150 825 141 816 141 805 L141 785 C141 774 150 765 161 765 L403 765 C414 765 423 774 423 785 L423 805 C423 816 414 825 403 825 L161 825 Z " />
<glyph glyph-name="omacron" unicode="&#x14d;" horiz-adv-x="500" d="M106 320 C111 373 147 451 247 451 C347 451 383 373 388 320 C392 279 392 221 388 180 C383 127 347 49 247 49 C147 49 111 127 106 180 C102 221 102 279 106 320 L106 320 Z M45 180 C53 75 127 -10 247 -10 C367 -10 441 75 449 180 C452 220 452 280 449 320 C441 425 367 510 247 510 C127 510 53 425 45 320 C42 280 42 220 45 180 L45 180 Z M129 694 C118 694 109 685 109 674 L109 654 C109 643 118 634 129 634 L371 634 C382 634 391 643 391 654 L391 674 C391 685 382 694 371 694 L129 694 Z " />
<glyph glyph-name="Obreve" unicode="&#x14e;" horiz-adv-x="556" d="M277 56 C169 56 129 142 121 200 C109 282 109 418 121 500 C132 573 182 644 277 644 C372 644 422 573 433 500 C445 418 445 282 433 200 C425 142 385 56 277 56 L277 56 Z M277 708 C145 708 69 609 54 500 C43 420 43 281 54 200 C71 71 157 -8 277 -8 C397 -8 483 71 500 200 C511 281 511 420 500 500 C485 609 409 708 277 708 L277 708 Z M361 878 C361 832 327 802 281 802 C235 802 200 832 200 878 C200 887 193 895 183 895 L160 895 C151 895 143 887 143 878 C143 807 200 750 281 750 C361 750 418 807 418 878 C418 887 410 895 401 895 L378 895 C368 895 361 887 361 878 L361 878 Z " />
<glyph glyph-name="obreve" unicode="&#x14f;" horiz-adv-x="500" d="M106 320 C111 373 147 451 247 451 C347 451 383 373 388 320 C392 279 392 221 388 180 C383 127 347 49 247 49 C147 49 111 127 106 180 C102 221 102 279 106 320 L106 320 Z M45 180 C53 75 127 -10 247 -10 C367 -10 441 75 449 180 C452 220 452 280 449 320 C441 425 367 510 247 510 C127 510 53 425 45 320 C42 280 42 220 45 180 L45 180 Z M330 713 C330 667 296 637 250 637 C204 637 169 667 169 713 C169 722 162 730 152 730 L129 730 C120 730 112 722 112 713 C112 642 169 585 250 585 C330 585 387 642 387 713 C387 722 379 730 370 730 L347 730 C337 730 330 722 330 713 L330 713 Z " />
<glyph glyph-name="Ohungarumlaut" unicode="&#x150;" horiz-adv-x="556" d="M277 56 C169 56 129 142 121 200 C109 282 109 418 121 500 C132 573 182 644 277 644 C372 644 422 573 433 500 C445 418 445 282 433 200 C425 142 385 56 277 56 L277 56 Z M277 708 C145 708 69 609 54 500 C43 420 43 281 54 200 C71 71 157 -8 277 -8 C397 -8 483 71 500 200 C511 281 511 420 500 500 C485 609 409 708 277 708 L277 708 Z M259 895 C244 895 238 886 233 879 L157 770 C152 763 158 750 171 750 L190 750 C208 750 214 756 220 762 L328 874 C334 880 330 895 317 895 L259 895 Z M416 895 C401 895 395 886 390 879 L314 770 C309 763 315 750 328 750 L347 750 C365 750 371 756 377 762 L485 874 C491 880 487 895 474 895 L416 895 Z " />
<glyph glyph-name="ohungarumlaut" unicode="&#x151;" horiz-adv-x="500" d="M106 320 C111 373 147 451 247 451 C347 451 383 373 388 320 C392 279 392 221 388 180 C383 127 347 49 247 49 C147 49 111 127 106 180 C102 221 102 279 106 320 L106 320 Z M45 180 C53 75 127 -10 247 -10 C367 -10 441 75 449 180 C452 220 452 280 449 320 C441 425 367 510 247 510 C127 510 53 425 45 320 C42 280 42 220 45 180 L45 180 Z M225 730 C210 730 204 721 199 714 L123 605 C118 598 124 585 137 585 L156 585 C174 585 180 591 186 597 L294 709 C300 715 296 730 283 730 L225 730 Z M382 730 C367 730 361 721 356 714 L280 605 C275 598 281 585 294 585 L313 585 C331 585 337 591 343 597 L451 709 C457 715 453 730 440 730 L382 730 Z " />
<glyph glyph-name="OE" unicode="&#x152;" horiz-adv-x="849" d="M444 20 C444 9 453 0 464 0 L779 0 C790 0 799 9 799 20 L799 44 C799 55 790 64 779 64 L518 64 C512 64 508 68 508 74 L508 318 C508 323 513 326 518 326 L766 326 C777 326 786 335 786 346 L786 369 C786 380 777 389 766 389 L518 389 C512 389 508 393 508 399 L508 626 C508 632 512 636 518 636 L777 636 C788 636 797 645 797 656 L797 680 C797 691 788 700 777 700 L464 700 C453 700 444 691 444 680 L444 660 C444 643 432 644 426 650 C389 685 339 708 277 708 C145 708 69 609 54 500 C43 420 43 281 54 200 C71 71 157 -8 277 -8 C336 -8 388 10 426 46 C432 52 444 53 444 36 L444 20 Z M277 644 C372 644 422 573 433 500 C445 418 445 282 433 200 C425 142 385 56 277 56 C169 56 129 142 121 200 C109 282 109 418 121 500 C132 573 182 644 277 644 L277 644 Z " />
<glyph glyph-name="oe" unicode="&#x153;" horiz-adv-x="841" d="M106 320 C111 373 147 451 247 451 C347 451 383 373 388 320 C392 279 392 221 388 180 C383 127 347 49 247 49 C147 49 111 127 106 180 C102 221 102 279 106 320 L106 320 Z M600 451 C682 451 744 394 744 292 C744 286 740 282 734 282 L464 282 C458 282 454 286 454 292 C454 394 511 451 600 451 L600 451 Z M441 59 C475 16 531 -10 599 -10 C703 -10 781 53 793 140 C795 154 786 160 776 160 L756 160 C747 160 737 156 733 143 C718 96 676 49 599 49 C496 49 452 120 452 216 C452 222 456 226 462 226 L779 226 C790 226 799 235 799 246 L799 310 C799 420 711 510 599 510 C531 510 476 483 441 440 C432 429 412 428 403 440 C369 484 314 510 247 510 C127 510 53 425 45 320 C42 280 42 220 45 180 C53 75 127 -10 247 -10 C314 -10 369 16 403 59 C412 71 432 71 441 59 L441 59 Z " />
<glyph glyph-name="Racute" unicode="&#x154;" horiz-adv-x="509" d="M248 280 C259 280 264 274 267 268 L395 20 C401 8 408 0 424 0 L446 0 C466 0 473 15 465 30 L339 268 C331 283 334 292 346 300 C418 345 465 400 465 490 C465 606 371 700 255 700 L85 700 C74 700 65 691 65 680 L65 20 C65 9 74 0 85 0 L109 0 C120 0 129 9 129 20 L129 270 C129 276 133 280 139 280 L248 280 Z M255 636 C335 636 401 570 401 490 C401 410 335 344 255 344 L139 344 C133 344 129 348 129 354 L129 626 C129 632 133 636 139 636 L255 636 Z M291 895 C276 895 270 886 265 879 L189 770 C184 763 190 750 203 750 L222 750 C240 750 246 756 252 762 L360 874 C366 880 362 895 349 895 L291 895 Z " />
<glyph glyph-name="racute" unicode="&#x155;" horiz-adv-x="328" d="M278 442 C289 442 298 451 298 462 L298 480 C298 491 289 500 278 500 L276 500 C165 500 157 445 131 445 C116 445 116 467 113 480 C110 494 104 500 93 500 L80 500 C69 500 60 491 60 480 L60 20 C60 9 69 0 80 0 L99 0 C110 0 119 9 119 20 L119 270 C119 405 201 442 275 442 L278 442 Z M223 730 C208 730 202 721 197 714 L121 605 C116 598 122 585 135 585 L154 585 C172 585 178 591 184 597 L292 709 C298 715 294 730 281 730 L223 730 Z " />
<glyph glyph-name="Rcommaaccent" unicode="&#x156;" horiz-adv-x="509" d="M248 280 C259 280 264 274 267 268 L395 20 C401 8 408 0 424 0 L446 0 C466 0 473 15 465 30 L339 268 C331 283 334 292 346 300 C418 345 465 400 465 490 C465 606 371 700 255 700 L85 700 C74 700 65 691 65 680 L65 20 C65 9 74 0 85 0 L109 0 C120 0 129 9 129 20 L129 270 C129 276 133 280 139 280 L248 280 Z M255 636 C335 636 401 570 401 490 C401 410 335 344 255 344 L139 344 C133 344 129 348 129 354 L129 626 C129 632 133 636 139 636 L255 636 Z M217 -240 L227 -240 C245 -240 251 -229 256 -222 L281 -186 C289 -174 297 -163 297 -135 L297 -65 C297 -54 288 -45 277 -45 L217 -45 C206 -45 197 -54 197 -65 L197 -130 C197 -141 206 -150 217 -150 L222 -150 C230 -150 234 -158 230 -165 L202 -216 C196 -228 205 -240 217 -240 L217 -240 Z " />
<glyph glyph-name="rcommaaccent" unicode="&#x157;" horiz-adv-x="328" d="M278 442 C289 442 298 451 298 462 L298 480 C298 491 289 500 278 500 L276 500 C165 500 157 445 131 445 C116 445 116 467 113 480 C110 494 104 500 93 500 L80 500 C69 500 60 491 60 480 L60 20 C60 9 69 0 80 0 L99 0 C110 0 119 9 119 20 L119 270 C119 405 201 442 275 442 L278 442 Z M64 -240 L74 -240 C92 -240 98 -229 103 -222 L128 -186 C136 -174 144 -163 144 -135 L144 -65 C144 -54 135 -45 124 -45 L64 -45 C53 -45 44 -54 44 -65 L44 -130 C44 -141 53 -150 64 -150 L69 -150 C77 -150 81 -158 77 -165 L49 -216 C43 -228 52 -240 64 -240 L64 -240 Z " />
<glyph glyph-name="Rcaron" unicode="&#x158;" horiz-adv-x="509" d="M248 280 C259 280 264 274 267 268 L395 20 C401 8 408 0 424 0 L446 0 C466 0 473 15 465 30 L339 268 C331 283 334 292 346 300 C418 345 465 400 465 490 C465 606 371 700 255 700 L85 700 C74 700 65 691 65 680 L65 20 C65 9 74 0 85 0 L109 0 C120 0 129 9 129 20 L129 270 C129 276 133 280 139 280 L248 280 Z M255 636 C335 636 401 570 401 490 C401 410 335 344 255 344 L139 344 C133 344 129 348 129 354 L129 626 C129 632 133 636 139 636 L255 636 Z M178 880 C172 886 162 896 147 896 L104 896 C91 896 87 881 93 875 L211 763 C217 757 223 751 241 751 L263 751 C280 751 286 757 292 763 L410 875 C416 881 412 896 399 896 L357 896 C342 896 332 886 326 880 L258 815 C253 810 249 810 244 815 L178 880 Z " />
<glyph glyph-name="rcaron" unicode="&#x159;" horiz-adv-x="328" d="M278 442 C289 442 298 451 298 462 L298 480 C298 491 289 500 278 500 L276 500 C165 500 157 445 131 445 C116 445 116 467 113 480 C110 494 104 500 93 500 L80 500 C69 500 60 491 60 480 L60 20 C60 9 69 0 80 0 L99 0 C110 0 119 9 119 20 L119 270 C119 405 201 442 275 442 L278 442 Z M115 714 C109 720 99 730 84 730 L41 730 C28 730 24 715 30 709 L148 597 C154 591 160 585 178 585 L200 585 C217 585 223 591 229 597 L347 709 C353 715 349 730 336 730 L294 730 C279 730 269 720 263 714 L195 649 C190 644 186 644 181 649 L115 714 Z " />
<glyph glyph-name="Sacute" unicode="&#x15a;" horiz-adv-x="500" d="M400 200 C400 115 341 56 250 56 C151 56 100 130 100 200 L100 216 C100 227 91 236 80 236 L55 236 C44 236 35 227 35 216 L35 200 C35 86 121 -8 250 -8 C363 -8 465 69 465 200 C465 323 390 367 282 400 C213 421 119 430 119 520 C119 582 161 644 250 644 C325 644 381 592 381 520 L381 507 C381 496 390 487 401 487 L425 487 C436 487 445 496 445 507 L445 520 C445 623 368 708 250 708 C147 708 54 640 54 520 C54 403 149 365 222 348 C336 321 400 291 400 200 L400 200 Z M316 895 C301 895 295 886 290 879 L214 770 C209 763 215 750 228 750 L247 750 C265 750 271 756 277 762 L385 874 C391 880 387 895 374 895 L316 895 Z " />
<glyph glyph-name="sacute" unicode="&#x15b;" horiz-adv-x="449" d="M398 361 C398 454 315 510 225 510 C134 510 49 450 49 372 C49 280 132 250 220 237 C281 228 358 208 358 145 C358 91 307 48 225 48 C151 48 91 90 91 150 L91 163 C91 174 82 183 71 183 L52 183 C41 183 32 174 32 163 L32 150 C32 50 125 -10 225 -10 C341 -10 417 61 417 145 C417 255 304 282 220 297 C171 306 109 317 109 372 C109 414 155 454 225 454 C295 454 339 410 339 361 C339 346 348 340 359 340 L378 340 C389 340 398 346 398 361 L398 361 Z M284 730 C269 730 263 721 258 714 L182 605 C177 598 183 585 196 585 L215 585 C233 585 239 591 245 597 L353 709 C359 715 355 730 342 730 L284 730 Z " />
<glyph glyph-name="Scircumflex" unicode="&#x15c;" horiz-adv-x="500" d="M400 200 C400 115 341 56 250 56 C151 56 100 130 100 200 L100 216 C100 227 91 236 80 236 L55 236 C44 236 35 227 35 216 L35 200 C35 86 121 -8 250 -8 C363 -8 465 69 465 200 C465 323 390 367 282 400 C213 421 119 430 119 520 C119 582 161 644 250 644 C325 644 381 592 381 520 L381 507 C381 496 390 487 401 487 L425 487 C436 487 445 496 445 507 L445 520 C445 623 368 708 250 708 C147 708 54 640 54 520 C54 403 149 365 222 348 C336 321 400 291 400 200 L400 200 Z M247 832 C252 837 256 837 261 832 L328 767 C334 761 344 751 359 751 L402 751 C415 751 419 766 413 772 L295 884 C289 890 283 896 266 896 L244 896 C226 896 220 890 214 884 L96 772 C90 766 94 751 107 751 L150 751 C165 751 175 761 181 767 L247 832 Z " />
<glyph glyph-name="scircumflex" unicode="&#x15d;" horiz-adv-x="449" d="M398 361 C398 454 315 510 225 510 C134 510 49 450 49 372 C49 280 132 250 220 237 C281 228 358 208 358 145 C358 91 307 48 225 48 C151 48 91 90 91 150 L91 163 C91 174 82 183 71 183 L52 183 C41 183 32 174 32 163 L32 150 C32 50 125 -10 225 -10 C341 -10 417 61 417 145 C417 255 304 282 220 297 C171 306 109 317 109 372 C109 414 155 454 225 454 C295 454 339 410 339 361 C339 346 348 340 359 340 L378 340 C389 340 398 346 398 361 L398 361 Z M222 666 C227 671 231 671 236 666 L303 601 C309 595 319 585 334 585 L377 585 C390 585 394 600 388 606 L270 718 C264 724 258 730 241 730 L219 730 C201 730 195 724 189 718 L71 606 C65 600 69 585 82 585 L125 585 C140 585 150 595 156 601 L222 666 Z " />
<glyph glyph-name="Scedilla" unicode="&#x15e;" horiz-adv-x="500" d="M400 200 C400 115 341 56 250 56 C151 56 100 130 100 200 L100 216 C100 227 91 236 80 236 L55 236 C44 236 35 227 35 216 L35 200 C35 86 121 -8 250 -8 C363 -8 465 69 465 200 C465 323 390 367 282 400 C213 421 119 430 119 520 C119 582 161 644 250 644 C325 644 381 592 381 520 L381 507 C381 496 390 487 401 487 L425 487 C436 487 445 496 445 507 L445 520 C445 623 368 708 250 708 C147 708 54 640 54 520 C54 403 149 365 222 348 C336 321 400 291 400 200 L400 200 Z M261 -45 C252 -45 245 -50 242 -61 L204 -182 C201 -191 207 -200 220 -200 L257 -200 C266 -200 273 -195 276 -184 L304 -63 C306 -54 301 -45 288 -45 L261 -45 Z " />
<glyph glyph-name="scedilla" unicode="&#x15f;" horiz-adv-x="449" d="M398 361 C398 454 315 510 225 510 C134 510 49 450 49 372 C49 280 132 250 220 237 C281 228 358 208 358 145 C358 91 307 48 225 48 C151 48 91 90 91 150 L91 163 C91 174 82 183 71 183 L52 183 C41 183 32 174 32 163 L32 150 C32 50 125 -10 225 -10 C341 -10 417 61 417 145 C417 255 304 282 220 297 C171 306 109 317 109 372 C109 414 155 454 225 454 C295 454 339 410 339 361 C339 346 348 340 359 340 L378 340 C389 340 398 346 398 361 L398 361 Z M231 -45 C222 -45 215 -50 212 -61 L174 -182 C171 -191 177 -200 190 -200 L227 -200 C236 -200 243 -195 246 -184 L274 -63 C276 -54 271 -45 258 -45 L231 -45 Z " />
<glyph glyph-name="Scaron" unicode="&#x160;" horiz-adv-x="500" d="M400 200 C400 115 341 56 250 56 C151 56 100 130 100 200 L100 216 C100 227 91 236 80 236 L55 236 C44 236 35 227 35 216 L35 200 C35 86 121 -8 250 -8 C363 -8 465 69 465 200 C465 323 390 367 282 400 C213 421 119 430 119 520 C119 582 161 644 250 644 C325 644 381 592 381 520 L381 507 C381 496 390 487 401 487 L425 487 C436 487 445 496 445 507 L445 520 C445 623 368 708 250 708 C147 708 54 640 54 520 C54 403 149 365 222 348 C336 321 400 291 400 200 L400 200 Z M193 880 C187 886 177 896 162 896 L119 896 C106 896 102 881 108 875 L226 763 C232 757 238 751 256 751 L278 751 C295 751 301 757 307 763 L425 875 C431 881 427 896 414 896 L372 896 C357 896 347 886 341 880 L273 815 C268 810 264 810 259 815 L193 880 Z " />
<glyph glyph-name="scaron" unicode="&#x161;" horiz-adv-x="449" d="M398 361 C398 454 315 510 225 510 C134 510 49 450 49 372 C49 280 132 250 220 237 C281 228 358 208 358 145 C358 91 307 48 225 48 C151 48 91 90 91 150 L91 163 C91 174 82 183 71 183 L52 183 C41 183 32 174 32 163 L32 150 C32 50 125 -10 225 -10 C341 -10 417 61 417 145 C417 255 304 282 220 297 C171 306 109 317 109 372 C109 414 155 454 225 454 C295 454 339 410 339 361 C339 346 348 340 359 340 L378 340 C389 340 398 346 398 361 L398 361 Z M156 714 C150 720 140 730 125 730 L82 730 C69 730 65 715 71 709 L189 597 C195 591 201 585 219 585 L241 585 C258 585 264 591 270 597 L388 709 C394 715 390 730 377 730 L335 730 C320 730 310 720 304 714 L236 649 C231 644 227 644 222 649 L156 714 Z " />
<glyph glyph-name="Tcommaaccent" unicode="&#x162;" horiz-adv-x="424" d="M255 636 L402 636 C413 636 422 645 422 656 L422 680 C422 691 413 700 402 700 L22 700 C11 700 2 691 2 680 L2 656 C2 645 11 636 22 636 L170 636 C176 636 180 632 180 626 L180 20 C180 9 189 0 200 0 L225 0 C236 0 245 9 245 20 L245 626 C245 632 249 636 255 636 L255 636 Z M171 -240 L181 -240 C199 -240 205 -229 210 -222 L235 -186 C243 -174 251 -163 251 -135 L251 -65 C251 -54 242 -45 231 -45 L171 -45 C160 -45 151 -54 151 -65 L151 -130 C151 -141 160 -150 171 -150 L176 -150 C184 -150 188 -158 184 -165 L156 -216 C150 -228 159 -240 171 -240 L171 -240 Z " />
<glyph glyph-name="tcommaaccent" unicode="&#x163;" horiz-adv-x="360" d="M186 495 C180 495 176 499 176 505 L176 660 C176 671 167 680 156 680 L136 680 C125 680 116 671 116 660 L116 505 C116 499 112 495 106 495 L25 495 C14 495 5 486 5 475 L5 456 C5 445 14 436 25 436 L106 436 C112 436 116 432 116 426 L116 160 C116 45 167 0 271 0 L322 0 C333 0 342 9 342 20 L342 36 C342 47 333 56 322 56 L271 56 C200 56 176 90 176 160 L176 426 C176 432 180 436 186 436 L312 436 C323 436 332 445 332 456 L332 475 C332 486 323 495 312 495 L186 495 Z M157 -240 L167 -240 C185 -240 191 -229 196 -222 L221 -186 C229 -174 237 -163 237 -135 L237 -65 C237 -54 228 -45 217 -45 L157 -45 C146 -45 137 -54 137 -65 L137 -130 C137 -141 146 -150 157 -150 L162 -150 C170 -150 174 -158 170 -165 L142 -216 C136 -228 145 -240 157 -240 L157 -240 Z " />
<glyph glyph-name="Tcaron" unicode="&#x164;" horiz-adv-x="424" d="M255 636 L402 636 C413 636 422 645 422 656 L422 680 C422 691 413 700 402 700 L22 700 C11 700 2 691 2 680 L2 656 C2 645 11 636 22 636 L170 636 C176 636 180 632 180 626 L180 20 C180 9 189 0 200 0 L225 0 C236 0 245 9 245 20 L245 626 C245 632 249 636 255 636 L255 636 Z M140 880 C134 886 124 896 109 896 L66 896 C53 896 49 881 55 875 L173 763 C179 757 185 751 203 751 L225 751 C242 751 248 757 254 763 L372 875 C378 881 374 896 361 896 L319 896 C304 896 294 886 288 880 L220 815 C215 810 211 810 206 815 L140 880 Z " />
<glyph glyph-name="tcaron" unicode="&#x165;" horiz-adv-x="458" d="M186 495 C180 495 176 499 176 505 L176 660 C176 671 167 680 156 680 L136 680 C125 680 116 671 116 660 L116 505 C116 499 112 495 106 495 L25 495 C14 495 5 486 5 475 L5 456 C5 445 14 436 25 436 L106 436 C112 436 116 432 116 426 L116 160 C116 45 167 0 271 0 L322 0 C333 0 342 9 342 20 L342 36 C342 47 333 56 322 56 L271 56 C200 56 176 90 176 160 L176 426 C176 432 180 436 186 436 L312 436 C323 436 332 445 332 456 L332 475 C332 486 323 495 312 495 L186 495 Z M345 505 L355 505 C373 505 379 516 384 523 L409 559 C417 571 425 582 425 610 L425 680 C425 691 416 700 405 700 L345 700 C334 700 325 691 325 680 L325 615 C325 604 334 595 345 595 L350 595 C358 595 362 587 358 580 L330 529 C324 517 333 505 345 505 L345 505 Z " />
<glyph glyph-name="Tbar" unicode="&#x166;" horiz-adv-x="424" d="M180 20 C180 9 189 0 200 0 L225 0 C236 0 245 9 245 20 L245 430 C245 436 249 440 255 440 L382 440 C393 440 402 449 402 460 L402 480 C402 491 393 500 382 500 L255 500 C249 500 245 504 245 510 L245 626 C245 632 249 636 255 636 L402 636 C413 636 422 645 422 656 L422 680 C422 691 413 700 402 700 L22 700 C11 700 2 691 2 680 L2 656 C2 645 11 636 22 636 L170 636 C176 636 180 632 180 626 L180 510 C180 504 176 500 170 500 L42 500 C31 500 22 491 22 480 L22 460 C22 449 31 440 42 440 L170 440 C176 440 180 436 180 430 L180 20 Z " />
<glyph glyph-name="tbar" unicode="&#x167;" horiz-adv-x="370" d="M121 160 C121 45 172 0 276 0 L327 0 C338 0 347 9 347 20 L347 36 C347 47 338 56 327 56 L276 56 C205 56 181 90 181 160 L181 241 C181 247 185 251 191 251 L311 251 C322 251 331 260 331 271 L331 291 C331 302 322 311 311 311 L191 311 C185 311 181 314 181 321 L181 426 C181 432 185 436 191 436 L317 436 C328 436 337 445 337 456 L337 475 C337 486 328 495 317 495 L191 495 C185 495 181 499 181 505 L181 660 C181 671 172 680 161 680 L141 680 C130 680 121 671 121 660 L121 505 C121 499 117 495 111 495 L30 495 C19 495 10 486 10 475 L10 456 C10 445 19 436 30 436 L111 436 C117 436 121 432 121 426 L121 321 C121 315 117 311 111 311 L36 311 C25 311 16 302 16 291 L16 271 C16 260 25 251 36 251 L111 251 C116 251 121 248 121 243 L121 160 Z " />
<glyph glyph-name="Utilde" unicode="&#x168;" horiz-adv-x="538" d="M484 680 C484 691 475 700 464 700 L440 700 C429 700 420 691 420 680 L420 207 C420 127 354 56 269 56 C184 56 118 127 118 207 L118 680 C118 691 109 700 98 700 L74 700 C63 700 54 691 54 680 L54 207 C54 88 150 -8 269 -8 C388 -8 484 88 484 207 L484 680 Z M345 832 C277 832 269 857 205 857 C165 857 134 832 134 806 L134 782 C134 763 151 759 159 768 C170 781 183 789 205 789 C273 789 281 764 345 764 C385 764 416 789 416 815 L416 839 C416 858 399 863 391 853 C383 843 370 832 345 832 L345 832 Z " />
<glyph glyph-name="utilde" unicode="&#x169;" horiz-adv-x="477" d="M55 164 C55 50 129 -10 234 -10 C308 -10 324 23 353 23 C365 23 371 14 377 7 C381 3 385 0 391 0 L407 0 C418 0 427 9 427 20 L427 480 C427 491 418 500 407 500 L388 500 C377 500 368 491 368 480 L368 159 C368 97 313 49 241 49 C169 49 114 80 114 164 L114 480 C114 491 105 500 94 500 L75 500 C64 500 55 491 55 480 L55 164 Z M327 676 C259 676 251 701 187 701 C147 701 116 676 116 650 L116 626 C116 607 133 603 141 612 C152 625 165 633 187 633 C255 633 263 608 327 608 C367 608 398 633 398 659 L398 683 C398 702 381 707 373 697 C365 687 352 676 327 676 L327 676 Z " />
<glyph glyph-name="Umacron" unicode="&#x16a;" horiz-adv-x="538" d="M484 680 C484 691 475 700 464 700 L440 700 C429 700 420 691 420 680 L420 207 C420 127 354 56 269 56 C184 56 118 127 118 207 L118 680 C118 691 109 700 98 700 L74 700 C63 700 54 691 54 680 L54 207 C54 88 150 -8 269 -8 C388 -8 484 88 484 207 L484 680 Z M152 825 C141 825 132 816 132 805 L132 785 C132 774 141 765 152 765 L394 765 C405 765 414 774 414 785 L414 805 C414 816 405 825 394 825 L152 825 Z " />
<glyph glyph-name="umacron" unicode="&#x16b;" horiz-adv-x="477" d="M55 164 C55 50 129 -10 234 -10 C308 -10 324 23 353 23 C365 23 371 14 377 7 C381 3 385 0 391 0 L407 0 C418 0 427 9 427 20 L427 480 C427 491 418 500 407 500 L388 500 C377 500 368 491 368 480 L368 159 C368 97 313 49 241 49 C169 49 114 80 114 164 L114 480 C114 491 105 500 94 500 L75 500 C64 500 55 491 55 480 L55 164 Z M126 694 C115 694 106 685 106 674 L106 654 C106 643 115 634 126 634 L368 634 C379 634 388 643 388 654 L388 674 C388 685 379 694 368 694 L126 694 Z " />
<glyph glyph-name="Ubreve" unicode="&#x16c;" horiz-adv-x="538" d="M484 680 C484 691 475 700 464 700 L440 700 C429 700 420 691 420 680 L420 207 C420 127 354 56 269 56 C184 56 118 127 118 207 L118 680 C118 691 109 700 98 700 L74 700 C63 700 54 691 54 680 L54 207 C54 88 150 -8 269 -8 C388 -8 484 88 484 207 L484 680 Z M358 878 C358 832 324 802 278 802 C232 802 197 832 197 878 C197 887 190 895 180 895 L157 895 C148 895 140 887 140 878 C140 807 197 750 278 750 C358 750 415 807 415 878 C415 887 407 895 398 895 L375 895 C365 895 358 887 358 878 L358 878 Z " />
<glyph glyph-name="ubreve" unicode="&#x16d;" horiz-adv-x="477" d="M55 164 C55 50 129 -10 234 -10 C308 -10 324 23 353 23 C365 23 371 14 377 7 C381 3 385 0 391 0 L407 0 C418 0 427 9 427 20 L427 480 C427 491 418 500 407 500 L388 500 C377 500 368 491 368 480 L368 159 C368 97 313 49 241 49 C169 49 114 80 114 164 L114 480 C114 491 105 500 94 500 L75 500 C64 500 55 491 55 480 L55 164 Z M338 713 C338 667 304 637 258 637 C212 637 177 667 177 713 C177 722 170 730 160 730 L137 730 C128 730 120 722 120 713 C120 642 177 585 258 585 C338 585 395 642 395 713 C395 722 387 730 378 730 L355 730 C345 730 338 722 338 713 L338 713 Z " />
<glyph glyph-name="Uring" unicode="&#x16e;" horiz-adv-x="538" d="M484 680 C484 691 475 700 464 700 L440 700 C429 700 420 691 420 680 L420 207 C420 127 354 56 269 56 C184 56 118 127 118 207 L118 680 C118 691 109 700 98 700 L74 700 C63 700 54 691 54 680 L54 207 C54 88 150 -8 269 -8 C388 -8 484 88 484 207 L484 680 Z M159 840 C159 779 208 730 269 730 C330 730 379 779 379 840 C379 901 330 950 269 950 C208 950 159 901 159 840 L159 840 Z M213 840 C213 872 238 895 269 895 C301 895 324 872 324 840 C324 809 301 784 269 784 C238 784 213 809 213 840 L213 840 Z " />
<glyph glyph-name="uring" unicode="&#x16f;" horiz-adv-x="477" d="M55 164 C55 50 129 -10 234 -10 C308 -10 324 23 353 23 C365 23 371 14 377 7 C381 3 385 0 391 0 L407 0 C418 0 427 9 427 20 L427 480 C427 491 418 500 407 500 L388 500 C377 500 368 491 368 480 L368 159 C368 97 313 49 241 49 C169 49 114 80 114 164 L114 480 C114 491 105 500 94 500 L75 500 C64 500 55 491 55 480 L55 164 Z M127 670 C127 609 176 560 237 560 C298 560 347 609 347 670 C347 731 298 780 237 780 C176 780 127 731 127 670 L127 670 Z M181 670 C181 702 206 725 237 725 C269 725 292 702 292 670 C292 639 269 614 237 614 C206 614 181 639 181 670 L181 670 Z " />
<glyph glyph-name="Uhungarumlaut" unicode="&#x170;" horiz-adv-x="538" d="M484 680 C484 691 475 700 464 700 L440 700 C429 700 420 691 420 680 L420 207 C420 127 354 56 269 56 C184 56 118 127 118 207 L118 680 C118 691 109 700 98 700 L74 700 C63 700 54 691 54 680 L54 207 C54 88 150 -8 269 -8 C388 -8 484 88 484 207 L484 680 Z M239 895 C224 895 218 886 213 879 L137 770 C132 763 138 750 151 750 L170 750 C188 750 194 756 200 762 L308 874 C314 880 310 895 297 895 L239 895 Z M396 895 C381 895 375 886 370 879 L294 770 C289 763 295 750 308 750 L327 750 C345 750 351 756 357 762 L465 874 C471 880 467 895 454 895 L396 895 Z " />
<glyph glyph-name="uhungarumlaut" unicode="&#x171;" horiz-adv-x="477" d="M55 164 C55 50 129 -10 234 -10 C308 -10 324 23 353 23 C365 23 371 14 377 7 C381 3 385 0 391 0 L407 0 C418 0 427 9 427 20 L427 480 C427 491 418 500 407 500 L388 500 C377 500 368 491 368 480 L368 159 C368 97 313 49 241 49 C169 49 114 80 114 164 L114 480 C114 491 105 500 94 500 L75 500 C64 500 55 491 55 480 L55 164 Z M214 730 C199 730 193 721 188 714 L112 605 C107 598 113 585 126 585 L145 585 C163 585 169 591 175 597 L283 709 C289 715 285 730 272 730 L214 730 Z M371 730 C356 730 350 721 345 714 L269 605 C264 598 270 585 283 585 L302 585 C320 585 326 591 332 597 L440 709 C446 715 442 730 429 730 L371 730 Z " />
<glyph glyph-name="Uogonek" unicode="&#x172;" horiz-adv-x="538" d="M118 680 C118 691 109 700 98 700 L74 700 C63 700 54 691 54 680 L54 207 C54 88 150 -8 269 -8 C281 -8 293 -7 304 -5 C289 -25 280 -50 280 -81 C280 -171 348 -210 444 -210 C455 -210 464 -201 464 -190 L464 -170 C464 -159 455 -150 444 -150 C381 -150 340 -129 340 -76 C340 -16 401 30 432 67 C463 105 484 153 484 207 L484 680 C484 691 475 700 464 700 L440 700 C429 700 420 691 420 680 L420 207 C420 127 354 56 269 56 C184 56 118 127 118 207 L118 680 Z " />
<glyph glyph-name="uogonek" unicode="&#x173;" horiz-adv-x="477" d="M407 0 C418 0 427 9 427 20 L427 480 C427 491 418 500 407 500 L388 500 C377 500 368 491 368 480 L368 159 C368 97 313 49 241 49 C169 49 114 80 114 164 L114 480 C114 491 105 500 94 500 L75 500 C64 500 55 491 55 480 L55 164 C55 50 129 -10 234 -10 C246 -10 256 -9 266 -7 C249 -26 238 -50 238 -81 C238 -171 306 -210 402 -210 C413 -210 422 -201 422 -190 L422 -170 C422 -159 413 -150 402 -150 C339 -150 298 -129 298 -76 C298 -24 340 0 407 0 L407 0 Z " />
<glyph glyph-name="Wcircumflex" unicode="&#x174;" horiz-adv-x="693" d="M236 15 L335 549 C336 554 342 554 343 549 L448 15 C450 5 458 0 467 0 L523 0 C532 0 540 5 542 15 L687 680 C689 690 683 700 667 700 L643 700 C634 700 626 696 624 685 L502 113 C501 109 499 107 496 107 L494 107 C491 107 489 109 488 113 L374 685 C372 695 364 700 355 700 L321 700 C312 700 304 695 302 685 L196 113 C195 109 193 107 190 107 L188 107 C185 107 183 109 182 113 L69 685 C67 696 59 700 50 700 L26 700 C10 700 4 690 6 680 L142 15 C144 5 152 0 161 0 L217 0 C226 0 234 5 236 15 L236 15 Z M332 832 C337 837 341 837 346 832 L413 767 C419 761 429 751 444 751 L487 751 C500 751 504 766 498 772 L380 884 C374 890 368 896 351 896 L329 896 C311 896 305 890 299 884 L181 772 C175 766 179 751 192 751 L235 751 C250 751 260 761 266 767 L332 832 Z " />
<glyph glyph-name="wcircumflex" unicode="&#x175;" horiz-adv-x="636" d="M74 485 C71 496 64 500 55 500 L35 500 C19 500 13 487 16 477 L152 15 C155 5 162 0 171 0 L194 0 C203 0 210 5 213 15 L314 396 C315 400 321 400 322 396 L423 15 C426 5 433 0 442 0 L465 0 C474 0 481 5 484 15 L620 477 C623 487 617 500 601 500 L581 500 C572 500 565 496 562 485 L462 126 C460 118 451 118 449 126 L353 485 C350 496 343 500 334 500 L302 500 C293 500 286 496 283 485 L187 126 C185 118 176 118 174 126 L74 485 Z M310 666 C315 671 319 671 324 666 L391 601 C397 595 407 585 422 585 L465 585 C478 585 482 600 476 606 L358 718 C352 724 346 730 329 730 L307 730 C289 730 283 724 277 718 L159 606 C153 600 157 585 170 585 L213 585 C228 585 238 595 244 601 L310 666 Z " />
<glyph glyph-name="Ycircumflex" unicode="&#x176;" horiz-adv-x="442" d="M79 685 C75 696 69 700 60 700 L28 700 C15 700 6 687 12 672 L189 240 L189 20 C189 9 198 0 209 0 L235 0 C246 0 255 9 255 20 L255 241 L430 672 C436 687 427 700 414 700 L382 700 C373 700 367 696 363 685 L226 328 C224 323 220 323 218 328 L79 685 Z M217 832 C222 837 226 837 231 832 L298 767 C304 761 314 751 329 751 L372 751 C385 751 389 766 383 772 L265 884 C259 890 253 896 236 896 L214 896 C196 896 190 890 184 884 L66 772 C60 766 64 751 77 751 L120 751 C135 751 145 761 151 767 L217 832 Z " />
<glyph glyph-name="ycircumflex" unicode="&#x177;" horiz-adv-x="462" d="M73 485 C69 496 63 500 54 500 L26 500 C10 500 3 487 7 477 L196 37 C198 32 197 29 195 24 L121 -177 C117 -187 124 -200 140 -200 L162 -200 C171 -200 177 -196 181 -185 L435 477 C439 487 432 500 416 500 L388 500 C379 500 373 496 369 485 L235 117 C233 112 229 112 227 117 L73 485 Z M223 666 C228 671 232 671 237 666 L304 601 C310 595 320 585 335 585 L378 585 C391 585 395 600 389 606 L271 718 C265 724 259 730 242 730 L220 730 C202 730 196 724 190 718 L72 606 C66 600 70 585 83 585 L126 585 C141 585 151 595 157 601 L223 666 Z " />
<glyph glyph-name="Ydieresis" unicode="&#x178;" horiz-adv-x="442" d="M79 685 C75 696 69 700 60 700 L28 700 C15 700 6 687 12 672 L189 240 L189 20 C189 9 198 0 209 0 L235 0 C246 0 255 9 255 20 L255 241 L430 672 C436 687 427 700 414 700 L382 700 C373 700 367 696 363 685 L226 328 C224 323 220 323 218 328 L79 685 Z M174 831 C174 839 167 847 158 847 L106 847 C97 847 90 839 90 831 L90 778 C90 769 97 762 106 762 L158 762 C167 762 174 769 174 778 L174 831 Z M345 831 C345 839 338 847 329 847 L277 847 C268 847 261 839 261 831 L261 778 C261 769 268 762 277 762 L329 762 C338 762 345 769 345 778 L345 831 Z " />
<glyph glyph-name="Zacute" unicode="&#x179;" horiz-adv-x="480" d="M431 620 C434 625 436 630 436 636 L436 680 C436 691 427 700 416 700 L64 700 C53 700 44 691 44 680 L44 656 C44 645 53 636 64 636 L358 636 C365 636 367 631 364 626 L39 83 C36 78 34 73 34 67 L34 20 C34 9 43 0 54 0 L426 0 C437 0 446 9 446 20 L446 45 C446 56 437 65 426 65 L116 65 C109 65 107 70 110 75 L431 620 Z M301 895 C286 895 280 886 275 879 L199 770 C194 763 200 750 213 750 L232 750 C250 750 256 756 262 762 L370 874 C376 880 372 895 359 895 L301 895 Z " />
<glyph glyph-name="zacute" unicode="&#x17a;" horiz-adv-x="470" d="M53 82 C41 68 40 64 40 51 L40 20 C40 9 49 0 60 0 L410 0 C421 0 430 9 430 20 L430 38 C430 49 421 58 410 58 L121 58 C115 58 112 63 116 68 L400 410 C409 421 420 433 420 451 L420 480 C420 491 411 500 400 500 L70 500 C59 500 50 491 50 480 L50 462 C50 451 59 442 70 442 L340 442 C346 442 349 437 345 432 L53 82 Z M285 730 C270 730 264 721 259 714 L183 605 C178 598 184 585 197 585 L216 585 C234 585 240 591 246 597 L354 709 C360 715 356 730 343 730 L285 730 Z " />
<glyph glyph-name="Zdotaccent" unicode="&#x17b;" horiz-adv-x="480" d="M431 620 C434 625 436 630 436 636 L436 680 C436 691 427 700 416 700 L64 700 C53 700 44 691 44 680 L44 656 C44 645 53 636 64 636 L358 636 C365 636 367 631 364 626 L39 83 C36 78 34 73 34 67 L34 20 C34 9 43 0 54 0 L426 0 C437 0 446 9 446 20 L446 45 C446 56 437 65 426 65 L116 65 C109 65 107 70 110 75 L431 620 Z M286 829 C286 837 279 845 270 845 L212 845 C203 845 196 837 196 829 L196 770 C196 761 203 754 212 754 L270 754 C279 754 286 761 286 770 L286 829 Z " />
<glyph glyph-name="zdotaccent" unicode="&#x17c;" horiz-adv-x="470" d="M53 82 C41 68 40 64 40 51 L40 20 C40 9 49 0 60 0 L410 0 C421 0 430 9 430 20 L430 38 C430 49 421 58 410 58 L121 58 C115 58 112 63 116 68 L400 410 C409 421 420 433 420 451 L420 480 C420 491 411 500 400 500 L70 500 C59 500 50 491 50 480 L50 462 C50 451 59 442 70 442 L340 442 C346 442 349 437 345 432 L53 82 Z M285 691 C285 699 278 707 269 707 L211 707 C202 707 195 699 195 691 L195 632 C195 623 202 616 211 616 L269 616 C278 616 285 623 285 632 L285 691 Z " />
<glyph glyph-name="Zcaron" unicode="&#x17d;" horiz-adv-x="480" d="M431 620 C434 625 436 630 436 636 L436 680 C436 691 427 700 416 700 L64 700 C53 700 44 691 44 680 L44 656 C44 645 53 636 64 636 L358 636 C365 636 367 631 364 626 L39 83 C36 78 34 73 34 67 L34 20 C34 9 43 0 54 0 L426 0 C437 0 446 9 446 20 L446 45 C446 56 437 65 426 65 L116 65 C109 65 107 70 110 75 L431 620 Z M168 880 C162 886 152 896 137 896 L94 896 C81 896 77 881 83 875 L201 763 C207 757 213 751 231 751 L253 751 C270 751 276 757 282 763 L400 875 C406 881 402 896 389 896 L347 896 C332 896 322 886 316 880 L248 815 C243 810 239 810 234 815 L168 880 Z " />
<glyph glyph-name="zcaron" unicode="&#x17e;" horiz-adv-x="470" d="M53 82 C41 68 40 64 40 51 L40 20 C40 9 49 0 60 0 L410 0 C421 0 430 9 430 20 L430 38 C430 49 421 58 410 58 L121 58 C115 58 112 63 116 68 L400 410 C409 421 420 433 420 451 L420 480 C420 491 411 500 400 500 L70 500 C59 500 50 491 50 480 L50 462 C50 451 59 442 70 442 L340 442 C346 442 349 437 345 432 L53 82 Z M166 714 C160 720 150 730 135 730 L92 730 C79 730 75 715 81 709 L199 597 C205 591 211 585 229 585 L251 585 C268 585 274 591 280 597 L398 709 C404 715 400 730 387 730 L345 730 C330 730 320 720 314 714 L246 649 C241 644 237 644 232 649 L166 714 Z " />
<glyph glyph-name="longs" unicode="&#x17f;" horiz-adv-x="322" d="M122 20 C122 9 131 0 142 0 L162 0 C173 0 182 9 182 20 L182 520 C182 590 216 651 292 651 L297 651 C308 651 317 660 317 671 L317 687 C317 698 308 707 297 707 L292 707 C192 707 122 633 122 520 L122 505 C122 499 118 495 112 495 L25 495 C14 495 5 486 5 475 L5 456 C5 445 14 436 25 436 L112 436 C118 436 122 432 122 426 L122 20 Z " />
<glyph glyph-name="florin" unicode="&#x192;" horiz-adv-x="342" d="M132 -30 C132 -112 113 -140 50 -140 L36 -140 C25 -140 17 -149 17 -160 L17 -180 C17 -191 26 -200 37 -200 L48 -200 C164 -200 192 -140 192 -30 L192 426 C192 432 196 436 202 436 L296 436 C307 436 316 445 316 456 L316 475 C316 486 307 495 296 495 L202 495 C196 495 192 499 192 505 L192 520 C192 590 226 651 302 651 L307 651 C318 651 327 660 327 671 L327 687 C327 698 318 707 307 707 L302 707 C202 707 132 633 132 520 L132 505 C132 499 128 495 122 495 L35 495 C24 495 15 486 15 475 L15 456 C15 445 24 436 35 436 L122 436 C128 436 132 432 132 426 L132 -30 Z " />
<glyph glyph-name="Aringacute" unicode="&#x1fa;" horiz-adv-x="478" d="M328 1065 C313 1065 307 1056 302 1049 L232 949 C177 943 134 897 134 840 C134 779 183 730 244 730 C305 730 354 779 354 840 C354 882 330 920 294 938 L397 1044 C403 1050 399 1065 386 1065 L328 1065 Z M188 840 C188 872 213 895 244 895 C276 895 299 872 299 840 C299 809 276 784 244 784 C213 784 188 809 188 840 L188 840 Z M327 260 L151 260 C145 260 141 263 143 271 L234 611 C235 615 236 617 238 617 L240 617 C242 617 243 615 244 611 L335 271 C337 263 333 260 327 260 L327 260 Z M410 15 C412 6 420 0 429 0 L454 0 C470 0 476 11 474 20 L283 685 C281 694 273 700 264 700 L214 700 C205 700 197 694 195 685 L4 20 C2 11 8 0 24 0 L49 0 C58 0 66 6 68 15 L117 184 C120 193 127 198 136 198 L342 198 C351 198 358 193 361 184 L410 15 Z " />
<glyph glyph-name="aringacute" unicode="&#x1fb;" horiz-adv-x="487" d="M328 895 C313 895 307 886 302 879 L232 779 C177 773 134 727 134 670 C134 609 183 560 244 560 C305 560 354 609 354 670 C354 712 330 750 294 768 L397 874 C403 880 399 895 386 895 L328 895 Z M188 670 C188 702 213 725 244 725 C276 725 299 702 299 670 C299 639 276 614 244 614 C213 614 188 639 188 670 L188 670 Z M354 241 C360 241 364 237 364 231 L364 171 C364 90 312 46 220 46 C157 46 102 80 102 151 C102 210 152 241 208 241 L354 241 Z M240 455 C310 455 361 410 361 345 L361 306 C361 300 357 296 351 296 L208 296 C103 296 43 233 43 150 C43 65 102 -10 225 -10 C299 -10 339 28 357 28 C370 28 372 15 377 7 C380 2 385 0 391 0 L400 0 C411 0 420 9 420 20 L420 344 C420 458 338 510 240 510 C155 510 66 463 66 370 C66 358 71 350 86 350 L100 350 C109 350 123 350 123 367 C123 420 180 455 240 455 L240 455 Z " />
<glyph glyph-name="AEacute" unicode="&#x1fc;" horiz-adv-x="723" d="M320 626 L320 270 C320 264 316 260 310 260 L151 260 C145 260 141 263 143 271 L239 630 C240 634 243 636 245 636 L310 636 C316 636 320 632 320 626 L320 626 Z M214 700 C205 700 197 694 195 685 L4 20 C2 11 8 0 24 0 L49 0 C58 0 66 6 68 15 L117 184 C120 193 127 198 136 198 L310 198 C316 198 320 194 320 188 L320 20 C320 9 329 0 340 0 L655 0 C666 0 675 9 675 20 L675 44 C675 55 666 64 655 64 L394 64 C388 64 384 68 384 74 L384 316 C384 322 388 326 394 326 L642 326 C653 326 662 335 662 346 L662 369 C662 380 653 389 642 389 L394 389 C388 389 384 393 384 399 L384 626 C384 632 388 636 394 636 L653 636 C664 636 673 645 673 656 L673 680 C673 691 664 700 653 700 L214 700 Z M441 895 C426 895 420 886 415 879 L339 770 C334 763 340 750 353 750 L372 750 C390 750 396 756 402 762 L510 874 C516 880 512 895 499 895 L441 895 Z " />
<glyph glyph-name="aeacute" unicode="&#x1fd;" horiz-adv-x="813" d="M364 220 L364 171 C364 90 312 46 220 46 C157 46 102 70 102 141 C102 200 152 230 208 230 L354 230 C360 230 364 226 364 220 L364 220 Z M414 442 C406 433 392 433 384 442 C347 483 298 510 240 510 C155 510 66 463 66 370 C66 358 71 350 86 350 L100 350 C109 350 123 350 123 367 C123 420 180 455 240 455 C310 455 361 410 361 345 L361 296 C361 290 357 286 351 286 L208 286 C103 286 43 223 43 140 C43 55 102 -10 225 -10 C272 -10 334 5 380 51 C392 63 408 62 419 51 C456 14 507 -10 570 -10 C674 -10 752 53 764 140 C766 154 757 160 747 160 L727 160 C718 160 708 156 704 143 C689 96 647 49 570 49 C467 49 423 124 423 220 C423 226 427 230 433 230 L750 230 C761 230 770 239 770 250 L770 310 C770 420 682 510 570 510 C503 510 450 483 414 442 L414 442 Z M571 451 C653 451 715 398 715 296 C715 290 711 286 705 286 L435 286 C429 286 425 290 425 296 C425 398 482 451 571 451 L571 451 Z M442 730 C427 730 421 721 416 714 L340 605 C335 598 341 585 354 585 L373 585 C391 585 397 591 403 597 L511 709 C517 715 513 730 500 730 L442 730 Z " />
<glyph glyph-name="Oslashacute" unicode="&#x1fe;" horiz-adv-x="524" d="M124 29 C127 35 130 33 131 32 C166 6 211 -8 262 -8 C382 -8 468 71 485 200 C496 281 496 420 485 500 C479 539 465 577 444 610 C443 612 440 614 444 621 L475 678 C481 690 474 700 461 700 L431 700 C422 700 417 695 412 685 L403 668 C399 661 395 665 393 666 C358 692 315 708 262 708 C130 708 54 609 39 500 C28 420 28 281 39 200 C45 156 58 118 79 87 C80 85 83 82 80 76 L52 24 C45 10 53 0 66 0 L95 0 C104 0 110 5 116 15 L124 29 Z M262 644 C304 644 336 630 361 608 C363 606 367 602 364 597 L125 158 C121 151 117 155 116 158 C111 172 108 187 106 200 C94 282 94 418 106 500 C117 573 167 644 262 644 L262 644 Z M262 56 C219 56 187 69 163 89 C161 90 158 93 161 98 L400 540 C404 547 406 543 407 541 C412 527 415 520 418 500 C430 418 430 282 418 200 C410 142 370 56 262 56 L262 56 Z M335 895 C320 895 314 886 309 879 L233 770 C228 763 234 750 247 750 L266 750 C284 750 290 756 296 762 L404 874 C410 880 406 895 393 895 L335 895 Z " />
<glyph glyph-name="oslashacute" unicode="&#x1ff;" horiz-adv-x="495" d="M110 32 C114 37 116 34 117 33 C150 6 194 -10 247 -10 C367 -10 441 75 449 180 C452 220 452 280 449 320 C446 355 436 388 419 416 C418 417 417 420 420 424 L460 475 C470 487 462 500 449 500 L423 500 C414 500 409 495 401 485 L385 465 C382 461 379 463 378 464 C344 493 301 510 247 510 C127 510 53 425 45 320 C42 280 42 220 45 180 C48 144 58 111 75 83 C76 81 79 79 74 73 L36 25 C26 12 32 0 45 0 L74 0 C83 0 89 5 97 15 L110 32 Z M247 451 C289 451 320 436 342 417 C343 416 345 414 342 410 L123 135 C119 130 117 135 116 137 C110 152 107 166 106 180 C102 221 102 279 106 320 C111 373 147 451 247 451 L247 451 Z M247 49 C207 49 177 61 155 79 C154 80 151 83 155 88 L371 363 C375 368 376 365 377 363 C383 348 386 334 388 320 C392 279 392 221 388 180 C383 127 347 49 247 49 L247 49 Z M304 730 C289 730 283 721 278 714 L202 605 C197 598 203 585 216 585 L235 585 C253 585 259 591 265 597 L373 709 C379 715 375 730 362 730 L304 730 Z " />
<glyph glyph-name="Scommaaccent" unicode="&#x218;" horiz-adv-x="500" d="M400 200 C400 115 341 56 250 56 C151 56 100 130 100 200 L100 216 C100 227 91 236 80 236 L55 236 C44 236 35 227 35 216 L35 200 C35 86 121 -8 250 -8 C363 -8 465 69 465 200 C465 323 390 367 282 400 C213 421 119 430 119 520 C119 582 161 644 250 644 C325 644 381 592 381 520 L381 507 C381 496 390 487 401 487 L425 487 C436 487 445 496 445 507 L445 520 C445 623 368 708 250 708 C147 708 54 640 54 520 C54 403 149 365 222 348 C336 321 400 291 400 200 L400 200 Z M219 -240 L229 -240 C247 -240 253 -229 258 -222 L283 -186 C291 -174 299 -163 299 -135 L299 -65 C299 -54 290 -45 279 -45 L219 -45 C208 -45 199 -54 199 -65 L199 -130 C199 -141 208 -150 219 -150 L224 -150 C232 -150 236 -158 232 -165 L204 -216 C198 -228 207 -240 219 -240 L219 -240 Z " />
<glyph glyph-name="scommaaccent" unicode="&#x219;" horiz-adv-x="449" d="M398 361 C398 454 315 510 225 510 C134 510 49 450 49 372 C49 280 132 250 220 237 C281 228 358 208 358 145 C358 91 307 48 225 48 C151 48 91 90 91 150 L91 163 C91 174 82 183 71 183 L52 183 C41 183 32 174 32 163 L32 150 C32 50 125 -10 225 -10 C341 -10 417 61 417 145 C417 255 304 282 220 297 C171 306 109 317 109 372 C109 414 155 454 225 454 C295 454 339 410 339 361 C339 346 348 340 359 340 L378 340 C389 340 398 346 398 361 L398 361 Z M189 -240 L199 -240 C217 -240 223 -229 228 -222 L253 -186 C261 -174 269 -163 269 -135 L269 -65 C269 -54 260 -45 249 -45 L189 -45 C178 -45 169 -54 169 -65 L169 -130 C169 -141 178 -150 189 -150 L194 -150 C202 -150 206 -158 202 -165 L174 -216 C168 -228 177 -240 189 -240 L189 -240 Z " />
<glyph glyph-name="uni021A" unicode="&#x21a;" horiz-adv-x="424" d="M255 636 L402 636 C413 636 422 645 422 656 L422 680 C422 691 413 700 402 700 L22 700 C11 700 2 691 2 680 L2 656 C2 645 11 636 22 636 L170 636 C176 636 180 632 180 626 L180 20 C180 9 189 0 200 0 L225 0 C236 0 245 9 245 20 L245 626 C245 632 249 636 255 636 L255 636 Z M171 -240 L181 -240 C199 -240 205 -229 210 -222 L235 -186 C243 -174 251 -163 251 -135 L251 -65 C251 -54 242 -45 231 -45 L171 -45 C160 -45 151 -54 151 -65 L151 -130 C151 -141 160 -150 171 -150 L176 -150 C184 -150 188 -158 184 -165 L156 -216 C150 -228 159 -240 171 -240 L171 -240 Z " />
<glyph glyph-name="uni021B" unicode="&#x21b;" horiz-adv-x="360" d="M186 495 C180 495 176 499 176 505 L176 660 C176 671 167 680 156 680 L136 680 C125 680 116 671 116 660 L116 505 C116 499 112 495 106 495 L25 495 C14 495 5 486 5 475 L5 456 C5 445 14 436 25 436 L106 436 C112 436 116 432 116 426 L116 160 C116 45 167 0 271 0 L322 0 C333 0 342 9 342 20 L342 36 C342 47 333 56 322 56 L271 56 C200 56 176 90 176 160 L176 426 C176 432 180 436 186 436 L312 436 C323 436 332 445 332 456 L332 475 C332 486 323 495 312 495 L186 495 Z M157 -240 L167 -240 C185 -240 191 -229 196 -222 L221 -186 C229 -174 237 -163 237 -135 L237 -65 C237 -54 228 -45 217 -45 L157 -45 C146 -45 137 -54 137 -65 L137 -130 C137 -141 146 -150 157 -150 L162 -150 C170 -150 174 -158 170 -165 L142 -216 C136 -228 145 -240 157 -240 L157 -240 Z " />
<glyph glyph-name="apostrophemod" unicode="&#x2bc;" horiz-adv-x="207" d="M68 480 C86 480 92 491 97 498 L137 554 C145 566 153 577 153 605 L153 680 C153 691 144 700 133 700 L63 700 C52 700 43 691 43 680 L43 610 C43 599 52 590 63 590 L73 590 C81 590 85 582 81 575 L43 504 C37 492 46 480 58 480 L68 480 Z " />
<glyph glyph-name="circumflex" unicode="&#x2c6;" horiz-adv-x="510" d="M248 666 C253 671 257 671 262 666 L329 601 C335 595 345 585 360 585 L403 585 C416 585 420 600 414 606 L296 718 C290 724 284 730 267 730 L245 730 C227 730 221 724 215 718 L97 606 C91 600 95 585 108 585 L151 585 C166 585 176 595 182 601 L248 666 Z " />
<glyph glyph-name="caron" unicode="&#x2c7;" horiz-adv-x="450" d="M152 714 C146 720 136 730 121 730 L78 730 C65 730 61 715 67 709 L185 597 C191 591 197 585 215 585 L237 585 C254 585 260 591 266 597 L384 709 C390 715 386 730 373 730 L331 730 C316 730 306 720 300 714 L232 649 C227 644 223 644 218 649 L152 714 Z " />
<glyph glyph-name="breve" unicode="&#x2d8;" horiz-adv-x="476" d="M314 713 C314 667 280 637 234 637 C188 637 153 667 153 713 C153 722 146 730 136 730 L113 730 C104 730 96 722 96 713 C96 642 153 585 234 585 C314 585 371 642 371 713 C371 722 363 730 354 730 L331 730 C321 730 314 722 314 713 L314 713 Z " />
<glyph glyph-name="dotaccent" unicode="&#x2d9;" horiz-adv-x="233" d="M155 691 C155 699 148 707 139 707 L81 707 C72 707 65 699 65 691 L65 632 C65 623 72 616 81 616 L139 616 C148 616 155 623 155 632 L155 691 Z " />
<glyph glyph-name="ring" unicode="&#x2da;" horiz-adv-x="518" d="M142 670 C142 609 191 560 252 560 C313 560 362 609 362 670 C362 731 313 780 252 780 C191 780 142 731 142 670 L142 670 Z M196 670 C196 702 221 725 252 725 C284 725 307 702 307 670 C307 639 284 614 252 614 C221 614 196 639 196 670 L196 670 Z " />
<glyph glyph-name="ogonek" unicode="&#x2db;" horiz-adv-x="318" d="M244 40 C244 51 235 60 224 60 C151 60 60 15 60 -81 C60 -171 128 -210 224 -210 C235 -210 244 -201 244 -190 L244 -170 C244 -159 235 -150 224 -150 C161 -150 120 -129 120 -76 C120 -22 167 0 224 0 C235 0 244 9 244 20 L244 40 Z " />
<glyph glyph-name="tilde" unicode="&#x2dc;" horiz-adv-x="504" d="M322 676 C254 676 246 701 182 701 C142 701 111 676 111 650 L111 626 C111 607 128 603 136 612 C147 625 160 633 182 633 C250 633 258 608 322 608 C362 608 393 633 393 659 L393 683 C393 702 376 707 368 697 C360 687 347 676 322 676 L322 676 Z " />
<glyph glyph-name="hungarumlaut" unicode="&#x2dd;" horiz-adv-x="467" d="M154 730 C139 730 133 721 128 714 L52 605 C47 598 53 585 66 585 L85 585 C103 585 109 591 115 597 L223 709 C229 715 225 730 212 730 L154 730 Z M311 730 C296 730 290 721 285 714 L209 605 C204 598 210 585 223 585 L242 585 C260 585 266 591 272 597 L380 709 C386 715 382 730 369 730 L311 730 Z " />
<glyph glyph-name="Delta" unicode="&#x394;" horiz-adv-x="676" d="M606 0 C617 0 626 9 626 20 L626 51 C626 62 621 75 619 80 L379 625 C375 635 369 640 360 640 L316 640 C307 640 301 635 297 625 L57 80 C55 75 50 62 50 51 L50 20 C50 9 59 0 70 0 L606 0 Z M128 57 C120 57 120 64 122 69 L331 562 C333 566 334 568 337 568 L339 568 C342 568 343 566 345 562 L554 69 C556 64 556 57 548 57 L128 57 Z " />
<glyph glyph-name="Omega" unicode="&#x3a9;" horiz-adv-x="683" d="M478 72 C556 126 633 252 633 382 C633 554 513 703 341 703 C169 703 50 554 50 382 C50 252 128 124 206 71 C217 64 213 50 198 50 L91 50 C80 50 71 41 71 30 L71 20 C71 9 80 0 91 0 L267 0 C278 0 287 9 287 20 L287 49 C287 58 286 79 262 95 C217 124 109 221 109 381 C109 522 197 651 341 651 C482 651 574 528 574 381 C574 218 466 124 421 95 C397 79 396 58 396 49 L396 20 C396 9 405 0 416 0 L592 0 C603 0 612 9 612 20 L612 30 C612 41 603 50 592 50 L485 50 C470 50 467 65 478 72 L478 72 Z " />
<glyph glyph-name="mu" unicode="&#x3bc;" horiz-adv-x="522" d="M62 -180 C62 -191 71 -200 82 -200 L101 -200 C112 -200 121 -191 121 -180 L121 -6 C121 3 129 15 143 15 C163 15 195 -10 241 -10 C315 -10 331 23 360 23 C372 23 378 14 384 7 C388 3 392 0 398 0 L414 0 C425 0 434 9 434 20 L434 480 C434 491 425 500 414 500 L395 500 C384 500 375 491 375 480 L375 159 C375 97 320 49 248 49 C176 49 121 80 121 164 L121 480 C121 491 112 500 101 500 L82 500 C71 500 62 491 62 480 L62 -180 Z " />
<glyph glyph-name="pi" unicode="&#x3c0;" horiz-adv-x="539" d="M495 440 C506 440 515 449 515 460 L515 480 C515 491 506 500 495 500 L35 500 C24 500 15 491 15 480 L15 460 C15 449 24 440 35 440 L95 440 C101 440 105 436 105 430 L105 20 C105 9 114 0 125 0 L145 0 C156 0 165 9 165 20 L165 430 C165 436 169 440 175 440 L332 440 C337 439 340 435 340 430 L340 170 C340 59 377 0 500 0 C511 0 520 9 520 20 L520 40 C520 51 511 60 500 60 C424 60 400 88 400 170 L400 430 C400 436 404 440 410 440 L495 440 Z " />
<glyph glyph-name="Wgrave" unicode="&#x1e80;" horiz-adv-x="693" d="M236 15 L335 549 C336 554 342 554 343 549 L448 15 C450 5 458 0 467 0 L523 0 C532 0 540 5 542 15 L687 680 C689 690 683 700 667 700 L643 700 C634 700 626 696 624 685 L502 113 C501 109 499 107 496 107 L494 107 C491 107 489 109 488 113 L374 685 C372 695 364 700 355 700 L321 700 C312 700 304 695 302 685 L196 113 C195 109 193 107 190 107 L188 107 C185 107 183 109 182 113 L69 685 C67 696 59 700 50 700 L26 700 C10 700 4 690 6 680 L142 15 C144 5 152 0 161 0 L217 0 C226 0 234 5 236 15 L236 15 Z M224 895 C211 895 207 880 213 874 L321 762 C327 756 333 750 351 750 L370 750 C383 750 389 763 384 770 L308 879 C303 886 297 895 282 895 L224 895 Z " />
<glyph glyph-name="wgrave" unicode="&#x1e81;" horiz-adv-x="636" d="M74 485 C71 496 64 500 55 500 L35 500 C19 500 13 487 16 477 L152 15 C155 5 162 0 171 0 L194 0 C203 0 210 5 213 15 L314 396 C315 400 321 400 322 396 L423 15 C426 5 433 0 442 0 L465 0 C474 0 481 5 484 15 L620 477 C623 487 617 500 601 500 L581 500 C572 500 565 496 562 485 L462 126 C460 118 451 118 449 126 L353 485 C350 496 343 500 334 500 L302 500 C293 500 286 496 283 485 L187 126 C185 118 176 118 174 126 L74 485 Z M204 730 C191 730 187 715 193 709 L301 597 C307 591 313 585 331 585 L350 585 C363 585 369 598 364 605 L288 714 C283 721 277 730 262 730 L204 730 Z " />
<glyph glyph-name="Wacute" unicode="&#x1e82;" horiz-adv-x="693" d="M236 15 L335 549 C336 554 342 554 343 549 L448 15 C450 5 458 0 467 0 L523 0 C532 0 540 5 542 15 L687 680 C689 690 683 700 667 700 L643 700 C634 700 626 696 624 685 L502 113 C501 109 499 107 496 107 L494 107 C491 107 489 109 488 113 L374 685 C372 695 364 700 355 700 L321 700 C312 700 304 695 302 685 L196 113 C195 109 193 107 190 107 L188 107 C185 107 183 109 182 113 L69 685 C67 696 59 700 50 700 L26 700 C10 700 4 690 6 680 L142 15 C144 5 152 0 161 0 L217 0 C226 0 234 5 236 15 L236 15 Z M401 895 C386 895 380 886 375 879 L299 770 C294 763 300 750 313 750 L332 750 C350 750 356 756 362 762 L470 874 C476 880 472 895 459 895 L401 895 Z " />
<glyph glyph-name="wacute" unicode="&#x1e83;" horiz-adv-x="636" d="M74 485 C71 496 64 500 55 500 L35 500 C19 500 13 487 16 477 L152 15 C155 5 162 0 171 0 L194 0 C203 0 210 5 213 15 L314 396 C315 400 321 400 322 396 L423 15 C426 5 433 0 442 0 L465 0 C474 0 481 5 484 15 L620 477 C623 487 617 500 601 500 L581 500 C572 500 565 496 562 485 L462 126 C460 118 451 118 449 126 L353 485 C350 496 343 500 334 500 L302 500 C293 500 286 496 283 485 L187 126 C185 118 176 118 174 126 L74 485 Z M379 730 C364 730 358 721 353 714 L277 605 C272 598 278 585 291 585 L310 585 C328 585 334 591 340 597 L448 709 C454 715 450 730 437 730 L379 730 Z " />
<glyph glyph-name="Wdieresis" unicode="&#x1e84;" horiz-adv-x="693" d="M236 15 L335 549 C336 554 342 554 343 549 L448 15 C450 5 458 0 467 0 L523 0 C532 0 540 5 542 15 L687 680 C689 690 683 700 667 700 L643 700 C634 700 626 696 624 685 L502 113 C501 109 499 107 496 107 L494 107 C491 107 489 109 488 113 L374 685 C372 695 364 700 355 700 L321 700 C312 700 304 695 302 685 L196 113 C195 109 193 107 190 107 L188 107 C185 107 183 109 182 113 L69 685 C67 696 59 700 50 700 L26 700 C10 700 4 690 6 680 L142 15 C144 5 152 0 161 0 L217 0 C226 0 234 5 236 15 L236 15 Z M295 831 C295 839 288 847 279 847 L227 847 C218 847 211 839 211 831 L211 778 C211 769 218 762 227 762 L279 762 C288 762 295 769 295 778 L295 831 Z M466 831 C466 839 459 847 450 847 L398 847 C389 847 382 839 382 831 L382 778 C382 769 389 762 398 762 L450 762 C459 762 466 769 466 778 L466 831 Z " />
<glyph glyph-name="wdieresis" unicode="&#x1e85;" horiz-adv-x="636" d="M74 485 C71 496 64 500 55 500 L35 500 C19 500 13 487 16 477 L152 15 C155 5 162 0 171 0 L194 0 C203 0 210 5 213 15 L314 396 C315 400 321 400 322 396 L423 15 C426 5 433 0 442 0 L465 0 C474 0 481 5 484 15 L620 477 C623 487 617 500 601 500 L581 500 C572 500 565 496 562 485 L462 126 C460 118 451 118 449 126 L353 485 C350 496 343 500 334 500 L302 500 C293 500 286 496 283 485 L187 126 C185 118 176 118 174 126 L74 485 Z M275 691 C275 699 268 707 259 707 L207 707 C198 707 191 699 191 691 L191 638 C191 629 198 622 207 622 L259 622 C268 622 275 629 275 638 L275 691 Z M446 691 C446 699 439 707 430 707 L378 707 C369 707 362 699 362 691 L362 638 C362 629 369 622 378 622 L430 622 C439 622 446 629 446 638 L446 691 Z " />
<glyph glyph-name="Ygrave" unicode="&#x1ef2;" horiz-adv-x="442" d="M79 685 C75 696 69 700 60 700 L28 700 C15 700 6 687 12 672 L189 240 L189 20 C189 9 198 0 209 0 L235 0 C246 0 255 9 255 20 L255 241 L430 672 C436 687 427 700 414 700 L382 700 C373 700 367 696 363 685 L226 328 C224 323 220 323 218 328 L79 685 Z M104 895 C91 895 87 880 93 874 L201 762 C207 756 213 750 231 750 L250 750 C263 750 269 763 264 770 L188 879 C183 886 177 895 162 895 L104 895 Z " />
<glyph glyph-name="ygrave" unicode="&#x1ef3;" horiz-adv-x="462" d="M73 485 C69 496 63 500 54 500 L26 500 C10 500 3 487 7 477 L196 37 C198 32 197 29 195 24 L121 -177 C117 -187 124 -200 140 -200 L162 -200 C171 -200 177 -196 181 -185 L435 477 C439 487 432 500 416 500 L388 500 C379 500 373 496 369 485 L235 117 C233 112 229 112 227 117 L73 485 Z M111 730 C98 730 94 715 100 709 L208 597 C214 591 220 585 238 585 L257 585 C270 585 276 598 271 605 L195 714 C190 721 184 730 169 730 L111 730 Z " />
<glyph glyph-name="endash" unicode="&#x2013;" horiz-adv-x="560" d="M90 296 C79 296 70 287 70 276 L70 246 C70 235 79 226 90 226 L470 226 C481 226 490 235 490 246 L490 276 C490 287 481 296 470 296 L90 296 Z " />
<glyph glyph-name="emdash" unicode="&#x2014;" horiz-adv-x="710" d="M90 296 C79 296 70 287 70 276 L70 246 C70 235 79 226 90 226 L620 226 C631 226 640 235 640 246 L640 276 C640 287 631 296 620 296 L90 296 Z " />
<glyph glyph-name="quoteleft" unicode="&#x2018;" horiz-adv-x="207" d="M137 700 L127 700 C109 700 103 689 98 682 L58 626 C50 614 42 603 42 575 L42 500 C42 489 51 480 62 480 L132 480 C143 480 152 489 152 500 L152 570 C152 581 143 590 132 590 L122 590 C114 590 110 598 114 605 L152 676 C158 688 149 700 137 700 L137 700 Z " />
<glyph glyph-name="quoteright" unicode="&#x2019;" horiz-adv-x="207" d="M68 480 C86 480 92 491 97 498 L137 554 C145 566 153 577 153 605 L153 680 C153 691 144 700 133 700 L63 700 C52 700 43 691 43 680 L43 610 C43 599 52 590 63 590 L73 590 C81 590 85 582 81 575 L43 504 C37 492 46 480 58 480 L68 480 Z " />
<glyph glyph-name="quotesinglbase" unicode="&#x201a;" horiz-adv-x="269" d="M98 -110 C116 -110 122 -99 127 -92 L167 -36 C175 -24 183 -13 183 15 L183 90 C183 101 174 110 163 110 L93 110 C82 110 73 101 73 90 L73 20 C73 9 82 0 93 0 L103 0 C111 0 115 -8 111 -15 L73 -86 C67 -98 76 -110 88 -110 L98 -110 Z " />
<glyph glyph-name="quotedblleft" unicode="&#x201c;" horiz-adv-x="407" d="M137 700 L127 700 C109 700 103 689 98 682 L58 626 C50 614 42 603 42 575 L42 500 C42 489 51 480 62 480 L132 480 C143 480 152 489 152 500 L152 570 C152 581 143 590 132 590 L122 590 C114 590 110 598 114 605 L152 676 C158 688 149 700 137 700 L137 700 Z M299 700 L289 700 C271 700 265 689 260 682 L220 626 C212 614 204 603 204 575 L204 500 C204 489 213 480 224 480 L294 480 C305 480 314 489 314 500 L314 570 C314 581 305 590 294 590 L284 590 C276 590 272 598 276 605 L314 676 C320 688 311 700 299 700 L299 700 Z " />
<glyph glyph-name="quotedblright" unicode="&#x201d;" horiz-adv-x="407" d="M230 480 C248 480 254 491 259 498 L299 554 C307 566 315 577 315 605 L315 680 C315 691 306 700 295 700 L225 700 C214 700 205 691 205 680 L205 610 C205 599 214 590 225 590 L235 590 C243 590 247 582 243 575 L205 504 C199 492 208 480 220 480 L230 480 Z M68 480 C86 480 92 491 97 498 L137 554 C145 566 153 577 153 605 L153 680 C153 691 144 700 133 700 L63 700 C52 700 43 691 43 680 L43 610 C43 599 52 590 63 590 L73 590 C81 590 85 582 81 575 L43 504 C37 492 46 480 58 480 L68 480 Z " />
<glyph glyph-name="quotedblbase" unicode="&#x201e;" horiz-adv-x="457" d="M78 -110 L88 -110 C106 -110 112 -99 117 -92 L157 -36 C165 -24 173 -13 173 15 L173 90 C173 101 164 110 153 110 L83 110 C72 110 63 101 63 90 L63 20 C63 9 72 0 83 0 L93 0 C101 0 105 -8 101 -15 L63 -86 C57 -98 66 -110 78 -110 L78 -110 Z M240 -110 L250 -110 C268 -110 274 -99 279 -92 L319 -36 C327 -24 335 -13 335 15 L335 90 C335 101 326 110 315 110 L245 110 C234 110 225 101 225 90 L225 20 C225 9 234 0 245 0 L255 0 C263 0 267 -8 263 -15 L225 -86 C219 -98 228 -110 240 -110 L240 -110 Z " />
<glyph glyph-name="dagger" unicode="&#x2020;" horiz-adv-x="450" d="M192 -100 C192 -111 201 -120 212 -120 L232 -120 C243 -120 252 -111 252 -100 L252 418 C252 424 256 428 262 428 L404 428 C415 428 424 437 424 448 L424 467 C424 478 415 487 404 487 L262 487 C256 487 252 491 252 497 L252 680 C252 691 243 700 232 700 L212 700 C201 700 192 691 192 680 L192 497 C192 491 188 487 182 487 L40 487 C29 487 20 478 20 467 L20 448 C20 437 29 428 40 428 L182 428 C188 428 192 424 192 418 L192 -100 Z " />
</font>
</defs>
</svg>
