<svg xmlns="http://www.w3.org/2000/svg">
<defs>
<font id="GT Pressura Bold">
<font-face  font-family="GT Pressura" units-per-em="1000" ascent="707" descent="-200" font-style="normal" font-weight="700" font-stretch="normal" cap-height="700" x-height="500" underline-position="-75" underline-thickness="50" />
<missing-glyph  horiz-adv-x="550" d="M184 120 C228 120 213 72 238 72 C253 72 262 83 262 99 C262 122 276 130 288 130 C324 130 344 100 368 100 C392 100 403 116 403 133 C403 165 383 160 383 182 C383 195 394 203 408 203 C442 203 449 153 480 153 C509 153 532 176 532 205 C532 230 521 250 492 250 C459 250 448 263 448 276 C448 310 480 310 480 348 C480 412 402 406 402 444 C402 466 450 470 450 513 C450 542 432 561 403 561 C373 561 350 545 350 508 C350 475 343 460 315 460 C277 460 285 508 243 508 C198 508 226 453 194 453 C176 453 173 488 152 488 C145 488 136 481 136 474 C136 464 144 457 144 450 C144 445 141 442 135 442 C113 442 95 431 95 405 C95 389 105 372 105 356 C105 343 98 316 78 316 C68 316 64 327 51 327 C32 327 18 306 18 288 C18 262 28 236 48 236 C63 236 62 243 78 243 C93 243 106 228 106 205 C106 145 64 156 64 108 C64 84 88 63 116 63 C168 63 148 120 184 120 L184 120 Z M298 340 C298 362 316 387 338 387 C360 387 381 362 381 340 C381 318 360 300 338 300 C316 300 298 318 298 340 L298 340 Z M281 226 C297 226 310 232 319 248 C321 253 328 250 325 244 C319 229 307 210 281 210 C253 210 238 223 228 239 C223 246 227 251 233 246 C246 234 262 226 281 226 L281 226 Z M214 335 C214 323 220 314 228 314 C236 314 242 323 242 335 C242 347 236 356 228 356 C220 356 214 347 214 335 L214 335 Z M310 340 C310 328 316 319 324 319 C332 319 338 328 338 340 C338 352 332 361 324 361 C316 361 310 352 310 340 L310 340 Z M178 340 C178 368 192 390 214 390 C236 390 254 368 254 340 C254 312 236 290 214 290 C192 290 178 312 178 340 L178 340 Z M85 520 C85 501 98 486 114 486 C127 486 138 501 138 520 C138 539 127 554 114 554 C98 554 85 539 85 520 L85 520 Z " />
<glyph glyph-name="NULL" d="" />
<glyph glyph-name="CR" unicode="&#xd;" horiz-adv-x="250" d="" />
<glyph glyph-name="space" unicode="&#x20;" horiz-adv-x="230" d="" />
<glyph glyph-name="exclam" unicode="&#x21;" horiz-adv-x="263" d="M202 684 C202 692 195 700 186 700 L78 700 C69 700 62 692 62 684 L62 233 C62 225 69 217 78 217 L186 217 C195 217 202 225 202 233 L202 684 Z M211 140 C211 151 202 160 191 160 L71 160 C60 160 51 151 51 140 L51 20 C51 9 60 0 71 0 L191 0 C202 0 211 9 211 20 L211 140 Z " />
<glyph glyph-name="quotedbl" unicode="&#x22;" horiz-adv-x="477" d="M90 390 C110 390 118 401 124 410 L188 494 C201 511 210 537 210 563 L210 680 C210 691 201 700 190 700 L70 700 C59 700 50 691 50 680 L50 560 C50 549 59 540 70 540 L94 540 C100 540 107 534 103 527 L49 428 C39 410 50 390 70 390 L90 390 Z M310 390 C330 390 338 401 344 410 L408 494 C421 511 430 537 430 563 L430 680 C430 691 421 700 410 700 L290 700 C279 700 270 691 270 680 L270 560 C270 549 279 540 290 540 L314 540 C320 540 327 534 323 527 L269 428 C259 410 270 390 290 390 L310 390 Z " />
<glyph glyph-name="numbersign" unicode="&#x23;" horiz-adv-x="602" d="M341 267 C340 261 335 257 329 257 L243 257 C237 257 234 261 235 267 L262 420 C263 426 268 430 274 430 L360 430 C366 430 369 426 368 420 L341 267 Z M128 267 C127 261 122 257 116 257 L66 257 C55 257 44 248 42 237 L31 168 C29 157 37 148 48 148 L98 148 C104 148 107 144 106 138 L84 20 C82 9 90 0 101 0 L168 0 C179 0 189 9 191 20 L213 138 C214 144 219 148 225 148 L311 148 C317 148 320 144 319 138 L297 20 C295 9 303 0 314 0 L381 0 C392 0 402 9 404 20 L426 138 C427 144 432 148 438 148 L488 148 C499 148 509 157 511 168 L522 237 C524 248 517 257 506 257 L456 257 C450 257 447 261 448 267 L475 420 C476 426 481 430 487 430 L537 430 C548 430 558 439 560 450 L571 516 C573 527 566 536 555 536 L505 536 C499 536 496 540 497 546 L521 680 C523 691 515 700 504 700 L437 700 C426 700 416 691 414 680 L390 546 C389 540 384 536 378 536 L292 536 C286 536 283 540 284 546 L308 680 C310 691 302 700 291 700 L224 700 C213 700 203 691 201 680 L177 546 C176 540 171 536 165 536 L115 536 C104 536 93 527 91 516 L80 450 C78 439 86 430 97 430 L147 430 C153 430 156 426 155 420 L128 267 Z " />
<glyph glyph-name="dollar" unicode="&#x24;" horiz-adv-x="562" d="M356 700 C347 703 341 707 341 716 L341 750 C341 761 332 770 321 770 L236 770 C225 770 216 761 216 750 L216 714 C216 705 209 702 200 699 C109 671 49 593 49 500 C49 371 148 316 273 288 C348 271 377 251 377 208 C377 161 341 126 278 126 C216 126 181 162 181 208 L181 238 C181 249 172 258 161 258 L60 258 C49 258 40 249 40 238 L40 208 C40 110 104 29 200 0 C209 -3 216 -6 216 -15 L216 -50 C216 -61 225 -70 236 -70 L321 -70 C332 -70 341 -61 341 -50 L341 -16 C341 -7 346 -4 356 -1 C454 25 522 101 522 208 C522 347 419 405 280 433 C228 443 191 462 191 500 C191 540 222 575 278 575 C335 575 367 540 367 500 L367 485 C367 474 376 465 387 465 L488 465 C499 465 508 474 508 485 L508 500 C508 593 447 672 356 700 L356 700 Z " />
<glyph glyph-name="percent" unicode="&#x25;" horiz-adv-x="680" d="M566 672 C574 686 563 700 550 700 L501 700 C492 700 485 695 479 685 L113 28 C105 14 116 0 129 0 L181 0 C190 0 196 5 202 15 L566 672 Z M173 418 C153 418 143 430 142 444 C138 471 138 549 142 576 C143 590 153 602 173 602 C192 602 202 590 203 576 C206 549 206 471 203 444 C202 430 192 418 173 418 L173 418 Z M173 692 C104 692 61 642 54 582 C49 540 49 480 54 438 C61 378 104 327 173 327 C242 327 285 378 292 438 C297 480 297 540 292 582 C285 642 242 692 173 692 L173 692 Z M507 98 C487 98 477 110 476 124 C472 151 472 229 476 256 C477 270 487 282 507 282 C526 282 536 270 537 256 C539 229 539 151 537 124 C536 110 526 98 507 98 L507 98 Z M507 372 C438 372 395 322 388 262 C383 220 383 160 388 118 C395 58 438 7 507 7 C576 7 619 58 626 118 C631 160 631 220 626 262 C619 322 576 372 507 372 L507 372 Z " />
<glyph glyph-name="ampersand" unicode="&#x26;" horiz-adv-x="585" d="M270 109 C220 109 165 155 165 206 C165 233 175 254 192 270 C193 271 195 273 198 270 L316 130 C319 127 316 125 315 124 C300 114 287 109 270 109 L270 109 Z M394 237 C392 234 388 232 385 235 L236 412 C224 426 192 470 192 507 C192 545 217 569 259 569 C293 569 314 546 317 515 C319 494 331 486 348 486 L422 486 C439 486 452 490 452 516 C452 620 364 700 263 700 C151 700 59 618 59 507 C59 463 78 411 105 378 C111 370 112 362 104 356 C59 322 28 262 28 206 C28 83 136 -11 258 -11 C311 -11 361 2 400 33 C404 36 410 42 419 33 L441 10 C445 6 448 0 463 0 L542 0 C564 0 571 24 560 37 L483 128 C479 133 479 135 482 140 C492 157 508 200 508 320 C508 331 499 340 488 340 L420 340 C409 340 400 331 400 320 C400 270 399 245 394 237 L394 237 Z " />
<glyph glyph-name="quotesingle" unicode="&#x27;" horiz-adv-x="257" d="M94 540 C100 540 107 534 103 527 L49 428 C39 410 50 390 70 390 L90 390 C110 390 118 401 124 410 L188 494 C201 511 210 537 210 563 L210 680 C210 691 201 700 190 700 L70 700 C59 700 50 691 50 680 L50 560 C50 549 59 540 70 540 L94 540 Z " />
<glyph glyph-name="parenleft" unicode="&#x28;" horiz-adv-x="361" d="M283 38 C225 38 197 72 188 120 C173 202 172 428 188 510 C200 573 238 592 283 592 L325 592 C336 592 345 601 345 612 L345 700 C345 711 336 720 325 720 L283 720 C151 720 71 619 58 510 C48 430 48 201 58 120 C74 -9 163 -90 283 -90 L325 -90 C336 -90 345 -81 345 -70 L345 18 C345 29 336 38 325 38 L283 38 Z " />
<glyph glyph-name="parenright" unicode="&#x29;" horiz-adv-x="365" d="M40 38 C29 38 20 29 20 18 L20 -70 C20 -81 29 -90 40 -90 L82 -90 C202 -90 291 -9 307 120 C317 201 317 430 307 510 C294 619 214 720 82 720 L40 720 C29 720 20 711 20 700 L20 612 C20 601 29 592 40 592 L82 592 C127 592 165 573 177 510 C193 428 192 202 177 120 C168 72 140 38 82 38 L40 38 Z " />
<glyph glyph-name="asterisk" unicode="&#x2a;" horiz-adv-x="393" d="M273 473 C287 463 306 469 314 484 L339 526 C347 541 343 560 328 567 L300 580 L327 593 C343 601 347 619 338 634 L315 676 C306 691 287 696 274 687 L248 670 L251 700 C253 717 238 730 221 730 L172 730 C155 730 141 717 142 700 L144 670 L120 687 C106 697 87 691 79 676 L54 634 C46 619 50 600 65 593 L93 580 L66 567 C50 559 46 541 55 526 L78 484 C87 469 106 464 119 473 L144 490 L142 460 C141 443 155 430 172 430 L221 430 C238 430 253 443 251 460 L248 490 L273 473 Z " />
<glyph glyph-name="plus" unicode="&#x2b;" horiz-adv-x="540" d="M195 186 C201 186 205 182 205 176 L205 50 C205 39 214 30 225 30 L314 30 C325 30 334 39 334 50 L334 176 C334 182 338 186 344 186 L470 186 C481 186 490 195 490 206 L490 295 C490 306 481 315 470 315 L344 315 C338 315 334 319 334 325 L334 450 C334 461 325 470 314 470 L225 470 C214 470 205 461 205 450 L205 325 C205 319 201 315 195 315 L70 315 C59 315 50 306 50 295 L50 206 C50 195 59 186 70 186 L195 186 Z " />
<glyph glyph-name="comma" unicode="&#x2c;" horiz-adv-x="264" d="M73 -150 L93 -150 C113 -150 121 -139 127 -130 L191 -46 C203 -28 213 -3 213 23 L213 140 C213 151 204 160 193 160 L73 160 C62 160 53 151 53 140 L53 20 C53 9 62 0 73 0 L97 0 C103 0 110 -6 106 -13 L52 -112 C42 -130 53 -150 73 -150 L73 -150 Z " />
<glyph glyph-name="hyphen" unicode="&#x2d;" horiz-adv-x="413" d="M70 337 C59 337 50 328 50 317 L50 218 C50 207 59 198 70 198 L343 198 C354 198 363 207 363 218 L363 317 C363 328 354 337 343 337 L70 337 Z " />
<glyph glyph-name="period" unicode="&#x2e;" horiz-adv-x="263" d="M212 140 C212 151 203 160 192 160 L72 160 C61 160 52 151 52 140 L52 20 C52 9 61 0 72 0 L192 0 C203 0 212 9 212 20 L212 140 Z " />
<glyph glyph-name="slash" unicode="&#x2f;" horiz-adv-x="478" d="M435 682 C441 697 432 710 419 710 L327 710 C318 710 312 706 308 695 L42 16 C36 1 45 -12 58 -12 L150 -12 C159 -12 167 -8 171 3 L435 682 Z " />
<glyph glyph-name="zero" unicode="0" horiz-adv-x="552" d="M276 125 C229 125 197 161 192 206 C182 293 182 407 192 494 C197 539 229 575 276 575 C323 575 355 539 360 494 C370 407 370 293 360 206 C355 161 323 125 276 125 L276 125 Z M276 711 C153 711 67 610 53 490 C43 406 43 294 53 210 C67 90 153 -11 276 -11 C399 -11 485 90 499 210 C509 294 509 406 499 490 C485 610 399 711 276 711 L276 711 Z " />
<glyph glyph-name="one" unicode="1" horiz-adv-x="432" d="M342 700 L231 700 C206 700 190 686 181 676 L31 514 C17 499 15 486 15 470 L15 370 C15 350 37 342 49 354 L204 508 C210 514 223 513 223 500 L223 20 C223 9 232 0 243 0 L342 0 C353 0 362 9 362 20 L362 680 C362 691 353 700 342 700 L342 700 Z " />
<glyph glyph-name="two" unicode="2" horiz-adv-x="522" d="M187 503 C187 547 219 576 269 576 C314 576 341 543 341 503 C341 482 324 450 313 438 L54 163 C50 159 45 153 45 138 L45 20 C45 9 54 0 65 0 L457 0 C468 0 477 9 477 20 L477 115 C477 126 468 135 457 135 L236 135 C219 135 220 149 226 155 L414 354 C451 394 476 447 476 502 C476 619 383 711 265 711 C148 711 52 619 52 502 L52 486 C52 475 61 466 72 466 L167 466 C178 466 187 475 187 486 L187 503 Z " />
<glyph glyph-name="three" unicode="3" horiz-adv-x="531" d="M176 218 C176 229 167 238 156 238 L60 238 C49 238 40 229 40 218 L40 208 C40 85 140 -11 263 -11 C386 -11 486 85 486 208 C486 263 462 320 423 352 C417 357 417 364 423 370 C453 403 476 451 476 501 C476 618 381 711 263 711 C146 711 49 618 49 501 L49 486 C49 475 58 466 69 466 L165 466 C176 466 185 475 185 486 L185 501 C185 546 218 575 263 575 C309 575 341 546 341 501 C341 455 309 425 263 425 L251 425 C240 425 231 416 231 405 L231 311 C231 300 240 291 251 291 L263 291 C315 291 350 260 350 208 C350 156 315 125 263 125 C210 125 176 156 176 208 L176 218 Z " />
<glyph glyph-name="four" unicode="4" horiz-adv-x="517" d="M170 251 C163 251 160 256 164 263 L279 476 C282 481 290 480 290 473 L290 261 C290 255 286 251 280 251 L170 251 Z M41 287 C33 274 25 263 25 249 L25 145 C25 134 34 125 45 125 L280 125 C286 125 290 121 290 115 L290 20 C290 9 299 0 310 0 L400 0 C411 0 420 9 420 20 L420 115 C420 121 424 125 430 125 L467 125 C478 125 487 134 487 145 L487 231 C487 242 478 251 467 251 L430 251 C424 251 420 255 420 261 L420 680 C420 691 411 700 400 700 L293 700 C282 700 278 697 272 686 L41 287 Z " />
<glyph glyph-name="five" unicode="5" horiz-adv-x="554" d="M65 188 C65 53 169 -11 286 -11 C428 -11 509 108 509 229 C509 370 420 469 299 469 C268 469 244 461 231 452 C222 446 212 448 212 461 L212 554 C212 560 216 564 222 564 L460 564 C471 564 480 573 480 584 L480 680 C480 691 471 700 460 700 L99 700 C88 700 79 691 79 680 L79 320 C79 309 88 300 99 300 L196 300 C208 300 215 304 220 311 C233 329 256 343 286 343 C351 343 374 280 374 229 C374 169 346 125 286 125 C243 125 199 143 199 188 C199 199 190 208 179 208 L85 208 C74 208 65 201 65 188 L65 188 Z " />
<glyph glyph-name="six" unicode="6" horiz-adv-x="544" d="M276 466 C246 466 216 457 203 450 C192 444 180 449 180 463 C180 491 185 516 195 535 C209 563 234 580 271 580 C322 580 347 549 355 516 C358 504 367 496 383 496 L468 496 C479 496 488 505 488 516 C488 634 381 711 271 711 C153 711 67 614 53 494 C43 410 43 290 53 206 C67 86 153 -11 276 -11 C399 -11 499 85 499 208 L499 243 C499 366 399 466 276 466 L276 466 Z M187 206 C186 220 186 230 187 245 C191 297 224 335 276 335 C328 335 361 297 365 245 C366 230 366 220 365 206 C361 154 328 120 276 120 C224 120 191 154 187 206 L187 206 Z " />
<glyph glyph-name="seven" unicode="7" horiz-adv-x="469" d="M72 24 C68 15 72 0 90 0 L197 0 C206 0 212 6 216 15 L444 540 C448 549 449 554 449 560 L449 680 C449 691 440 700 429 700 L45 700 C34 700 25 691 25 680 L25 585 C25 574 34 565 45 565 L300 565 C306 565 309 560 307 555 L72 24 Z " />
<glyph glyph-name="eight" unicode="8" horiz-adv-x="550" d="M276 122 C218 122 180 157 180 208 C180 259 218 298 276 298 C334 298 372 259 372 208 C372 157 334 122 276 122 L276 122 Z M276 420 C227 420 190 456 190 501 C190 545 227 578 276 578 C326 578 362 545 362 501 C362 456 326 420 276 420 L276 420 Z M450 350 C442 358 443 364 450 372 C479 407 494 452 494 501 C494 618 399 711 276 711 C154 711 57 618 57 501 C57 452 72 408 100 372 C107 363 108 358 101 350 C68 311 48 263 48 208 C48 85 148 -11 276 -11 C404 -11 504 85 504 208 C504 263 486 314 450 350 L450 350 Z " />
<glyph glyph-name="nine" unicode="9" horiz-adv-x="543" d="M349 504 C351 482 351 470 349 449 C344 402 313 366 267 366 C221 366 190 402 185 449 C183 470 183 482 185 504 C189 550 221 583 267 583 C313 583 345 550 349 504 L349 504 Z M262 120 C208 120 182 151 174 186 C171 198 162 206 146 206 L65 206 C54 206 45 197 45 186 C45 74 140 -11 265 -11 C388 -11 474 86 488 206 C498 290 498 410 488 494 C474 614 388 711 262 711 C144 711 54 618 48 501 C47 480 47 470 48 452 C55 333 144 238 261 238 C291 238 329 248 343 253 C354 257 367 254 367 240 C367 218 364 199 359 184 C344 137 309 120 262 120 L262 120 Z " />
<glyph glyph-name="colon" unicode="&#x3a;" horiz-adv-x="303" d="M232 140 C232 151 223 160 212 160 L92 160 C81 160 72 151 72 140 L72 20 C72 9 81 0 92 0 L212 0 C223 0 232 9 232 20 L232 140 Z M232 480 C232 491 223 500 212 500 L92 500 C81 500 72 491 72 480 L72 360 C72 349 81 340 92 340 L212 340 C223 340 232 349 232 360 L232 480 Z " />
<glyph glyph-name="semicolon" unicode="&#x3b;" horiz-adv-x="304" d="M232 480 C232 491 223 500 212 500 L92 500 C81 500 72 491 72 480 L72 360 C72 349 81 340 92 340 L212 340 C223 340 232 349 232 360 L232 480 Z M92 -150 L112 -150 C132 -150 140 -139 146 -130 L210 -46 C223 -29 232 -3 232 23 L232 140 C232 151 223 160 212 160 L92 160 C81 160 72 151 72 140 L72 20 C72 9 81 0 92 0 L116 0 C122 0 129 -6 125 -13 L71 -112 C61 -130 72 -150 92 -150 L92 -150 Z " />
<glyph glyph-name="less" unicode="&#x3c;" horiz-adv-x="480" d="M213 246 C209 248 209 252 213 254 L415 355 C425 361 430 367 430 376 L430 481 C430 497 416 505 407 500 L45 297 C36 292 30 284 30 265 L30 236 C30 217 36 209 45 204 L407 0 C416 -5 430 3 430 19 L430 124 C430 133 425 140 415 145 L213 246 Z " />
<glyph glyph-name="equal" unicode="&#x3d;" horiz-adv-x="540" d="M470 286 C481 286 490 295 490 306 L490 393 C490 404 481 413 470 413 L70 413 C59 413 50 404 50 393 L50 306 C50 295 59 286 70 286 L470 286 Z M470 87 C481 87 490 96 490 107 L490 194 C490 205 481 214 470 214 L70 214 C59 214 50 205 50 194 L50 107 C50 96 59 87 70 87 L470 87 Z " />
<glyph glyph-name="greater" unicode="&#x3e;" horiz-adv-x="480" d="M65 145 C55 140 50 133 50 124 L50 19 C50 3 64 -5 73 0 L435 204 C444 209 450 217 450 236 L450 265 C450 284 444 292 435 297 L73 500 C64 505 50 497 50 481 L50 376 C50 367 55 360 65 355 L267 254 C271 252 271 248 267 246 L65 145 Z " />
<glyph glyph-name="question" unicode="&#x3f;" horiz-adv-x="483" d="M313 506 C313 483 296 456 275 436 C254 416 220 399 198 371 C165 328 170 278 170 247 L170 237 C170 226 179 217 190 217 L290 217 C301 217 310 226 310 237 L310 247 C310 294 318 311 356 339 C400 371 453 430 453 513 C453 631 360 715 242 715 C126 715 30 619 30 501 L30 486 C30 475 39 466 50 466 L150 466 C161 466 170 475 170 486 L170 503 C170 541 197 576 242 576 C282 576 313 549 313 506 L313 506 Z M320 140 C320 151 311 160 300 160 L180 160 C169 160 160 151 160 140 L160 20 C160 9 169 0 180 0 L300 0 C311 0 320 9 320 20 L320 140 Z " />
<glyph glyph-name="at" unicode="&#x40;" horiz-adv-x="835" d="M492 217 C492 180 458 160 424 160 C370 160 346 208 346 269 C346 336 380 382 424 382 C460 382 492 365 492 310 L492 217 Z M530 23 C498 8 463 2 424 2 C273 2 165 113 165 269 C165 442 284 548 425 548 C575 548 675 454 675 300 C675 202 656 170 625 170 C610 170 589 180 589 210 L589 330 C589 416 517 473 424 473 C310 473 239 385 239 269 C239 161 290 70 424 70 C454 70 481 78 502 90 C521 102 542 101 559 90 C579 77 597 70 630 70 C720 70 775 164 775 300 C775 494 645 640 425 640 C214 640 60 480 60 270 C60 71 188 -90 424 -90 C462 -90 509 -80 530 -68 C542 -61 554 -56 554 -40 L554 8 C554 21 543 29 530 23 L530 23 Z " />
<glyph glyph-name="A" unicode="A" horiz-adv-x="537" d="M314 273 L222 273 C216 273 212 276 214 284 L262 524 C263 527 264 528 267 528 L269 528 C272 528 273 527 274 524 L322 284 C324 276 320 273 314 273 L314 273 Z M389 15 C392 6 399 0 408 0 L513 0 C529 0 535 11 533 20 L355 685 C353 694 345 700 336 700 L202 700 C193 700 185 694 183 685 L4 20 C2 11 8 0 24 0 L129 0 C138 0 146 6 148 15 L176 118 C178 127 182 133 191 133 L343 133 C352 133 356 126 358 118 L389 15 Z " />
<glyph glyph-name="B" unicode="B" horiz-adv-x="551" d="M316 291 C358 291 386 255 386 216 C386 176 359 140 316 140 L212 140 C206 140 202 144 202 150 L202 281 C202 287 206 291 212 291 L316 291 Z M321 700 L85 700 C74 700 65 691 65 680 L65 20 C65 9 74 0 85 0 L321 0 C444 0 526 85 526 216 C526 267 500 324 467 352 C461 357 461 364 467 370 C496 399 518 452 518 496 C518 609 433 700 321 700 L321 700 Z M212 431 C206 431 202 435 202 441 L202 550 C202 556 206 560 212 560 L316 560 C351 560 382 531 382 496 C382 461 351 431 316 431 L212 431 Z " />
<glyph glyph-name="C" unicode="C" horiz-adv-x="569" d="M529 218 C529 229 520 238 509 238 L409 238 C398 238 389 228 389 217 L389 216 C389 173 350 130 291 130 C230 130 199 166 194 210 C184 294 184 406 194 490 C199 534 230 570 291 570 C354 570 389 524 389 483 L389 482 C389 471 398 462 409 462 L509 462 C520 462 529 472 529 482 L529 483 C529 616 429 711 291 711 C153 711 67 610 53 490 C43 406 43 294 53 210 C67 90 153 -11 291 -11 C429 -11 529 83 529 217 L529 218 Z " />
<glyph glyph-name="D" unicode="D" horiz-adv-x="571" d="M295 560 C341 560 372 523 377 479 C387 395 387 305 377 221 C372 177 341 140 295 140 L215 140 C209 140 205 144 205 150 L205 550 C205 556 209 560 215 560 L295 560 Z M85 700 C74 700 65 691 65 680 L65 20 C65 9 74 0 85 0 L295 0 C418 0 504 101 518 221 C528 305 528 395 518 479 C504 599 418 700 295 700 L85 700 Z " />
<glyph glyph-name="E" unicode="E" horiz-adv-x="512" d="M205 270 C205 276 209 280 215 280 L440 280 C451 280 460 289 460 300 L460 400 C460 411 451 420 440 420 L215 420 C209 420 205 424 205 430 L205 550 C205 556 209 560 215 560 L448 560 C459 560 468 569 468 580 L468 680 C468 691 459 700 448 700 L85 700 C74 700 65 691 65 680 L65 20 C65 9 74 0 85 0 L452 0 C463 0 472 9 472 20 L472 120 C472 131 463 140 452 140 L215 140 C209 140 205 144 205 150 L205 270 Z " />
<glyph glyph-name="F" unicode="F" horiz-adv-x="475" d="M215 280 L425 280 C436 280 445 289 445 300 L445 400 C445 411 436 420 425 420 L215 420 C209 420 205 424 205 430 L205 550 C205 556 209 560 215 560 L435 560 C446 560 455 569 455 580 L455 680 C455 691 446 700 435 700 L85 700 C74 700 65 691 65 680 L65 20 C65 9 74 0 85 0 L185 0 C196 0 205 9 205 20 L205 270 C205 276 209 280 215 280 L215 280 Z " />
<glyph glyph-name="G" unicode="G" horiz-adv-x="572" d="M392 208 C392 163 351 130 291 130 C230 130 199 166 194 210 C184 294 184 406 194 490 C199 534 230 570 291 570 C354 570 389 524 389 483 L389 482 C389 471 398 462 409 462 L509 462 C520 462 529 472 529 482 L529 483 C529 616 429 711 291 711 C153 711 67 610 53 490 C43 406 43 294 53 210 C67 90 153 -11 291 -11 C428 -11 529 88 529 208 L529 376 C529 387 520 396 509 396 L314 396 C303 396 294 387 294 376 L294 281 C294 270 303 261 314 261 L382 261 C388 261 392 257 392 251 L392 208 Z " />
<glyph glyph-name="H" unicode="H" horiz-adv-x="582" d="M377 680 L377 430 C377 424 373 420 367 420 L215 420 C209 420 205 424 205 430 L205 680 C205 691 196 700 185 700 L85 700 C74 700 65 691 65 680 L65 20 C65 9 74 0 85 0 L180 0 C191 0 205 9 205 20 L205 270 C205 276 209 280 215 280 L367 280 C373 280 377 276 377 270 L377 20 C377 9 386 0 397 0 L497 0 C508 0 517 9 517 20 L517 680 C517 691 508 700 497 700 L397 700 C386 700 377 691 377 680 L377 680 Z " />
<glyph glyph-name="I" unicode="I" horiz-adv-x="270" d="M205 680 C205 691 196 700 185 700 L85 700 C74 700 65 691 65 680 L65 20 C65 9 74 0 85 0 L185 0 C196 0 205 9 205 20 L205 680 Z " />
<glyph glyph-name="J" unicode="J" horiz-adv-x="522" d="M5 211 C5 89 105 -11 237 -11 C377 -11 468 89 468 211 L468 680 C468 691 459 700 448 700 L347 700 C336 700 327 691 327 680 L327 221 C327 165 291 130 237 130 C182 130 146 166 146 211 L146 239 C146 250 137 259 126 259 L25 259 C14 259 5 250 5 239 L5 211 Z " />
<glyph glyph-name="K" unicode="K" horiz-adv-x="551" d="M385 12 C388 7 393 0 408 0 L516 0 C538 0 546 24 537 38 L332 355 C324 367 323 375 332 388 L519 664 C529 679 521 700 502 700 L401 700 C386 700 382 694 379 690 L214 447 C211 443 204 444 204 450 L204 680 C204 691 195 700 184 700 L85 700 C74 700 65 691 65 680 L65 20 C65 9 74 0 85 0 L184 0 C195 0 204 9 204 20 L204 282 C204 288 211 289 214 285 L385 12 Z " />
<glyph glyph-name="L" unicode="L" horiz-adv-x="455" d="M205 680 C205 691 196 700 185 700 L85 700 C74 700 65 691 65 680 L65 20 C65 9 74 0 85 0 L425 0 C436 0 445 9 445 20 L445 120 C445 131 436 140 425 140 L215 140 C209 140 205 144 205 150 L205 680 Z " />
<glyph glyph-name="M" unicode="M" horiz-adv-x="727" d="M254 683 C251 695 244 700 233 700 L85 700 C74 700 65 691 65 680 L65 20 C65 9 74 0 85 0 L173 0 C184 0 193 9 193 20 L193 397 C193 403 200 405 202 399 L302 17 C305 5 312 0 323 0 L402 0 C413 0 420 5 423 17 L525 399 C527 405 534 403 534 397 L534 20 C534 9 543 0 554 0 L642 0 C653 0 662 9 662 20 L662 680 C662 691 653 700 642 700 L495 700 C484 700 477 695 474 683 L368 245 C366 238 358 238 356 245 L254 683 Z " />
<glyph glyph-name="N" unicode="N" horiz-adv-x="580" d="M495 0 C506 0 515 9 515 20 L515 680 C515 691 506 700 495 700 L395 700 C384 700 375 691 375 680 L375 304 C375 298 368 296 366 302 L229 682 C226 691 219 700 204 700 L85 700 C74 700 65 691 65 680 L65 20 C65 9 74 0 85 0 L185 0 C196 0 205 9 205 20 L205 366 C205 372 212 374 214 368 L350 17 C353 9 360 0 377 0 L495 0 Z " />
<glyph glyph-name="O" unicode="O" horiz-adv-x="582" d="M291 130 C230 130 199 166 194 210 C184 294 184 406 194 490 C199 534 230 570 291 570 C352 570 383 534 388 490 C398 406 398 294 388 210 C383 166 352 130 291 130 L291 130 Z M291 711 C153 711 67 610 53 490 C43 406 43 294 53 210 C67 90 153 -11 291 -11 C429 -11 515 90 529 210 C539 294 539 406 529 490 C515 610 429 711 291 711 L291 711 Z " />
<glyph glyph-name="P" unicode="P" horiz-adv-x="525" d="M85 700 C74 700 65 691 65 680 L65 20 C65 9 74 0 85 0 L185 0 C196 0 205 9 205 20 L205 270 C205 276 209 280 215 280 L305 280 C420 280 515 374 515 490 C515 605 420 700 305 700 L85 700 Z M305 560 C343 560 375 528 375 490 C375 451 343 420 305 420 L215 420 C209 420 205 424 205 430 L205 550 C205 556 209 560 215 560 L305 560 Z " />
<glyph glyph-name="Q" unicode="Q" horiz-adv-x="582" d="M291 130 C230 130 199 166 194 210 C184 294 184 406 194 490 C199 534 230 570 291 570 C352 570 383 534 388 490 C398 406 398 294 388 210 C383 166 352 130 291 130 L291 130 Z M461 57 C496 92 522 152 529 210 C539 294 539 406 529 490 C515 610 429 711 291 711 C153 711 67 610 53 490 C43 406 43 294 53 210 C67 90 153 -11 291 -11 L315 -11 C326 -11 329 -14 333 -21 L356 -66 C364 -80 369 -90 386 -90 L478 -90 C508 -90 509 -68 502 -54 L457 35 C452 45 455 51 461 57 L461 57 Z " />
<glyph glyph-name="R" unicode="R" horiz-adv-x="560" d="M241 280 C252 280 257 272 259 267 L361 20 C366 8 374 0 390 0 L493 0 C513 0 519 15 512 30 L405 280 C398 295 397 303 411 313 C482 361 515 413 515 490 C515 605 420 700 305 700 L85 700 C74 700 65 691 65 680 L65 20 C65 9 74 0 85 0 L185 0 C196 0 205 9 205 20 L205 270 C205 276 209 280 215 280 L241 280 Z M305 560 C343 560 375 528 375 490 C375 451 343 420 305 420 L215 420 C209 420 205 424 205 430 L205 550 C205 556 209 560 215 560 L305 560 Z " />
<glyph glyph-name="S" unicode="S" horiz-adv-x="542" d="M367 208 C367 161 328 126 268 126 C206 126 171 162 171 208 L171 238 C171 249 162 258 151 258 L50 258 C39 258 30 249 30 238 L30 208 C30 86 130 -11 268 -11 C410 -11 512 78 512 208 C512 347 409 405 270 433 C218 443 181 467 181 505 C181 545 212 575 268 575 C325 575 357 540 357 500 L357 485 C357 474 366 465 377 465 L478 465 C489 465 498 474 498 485 L498 500 C498 618 402 711 268 711 C136 711 39 618 39 500 C39 371 138 316 263 288 C338 271 367 251 367 208 L367 208 Z " />
<glyph glyph-name="T" unicode="T" horiz-adv-x="454" d="M307 560 L432 560 C443 560 452 569 452 580 L452 680 C452 691 443 700 432 700 L22 700 C11 700 2 691 2 680 L2 580 C2 569 11 560 22 560 L147 560 C153 560 157 556 157 550 L157 20 C157 9 166 0 177 0 L277 0 C288 0 297 9 297 20 L297 550 C297 556 301 560 307 560 L307 560 Z " />
<glyph glyph-name="U" unicode="U" horiz-adv-x="582" d="M528 680 C528 691 519 700 508 700 L407 700 C396 700 387 691 387 680 L387 210 C387 166 351 130 290 130 C231 130 195 166 195 210 L195 680 C195 691 186 700 175 700 L74 700 C63 700 54 691 54 680 L54 210 C54 89 154 -11 290 -11 C428 -11 528 89 528 210 L528 680 Z " />
<glyph glyph-name="V" unicode="V" horiz-adv-x="547" d="M541 676 C544 686 538 700 522 700 L412 700 C403 700 395 696 393 685 L284 216 C283 212 281 209 277 209 L271 209 C267 209 265 212 264 216 L154 685 C152 696 144 700 135 700 L25 700 C9 700 3 686 6 676 L179 15 C182 5 189 0 198 0 L349 0 C358 0 365 5 368 15 L541 676 Z " />
<glyph glyph-name="W" unicode="W" horiz-adv-x="757" d="M317 15 L372 340 C373 348 383 348 384 340 L439 15 C441 5 449 0 458 0 L597 0 C606 0 614 5 616 15 L751 680 C753 690 747 700 731 700 L631 700 C622 700 614 696 612 685 L530 244 C529 239 527 237 523 237 L517 237 C513 237 511 239 510 244 L442 685 C440 695 432 700 423 700 L333 700 C324 700 316 695 314 685 L247 244 C246 239 244 237 240 237 L234 237 C230 237 228 239 227 244 L145 685 C143 696 135 700 126 700 L26 700 C10 700 4 690 6 680 L140 15 C142 5 150 0 159 0 L298 0 C307 0 315 5 317 15 L317 15 Z " />
<glyph glyph-name="X" unicode="X" horiz-adv-x="542" d="M265 252 C267 258 275 258 277 252 L370 15 C374 4 382 0 391 0 L509 0 C522 0 531 14 525 28 L378 360 C374 369 374 372 378 382 L508 672 C514 686 505 700 492 700 L379 700 C370 700 365 696 360 685 L277 478 C275 472 267 472 265 478 L182 685 C177 696 172 700 163 700 L50 700 C37 700 28 686 34 672 L164 383 C168 373 168 370 164 361 L17 28 C11 14 20 0 33 0 L151 0 C160 0 168 4 172 15 L265 252 Z " />
<glyph glyph-name="Y" unicode="Y" horiz-adv-x="518" d="M157 685 C153 696 147 700 138 700 L28 700 C15 700 6 687 12 672 L189 226 L189 20 C189 9 198 0 209 0 L309 0 C320 0 329 9 329 20 L329 226 L506 672 C512 687 503 700 490 700 L380 700 C371 700 365 696 361 685 L265 408 C263 402 255 402 253 408 L157 685 Z " />
<glyph glyph-name="Z" unicode="Z" horiz-adv-x="522" d="M473 548 C476 553 478 558 478 564 L478 680 C478 691 469 700 458 700 L69 700 C58 700 49 691 49 680 L49 583 C49 572 58 563 69 563 L309 563 C316 563 318 558 315 553 L39 155 C36 150 34 145 34 139 L34 20 C34 9 43 0 54 0 L468 0 C479 0 488 9 488 20 L488 117 C488 128 479 137 468 137 L204 137 C197 137 195 142 198 147 L473 548 Z " />
<glyph glyph-name="bracketleft" unicode="&#x5b;" horiz-adv-x="332" d="M192 588 C192 594 196 598 202 598 L292 598 C303 598 312 607 312 618 L312 700 C312 711 303 720 292 720 L90 720 C79 720 70 711 70 700 L70 -70 C70 -81 79 -90 90 -90 L292 -90 C303 -90 312 -81 312 -70 L312 12 C312 23 303 32 292 32 L202 32 C196 32 192 36 192 42 L192 588 Z " />
<glyph glyph-name="backslash" unicode="&#x5c;" horiz-adv-x="476" d="M313 3 C317 -8 325 -12 334 -12 L426 -12 C439 -12 448 1 442 16 L176 695 C172 706 166 710 157 710 L65 710 C52 710 43 697 49 682 L313 3 Z " />
<glyph glyph-name="bracketright" unicode="&#x5d;" horiz-adv-x="332" d="M40 32 C29 32 20 23 20 12 L20 -70 C20 -81 29 -90 40 -90 L242 -90 C253 -90 262 -81 262 -70 L262 700 C262 711 253 720 242 720 L40 720 C29 720 20 711 20 700 L20 618 C20 607 29 598 40 598 L130 598 C136 598 140 594 140 588 L140 42 C140 36 136 32 130 32 L40 32 Z " />
<glyph glyph-name="asciicircum" unicode="&#x5e;" horiz-adv-x="513" d="M256 630 C260 636 266 636 270 630 L305 586 C310 579 321 570 336 570 L430 570 C448 570 449 589 443 595 L324 718 C318 724 312 730 295 730 L233 730 C215 730 209 724 203 718 L84 595 C78 589 78 570 95 570 L190 570 C205 570 216 579 221 586 L256 630 Z " />
<glyph glyph-name="underscore" unicode="&#x5f;" horiz-adv-x="637" d="M40 0 C29 0 20 -9 20 -20 L20 -79 C20 -90 29 -99 40 -99 L597 -99 C608 -99 617 -90 617 -79 L617 -20 C617 -9 608 0 597 0 L40 0 Z " />
<glyph glyph-name="grave" unicode="&#x60;" horiz-adv-x="361" d="M68 730 C49 730 45 715 56 703 L171 582 C177 576 183 570 201 570 L270 570 C283 570 295 584 283 600 L201 714 C196 721 190 730 175 730 L68 730 Z " />
<glyph glyph-name="a" unicode="a" horiz-adv-x="512" d="M322 204 C328 204 332 200 332 194 L332 170 C332 118 288 101 231 101 C195 101 165 117 165 154 C165 169 173 204 216 204 L322 204 Z M250 397 C294 397 327 377 327 336 L327 320 C327 314 323 310 317 310 L215 310 C100 310 43 223 43 154 C43 49 115 -11 231 -11 C305 -11 333 27 351 27 C364 27 365 15 371 7 C375 2 379 0 385 0 L435 0 C446 0 455 9 455 20 L455 330 C455 446 376 511 255 511 C135 511 62 439 62 360 C62 349 71 340 82 340 L154 340 C172 340 177 342 181 359 C188 391 229 397 250 397 L250 397 Z " />
<glyph glyph-name="b" unicode="b" horiz-adv-x="520" d="M194 325 C197 363 221 385 270 385 C318 385 343 358 345 325 C348 285 348 215 345 175 C343 142 318 115 270 115 C221 115 197 140 194 175 C191 215 191 285 194 325 L194 325 Z M285 -11 C390 -11 467 70 475 175 C478 215 478 285 475 325 C467 430 390 511 285 511 C255 511 239 505 225 499 C210 493 195 498 195 520 L195 690 C195 701 186 710 175 710 L85 710 C74 710 65 701 65 690 L65 20 C65 9 74 0 85 0 L135 0 C141 0 145 3 149 7 C155 14 164 23 174 23 C203 23 211 -11 285 -11 L285 -11 Z " />
<glyph glyph-name="c" unicode="c" horiz-adv-x="498" d="M333 189 C325 135 298 119 254 119 C203 119 180 140 176 175 C171 215 171 285 176 325 C181 363 203 381 253 381 C299 381 330 360 333 311 C334 300 343 295 352 295 L441 295 C452 295 458 304 458 315 C458 439 364 511 254 511 C131 511 59 430 46 325 C41 285 41 215 46 175 C59 70 131 -11 254 -11 C364 -11 458 63 458 185 C458 196 452 205 441 205 L352 205 C343 205 335 200 333 189 L333 189 Z " />
<glyph glyph-name="d" unicode="d" horiz-adv-x="520" d="M175 325 C177 358 202 385 250 385 C299 385 323 363 326 325 C329 285 329 215 326 175 C323 140 299 115 250 115 C202 115 177 142 175 175 C172 215 172 285 175 325 L175 325 Z M235 -11 C309 -11 317 23 346 23 C356 23 365 14 371 7 C375 3 379 0 385 0 L435 0 C446 0 455 9 455 20 L455 690 C455 701 446 710 435 710 L345 710 C334 710 325 701 325 690 L325 520 C325 498 310 493 295 499 C281 505 265 511 235 511 C130 511 53 430 45 325 C42 285 42 215 45 175 C53 70 130 -11 235 -11 L235 -11 Z " />
<glyph glyph-name="e" unicode="e" horiz-adv-x="499" d="M253 393 C296 393 338 373 338 330 C338 324 334 321 328 321 L176 321 C170 321 166 324 166 330 C166 368 196 393 253 393 L253 393 Z M437 210 C448 210 457 219 457 230 L457 313 C457 440 373 511 253 511 C131 511 59 430 46 325 C41 285 41 215 46 175 C59 70 131 -11 253 -11 C364 -11 432 54 455 147 C459 163 448 169 438 169 L355 169 C346 169 337 165 332 152 C319 120 292 110 253 110 C205 110 165 140 165 195 C165 204 171 210 180 210 L437 210 Z " />
<glyph glyph-name="f" unicode="f" horiz-adv-x="405" d="M365 580 C376 580 385 589 385 600 L385 690 C385 701 376 710 365 710 L305 710 C201 710 115 631 115 527 L115 507 C115 501 111 497 105 497 L25 497 C14 497 5 488 5 477 L5 397 C5 386 14 377 25 377 L105 377 C111 377 115 373 115 367 L115 20 C115 9 124 0 135 0 L225 0 C236 0 245 9 245 20 L245 367 C245 373 249 377 255 377 L375 377 C386 377 395 386 395 397 L395 477 C395 488 386 497 375 497 L255 497 C249 497 245 501 245 507 L245 525 C245 558 272 580 305 580 L365 580 Z " />
<glyph glyph-name="g" unicode="g" horiz-adv-x="517" d="M326 175 C323 140 299 115 250 115 C202 115 177 142 175 175 C172 215 172 285 175 325 C177 358 202 385 250 385 C299 385 323 363 326 325 C329 285 329 215 326 175 L326 175 Z M235 511 C130 511 53 430 45 325 C42 285 42 215 45 175 C53 70 130 -11 235 -11 C265 -11 281 -4 295 1 C314 8 325 0 325 -20 L325 -30 C325 -74 289 -96 252 -96 C212 -96 187 -77 182 -53 C179 -39 180 -30 156 -30 L81 -30 C70 -30 61 -39 61 -50 C61 -147 152 -215 258 -215 C371 -215 455 -131 455 -30 L455 480 C455 491 446 500 435 500 L385 500 C379 500 375 497 371 493 C365 486 356 477 346 477 C317 477 309 511 235 511 L235 511 Z " />
<glyph glyph-name="h" unicode="h" horiz-adv-x="530" d="M345 20 C345 9 354 0 365 0 L455 0 C466 0 475 9 475 20 L475 325 C475 430 390 511 285 511 C255 511 239 504 225 499 C206 492 195 503 195 520 L195 690 C195 701 186 710 175 710 L85 710 C74 710 65 701 65 690 L65 20 C65 9 74 0 85 0 L175 0 C186 0 195 9 195 20 L195 325 C195 358 222 385 270 385 C318 385 345 358 345 325 L345 20 Z " />
<glyph glyph-name="i" unicode="i" horiz-adv-x="260" d="M200 694 C200 702 193 710 184 710 L76 710 C67 710 60 702 60 694 L60 586 C60 577 67 570 76 570 L184 570 C193 570 200 577 200 586 L200 694 Z M195 484 C195 492 188 500 179 500 L81 500 C72 500 65 492 65 484 L65 16 C65 8 72 0 81 0 L179 0 C188 0 195 8 195 16 L195 484 Z " />
<glyph glyph-name="j" unicode="j" horiz-adv-x="260" d="M60 -30 C60 -74 24 -96 -13 -96 L-55 -96 C-66 -96 -75 -105 -75 -116 L-75 -195 C-75 -206 -66 -215 -55 -215 L-7 -215 C106 -215 190 -131 190 -30 L190 480 C190 491 181 500 170 500 L80 500 C69 500 60 491 60 480 L60 -30 Z M195 694 C195 702 188 710 179 710 L71 710 C62 710 55 702 55 694 L55 586 C55 577 62 570 71 570 L179 570 C188 570 195 577 195 586 L195 694 Z " />
<glyph glyph-name="k" unicode="k" horiz-adv-x="491" d="M461 467 C470 478 466 500 445 500 L346 500 C331 500 325 493 321 487 L205 338 C202 334 195 335 195 341 L195 690 C195 701 186 710 175 710 L85 710 C74 710 65 701 65 690 L65 20 C65 9 74 0 85 0 L175 0 C186 0 195 9 195 20 L195 185 C195 191 202 192 205 188 L330 15 C334 9 341 0 356 0 L460 0 C479 0 487 19 476 33 L313 252 C303 265 303 271 312 282 L461 467 Z " />
<glyph glyph-name="l" unicode="l" horiz-adv-x="260" d="M195 690 C195 701 186 710 175 710 L85 710 C74 710 65 701 65 690 L65 20 C65 9 74 0 85 0 L175 0 C186 0 195 9 195 20 L195 690 Z " />
<glyph glyph-name="m" unicode="m" horiz-adv-x="770" d="M590 20 C590 9 599 0 610 0 L700 0 C711 0 720 9 720 20 L720 325 C720 430 640 511 535 511 C488 511 455 492 428 474 C413 464 396 464 383 474 C357 494 329 511 282 511 C224 511 204 474 175 474 C160 474 156 485 148 493 C144 497 138 500 130 500 L80 500 C69 500 60 491 60 480 L60 20 C60 9 69 0 80 0 L170 0 C181 0 190 9 190 20 L190 330 C190 360 218 385 260 385 C303 385 325 359 325 326 L325 20 C325 9 334 0 345 0 L435 0 C446 0 455 9 455 20 L455 325 C455 358 482 385 525 385 C568 385 590 359 590 326 L590 20 Z " />
<glyph glyph-name="n" unicode="n" horiz-adv-x="525" d="M470 325 C470 430 390 511 285 511 C225 511 204 476 175 476 C161 476 156 486 148 493 C144 497 139 500 130 500 L80 500 C69 500 60 491 60 480 L60 20 C60 9 69 0 80 0 L170 0 C181 0 190 9 190 20 L190 330 C190 360 218 385 265 385 C313 385 340 359 340 326 L340 20 C340 9 349 0 360 0 L450 0 C461 0 470 9 470 20 L470 325 Z " />
<glyph glyph-name="o" unicode="o" horiz-adv-x="507" d="M176 325 C182 363 203 381 253 381 C304 381 326 358 331 325 C337 285 337 215 331 175 C326 142 304 119 253 119 C203 119 181 140 176 175 C170 215 170 285 176 325 L176 325 Z M46 175 C59 70 131 -11 254 -11 C376 -11 448 70 461 175 C466 215 466 285 461 325 C448 430 376 511 253 511 C131 511 59 430 46 325 C41 285 41 215 46 175 L46 175 Z " />
<glyph glyph-name="p" unicode="p" horiz-adv-x="515" d="M340 175 C338 142 313 115 265 115 C216 115 192 137 189 175 C186 215 186 285 189 325 C192 360 216 385 265 385 C313 385 338 358 340 325 C343 285 343 215 340 175 L340 175 Z M280 511 C206 511 198 477 169 477 C159 477 150 486 144 493 C140 497 136 500 130 500 L80 500 C69 500 60 491 60 480 L60 -180 C60 -191 69 -200 80 -200 L170 -200 C181 -200 190 -191 190 -180 L190 -20 C190 2 205 7 220 1 C234 -5 250 -11 280 -11 C385 -11 462 70 470 175 C473 215 473 285 470 325 C462 430 385 511 280 511 L280 511 Z " />
<glyph glyph-name="q" unicode="q" horiz-adv-x="523" d="M334 175 C331 137 307 115 258 115 C210 115 185 142 183 175 C180 215 180 285 183 325 C185 358 210 385 258 385 C307 385 331 360 334 325 C337 285 337 215 334 175 L334 175 Z M243 511 C138 511 61 430 53 325 C50 285 50 215 53 175 C61 70 138 -11 243 -11 C273 -11 289 -5 303 1 C318 7 333 2 333 -20 L333 -180 C333 -191 342 -200 353 -200 L443 -200 C454 -200 463 -191 463 -180 L463 480 C463 491 454 500 443 500 L393 500 C387 500 383 497 379 493 C373 486 364 477 354 477 C325 477 317 511 243 511 L243 511 Z " />
<glyph glyph-name="r" unicode="r" horiz-adv-x="380" d="M355 380 C366 380 375 389 375 400 L375 480 C375 491 366 500 355 500 L321 500 C222 500 209 445 178 445 C161 445 157 470 151 487 C148 495 138 500 130 500 L80 500 C69 500 60 491 60 480 L60 20 C60 9 69 0 80 0 L170 0 C181 0 190 9 190 20 L190 259 C190 340 245 380 320 380 L355 380 Z " />
<glyph glyph-name="s" unicode="s" horiz-adv-x="490" d="M444 350 C444 466 336 511 246 511 C149 511 45 449 45 360 C45 243 164 211 246 200 C292 194 338 188 338 154 C338 123 300 107 246 107 C200 107 162 120 158 159 C156 176 152 184 128 184 L52 184 C41 184 32 175 32 164 C32 38 136 -11 246 -11 C360 -11 458 53 458 152 C458 289 334 302 246 319 C205 327 166 330 166 360 C166 388 201 401 246 401 C283 401 321 388 326 355 C329 334 339 330 349 330 L424 330 C435 330 444 339 444 350 L444 350 Z " />
<glyph glyph-name="t" unicode="t" horiz-adv-x="403" d="M253 497 C247 497 243 501 243 507 L243 660 C243 671 234 680 223 680 L133 680 C122 680 113 671 113 660 L113 507 C113 501 109 497 103 497 L25 497 C14 497 5 488 5 477 L5 397 C5 386 14 377 25 377 L103 377 C109 377 113 373 113 367 L113 183 C113 69 189 0 303 0 L373 0 C384 0 393 9 393 20 L393 105 C393 116 384 125 373 125 L303 125 C267 125 243 152 243 185 L243 367 C243 373 247 377 253 377 L363 377 C374 377 383 386 383 397 L383 477 C383 488 374 497 363 497 L253 497 Z " />
<glyph glyph-name="u" unicode="u" horiz-adv-x="525" d="M55 175 C55 70 140 -11 245 -11 C305 -11 321 20 350 20 C361 20 366 15 372 10 C377 5 383 0 395 0 L445 0 C456 0 465 9 465 20 L465 480 C465 491 456 500 445 500 L355 500 C344 500 335 491 335 480 L335 170 C335 140 307 115 260 115 C212 115 185 141 185 174 L185 480 C185 491 176 500 165 500 L75 500 C64 500 55 491 55 480 L55 175 Z " />
<glyph glyph-name="v" unicode="v" horiz-adv-x="520" d="M265 200 C263 193 255 193 253 200 L155 485 C151 496 145 500 136 500 L36 500 C20 500 13 487 17 477 L189 15 C193 5 199 0 208 0 L314 0 C323 0 329 5 333 15 L503 477 C507 487 500 500 484 500 L384 500 C375 500 369 496 365 485 L265 200 Z " />
<glyph glyph-name="w" unicode="w" horiz-adv-x="715" d="M145 485 C142 496 135 500 126 500 L35 500 C19 500 13 487 16 477 L155 15 C158 5 165 0 174 0 L282 0 C291 0 299 5 301 15 L350 247 C351 251 360 251 361 247 L416 15 C418 5 426 0 435 0 L543 0 C552 0 559 5 562 15 L699 477 C702 487 696 500 680 500 L589 500 C580 500 573 496 570 485 L496 191 C494 184 486 185 485 191 L423 485 C421 496 413 500 404 500 L306 500 C297 500 289 496 287 485 L230 191 C229 184 220 185 219 191 L145 485 Z " />
<glyph glyph-name="x" unicode="x" horiz-adv-x="503" d="M334 10 C337 5 341 0 356 0 L457 0 C476 0 483 16 473 33 L341 249 C336 257 335 262 341 271 L459 467 C469 484 462 500 443 500 L350 500 C335 500 331 495 328 490 L259 365 C255 357 251 357 247 365 L178 490 C175 495 171 500 156 500 L63 500 C44 500 37 484 47 467 L163 271 C169 262 168 257 163 249 L30 33 C20 16 27 0 46 0 L147 0 C162 0 166 5 169 10 L247 152 C251 160 255 160 259 152 L334 10 Z " />
<glyph glyph-name="y" unicode="y" horiz-adv-x="480" d="M148 485 C144 496 138 500 129 500 L26 500 C10 500 3 487 7 477 L173 32 C177 22 176 19 173 10 L103 -177 C99 -187 106 -200 122 -200 L214 -200 C223 -200 229 -196 233 -185 L468 477 C472 487 465 500 449 500 L348 500 C339 500 332 496 329 485 L248 201 C246 193 239 193 236 201 L148 485 Z " />
<glyph glyph-name="z" unicode="z" horiz-adv-x="468" d="M43 141 C30 128 30 123 30 110 L30 20 C30 9 39 0 50 0 L418 0 C429 0 438 9 438 20 L438 100 C438 111 429 120 418 120 L199 120 C193 120 190 125 194 130 L408 352 C418 362 428 375 428 393 L428 480 C428 491 419 500 408 500 L60 500 C49 500 40 491 40 480 L40 400 C40 389 49 380 60 380 L265 380 C271 380 274 375 270 370 L43 141 Z " />
<glyph glyph-name="braceleft" unicode="&#x7b;" horiz-adv-x="416" d="M314 38 C256 38 219 71 219 120 L219 255 C219 289 191 312 178 320 C191 328 219 350 219 385 L220 510 C221 574 269 592 314 592 L356 592 C367 592 376 601 376 612 L376 700 C376 711 367 720 356 720 L314 720 C182 720 89 620 89 510 L89 385 C89 374 80 369 71 365 L60 360 C50 356 40 351 40 340 L40 300 C40 289 50 284 60 280 L71 275 C80 271 89 265 89 255 L89 120 C89 -10 194 -90 314 -90 L356 -90 C367 -90 376 -81 376 -70 L376 18 C376 29 367 38 356 38 L314 38 Z " />
<glyph glyph-name="bar" unicode="&#x7c;" horiz-adv-x="265" d="M195 700 C195 711 186 720 175 720 L90 720 C79 720 70 711 70 700 L70 -50 C70 -61 79 -70 90 -70 L175 -70 C186 -70 195 -61 195 -50 L195 700 Z " />
<glyph glyph-name="braceright" unicode="&#x7d;" horiz-adv-x="416" d="M60 38 C49 38 40 29 40 18 L40 -70 C40 -81 49 -90 60 -90 L102 -90 C222 -90 327 -10 327 120 L327 255 C327 265 336 271 345 275 L356 280 C366 284 376 289 376 300 L376 340 C376 351 366 356 356 360 L345 365 C336 369 327 374 327 385 L327 510 C327 620 234 720 102 720 L60 720 C49 720 40 711 40 700 L40 612 C40 601 49 592 60 592 L102 592 C147 592 195 574 196 510 L197 385 C197 350 225 328 238 320 C225 312 197 289 197 255 L197 120 C197 71 160 38 102 38 L60 38 Z " />
<glyph glyph-name="asciitilde" unicode="&#x7e;" horiz-adv-x="590" d="M181 220 C289 220 305 175 409 175 C459 175 520 200 520 236 L520 316 C520 336 501 338 491 325 C480 311 431 299 409 299 C301 299 285 344 181 344 C131 344 70 319 70 283 L70 203 C70 183 89 181 99 194 C110 208 159 220 181 220 L181 220 Z " />
<glyph glyph-name="exclamdown" unicode="&#xa1;" horiz-adv-x="263" d="M184 -200 C193 -200 200 -192 200 -184 L200 267 C200 275 193 283 184 283 L76 283 C67 283 60 275 60 267 L60 -184 C60 -192 67 -200 76 -200 L184 -200 Z M50 360 C50 349 59 340 70 340 L190 340 C201 340 210 349 210 360 L210 480 C210 491 201 500 190 500 L70 500 C59 500 50 491 50 480 L50 360 Z " />
<glyph glyph-name="cent" unicode="&#xa2;" horiz-adv-x="513" d="M336 500 C327 503 322 508 322 517 L322 550 C322 561 313 570 302 570 L217 570 C206 570 197 561 197 550 L197 517 C197 508 190 505 181 502 C104 476 60 406 50 325 C45 285 45 215 50 175 C60 94 105 24 181 -2 C190 -5 197 -8 197 -17 L197 -50 C197 -61 206 -70 217 -70 L302 -70 C313 -70 322 -61 322 -50 L322 -18 C322 -9 327 -5 337 -1 C410 28 463 94 463 185 C463 196 457 205 446 205 L357 205 C348 205 340 200 338 189 C330 135 302 115 258 115 C207 115 184 140 180 175 C175 215 175 285 180 325 C185 363 207 385 257 385 C303 385 335 360 338 311 C339 300 348 295 357 295 L446 295 C457 295 463 304 463 315 C463 408 409 474 336 500 L336 500 Z " />
<glyph glyph-name="sterling" unicode="&#xa3;" horiz-adv-x="549" d="M342 510 C342 499 351 490 362 490 L453 490 C464 490 473 499 473 510 L473 530 C473 632 390 713 288 713 C186 713 103 632 103 530 L103 424 C103 418 99 414 93 414 L52 414 C41 414 32 405 32 394 L32 319 C32 308 41 299 52 299 L93 299 C99 299 103 293 103 287 L103 217 C103 173 94 132 33 132 C22 132 13 123 13 112 L13 20 C13 9 22 0 34 0 L463 0 C474 0 483 9 483 20 L483 112 C483 123 474 132 463 132 L226 132 C217 132 215 137 219 143 C228 159 236 187 236 244 L236 287 C236 293 240 299 246 299 L365 299 C376 299 385 308 385 319 L385 394 C385 405 376 414 365 414 L245 414 C239 414 235 418 235 424 L235 530 C235 556 252 581 288 581 C324 581 342 556 342 530 L342 510 Z " />
<glyph glyph-name="currency" unicode="&#xa4;" horiz-adv-x="672" d="M513 36 C521 28 533 29 540 37 L605 102 C613 109 614 121 606 129 L526 209 C541 238 550 271 550 307 C550 341 541 374 527 403 L605 482 C613 490 612 502 605 510 L540 575 C532 582 520 583 512 575 L435 498 C405 514 370 523 334 523 C298 523 264 514 235 499 L159 576 C151 584 139 583 132 575 L67 510 C59 503 58 491 66 483 L142 405 C126 376 118 342 118 307 C118 270 127 236 143 206 L67 130 C59 122 60 110 67 102 L132 37 C140 30 152 29 160 37 L237 114 C266 99 299 91 334 91 C370 91 403 100 433 115 L513 36 Z M334 206 C279 206 233 252 233 307 C233 363 279 409 334 409 C390 409 436 363 436 307 C436 252 390 206 334 206 L334 206 Z " />
<glyph glyph-name="yen" unicode="&#xa5;" horiz-adv-x="514" d="M190 214 L190 20 C190 9 199 0 210 0 L304 0 C315 0 324 9 324 20 L324 214 L458 214 C469 214 478 223 478 234 L478 301 C478 312 469 321 458 321 L362 321 L379 363 L458 363 C469 363 478 372 478 383 L478 450 C478 461 469 470 458 470 L422 470 L504 672 C510 687 501 700 488 700 L381 700 C372 700 366 696 362 685 L263 408 C262 405 261 404 258 404 L256 404 C253 404 252 405 251 408 L152 685 C148 696 142 700 133 700 L26 700 C13 700 4 687 10 672 L91 470 L55 470 C44 470 35 461 35 450 L35 383 C35 372 44 363 55 363 L134 363 L151 321 L55 321 C44 321 35 312 35 301 L35 234 C35 223 44 214 55 214 L190 214 Z " />
<glyph glyph-name="brokenbar" unicode="&#xa6;" horiz-adv-x="245" d="M181 287 C181 298 172 307 161 307 L85 307 C74 307 65 298 65 287 L65 20 C65 9 74 0 85 0 L161 0 C172 0 181 9 181 20 L181 287 Z M181 687 C181 698 172 707 161 707 L85 707 C74 707 65 698 65 687 L65 420 C65 409 74 400 85 400 L161 400 C172 400 181 409 181 420 L181 687 Z " />
<glyph glyph-name="section" unicode="&#xa7;" horiz-adv-x="537" d="M187 256 C170 271 165 285 165 298 C165 312 173 327 184 340 C187 343 192 349 203 340 L330 229 C347 214 352 197 352 185 C352 172 344 159 332 147 C329 144 324 138 313 147 L187 256 Z M67 -35 C67 -154 152 -211 251 -211 C342 -211 435 -151 435 -42 C435 -6 426 25 407 50 C446 82 479 130 479 184 C479 239 457 287 414 325 L235 480 C219 493 211 512 211 533 C211 561 234 577 265 577 C300 577 321 554 321 525 L321 511 C321 499 330 490 341 490 L425 490 C436 490 445 499 445 511 L445 525 C445 633 365 702 265 702 C175 702 81 641 81 529 C81 495 91 462 113 431 C70 398 36 355 36 303 C36 240 54 203 98 161 C151 112 223 52 277 5 C291 -8 304 -24 304 -42 C304 -74 282 -87 251 -87 C215 -87 191 -70 191 -35 L191 -11 C191 1 182 10 171 10 L87 10 C76 10 67 1 67 -11 L67 -35 Z " />
<glyph glyph-name="dieresis" unicode="&#xa8;" horiz-adv-x="522" d="M228 690 C228 701 219 710 208 710 L118 710 C107 710 98 701 98 690 L98 600 C98 589 107 580 118 580 L208 580 C219 580 228 589 228 600 L228 690 Z M428 690 C428 701 419 710 408 710 L318 710 C307 710 298 701 298 690 L298 600 C298 589 307 580 318 580 L408 580 C419 580 428 589 428 600 L428 690 Z " />
<glyph glyph-name="copyright" unicode="&#xa9;" horiz-adv-x="800" d="M50 350 C50 157 207 0 400 0 C593 0 750 157 750 350 C750 543 593 700 400 700 C207 700 50 543 50 350 L50 350 Z M400 606 C542 606 656 492 656 350 C656 208 542 93 400 93 C258 93 143 208 143 350 C143 492 258 606 400 606 L400 606 Z M558 298 C558 305 553 312 544 312 L476 312 C468 312 461 307 460 300 C454 258 434 242 399 242 C357 242 340 261 337 290 C334 320 334 376 337 406 C341 436 357 453 398 453 C435 453 458 434 460 396 C461 388 468 384 476 384 L544 384 C553 384 558 391 558 398 C558 495 484 555 399 555 C302 555 247 489 236 406 C232 376 232 320 236 290 C247 207 302 141 399 141 C484 141 558 202 558 298 L558 298 Z " />
<glyph glyph-name="ordfeminine" unicode="&#xaa;" horiz-adv-x="336" d="M192 550 C194 550 196 548 196 546 L196 536 C196 515 168 508 146 508 C128 508 116 515 116 530 C116 535 121 550 138 550 L192 550 Z M158 648 C180 648 196 641 196 621 L196 613 C196 610 194 608 191 608 L130 608 C72 608 44 564 44 530 C44 477 80 447 138 447 C175 447 199 466 208 466 C214 466 215 460 218 456 C220 454 222 453 225 453 L257 453 C262 453 267 457 267 463 L267 618 C267 682 215 708 160 708 C100 708 53 678 53 633 C53 627 58 623 63 623 L106 623 C115 623 116 624 120 632 C127 645 148 648 158 648 L158 648 Z " />
<glyph glyph-name="guillemotleft" unicode="&#xab;" horiz-adv-x="527" d="M56 274 C49 263 49 257 56 246 L152 85 C155 80 162 70 177 70 L257 70 C276 70 285 82 273 103 L188 248 C182 258 182 263 188 272 L273 417 C286 437 276 450 257 450 L177 450 C162 450 155 440 152 435 L56 274 Z M254 274 C247 263 247 257 254 246 L350 85 C353 80 360 70 375 70 L455 70 C474 70 483 82 471 103 L386 248 C380 258 380 263 386 272 L471 417 C483 438 474 450 455 450 L375 450 C360 450 353 440 350 435 L254 274 Z " />
<glyph glyph-name="logicalnot" unicode="&#xac;" horiz-adv-x="530" d="M350 90 C350 79 359 70 370 70 L460 70 C471 70 480 79 480 90 L480 280 C480 291 471 300 460 300 L70 300 C59 300 50 291 50 280 L50 190 C50 179 59 170 70 170 L340 170 C346 170 350 166 350 160 L350 90 Z " />
<glyph glyph-name="registered" unicode="&#xae;" horiz-adv-x="800" d="M50 350 C50 157 207 0 400 0 C593 0 750 157 750 350 C750 543 593 700 400 700 C207 700 50 543 50 350 L50 350 Z M400 606 C542 606 656 492 656 350 C656 208 542 93 400 93 C258 93 143 208 143 350 C143 492 258 606 400 606 L400 606 Z M362 377 C359 377 356 379 356 383 L356 455 C356 459 359 461 362 461 L418 461 C441 461 460 442 460 419 C460 395 441 377 418 377 L362 377 Z M487 312 C530 341 549 372 549 419 C549 487 493 545 423 545 L276 545 C270 545 264 539 264 533 L264 167 C264 160 270 155 276 155 L344 155 C351 155 356 160 356 167 L356 287 C356 291 359 293 362 293 L385 293 C392 293 394 288 396 285 L452 167 C455 160 460 155 470 155 L536 155 C548 155 553 164 548 173 L483 293 C480 301 478 306 487 312 L487 312 Z " />
<glyph glyph-name="macron" unicode="&#xaf;" horiz-adv-x="526" d="M132 694 C121 694 112 685 112 674 L112 616 C112 605 121 596 132 596 L394 596 C405 596 414 605 414 616 L414 674 C414 685 405 694 394 694 L132 694 Z " />
<glyph glyph-name="degree" unicode="&#xb0;" horiz-adv-x="378" d="M36 585 C36 502 102 436 185 436 C267 436 333 502 333 585 C333 667 267 733 185 733 C102 733 36 667 36 585 L36 585 Z M135 585 C135 612 158 634 185 634 C212 634 234 612 234 585 C234 558 212 535 185 535 C158 535 135 558 135 585 L135 585 Z " />
<glyph glyph-name="plusminus" unicode="&#xb1;" horiz-adv-x="540" d="M195 354 C201 354 205 350 205 344 L205 218 C205 207 214 198 225 198 L314 198 C325 198 334 207 334 218 L334 344 C334 350 338 354 344 354 L470 354 C481 354 490 363 490 374 L490 463 C490 474 481 483 470 483 L344 483 C338 483 334 487 334 493 L334 618 C334 629 325 638 314 638 L225 638 C214 638 205 629 205 618 L205 493 C205 487 201 483 195 483 L70 483 C59 483 50 474 50 463 L50 374 C50 363 59 354 70 354 L195 354 Z M73 129 C62 129 53 120 53 109 L53 20 C53 9 62 0 73 0 L467 0 C478 0 487 9 487 20 L487 109 C487 120 478 129 467 129 L73 129 Z " />
<glyph glyph-name="acute" unicode="&#xb4;" horiz-adv-x="514" d="M267 730 C252 730 246 721 241 714 L159 600 C147 584 159 570 172 570 L241 570 C259 570 265 576 271 582 L386 703 C397 715 393 730 374 730 L267 730 Z " />
<glyph glyph-name="uni00B5" unicode="&#xb5;" horiz-adv-x="520" d="M252 -10 C309 -10 319 20 345 20 C367 20 366 0 390 0 L440 0 C451 0 460 9 460 20 L460 480 C460 491 451 500 440 500 L350 500 C339 500 330 491 330 480 L330 170 C330 140 302 115 255 115 C207 115 180 141 180 174 L180 480 C180 491 171 500 160 500 L70 500 C59 500 51 491 51 480 L50 -180 C50 -191 59 -200 70 -200 L160 -200 C171 -200 180 -191 180 -180 L180 -20 C180 2 195 7 210 1 C221 -4 233 -10 252 -10 L252 -10 Z " />
<glyph glyph-name="paragraph" unicode="&#xb6;" horiz-adv-x="627" d="M220 350 L220 -80 C220 -91 229 -100 240 -100 L300 -100 C311 -100 320 -91 320 -80 L320 595 C320 601 324 605 330 605 L390 605 C396 605 400 601 400 595 L400 -80 C400 -91 409 -100 420 -100 L480 -100 C491 -100 500 -91 500 -80 L500 680 C500 691 491 700 480 700 L220 700 C126 700 50 624 50 530 C50 439 122 360 210 360 C216 360 220 356 220 350 L220 350 Z " />
<glyph glyph-name="periodcentered" unicode="&#xb7;" horiz-adv-x="435" d="M302 326 C302 337 293 346 282 346 L139 346 C128 346 119 337 119 326 L119 183 C119 172 128 163 139 163 L282 163 C293 163 302 172 302 183 L302 326 Z " />
<glyph glyph-name="cedilla" unicode="&#xb8;" horiz-adv-x="431" d="M208 -45 C191 -45 181 -52 176 -69 L147 -161 C142 -176 145 -200 177 -200 L239 -200 C256 -200 267 -193 271 -176 L292 -84 C296 -68 294 -45 262 -45 L208 -45 Z " />
<glyph glyph-name="ordmasculine" unicode="&#xba;" horiz-adv-x="523" d="M50 552 C58 483 114 445 165 445 C216 445 272 483 280 552 C282 570 283 583 280 603 C271 676 216 711 165 711 C114 711 59 676 50 603 C47 583 48 570 50 552 L50 552 Z M165 522 C142 522 125 536 121 556 C119 568 119 584 121 597 C125 620 139 634 165 634 C191 634 205 620 209 597 C211 584 211 568 209 556 C205 536 188 522 165 522 L165 522 Z " />
<glyph glyph-name="guillemotright" unicode="&#xbb;" horiz-adv-x="527" d="M375 435 C372 440 365 450 350 450 L270 450 C251 450 242 438 254 417 L339 272 C345 263 345 258 339 248 L254 103 C242 82 251 70 270 70 L350 70 C365 70 372 80 375 85 L471 246 C478 257 478 263 471 274 L375 435 Z M177 435 C174 440 167 450 152 450 L72 450 C53 450 44 438 56 417 L141 272 C147 263 147 258 141 248 L56 103 C44 82 53 70 72 70 L152 70 C167 70 174 80 177 85 L273 246 C280 257 280 263 273 274 L177 435 Z " />
<glyph glyph-name="onequarter" unicode="&#xbc;" horiz-adv-x="690" d="M210 690 C210 695 205 700 200 700 L132 700 C120 700 112 693 107 688 L32 617 C24 610 24 603 24 595 L24 529 C24 519 35 515 41 521 L109 578 C112 581 118 580 118 574 L118 360 C118 354 123 350 128 350 L200 350 C205 350 210 354 210 360 L210 690 Z M591 672 C600 685 588 700 575 700 L510 700 C501 700 494 695 488 685 L61 28 C52 14 64 0 77 0 L144 0 C153 0 159 5 165 15 L591 672 Z M462 141 L509 217 C511 219 515 219 515 215 L515 140 C515 137 513 135 510 135 L465 135 C461 135 460 138 462 141 L462 141 Z M380 153 C376 147 372 141 372 134 L372 65 C372 60 377 55 382 55 L510 55 C513 55 515 53 515 50 L515 10 C515 4 519 0 525 0 L585 0 C590 0 595 4 595 10 L595 50 C595 53 597 55 600 55 L622 55 C628 55 632 60 632 65 L632 125 C632 131 628 135 622 135 L600 135 C597 135 595 137 595 140 L595 340 C595 345 590 350 585 350 L516 350 C511 350 509 348 506 343 L380 153 Z " />
<glyph glyph-name="onehalf" unicode="&#xbd;" horiz-adv-x="710" d="M591 672 C600 685 588 700 575 700 L510 700 C501 700 494 695 488 685 L61 28 C52 14 64 0 77 0 L144 0 C153 0 159 5 165 15 L591 672 Z M132 700 C120 700 112 693 107 688 L32 617 C24 610 24 603 24 595 L24 529 C24 519 35 515 41 521 L109 578 C112 581 118 580 118 574 L118 360 C118 354 123 350 128 350 L200 350 C205 350 210 354 210 360 L210 690 C210 695 205 700 200 700 L132 700 Z M409 233 C409 227 413 223 419 223 L490 223 C496 223 500 227 500 233 L500 251 C500 271 517 278 532 278 C545 278 560 270 560 251 C560 234 544 216 420 86 C418 84 415 81 415 74 L415 10 C415 4 420 0 425 0 L641 0 C647 0 651 4 651 10 L651 75 C651 81 647 85 641 85 L547 85 C538 85 539 92 542 95 C628 176 650 210 650 251 C650 320 589 355 530 355 C472 355 409 316 409 251 L409 233 Z " />
<glyph glyph-name="threequarters" unicode="&#xbe;" horiz-adv-x="700" d="M591 672 C600 685 588 700 575 700 L510 700 C501 700 494 695 488 685 L61 28 C52 14 64 0 77 0 L144 0 C153 0 159 5 165 15 L591 672 Z M462 141 L509 217 C511 219 515 219 515 215 L515 140 C515 137 513 135 510 135 L465 135 C461 135 460 138 462 141 L462 141 Z M380 153 C376 147 372 141 372 134 L372 65 C372 60 377 55 382 55 L510 55 C513 55 515 53 515 50 L515 10 C515 4 519 0 525 0 L585 0 C590 0 595 4 595 10 L595 50 C595 53 597 55 600 55 L622 55 C628 55 632 60 632 65 L632 125 C632 131 628 135 622 135 L600 135 C597 135 595 137 595 140 L595 340 C595 345 590 350 585 350 L516 350 C511 350 509 348 506 343 L380 153 Z M88 459 C88 464 84 469 78 469 L15 469 C10 469 5 464 5 459 L5 454 C5 392 45 344 127 344 C189 344 248 382 248 454 C248 491 228 514 207 526 C204 528 203 533 207 535 C225 545 243 571 243 600 C243 670 186 705 127 705 C52 705 10 659 10 600 L10 593 C10 587 14 583 20 583 L84 583 C89 583 94 587 94 593 L94 600 C94 617 110 630 127 630 C145 630 160 620 160 600 C160 580 150 566 127 566 L121 566 C115 566 111 562 111 556 L111 502 C111 497 115 492 121 492 L127 492 C153 492 164 475 164 454 C164 434 145 421 127 421 C105 421 88 436 88 454 L88 459 Z " />
<glyph glyph-name="questiondown" unicode="&#xbf;" horiz-adv-x="483" d="M170 -6 C170 17 187 44 208 64 C229 84 263 101 285 129 C318 172 313 222 313 253 L313 263 C313 274 304 283 293 283 L193 283 C182 283 173 274 173 263 L173 253 C173 206 165 189 127 161 C83 129 30 70 30 -13 C30 -131 123 -215 241 -215 C357 -215 453 -119 453 -1 L453 14 C453 25 444 34 433 34 L333 34 C322 34 313 25 313 14 L313 -3 C313 -41 286 -76 241 -76 C201 -76 170 -49 170 -6 L170 -6 Z M163 360 C163 349 172 340 183 340 L303 340 C314 340 323 349 323 360 L323 480 C323 491 314 500 303 500 L183 500 C172 500 163 491 163 480 L163 360 Z " />
<glyph glyph-name="Agrave" unicode="&#xc0;" horiz-adv-x="537" d="M314 273 L222 273 C216 273 212 276 214 284 L262 524 C263 527 264 528 267 528 L269 528 C272 528 273 527 274 524 L322 284 C324 276 320 273 314 273 L314 273 Z M389 15 C392 6 399 0 408 0 L513 0 C529 0 535 11 533 20 L355 685 C353 694 345 700 336 700 L202 700 C193 700 185 694 183 685 L4 20 C2 11 8 0 24 0 L129 0 C138 0 146 6 148 15 L176 118 C178 127 182 133 191 133 L343 133 C352 133 356 126 358 118 L389 15 Z M125 910 C106 910 102 895 113 883 L228 762 C234 756 240 750 258 750 L327 750 C340 750 352 764 340 780 L258 894 C253 901 247 910 232 910 L125 910 Z " />
<glyph glyph-name="Aacute" unicode="&#xc1;" horiz-adv-x="537" d="M314 273 L222 273 C216 273 212 276 214 284 L262 524 C263 527 264 528 267 528 L269 528 C272 528 273 527 274 524 L322 284 C324 276 320 273 314 273 L314 273 Z M389 15 C392 6 399 0 408 0 L513 0 C529 0 535 11 533 20 L355 685 C353 694 345 700 336 700 L202 700 C193 700 185 694 183 685 L4 20 C2 11 8 0 24 0 L129 0 C138 0 146 6 148 15 L176 118 C178 127 182 133 191 133 L343 133 C352 133 356 126 358 118 L389 15 Z M322 910 C307 910 301 901 296 894 L214 780 C202 764 214 750 227 750 L296 750 C314 750 320 756 326 762 L441 883 C452 895 448 910 429 910 L322 910 Z " />
<glyph glyph-name="Acircumflex" unicode="&#xc2;" horiz-adv-x="537" d="M314 273 L222 273 C216 273 212 276 214 284 L262 524 C263 527 264 528 267 528 L269 528 C272 528 273 527 274 524 L322 284 C324 276 320 273 314 273 L314 273 Z M389 15 C392 6 399 0 408 0 L513 0 C529 0 535 11 533 20 L355 685 C353 694 345 700 336 700 L202 700 C193 700 185 694 183 685 L4 20 C2 11 8 0 24 0 L129 0 C138 0 146 6 148 15 L176 118 C178 127 182 133 191 133 L343 133 C352 133 356 126 358 118 L389 15 Z M270 810 C274 816 280 816 284 810 L319 766 C324 759 335 750 350 750 L444 750 C462 750 463 769 457 775 L338 898 C332 904 326 910 309 910 L247 910 C229 910 223 904 217 898 L98 775 C92 769 92 750 109 750 L204 750 C219 750 230 759 235 766 L270 810 Z " />
<glyph glyph-name="Atilde" unicode="&#xc3;" horiz-adv-x="537" d="M314 273 L222 273 C216 273 212 276 214 284 L262 524 C263 527 264 528 267 528 L269 528 C272 528 273 527 274 524 L322 284 C324 276 320 273 314 273 L314 273 Z M389 15 C392 6 399 0 408 0 L513 0 C529 0 535 11 533 20 L355 685 C353 694 345 700 336 700 L202 700 C193 700 185 694 183 685 L4 20 C2 11 8 0 24 0 L129 0 C138 0 146 6 148 15 L176 118 C178 127 182 133 191 133 L343 133 C352 133 356 126 358 118 L389 15 Z M367 864 C299 864 251 889 187 889 C147 889 116 864 116 838 L116 778 C116 759 133 755 141 764 C152 777 165 785 187 785 C255 785 303 760 367 760 C407 760 438 785 438 811 L438 871 C438 890 421 895 413 885 C405 875 392 864 367 864 L367 864 Z " />
<glyph glyph-name="Adieresis" unicode="&#xc4;" horiz-adv-x="537" d="M314 273 L222 273 C216 273 212 276 214 284 L262 524 C263 527 264 528 267 528 L269 528 C272 528 273 527 274 524 L322 284 C324 276 320 273 314 273 L314 273 Z M389 15 C392 6 399 0 408 0 L513 0 C529 0 535 11 533 20 L355 685 C353 694 345 700 336 700 L202 700 C193 700 185 694 183 685 L4 20 C2 11 8 0 24 0 L129 0 C138 0 146 6 148 15 L176 118 C178 127 182 133 191 133 L343 133 C352 133 356 126 358 118 L389 15 Z M242 870 C242 881 233 890 222 890 L132 890 C121 890 112 881 112 870 L112 780 C112 769 121 760 132 760 L222 760 C233 760 242 769 242 780 L242 870 Z M442 870 C442 881 433 890 422 890 L332 890 C321 890 312 881 312 870 L312 780 C312 769 321 760 332 760 L422 760 C433 760 442 769 442 780 L442 870 Z " />
<glyph glyph-name="Aring" unicode="&#xc5;" horiz-adv-x="537" d="M314 273 L222 273 C216 273 212 276 214 284 L262 524 C263 527 264 528 267 528 L269 528 C272 528 273 527 274 524 L322 284 C324 276 320 273 314 273 L314 273 Z M389 15 C392 6 399 0 408 0 L513 0 C529 0 535 11 533 20 L355 685 C353 694 345 700 336 700 L202 700 C193 700 185 694 183 685 L4 20 C2 11 8 0 24 0 L129 0 C138 0 146 6 148 15 L176 118 C178 127 182 133 191 133 L343 133 C352 133 356 126 358 118 L389 15 Z M162 850 C162 786 214 734 278 734 C342 734 393 786 393 850 C393 914 342 965 278 965 C214 965 162 914 162 850 L162 850 Z M246 850 C246 869 259 882 278 882 C297 882 310 869 310 850 C310 831 297 818 278 818 C259 818 246 831 246 850 L246 850 Z " />
<glyph glyph-name="AE" unicode="&#xc6;" horiz-adv-x="775" d="M214 700 C193 700 182 683 180 674 L4 20 C2 11 8 0 24 0 L129 0 C138 0 146 6 148 15 L176 118 C178 127 182 133 191 133 L313 133 C322 133 328 126 328 118 L328 20 C328 9 337 0 348 0 L715 0 C726 0 735 9 735 20 L735 120 C735 131 726 140 715 140 L478 140 C472 140 468 144 468 150 L468 270 C468 276 472 280 478 280 L703 280 C714 280 723 289 723 300 L723 400 C723 411 714 420 703 420 L478 420 C472 420 468 424 468 430 L468 550 C468 556 472 560 478 560 L711 560 C722 560 731 569 731 580 L731 680 C731 691 722 700 711 700 L214 700 Z M328 550 L328 284 C328 276 324 273 318 273 L222 273 C216 273 212 276 214 284 L268 550 C269 554 272 560 281 560 L318 560 C324 560 328 556 328 550 L328 550 Z " />
<glyph glyph-name="Ccedilla" unicode="&#xc7;" horiz-adv-x="569" d="M529 218 C529 229 520 238 509 238 L409 238 C398 238 389 228 389 217 L389 216 C389 173 350 130 291 130 C230 130 199 166 194 210 C184 294 184 406 194 490 C199 534 230 570 291 570 C354 570 389 524 389 483 L389 482 C389 471 398 462 409 462 L509 462 C520 462 529 472 529 482 L529 483 C529 616 429 711 291 711 C153 711 67 610 53 490 C43 406 43 294 53 210 C67 90 153 -11 291 -11 C429 -11 529 83 529 217 L529 218 Z M276 -45 C259 -45 249 -52 244 -69 L215 -161 C210 -176 213 -200 245 -200 L307 -200 C324 -200 335 -193 339 -176 L360 -84 C364 -68 362 -45 330 -45 L276 -45 Z " />
<glyph glyph-name="Egrave" unicode="&#xc8;" horiz-adv-x="512" d="M205 270 C205 276 209 280 215 280 L440 280 C451 280 460 289 460 300 L460 400 C460 411 451 420 440 420 L215 420 C209 420 205 424 205 430 L205 550 C205 556 209 560 215 560 L448 560 C459 560 468 569 468 580 L468 680 C468 691 459 700 448 700 L85 700 C74 700 65 691 65 680 L65 20 C65 9 74 0 85 0 L452 0 C463 0 472 9 472 20 L472 120 C472 131 463 140 452 140 L215 140 C209 140 205 144 205 150 L205 270 Z M106 910 C87 910 83 895 94 883 L209 762 C215 756 221 750 239 750 L308 750 C321 750 333 764 321 780 L239 894 C234 901 228 910 213 910 L106 910 Z " />
<glyph glyph-name="Eacute" unicode="&#xc9;" horiz-adv-x="512" d="M205 270 C205 276 209 280 215 280 L440 280 C451 280 460 289 460 300 L460 400 C460 411 451 420 440 420 L215 420 C209 420 205 424 205 430 L205 550 C205 556 209 560 215 560 L448 560 C459 560 468 569 468 580 L468 680 C468 691 459 700 448 700 L85 700 C74 700 65 691 65 680 L65 20 C65 9 74 0 85 0 L452 0 C463 0 472 9 472 20 L472 120 C472 131 463 140 452 140 L215 140 C209 140 205 144 205 150 L205 270 Z M314 910 C299 910 293 901 288 894 L206 780 C194 764 206 750 219 750 L288 750 C306 750 312 756 318 762 L433 883 C444 895 440 910 421 910 L314 910 Z " />
<glyph glyph-name="Ecircumflex" unicode="&#xca;" horiz-adv-x="512" d="M205 270 C205 276 209 280 215 280 L440 280 C451 280 460 289 460 300 L460 400 C460 411 451 420 440 420 L215 420 C209 420 205 424 205 430 L205 550 C205 556 209 560 215 560 L448 560 C459 560 468 569 468 580 L468 680 C468 691 459 700 448 700 L85 700 C74 700 65 691 65 680 L65 20 C65 9 74 0 85 0 L452 0 C463 0 472 9 472 20 L472 120 C472 131 463 140 452 140 L215 140 C209 140 205 144 205 150 L205 270 Z M251 810 C255 816 261 816 265 810 L300 766 C305 759 316 750 331 750 L425 750 C443 750 444 769 438 775 L319 898 C313 904 307 910 290 910 L228 910 C210 910 204 904 198 898 L79 775 C73 769 73 750 90 750 L185 750 C200 750 211 759 216 766 L251 810 Z " />
<glyph glyph-name="Edieresis" unicode="&#xcb;" horiz-adv-x="512" d="M205 270 C205 276 209 280 215 280 L440 280 C451 280 460 289 460 300 L460 400 C460 411 451 420 440 420 L215 420 C209 420 205 424 205 430 L205 550 C205 556 209 560 215 560 L448 560 C459 560 468 569 468 580 L468 680 C468 691 459 700 448 700 L85 700 C74 700 65 691 65 680 L65 20 C65 9 74 0 85 0 L452 0 C463 0 472 9 472 20 L472 120 C472 131 463 140 452 140 L215 140 C209 140 205 144 205 150 L205 270 Z M239 870 C239 881 230 890 219 890 L129 890 C118 890 109 881 109 870 L109 780 C109 769 118 760 129 760 L219 760 C230 760 239 769 239 780 L239 870 Z M439 870 C439 881 430 890 419 890 L329 890 C318 890 309 881 309 870 L309 780 C309 769 318 760 329 760 L419 760 C430 760 439 769 439 780 L439 870 Z " />
<glyph glyph-name="Igrave" unicode="&#xcc;" horiz-adv-x="270" d="M205 680 C205 691 196 700 185 700 L85 700 C74 700 65 691 65 680 L65 20 C65 9 74 0 85 0 L185 0 C196 0 205 9 205 20 L205 680 Z M-12 910 C-31 910 -35 895 -24 883 L91 762 C97 756 103 750 121 750 L190 750 C203 750 215 764 203 780 L121 894 C116 901 110 910 95 910 L-12 910 Z " />
<glyph glyph-name="Iacute" unicode="&#xcd;" horiz-adv-x="270" d="M205 680 C205 691 196 700 185 700 L85 700 C74 700 65 691 65 680 L65 20 C65 9 74 0 85 0 L185 0 C196 0 205 9 205 20 L205 680 Z M185 910 C170 910 164 901 159 894 L77 780 C65 764 77 750 90 750 L159 750 C177 750 183 756 189 762 L304 883 C315 895 311 910 292 910 L185 910 Z " />
<glyph glyph-name="Icircumflex" unicode="&#xce;" horiz-adv-x="270" d="M205 680 C205 691 196 700 185 700 L85 700 C74 700 65 691 65 680 L65 20 C65 9 74 0 85 0 L185 0 C196 0 205 9 205 20 L205 680 Z M128 810 C132 816 138 816 142 810 L177 766 C182 759 193 750 208 750 L302 750 C320 750 321 769 315 775 L196 898 C190 904 184 910 167 910 L105 910 C87 910 81 904 75 898 L-44 775 C-50 769 -50 750 -33 750 L62 750 C77 750 88 759 93 766 L128 810 Z " />
<glyph glyph-name="Idieresis" unicode="&#xcf;" horiz-adv-x="270" d="M205 680 C205 691 196 700 185 700 L85 700 C74 700 65 691 65 680 L65 20 C65 9 74 0 85 0 L185 0 C196 0 205 9 205 20 L205 680 Z M105 870 C105 881 96 890 85 890 L-5 890 C-16 890 -25 881 -25 870 L-25 780 C-25 769 -16 760 -5 760 L85 760 C96 760 105 769 105 780 L105 870 Z M305 870 C305 881 296 890 285 890 L195 890 C184 890 175 881 175 870 L175 780 C175 769 184 760 195 760 L285 760 C296 760 305 769 305 780 L305 870 Z " />
<glyph glyph-name="Eth" unicode="&#xd0;" horiz-adv-x="571" d="M205 270 C205 276 209 280 215 280 L295 280 C306 280 315 289 315 300 L315 400 C315 411 306 420 295 420 L215 420 C209 420 205 424 205 430 L205 550 C205 556 209 560 215 560 L295 560 C341 560 372 523 377 479 C387 395 387 305 377 221 C372 177 341 140 295 140 L215 140 C209 140 205 144 205 150 L205 270 Z M85 700 C74 700 65 691 65 680 L65 430 C65 424 61 420 55 420 L18 420 C7 420 -2 411 -2 400 L-2 300 C-2 289 7 280 18 280 L55 280 C61 280 65 276 65 270 L65 20 C65 9 74 0 85 0 L295 0 C418 0 504 101 518 221 C528 305 528 395 518 479 C504 599 418 700 295 700 L85 700 Z " />
<glyph glyph-name="Ntilde" unicode="&#xd1;" horiz-adv-x="580" d="M495 0 C506 0 515 9 515 20 L515 680 C515 691 506 700 495 700 L395 700 C384 700 375 691 375 680 L375 304 C375 298 368 296 366 302 L229 682 C226 691 219 700 204 700 L85 700 C74 700 65 691 65 680 L65 20 C65 9 74 0 85 0 L185 0 C196 0 205 9 205 20 L205 366 C205 372 212 374 214 368 L350 17 C353 9 360 0 377 0 L495 0 Z M395 864 C327 864 279 889 215 889 C175 889 144 864 144 838 L144 778 C144 759 161 755 169 764 C180 777 193 785 215 785 C283 785 331 760 395 760 C435 760 466 785 466 811 L466 871 C466 890 449 895 441 885 C433 875 420 864 395 864 L395 864 Z " />
<glyph glyph-name="Ograve" unicode="&#xd2;" horiz-adv-x="582" d="M291 130 C230 130 199 166 194 210 C184 294 184 406 194 490 C199 534 230 570 291 570 C352 570 383 534 388 490 C398 406 398 294 388 210 C383 166 352 130 291 130 L291 130 Z M291 711 C153 711 67 610 53 490 C43 406 43 294 53 210 C67 90 153 -11 291 -11 C429 -11 515 90 529 210 C539 294 539 406 529 490 C515 610 429 711 291 711 L291 711 Z M144 910 C125 910 121 895 132 883 L247 762 C253 756 259 750 277 750 L346 750 C359 750 371 764 359 780 L277 894 C272 901 266 910 251 910 L144 910 Z " />
<glyph glyph-name="Oacute" unicode="&#xd3;" horiz-adv-x="582" d="M291 130 C230 130 199 166 194 210 C184 294 184 406 194 490 C199 534 230 570 291 570 C352 570 383 534 388 490 C398 406 398 294 388 210 C383 166 352 130 291 130 L291 130 Z M291 711 C153 711 67 610 53 490 C43 406 43 294 53 210 C67 90 153 -11 291 -11 C429 -11 515 90 529 210 C539 294 539 406 529 490 C515 610 429 711 291 711 L291 711 Z M341 910 C326 910 320 901 315 894 L233 780 C221 764 233 750 246 750 L315 750 C333 750 339 756 345 762 L460 883 C471 895 467 910 448 910 L341 910 Z " />
<glyph glyph-name="Ocircumflex" unicode="&#xd4;" horiz-adv-x="582" d="M291 130 C230 130 199 166 194 210 C184 294 184 406 194 490 C199 534 230 570 291 570 C352 570 383 534 388 490 C398 406 398 294 388 210 C383 166 352 130 291 130 L291 130 Z M291 711 C153 711 67 610 53 490 C43 406 43 294 53 210 C67 90 153 -11 291 -11 C429 -11 515 90 529 210 C539 294 539 406 529 490 C515 610 429 711 291 711 L291 711 Z M288 810 C292 816 298 816 302 810 L337 766 C342 759 353 750 368 750 L462 750 C480 750 481 769 475 775 L356 898 C350 904 344 910 327 910 L265 910 C247 910 241 904 235 898 L116 775 C110 769 110 750 127 750 L222 750 C237 750 248 759 253 766 L288 810 Z " />
<glyph glyph-name="Otilde" unicode="&#xd5;" horiz-adv-x="582" d="M291 130 C230 130 199 166 194 210 C184 294 184 406 194 490 C199 534 230 570 291 570 C352 570 383 534 388 490 C398 406 398 294 388 210 C383 166 352 130 291 130 L291 130 Z M291 711 C153 711 67 610 53 490 C43 406 43 294 53 210 C67 90 153 -11 291 -11 C429 -11 515 90 529 210 C539 294 539 406 529 490 C515 610 429 711 291 711 L291 711 Z M386 864 C318 864 270 889 206 889 C166 889 135 864 135 838 L135 778 C135 759 152 755 160 764 C171 777 184 785 206 785 C274 785 322 760 386 760 C426 760 457 785 457 811 L457 871 C457 890 440 895 432 885 C424 875 411 864 386 864 L386 864 Z " />
<glyph glyph-name="Odieresis" unicode="&#xd6;" horiz-adv-x="582" d="M291 130 C230 130 199 166 194 210 C184 294 184 406 194 490 C199 534 230 570 291 570 C352 570 383 534 388 490 C398 406 398 294 388 210 C383 166 352 130 291 130 L291 130 Z M291 711 C153 711 67 610 53 490 C43 406 43 294 53 210 C67 90 153 -11 291 -11 C429 -11 515 90 529 210 C539 294 539 406 529 490 C515 610 429 711 291 711 L291 711 Z M261 870 C261 881 252 890 241 890 L151 890 C140 890 131 881 131 870 L131 780 C131 769 140 760 151 760 L241 760 C252 760 261 769 261 780 L261 870 Z M461 870 C461 881 452 890 441 890 L351 890 C340 890 331 881 331 870 L331 780 C331 769 340 760 351 760 L441 760 C452 760 461 769 461 780 L461 870 Z " />
<glyph glyph-name="multiply" unicode="&#xd7;" horiz-adv-x="506" d="M119 53 C126 46 140 45 147 53 L245 152 C249 156 255 156 259 152 L358 53 C366 45 379 45 387 53 L450 116 C457 123 457 136 450 144 L351 243 C346 247 346 253 351 257 L450 356 C457 364 457 377 450 384 L387 447 C379 455 366 455 358 447 L259 348 C255 344 249 344 245 348 L147 447 C140 455 126 454 119 447 L56 384 C48 376 48 363 56 355 L154 257 C158 253 158 247 154 243 L56 145 C48 137 48 124 56 116 L119 53 Z " />
<glyph glyph-name="Oslash" unicode="&#xd8;" horiz-adv-x="592" d="M153 24 C157 31 161 27 163 26 C199 2 244 -11 296 -11 C434 -11 520 90 534 210 C544 294 544 406 534 490 C529 526 519 560 502 590 C501 593 496 596 502 606 L542 672 C550 685 539 700 526 700 L462 700 C453 700 449 695 443 685 L438 678 C432 669 427 674 423 676 C388 698 345 711 296 711 C158 711 72 610 58 490 C48 406 48 294 58 210 C62 175 72 141 89 111 C90 109 94 105 88 96 L47 28 C39 14 50 0 63 0 L127 0 C136 0 142 5 148 15 L153 24 Z M296 130 C270 130 250 136 234 147 C232 148 229 151 232 156 L392 421 C396 428 399 423 399 418 C402 349 400 272 393 210 C388 166 357 130 296 130 L296 130 Z M296 570 C320 570 340 564 355 554 C357 553 361 550 356 541 L199 281 C195 274 192 278 192 282 C189 351 191 428 199 490 C204 534 235 570 296 570 L296 570 Z " />
<glyph glyph-name="Ugrave" unicode="&#xd9;" horiz-adv-x="582" d="M528 680 C528 691 519 700 508 700 L407 700 C396 700 387 691 387 680 L387 210 C387 166 351 130 290 130 C231 130 195 166 195 210 L195 680 C195 691 186 700 175 700 L74 700 C63 700 54 691 54 680 L54 210 C54 89 154 -11 290 -11 C428 -11 528 89 528 210 L528 680 Z M145 910 C126 910 122 895 133 883 L248 762 C254 756 260 750 278 750 L347 750 C360 750 372 764 360 780 L278 894 C273 901 267 910 252 910 L145 910 Z " />
<glyph glyph-name="Uacute" unicode="&#xda;" horiz-adv-x="582" d="M528 680 C528 691 519 700 508 700 L407 700 C396 700 387 691 387 680 L387 210 C387 166 351 130 290 130 C231 130 195 166 195 210 L195 680 C195 691 186 700 175 700 L74 700 C63 700 54 691 54 680 L54 210 C54 89 154 -11 290 -11 C428 -11 528 89 528 210 L528 680 Z M342 910 C327 910 321 901 316 894 L234 780 C222 764 234 750 247 750 L316 750 C334 750 340 756 346 762 L461 883 C472 895 468 910 449 910 L342 910 Z " />
<glyph glyph-name="Ucircumflex" unicode="&#xdb;" horiz-adv-x="582" d="M528 680 C528 691 519 700 508 700 L407 700 C396 700 387 691 387 680 L387 210 C387 166 351 130 290 130 C231 130 195 166 195 210 L195 680 C195 691 186 700 175 700 L74 700 C63 700 54 691 54 680 L54 210 C54 89 154 -11 290 -11 C428 -11 528 89 528 210 L528 680 Z M289 810 C293 816 299 816 303 810 L338 766 C343 759 354 750 369 750 L463 750 C481 750 482 769 476 775 L357 898 C351 904 345 910 328 910 L266 910 C248 910 242 904 236 898 L117 775 C111 769 111 750 128 750 L223 750 C238 750 249 759 254 766 L289 810 Z " />
<glyph glyph-name="Udieresis" unicode="&#xdc;" horiz-adv-x="582" d="M528 680 C528 691 519 700 508 700 L407 700 C396 700 387 691 387 680 L387 210 C387 166 351 130 290 130 C231 130 195 166 195 210 L195 680 C195 691 186 700 175 700 L74 700 C63 700 54 691 54 680 L54 210 C54 89 154 -11 290 -11 C428 -11 528 89 528 210 L528 680 Z M262 870 C262 881 253 890 242 890 L152 890 C141 890 132 881 132 870 L132 780 C132 769 141 760 152 760 L242 760 C253 760 262 769 262 780 L262 870 Z M462 870 C462 881 453 890 442 890 L352 890 C341 890 332 881 332 870 L332 780 C332 769 341 760 352 760 L442 760 C453 760 462 769 462 780 L462 870 Z " />
<glyph glyph-name="Yacute" unicode="&#xdd;" horiz-adv-x="518" d="M157 685 C153 696 147 700 138 700 L28 700 C15 700 6 687 12 672 L189 226 L189 20 C189 9 198 0 209 0 L309 0 C320 0 329 9 329 20 L329 226 L506 672 C512 687 503 700 490 700 L380 700 C371 700 365 696 361 685 L265 408 C263 402 255 402 253 408 L157 685 Z M302 910 C287 910 281 901 276 894 L194 780 C182 764 194 750 207 750 L276 750 C294 750 300 756 306 762 L421 883 C432 895 428 910 409 910 L302 910 Z " />
<glyph glyph-name="Thorn" unicode="&#xde;" horiz-adv-x="540" d="M495 380 C495 495 400 590 285 590 L215 590 C209 590 205 594 205 600 L205 680 C205 691 196 700 185 700 L85 700 C74 700 65 691 65 680 L65 20 C65 9 74 0 85 0 L185 0 C196 0 205 9 205 20 L205 110 C205 116 209 120 215 120 L285 120 C400 120 495 214 495 330 L495 380 Z M355 330 C355 291 323 260 285 260 L215 260 C209 260 205 264 205 270 L205 440 C205 446 209 450 215 450 L285 450 C323 450 355 418 355 380 L355 330 Z " />
<glyph glyph-name="germandbls" unicode="&#xdf;" horiz-adv-x="537" d="M279 0 C402 0 502 80 502 208 C502 267 477 315 442 351 C434 359 435 365 441 373 C469 407 492 451 492 501 C492 618 397 709 279 709 C162 709 65 618 65 501 L65 20 C65 9 74 0 85 0 L176 0 C187 0 196 9 196 20 L196 501 C196 549 229 578 279 578 C329 578 362 546 362 501 C362 455 325 422 279 422 L267 422 C256 422 247 413 247 402 L247 313 C247 302 256 293 267 293 L279 293 C331 293 371 265 371 208 C371 156 331 131 279 131 L263 131 C252 131 243 122 243 111 L243 20 C243 9 252 0 263 0 L279 0 Z " />
<glyph glyph-name="agrave" unicode="&#xe0;" horiz-adv-x="512" d="M322 204 C328 204 332 200 332 194 L332 170 C332 118 288 101 231 101 C195 101 165 117 165 154 C165 169 173 204 216 204 L322 204 Z M250 397 C294 397 327 377 327 336 L327 320 C327 314 323 310 317 310 L215 310 C100 310 43 223 43 154 C43 49 115 -11 231 -11 C305 -11 333 27 351 27 C364 27 365 15 371 7 C375 2 379 0 385 0 L435 0 C446 0 455 9 455 20 L455 330 C455 446 376 511 255 511 C135 511 62 439 62 360 C62 349 71 340 82 340 L154 340 C172 340 177 342 181 359 C188 391 229 397 250 397 L250 397 Z M115 730 C96 730 92 715 103 703 L218 582 C224 576 230 570 248 570 L317 570 C330 570 342 584 330 600 L248 714 C243 721 237 730 222 730 L115 730 Z " />
<glyph glyph-name="aacute" unicode="&#xe1;" horiz-adv-x="512" d="M322 204 C328 204 332 200 332 194 L332 170 C332 118 288 101 231 101 C195 101 165 117 165 154 C165 169 173 204 216 204 L322 204 Z M250 397 C294 397 327 377 327 336 L327 320 C327 314 323 310 317 310 L215 310 C100 310 43 223 43 154 C43 49 115 -11 231 -11 C305 -11 333 27 351 27 C364 27 365 15 371 7 C375 2 379 0 385 0 L435 0 C446 0 455 9 455 20 L455 330 C455 446 376 511 255 511 C135 511 62 439 62 360 C62 349 71 340 82 340 L154 340 C172 340 177 342 181 359 C188 391 229 397 250 397 L250 397 Z M303 730 C288 730 282 721 277 714 L195 600 C183 584 195 570 208 570 L277 570 C295 570 301 576 307 582 L422 703 C433 715 429 730 410 730 L303 730 Z " />
<glyph glyph-name="acircumflex" unicode="&#xe2;" horiz-adv-x="512" d="M322 204 C328 204 332 200 332 194 L332 170 C332 118 288 101 231 101 C195 101 165 117 165 154 C165 169 173 204 216 204 L322 204 Z M250 397 C294 397 327 377 327 336 L327 320 C327 314 323 310 317 310 L215 310 C100 310 43 223 43 154 C43 49 115 -11 231 -11 C305 -11 333 27 351 27 C364 27 365 15 371 7 C375 2 379 0 385 0 L435 0 C446 0 455 9 455 20 L455 330 C455 446 376 511 255 511 C135 511 62 439 62 360 C62 349 71 340 82 340 L154 340 C172 340 177 342 181 359 C188 391 229 397 250 397 L250 397 Z M250 630 C254 636 260 636 264 630 L299 586 C304 579 315 570 330 570 L424 570 C442 570 443 589 437 595 L318 718 C312 724 306 730 289 730 L227 730 C209 730 203 724 197 718 L78 595 C72 589 72 570 89 570 L184 570 C199 570 210 579 215 586 L250 630 Z " />
<glyph glyph-name="atilde" unicode="&#xe3;" horiz-adv-x="512" d="M322 204 C328 204 332 200 332 194 L332 170 C332 118 288 101 231 101 C195 101 165 117 165 154 C165 169 173 204 216 204 L322 204 Z M250 397 C294 397 327 377 327 336 L327 320 C327 314 323 310 317 310 L215 310 C100 310 43 223 43 154 C43 49 115 -11 231 -11 C305 -11 333 27 351 27 C364 27 365 15 371 7 C375 2 379 0 385 0 L435 0 C446 0 455 9 455 20 L455 330 C455 446 376 511 255 511 C135 511 62 439 62 360 C62 349 71 340 82 340 L154 340 C172 340 177 342 181 359 C188 391 229 397 250 397 L250 397 Z M348 684 C280 684 232 709 168 709 C128 709 97 684 97 658 L97 598 C97 579 114 575 122 584 C133 597 146 605 168 605 C236 605 284 580 348 580 C388 580 419 605 419 631 L419 691 C419 710 402 715 394 705 C386 695 373 684 348 684 L348 684 Z " />
<glyph glyph-name="adieresis" unicode="&#xe4;" horiz-adv-x="512" d="M322 204 C328 204 332 200 332 194 L332 170 C332 118 288 101 231 101 C195 101 165 117 165 154 C165 169 173 204 216 204 L322 204 Z M250 397 C294 397 327 377 327 336 L327 320 C327 314 323 310 317 310 L215 310 C100 310 43 223 43 154 C43 49 115 -11 231 -11 C305 -11 333 27 351 27 C364 27 365 15 371 7 C375 2 379 0 385 0 L435 0 C446 0 455 9 455 20 L455 330 C455 446 376 511 255 511 C135 511 62 439 62 360 C62 349 71 340 82 340 L154 340 C172 340 177 342 181 359 C188 391 229 397 250 397 L250 397 Z M223 690 C223 701 214 710 203 710 L113 710 C102 710 93 701 93 690 L93 600 C93 589 102 580 113 580 L203 580 C214 580 223 589 223 600 L223 690 Z M423 690 C423 701 414 710 403 710 L313 710 C302 710 293 701 293 690 L293 600 C293 589 302 580 313 580 L403 580 C414 580 423 589 423 600 L423 690 Z " />
<glyph glyph-name="aring" unicode="&#xe5;" horiz-adv-x="512" d="M322 204 C328 204 332 200 332 194 L332 170 C332 118 288 101 231 101 C195 101 165 117 165 154 C165 169 173 204 216 204 L322 204 Z M250 397 C294 397 327 377 327 336 L327 320 C327 314 323 310 317 310 L215 310 C100 310 43 223 43 154 C43 49 115 -11 231 -11 C305 -11 333 27 351 27 C364 27 365 15 371 7 C375 2 379 0 385 0 L435 0 C446 0 455 9 455 20 L455 330 C455 446 376 511 255 511 C135 511 62 439 62 360 C62 349 71 340 82 340 L154 340 C172 340 177 342 181 359 C188 391 229 397 250 397 L250 397 Z M146 670 C146 606 198 554 262 554 C326 554 377 606 377 670 C377 734 326 785 262 785 C198 785 146 734 146 670 L146 670 Z M230 670 C230 689 243 702 262 702 C281 702 294 689 294 670 C294 651 281 638 262 638 C243 638 230 651 230 670 L230 670 Z " />
<glyph glyph-name="ae" unicode="&#xe6;" horiz-adv-x="814" d="M336 194 L336 170 C336 118 292 101 235 101 C199 101 169 117 169 154 C169 169 177 204 220 204 L326 204 C332 204 336 200 336 194 L336 194 Z M424 463 C414 454 402 456 394 463 C357 494 307 511 259 511 C139 511 66 439 66 360 C66 349 75 340 86 340 L158 340 C176 340 181 342 185 359 C192 391 233 397 254 397 C298 397 331 377 331 336 L331 320 C331 314 327 310 321 310 L219 310 C104 310 47 223 47 154 C47 49 119 -11 235 -11 C302 -11 351 8 389 34 C401 42 414 45 427 34 C461 6 505 -11 560 -11 C671 -11 744 55 762 149 C765 163 755 169 745 169 L662 169 C653 169 644 165 639 152 C626 120 599 106 560 106 C512 106 472 140 472 195 C472 204 478 210 487 210 L744 210 C755 210 764 219 764 230 L764 313 C764 440 680 511 560 511 C504 511 458 493 424 463 L424 463 Z M560 393 C603 393 645 370 645 319 C645 313 641 310 635 310 L483 310 C477 310 473 313 473 319 C473 357 503 393 560 393 L560 393 Z " />
<glyph glyph-name="ccedilla" unicode="&#xe7;" horiz-adv-x="498" d="M333 189 C325 135 298 119 254 119 C203 119 180 140 176 175 C171 215 171 285 176 325 C181 363 203 381 253 381 C299 381 330 360 333 311 C334 300 343 295 352 295 L441 295 C452 295 458 304 458 315 C458 439 364 511 254 511 C131 511 59 430 46 325 C41 285 41 215 46 175 C59 70 131 -11 254 -11 C364 -11 458 63 458 185 C458 196 452 205 441 205 L352 205 C343 205 335 200 333 189 L333 189 Z M229 -45 C212 -45 202 -52 197 -69 L168 -161 C163 -176 166 -200 198 -200 L260 -200 C277 -200 288 -193 292 -176 L313 -84 C317 -68 315 -45 283 -45 L229 -45 Z " />
<glyph glyph-name="egrave" unicode="&#xe8;" horiz-adv-x="499" d="M253 393 C296 393 338 373 338 330 C338 324 334 321 328 321 L176 321 C170 321 166 324 166 330 C166 368 196 393 253 393 L253 393 Z M437 210 C448 210 457 219 457 230 L457 313 C457 440 373 511 253 511 C131 511 59 430 46 325 C41 285 41 215 46 175 C59 70 131 -11 253 -11 C364 -11 432 54 455 147 C459 163 448 169 438 169 L355 169 C346 169 337 165 332 152 C319 120 292 110 253 110 C205 110 165 140 165 195 C165 204 171 210 180 210 L437 210 Z M117 730 C98 730 94 715 105 703 L220 582 C226 576 232 570 250 570 L319 570 C332 570 344 584 332 600 L250 714 C245 721 239 730 224 730 L117 730 Z " />
<glyph glyph-name="eacute" unicode="&#xe9;" horiz-adv-x="499" d="M253 393 C296 393 338 373 338 330 C338 324 334 321 328 321 L176 321 C170 321 166 324 166 330 C166 368 196 393 253 393 L253 393 Z M437 210 C448 210 457 219 457 230 L457 313 C457 440 373 511 253 511 C131 511 59 430 46 325 C41 285 41 215 46 175 C59 70 131 -11 253 -11 C364 -11 432 54 455 147 C459 163 448 169 438 169 L355 169 C346 169 337 165 332 152 C319 120 292 110 253 110 C205 110 165 140 165 195 C165 204 171 210 180 210 L437 210 Z M305 730 C290 730 284 721 279 714 L197 600 C185 584 197 570 210 570 L279 570 C297 570 303 576 309 582 L424 703 C435 715 431 730 412 730 L305 730 Z " />
<glyph glyph-name="ecircumflex" unicode="&#xea;" horiz-adv-x="499" d="M253 393 C296 393 338 373 338 330 C338 324 334 321 328 321 L176 321 C170 321 166 324 166 330 C166 368 196 393 253 393 L253 393 Z M437 210 C448 210 457 219 457 230 L457 313 C457 440 373 511 253 511 C131 511 59 430 46 325 C41 285 41 215 46 175 C59 70 131 -11 253 -11 C364 -11 432 54 455 147 C459 163 448 169 438 169 L355 169 C346 169 337 165 332 152 C319 120 292 110 253 110 C205 110 165 140 165 195 C165 204 171 210 180 210 L437 210 Z M252 630 C256 636 262 636 266 630 L301 586 C306 579 317 570 332 570 L426 570 C444 570 445 589 439 595 L320 718 C314 724 308 730 291 730 L229 730 C211 730 205 724 199 718 L80 595 C74 589 74 570 91 570 L186 570 C201 570 212 579 217 586 L252 630 Z " />
<glyph glyph-name="edieresis" unicode="&#xeb;" horiz-adv-x="499" d="M253 393 C296 393 338 373 338 330 C338 324 334 321 328 321 L176 321 C170 321 166 324 166 330 C166 368 196 393 253 393 L253 393 Z M437 210 C448 210 457 219 457 230 L457 313 C457 440 373 511 253 511 C131 511 59 430 46 325 C41 285 41 215 46 175 C59 70 131 -11 253 -11 C364 -11 432 54 455 147 C459 163 448 169 438 169 L355 169 C346 169 337 165 332 152 C319 120 292 110 253 110 C205 110 165 140 165 195 C165 204 171 210 180 210 L437 210 Z M231 690 C231 701 222 710 211 710 L121 710 C110 710 101 701 101 690 L101 600 C101 589 110 580 121 580 L211 580 C222 580 231 589 231 600 L231 690 Z M431 690 C431 701 422 710 411 710 L321 710 C310 710 301 701 301 690 L301 600 C301 589 310 580 321 580 L411 580 C422 580 431 589 431 600 L431 690 Z " />
<glyph glyph-name="igrave" unicode="&#xec;" horiz-adv-x="270" d="M-17 730 C-36 730 -40 715 -29 703 L86 582 C92 576 98 570 116 570 L185 570 C198 570 210 584 198 600 L116 714 C111 721 105 730 90 730 L-17 730 Z M200 484 C200 492 193 500 184 500 L86 500 C77 500 70 492 70 484 L70 16 C70 8 77 0 86 0 L184 0 C193 0 200 8 200 16 L200 484 Z " />
<glyph glyph-name="iacute" unicode="&#xed;" horiz-adv-x="270" d="M170 730 C155 730 149 721 144 714 L62 600 C50 584 62 570 75 570 L144 570 C162 570 168 576 174 582 L289 703 C300 715 296 730 277 730 L170 730 Z M200 484 C200 492 193 500 184 500 L86 500 C77 500 70 492 70 484 L70 16 C70 8 77 0 86 0 L184 0 C193 0 200 8 200 16 L200 484 Z " />
<glyph glyph-name="icircumflex" unicode="&#xee;" horiz-adv-x="270" d="M200 484 C200 492 193 500 184 500 L86 500 C77 500 70 492 70 484 L70 16 C70 8 77 0 86 0 L184 0 C193 0 200 8 200 16 L200 484 Z M128 630 C132 636 138 636 142 630 L177 586 C182 579 193 570 208 570 L302 570 C320 570 321 589 315 595 L196 718 C190 724 184 730 167 730 L105 730 C87 730 81 724 75 718 L-44 595 C-50 589 -50 570 -33 570 L62 570 C77 570 88 579 93 586 L128 630 Z " />
<glyph glyph-name="idieresis" unicode="&#xef;" horiz-adv-x="270" d="M100 690 C100 701 91 710 80 710 L-10 710 C-21 710 -30 701 -30 690 L-30 600 C-30 589 -21 580 -10 580 L80 580 C91 580 100 589 100 600 L100 690 Z M300 690 C300 701 291 710 280 710 L190 710 C179 710 170 701 170 690 L170 600 C170 589 179 580 190 580 L280 580 C291 580 300 589 300 600 L300 690 Z M200 484 C200 492 193 500 184 500 L86 500 C77 500 70 492 70 484 L70 16 C70 8 77 0 86 0 L184 0 C193 0 200 8 200 16 L200 484 Z " />
<glyph glyph-name="eth" unicode="&#xf0;" horiz-adv-x="550" d="M250 335 C302 335 335 297 339 245 C340 230 340 220 339 206 C335 154 302 120 250 120 C198 120 165 154 161 206 C160 220 160 230 161 245 C165 297 198 335 250 335 L250 335 Z M339 663 C304 688 262 700 214 700 L148 700 C137 700 128 691 128 680 L128 590 C128 579 137 570 148 570 L211 570 C216 570 222 566 213 560 C198 550 198 543 198 532 L198 492 C198 477 216 471 226 478 L293 524 C296 526 300 526 303 520 C312 504 319 486 319 463 C319 449 307 444 296 450 C283 457 262 460 250 460 C127 460 27 366 27 243 L27 208 C27 85 110 -11 250 -11 C392 -11 454 86 468 206 C478 290 472 410 452 480 C441 518 429 559 412 586 C410 589 413 593 417 596 L432 606 C441 613 445 617 445 630 L445 691 C445 704 429 712 420 705 L348 664 C344 661 341 662 339 663 L339 663 Z " />
<glyph glyph-name="ntilde" unicode="&#xf1;" horiz-adv-x="525" d="M470 325 C470 430 390 511 285 511 C225 511 204 476 175 476 C161 476 156 486 148 493 C144 497 139 500 130 500 L80 500 C69 500 60 491 60 480 L60 20 C60 9 69 0 80 0 L170 0 C181 0 190 9 190 20 L190 330 C190 360 218 385 265 385 C313 385 340 359 340 326 L340 20 C340 9 349 0 360 0 L450 0 C461 0 470 9 470 20 L470 325 Z M352 684 C284 684 236 709 172 709 C132 709 101 684 101 658 L101 598 C101 579 118 575 126 584 C137 597 150 605 172 605 C240 605 288 580 352 580 C392 580 423 605 423 631 L423 691 C423 710 406 715 398 705 C390 695 377 684 352 684 L352 684 Z " />
<glyph glyph-name="ograve" unicode="&#xf2;" horiz-adv-x="507" d="M176 325 C182 363 203 381 253 381 C304 381 326 358 331 325 C337 285 337 215 331 175 C326 142 304 119 253 119 C203 119 181 140 176 175 C170 215 170 285 176 325 L176 325 Z M46 175 C59 70 131 -11 254 -11 C376 -11 448 70 461 175 C466 215 466 285 461 325 C448 430 376 511 253 511 C131 511 59 430 46 325 C41 285 41 215 46 175 L46 175 Z M109 730 C90 730 86 715 97 703 L212 582 C218 576 224 570 242 570 L311 570 C324 570 336 584 324 600 L242 714 C237 721 231 730 216 730 L109 730 Z " />
<glyph glyph-name="oacute" unicode="&#xf3;" horiz-adv-x="507" d="M176 325 C182 363 203 381 253 381 C304 381 326 358 331 325 C337 285 337 215 331 175 C326 142 304 119 253 119 C203 119 181 140 176 175 C170 215 170 285 176 325 L176 325 Z M46 175 C59 70 131 -11 254 -11 C376 -11 448 70 461 175 C466 215 466 285 461 325 C448 430 376 511 253 511 C131 511 59 430 46 325 C41 285 41 215 46 175 L46 175 Z M307 730 C292 730 286 721 281 714 L199 600 C187 584 199 570 212 570 L281 570 C299 570 305 576 311 582 L426 703 C437 715 433 730 414 730 L307 730 Z " />
<glyph glyph-name="ocircumflex" unicode="&#xf4;" horiz-adv-x="507" d="M176 325 C182 363 203 381 253 381 C304 381 326 358 331 325 C337 285 337 215 331 175 C326 142 304 119 253 119 C203 119 181 140 176 175 C170 215 170 285 176 325 L176 325 Z M46 175 C59 70 131 -11 254 -11 C376 -11 448 70 461 175 C466 215 466 285 461 325 C448 430 376 511 253 511 C131 511 59 430 46 325 C41 285 41 215 46 175 L46 175 Z M254 630 C258 636 264 636 268 630 L303 586 C308 579 319 570 334 570 L428 570 C446 570 447 589 441 595 L322 718 C316 724 310 730 293 730 L231 730 C213 730 207 724 201 718 L82 595 C76 589 76 570 93 570 L188 570 C203 570 214 579 219 586 L254 630 Z " />
<glyph glyph-name="otilde" unicode="&#xf5;" horiz-adv-x="507" d="M176 325 C182 363 203 381 253 381 C304 381 326 358 331 325 C337 285 337 215 331 175 C326 142 304 119 253 119 C203 119 181 140 176 175 C170 215 170 285 176 325 L176 325 Z M46 175 C59 70 131 -11 254 -11 C376 -11 448 70 461 175 C466 215 466 285 461 325 C448 430 376 511 253 511 C131 511 59 430 46 325 C41 285 41 215 46 175 L46 175 Z M351 684 C283 684 235 709 171 709 C131 709 100 684 100 658 L100 598 C100 579 117 575 125 584 C136 597 149 605 171 605 C239 605 287 580 351 580 C391 580 422 605 422 631 L422 691 C422 710 405 715 397 705 C389 695 376 684 351 684 L351 684 Z " />
<glyph glyph-name="odieresis" unicode="&#xf6;" horiz-adv-x="507" d="M176 325 C182 363 203 381 253 381 C304 381 326 358 331 325 C337 285 337 215 331 175 C326 142 304 119 253 119 C203 119 181 140 176 175 C170 215 170 285 176 325 L176 325 Z M46 175 C59 70 131 -11 254 -11 C376 -11 448 70 461 175 C466 215 466 285 461 325 C448 430 376 511 253 511 C131 511 59 430 46 325 C41 285 41 215 46 175 L46 175 Z M227 690 C227 701 218 710 207 710 L117 710 C106 710 97 701 97 690 L97 600 C97 589 106 580 117 580 L207 580 C218 580 227 589 227 600 L227 690 Z M427 690 C427 701 418 710 407 710 L317 710 C306 710 297 701 297 690 L297 600 C297 589 306 580 317 580 L407 580 C418 580 427 589 427 600 L427 690 Z " />
<glyph glyph-name="divide" unicode="&#xf7;" horiz-adv-x="550" d="M223 143 C212 143 203 134 203 123 L203 20 C203 9 212 0 223 0 L326 0 C337 0 346 9 346 20 L346 123 C346 134 337 143 326 143 L223 143 Z M346 480 C346 491 337 500 326 500 L223 500 C212 500 203 491 203 480 L203 377 C203 366 212 357 223 357 L326 357 C337 357 346 366 346 377 L346 480 Z M500 291 C500 302 491 311 480 311 L70 311 C59 311 50 302 50 291 L50 212 C50 201 59 192 70 192 L480 192 C491 192 500 201 500 212 L500 291 Z " />
<glyph glyph-name="oslash" unicode="&#xf8;" horiz-adv-x="523" d="M492 472 C502 484 492 500 479 500 L415 500 C406 500 399 494 391 485 L387 481 C382 476 379 479 377 480 C346 499 307 511 261 511 C139 511 67 430 54 325 C49 285 49 215 54 175 C57 149 65 123 75 101 C76 99 79 95 73 87 L25 28 C15 16 23 0 36 0 L102 0 C111 0 119 4 126 13 L132 20 C137 26 142 23 144 21 C176 0 214 -11 262 -11 C384 -11 456 70 469 175 C474 215 474 285 469 325 C465 353 457 380 445 404 C444 406 442 408 446 413 L492 472 Z M339 175 C334 142 312 119 261 119 C247 119 235 121 225 124 C222 125 217 128 223 135 L336 275 C341 282 343 277 343 273 C344 238 343 200 339 175 L339 175 Z M184 325 C190 363 211 381 261 381 C273 381 285 380 294 377 C297 376 302 374 297 368 L188 231 C182 223 179 229 179 233 C178 266 180 301 184 325 L184 325 Z " />
<glyph glyph-name="ugrave" unicode="&#xf9;" horiz-adv-x="525" d="M55 175 C55 70 140 -11 245 -11 C305 -11 321 20 350 20 C361 20 366 15 372 10 C377 5 383 0 395 0 L445 0 C456 0 465 9 465 20 L465 480 C465 491 456 500 445 500 L355 500 C344 500 335 491 335 480 L335 170 C335 140 307 115 260 115 C212 115 185 141 185 174 L185 480 C185 491 176 500 165 500 L75 500 C64 500 55 491 55 480 L55 175 Z M108 730 C89 730 85 715 96 703 L211 582 C217 576 223 570 241 570 L310 570 C323 570 335 584 323 600 L241 714 C236 721 230 730 215 730 L108 730 Z " />
<glyph glyph-name="uacute" unicode="&#xfa;" horiz-adv-x="525" d="M55 175 C55 70 140 -11 245 -11 C305 -11 321 20 350 20 C361 20 366 15 372 10 C377 5 383 0 395 0 L445 0 C456 0 465 9 465 20 L465 480 C465 491 456 500 445 500 L355 500 C344 500 335 491 335 480 L335 170 C335 140 307 115 260 115 C212 115 185 141 185 174 L185 480 C185 491 176 500 165 500 L75 500 C64 500 55 491 55 480 L55 175 Z M305 730 C290 730 284 721 279 714 L197 600 C185 584 197 570 210 570 L279 570 C297 570 303 576 309 582 L424 703 C435 715 431 730 412 730 L305 730 Z " />
<glyph glyph-name="ucircumflex" unicode="&#xfb;" horiz-adv-x="525" d="M55 175 C55 70 140 -11 245 -11 C305 -11 321 20 350 20 C361 20 366 15 372 10 C377 5 383 0 395 0 L445 0 C456 0 465 9 465 20 L465 480 C465 491 456 500 445 500 L355 500 C344 500 335 491 335 480 L335 170 C335 140 307 115 260 115 C212 115 185 141 185 174 L185 480 C185 491 176 500 165 500 L75 500 C64 500 55 491 55 480 L55 175 Z M252 630 C256 636 262 636 266 630 L301 586 C306 579 317 570 332 570 L426 570 C444 570 445 589 439 595 L320 718 C314 724 308 730 291 730 L229 730 C211 730 205 724 199 718 L80 595 C74 589 74 570 91 570 L186 570 C201 570 212 579 217 586 L252 630 Z " />
<glyph glyph-name="udieresis" unicode="&#xfc;" horiz-adv-x="525" d="M55 175 C55 70 140 -11 245 -11 C305 -11 321 20 350 20 C361 20 366 15 372 10 C377 5 383 0 395 0 L445 0 C456 0 465 9 465 20 L465 480 C465 491 456 500 445 500 L355 500 C344 500 335 491 335 480 L335 170 C335 140 307 115 260 115 C212 115 185 141 185 174 L185 480 C185 491 176 500 165 500 L75 500 C64 500 55 491 55 480 L55 175 Z M225 690 C225 701 216 710 205 710 L115 710 C104 710 95 701 95 690 L95 600 C95 589 104 580 115 580 L205 580 C216 580 225 589 225 600 L225 690 Z M425 690 C425 701 416 710 405 710 L315 710 C304 710 295 701 295 690 L295 600 C295 589 304 580 315 580 L405 580 C416 580 425 589 425 600 L425 690 Z " />
<glyph glyph-name="yacute" unicode="&#xfd;" horiz-adv-x="485" d="M148 485 C144 496 138 500 129 500 L26 500 C10 500 3 487 7 477 L173 32 C177 22 176 19 173 10 L103 -177 C99 -187 106 -200 122 -200 L214 -200 C223 -200 229 -196 233 -185 L468 477 C472 487 465 500 449 500 L348 500 C339 500 332 496 329 485 L248 201 C246 193 239 193 236 201 L148 485 Z M303 730 C288 730 282 721 277 714 L195 600 C183 584 195 570 208 570 L277 570 C295 570 301 576 307 582 L422 703 C433 715 429 730 410 730 L303 730 Z " />
<glyph glyph-name="thorn" unicode="&#xfe;" horiz-adv-x="502" d="M184 690 C184 701 175 710 164 710 L74 710 C63 710 54 701 54 690 L54 -180 C54 -191 63 -200 74 -200 L164 -200 C175 -200 184 -191 184 -180 L184 -24 C184 -2 199 3 214 -3 C228 -9 244 -15 274 -15 C379 -15 456 70 464 175 C467 215 467 285 464 325 C456 430 379 515 274 515 C244 515 228 509 214 503 C199 497 184 502 184 524 L184 690 Z M334 175 C332 142 307 115 259 115 C210 115 186 137 183 175 C180 215 180 285 183 325 C186 360 210 385 259 385 C307 385 332 358 334 325 C337 285 337 215 334 175 L334 175 Z " />
<glyph glyph-name="ydieresis" unicode="&#xff;" horiz-adv-x="485" d="M148 485 C144 496 138 500 129 500 L26 500 C10 500 3 487 7 477 L173 32 C177 22 176 19 173 10 L103 -177 C99 -187 106 -200 122 -200 L214 -200 C223 -200 229 -196 233 -185 L468 477 C472 487 465 500 449 500 L348 500 C339 500 332 496 329 485 L248 201 C246 193 239 193 236 201 L148 485 Z M212 690 C212 701 203 710 192 710 L102 710 C91 710 82 701 82 690 L82 600 C82 589 91 580 102 580 L192 580 C203 580 212 589 212 600 L212 690 Z M412 690 C412 701 403 710 392 710 L302 710 C291 710 282 701 282 690 L282 600 C282 589 291 580 302 580 L392 580 C403 580 412 589 412 600 L412 690 Z " />
<glyph glyph-name="Amacron" unicode="&#x100;" horiz-adv-x="537" d="M314 273 L222 273 C216 273 212 276 214 284 L262 524 C263 527 264 528 267 528 L269 528 C272 528 273 527 274 524 L322 284 C324 276 320 273 314 273 L314 273 Z M389 15 C392 6 399 0 408 0 L513 0 C529 0 535 11 533 20 L355 685 C353 694 345 700 336 700 L202 700 C193 700 185 694 183 685 L4 20 C2 11 8 0 24 0 L129 0 C138 0 146 6 148 15 L176 118 C178 127 182 133 191 133 L343 133 C352 133 356 126 358 118 L389 15 Z M136 858 C125 858 116 849 116 838 L116 780 C116 769 125 760 136 760 L398 760 C409 760 418 769 418 780 L418 838 C418 849 409 858 398 858 L136 858 Z " />
<glyph glyph-name="amacron" unicode="&#x101;" horiz-adv-x="512" d="M322 204 C328 204 332 200 332 194 L332 170 C332 118 288 101 231 101 C195 101 165 117 165 154 C165 169 173 204 216 204 L322 204 Z M250 397 C294 397 327 377 327 336 L327 320 C327 314 323 310 317 310 L215 310 C100 310 43 223 43 154 C43 49 115 -11 231 -11 C305 -11 333 27 351 27 C364 27 365 15 371 7 C375 2 379 0 385 0 L435 0 C446 0 455 9 455 20 L455 330 C455 446 376 511 255 511 C135 511 62 439 62 360 C62 349 71 340 82 340 L154 340 C172 340 177 342 181 359 C188 391 229 397 250 397 L250 397 Z M137 694 C126 694 117 685 117 674 L117 616 C117 605 126 596 137 596 L399 596 C410 596 419 605 419 616 L419 674 C419 685 410 694 399 694 L137 694 Z " />
<glyph glyph-name="Abreve" unicode="&#x102;" horiz-adv-x="537" d="M314 273 L222 273 C216 273 212 276 214 284 L262 524 C263 527 264 528 267 528 L269 528 C272 528 273 527 274 524 L322 284 C324 276 320 273 314 273 L314 273 Z M389 15 C392 6 399 0 408 0 L513 0 C529 0 535 11 533 20 L355 685 C353 694 345 700 336 700 L202 700 C193 700 185 694 183 685 L4 20 C2 11 8 0 24 0 L129 0 C138 0 146 6 148 15 L176 118 C178 127 182 133 191 133 L343 133 C352 133 356 126 358 118 L389 15 Z M328 886 C328 855 299 830 268 830 C237 830 207 855 207 886 C207 895 200 903 190 903 L127 903 C118 903 110 895 110 886 C110 809 172 740 268 740 C363 740 425 809 425 886 C425 895 417 903 408 903 L345 903 C335 903 328 895 328 886 L328 886 Z " />
<glyph glyph-name="abreve" unicode="&#x103;" horiz-adv-x="512" d="M322 204 C328 204 332 200 332 194 L332 170 C332 118 288 101 231 101 C195 101 165 117 165 154 C165 169 173 204 216 204 L322 204 Z M250 397 C294 397 327 377 327 336 L327 320 C327 314 323 310 317 310 L215 310 C100 310 43 223 43 154 C43 49 115 -11 231 -11 C305 -11 333 27 351 27 C364 27 365 15 371 7 C375 2 379 0 385 0 L435 0 C446 0 455 9 455 20 L455 330 C455 446 376 511 255 511 C135 511 62 439 62 360 C62 349 71 340 82 340 L154 340 C172 340 177 342 181 359 C188 391 229 397 250 397 L250 397 Z M328 713 C328 682 299 657 268 657 C237 657 207 682 207 713 C207 722 200 730 190 730 L127 730 C118 730 110 722 110 713 C110 636 172 567 268 567 C363 567 425 636 425 713 C425 722 417 730 408 730 L345 730 C335 730 328 722 328 713 L328 713 Z " />
<glyph glyph-name="Aogonek" unicode="&#x104;" horiz-adv-x="538" d="M533 20 L355 685 C353 694 345 700 336 700 L202 700 C193 700 185 694 183 685 L4 20 C2 11 8 0 24 0 L129 0 C138 0 146 6 148 15 L176 118 C178 127 182 133 191 133 L343 133 C352 133 356 126 358 118 L383 33 C357 6 336 -28 336 -65 C336 -157 395 -220 515 -220 C526 -220 535 -211 535 -200 L535 -140 C535 -129 526 -120 515 -120 C477 -120 454 -95 454 -61 C454 -30 478 0 513 0 C529 0 535 11 533 20 L533 20 Z M322 284 C324 276 320 273 314 273 L222 273 C216 273 212 276 214 284 L262 524 C263 527 264 528 267 528 L269 528 C272 528 273 527 274 524 L322 284 Z " />
<glyph glyph-name="aogonek" unicode="&#x105;" horiz-adv-x="512" d="M435 0 C446 0 455 9 455 20 L455 330 C455 446 376 511 255 511 C135 511 62 439 62 360 C62 349 71 340 82 340 L154 340 C172 340 177 342 181 359 C188 391 229 397 250 397 C294 397 327 377 327 336 L327 320 C327 314 323 310 317 310 L215 310 C100 310 43 223 43 154 C43 49 115 -11 231 -11 C248 -11 268 -9 281 -6 C270 -20 261 -46 261 -70 C261 -168 331 -220 425 -220 C436 -220 445 -211 445 -200 L445 -140 C445 -129 436 -120 425 -120 C398 -120 375 -93 375 -60 C375 -28 393 0 424 0 L435 0 Z M322 204 C328 204 332 200 332 194 L332 170 C332 118 288 101 231 101 C195 101 165 117 165 154 C165 169 173 204 216 204 L322 204 Z " />
<glyph glyph-name="Cacute" unicode="&#x106;" horiz-adv-x="569" d="M529 218 C529 229 520 238 509 238 L409 238 C398 238 389 228 389 217 L389 216 C389 173 350 130 291 130 C230 130 199 166 194 210 C184 294 184 406 194 490 C199 534 230 570 291 570 C354 570 389 524 389 483 L389 482 C389 471 398 462 409 462 L509 462 C520 462 529 472 529 482 L529 483 C529 616 429 711 291 711 C153 711 67 610 53 490 C43 406 43 294 53 210 C67 90 153 -11 291 -11 C429 -11 529 83 529 217 L529 218 Z M342 910 C327 910 321 901 316 894 L234 780 C222 764 234 750 247 750 L316 750 C334 750 340 756 346 762 L461 883 C472 895 468 910 449 910 L342 910 Z " />
<glyph glyph-name="cacute" unicode="&#x107;" horiz-adv-x="498" d="M302 730 C287 730 281 721 276 714 L194 600 C182 584 194 570 207 570 L276 570 C294 570 300 576 306 582 L421 703 C432 715 428 730 409 730 L302 730 Z M333 189 C325 135 298 119 254 119 C203 119 180 140 176 175 C171 215 171 285 176 325 C181 363 203 381 253 381 C299 381 330 360 333 311 C334 300 343 295 352 295 L441 295 C452 295 458 304 458 315 C458 439 364 511 254 511 C131 511 59 430 46 325 C41 285 41 215 46 175 C59 70 131 -11 254 -11 C364 -11 458 63 458 185 C458 196 452 205 441 205 L352 205 C343 205 335 200 333 189 L333 189 Z " />
<glyph glyph-name="Ccircumflex" unicode="&#x108;" horiz-adv-x="569" d="M529 218 C529 229 520 238 509 238 L409 238 C398 238 389 228 389 217 L389 216 C389 173 350 130 291 130 C230 130 199 166 194 210 C184 294 184 406 194 490 C199 534 230 570 291 570 C354 570 389 524 389 483 L389 482 C389 471 398 462 409 462 L509 462 C520 462 529 472 529 482 L529 483 C529 616 429 711 291 711 C153 711 67 610 53 490 C43 406 43 294 53 210 C67 90 153 -11 291 -11 C429 -11 529 83 529 217 L529 218 Z M290 810 C294 816 300 816 304 810 L339 766 C344 759 355 750 370 750 L464 750 C482 750 483 769 477 775 L358 898 C352 904 346 910 329 910 L267 910 C249 910 243 904 237 898 L118 775 C112 769 112 750 129 750 L224 750 C239 750 250 759 255 766 L290 810 Z " />
<glyph glyph-name="ccircumflex" unicode="&#x109;" horiz-adv-x="498" d="M333 189 C325 135 298 119 254 119 C203 119 180 140 176 175 C171 215 171 285 176 325 C181 363 203 381 253 381 C299 381 330 360 333 311 C334 300 343 295 352 295 L441 295 C452 295 458 304 458 315 C458 439 364 511 254 511 C131 511 59 430 46 325 C41 285 41 215 46 175 C59 70 131 -11 254 -11 C364 -11 458 63 458 185 C458 196 452 205 441 205 L352 205 C343 205 335 200 333 189 L333 189 Z M251 630 C255 636 261 636 265 630 L300 586 C305 579 316 570 331 570 L425 570 C443 570 444 589 438 595 L319 718 C313 724 307 730 290 730 L228 730 C210 730 204 724 198 718 L79 595 C73 589 73 570 90 570 L185 570 C200 570 211 579 216 586 L251 630 Z " />
<glyph glyph-name="Cdotaccent" unicode="&#x10a;" horiz-adv-x="569" d="M529 218 C529 229 520 238 509 238 L409 238 C398 238 389 228 389 217 L389 216 C389 173 350 130 291 130 C230 130 199 166 194 210 C184 294 184 406 194 490 C199 534 230 570 291 570 C354 570 389 524 389 483 L389 482 C389 471 398 462 409 462 L509 462 C520 462 529 472 529 482 L529 483 C529 616 429 711 291 711 C153 711 67 610 53 490 C43 406 43 294 53 210 C67 90 153 -11 291 -11 C429 -11 529 83 529 217 L529 218 Z M367 874 C367 882 360 890 351 890 L243 890 C234 890 227 882 227 874 L227 766 C227 757 234 750 243 750 L351 750 C360 750 367 757 367 766 L367 874 Z " />
<glyph glyph-name="cdotaccent" unicode="&#x10b;" horiz-adv-x="498" d="M333 189 C325 135 298 119 254 119 C203 119 180 140 176 175 C171 215 171 285 176 325 C181 363 203 381 253 381 C299 381 330 360 333 311 C334 300 343 295 352 295 L441 295 C452 295 458 304 458 315 C458 439 364 511 254 511 C131 511 59 430 46 325 C41 285 41 215 46 175 C59 70 131 -11 254 -11 C364 -11 458 63 458 185 C458 196 452 205 441 205 L352 205 C343 205 335 200 333 189 L333 189 Z M328 694 C328 702 321 710 312 710 L204 710 C195 710 188 702 188 694 L188 586 C188 577 195 570 204 570 L312 570 C321 570 328 577 328 586 L328 694 Z " />
<glyph glyph-name="Ccaron" unicode="&#x10c;" horiz-adv-x="569" d="M529 218 C529 229 520 238 509 238 L409 238 C398 238 389 228 389 217 L389 216 C389 173 350 130 291 130 C230 130 199 166 194 210 C184 294 184 406 194 490 C199 534 230 570 291 570 C354 570 389 524 389 483 L389 482 C389 471 398 462 409 462 L509 462 C520 462 529 472 529 482 L529 483 C529 616 429 711 291 711 C153 711 67 610 53 490 C43 406 43 294 53 210 C67 90 153 -11 291 -11 C429 -11 529 83 529 217 L529 218 Z M251 894 C246 901 235 910 220 910 L125 910 C108 910 108 891 114 885 L233 762 C239 756 245 750 263 750 L325 750 C342 750 348 756 354 762 L473 885 C479 891 478 910 460 910 L366 910 C351 910 340 901 335 894 L300 850 C296 844 290 844 286 850 L251 894 Z " />
<glyph glyph-name="ccaron" unicode="&#x10d;" horiz-adv-x="498" d="M333 189 C325 135 298 119 254 119 C203 119 180 140 176 175 C171 215 171 285 176 325 C181 363 203 381 253 381 C299 381 330 360 333 311 C334 300 343 295 352 295 L441 295 C452 295 458 304 458 315 C458 439 364 511 254 511 C131 511 59 430 46 325 C41 285 41 215 46 175 C59 70 131 -11 254 -11 C364 -11 458 63 458 185 C458 196 452 205 441 205 L352 205 C343 205 335 200 333 189 L333 189 Z M218 714 C213 721 202 730 187 730 L92 730 C75 730 75 711 81 705 L200 582 C206 576 212 570 230 570 L292 570 C309 570 315 576 321 582 L440 705 C446 711 445 730 427 730 L333 730 C318 730 307 721 302 714 L267 670 C263 664 257 664 253 670 L218 714 Z " />
<glyph glyph-name="Dcaron" unicode="&#x10e;" horiz-adv-x="571" d="M295 560 C341 560 372 523 377 479 C387 395 387 305 377 221 C372 177 341 140 295 140 L215 140 C209 140 205 144 205 150 L205 550 C205 556 209 560 215 560 L295 560 Z M85 700 C74 700 65 691 65 680 L65 20 C65 9 74 0 85 0 L295 0 C418 0 504 101 518 221 C528 305 528 395 518 479 C504 599 418 700 295 700 L85 700 Z M231 894 C226 901 215 910 200 910 L105 910 C88 910 88 891 94 885 L213 762 C219 756 225 750 243 750 L305 750 C322 750 328 756 334 762 L453 885 C459 891 458 910 440 910 L346 910 C331 910 320 901 315 894 L280 850 C276 844 270 844 266 850 L231 894 Z " />
<glyph glyph-name="dcaron" unicode="&#x10f;" horiz-adv-x="594" d="M175 325 C177 358 202 385 250 385 C299 385 323 363 326 325 C329 285 329 215 326 175 C323 140 299 115 250 115 C202 115 177 142 175 175 C172 215 172 285 175 325 L175 325 Z M235 -11 C309 -11 317 23 346 23 C356 23 365 14 371 7 C375 3 379 0 385 0 L435 0 C446 0 455 9 455 20 L455 690 C455 701 446 710 435 710 L345 710 C334 710 325 701 325 690 L325 520 C325 498 310 493 295 499 C281 505 265 511 235 511 C130 511 53 430 45 325 C42 285 42 215 45 175 C53 70 130 -11 235 -11 L235 -11 Z M566 440 L576 440 C596 440 604 451 610 460 L644 514 C656 532 666 557 666 583 L666 680 C666 691 657 700 646 700 L546 700 C535 700 526 691 526 680 L526 580 C526 569 535 560 546 560 L570 560 C576 560 583 554 579 547 L545 478 C536 460 546 440 566 440 L566 440 Z " />
<glyph glyph-name="Dcroat" unicode="&#x110;" horiz-adv-x="571" d="M205 270 C205 276 209 280 215 280 L295 280 C306 280 315 289 315 300 L315 400 C315 411 306 420 295 420 L215 420 C209 420 205 424 205 430 L205 550 C205 556 209 560 215 560 L295 560 C341 560 372 523 377 479 C387 395 387 305 377 221 C372 177 341 140 295 140 L215 140 C209 140 205 144 205 150 L205 270 Z M85 700 C74 700 65 691 65 680 L65 430 C65 424 61 420 55 420 L18 420 C7 420 -2 411 -2 400 L-2 300 C-2 289 7 280 18 280 L55 280 C61 280 65 276 65 270 L65 20 C65 9 74 0 85 0 L295 0 C418 0 504 101 518 221 C528 305 528 395 518 479 C504 599 418 700 295 700 L85 700 Z " />
<glyph glyph-name="dcroat" unicode="&#x111;" horiz-adv-x="533" d="M183 325 C185 358 210 385 258 385 C307 385 331 363 334 325 C337 285 337 215 334 175 C331 140 307 115 258 115 C210 115 185 142 183 175 C180 215 180 285 183 325 L183 325 Z M463 690 C463 701 454 710 443 710 L353 710 C342 710 333 701 333 690 L333 657 C333 651 329 647 323 647 L263 647 C252 647 243 638 243 627 L243 577 C243 566 252 557 263 557 L323 557 C329 557 333 553 333 547 L333 520 C333 498 318 493 303 499 C289 505 273 511 243 511 C138 511 61 430 53 325 C50 285 50 215 53 175 C61 70 138 -11 243 -11 C317 -11 325 23 354 23 C364 23 373 14 379 7 C383 3 387 0 393 0 L443 0 C454 0 463 9 463 20 L463 547 C463 553 467 557 473 557 L488 557 C499 557 508 566 508 577 L508 627 C508 638 499 647 488 647 L473 647 C467 647 463 651 463 657 L463 690 Z " />
<glyph glyph-name="Emacron" unicode="&#x112;" horiz-adv-x="512" d="M205 270 C205 276 209 280 215 280 L440 280 C451 280 460 289 460 300 L460 400 C460 411 451 420 440 420 L215 420 C209 420 205 424 205 430 L205 550 C205 556 209 560 215 560 L448 560 C459 560 468 569 468 580 L468 680 C468 691 459 700 448 700 L85 700 C74 700 65 691 65 680 L65 20 C65 9 74 0 85 0 L452 0 C463 0 472 9 472 20 L472 120 C472 131 463 140 452 140 L215 140 C209 140 205 144 205 150 L205 270 Z M138 858 C127 858 118 849 118 838 L118 780 C118 769 127 760 138 760 L400 760 C411 760 420 769 420 780 L420 838 C420 849 411 858 400 858 L138 858 Z " />
<glyph glyph-name="emacron" unicode="&#x113;" horiz-adv-x="499" d="M253 393 C296 393 338 373 338 330 C338 324 334 321 328 321 L176 321 C170 321 166 324 166 330 C166 368 196 393 253 393 L253 393 Z M437 210 C448 210 457 219 457 230 L457 313 C457 440 373 511 253 511 C131 511 59 430 46 325 C41 285 41 215 46 175 C59 70 131 -11 253 -11 C364 -11 432 54 455 147 C459 163 448 169 438 169 L355 169 C346 169 337 165 332 152 C319 120 292 110 253 110 C205 110 165 140 165 195 C165 204 171 210 180 210 L437 210 Z M132 694 C121 694 112 685 112 674 L112 616 C112 605 121 596 132 596 L394 596 C405 596 414 605 414 616 L414 674 C414 685 405 694 394 694 L132 694 Z " />
<glyph glyph-name="Ebreve" unicode="&#x114;" horiz-adv-x="512" d="M205 270 C205 276 209 280 215 280 L440 280 C451 280 460 289 460 300 L460 400 C460 411 451 420 440 420 L215 420 C209 420 205 424 205 430 L205 550 C205 556 209 560 215 560 L448 560 C459 560 468 569 468 580 L468 680 C468 691 459 700 448 700 L85 700 C74 700 65 691 65 680 L65 20 C65 9 74 0 85 0 L452 0 C463 0 472 9 472 20 L472 120 C472 131 463 140 452 140 L215 140 C209 140 205 144 205 150 L205 270 Z M328 886 C328 855 299 830 268 830 C237 830 207 855 207 886 C207 895 200 903 190 903 L127 903 C118 903 110 895 110 886 C110 809 172 740 268 740 C363 740 425 809 425 886 C425 895 417 903 408 903 L345 903 C335 903 328 895 328 886 L328 886 Z " />
<glyph glyph-name="ebreve" unicode="&#x115;" horiz-adv-x="499" d="M253 393 C296 393 338 373 338 330 C338 324 334 321 328 321 L176 321 C170 321 166 324 166 330 C166 368 196 393 253 393 L253 393 Z M437 210 C448 210 457 219 457 230 L457 313 C457 440 373 511 253 511 C131 511 59 430 46 325 C41 285 41 215 46 175 C59 70 131 -11 253 -11 C364 -11 432 54 455 147 C459 163 448 169 438 169 L355 169 C346 169 337 165 332 152 C319 120 292 110 253 110 C205 110 165 140 165 195 C165 204 171 210 180 210 L437 210 Z M323 713 C323 682 294 657 263 657 C232 657 202 682 202 713 C202 722 195 730 185 730 L122 730 C113 730 105 722 105 713 C105 636 167 567 263 567 C358 567 420 636 420 713 C420 722 412 730 403 730 L340 730 C330 730 323 722 323 713 L323 713 Z " />
<glyph glyph-name="Edotaccent" unicode="&#x116;" horiz-adv-x="512" d="M205 270 C205 276 209 280 215 280 L440 280 C451 280 460 289 460 300 L460 400 C460 411 451 420 440 420 L215 420 C209 420 205 424 205 430 L205 550 C205 556 209 560 215 560 L448 560 C459 560 468 569 468 580 L468 680 C468 691 459 700 448 700 L85 700 C74 700 65 691 65 680 L65 20 C65 9 74 0 85 0 L452 0 C463 0 472 9 472 20 L472 120 C472 131 463 140 452 140 L215 140 C209 140 205 144 205 150 L205 270 Z M342 874 C342 882 335 890 326 890 L218 890 C209 890 202 882 202 874 L202 766 C202 757 209 750 218 750 L326 750 C335 750 342 757 342 766 L342 874 Z " />
<glyph glyph-name="edotaccent" unicode="&#x117;" horiz-adv-x="499" d="M253 393 C296 393 338 373 338 330 C338 324 334 321 328 321 L176 321 C170 321 166 324 166 330 C166 368 196 393 253 393 L253 393 Z M437 210 C448 210 457 219 457 230 L457 313 C457 440 373 511 253 511 C131 511 59 430 46 325 C41 285 41 215 46 175 C59 70 131 -11 253 -11 C364 -11 432 54 455 147 C459 163 448 169 438 169 L355 169 C346 169 337 165 332 152 C319 120 292 110 253 110 C205 110 165 140 165 195 C165 204 171 210 180 210 L437 210 Z M327 694 C327 702 320 710 311 710 L203 710 C194 710 187 702 187 694 L187 586 C187 577 194 570 203 570 L311 570 C320 570 327 577 327 586 L327 694 Z " />
<glyph glyph-name="Eogonek" unicode="&#x118;" horiz-adv-x="512" d="M205 550 C205 556 209 560 215 560 L448 560 C459 560 468 569 468 580 L468 680 C468 691 459 700 448 700 L85 700 C74 700 65 691 65 680 L65 20 C65 9 74 0 85 0 L290 0 C280 -14 273 -36 273 -60 C273 -170 347 -220 447 -220 C458 -220 467 -211 467 -200 L467 -140 C467 -129 458 -120 447 -120 C414 -120 387 -93 387 -60 C387 -27 414 0 447 0 L452 0 C463 0 472 9 472 20 L472 120 C472 131 463 140 452 140 L215 140 C209 140 205 144 205 150 L205 270 C205 276 209 280 215 280 L440 280 C451 280 460 289 460 300 L460 400 C460 411 451 420 440 420 L215 420 C209 420 205 424 205 430 L205 550 Z " />
<glyph glyph-name="eogonek" unicode="&#x119;" horiz-adv-x="499" d="M422 72 C442 100 448 119 455 147 C459 163 448 169 438 169 L355 169 C346 169 337 165 332 152 C319 120 292 110 253 110 C205 110 165 140 165 195 C165 204 171 210 180 210 L437 210 C448 210 457 219 457 230 L457 313 C457 440 373 511 253 511 C131 511 59 430 46 325 C41 285 41 215 46 175 C59 70 131 -11 253 -11 L258 -11 C250 -26 245 -48 245 -65 C245 -166 319 -220 419 -220 C430 -220 439 -211 439 -200 L439 -140 C439 -129 430 -120 419 -120 C386 -120 359 -93 359 -60 C359 0 396 36 422 72 L422 72 Z M166 330 C166 368 196 393 253 393 C296 393 338 373 338 330 C338 324 334 321 328 321 L176 321 C170 321 166 324 166 330 L166 330 Z " />
<glyph glyph-name="Ecaron" unicode="&#x11a;" horiz-adv-x="512" d="M205 270 C205 276 209 280 215 280 L440 280 C451 280 460 289 460 300 L460 400 C460 411 451 420 440 420 L215 420 C209 420 205 424 205 430 L205 550 C205 556 209 560 215 560 L448 560 C459 560 468 569 468 580 L468 680 C468 691 459 700 448 700 L85 700 C74 700 65 691 65 680 L65 20 C65 9 74 0 85 0 L452 0 C463 0 472 9 472 20 L472 120 C472 131 463 140 452 140 L215 140 C209 140 205 144 205 150 L205 270 Z M226 894 C221 901 210 910 195 910 L100 910 C83 910 83 891 89 885 L208 762 C214 756 220 750 238 750 L300 750 C317 750 323 756 329 762 L448 885 C454 891 453 910 435 910 L341 910 C326 910 315 901 310 894 L275 850 C271 844 265 844 261 850 L226 894 Z " />
<glyph glyph-name="ecaron" unicode="&#x11b;" horiz-adv-x="499" d="M253 393 C296 393 338 373 338 330 C338 324 334 321 328 321 L176 321 C170 321 166 324 166 330 C166 368 196 393 253 393 L253 393 Z M437 210 C448 210 457 219 457 230 L457 313 C457 440 373 511 253 511 C131 511 59 430 46 325 C41 285 41 215 46 175 C59 70 131 -11 253 -11 C364 -11 432 54 455 147 C459 163 448 169 438 169 L355 169 C346 169 337 165 332 152 C319 120 292 110 253 110 C205 110 165 140 165 195 C165 204 171 210 180 210 L437 210 Z M217 714 C212 721 201 730 186 730 L91 730 C74 730 74 711 80 705 L199 582 C205 576 211 570 229 570 L291 570 C308 570 314 576 320 582 L439 705 C445 711 444 730 426 730 L332 730 C317 730 306 721 301 714 L266 670 C262 664 256 664 252 670 L217 714 Z " />
<glyph glyph-name="Gcircumflex" unicode="&#x11c;" horiz-adv-x="572" d="M392 208 C392 163 351 130 291 130 C230 130 199 166 194 210 C184 294 184 406 194 490 C199 534 230 570 291 570 C354 570 389 524 389 483 L389 482 C389 471 398 462 409 462 L509 462 C520 462 529 472 529 482 L529 483 C529 616 429 711 291 711 C153 711 67 610 53 490 C43 406 43 294 53 210 C67 90 153 -11 291 -11 C428 -11 529 88 529 208 L529 376 C529 387 520 396 509 396 L314 396 C303 396 294 387 294 376 L294 281 C294 270 303 261 314 261 L382 261 C388 261 392 257 392 251 L392 208 Z M291 810 C295 816 301 816 305 810 L340 766 C345 759 356 750 371 750 L465 750 C483 750 484 769 478 775 L359 898 C353 904 347 910 330 910 L268 910 C250 910 244 904 238 898 L119 775 C113 769 113 750 130 750 L225 750 C240 750 251 759 256 766 L291 810 Z " />
<glyph glyph-name="gcircumflex" unicode="&#x11d;" horiz-adv-x="517" d="M326 175 C323 140 299 115 250 115 C202 115 177 142 175 175 C172 215 172 285 175 325 C177 358 202 385 250 385 C299 385 323 363 326 325 C329 285 329 215 326 175 L326 175 Z M235 511 C130 511 53 430 45 325 C42 285 42 215 45 175 C53 70 130 -11 235 -11 C265 -11 281 -4 295 1 C314 8 325 0 325 -20 L325 -30 C325 -74 289 -96 252 -96 C212 -96 187 -77 182 -53 C179 -39 180 -30 156 -30 L81 -30 C70 -30 61 -39 61 -50 C61 -147 152 -215 258 -215 C371 -215 455 -131 455 -30 L455 480 C455 491 446 500 435 500 L385 500 C379 500 375 497 371 493 C365 486 356 477 346 477 C317 477 309 511 235 511 L235 511 Z M264 630 C268 636 274 636 278 630 L313 586 C318 579 329 570 344 570 L438 570 C456 570 457 589 451 595 L332 718 C326 724 320 730 303 730 L241 730 C223 730 217 724 211 718 L92 595 C86 589 86 570 103 570 L198 570 C213 570 224 579 229 586 L264 630 Z " />
<glyph glyph-name="Gbreve" unicode="&#x11e;" horiz-adv-x="572" d="M392 208 C392 163 351 130 291 130 C230 130 199 166 194 210 C184 294 184 406 194 490 C199 534 230 570 291 570 C354 570 389 524 389 483 L389 482 C389 471 398 462 409 462 L509 462 C520 462 529 472 529 482 L529 483 C529 616 429 711 291 711 C153 711 67 610 53 490 C43 406 43 294 53 210 C67 90 153 -11 291 -11 C428 -11 529 88 529 208 L529 376 C529 387 520 396 509 396 L314 396 C303 396 294 387 294 376 L294 281 C294 270 303 261 314 261 L382 261 C388 261 392 257 392 251 L392 208 Z M358 886 C358 855 329 830 298 830 C267 830 237 855 237 886 C237 895 230 903 220 903 L157 903 C148 903 140 895 140 886 C140 809 202 740 298 740 C393 740 455 809 455 886 C455 895 447 903 438 903 L375 903 C365 903 358 895 358 886 L358 886 Z " />
<glyph glyph-name="gbreve" unicode="&#x11f;" horiz-adv-x="517" d="M326 175 C323 140 299 115 250 115 C202 115 177 142 175 175 C172 215 172 285 175 325 C177 358 202 385 250 385 C299 385 323 363 326 325 C329 285 329 215 326 175 L326 175 Z M235 511 C130 511 53 430 45 325 C42 285 42 215 45 175 C53 70 130 -11 235 -11 C265 -11 281 -4 295 1 C314 8 325 0 325 -20 L325 -30 C325 -74 289 -96 252 -96 C212 -96 187 -77 182 -53 C179 -39 180 -30 156 -30 L81 -30 C70 -30 61 -39 61 -50 C61 -147 152 -215 258 -215 C371 -215 455 -131 455 -30 L455 480 C455 491 446 500 435 500 L385 500 C379 500 375 497 371 493 C365 486 356 477 346 477 C317 477 309 511 235 511 L235 511 Z M332 713 C332 682 303 657 272 657 C241 657 211 682 211 713 C211 722 204 730 194 730 L131 730 C122 730 114 722 114 713 C114 636 176 567 272 567 C367 567 429 636 429 713 C429 722 421 730 412 730 L349 730 C339 730 332 722 332 713 L332 713 Z " />
<glyph glyph-name="Gdotaccent" unicode="&#x120;" horiz-adv-x="572" d="M392 208 C392 163 351 130 291 130 C230 130 199 166 194 210 C184 294 184 406 194 490 C199 534 230 570 291 570 C354 570 389 524 389 483 L389 482 C389 471 398 462 409 462 L509 462 C520 462 529 472 529 482 L529 483 C529 616 429 711 291 711 C153 711 67 610 53 490 C43 406 43 294 53 210 C67 90 153 -11 291 -11 C428 -11 529 88 529 208 L529 376 C529 387 520 396 509 396 L314 396 C303 396 294 387 294 376 L294 281 C294 270 303 261 314 261 L382 261 C388 261 392 257 392 251 L392 208 Z M367 874 C367 882 360 890 351 890 L243 890 C234 890 227 882 227 874 L227 766 C227 757 234 750 243 750 L351 750 C360 750 367 757 367 766 L367 874 Z " />
<glyph glyph-name="gdotaccent" unicode="&#x121;" horiz-adv-x="517" d="M326 175 C323 140 299 115 250 115 C202 115 177 142 175 175 C172 215 172 285 175 325 C177 358 202 385 250 385 C299 385 323 363 326 325 C329 285 329 215 326 175 L326 175 Z M235 511 C130 511 53 430 45 325 C42 285 42 215 45 175 C53 70 130 -11 235 -11 C265 -11 281 -4 295 1 C314 8 325 0 325 -20 L325 -30 C325 -74 289 -96 252 -96 C212 -96 187 -77 182 -53 C179 -39 180 -30 156 -30 L81 -30 C70 -30 61 -39 61 -50 C61 -147 152 -215 258 -215 C371 -215 455 -131 455 -30 L455 480 C455 491 446 500 435 500 L385 500 C379 500 375 497 371 493 C365 486 356 477 346 477 C317 477 309 511 235 511 L235 511 Z M341 694 C341 702 334 710 325 710 L217 710 C208 710 201 702 201 694 L201 586 C201 577 208 570 217 570 L325 570 C334 570 341 577 341 586 L341 694 Z " />
<glyph glyph-name="Gcommaaccent" unicode="&#x122;" horiz-adv-x="572" d="M392 208 C392 163 351 130 291 130 C230 130 199 166 194 210 C184 294 184 406 194 490 C199 534 230 570 291 570 C354 570 389 524 389 483 L389 482 C389 471 398 462 409 462 L509 462 C520 462 529 472 529 482 L529 483 C529 616 429 711 291 711 C153 711 67 610 53 490 C43 406 43 294 53 210 C67 90 153 -11 291 -11 C428 -11 529 88 529 208 L529 376 C529 387 520 396 509 396 L314 396 C303 396 294 387 294 376 L294 281 C294 270 303 261 314 261 L382 261 C388 261 392 257 392 251 L392 208 Z M267 -305 L277 -305 C297 -305 305 -294 311 -285 L345 -231 C357 -213 367 -188 367 -162 L367 -65 C367 -54 358 -45 347 -45 L247 -45 C236 -45 227 -54 227 -65 L227 -165 C227 -176 236 -185 247 -185 L271 -185 C277 -185 284 -191 280 -198 L246 -267 C237 -285 247 -305 267 -305 L267 -305 Z " />
<glyph glyph-name="gcommaaccent" unicode="&#x123;" horiz-adv-x="517" d="M326 175 C323 140 299 115 250 115 C202 115 177 142 175 175 C172 215 172 285 175 325 C177 358 202 385 250 385 C299 385 323 363 326 325 C329 285 329 215 326 175 L326 175 Z M235 511 C130 511 53 430 45 325 C42 285 42 215 45 175 C53 70 130 -11 235 -11 C265 -11 281 -4 295 1 C314 8 325 0 325 -20 L325 -30 C325 -74 289 -96 252 -96 C212 -96 187 -77 182 -53 C179 -39 180 -30 156 -30 L81 -30 C70 -30 61 -39 61 -50 C61 -147 152 -215 258 -215 C371 -215 455 -131 455 -30 L455 480 C455 491 446 500 435 500 L385 500 C379 500 375 497 371 493 C365 486 356 477 346 477 C317 477 309 511 235 511 L235 511 Z M298 836 L288 836 C268 836 260 825 254 816 L220 762 C208 744 198 719 198 693 L198 596 C198 585 207 576 218 576 L318 576 C329 576 338 585 338 596 L338 696 C338 707 329 716 318 716 L294 716 C288 716 281 722 285 729 L319 798 C328 816 318 836 298 836 L298 836 Z " />
<glyph glyph-name="Hcircumflex" unicode="&#x124;" horiz-adv-x="582" d="M377 680 L377 430 C377 424 373 420 367 420 L215 420 C209 420 205 424 205 430 L205 680 C205 691 196 700 185 700 L85 700 C74 700 65 691 65 680 L65 20 C65 9 74 0 85 0 L180 0 C191 0 205 9 205 20 L205 270 C205 276 209 280 215 280 L367 280 C373 280 377 276 377 270 L377 20 C377 9 386 0 397 0 L497 0 C508 0 517 9 517 20 L517 680 C517 691 508 700 497 700 L397 700 C386 700 377 691 377 680 L377 680 Z M288 810 C292 816 298 816 302 810 L337 766 C342 759 353 750 368 750 L462 750 C480 750 481 769 475 775 L356 898 C350 904 344 910 327 910 L265 910 C247 910 241 904 235 898 L116 775 C110 769 110 750 127 750 L222 750 C237 750 248 759 253 766 L288 810 Z " />
<glyph glyph-name="hcircumflex" unicode="&#x125;" horiz-adv-x="530" d="M345 20 C345 9 354 0 365 0 L455 0 C466 0 475 9 475 20 L475 325 C475 430 390 511 285 511 C255 511 239 504 225 499 C206 492 195 503 195 520 L195 690 C195 701 186 710 175 710 L85 710 C74 710 65 701 65 690 L65 20 C65 9 74 0 85 0 L175 0 C186 0 195 9 195 20 L195 325 C195 358 222 385 270 385 C318 385 345 358 345 325 L345 20 Z M255 810 C259 816 265 816 269 810 L304 766 C309 759 320 750 335 750 L429 750 C447 750 448 769 442 775 L323 898 C317 904 311 910 294 910 L232 910 C214 910 208 904 202 898 L83 775 C77 769 77 750 94 750 L189 750 C204 750 215 759 220 766 L255 810 Z " />
<glyph glyph-name="Hbar" unicode="&#x126;" horiz-adv-x="582" d="M377 680 L377 620 C377 614 373 610 367 610 L215 610 C209 610 205 614 205 620 L205 680 C205 691 196 700 185 700 L85 700 C74 700 65 691 65 680 L65 20 C65 9 74 0 85 0 L180 0 C191 0 205 9 205 20 L205 270 C205 276 209 280 215 280 L367 280 C373 280 377 276 377 270 L377 20 C377 9 386 0 397 0 L497 0 C508 0 517 9 517 20 L517 680 C517 691 508 700 497 700 L397 700 C386 700 377 691 377 680 L377 680 Z M215 500 L367 500 C373 500 377 496 377 490 L377 420 C377 414 373 410 367 410 L215 410 C209 410 205 414 205 420 L205 490 C205 496 209 500 215 500 L215 500 Z " />
<glyph glyph-name="hbar" unicode="&#x127;" horiz-adv-x="535" d="M210 557 L270 557 C281 557 290 566 290 577 L290 627 C290 638 281 647 270 647 L210 647 C204 647 200 651 200 657 L200 690 C200 701 191 710 180 710 L90 710 C79 710 70 701 70 690 L70 657 C70 651 66 647 60 647 L45 647 C34 647 25 638 25 627 L25 577 C25 566 34 557 45 557 L60 557 C66 557 70 553 70 547 L70 20 C70 9 79 0 90 0 L180 0 C191 0 200 9 200 20 L200 325 C200 358 227 385 275 385 C323 385 350 358 350 325 L350 20 C350 9 359 0 370 0 L460 0 C471 0 480 9 480 20 L480 325 C480 430 395 511 290 511 C260 511 244 504 230 499 C211 492 200 503 200 520 L200 547 C200 553 204 557 210 557 L210 557 Z " />
<glyph glyph-name="Itilde" unicode="&#x128;" horiz-adv-x="270" d="M205 680 C205 691 196 700 185 700 L85 700 C74 700 65 691 65 680 L65 20 C65 9 74 0 85 0 L185 0 C196 0 205 9 205 20 L205 680 Z M233 864 C165 864 117 889 53 889 C13 889 -18 864 -18 838 L-18 778 C-18 759 -1 755 7 764 C18 777 31 785 53 785 C121 785 169 760 233 760 C273 760 304 785 304 811 L304 871 C304 890 287 895 279 885 C271 875 258 864 233 864 L233 864 Z " />
<glyph glyph-name="itilde" unicode="&#x129;" horiz-adv-x="270" d="M225 684 C157 684 109 709 45 709 C5 709 -26 684 -26 658 L-26 598 C-26 579 -9 575 -1 584 C10 597 23 605 45 605 C113 605 161 580 225 580 C265 580 296 605 296 631 L296 691 C296 710 279 715 271 705 C263 695 250 684 225 684 L225 684 Z M200 484 C200 492 193 500 184 500 L86 500 C77 500 70 492 70 484 L70 16 C70 8 77 0 86 0 L184 0 C193 0 200 8 200 16 L200 484 Z " />
<glyph glyph-name="Imacron" unicode="&#x12a;" horiz-adv-x="270" d="M205 680 C205 691 196 700 185 700 L85 700 C74 700 65 691 65 680 L65 20 C65 9 74 0 85 0 L185 0 C196 0 205 9 205 20 L205 680 Z M9 858 C-2 858 -11 849 -11 838 L-11 780 C-11 769 -2 760 9 760 L271 760 C282 760 291 769 291 780 L291 838 C291 849 282 858 271 858 L9 858 Z " />
<glyph glyph-name="imacron" unicode="&#x12b;" horiz-adv-x="270" d="M4 694 C-7 694 -16 685 -16 674 L-16 616 C-16 605 -7 596 4 596 L266 596 C277 596 286 605 286 616 L286 674 C286 685 277 694 266 694 L4 694 Z M200 484 C200 492 193 500 184 500 L86 500 C77 500 70 492 70 484 L70 16 C70 8 77 0 86 0 L184 0 C193 0 200 8 200 16 L200 484 Z " />
<glyph glyph-name="Ibreve" unicode="&#x12c;" horiz-adv-x="270" d="M205 680 C205 691 196 700 185 700 L85 700 C74 700 65 691 65 680 L65 20 C65 9 74 0 85 0 L185 0 C196 0 205 9 205 20 L205 680 Z M202 886 C202 855 173 830 142 830 C111 830 81 855 81 886 C81 895 74 903 64 903 L1 903 C-8 903 -16 895 -16 886 C-16 809 46 740 142 740 C237 740 299 809 299 886 C299 895 291 903 282 903 L219 903 C209 903 202 895 202 886 L202 886 Z " />
<glyph glyph-name="ibreve" unicode="&#x12d;" horiz-adv-x="270" d="M196 713 C196 682 167 657 136 657 C105 657 75 682 75 713 C75 722 68 730 58 730 L-5 730 C-14 730 -22 722 -22 713 C-22 636 40 567 136 567 C231 567 293 636 293 713 C293 722 285 730 276 730 L213 730 C203 730 196 722 196 713 L196 713 Z M200 484 C200 492 193 500 184 500 L86 500 C77 500 70 492 70 484 L70 16 C70 8 77 0 86 0 L184 0 C193 0 200 8 200 16 L200 484 Z " />
<glyph glyph-name="Iogonek" unicode="&#x12e;" horiz-adv-x="270" d="M205 680 C205 691 196 700 185 700 L85 700 C74 700 65 691 65 680 L65 58 C32 30 11 -9 11 -60 C11 -170 85 -220 185 -220 C196 -220 205 -211 205 -200 L205 -140 C205 -129 196 -120 185 -120 C152 -120 125 -93 125 -60 C125 -27 152 0 185 0 L187 0 C197 1 205 10 205 20 L205 680 Z " />
<glyph glyph-name="iogonek" unicode="&#x12f;" horiz-adv-x="270" d="M205 694 C205 702 198 710 189 710 L81 710 C72 710 65 702 65 694 L65 586 C65 577 72 570 81 570 L189 570 C198 570 205 577 205 586 L205 694 Z M184 0 C193 0 200 8 200 16 L200 484 C200 492 193 500 184 500 L86 500 C77 500 70 492 70 484 L70 66 C32 38 6 -4 6 -60 C6 -170 80 -220 180 -220 C191 -220 200 -211 200 -200 L200 -140 C200 -129 191 -120 180 -120 C147 -120 120 -93 120 -60 C120 -27 147 0 180 0 L184 0 Z " />
<glyph glyph-name="Idotaccent" unicode="&#x130;" horiz-adv-x="270" d="M205 680 C205 691 196 700 185 700 L85 700 C74 700 65 691 65 680 L65 20 C65 9 74 0 85 0 L185 0 C196 0 205 9 205 20 L205 680 Z M210 874 C210 882 203 890 194 890 L86 890 C77 890 70 882 70 874 L70 766 C70 757 77 750 86 750 L194 750 C203 750 210 757 210 766 L210 874 Z " />
<glyph glyph-name="dotlessi" unicode="&#x131;" horiz-adv-x="260" d="M195 484 C195 492 188 500 179 500 L81 500 C72 500 65 492 65 484 L65 16 C65 8 72 0 81 0 L179 0 C188 0 195 8 195 16 L195 484 Z " />
<glyph glyph-name="IJ" unicode="&#x132;" horiz-adv-x="570" d="M210 680 C210 691 201 700 190 700 L90 700 C79 700 70 691 70 680 L70 20 C70 9 79 0 90 0 L190 0 C201 0 210 9 210 20 L210 680 Z M279 130 C268 130 259 121 259 110 L259 10 C259 -1 268 -10 279 -10 C419 -10 510 89 510 211 L510 680 C510 691 501 700 490 700 L389 700 C378 700 369 691 369 680 L369 221 C369 165 333 130 279 130 L279 130 Z " />
<glyph glyph-name="ij" unicode="&#x133;" horiz-adv-x="520" d="M205 694 C205 702 198 710 189 710 L81 710 C72 710 65 702 65 694 L65 586 C65 577 72 570 81 570 L189 570 C198 570 205 577 205 586 L205 694 Z M200 484 C200 492 193 500 184 500 L86 500 C77 500 70 492 70 484 L70 16 C70 8 77 0 86 0 L184 0 C193 0 200 8 200 16 L200 484 Z M280 -30 C280 -74 244 -96 207 -96 L165 -96 C154 -96 145 -105 145 -116 L145 -195 C145 -206 154 -215 165 -215 L213 -215 C326 -215 410 -131 410 -30 L410 480 C410 491 401 500 390 500 L300 500 C289 500 280 491 280 480 L280 -30 Z M415 694 C415 702 408 710 399 710 L291 710 C282 710 275 702 275 694 L275 586 C275 577 282 570 291 570 L399 570 C408 570 415 577 415 586 L415 694 Z " />
<glyph glyph-name="Jcircumflex" unicode="&#x134;" horiz-adv-x="522" d="M5 211 C5 89 105 -11 237 -11 C377 -11 468 89 468 211 L468 680 C468 691 459 700 448 700 L347 700 C336 700 327 691 327 680 L327 221 C327 165 291 130 237 130 C182 130 146 166 146 211 L146 239 C146 250 137 259 126 259 L25 259 C14 259 5 250 5 239 L5 211 Z M388 810 C392 816 398 816 402 810 L437 766 C442 759 453 750 468 750 L562 750 C580 750 581 769 575 775 L456 898 C450 904 444 910 427 910 L365 910 C347 910 341 904 335 898 L216 775 C210 769 210 750 227 750 L322 750 C337 750 348 759 353 766 L388 810 Z " />
<glyph glyph-name="jcircumflex" unicode="&#x135;" horiz-adv-x="310" d="M115 -30 C115 -74 79 -96 42 -96 L0 -96 C-11 -96 -20 -105 -20 -116 L-20 -195 C-20 -206 -11 -215 0 -215 L48 -215 C161 -215 245 -131 245 -30 L245 480 C245 491 236 500 225 500 L135 500 C124 500 115 491 115 480 L115 -30 Z M172 630 C176 636 182 636 186 630 L221 586 C226 579 237 570 252 570 L346 570 C364 570 365 589 359 595 L240 718 C234 724 228 730 211 730 L149 730 C131 730 125 724 119 718 L0 595 C-6 589 -6 570 11 570 L106 570 C121 570 132 579 137 586 L172 630 Z " />
<glyph glyph-name="Kcommaaccent" unicode="&#x136;" horiz-adv-x="564" d="M385 12 C388 7 393 0 408 0 L516 0 C538 0 546 24 537 38 L332 355 C324 367 323 375 332 388 L519 664 C529 679 521 700 502 700 L401 700 C386 700 382 694 379 690 L214 447 C211 443 204 444 204 450 L204 680 C204 691 195 700 184 700 L85 700 C74 700 65 691 65 680 L65 20 C65 9 74 0 85 0 L184 0 C195 0 204 9 204 20 L204 282 C204 288 211 289 214 285 L385 12 Z M242 -305 L252 -305 C272 -305 280 -294 286 -285 L320 -231 C332 -213 342 -188 342 -162 L342 -65 C342 -54 333 -45 322 -45 L222 -45 C211 -45 202 -54 202 -65 L202 -165 C202 -176 211 -185 222 -185 L246 -185 C252 -185 259 -191 255 -198 L221 -267 C212 -285 222 -305 242 -305 L242 -305 Z " />
<glyph glyph-name="kcommaaccent" unicode="&#x137;" horiz-adv-x="491" d="M461 467 C470 478 466 500 445 500 L346 500 C331 500 325 493 321 487 L205 338 C202 334 195 335 195 341 L195 690 C195 701 186 710 175 710 L85 710 C74 710 65 701 65 690 L65 20 C65 9 74 0 85 0 L175 0 C186 0 195 9 195 20 L195 185 C195 191 202 192 205 188 L330 15 C334 9 341 0 356 0 L460 0 C479 0 487 19 476 33 L313 252 C303 265 303 271 312 282 L461 467 Z M222 -305 L232 -305 C252 -305 260 -294 266 -285 L300 -231 C312 -213 322 -188 322 -162 L322 -65 C322 -54 313 -45 302 -45 L202 -45 C191 -45 182 -54 182 -65 L182 -165 C182 -176 191 -185 202 -185 L226 -185 C232 -185 239 -191 235 -198 L201 -267 C192 -285 202 -305 222 -305 L222 -305 Z " />
<glyph glyph-name="kgreenlandic" unicode="&#x138;" horiz-adv-x="491" d="M461 467 C470 478 466 500 445 500 L346 500 C331 500 325 493 321 487 L205 328 C202 324 195 325 195 331 L195 480 C195 491 186 500 175 500 L85 500 C74 500 65 491 65 480 L65 20 C65 9 74 0 85 0 L175 0 C186 0 195 9 195 20 L195 185 C195 191 202 192 205 188 L330 15 C334 9 341 0 356 0 L460 0 C479 0 487 19 476 33 L313 252 C303 265 303 271 312 282 L461 467 Z " />
<glyph glyph-name="Lacute" unicode="&#x139;" horiz-adv-x="455" d="M205 680 C205 691 196 700 185 700 L85 700 C74 700 65 691 65 680 L65 20 C65 9 74 0 85 0 L425 0 C436 0 445 9 445 20 L445 120 C445 131 436 140 425 140 L215 140 C209 140 205 144 205 150 L205 680 Z M200 910 C185 910 179 901 174 894 L92 780 C80 764 92 750 105 750 L174 750 C192 750 198 756 204 762 L319 883 C330 895 326 910 307 910 L200 910 Z " />
<glyph glyph-name="lacute" unicode="&#x13a;" horiz-adv-x="270" d="M195 690 C195 701 186 710 175 710 L85 710 C74 710 65 701 65 690 L65 20 C65 9 74 0 85 0 L175 0 C186 0 195 9 195 20 L195 690 Z M182 910 C167 910 161 901 156 894 L74 780 C62 764 74 750 87 750 L156 750 C174 750 180 756 186 762 L301 883 C312 895 308 910 289 910 L182 910 Z " />
<glyph glyph-name="Lcommaaccent" unicode="&#x13b;" horiz-adv-x="455" d="M205 680 C205 691 196 700 185 700 L85 700 C74 700 65 691 65 680 L65 20 C65 9 74 0 85 0 L425 0 C436 0 445 9 445 20 L445 120 C445 131 436 140 425 140 L215 140 C209 140 205 144 205 150 L205 680 Z M220 -305 L230 -305 C250 -305 258 -294 264 -285 L298 -231 C310 -213 320 -188 320 -162 L320 -65 C320 -54 311 -45 300 -45 L200 -45 C189 -45 180 -54 180 -65 L180 -165 C180 -176 189 -185 200 -185 L224 -185 C230 -185 237 -191 233 -198 L199 -267 C190 -285 200 -305 220 -305 L220 -305 Z " />
<glyph glyph-name="lcommaaccent" unicode="&#x13c;" horiz-adv-x="270" d="M205 -65 C205 -54 196 -45 185 -45 L85 -45 C74 -45 65 -54 65 -65 L65 -165 C65 -176 74 -185 85 -185 L109 -185 C115 -185 122 -191 118 -198 L84 -267 C75 -285 85 -305 105 -305 L115 -305 C135 -305 143 -294 149 -285 L183 -231 C195 -213 205 -188 205 -162 L205 -65 Z M195 690 C195 701 186 710 175 710 L85 710 C74 710 65 701 65 690 L65 20 C65 9 74 0 85 0 L175 0 C186 0 195 9 195 20 L195 690 Z " />
<glyph glyph-name="Lcaron" unicode="&#x13d;" horiz-adv-x="455" d="M205 680 C205 691 196 700 185 700 L85 700 C74 700 65 691 65 680 L65 20 C65 9 74 0 85 0 L425 0 C436 0 445 9 445 20 L445 120 C445 131 436 140 425 140 L215 140 C209 140 205 144 205 150 L205 680 Z M320 440 L330 440 C350 440 358 451 364 460 L398 514 C410 532 420 557 420 583 L420 680 C420 691 411 700 400 700 L300 700 C289 700 280 691 280 680 L280 580 C280 569 289 560 300 560 L324 560 C330 560 337 554 333 547 L299 478 C290 460 300 440 320 440 L320 440 Z " />
<glyph glyph-name="lcaron" unicode="&#x13e;" horiz-adv-x="386" d="M195 690 C195 701 186 710 175 710 L85 710 C74 710 65 701 65 690 L65 20 C65 9 74 0 85 0 L175 0 C186 0 195 9 195 20 L195 690 Z M309 440 L319 440 C339 440 347 451 353 460 L387 514 C399 532 409 557 409 583 L409 680 C409 691 400 700 389 700 L289 700 C278 700 269 691 269 680 L269 580 C269 569 278 560 289 560 L313 560 C319 560 326 554 322 547 L288 478 C279 460 289 440 309 440 L309 440 Z " />
<glyph glyph-name="Ldot" unicode="&#x13f;" horiz-adv-x="455" d="M205 680 C205 691 196 700 185 700 L85 700 C74 700 65 691 65 680 L65 20 C65 9 74 0 85 0 L425 0 C436 0 445 9 445 20 L445 120 C445 131 436 140 425 140 L215 140 C209 140 205 144 205 150 L205 680 Z M420 364 C420 372 413 380 404 380 L296 380 C287 380 280 372 280 364 L280 256 C280 247 287 240 296 240 L404 240 C413 240 420 247 420 256 L420 364 Z " />
<glyph glyph-name="ldot" unicode="&#x140;" horiz-adv-x="417" d="M195 690 C195 701 186 710 175 710 L85 710 C74 710 65 701 65 690 L65 20 C65 9 74 0 85 0 L175 0 C186 0 195 9 195 20 L195 690 Z M400 364 C400 372 393 380 384 380 L276 380 C267 380 260 372 260 364 L260 256 C260 247 267 240 276 240 L384 240 C393 240 400 247 400 256 L400 364 Z " />
<glyph glyph-name="Lslash" unicode="&#x141;" horiz-adv-x="455" d="M215 415 C209 411 205 416 205 419 L205 680 C205 691 196 700 185 700 L85 700 C74 700 65 691 65 680 L65 335 C65 331 62 327 59 325 L20 302 C5 293 1 287 1 274 L1 195 C1 175 16 173 29 180 L58 196 C61 198 65 197 65 192 L65 20 C65 9 74 0 85 0 L425 0 C436 0 445 9 445 20 L445 120 C445 131 436 140 425 140 L220 140 C211 140 205 146 205 155 L205 275 C205 279 208 283 212 285 L321 348 C336 357 342 364 342 381 L342 460 C342 477 327 481 312 472 L215 415 Z " />
<glyph glyph-name="lslash" unicode="&#x142;" horiz-adv-x="306" d="M200 690 C200 701 191 710 180 710 L90 710 C79 710 70 701 70 690 L70 335 C70 331 67 326 64 325 L32 306 C17 297 6 288 6 271 L6 203 C6 183 27 175 40 183 L63 196 C66 198 70 197 70 192 L70 20 C70 9 79 0 90 0 L180 0 C191 0 200 9 200 20 L200 273 C200 277 203 283 207 285 L270 325 C285 334 291 341 291 358 L291 432 C291 449 276 458 261 449 L210 415 C204 411 200 416 200 419 L200 690 Z " />
<glyph glyph-name="Nacute" unicode="&#x143;" horiz-adv-x="580" d="M495 0 C506 0 515 9 515 20 L515 680 C515 691 506 700 495 700 L395 700 C384 700 375 691 375 680 L375 304 C375 298 368 296 366 302 L229 682 C226 691 219 700 204 700 L85 700 C74 700 65 691 65 680 L65 20 C65 9 74 0 85 0 L185 0 C196 0 205 9 205 20 L205 366 C205 372 212 374 214 368 L350 17 C353 9 360 0 377 0 L495 0 Z M338 910 C323 910 317 901 312 894 L230 780 C218 764 230 750 243 750 L312 750 C330 750 336 756 342 762 L457 883 C468 895 464 910 445 910 L338 910 Z " />
<glyph glyph-name="nacute" unicode="&#x144;" horiz-adv-x="525" d="M470 325 C470 430 390 511 285 511 C225 511 204 476 175 476 C161 476 156 486 148 493 C144 497 139 500 130 500 L80 500 C69 500 60 491 60 480 L60 20 C60 9 69 0 80 0 L170 0 C181 0 190 9 190 20 L190 330 C190 360 218 385 265 385 C313 385 340 359 340 326 L340 20 C340 9 349 0 360 0 L450 0 C461 0 470 9 470 20 L470 325 Z M308 730 C293 730 287 721 282 714 L200 600 C188 584 200 570 213 570 L282 570 C300 570 306 576 312 582 L427 703 C438 715 434 730 415 730 L308 730 Z " />
<glyph glyph-name="Ncommaaccent" unicode="&#x145;" horiz-adv-x="580" d="M495 0 C506 0 515 9 515 20 L515 680 C515 691 506 700 495 700 L395 700 C384 700 375 691 375 680 L375 304 C375 298 368 296 366 302 L229 682 C226 691 219 700 204 700 L85 700 C74 700 65 691 65 680 L65 20 C65 9 74 0 85 0 L185 0 C196 0 205 9 205 20 L205 366 C205 372 212 374 214 368 L350 17 C353 9 360 0 377 0 L495 0 Z M265 -305 L275 -305 C295 -305 303 -294 309 -285 L343 -231 C355 -213 365 -188 365 -162 L365 -65 C365 -54 356 -45 345 -45 L245 -45 C234 -45 225 -54 225 -65 L225 -165 C225 -176 234 -185 245 -185 L269 -185 C275 -185 282 -191 278 -198 L244 -267 C235 -285 245 -305 265 -305 L265 -305 Z " />
<glyph glyph-name="ncommaaccent" unicode="&#x146;" horiz-adv-x="525" d="M470 325 C470 430 390 511 285 511 C225 511 204 476 175 476 C161 476 156 486 148 493 C144 497 139 500 130 500 L80 500 C69 500 60 491 60 480 L60 20 C60 9 69 0 80 0 L170 0 C181 0 190 9 190 20 L190 330 C190 360 218 385 265 385 C313 385 340 359 340 326 L340 20 C340 9 349 0 360 0 L450 0 C461 0 470 9 470 20 L470 325 Z M232 -305 L242 -305 C262 -305 270 -294 276 -285 L310 -231 C322 -213 332 -188 332 -162 L332 -65 C332 -54 323 -45 312 -45 L212 -45 C201 -45 192 -54 192 -65 L192 -165 C192 -176 201 -185 212 -185 L236 -185 C242 -185 249 -191 245 -198 L211 -267 C202 -285 212 -305 232 -305 L232 -305 Z " />
<glyph glyph-name="Ncaron" unicode="&#x147;" horiz-adv-x="580" d="M495 0 C506 0 515 9 515 20 L515 680 C515 691 506 700 495 700 L395 700 C384 700 375 691 375 680 L375 304 C375 298 368 296 366 302 L229 682 C226 691 219 700 204 700 L85 700 C74 700 65 691 65 680 L65 20 C65 9 74 0 85 0 L185 0 C196 0 205 9 205 20 L205 366 C205 372 212 374 214 368 L350 17 C353 9 360 0 377 0 L495 0 Z M256 894 C251 901 240 910 225 910 L130 910 C113 910 113 891 119 885 L238 762 C244 756 250 750 268 750 L330 750 C347 750 353 756 359 762 L478 885 C484 891 483 910 465 910 L371 910 C356 910 345 901 340 894 L305 850 C301 844 295 844 291 850 L256 894 Z " />
<glyph glyph-name="ncaron" unicode="&#x148;" horiz-adv-x="525" d="M470 325 C470 430 390 511 285 511 C225 511 204 476 175 476 C161 476 156 486 148 493 C144 497 139 500 130 500 L80 500 C69 500 60 491 60 480 L60 20 C60 9 69 0 80 0 L170 0 C181 0 190 9 190 20 L190 330 C190 360 218 385 265 385 C313 385 340 359 340 326 L340 20 C340 9 349 0 360 0 L450 0 C461 0 470 9 470 20 L470 325 Z M220 714 C215 721 204 730 189 730 L94 730 C77 730 77 711 83 705 L202 582 C208 576 214 570 232 570 L294 570 C311 570 317 576 323 582 L442 705 C448 711 447 730 429 730 L335 730 C320 730 309 721 304 714 L269 670 C265 664 259 664 255 670 L220 714 Z " />
<glyph glyph-name="napostrophe" unicode="&#x149;" horiz-adv-x="525" d="M470 325 C470 430 390 511 285 511 C225 511 204 476 175 476 C161 476 156 486 148 493 C144 497 139 500 130 500 L80 500 C69 500 60 491 60 480 L60 20 C60 9 69 0 80 0 L170 0 C181 0 190 9 190 20 L190 330 C190 360 218 385 265 385 C313 385 340 359 340 326 L340 20 C340 9 349 0 360 0 L450 0 C461 0 470 9 470 20 L470 325 Z M-13 440 L-3 440 C17 440 25 451 31 460 L65 514 C77 532 87 557 87 583 L87 680 C87 691 78 700 67 700 L-33 700 C-44 700 -53 691 -53 680 L-53 580 C-53 569 -44 560 -33 560 L-9 560 C-3 560 4 554 0 547 L-34 478 C-43 460 -33 440 -13 440 L-13 440 Z " />
<glyph glyph-name="Eng" unicode="&#x14a;" horiz-adv-x="580" d="M372 30 L372 0 C372 -44 331 -70 284 -70 C273 -70 264 -79 264 -90 L264 -190 C264 -201 273 -210 284 -210 C424 -210 515 -111 515 11 L515 680 C515 691 506 700 495 700 L395 700 C384 700 375 691 375 680 L375 344 C375 338 368 336 366 342 L229 682 C226 691 219 700 204 700 L85 700 C74 700 65 691 65 680 L65 20 C65 9 74 0 85 0 L185 0 C196 0 205 9 205 20 L205 376 C205 382 211 384 214 378 L372 30 Z " />
<glyph glyph-name="eng" unicode="&#x14b;" horiz-adv-x="525" d="M273 -96 C262 -96 253 -105 253 -116 L253 -195 C253 -206 262 -215 273 -215 C386 -215 470 -131 470 -30 L470 325 C470 430 390 511 285 511 C225 511 204 476 175 476 C153 476 154 500 130 500 L80 500 C69 500 60 491 60 480 L60 20 C60 9 69 0 80 0 L170 0 C181 0 190 9 190 20 L190 330 C190 360 218 385 265 385 C313 385 340 359 340 326 L340 -30 C340 -74 310 -96 273 -96 L273 -96 Z " />
<glyph glyph-name="Omacron" unicode="&#x14c;" horiz-adv-x="582" d="M291 130 C230 130 199 166 194 210 C184 294 184 406 194 490 C199 534 230 570 291 570 C352 570 383 534 388 490 C398 406 398 294 388 210 C383 166 352 130 291 130 L291 130 Z M291 711 C153 711 67 610 53 490 C43 406 43 294 53 210 C67 90 153 -11 291 -11 C429 -11 515 90 529 210 C539 294 539 406 529 490 C515 610 429 711 291 711 L291 711 Z M166 858 C155 858 146 849 146 838 L146 780 C146 769 155 760 166 760 L428 760 C439 760 448 769 448 780 L448 838 C448 849 439 858 428 858 L166 858 Z " />
<glyph glyph-name="omacron" unicode="&#x14d;" horiz-adv-x="507" d="M176 325 C182 363 203 381 253 381 C304 381 326 358 331 325 C337 285 337 215 331 175 C326 142 304 119 253 119 C203 119 181 140 176 175 C170 215 170 285 176 325 L176 325 Z M46 175 C59 70 131 -11 254 -11 C376 -11 448 70 461 175 C466 215 466 285 461 325 C448 430 376 511 253 511 C131 511 59 430 46 325 C41 285 41 215 46 175 L46 175 Z M131 694 C120 694 111 685 111 674 L111 616 C111 605 120 596 131 596 L393 596 C404 596 413 605 413 616 L413 674 C413 685 404 694 393 694 L131 694 Z " />
<glyph glyph-name="Obreve" unicode="&#x14e;" horiz-adv-x="582" d="M291 130 C230 130 199 166 194 210 C184 294 184 406 194 490 C199 534 230 570 291 570 C352 570 383 534 388 490 C398 406 398 294 388 210 C383 166 352 130 291 130 L291 130 Z M291 711 C153 711 67 610 53 490 C43 406 43 294 53 210 C67 90 153 -11 291 -11 C429 -11 515 90 529 210 C539 294 539 406 529 490 C515 610 429 711 291 711 L291 711 Z M355 886 C355 855 326 830 295 830 C264 830 234 855 234 886 C234 895 227 903 217 903 L154 903 C145 903 137 895 137 886 C137 809 199 740 295 740 C390 740 452 809 452 886 C452 895 444 903 435 903 L372 903 C362 903 355 895 355 886 L355 886 Z " />
<glyph glyph-name="obreve" unicode="&#x14f;" horiz-adv-x="507" d="M176 325 C182 363 203 381 253 381 C304 381 326 358 331 325 C337 285 337 215 331 175 C326 142 304 119 253 119 C203 119 181 140 176 175 C170 215 170 285 176 325 L176 325 Z M46 175 C59 70 131 -11 254 -11 C376 -11 448 70 461 175 C466 215 466 285 461 325 C448 430 376 511 253 511 C131 511 59 430 46 325 C41 285 41 215 46 175 L46 175 Z M322 713 C322 682 293 657 262 657 C231 657 201 682 201 713 C201 722 194 730 184 730 L121 730 C112 730 104 722 104 713 C104 636 166 567 262 567 C357 567 419 636 419 713 C419 722 411 730 402 730 L339 730 C329 730 322 722 322 713 L322 713 Z " />
<glyph glyph-name="Ohungarumlaut" unicode="&#x150;" horiz-adv-x="582" d="M291 130 C230 130 199 166 194 210 C184 294 184 406 194 490 C199 534 230 570 291 570 C352 570 383 534 388 490 C398 406 398 294 388 210 C383 166 352 130 291 130 L291 130 Z M291 711 C153 711 67 610 53 490 C43 406 43 294 53 210 C67 90 153 -11 291 -11 C429 -11 515 90 529 210 C539 294 539 406 529 490 C515 610 429 711 291 711 L291 711 Z M247 910 C232 910 226 901 221 894 L139 780 C127 764 139 750 152 750 L221 750 C239 750 245 756 251 762 L366 883 C377 895 373 910 354 910 L247 910 Z M454 910 C439 910 433 901 428 894 L346 780 C334 764 346 750 359 750 L428 750 C446 750 452 756 458 762 L573 883 C584 895 580 910 561 910 L454 910 Z " />
<glyph glyph-name="ohungarumlaut" unicode="&#x151;" horiz-adv-x="508" d="M176 325 C182 363 203 381 253 381 C304 381 326 358 331 325 C337 285 337 215 331 175 C326 142 304 119 253 119 C203 119 181 140 176 175 C170 215 170 285 176 325 L176 325 Z M46 175 C59 70 131 -11 254 -11 C376 -11 448 70 461 175 C466 215 466 285 461 325 C448 430 376 511 253 511 C131 511 59 430 46 325 C41 285 41 215 46 175 L46 175 Z M213 730 C198 730 192 721 187 714 L105 600 C93 584 105 570 118 570 L187 570 C205 570 211 576 217 582 L332 703 C343 715 339 730 320 730 L213 730 Z M420 730 C405 730 399 721 394 714 L312 600 C300 584 312 570 325 570 L394 570 C412 570 418 576 424 582 L539 703 C550 715 546 730 527 730 L420 730 Z " />
<glyph glyph-name="OE" unicode="&#x152;" horiz-adv-x="840" d="M533 270 C533 276 537 280 543 280 L768 280 C779 280 788 289 788 300 L788 400 C788 411 779 420 768 420 L543 420 C537 420 533 424 533 430 L533 550 C533 556 537 560 543 560 L776 560 C787 560 796 569 796 580 L796 680 C796 691 787 700 776 700 L446 700 C435 700 426 691 426 680 C426 675 421 677 419 678 C384 698 343 711 296 711 C158 711 72 610 58 490 C48 406 48 294 58 210 C72 90 158 -11 296 -11 C343 -11 384 -1 419 21 C422 23 426 24 426 20 C426 9 435 0 446 0 L780 0 C791 0 800 9 800 20 L800 120 C800 131 791 140 780 140 L543 140 C537 140 533 144 533 150 L533 270 Z M296 130 C235 130 204 166 199 210 C189 294 189 406 199 490 C204 534 235 570 296 570 C357 570 388 534 393 490 C403 406 403 294 393 210 C388 166 357 130 296 130 L296 130 Z " />
<glyph glyph-name="oe" unicode="&#x153;" horiz-adv-x="807" d="M176 325 C181 363 203 381 253 381 C304 381 327 358 331 325 C336 285 336 215 331 175 C327 142 304 115 253 115 C203 115 180 140 176 175 C171 215 171 285 176 325 L176 325 Z M561 393 C604 393 646 373 646 330 C646 324 642 321 636 321 L484 321 C478 321 474 324 474 330 C474 368 504 393 561 393 L561 393 Z M423 38 C458 8 503 -11 561 -11 C672 -11 745 55 763 149 C766 163 756 169 746 169 L663 169 C654 169 645 165 640 152 C627 120 600 106 561 106 C513 106 473 140 473 195 C473 204 479 210 488 210 L745 210 C756 210 765 219 765 230 L765 313 C765 440 681 511 561 511 C503 511 458 491 423 461 C409 449 397 456 390 462 C355 492 310 511 253 511 C131 511 59 430 46 325 C41 285 41 215 46 175 C59 70 131 -11 254 -11 C310 -11 356 7 390 37 C397 43 409 50 423 38 L423 38 Z " />
<glyph glyph-name="Racute" unicode="&#x154;" horiz-adv-x="560" d="M241 280 C252 280 257 272 259 267 L361 20 C366 8 374 0 390 0 L493 0 C513 0 519 15 512 30 L405 280 C398 295 397 303 411 313 C482 361 515 413 515 490 C515 605 420 700 305 700 L85 700 C74 700 65 691 65 680 L65 20 C65 9 74 0 85 0 L185 0 C196 0 205 9 205 20 L205 270 C205 276 209 280 215 280 L241 280 Z M305 560 C343 560 375 528 375 490 C375 451 343 420 305 420 L215 420 C209 420 205 424 205 430 L205 550 C205 556 209 560 215 560 L305 560 Z M321 910 C306 910 300 901 295 894 L213 780 C201 764 213 750 226 750 L295 750 C313 750 319 756 325 762 L440 883 C451 895 447 910 428 910 L321 910 Z " />
<glyph glyph-name="racute" unicode="&#x155;" horiz-adv-x="380" d="M355 380 C366 380 375 389 375 400 L375 480 C375 491 366 500 355 500 L321 500 C222 500 209 445 178 445 C161 445 157 470 151 487 C148 495 138 500 130 500 L80 500 C69 500 60 491 60 480 L60 20 C60 9 69 0 80 0 L170 0 C181 0 190 9 190 20 L190 259 C190 340 245 380 320 380 L355 380 Z M238 730 C223 730 217 721 212 714 L130 600 C118 584 130 570 143 570 L212 570 C230 570 236 576 242 582 L357 703 C368 715 364 730 345 730 L238 730 Z " />
<glyph glyph-name="Rcommaaccent" unicode="&#x156;" horiz-adv-x="560" d="M241 280 C252 280 257 272 259 267 L361 20 C366 8 374 0 390 0 L493 0 C513 0 519 15 512 30 L405 280 C398 295 397 303 411 313 C482 361 515 413 515 490 C515 605 420 700 305 700 L85 700 C74 700 65 691 65 680 L65 20 C65 9 74 0 85 0 L185 0 C196 0 205 9 205 20 L205 270 C205 276 209 280 215 280 L241 280 Z M305 560 C343 560 375 528 375 490 C375 451 343 420 305 420 L215 420 C209 420 205 424 205 430 L205 550 C205 556 209 560 215 560 L305 560 Z M255 -305 L265 -305 C285 -305 293 -294 299 -285 L333 -231 C345 -213 355 -188 355 -162 L355 -65 C355 -54 346 -45 335 -45 L235 -45 C224 -45 215 -54 215 -65 L215 -165 C215 -176 224 -185 235 -185 L259 -185 C265 -185 272 -191 268 -198 L234 -267 C225 -285 235 -305 255 -305 L255 -305 Z " />
<glyph glyph-name="rcommaaccent" unicode="&#x157;" horiz-adv-x="384" d="M359 380 C370 380 379 389 379 400 L379 480 C379 491 370 500 359 500 L325 500 C226 500 213 445 182 445 C165 445 161 470 155 487 C152 495 142 500 134 500 L84 500 C73 500 64 491 64 480 L64 20 C64 9 73 0 84 0 L174 0 C185 0 194 9 194 20 L194 259 C194 340 249 380 324 380 L359 380 Z M100 -305 L110 -305 C130 -305 138 -294 144 -285 L178 -231 C190 -213 200 -188 200 -162 L200 -65 C200 -54 191 -45 180 -45 L80 -45 C69 -45 60 -54 60 -65 L60 -165 C60 -176 69 -185 80 -185 L104 -185 C110 -185 117 -191 113 -198 L79 -267 C70 -285 80 -305 100 -305 L100 -305 Z " />
<glyph glyph-name="Rcaron" unicode="&#x158;" horiz-adv-x="560" d="M241 280 C252 280 257 272 259 267 L361 20 C366 8 374 0 390 0 L493 0 C513 0 519 15 512 30 L405 280 C398 295 397 303 411 313 C482 361 515 413 515 490 C515 605 420 700 305 700 L85 700 C74 700 65 691 65 680 L65 20 C65 9 74 0 85 0 L185 0 C196 0 205 9 205 20 L205 270 C205 276 209 280 215 280 L241 280 Z M305 560 C343 560 375 528 375 490 C375 451 343 420 305 420 L215 420 C209 420 205 424 205 430 L205 550 C205 556 209 560 215 560 L305 560 Z M226 894 C221 901 210 910 195 910 L100 910 C83 910 83 891 89 885 L208 762 C214 756 220 750 238 750 L300 750 C317 750 323 756 329 762 L448 885 C454 891 453 910 435 910 L341 910 C326 910 315 901 310 894 L275 850 C271 844 265 844 261 850 L226 894 Z " />
<glyph glyph-name="rcaron" unicode="&#x159;" horiz-adv-x="432" d="M398 380 C409 380 418 389 418 400 L418 480 C418 491 409 500 398 500 L364 500 C265 500 252 445 221 445 C204 445 200 470 194 487 C191 495 181 500 173 500 L123 500 C112 500 103 491 103 480 L103 20 C103 9 112 0 123 0 L213 0 C224 0 233 9 233 20 L233 259 C233 340 288 380 363 380 L398 380 Z M201 714 C196 721 185 730 170 730 L75 730 C58 730 58 711 64 705 L183 582 C189 576 195 570 213 570 L275 570 C292 570 298 576 304 582 L423 705 C429 711 428 730 410 730 L316 730 C301 730 290 721 285 714 L250 670 C246 664 240 664 236 670 L201 714 Z " />
<glyph glyph-name="Sacute" unicode="&#x15a;" horiz-adv-x="542" d="M367 208 C367 161 328 126 268 126 C206 126 171 162 171 208 L171 238 C171 249 162 258 151 258 L50 258 C39 258 30 249 30 238 L30 208 C30 86 130 -11 268 -11 C410 -11 512 78 512 208 C512 347 409 405 270 433 C218 443 181 467 181 505 C181 545 212 575 268 575 C325 575 357 540 357 500 L357 485 C357 474 366 465 377 465 L478 465 C489 465 498 474 498 485 L498 500 C498 618 402 711 268 711 C136 711 39 618 39 500 C39 371 138 316 263 288 C338 271 367 251 367 208 L367 208 Z M326 930 C311 930 305 921 300 914 L218 800 C206 784 218 770 231 770 L300 770 C318 770 324 776 330 782 L445 903 C456 915 452 930 433 930 L326 930 Z " />
<glyph glyph-name="sacute" unicode="&#x15b;" horiz-adv-x="490" d="M278 730 C263 730 257 721 252 714 L170 600 C158 584 170 570 183 570 L252 570 C270 570 276 576 282 582 L397 703 C408 715 404 730 385 730 L278 730 Z M444 350 C444 466 336 511 246 511 C149 511 45 449 45 360 C45 243 164 211 246 200 C292 194 338 188 338 154 C338 123 300 107 246 107 C200 107 162 120 158 159 C156 176 152 184 128 184 L52 184 C41 184 32 175 32 164 C32 38 136 -11 246 -11 C360 -11 458 53 458 152 C458 289 334 302 246 319 C205 327 166 330 166 360 C166 388 201 401 246 401 C283 401 321 388 326 355 C329 334 339 330 349 330 L424 330 C435 330 444 339 444 350 L444 350 Z " />
<glyph glyph-name="Scircumflex" unicode="&#x15c;" horiz-adv-x="542" d="M367 208 C367 161 328 126 268 126 C206 126 171 162 171 208 L171 238 C171 249 162 258 151 258 L50 258 C39 258 30 249 30 238 L30 208 C30 86 130 -11 268 -11 C410 -11 512 78 512 208 C512 347 409 405 270 433 C218 443 181 467 181 505 C181 545 212 575 268 575 C325 575 357 540 357 500 L357 485 C357 474 366 465 377 465 L478 465 C489 465 498 474 498 485 L498 500 C498 618 402 711 268 711 C136 711 39 618 39 500 C39 371 138 316 263 288 C338 271 367 251 367 208 L367 208 Z M273 810 C277 816 283 816 287 810 L322 766 C327 759 338 750 353 750 L447 750 C465 750 466 769 460 775 L341 898 C335 904 329 910 312 910 L250 910 C232 910 226 904 220 898 L101 775 C95 769 95 750 112 750 L207 750 C222 750 233 759 238 766 L273 810 Z " />
<glyph glyph-name="scircumflex" unicode="&#x15d;" horiz-adv-x="490" d="M444 350 C444 466 336 511 246 511 C149 511 45 449 45 360 C45 243 164 211 246 200 C292 194 338 188 338 154 C338 123 300 107 246 107 C200 107 162 120 158 159 C156 176 152 184 128 184 L52 184 C41 184 32 175 32 164 C32 38 136 -11 246 -11 C360 -11 458 53 458 152 C458 289 334 302 246 319 C205 327 166 330 166 360 C166 388 201 401 246 401 C283 401 321 388 326 355 C329 334 339 330 349 330 L424 330 C435 330 444 339 444 350 L444 350 Z M235 630 C239 636 245 636 249 630 L284 586 C289 579 300 570 315 570 L409 570 C427 570 428 589 422 595 L303 718 C297 724 291 730 274 730 L212 730 C194 730 188 724 182 718 L63 595 C57 589 57 570 74 570 L169 570 C184 570 195 579 200 586 L235 630 Z " />
<glyph glyph-name="Scedilla" unicode="&#x15e;" horiz-adv-x="542" d="M367 208 C367 161 328 126 268 126 C206 126 171 162 171 208 L171 238 C171 249 162 258 151 258 L50 258 C39 258 30 249 30 238 L30 208 C30 86 130 -11 268 -11 C410 -11 512 78 512 208 C512 347 409 405 270 433 C218 443 181 467 181 505 C181 545 212 575 268 575 C325 575 357 540 357 500 L357 485 C357 474 366 465 377 465 L478 465 C489 465 498 474 498 485 L498 500 C498 618 402 711 268 711 C136 711 39 618 39 500 C39 371 138 316 263 288 C338 271 367 251 367 208 L367 208 Z M260 -45 C243 -45 233 -52 228 -69 L199 -161 C194 -176 197 -200 229 -200 L291 -200 C308 -200 319 -193 323 -176 L344 -84 C348 -68 346 -45 314 -45 L260 -45 Z " />
<glyph glyph-name="scedilla" unicode="&#x15f;" horiz-adv-x="490" d="M444 350 C444 466 336 511 246 511 C149 511 45 449 45 360 C45 243 164 211 246 200 C292 194 338 188 338 154 C338 123 300 107 246 107 C200 107 162 120 158 159 C156 176 152 184 128 184 L52 184 C41 184 32 175 32 164 C32 38 136 -11 246 -11 C360 -11 458 53 458 152 C458 289 334 302 246 319 C205 327 166 330 166 360 C166 388 201 401 246 401 C283 401 321 388 326 355 C329 334 339 330 349 330 L424 330 C435 330 444 339 444 350 L444 350 Z M221 -45 C204 -45 194 -52 189 -69 L160 -161 C155 -176 158 -200 190 -200 L252 -200 C269 -200 280 -193 284 -176 L305 -84 C309 -68 307 -45 275 -45 L221 -45 Z " />
<glyph glyph-name="Scaron" unicode="&#x160;" horiz-adv-x="542" d="M367 208 C367 161 328 126 268 126 C206 126 171 162 171 208 L171 238 C171 249 162 258 151 258 L50 258 C39 258 30 249 30 238 L30 208 C30 86 130 -11 268 -11 C410 -11 512 78 512 208 C512 347 409 405 270 433 C218 443 181 467 181 505 C181 545 212 575 268 575 C325 575 357 540 357 500 L357 485 C357 474 366 465 377 465 L478 465 C489 465 498 474 498 485 L498 500 C498 618 402 711 268 711 C136 711 39 618 39 500 C39 371 138 316 263 288 C338 271 367 251 367 208 L367 208 Z M238 914 C233 921 222 930 207 930 L112 930 C95 930 95 911 101 905 L220 782 C226 776 232 770 250 770 L312 770 C329 770 335 776 341 782 L460 905 C466 911 465 930 447 930 L353 930 C338 930 327 921 322 914 L287 870 C283 864 277 864 273 870 L238 914 Z " />
<glyph glyph-name="scaron" unicode="&#x161;" horiz-adv-x="490" d="M444 350 C444 466 336 511 246 511 C149 511 45 449 45 360 C45 243 164 211 246 200 C292 194 338 188 338 154 C338 123 300 107 246 107 C200 107 162 120 158 159 C156 176 152 184 128 184 L52 184 C41 184 32 175 32 164 C32 38 136 -11 246 -11 C360 -11 458 53 458 152 C458 289 334 302 246 319 C205 327 166 330 166 360 C166 388 201 401 246 401 C283 401 321 388 326 355 C329 334 339 330 349 330 L424 330 C435 330 444 339 444 350 L444 350 Z M200 714 C195 721 184 730 169 730 L74 730 C57 730 57 711 63 705 L182 582 C188 576 194 570 212 570 L274 570 C291 570 297 576 303 582 L422 705 C428 711 427 730 409 730 L315 730 C300 730 289 721 284 714 L249 670 C245 664 239 664 235 670 L200 714 Z " />
<glyph glyph-name="Tcommaaccent" unicode="&#x162;" horiz-adv-x="454" d="M307 560 L432 560 C443 560 452 569 452 580 L452 680 C452 691 443 700 432 700 L22 700 C11 700 2 691 2 680 L2 580 C2 569 11 560 22 560 L147 560 C153 560 157 556 157 550 L157 20 C157 9 166 0 177 0 L277 0 C288 0 297 9 297 20 L297 550 C297 556 301 560 307 560 L307 560 Z M205 -305 L215 -305 C235 -305 243 -294 249 -285 L283 -231 C295 -213 305 -188 305 -162 L305 -65 C305 -54 296 -45 285 -45 L185 -45 C174 -45 165 -54 165 -65 L165 -165 C165 -176 174 -185 185 -185 L209 -185 C215 -185 222 -191 218 -198 L184 -267 C175 -285 185 -305 205 -305 L205 -305 Z " />
<glyph glyph-name="tcommaaccent" unicode="&#x163;" horiz-adv-x="403" d="M253 497 C247 497 243 501 243 507 L243 660 C243 671 234 680 223 680 L133 680 C122 680 113 671 113 660 L113 507 C113 501 109 497 103 497 L25 497 C14 497 5 488 5 477 L5 397 C5 386 14 377 25 377 L103 377 C109 377 113 373 113 367 L113 183 C113 69 189 0 303 0 L373 0 C384 0 393 9 393 20 L393 105 C393 116 384 125 373 125 L303 125 C267 125 243 152 243 185 L243 367 C243 373 247 377 253 377 L363 377 C374 377 383 386 383 397 L383 477 C383 488 374 497 363 497 L253 497 Z M192 -305 L202 -305 C222 -305 230 -294 236 -285 L270 -231 C282 -213 292 -188 292 -162 L292 -65 C292 -54 283 -45 272 -45 L172 -45 C161 -45 152 -54 152 -65 L152 -165 C152 -176 161 -185 172 -185 L196 -185 C202 -185 209 -191 205 -198 L171 -267 C162 -285 172 -305 192 -305 L192 -305 Z " />
<glyph glyph-name="Tcaron" unicode="&#x164;" horiz-adv-x="454" d="M307 560 L432 560 C443 560 452 569 452 580 L452 680 C452 691 443 700 432 700 L22 700 C11 700 2 691 2 680 L2 580 C2 569 11 560 22 560 L147 560 C153 560 157 556 157 550 L157 20 C157 9 166 0 177 0 L277 0 C288 0 297 9 297 20 L297 550 C297 556 301 560 307 560 L307 560 Z M191 894 C186 901 175 910 160 910 L65 910 C48 910 48 891 54 885 L173 762 C179 756 185 750 203 750 L265 750 C282 750 288 756 294 762 L413 885 C419 891 418 910 400 910 L306 910 C291 910 280 901 275 894 L240 850 C236 844 230 844 226 850 L191 894 Z " />
<glyph glyph-name="tcaron" unicode="&#x165;" horiz-adv-x="527" d="M253 497 C247 497 243 501 243 507 L243 660 C243 671 234 680 223 680 L133 680 C122 680 113 671 113 660 L113 507 C113 501 109 497 103 497 L25 497 C14 497 5 488 5 477 L5 397 C5 386 14 377 25 377 L103 377 C109 377 113 373 113 367 L113 183 C113 69 189 0 303 0 L373 0 C384 0 393 9 393 20 L393 105 C393 116 384 125 373 125 L303 125 C267 125 243 152 243 185 L243 367 C243 373 247 377 253 377 L363 377 C374 377 383 386 383 397 L383 477 C383 488 374 497 363 497 L253 497 Z M444 440 L454 440 C474 440 482 451 488 460 L522 514 C534 532 544 557 544 583 L544 680 C544 691 535 700 524 700 L424 700 C413 700 404 691 404 680 L404 580 C404 569 413 560 424 560 L448 560 C454 560 461 554 457 547 L423 478 C414 460 424 440 444 440 L444 440 Z " />
<glyph glyph-name="Tbar" unicode="&#x166;" horiz-adv-x="454" d="M157 20 C157 9 166 0 177 0 L277 0 C288 0 297 9 297 20 L297 370 C297 376 301 380 307 380 L419 380 C430 380 439 389 439 400 L439 480 C439 491 430 500 419 500 L307 500 C301 500 297 504 297 510 L297 560 C297 566 301 570 307 570 L432 570 C443 570 452 579 452 590 L452 680 C452 691 443 700 432 700 L22 700 C11 700 2 691 2 680 L2 590 C2 579 11 570 22 570 L147 570 C153 570 157 566 157 560 L157 510 C157 504 153 500 147 500 L34 500 C23 500 14 491 14 480 L14 400 C14 389 23 380 34 380 L147 380 C153 380 157 376 157 370 L157 20 Z " />
<glyph glyph-name="tbar" unicode="&#x167;" horiz-adv-x="403" d="M113 183 C113 69 189 0 303 0 L373 0 C384 0 393 9 393 20 L393 105 C393 116 384 125 373 125 L303 125 C267 125 243 152 243 185 L243 205 C243 211 247 215 253 215 L363 215 C374 215 383 224 383 235 L383 305 C383 316 374 325 363 325 L253 325 C247 325 243 329 243 335 L243 377 C243 383 247 387 253 387 L363 387 C374 387 383 396 383 407 L383 477 C383 488 374 497 363 497 L253 497 C247 497 243 501 243 507 L243 660 C243 671 234 680 223 680 L133 680 C122 680 113 671 113 660 L113 507 C113 501 109 497 103 497 L25 497 C14 497 5 488 5 477 L5 407 C5 396 14 387 25 387 L103 387 C109 387 113 383 113 377 L113 335 C113 329 109 325 103 325 L25 325 C14 325 5 316 5 305 L5 235 C5 224 14 215 25 215 L103 215 C109 215 113 211 113 205 L113 183 Z " />
<glyph glyph-name="Utilde" unicode="&#x168;" horiz-adv-x="582" d="M528 680 C528 691 519 700 508 700 L407 700 C396 700 387 691 387 680 L387 210 C387 166 351 130 290 130 C231 130 195 166 195 210 L195 680 C195 691 186 700 175 700 L74 700 C63 700 54 691 54 680 L54 210 C54 89 154 -11 290 -11 C428 -11 528 89 528 210 L528 680 Z M386 864 C318 864 270 889 206 889 C166 889 135 864 135 838 L135 778 C135 759 152 755 160 764 C171 777 184 785 206 785 C274 785 322 760 386 760 C426 760 457 785 457 811 L457 871 C457 890 440 895 432 885 C424 875 411 864 386 864 L386 864 Z " />
<glyph glyph-name="utilde" unicode="&#x169;" horiz-adv-x="525" d="M55 175 C55 70 140 -11 245 -11 C305 -11 321 20 350 20 C361 20 366 15 372 10 C377 5 383 0 395 0 L445 0 C456 0 465 9 465 20 L465 480 C465 491 456 500 445 500 L355 500 C344 500 335 491 335 480 L335 170 C335 140 307 115 260 115 C212 115 185 141 185 174 L185 480 C185 491 176 500 165 500 L75 500 C64 500 55 491 55 480 L55 175 Z M350 684 C282 684 234 709 170 709 C130 709 99 684 99 658 L99 598 C99 579 116 575 124 584 C135 597 148 605 170 605 C238 605 286 580 350 580 C390 580 421 605 421 631 L421 691 C421 710 404 715 396 705 C388 695 375 684 350 684 L350 684 Z " />
<glyph glyph-name="Umacron" unicode="&#x16a;" horiz-adv-x="582" d="M528 680 C528 691 519 700 508 700 L407 700 C396 700 387 691 387 680 L387 210 C387 166 351 130 290 130 C231 130 195 166 195 210 L195 680 C195 691 186 700 175 700 L74 700 C63 700 54 691 54 680 L54 210 C54 89 154 -11 290 -11 C428 -11 528 89 528 210 L528 680 Z M167 858 C156 858 147 849 147 838 L147 780 C147 769 156 760 167 760 L429 760 C440 760 449 769 449 780 L449 838 C449 849 440 858 429 858 L167 858 Z " />
<glyph glyph-name="umacron" unicode="&#x16b;" horiz-adv-x="525" d="M55 175 C55 70 140 -11 245 -11 C305 -11 321 20 350 20 C361 20 366 15 372 10 C377 5 383 0 395 0 L445 0 C456 0 465 9 465 20 L465 480 C465 491 456 500 445 500 L355 500 C344 500 335 491 335 480 L335 170 C335 140 307 115 260 115 C212 115 185 141 185 174 L185 480 C185 491 176 500 165 500 L75 500 C64 500 55 491 55 480 L55 175 Z M129 694 C118 694 109 685 109 674 L109 616 C109 605 118 596 129 596 L391 596 C402 596 411 605 411 616 L411 674 C411 685 402 694 391 694 L129 694 Z " />
<glyph glyph-name="Ubreve" unicode="&#x16c;" horiz-adv-x="582" d="M528 680 C528 691 519 700 508 700 L407 700 C396 700 387 691 387 680 L387 210 C387 166 351 130 290 130 C231 130 195 166 195 210 L195 680 C195 691 186 700 175 700 L74 700 C63 700 54 691 54 680 L54 210 C54 89 154 -11 290 -11 C428 -11 528 89 528 210 L528 680 Z M355 886 C355 855 326 830 295 830 C264 830 234 855 234 886 C234 895 227 903 217 903 L154 903 C145 903 137 895 137 886 C137 809 199 740 295 740 C390 740 452 809 452 886 C452 895 444 903 435 903 L372 903 C362 903 355 895 355 886 L355 886 Z " />
<glyph glyph-name="ubreve" unicode="&#x16d;" horiz-adv-x="525" d="M55 175 C55 70 140 -11 245 -11 C305 -11 321 20 350 20 C361 20 366 15 372 10 C377 5 383 0 395 0 L445 0 C456 0 465 9 465 20 L465 480 C465 491 456 500 445 500 L355 500 C344 500 335 491 335 480 L335 170 C335 140 307 115 260 115 C212 115 185 141 185 174 L185 480 C185 491 176 500 165 500 L75 500 C64 500 55 491 55 480 L55 175 Z M320 713 C320 682 291 657 260 657 C229 657 199 682 199 713 C199 722 192 730 182 730 L119 730 C110 730 102 722 102 713 C102 636 164 567 260 567 C355 567 417 636 417 713 C417 722 409 730 400 730 L337 730 C327 730 320 722 320 713 L320 713 Z " />
<glyph glyph-name="Uring" unicode="&#x16e;" horiz-adv-x="582" d="M528 680 C528 691 519 700 508 700 L407 700 C396 700 387 691 387 680 L387 210 C387 166 351 130 290 130 C231 130 195 166 195 210 L195 680 C195 691 186 700 175 700 L74 700 C63 700 54 691 54 680 L54 210 C54 89 154 -11 290 -11 C428 -11 528 89 528 210 L528 680 Z M181 850 C181 786 233 734 297 734 C361 734 412 786 412 850 C412 914 361 965 297 965 C233 965 181 914 181 850 L181 850 Z M265 850 C265 869 278 882 297 882 C316 882 329 869 329 850 C329 831 316 818 297 818 C278 818 265 831 265 850 L265 850 Z " />
<glyph glyph-name="uring" unicode="&#x16f;" horiz-adv-x="525" d="M55 175 C55 70 140 -11 245 -11 C305 -11 321 20 350 20 C361 20 366 15 372 10 C377 5 383 0 395 0 L445 0 C456 0 465 9 465 20 L465 480 C465 491 456 500 445 500 L355 500 C344 500 335 491 335 480 L335 170 C335 140 307 115 260 115 C212 115 185 141 185 174 L185 480 C185 491 176 500 165 500 L75 500 C64 500 55 491 55 480 L55 175 Z M144 670 C144 606 196 554 260 554 C324 554 375 606 375 670 C375 734 324 785 260 785 C196 785 144 734 144 670 L144 670 Z M228 670 C228 689 241 702 260 702 C279 702 292 689 292 670 C292 651 279 638 260 638 C241 638 228 651 228 670 L228 670 Z " />
<glyph glyph-name="Uhungarumlaut" unicode="&#x170;" horiz-adv-x="582" d="M528 680 C528 691 519 700 508 700 L407 700 C396 700 387 691 387 680 L387 210 C387 166 351 130 290 130 C231 130 195 166 195 210 L195 680 C195 691 186 700 175 700 L74 700 C63 700 54 691 54 680 L54 210 C54 89 154 -11 290 -11 C428 -11 528 89 528 210 L528 680 Z M247 910 C232 910 226 901 221 894 L139 780 C127 764 139 750 152 750 L221 750 C239 750 245 756 251 762 L366 883 C377 895 373 910 354 910 L247 910 Z M454 910 C439 910 433 901 428 894 L346 780 C334 764 346 750 359 750 L428 750 C446 750 452 756 458 762 L573 883 C584 895 580 910 561 910 L454 910 Z " />
<glyph glyph-name="uhungarumlaut" unicode="&#x171;" horiz-adv-x="525" d="M55 175 C55 70 140 -11 245 -11 C305 -11 321 20 350 20 C361 20 366 15 372 10 C377 5 383 0 395 0 L445 0 C456 0 465 9 465 20 L465 480 C465 491 456 500 445 500 L355 500 C344 500 335 491 335 480 L335 170 C335 140 307 115 260 115 C212 115 185 141 185 174 L185 480 C185 491 176 500 165 500 L75 500 C64 500 55 491 55 480 L55 175 Z M201 730 C186 730 180 721 175 714 L93 600 C81 584 93 570 106 570 L175 570 C193 570 199 576 205 582 L320 703 C331 715 327 730 308 730 L201 730 Z M408 730 C393 730 387 721 382 714 L300 600 C288 584 300 570 313 570 L382 570 C400 570 406 576 412 582 L527 703 C538 715 534 730 515 730 L408 730 Z " />
<glyph glyph-name="Uogonek" unicode="&#x172;" horiz-adv-x="582" d="M195 680 C195 691 186 700 175 700 L74 700 C63 700 54 691 54 680 L54 210 C54 89 154 -11 290 -11 L301 -11 C294 -23 288 -42 288 -60 C288 -170 362 -220 462 -220 C473 -220 482 -211 482 -200 L482 -140 C482 -129 473 -120 462 -120 C429 -120 402 -93 402 -60 C402 -10 428 16 480 75 C512 111 528 159 528 210 L528 680 C528 691 519 700 508 700 L407 700 C396 700 387 691 387 680 L387 210 C387 166 351 130 290 130 C231 130 195 166 195 210 L195 680 Z " />
<glyph glyph-name="uogonek" unicode="&#x173;" horiz-adv-x="525" d="M185 480 C185 491 176 500 165 500 L75 500 C64 500 55 491 55 480 L55 175 C55 70 140 -11 245 -11 C263 -11 276 -8 288 -4 C277 -19 271 -46 271 -68 C271 -172 345 -220 445 -220 C456 -220 465 -211 465 -200 L465 -140 C465 -129 456 -120 445 -120 C412 -120 385 -93 385 -60 C385 -28 409 0 440 0 L447 0 C457 0 465 9 465 20 L465 480 C465 491 456 500 445 500 L355 500 C344 500 335 491 335 480 L335 170 C335 140 307 115 260 115 C212 115 185 141 185 174 L185 480 Z " />
<glyph glyph-name="Wcircumflex" unicode="&#x174;" horiz-adv-x="757" d="M317 15 L372 340 C373 348 383 348 384 340 L439 15 C441 5 449 0 458 0 L597 0 C606 0 614 5 616 15 L751 680 C753 690 747 700 731 700 L631 700 C622 700 614 696 612 685 L530 244 C529 239 527 237 523 237 L517 237 C513 237 511 239 510 244 L442 685 C440 695 432 700 423 700 L333 700 C324 700 316 695 314 685 L247 244 C246 239 244 237 240 237 L234 237 C230 237 228 239 227 244 L145 685 C143 696 135 700 126 700 L26 700 C10 700 4 690 6 680 L140 15 C142 5 150 0 159 0 L298 0 C307 0 315 5 317 15 L317 15 Z M378 810 C382 816 388 816 392 810 L427 766 C432 759 443 750 458 750 L552 750 C570 750 571 769 565 775 L446 898 C440 904 434 910 417 910 L355 910 C337 910 331 904 325 898 L206 775 C200 769 200 750 217 750 L312 750 C327 750 338 759 343 766 L378 810 Z " />
<glyph glyph-name="wcircumflex" unicode="&#x175;" horiz-adv-x="715" d="M145 485 C142 496 135 500 126 500 L35 500 C19 500 13 487 16 477 L155 15 C158 5 165 0 174 0 L282 0 C291 0 299 5 301 15 L350 247 C351 251 360 251 361 247 L416 15 C418 5 426 0 435 0 L543 0 C552 0 559 5 562 15 L699 477 C702 487 696 500 680 500 L589 500 C580 500 573 496 570 485 L496 191 C494 184 486 185 485 191 L423 485 C421 496 413 500 404 500 L306 500 C297 500 289 496 287 485 L230 191 C229 184 220 185 219 191 L145 485 Z M347 630 C351 636 357 636 361 630 L396 586 C401 579 412 570 427 570 L521 570 C539 570 540 589 534 595 L415 718 C409 724 403 730 386 730 L324 730 C306 730 300 724 294 718 L175 595 C169 589 169 570 186 570 L281 570 C296 570 307 579 312 586 L347 630 Z " />
<glyph glyph-name="Ycircumflex" unicode="&#x176;" horiz-adv-x="518" d="M157 685 C153 696 147 700 138 700 L28 700 C15 700 6 687 12 672 L189 226 L189 20 C189 9 198 0 209 0 L309 0 C320 0 329 9 329 20 L329 226 L506 672 C512 687 503 700 490 700 L380 700 C371 700 365 696 361 685 L265 408 C263 402 255 402 253 408 L157 685 Z M248 810 C252 816 258 816 262 810 L297 766 C302 759 313 750 328 750 L422 750 C440 750 441 769 435 775 L316 898 C310 904 304 910 287 910 L225 910 C207 910 201 904 195 898 L76 775 C70 769 70 750 87 750 L182 750 C197 750 208 759 213 766 L248 810 Z " />
<glyph glyph-name="ycircumflex" unicode="&#x177;" horiz-adv-x="485" d="M148 485 C144 496 138 500 129 500 L26 500 C10 500 3 487 7 477 L173 32 C177 22 176 19 173 10 L103 -177 C99 -187 106 -200 122 -200 L214 -200 C223 -200 229 -196 233 -185 L468 477 C472 487 465 500 449 500 L348 500 C339 500 332 496 329 485 L248 201 C246 193 239 193 236 201 L148 485 Z M235 630 C239 636 245 636 249 630 L284 586 C289 579 300 570 315 570 L409 570 C427 570 428 589 422 595 L303 718 C297 724 291 730 274 730 L212 730 C194 730 188 724 182 718 L63 595 C57 589 57 570 74 570 L169 570 C184 570 195 579 200 586 L235 630 Z " />
<glyph glyph-name="Ydieresis" unicode="&#x178;" horiz-adv-x="518" d="M157 685 C153 696 147 700 138 700 L28 700 C15 700 6 687 12 672 L189 226 L189 20 C189 9 198 0 209 0 L309 0 C320 0 329 9 329 20 L329 226 L506 672 C512 687 503 700 490 700 L380 700 C371 700 365 696 361 685 L265 408 C263 402 255 402 253 408 L157 685 Z M222 870 C222 881 213 890 202 890 L112 890 C101 890 92 881 92 870 L92 780 C92 769 101 760 112 760 L202 760 C213 760 222 769 222 780 L222 870 Z M422 870 C422 881 413 890 402 890 L312 890 C301 890 292 881 292 870 L292 780 C292 769 301 760 312 760 L402 760 C413 760 422 769 422 780 L422 870 Z " />
<glyph glyph-name="Zacute" unicode="&#x179;" horiz-adv-x="522" d="M473 548 C476 553 478 558 478 564 L478 680 C478 691 469 700 458 700 L69 700 C58 700 49 691 49 680 L49 583 C49 572 58 563 69 563 L309 563 C316 563 318 558 315 553 L39 155 C36 150 34 145 34 139 L34 20 C34 9 43 0 54 0 L468 0 C479 0 488 9 488 20 L488 117 C488 128 479 137 468 137 L204 137 C197 137 195 142 198 147 L473 548 Z M282 910 C267 910 261 901 256 894 L174 780 C162 764 174 750 187 750 L256 750 C274 750 280 756 286 762 L401 883 C412 895 408 910 389 910 L282 910 Z " />
<glyph glyph-name="zacute" unicode="&#x17a;" horiz-adv-x="455" d="M43 141 C30 128 30 123 30 110 L30 20 C30 9 39 0 50 0 L418 0 C429 0 438 9 438 20 L438 100 C438 111 429 120 418 120 L199 120 C193 120 190 125 194 130 L408 352 C418 362 428 375 428 393 L428 480 C428 491 419 500 408 500 L60 500 C49 500 40 491 40 480 L40 400 C40 389 49 380 60 380 L265 380 C271 380 274 375 270 370 L43 141 Z M263 730 C248 730 242 721 237 714 L155 600 C143 584 155 570 168 570 L237 570 C255 570 261 576 267 582 L382 703 C393 715 389 730 370 730 L263 730 Z " />
<glyph glyph-name="Zdotaccent" unicode="&#x17b;" horiz-adv-x="522" d="M473 548 C476 553 478 558 478 564 L478 680 C478 691 469 700 458 700 L69 700 C58 700 49 691 49 680 L49 583 C49 572 58 563 69 563 L309 563 C316 563 318 558 315 553 L39 155 C36 150 34 145 34 139 L34 20 C34 9 43 0 54 0 L468 0 C479 0 488 9 488 20 L488 117 C488 128 479 137 468 137 L204 137 C197 137 195 142 198 147 L473 548 Z M312 874 C312 882 305 890 296 890 L188 890 C179 890 172 882 172 874 L172 766 C172 757 179 750 188 750 L296 750 C305 750 312 757 312 766 L312 874 Z " />
<glyph glyph-name="zdotaccent" unicode="&#x17c;" horiz-adv-x="455" d="M43 141 C30 128 30 123 30 110 L30 20 C30 9 39 0 50 0 L418 0 C429 0 438 9 438 20 L438 100 C438 111 429 120 418 120 L199 120 C193 120 190 125 194 130 L408 352 C418 362 428 375 428 393 L428 480 C428 491 419 500 408 500 L60 500 C49 500 40 491 40 480 L40 400 C40 389 49 380 60 380 L265 380 C271 380 274 375 270 370 L43 141 Z M297 694 C297 702 290 710 281 710 L173 710 C164 710 157 702 157 694 L157 586 C157 577 164 570 173 570 L281 570 C290 570 297 577 297 586 L297 694 Z " />
<glyph glyph-name="Zcaron" unicode="&#x17d;" horiz-adv-x="522" d="M473 548 C476 553 478 558 478 564 L478 680 C478 691 469 700 458 700 L69 700 C58 700 49 691 49 680 L49 583 C49 572 58 563 69 563 L309 563 C316 563 318 558 315 553 L39 155 C36 150 34 145 34 139 L34 20 C34 9 43 0 54 0 L468 0 C479 0 488 9 488 20 L488 117 C488 128 479 137 468 137 L204 137 C197 137 195 142 198 147 L473 548 Z M204 914 C199 921 188 930 173 930 L78 930 C61 930 61 911 67 905 L186 782 C192 776 198 770 216 770 L278 770 C295 770 301 776 307 782 L426 905 C432 911 431 930 413 930 L319 930 C304 930 293 921 288 914 L253 870 C249 864 243 864 239 870 L204 914 Z " />
<glyph glyph-name="zcaron" unicode="&#x17e;" horiz-adv-x="455" d="M43 141 C30 128 30 123 30 110 L30 20 C30 9 39 0 50 0 L418 0 C429 0 438 9 438 20 L438 100 C438 111 429 120 418 120 L199 120 C193 120 190 125 194 130 L408 352 C418 362 428 375 428 393 L428 480 C428 491 419 500 408 500 L60 500 C49 500 40 491 40 480 L40 400 C40 389 49 380 60 380 L265 380 C271 380 274 375 270 370 L43 141 Z M185 714 C180 721 169 730 154 730 L59 730 C42 730 42 711 48 705 L167 582 C173 576 179 570 197 570 L259 570 C276 570 282 576 288 582 L407 705 C413 711 412 730 394 730 L300 730 C285 730 274 721 269 714 L234 670 C230 664 224 664 220 670 L185 714 Z " />
<glyph glyph-name="longs" unicode="&#x17f;" horiz-adv-x="390" d="M115 20 C115 9 124 0 135 0 L225 0 C236 0 245 9 245 20 L245 525 C245 558 272 580 305 580 L365 580 C376 580 385 589 385 600 L385 690 C385 701 376 710 365 710 L305 710 C201 710 115 631 115 527 L115 507 C115 501 111 497 105 497 L25 497 C14 497 5 488 5 477 L5 397 C5 386 14 377 25 377 L105 377 C111 377 115 373 115 367 L115 20 Z " />
<glyph glyph-name="florin" unicode="&#x192;" horiz-adv-x="413" d="M115 -10 C115 -53 99 -70 72 -70 L49 -70 C38 -70 30 -79 30 -90 L30 -180 C30 -191 39 -200 50 -200 L91 -200 C207 -200 245 -135 245 -10 L245 367 C245 373 249 377 255 377 L355 377 C366 377 375 386 375 397 L375 477 C375 488 366 497 355 497 L255 497 C249 497 245 501 245 507 L245 525 C245 558 272 580 305 580 L365 580 C376 580 385 589 385 600 L385 690 C385 701 376 710 365 710 L305 710 C201 710 115 631 115 527 L115 507 C115 501 111 497 105 497 L25 497 C14 497 5 488 5 477 L5 397 C5 386 14 377 25 377 L105 377 C111 377 115 373 115 367 L115 -10 Z " />
<glyph glyph-name="Aringacute" unicode="&#x1fa;" horiz-adv-x="537" d="M327 1080 C312 1080 305 1072 301 1064 L247 962 C195 950 157 905 157 850 C157 786 209 734 273 734 C337 734 388 786 388 850 C388 888 370 922 341 943 L446 1053 C457 1065 453 1080 434 1080 L327 1080 Z M241 850 C241 869 254 882 273 882 C292 882 305 869 305 850 C305 831 292 818 273 818 C254 818 241 831 241 850 L241 850 Z M314 273 L222 273 C216 273 212 276 214 284 L262 524 C263 527 264 528 267 528 L269 528 C272 528 273 527 274 524 L322 284 C324 276 320 273 314 273 L314 273 Z M389 15 C392 6 399 0 408 0 L513 0 C529 0 535 11 533 20 L355 685 C353 694 345 700 336 700 L202 700 C193 700 185 694 183 685 L4 20 C2 11 8 0 24 0 L129 0 C138 0 146 6 148 15 L176 118 C178 127 182 133 191 133 L343 133 C352 133 356 126 358 118 L389 15 Z " />
<glyph glyph-name="aringacute" unicode="&#x1fb;" horiz-adv-x="512" d="M312 900 C297 900 290 892 286 884 L232 782 C180 770 142 725 142 670 C142 606 194 554 258 554 C322 554 373 606 373 670 C373 708 355 742 326 763 L431 873 C442 885 438 900 419 900 L312 900 Z M226 670 C226 689 239 702 258 702 C277 702 290 689 290 670 C290 651 277 638 258 638 C239 638 226 651 226 670 L226 670 Z M322 204 C328 204 332 200 332 194 L332 170 C332 118 288 101 231 101 C195 101 165 117 165 154 C165 169 173 204 216 204 L322 204 Z M250 397 C294 397 327 377 327 336 L327 320 C327 314 323 310 317 310 L215 310 C100 310 43 223 43 154 C43 49 115 -11 231 -11 C305 -11 333 27 351 27 C364 27 365 15 371 7 C375 2 379 0 385 0 L435 0 C446 0 455 9 455 20 L455 330 C455 446 376 511 255 511 C135 511 62 439 62 360 C62 349 71 340 82 340 L154 340 C172 340 177 342 181 359 C188 391 229 397 250 397 L250 397 Z " />
<glyph glyph-name="AEacute" unicode="&#x1fc;" horiz-adv-x="775" d="M214 700 C193 700 182 683 180 674 L4 20 C2 11 8 0 24 0 L129 0 C138 0 146 6 148 15 L176 118 C178 127 182 133 191 133 L313 133 C322 133 328 126 328 118 L328 20 C328 9 337 0 348 0 L715 0 C726 0 735 9 735 20 L735 120 C735 131 726 140 715 140 L478 140 C472 140 468 144 468 150 L468 270 C468 276 472 280 478 280 L703 280 C714 280 723 289 723 300 L723 400 C723 411 714 420 703 420 L478 420 C472 420 468 424 468 430 L468 550 C468 556 472 560 478 560 L711 560 C722 560 731 569 731 580 L731 680 C731 691 722 700 711 700 L214 700 Z M328 550 L328 284 C328 276 324 273 318 273 L222 273 C216 273 212 276 214 284 L268 550 C269 554 272 560 281 560 L318 560 C324 560 328 556 328 550 L328 550 Z M472 910 C457 910 451 901 446 894 L364 780 C352 764 364 750 377 750 L446 750 C464 750 470 756 476 762 L591 883 C602 895 598 910 579 910 L472 910 Z " />
<glyph glyph-name="aeacute" unicode="&#x1fd;" horiz-adv-x="814" d="M336 194 L336 170 C336 118 292 101 235 101 C199 101 169 117 169 154 C169 169 177 204 220 204 L326 204 C332 204 336 200 336 194 L336 194 Z M424 463 C414 454 402 456 394 463 C357 494 307 511 259 511 C139 511 66 439 66 360 C66 349 75 340 86 340 L158 340 C176 340 181 342 185 359 C192 391 233 397 254 397 C298 397 331 377 331 336 L331 320 C331 314 327 310 321 310 L219 310 C104 310 47 223 47 154 C47 49 119 -11 235 -11 C302 -11 351 8 389 34 C401 42 414 45 427 34 C461 6 505 -11 560 -11 C671 -11 744 55 762 149 C765 163 755 169 745 169 L662 169 C653 169 644 165 639 152 C626 120 599 106 560 106 C512 106 472 140 472 195 C472 204 478 210 487 210 L744 210 C755 210 764 219 764 230 L764 313 C764 440 680 511 560 511 C504 511 458 493 424 463 L424 463 Z M560 393 C603 393 645 370 645 319 C645 313 641 310 635 310 L483 310 C477 310 473 313 473 319 C473 357 503 393 560 393 L560 393 Z M452 730 C437 730 431 721 426 714 L344 600 C332 584 344 570 357 570 L426 570 C444 570 450 576 456 582 L571 703 C582 715 578 730 559 730 L452 730 Z " />
<glyph glyph-name="Oslashacute" unicode="&#x1fe;" horiz-adv-x="592" d="M153 24 C157 31 161 27 163 26 C199 2 244 -11 296 -11 C434 -11 520 90 534 210 C544 294 544 406 534 490 C529 526 519 560 502 590 C501 593 496 596 502 606 L542 672 C550 685 539 700 526 700 L462 700 C453 700 449 695 443 685 L438 678 C432 669 427 674 423 676 C388 698 345 711 296 711 C158 711 72 610 58 490 C48 406 48 294 58 210 C62 175 72 141 89 111 C90 109 94 105 88 96 L47 28 C39 14 50 0 63 0 L127 0 C136 0 142 5 148 15 L153 24 Z M296 130 C270 130 250 136 234 147 C232 148 229 151 232 156 L392 421 C396 428 399 423 399 418 C402 349 400 272 393 210 C388 166 357 130 296 130 L296 130 Z M296 570 C320 570 340 564 355 554 C357 553 361 550 356 541 L199 281 C195 274 192 278 192 282 C189 351 191 428 199 490 C204 534 235 570 296 570 L296 570 Z M341 910 C326 910 320 901 315 894 L233 780 C221 764 233 750 246 750 L315 750 C333 750 339 756 345 762 L460 883 C471 895 467 910 448 910 L341 910 Z " />
<glyph glyph-name="oslashacute" unicode="&#x1ff;" horiz-adv-x="523" d="M492 472 C502 484 492 500 479 500 L415 500 C406 500 399 494 391 485 L387 481 C382 476 379 479 377 480 C346 499 307 511 261 511 C139 511 67 430 54 325 C49 285 49 215 54 175 C57 149 65 123 75 101 C76 99 79 95 73 87 L25 28 C15 16 23 0 36 0 L102 0 C111 0 119 4 126 13 L132 20 C137 26 142 23 144 21 C176 0 214 -11 262 -11 C384 -11 456 70 469 175 C474 215 474 285 469 325 C465 353 457 380 445 404 C444 406 442 408 446 413 L492 472 Z M339 175 C334 142 312 119 261 119 C247 119 235 121 225 124 C222 125 217 128 223 135 L336 275 C341 282 343 277 343 273 C344 238 343 200 339 175 L339 175 Z M184 325 C190 363 211 381 261 381 C273 381 285 380 294 377 C297 376 302 374 297 368 L188 231 C182 223 179 229 179 233 C178 266 180 301 184 325 L184 325 Z M317 730 C302 730 296 721 291 714 L209 600 C197 584 209 570 222 570 L291 570 C309 570 315 576 321 582 L436 703 C447 715 443 730 424 730 L317 730 Z " />
<glyph glyph-name="Scommaaccent" unicode="&#x218;" horiz-adv-x="542" d="M367 208 C367 161 328 126 268 126 C206 126 171 162 171 208 L171 238 C171 249 162 258 151 258 L50 258 C39 258 30 249 30 238 L30 208 C30 86 130 -11 268 -11 C410 -11 512 78 512 208 C512 347 409 405 270 433 C218 443 181 467 181 505 C181 545 212 575 268 575 C325 575 357 540 357 500 L357 485 C357 474 366 465 377 465 L478 465 C489 465 498 474 498 485 L498 500 C498 618 402 711 268 711 C136 711 39 618 39 500 C39 371 138 316 263 288 C338 271 367 251 367 208 L367 208 Z M255 -305 L265 -305 C285 -305 293 -294 299 -285 L333 -231 C345 -213 355 -188 355 -162 L355 -65 C355 -54 346 -45 335 -45 L235 -45 C224 -45 215 -54 215 -65 L215 -165 C215 -176 224 -185 235 -185 L259 -185 C265 -185 272 -191 268 -198 L234 -267 C225 -285 235 -305 255 -305 L255 -305 Z " />
<glyph glyph-name="scommaaccent" unicode="&#x219;" horiz-adv-x="490" d="M444 350 C444 466 336 511 246 511 C149 511 45 449 45 360 C45 243 164 211 246 200 C292 194 338 188 338 154 C338 123 300 107 246 107 C200 107 162 120 158 159 C156 176 152 184 128 184 L52 184 C41 184 32 175 32 164 C32 38 136 -11 246 -11 C360 -11 458 53 458 152 C458 289 334 302 246 319 C205 327 166 330 166 360 C166 388 201 401 246 401 C283 401 321 388 326 355 C329 334 339 330 349 330 L424 330 C435 330 444 339 444 350 L444 350 Z M212 -305 L222 -305 C242 -305 250 -294 256 -285 L290 -231 C302 -213 312 -188 312 -162 L312 -65 C312 -54 303 -45 292 -45 L192 -45 C181 -45 172 -54 172 -65 L172 -165 C172 -176 181 -185 192 -185 L216 -185 C222 -185 229 -191 225 -198 L191 -267 C182 -285 192 -305 212 -305 L212 -305 Z " />
<glyph glyph-name="uni021A" unicode="&#x21a;" horiz-adv-x="454" d="M307 560 L432 560 C443 560 452 569 452 580 L452 680 C452 691 443 700 432 700 L22 700 C11 700 2 691 2 680 L2 580 C2 569 11 560 22 560 L147 560 C153 560 157 556 157 550 L157 20 C157 9 166 0 177 0 L277 0 C288 0 297 9 297 20 L297 550 C297 556 301 560 307 560 L307 560 Z M205 -305 L215 -305 C235 -305 243 -294 249 -285 L283 -231 C295 -213 305 -188 305 -162 L305 -65 C305 -54 296 -45 285 -45 L185 -45 C174 -45 165 -54 165 -65 L165 -165 C165 -176 174 -185 185 -185 L209 -185 C215 -185 222 -191 218 -198 L184 -267 C175 -285 185 -305 205 -305 L205 -305 Z " />
<glyph glyph-name="uni021B" unicode="&#x21b;" horiz-adv-x="403" d="M253 497 C247 497 243 501 243 507 L243 660 C243 671 234 680 223 680 L133 680 C122 680 113 671 113 660 L113 507 C113 501 109 497 103 497 L25 497 C14 497 5 488 5 477 L5 397 C5 386 14 377 25 377 L103 377 C109 377 113 373 113 367 L113 183 C113 69 189 0 303 0 L373 0 C384 0 393 9 393 20 L393 105 C393 116 384 125 373 125 L303 125 C267 125 243 152 243 185 L243 367 C243 373 247 377 253 377 L363 377 C374 377 383 386 383 397 L383 477 C383 488 374 497 363 497 L253 497 Z M192 -305 L202 -305 C222 -305 230 -294 236 -285 L270 -231 C282 -213 292 -188 292 -162 L292 -65 C292 -54 283 -45 272 -45 L172 -45 C161 -45 152 -54 152 -65 L152 -165 C152 -176 161 -185 172 -185 L196 -185 C202 -185 209 -191 205 -198 L171 -267 C162 -285 172 -305 192 -305 L192 -305 Z " />
<glyph glyph-name="apostrophemod" unicode="&#x2bc;" horiz-adv-x="245" d="M90 390 C110 390 118 401 124 410 L188 494 C201 511 210 537 210 563 L210 680 C210 691 201 700 190 700 L70 700 C59 700 50 691 50 680 L50 560 C50 549 59 540 70 540 L94 540 C100 540 107 534 103 527 L49 428 C39 410 50 390 70 390 L90 390 Z " />
<glyph glyph-name="circumflex" unicode="&#x2c6;" horiz-adv-x="396" d="M193 630 C197 636 203 636 207 630 L242 586 C247 579 258 570 273 570 L367 570 C385 570 386 589 380 595 L261 718 C255 724 249 730 232 730 L170 730 C152 730 146 724 140 718 L21 595 C15 589 15 570 32 570 L127 570 C142 570 153 579 158 586 L193 630 Z " />
<glyph glyph-name="caron" unicode="&#x2c7;" horiz-adv-x="455" d="M189 714 C184 721 173 730 158 730 L63 730 C46 730 46 711 52 705 L171 582 C177 576 183 570 201 570 L263 570 C280 570 286 576 292 582 L411 705 C417 711 416 730 398 730 L304 730 C289 730 278 721 273 714 L238 670 C234 664 228 664 224 670 L189 714 Z " />
<glyph glyph-name="breve" unicode="&#x2d8;" horiz-adv-x="470" d="M294 713 C294 682 265 657 234 657 C203 657 173 682 173 713 C173 722 166 730 156 730 L93 730 C84 730 76 722 76 713 C76 636 138 567 234 567 C329 567 391 636 391 713 C391 722 383 730 374 730 L311 730 C301 730 294 722 294 713 L294 713 Z " />
<glyph glyph-name="dotaccent" unicode="&#x2d9;" horiz-adv-x="267" d="M200 694 C200 702 193 710 184 710 L76 710 C67 710 60 702 60 694 L60 586 C60 577 67 570 76 570 L184 570 C193 570 200 577 200 586 L200 694 Z " />
<glyph glyph-name="ring" unicode="&#x2da;" horiz-adv-x="459" d="M136 670 C136 606 188 554 252 554 C316 554 367 606 367 670 C367 734 316 785 252 785 C188 785 136 734 136 670 L136 670 Z M220 670 C220 689 233 702 252 702 C271 702 284 689 284 670 C284 651 271 638 252 638 C233 638 220 651 220 670 L220 670 Z " />
<glyph glyph-name="ogonek" unicode="&#x2db;" horiz-adv-x="833" d="M544 80 C544 91 535 100 524 100 C434 100 350 40 350 -60 C350 -170 424 -220 524 -220 C535 -220 544 -211 544 -200 L544 -140 C544 -129 535 -120 524 -120 C491 -120 464 -93 464 -60 C464 -27 491 0 524 0 C535 0 544 9 544 20 L544 80 Z " />
<glyph glyph-name="tilde" unicode="&#x2dc;" horiz-adv-x="492" d="M351 684 C283 684 235 709 171 709 C131 709 100 684 100 658 L100 598 C100 579 117 575 125 584 C136 597 149 605 171 605 C239 605 287 580 351 580 C391 580 422 605 422 631 L422 691 C422 710 405 715 397 705 C389 695 376 684 351 684 L351 684 Z " />
<glyph glyph-name="hungarumlaut" unicode="&#x2dd;" horiz-adv-x="508" d="M150 730 C135 730 129 721 124 714 L42 600 C30 584 42 570 55 570 L124 570 C142 570 148 576 154 582 L269 703 C280 715 276 730 257 730 L150 730 Z M357 730 C342 730 336 721 331 714 L249 600 C237 584 249 570 262 570 L331 570 C349 570 355 576 361 582 L476 703 C487 715 483 730 464 730 L357 730 Z " />
<glyph glyph-name="Delta" unicode="&#x394;" horiz-adv-x="660" d="M598 0 C609 0 618 9 618 20 L618 71 C618 82 613 95 611 100 L381 625 C377 635 371 640 362 640 L298 640 C289 640 283 635 279 625 L49 100 C47 95 42 82 42 71 L42 20 C42 9 51 0 62 0 L598 0 Z M184 118 C178 118 178 123 180 128 L325 471 C325 473 326 475 329 475 L331 475 C334 475 334 473 335 471 L480 128 C482 123 482 118 476 118 L184 118 Z " />
<glyph glyph-name="Omega" unicode="&#x3a9;" horiz-adv-x="683" d="M528 142 C606 196 633 299 633 382 C633 554 513 703 341 703 C169 703 50 554 50 382 C50 299 78 194 156 141 C167 134 163 120 148 120 L91 120 C80 120 71 111 71 100 L71 20 C71 9 80 0 91 0 L277 0 C288 0 297 9 297 20 L297 129 C297 138 296 159 272 175 C227 204 189 262 189 381 C189 494 248 571 341 571 C434 571 494 494 494 381 C494 262 456 204 411 175 C387 159 386 138 386 129 L386 20 C386 9 395 0 406 0 L592 0 C603 0 612 9 612 20 L612 100 C612 111 603 120 592 120 L535 120 C520 120 517 135 528 142 L528 142 Z " />
<glyph glyph-name="mu" unicode="&#x3bc;" horiz-adv-x="520" d="M252 -10 C309 -10 319 20 345 20 C367 20 366 0 390 0 L440 0 C451 0 460 9 460 20 L460 480 C460 491 451 500 440 500 L350 500 C339 500 330 491 330 480 L330 170 C330 140 302 115 255 115 C207 115 180 141 180 174 L180 480 C180 491 171 500 160 500 L70 500 C59 500 51 491 51 480 L50 -180 C50 -191 59 -200 70 -200 L160 -200 C171 -200 180 -191 180 -180 L180 -20 C180 2 195 7 210 1 C221 -4 233 -10 252 -10 L252 -10 Z " />
<glyph glyph-name="pi" unicode="&#x3c0;" horiz-adv-x="535" d="M495 370 C506 370 515 379 515 390 L515 480 C515 491 506 500 495 500 L35 500 C24 500 15 491 15 480 L15 390 C15 379 24 370 35 370 L80 370 C86 370 90 366 90 360 L90 20 C90 9 99 0 110 0 L195 0 C206 0 215 9 215 20 L215 360 C215 366 219 370 225 370 L292 370 C297 370 300 365 300 360 L300 190 C300 58 368 0 500 0 C511 0 520 9 520 20 L520 99 C520 110 511 119 500 119 C442 119 424 141 424 190 L424 360 C424 366 428 370 434 370 L495 370 Z " />
<glyph glyph-name="Wgrave" unicode="&#x1e80;" horiz-adv-x="757" d="M317 15 L372 340 C373 348 383 348 384 340 L439 15 C441 5 449 0 458 0 L597 0 C606 0 614 5 616 15 L751 680 C753 690 747 700 731 700 L631 700 C622 700 614 696 612 685 L530 244 C529 239 527 237 523 237 L517 237 C513 237 511 239 510 244 L442 685 C440 695 432 700 423 700 L333 700 C324 700 316 695 314 685 L247 244 C246 239 244 237 240 237 L234 237 C230 237 228 239 227 244 L145 685 C143 696 135 700 126 700 L26 700 C10 700 4 690 6 680 L140 15 C142 5 150 0 159 0 L298 0 C307 0 315 5 317 15 L317 15 Z M230 910 C211 910 207 895 218 883 L333 762 C339 756 345 750 363 750 L432 750 C445 750 457 764 445 780 L363 894 C358 901 352 910 337 910 L230 910 Z " />
<glyph glyph-name="wgrave" unicode="&#x1e81;" horiz-adv-x="715" d="M145 485 C142 496 135 500 126 500 L35 500 C19 500 13 487 16 477 L155 15 C158 5 165 0 174 0 L282 0 C291 0 299 5 301 15 L350 247 C351 251 360 251 361 247 L416 15 C418 5 426 0 435 0 L543 0 C552 0 559 5 562 15 L699 477 C702 487 696 500 680 500 L589 500 C580 500 573 496 570 485 L496 191 C494 184 486 185 485 191 L423 485 C421 496 413 500 404 500 L306 500 C297 500 289 496 287 485 L230 191 C229 184 220 185 219 191 L145 485 Z M212 730 C193 730 189 715 200 703 L315 582 C321 576 327 570 345 570 L414 570 C427 570 439 584 427 600 L345 714 C340 721 334 730 319 730 L212 730 Z " />
<glyph glyph-name="Wacute" unicode="&#x1e82;" horiz-adv-x="757" d="M317 15 L372 340 C373 348 383 348 384 340 L439 15 C441 5 449 0 458 0 L597 0 C606 0 614 5 616 15 L751 680 C753 690 747 700 731 700 L631 700 C622 700 614 696 612 685 L530 244 C529 239 527 237 523 237 L517 237 C513 237 511 239 510 244 L442 685 C440 695 432 700 423 700 L333 700 C324 700 316 695 314 685 L247 244 C246 239 244 237 240 237 L234 237 C230 237 228 239 227 244 L145 685 C143 696 135 700 126 700 L26 700 C10 700 4 690 6 680 L140 15 C142 5 150 0 159 0 L298 0 C307 0 315 5 317 15 L317 15 Z M427 910 C412 910 406 901 401 894 L319 780 C307 764 319 750 332 750 L401 750 C419 750 425 756 431 762 L546 883 C557 895 553 910 534 910 L427 910 Z " />
<glyph glyph-name="wacute" unicode="&#x1e83;" horiz-adv-x="715" d="M145 485 C142 496 135 500 126 500 L35 500 C19 500 13 487 16 477 L155 15 C158 5 165 0 174 0 L282 0 C291 0 299 5 301 15 L350 247 C351 251 360 251 361 247 L416 15 C418 5 426 0 435 0 L543 0 C552 0 559 5 562 15 L699 477 C702 487 696 500 680 500 L589 500 C580 500 573 496 570 485 L496 191 C494 184 486 185 485 191 L423 485 C421 496 413 500 404 500 L306 500 C297 500 289 496 287 485 L230 191 C229 184 220 185 219 191 L145 485 Z M389 730 C374 730 368 721 363 714 L281 600 C269 584 281 570 294 570 L363 570 C381 570 387 576 393 582 L508 703 C519 715 515 730 496 730 L389 730 Z " />
<glyph glyph-name="Wdieresis" unicode="&#x1e84;" horiz-adv-x="757" d="M317 15 L372 340 C373 348 383 348 384 340 L439 15 C441 5 449 0 458 0 L597 0 C606 0 614 5 616 15 L751 680 C753 690 747 700 731 700 L631 700 C622 700 614 696 612 685 L530 244 C529 239 527 237 523 237 L517 237 C513 237 511 239 510 244 L442 685 C440 695 432 700 423 700 L333 700 C324 700 316 695 314 685 L247 244 C246 239 244 237 240 237 L234 237 C230 237 228 239 227 244 L145 685 C143 696 135 700 126 700 L26 700 C10 700 4 690 6 680 L140 15 C142 5 150 0 159 0 L298 0 C307 0 315 5 317 15 L317 15 Z M351 870 C351 881 342 890 331 890 L241 890 C230 890 221 881 221 870 L221 780 C221 769 230 760 241 760 L331 760 C342 760 351 769 351 780 L351 870 Z M551 870 C551 881 542 890 531 890 L441 890 C430 890 421 881 421 870 L421 780 C421 769 430 760 441 760 L531 760 C542 760 551 769 551 780 L551 870 Z " />
<glyph glyph-name="wdieresis" unicode="&#x1e85;" horiz-adv-x="715" d="M145 485 C142 496 135 500 126 500 L35 500 C19 500 13 487 16 477 L155 15 C158 5 165 0 174 0 L282 0 C291 0 299 5 301 15 L350 247 C351 251 360 251 361 247 L416 15 C418 5 426 0 435 0 L543 0 C552 0 559 5 562 15 L699 477 C702 487 696 500 680 500 L589 500 C580 500 573 496 570 485 L496 191 C494 184 486 185 485 191 L423 485 C421 496 413 500 404 500 L306 500 C297 500 289 496 287 485 L230 191 C229 184 220 185 219 191 L145 485 Z M319 690 C319 701 310 710 299 710 L209 710 C198 710 189 701 189 690 L189 600 C189 589 198 580 209 580 L299 580 C310 580 319 589 319 600 L319 690 Z M519 690 C519 701 510 710 499 710 L409 710 C398 710 389 701 389 690 L389 600 C389 589 398 580 409 580 L499 580 C510 580 519 589 519 600 L519 690 Z " />
<glyph glyph-name="Ygrave" unicode="&#x1ef2;" horiz-adv-x="518" d="M157 685 C153 696 147 700 138 700 L28 700 C15 700 6 687 12 672 L189 226 L189 20 C189 9 198 0 209 0 L309 0 C320 0 329 9 329 20 L329 226 L506 672 C512 687 503 700 490 700 L380 700 C371 700 365 696 361 685 L265 408 C263 402 255 402 253 408 L157 685 Z M109 910 C90 910 86 895 97 883 L212 762 C218 756 224 750 242 750 L311 750 C324 750 336 764 324 780 L242 894 C237 901 231 910 216 910 L109 910 Z " />
<glyph glyph-name="ygrave" unicode="&#x1ef3;" horiz-adv-x="485" d="M148 485 C144 496 138 500 129 500 L26 500 C10 500 3 487 7 477 L173 32 C177 22 176 19 173 10 L103 -177 C99 -187 106 -200 122 -200 L214 -200 C223 -200 229 -196 233 -185 L468 477 C472 487 465 500 449 500 L348 500 C339 500 332 496 329 485 L248 201 C246 193 239 193 236 201 L148 485 Z M90 730 C71 730 67 715 78 703 L193 582 C199 576 205 570 223 570 L292 570 C305 570 317 584 305 600 L223 714 C218 721 212 730 197 730 L90 730 Z " />
<glyph glyph-name="endash" unicode="&#x2013;" horiz-adv-x="570" d="M90 325 C79 325 70 316 70 305 L70 216 C70 205 79 196 90 196 L500 196 C511 196 520 205 520 216 L520 305 C520 316 511 325 500 325 L90 325 Z " />
<glyph glyph-name="emdash" unicode="&#x2014;" horiz-adv-x="710" d="M83 325 C72 325 63 316 63 305 L63 216 C63 205 72 196 83 196 L640 196 C651 196 660 205 660 216 L660 305 C660 316 651 325 640 325 L83 325 Z " />
<glyph glyph-name="quoteleft" unicode="&#x2018;" horiz-adv-x="257" d="M185 700 L165 700 C145 700 137 689 131 680 L67 596 C54 579 45 553 45 527 L45 410 C45 399 54 390 65 390 L185 390 C196 390 205 399 205 410 L205 530 C205 541 196 550 185 550 L161 550 C155 550 148 556 152 563 L206 662 C216 680 205 700 185 700 L185 700 Z " />
<glyph glyph-name="quoteright" unicode="&#x2019;" horiz-adv-x="257" d="M90 390 C110 390 118 401 124 410 L188 494 C201 511 210 537 210 563 L210 680 C210 691 201 700 190 700 L70 700 C59 700 50 691 50 680 L50 560 C50 549 59 540 70 540 L94 540 C100 540 107 534 103 527 L49 428 C39 410 50 390 70 390 L90 390 Z " />
<glyph glyph-name="quotesinglbase" unicode="&#x201a;" horiz-adv-x="259" d="M93 -150 C113 -150 121 -139 127 -130 L191 -46 C204 -29 213 -3 213 23 L213 140 C213 151 204 160 193 160 L73 160 C62 160 53 151 53 140 L53 20 C53 9 62 0 73 0 L97 0 C103 0 110 -6 106 -13 L52 -112 C42 -130 53 -150 73 -150 L93 -150 Z " />
<glyph glyph-name="quotedblleft" unicode="&#x201c;" horiz-adv-x="477" d="M185 700 L165 700 C145 700 137 689 131 680 L67 596 C54 579 45 553 45 527 L45 410 C45 399 54 390 65 390 L185 390 C196 390 205 399 205 410 L205 530 C205 541 196 550 185 550 L161 550 C155 550 148 556 152 563 L206 662 C216 680 205 700 185 700 L185 700 Z M405 700 L385 700 C365 700 357 689 351 680 L287 596 C274 579 265 553 265 527 L265 410 C265 399 274 390 285 390 L405 390 C416 390 425 399 425 410 L425 530 C425 541 416 550 405 550 L381 550 C375 550 368 556 372 563 L426 662 C436 680 425 700 405 700 L405 700 Z " />
<glyph glyph-name="quotedblright" unicode="&#x201d;" horiz-adv-x="477" d="M310 390 C330 390 338 401 344 410 L408 494 C421 511 430 537 430 563 L430 680 C430 691 421 700 410 700 L290 700 C279 700 270 691 270 680 L270 560 C270 549 279 540 290 540 L314 540 C320 540 327 534 323 527 L269 428 C259 410 270 390 290 390 L310 390 Z M90 390 C110 390 118 401 124 410 L188 494 C201 511 210 537 210 563 L210 680 C210 691 201 700 190 700 L70 700 C59 700 50 691 50 680 L50 560 C50 549 59 540 70 540 L94 540 C100 540 107 534 103 527 L49 428 C39 410 50 390 70 390 L90 390 Z " />
<glyph glyph-name="quotedblbase" unicode="&#x201e;" horiz-adv-x="481" d="M70 -150 L90 -150 C110 -150 118 -139 124 -130 L188 -46 C201 -29 210 -3 210 23 L210 140 C210 151 201 160 190 160 L70 160 C59 160 50 151 50 140 L50 20 C50 9 59 0 70 0 L94 0 C100 0 107 -6 103 -13 L49 -112 C39 -130 50 -150 70 -150 L70 -150 Z M290 -150 L310 -150 C330 -150 338 -139 344 -130 L408 -46 C421 -29 430 -3 430 23 L430 140 C430 151 421 160 410 160 L290 160 C279 160 270 151 270 140 L270 20 C270 9 279 0 290 0 L314 0 C320 0 327 -6 323 -13 L269 -112 C259 -130 270 -150 290 -150 L290 -150 Z " />
<glyph glyph-name="dagger" unicode="&#x2020;" horiz-adv-x="467" d="M174 -100 C174 -111 183 -120 194 -120 L274 -120 C285 -120 294 -111 294 -100 L294 360 C294 366 298 370 304 370 L434 370 C445 370 454 379 454 390 L454 470 C454 481 445 490 434 490 L304 490 C298 490 294 494 294 500 L294 680 C294 691 285 700 274 700 L194 700 C183 700 174 691 174 680 L174 500 C174 494 170 490 164 490 L34 490 C23 490 14 481 14 470 L14 390 C14 379 23 370 34 370 L164 370 C170 370 174 366 174 360 L174 -100 Z " />
<glyph glyph-name="daggerdbl" unicode="&#x2021;" horiz-adv-x="517" d="M58 542 C47 542 38 533 38 522 L38 444 C38 433 47 424 58 424 L186 424 C192 424 196 420 196 414 L196 286 C196 280 192 276 186 276 L58 276 C47 276 38 267 38 256 L38 178 C38 167 47 158 58 158 L186 158 C192 158 196 154 196 148 L196 20 C196 9 205 0 216 0 L290 0 C301 0 310 9 310 20 L310 148 C310 154 314 158 320 158 L448 158 C459 158 468 167 468 178 L468 256 C468 267 459 276 448 276 L320 276 C314 276 310 280 310 286 L310 414 C310 420 314 424 320 424 L448 424 C459 424 468 433 468 444 L468 522 C468 533 459 542 448 542 L320 542 C314 542 310 546 310 552 L310 680 C310 691 301 700 290 700 L216 700 C205 700 196 691 196 680 L196 552 C196 546 192 542 186 542 L58 542 Z " />
</font>
</defs>
</svg>
