<?xml version="1.0" encoding="UTF-8"?>
<svg xmlns="http://www.w3.org/2000/svg" xmlns:xlink="http://www.w3.org/1999/xlink" version="1.2" >
<font id="Aracne Condensed Regular">
<font-face  font-family="Aracne Condensed Regular" units-per-em="1000" ascent="720" descent="-90" font-style="normal" font-weight="400" font-stretch="condensed" cap-height="720" x-height="707" underline-position="-107" underline-thickness="73" />
<missing-glyph  horiz-adv-x="500" d="" />
<glyph glyph-name="space" unicode="&#x20;" horiz-adv-x="248" d="" />
<glyph glyph-name="exclam" unicode="&#x21;" horiz-adv-x="162" d="M19 696 Q24 694 24 692 Q28 694 30 694 Q61 676 61 635 L59 635 L61 631 Q59 627 59 625 Q63 625 63 622 Q63 618 59 618 L61 614 L61 609 Q61 607 59 607 L61 603 L61 581 L63 570 L59 562 Q62 562 65 557 L59 553 L63 535 L61 531 Q63 528 63 524 Q63 522 61 522 L63 512 L61 500 Q61 498 63 498 L61 485 L61 429 Q61 427 59 427 L61 424 L61 413 Q61 411 59 411 L61 407 L61 389 Q61 384 63 381 Q61 378 61 376 Q61 371 63 361 Q61 351 61 339 Q65 338 65 335 L61 333 Q63 306 65 303 L63 300 Q63 298 65 294 Q65 289 63 281 Q65 254 65 235 L65 218 Q65 216 63 216 L65 213 L65 211 Q65 209 63 209 Q65 205 65 204 Q65 182 68 168 Q64 142 63 142 L65 139 L65 137 Q65 135 63 135 L65 131 L65 105 L68 93 L67 93 L68 89 Q59 71 54 68 L46 70 L43 68 Q39 70 35 70 L26 68 L17 80 L17 81 L19 85 Q15 85 15 89 Q15 94 17 94 L15 113 L15 137 L17 148 Q15 152 15 154 Q17 157 17 159 Q17 161 15 161 L17 172 L15 189 Q15 191 17 191 L15 200 L15 235 Q15 239 13 242 L17 257 Q13 278 11 303 Q13 307 13 311 L11 318 Q13 324 15 324 Q13 327 11 340 Q11 342 13 342 Q9 375 9 396 L11 396 L9 400 Q11 403 11 405 Q11 407 9 407 L11 416 L11 429 L9 438 L11 438 L7 459 Q11 466 11 472 L9 475 Q11 479 11 483 Q11 485 9 485 Q9 487 11 490 Q9 510 9 525 L9 527 Q9 533 11 537 Q9 557 7 562 L9 566 Q7 582 7 592 L7 599 L6 603 L9 605 Q6 640 2 644 L4 644 L2 648 Q2 649 4 649 L2 653 L2 664 L4 668 L0 668 L0 670 Q1 673 4 673 L2 677 Q11 690 11 694 L13 694 L17 692 L19 696 Z M52 43 Q54 43 54 41 L57 43 Q67 39 74 28 Q74 12 56 0 L44 2 L33 0 Q33 4 28 4 Q24 2 22 2 Q17 12 17 17 L19 17 L17 20 Q17 37 52 43 Z " />
<glyph glyph-name="quotedbl" unicode="&#x22;" horiz-adv-x="214" d="M5 750 L5 753 Q5 757 26 760 L26 761 Q46 761 50 751 Q50 750 52 750 L50 743 L50 722 Q50 721 48 721 L50 719 L50 711 Q50 709 48 707 Q50 705 50 703 Q50 702 48 700 Q48 698 50 698 L48 693 L50 688 Q48 686 48 685 L50 680 Q50 678 48 678 L50 666 L50 661 Q50 651 48 634 Q50 632 50 629 Q48 627 48 626 L50 624 Q50 623 48 623 L52 603 Q46 583 34 583 Q25 583 14 595 Q8 595 8 597 L10 600 Q10 601 8 601 Q8 602 10 604 Q7 630 7 652 Q7 652 8 658 Q7 660 7 661 Q7 662 8 662 L7 667 L7 690 Q7 691 8 691 L7 693 L7 703 L8 709 Q7 711 7 714 L7 715 Q7 718 8 720 L7 722 L8 724 Q8 725 7 725 L8 729 Q7 739 7 741 L8 741 Q5 745 5 750 Z M78 750 L78 753 Q78 757 100 760 L100 761 Q119 761 124 751 Q124 750 125 750 L124 743 L124 722 Q124 721 122 721 L124 719 L124 711 Q124 709 122 707 Q124 705 124 703 Q124 702 122 700 Q122 698 124 698 L122 693 L124 688 Q122 686 122 685 L124 680 Q124 678 122 678 L124 666 L124 661 Q124 651 122 634 Q124 632 124 629 Q122 627 122 626 L124 624 Q124 623 122 623 L125 603 Q120 583 107 583 Q99 583 87 595 Q82 595 82 597 L83 600 Q83 601 82 601 Q82 602 83 604 Q80 630 80 652 Q80 652 82 658 Q80 660 80 661 Q80 662 82 662 L80 667 L80 690 Q80 691 82 691 L80 693 L80 703 L82 709 Q80 711 80 714 L80 715 Q80 718 82 720 L80 722 L82 724 Q82 725 80 725 L82 729 Q80 739 80 741 L82 741 Q78 745 78 750 Z " />
<glyph glyph-name="numbersign" unicode="&#x23;" horiz-adv-x="651" d="M181 704 Q183 704 183 702 L187 704 L191 702 Q198 704 204 704 Q213 704 220 680 Q214 625 213 625 Q216 616 216 608 Q215 588 213 588 L216 545 Q215 527 215 506 L215 497 L216 478 L215 478 L216 475 L216 454 L215 451 Q218 451 218 449 Q220 449 220 451 L231 449 Q256 451 266 451 Q273 451 298 449 Q301 451 303 451 L303 449 L307 451 L316 451 Q318 451 318 449 Q320 449 320 451 L339 449 L346 449 L346 488 Q346 490 348 490 L346 493 L346 549 L344 558 L346 558 Q346 560 344 560 L346 573 L346 575 L344 584 L346 584 L344 588 L344 601 Q344 606 342 606 L344 615 L344 619 Q344 636 340 684 Q353 700 370 700 Q392 700 400 662 L398 652 L398 632 Q398 630 396 630 L398 626 L398 621 Q398 594 396 573 L400 539 L396 538 L398 534 L398 515 Q398 514 396 514 L398 510 L398 477 Q398 472 396 469 Q398 466 398 462 L396 462 L398 458 L398 449 L400 449 Q427 449 464 447 Q483 449 494 449 Q498 447 500 447 L503 449 Q505 449 505 447 L524 449 L527 449 Q545 449 555 421 L555 419 Q555 408 540 395 L538 395 Q537 395 537 397 L533 395 L522 395 L516 399 L511 399 L501 397 L501 399 Q499 397 475 395 L472 397 Q470 397 470 395 Q454 399 451 399 L448 397 L440 399 L429 397 L429 399 L426 397 L411 397 L401 399 L401 395 L403 384 L401 380 L403 373 L401 356 L403 349 L401 345 L403 342 Q403 340 401 340 L403 330 L403 325 Q403 314 401 295 Q403 292 403 288 L401 288 L403 284 L403 269 L424 269 Q428 269 431 271 Q442 269 442 268 L446 269 L450 268 Q453 269 455 269 L455 268 L459 269 Q461 269 461 268 L464 269 L494 269 Q496 269 496 268 Q502 271 507 271 Q526 271 535 247 L535 243 Q535 242 533 242 Q535 238 535 236 Q535 221 514 216 L505 218 L494 218 L481 216 L481 218 Q477 216 475 216 Q443 219 435 219 L411 219 L407 221 L407 216 Q407 212 409 208 L407 205 Q409 201 409 197 L407 197 L409 194 Q409 192 407 192 L409 182 L409 164 L411 153 L409 149 Q411 146 411 142 Q411 140 409 140 Q411 134 414 101 L414 90 Q414 88 413 88 L414 84 L414 14 Q414 1 390 -1 L389 3 L381 -1 Q376 -1 363 23 Q363 25 364 25 Q361 49 361 60 L363 60 L361 64 L361 71 Q355 106 355 127 L357 127 L355 131 Q355 132 357 132 Q353 139 353 147 Q353 153 355 157 Q352 180 352 205 L353 205 L352 208 L352 219 L340 221 L324 219 Q307 221 303 221 L294 219 Q289 221 289 223 L285 221 L229 221 Q228 221 228 223 Q224 221 218 221 Q220 209 222 205 Q220 201 220 199 Q224 166 224 144 L222 144 Q222 142 224 142 L228 31 L226 31 Q231 20 231 5 Q229 5 229 3 Q231 3 231 1 L211 -10 L209 -6 Q201 -10 198 -10 L183 10 L183 12 Q183 14 185 14 Q183 18 183 20 L185 23 L178 36 L178 38 Q178 40 179 40 Q178 43 176 62 L178 70 Q176 77 176 83 L178 83 L176 86 L176 103 L172 108 L176 110 L174 114 Q174 120 176 123 Q172 162 172 177 L174 181 L172 184 Q172 186 174 190 Q172 202 172 210 L172 219 Q172 223 168 223 L159 223 L150 221 L150 223 Q138 220 91 216 L91 218 L87 216 L67 216 L54 214 L54 216 Q41 213 37 210 L35 214 L31 212 Q2 221 2 245 Q0 249 0 251 Q2 251 15 268 L26 269 Q28 269 28 268 Q29 268 35 269 L46 268 Q79 270 81 271 Q83 271 83 269 L91 271 Q147 273 168 273 L168 279 Q168 285 170 295 Q168 299 168 301 L170 301 L168 305 L168 310 L167 332 L168 332 L167 336 Q167 340 168 343 L167 347 Q168 350 168 354 Q168 356 167 356 L168 366 Q168 370 167 380 L168 388 L167 399 L165 399 Q146 399 109 401 L109 403 Q101 399 80 399 L67 401 Q63 399 61 399 Q20 402 20 421 Q17 421 17 425 L17 430 Q17 445 33 456 Q50 455 50 453 L59 454 L63 454 Q67 454 70 453 L74 454 Q76 454 76 453 Q80 453 83 454 Q143 453 168 451 Q168 457 170 460 Q168 470 168 477 L168 478 Q168 480 170 480 Q169 484 167 501 Q168 514 168 523 Q168 529 167 554 L168 554 L167 558 Q167 562 168 578 Q167 598 167 610 L168 610 L167 613 Q167 618 168 621 Q167 634 167 641 L167 645 Q167 647 168 647 L167 650 L167 682 Q174 689 174 695 Q170 695 170 699 Q172 704 181 704 Z M283 401 Q250 399 229 399 L229 401 L226 399 L215 399 L215 377 Q215 372 216 369 Q215 360 213 360 L215 356 L215 353 Q215 351 213 351 Q215 346 216 332 Q215 329 215 327 Q216 323 216 321 L215 317 L216 314 L215 305 Q216 301 216 297 Q213 297 213 293 Q216 293 216 290 L216 273 L246 273 Q248 273 248 271 L252 273 L253 273 Q272 273 272 269 L281 271 Q285 271 302 269 L305 271 Q308 269 313 269 Q317 269 320 271 L331 269 L348 269 L348 284 Q348 286 350 286 L346 305 Q346 306 348 306 L346 316 L346 353 Q346 359 344 362 L346 373 L346 397 Q346 401 342 401 Q317 399 311 399 Q294 400 294 403 L290 401 L289 401 Q287 401 287 403 L283 401 Z " />
<glyph glyph-name="dollar" unicode="&#x24;" horiz-adv-x="382" d="M126 776 L133 776 Q135 776 135 774 L139 776 Q168 767 168 745 L168 741 Q168 739 167 739 L168 736 L168 721 Q176 721 176 719 Q178 719 178 721 Q237 721 266 650 Q274 618 285 593 Q282 565 263 565 Q261 565 252 563 Q252 566 237 575 Q229 589 228 610 Q221 621 205 662 Q192 678 172 678 Q168 678 168 674 L168 654 Q168 652 167 652 L168 649 Q168 647 167 647 L168 643 L168 619 Q168 612 170 602 Q170 600 168 600 L172 576 L170 567 Q172 551 174 547 Q174 545 172 545 L174 536 L174 530 Q174 524 172 514 Q174 510 174 506 Q174 504 172 504 L174 491 L174 462 Q174 458 176 454 L174 451 Q174 426 192 414 Q255 347 266 303 Q277 269 281 242 L279 242 Q281 240 283 212 Q281 163 281 140 Q269 72 237 36 Q205 3 181 1 L181 -3 L183 -12 Q179 -12 179 -16 Q183 -16 183 -19 L183 -25 L181 -29 Q185 -29 185 -32 L183 -32 L185 -36 L185 -40 Q185 -48 176 -58 L167 -58 L163 -56 L163 -60 L159 -60 L154 -56 Q154 -60 150 -60 Q141 -55 141 -53 Q131 -43 131 -36 L133 -36 Q133 -8 118 -8 Q88 -8 56 18 Q0 84 0 119 L0 123 Q0 127 2 131 Q0 134 0 138 Q6 182 30 182 Q30 184 37 184 Q54 184 54 158 L52 155 Q54 151 54 147 L52 144 Q54 140 54 138 L52 134 Q54 131 54 129 L52 125 Q56 116 56 112 L54 112 Q54 110 65 94 L63 94 Q70 75 98 47 Q112 34 128 34 Q128 36 126 36 L128 58 L128 64 Q128 68 126 71 Q126 73 128 73 L126 82 Q126 84 128 88 Q126 91 126 95 L128 95 L126 99 L126 140 Q126 144 124 147 L126 151 L124 155 Q124 156 126 156 L124 169 L124 179 Q124 181 126 181 Q126 182 124 182 Q124 184 126 193 L124 210 L126 219 Q126 221 124 221 L126 234 L126 245 Q126 249 124 253 L126 256 L124 266 Q124 267 126 267 Q123 292 122 297 Q124 300 124 304 Q122 308 122 310 L124 310 L122 314 L122 323 Q122 325 124 325 Q122 328 122 330 L124 343 Q124 345 122 345 L124 358 L124 369 Q124 373 122 377 L124 380 L122 391 Q122 393 124 393 L122 403 L122 417 Q106 442 78 467 Q78 471 59 501 Q37 560 37 575 Q39 578 39 582 Q37 582 37 584 Q40 584 43 591 Q39 591 39 595 L41 595 L39 599 L43 604 Q41 608 41 610 L44 612 Q44 610 46 610 L46 612 L44 615 Q49 615 54 636 Q52 639 52 641 L56 639 Q56 641 57 645 Q56 648 56 650 L59 649 L61 652 Q57 652 57 656 Q75 690 109 708 Q109 710 113 710 L113 719 L109 724 Q113 730 113 736 L113 756 L109 761 Q112 761 118 773 Q121 773 126 776 Z M87 597 Q87 595 89 595 L87 582 L87 578 Q91 572 98 536 Q100 536 120 493 L122 493 Q122 506 124 508 Q122 519 120 519 L122 528 L122 539 Q122 543 118 543 Q118 545 120 549 Q118 581 118 600 L120 600 L118 604 L118 608 Q118 610 120 610 Q117 612 115 652 Q117 652 117 654 L115 654 Q100 638 87 597 Z M174 362 L174 329 Q174 324 176 321 L174 317 Q174 312 178 282 L176 282 L178 279 L176 275 L178 267 Q178 266 176 266 Q176 261 178 258 Q176 227 176 210 L176 175 Q176 168 178 158 L176 155 L178 151 Q178 149 176 149 Q176 146 179 134 L176 105 Q178 102 178 95 L178 94 Q178 92 176 92 L178 88 L176 77 Q178 59 178 44 L179 44 Q197 44 220 101 Q229 151 231 151 Q231 153 229 153 L235 193 L233 197 L235 205 Q231 234 228 238 Q228 240 229 240 Q222 278 216 284 Q220 284 220 288 Q218 288 194 338 Q176 358 176 362 L174 362 Z " />
<glyph glyph-name="percent" unicode="&#x25;" horiz-adv-x="418" d="M221 278 L222 274 Q222 262 238 258 Q255 258 260 273 Q260 274 259 274 Q259 284 246 292 L246 292 L242 292 L237 292 Q224 292 221 278 Z M279 696 Q281 696 281 694 L285 696 L290 696 L302 688 Q302 692 305 692 Q318 679 318 677 L318 670 L303 644 Q305 644 305 642 Q299 639 278 583 L192 400 L192 392 L194 389 Q189 389 178 350 L170 337 L172 333 Q154 295 135 246 Q130 236 111 179 Q93 138 81 98 L78 96 L80 93 Q61 45 57 30 L59 26 Q59 17 48 6 Q41 0 33 0 Q31 0 31 2 L28 0 Q0 10 0 26 L0 28 L35 126 Q68 207 107 313 Q110 317 133 372 Q131 372 131 374 Q134 374 165 459 Q199 522 250 638 Q263 665 272 690 Q275 690 279 696 Z M46 444 L50 442 L61 444 Q91 434 91 420 Q93 420 94 398 Q94 379 57 353 Q54 353 54 352 Q32 353 13 374 Q4 385 4 403 L4 411 Q4 429 46 444 Z M229 320 L248 320 Q281 298 281 272 Q270 231 241 231 L235 231 Q207 240 198 261 Q198 269 192 279 L196 281 L194 285 Q197 313 213 313 Q221 320 229 320 Z M33 403 L34 399 Q34 387 50 383 Q67 383 72 398 Q72 399 71 399 Q71 409 58 417 L58 417 L54 417 L49 417 Q36 417 33 403 Z " />
<glyph glyph-name="ampersand" unicode="&#x26;" horiz-adv-x="394" d="M142 688 Q187 688 222 593 Q226 593 228 538 Q228 481 170 401 Q142 360 142 357 Q172 244 192 211 Q216 170 216 168 L218 168 Q226 194 226 198 L226 209 Q232 222 237 222 L237 223 L233 223 L233 227 L253 235 Q278 223 278 201 Q279 201 279 199 Q270 159 253 112 Q266 83 322 40 Q339 21 339 7 Q339 0 329 -4 Q307 -2 265 33 L229 68 L183 9 Q144 -30 117 -30 Q68 -30 20 16 L9 40 Q0 56 0 96 L0 140 Q4 232 91 377 Q61 493 61 499 Q54 499 48 558 L48 564 Q48 566 50 566 Q46 572 46 577 L46 588 Q46 592 48 595 Q48 597 46 597 Q48 611 52 619 L50 623 Q61 663 87 675 Q113 686 142 688 Z M94 586 Q96 582 96 581 L94 577 L96 573 L94 569 Q96 566 96 564 L94 564 Q98 531 124 429 Q170 492 179 556 L178 560 L178 569 Q178 571 179 571 Q167 638 144 638 L141 638 Q104 638 98 606 Q97 586 94 586 Z M107 299 Q66 210 56 174 Q50 137 50 107 L48 107 L50 103 L48 100 L50 96 Q50 94 48 94 Q57 24 87 24 Q87 20 113 20 Q159 55 187 96 Q193 105 198 118 Q135 201 117 281 Q111 289 111 299 L107 299 Z " />
<glyph glyph-name="quotesingle" unicode="&#x27;" horiz-adv-x="117" d="M5 750 L5 753 Q5 757 26 760 L26 761 Q46 761 50 751 Q50 750 52 750 L50 743 L50 722 Q50 721 48 721 L50 719 L50 711 Q50 709 48 707 Q50 705 50 703 Q50 702 48 700 Q48 698 50 698 L48 693 L50 688 Q48 686 48 685 L50 680 Q50 678 48 678 L50 666 L50 661 Q50 651 48 634 Q50 632 50 629 Q48 627 48 626 L50 624 Q50 623 48 623 L52 603 Q46 583 34 583 Q25 583 14 595 Q8 595 8 597 L10 600 Q10 601 8 601 Q8 602 10 604 Q7 630 7 652 Q7 652 8 658 Q7 660 7 661 Q7 662 8 662 L7 667 L7 690 Q7 691 8 691 L7 693 L7 703 L8 709 Q7 711 7 714 L7 715 Q7 718 8 720 L7 722 L8 724 Q8 725 7 725 L8 729 Q7 739 7 741 L8 741 Q5 745 5 750 Z " />
<glyph glyph-name="parenleft" unicode="&#x28;" horiz-adv-x="197" d="M146 697 L145 693 Q146 693 146 692 L146 690 Q140 672 132 663 Q91 606 72 558 Q63 522 58 507 L60 499 Q56 499 51 460 Q52 460 52 458 Q51 456 51 452 L51 435 L49 432 L51 432 L49 419 L49 401 Q49 397 47 394 Q49 391 49 386 L49 354 L47 350 Q49 350 49 349 L49 332 L47 329 Q49 329 49 327 L49 320 L47 311 Q50 311 51 302 L51 296 L49 292 L51 292 L49 285 L51 276 Q49 276 49 274 Q50 274 54 262 L51 262 Q57 219 63 197 L62 193 Q69 172 69 146 Q96 63 103 63 Q118 24 126 21 L125 13 L125 11 Q128 11 128 14 L132 13 Q132 9 126 9 Q126 7 128 7 Q126 -15 121 -15 L119 -15 Q116 -15 116 -11 Q114 -11 114 -13 Q110 -13 106 -11 L103 -13 L100 -11 L90 -13 Q87 -5 85 -5 Q77 -5 72 16 Q45 71 38 92 Q18 152 2 292 Q3 292 3 294 Q2 297 2 302 L2 334 L0 343 Q2 343 2 345 L0 356 L2 359 Q0 359 0 361 L0 368 Q0 416 5 458 Q3 458 3 460 L15 529 Q29 609 94 688 Q112 711 130 715 Q143 715 146 697 Z " />
<glyph glyph-name="parenright" unicode="&#x29;" horiz-adv-x="214" d="M16 715 Q34 711 52 688 Q117 609 132 529 L143 460 Q143 458 141 458 Q146 416 146 368 L146 361 Q146 359 145 359 L146 356 L145 345 Q145 343 146 343 L145 334 L145 302 Q145 297 143 294 Q143 292 145 292 Q128 152 108 92 Q102 71 74 16 Q69 -5 62 -5 Q60 -5 56 -13 L47 -11 L43 -13 L40 -11 Q37 -13 33 -13 Q33 -11 31 -11 Q31 -15 27 -15 L25 -15 Q21 -15 18 7 Q20 7 20 9 Q15 9 15 13 L18 14 Q19 11 21 11 L21 13 L20 21 Q28 24 43 63 Q50 63 78 146 Q78 172 85 193 L83 197 Q90 219 96 262 L92 262 Q96 274 98 274 Q98 276 96 276 L98 285 L96 292 L98 292 L96 296 L96 302 Q96 311 100 311 L98 320 L98 327 Q98 329 100 329 L98 332 L98 349 Q98 350 100 350 L98 354 L98 386 Q98 391 100 394 Q98 397 98 401 L98 419 L96 432 L98 432 L96 435 L96 452 Q96 456 94 458 Q94 460 96 460 Q90 499 87 499 L88 507 Q83 522 74 558 Q56 606 15 663 Q6 672 0 690 L0 692 Q0 693 2 693 L0 697 Q3 715 16 715 Z " />
<glyph glyph-name="asterisk" unicode="&#x2a;" horiz-adv-x="280" d="M88 773 L90 773 Q112 758 112 735 L110 735 L112 731 L112 710 Q113 707 116 707 Q159 748 170 748 L172 748 Q182 733 186 733 L186 728 Q186 726 184 726 L186 723 Q181 702 128 661 L128 659 Q161 626 188 594 Q179 566 173 565 Q170 563 168 563 Q144 563 116 605 L112 605 L112 604 Q116 577 116 576 L108 571 L110 567 L110 565 Q100 554 87 553 Q87 555 72 560 Q69 571 60 580 L63 585 L63 609 Q47 597 40 585 Q42 585 42 583 L38 582 L20 582 Q3 590 3 596 Q5 600 5 602 Q2 604 0 604 Q0 619 36 645 L56 663 Q56 667 21 690 Q0 707 0 712 L0 725 Q12 748 21 748 Q30 748 63 721 Q63 731 65 731 L63 735 L63 744 Q63 746 65 746 L63 750 Q68 762 82 770 Q82 768 83 768 Q83 771 88 773 Z " />
<glyph glyph-name="plus" unicode="&#x2b;" horiz-adv-x="342" d="M127 455 Q142 455 155 436 Q155 433 151 433 L155 425 L151 423 L153 414 L153 412 Q153 408 151 405 L153 401 Q151 388 151 381 L151 372 Q155 372 155 370 L159 372 Q161 372 161 370 L164 372 L166 372 Q168 372 168 370 L172 372 L179 370 L188 372 L198 370 Q218 372 235 372 L238 372 L247 373 Q264 365 264 362 Q272 352 273 340 Q268 323 255 323 L253 323 L249 325 L247 322 Q244 322 244 323 Q213 322 198 322 L173 322 Q169 322 166 323 L149 318 L149 316 L151 307 L149 307 Q149 305 151 305 L149 296 Q149 292 151 288 L149 285 Q151 281 151 279 L149 279 L151 275 L151 272 Q151 270 149 270 L151 266 L149 253 L151 235 Q141 218 136 218 L133 220 L124 218 Q99 227 99 238 Q99 280 98 285 L99 288 L98 292 L99 296 Q98 299 98 301 L99 301 L98 305 L98 307 L99 311 Q92 314 92 316 Q90 316 90 314 Q88 314 85 316 L68 314 Q32 314 -2 338 L0 342 L-6 349 Q-3 349 5 360 Q9 360 16 368 Q19 370 24 370 Q55 364 87 364 Q89 364 101 370 L99 379 L99 399 L98 410 Q98 443 116 447 Q124 455 127 455 Z " />
<glyph glyph-name="comma" unicode="&#x2c;" horiz-adv-x="176" d="M45 59 Q83 39 83 2 L83 -6 Q83 -8 82 -8 Q82 -10 83 -10 Q72 -62 56 -72 Q56 -83 40 -84 Q40 -88 36 -88 Q23 -83 23 -81 L25 -77 Q14 -77 13 -61 Q11 -61 11 -59 Q16 -44 25 -30 L27 -21 Q14 -17 2 2 L0 2 Q0 4 2 4 Q2 6 0 10 Q0 43 29 57 L33 55 L45 59 Z " />
<glyph glyph-name="hyphen" unicode="&#x2d;" horiz-adv-x="327" d="M282 311 Q274 311 268 314 L268 312 Q264 312 248 314 L240 312 Q240 314 238 314 L235 312 L231 314 Q228 312 224 312 L222 312 Q216 312 213 314 L202 312 L186 312 L183 314 Q183 312 181 312 L143 312 L134 314 Q134 312 132 312 Q130 312 126 314 Q117 312 116 312 Q80 312 34 316 Q31 314 29 314 Q29 316 27 316 L23 314 Q20 314 20 319 Q0 331 0 339 Q0 352 33 357 L67 354 Q67 356 69 356 L72 354 Q74 354 78 356 Q82 356 85 354 Q115 356 132 356 L139 356 L161 354 Q161 356 165 356 L172 354 Q173 354 177 356 L186 354 L195 356 Q195 354 197 354 Q200 356 202 356 Q207 356 209 354 Q213 356 217 356 L229 356 L233 354 Q233 356 235 356 L271 356 L284 357 Q284 356 286 356 Q302 352 302 332 L300 332 Q294 311 287 311 L282 311 Z " />
<glyph glyph-name="period" unicode="&#x2e;" horiz-adv-x="142" d="M46 69 Q67 69 77 39 L77 24 Q68 7 48 -5 L39 -3 L26 -3 Q3 12 3 29 Q7 67 39 67 Q39 69 46 69 Z " />
<glyph glyph-name="slash" unicode="&#x2f;" horiz-adv-x="234" d="M157 709 Q183 699 183 681 Q172 644 157 577 L155 577 L157 574 Q144 529 135 470 Q124 430 111 366 L109 366 Q109 364 111 364 Q89 257 87 239 L85 239 Q87 235 87 233 L85 229 L87 226 Q83 221 81 198 L83 194 Q72 154 65 85 Q67 82 67 80 Q63 79 63 76 L63 67 Q63 62 65 59 L59 48 L59 46 Q59 42 61 39 Q44 2 31 2 L31 0 Q0 6 0 17 L0 19 L2 19 Q0 22 0 24 Q4 33 13 87 L11 91 Q30 183 44 290 L52 318 L50 322 Q107 583 135 694 Q147 709 157 709 Z " />
<glyph glyph-name="zero" unicode="0" horiz-adv-x="363" d="M117 700 L117 699 L120 700 L122 700 Q124 700 124 699 Q126 699 126 700 Q152 696 152 686 Q154 686 157 687 Q186 687 202 675 Q243 648 263 593 Q274 536 279 497 L278 493 L279 490 Q279 488 278 488 L281 449 L276 449 L276 447 Q281 447 281 434 L281 417 Q281 416 279 416 L281 412 L281 395 Q281 391 283 388 L281 384 Q281 382 283 382 L281 369 L281 364 Q281 336 279 290 L278 290 L279 286 L279 279 Q273 223 268 223 Q268 221 270 221 Q255 133 237 90 Q217 42 181 10 Q166 -4 131 -10 Q86 -10 52 36 Q9 150 9 205 Q7 205 7 208 L9 208 Q8 212 4 249 L6 249 L4 253 L4 266 Q4 275 2 297 Q4 297 4 299 L0 301 L2 308 L0 319 L2 319 L0 323 L0 330 Q0 332 2 332 L0 336 Q1 340 4 340 L2 343 L4 347 Q4 349 2 349 Q9 471 22 545 Q20 549 20 551 Q23 551 33 606 Q49 661 72 676 Q103 700 117 700 Z M61 488 Q61 486 63 486 Q61 469 59 469 Q59 467 61 467 Q53 392 50 382 Q50 380 52 380 L50 371 L50 366 Q50 360 52 360 L50 351 L50 299 Q50 297 48 297 Q52 288 52 284 L50 284 Q50 282 52 282 L50 264 Q57 177 65 160 L63 160 Q91 29 130 29 L133 29 Q178 59 178 71 Q214 129 233 240 Q233 242 231 242 Q231 245 235 256 Q235 258 233 258 L237 295 Q237 297 235 297 Q239 347 242 347 L239 349 Q239 353 241 353 L239 371 L239 393 Q239 397 237 401 Q239 404 239 408 L239 423 L241 427 Q237 427 237 430 Q241 442 241 443 Q237 443 237 447 Q237 451 241 451 Q239 455 237 467 L239 471 Q235 477 235 480 Q239 482 241 482 L241 484 Q233 484 231 523 Q231 525 233 525 L224 573 Q226 576 226 578 Q221 578 215 604 Q185 654 154 654 Q148 654 148 656 Q146 656 146 654 L137 656 L135 656 L126 654 L126 656 Q97 640 85 606 Q74 564 61 488 Z " />
<glyph glyph-name="one" unicode="1" horiz-adv-x="234" d="M102 692 L105 690 L109 692 Q137 685 137 664 Q141 642 142 636 L141 633 Q142 612 142 598 L142 594 Q142 590 141 586 Q141 585 142 585 L141 575 Q141 572 144 561 L141 559 Q141 557 142 557 L141 538 L141 509 Q141 507 139 507 L141 503 L141 487 Q141 479 142 472 Q141 464 141 459 L142 446 Q141 442 141 440 Q142 433 142 427 L141 424 L142 420 Q142 418 141 418 Q142 405 144 401 Q142 398 142 394 Q142 392 144 389 L142 377 L142 374 Q142 370 144 366 Q142 363 142 359 Q142 355 144 355 L142 346 L142 305 Q142 303 141 303 L144 283 Q144 281 142 281 Q142 279 144 276 L142 253 L144 250 Q144 248 142 248 L144 239 L144 235 Q144 229 142 226 Q146 200 146 181 L144 181 L148 170 Q146 163 146 157 Q148 154 148 152 L146 152 L148 148 Q148 146 146 146 Q146 144 148 144 L146 135 L146 126 L148 113 L146 113 Q148 109 148 107 Q148 99 146 96 Q148 84 148 76 L148 63 L146 52 Q148 48 148 46 L146 46 Q150 39 150 26 Q138 0 122 0 L120 0 Q102 6 102 9 Q98 43 96 46 L100 48 L98 52 L98 67 Q98 76 100 94 L96 96 Q98 100 98 102 Q98 107 96 115 Q98 135 100 135 Q98 138 96 159 Q98 169 98 174 L96 178 Q96 179 98 179 Q96 199 94 204 L96 211 Q94 231 94 246 L96 246 L94 250 L94 305 L93 315 L94 315 Q94 316 93 316 L94 326 L94 357 L93 368 Q94 371 94 377 L93 381 Q94 385 94 387 Q91 387 91 390 Q93 396 94 396 Q91 415 89 485 Q91 496 91 511 Q89 527 89 531 L91 531 Q91 533 89 533 L91 542 L91 551 L89 551 L65 490 Q65 481 61 481 L63 477 Q48 444 24 444 Q0 447 0 474 Q3 478 35 557 L61 627 Q83 692 102 692 Z " />
<glyph glyph-name="two" unicode="2" horiz-adv-x="344" d="M203 702 Q226 698 226 695 L230 697 Q280 668 290 632 Q295 632 296 569 Q293 540 291 537 L293 534 Q280 473 275 473 Q275 471 276 471 Q274 460 268 446 L270 442 Q234 353 205 297 Q205 294 190 274 Q173 228 147 190 Q73 52 73 50 Q70 50 67 43 Q69 43 72 45 Q74 45 84 42 Q120 43 129 46 Q133 44 134 44 Q165 48 226 50 Q247 48 247 46 L252 47 Q272 36 271 14 Q265 3 257 -1 Q255 -1 241 1 Q179 2 179 -2 Q177 -2 177 0 Q154 -5 144 -5 L140 -4 Q138 -4 138 -2 Q134 -6 105 -7 L95 -4 Q92 -6 90 -6 L90 -4 L74 -7 L65 -5 Q63 -5 59 -7 Q57 -7 53 -5 Q40 -6 32 -6 L27 -5 Q6 -5 -4 19 L-4 28 Q13 49 71 159 L70 163 Q90 190 116 242 Q128 256 156 317 Q160 321 189 382 Q218 446 239 532 Q240 543 244 550 Q244 551 242 551 Q244 565 246 571 Q245 574 245 578 L245 586 Q245 587 247 587 Q246 592 244 609 L246 609 L243 617 L245 621 Q245 630 226 647 L222 645 Q212 650 212 651 Q189 648 189 645 L185 647 Q143 625 143 613 Q132 613 120 568 Q116 558 106 559 L105 559 Q71 567 73 594 L73 595 L75 605 Q71 605 71 609 L90 641 Q139 702 198 700 Q198 702 203 702 Z " />
<glyph glyph-name="three" unicode="3" horiz-adv-x="325" d="M91 693 L100 693 Q149 693 196 626 Q207 601 213 575 Q209 567 209 554 L209 543 Q209 541 207 541 L209 538 Q209 521 192 475 Q186 452 163 421 L163 417 Q200 396 216 354 Q237 302 237 299 Q235 299 235 297 Q239 297 246 227 Q242 195 241 192 L242 188 Q232 140 228 138 L229 134 Q209 71 174 21 Q157 -10 91 -10 L89 -10 Q63 -10 17 16 Q15 16 0 33 Q0 49 17 55 Q17 58 20 58 Q30 58 59 40 Q68 34 93 34 L96 34 Q129 34 137 53 Q151 67 183 145 Q183 155 187 160 Q187 162 185 162 Q196 200 196 221 L196 236 Q196 337 144 380 Q122 388 107 388 Q86 384 78 384 L72 384 Q72 387 59 393 Q53 399 50 419 Q70 438 100 438 Q130 450 137 471 Q139 471 154 506 L152 510 Q155 514 155 517 Q154 521 154 523 Q159 523 163 541 L161 545 Q165 554 165 558 L163 562 Q163 564 165 567 Q163 580 163 588 L163 599 Q163 612 130 639 Q128 639 115 643 L107 643 Q95 643 81 639 L81 641 Q62 633 44 619 L37 619 Q21 619 13 643 L13 652 Q43 693 91 693 Z " />
<glyph glyph-name="four" unicode="4" horiz-adv-x="278" d="M146 698 Q174 690 173 682 L173 675 Q173 673 171 673 L173 669 L173 662 Q172 658 169 658 L170 654 Q169 569 172 553 L170 553 L171 549 L171 534 L172 525 L170 525 Q172 521 172 519 Q171 499 175 471 L174 471 Q181 421 178 350 L185 350 L194 352 L194 350 Q196 350 196 352 Q216 351 221 321 Q206 307 189 307 L180 310 L180 308 Q179 292 179 258 L177 254 Q178 247 181 247 L176 225 L178 221 Q175 211 175 206 Q175 193 177 171 L176 171 L177 167 L177 165 Q177 163 175 164 Q177 160 178 141 L176 141 L178 138 L177 123 Q177 116 178 106 Q176 103 176 99 Q178 95 178 93 L176 93 Q176 91 178 91 L175 82 Q175 65 172 34 Q173 24 173 16 Q160 -2 144 -2 Q124 10 124 16 Q123 26 123 34 L125 68 Q125 69 127 69 Q127 71 125 71 L127 80 Q127 82 125 82 L128 92 L126 103 Q128 106 128 110 L127 114 Q127 118 129 117 L127 167 L129 167 L127 171 L129 199 Q129 203 127 206 L129 210 Q129 212 127 212 Q130 226 132 230 Q130 234 130 236 L132 236 Q132 238 130 238 Q130 240 132 243 Q132 284 131 301 Q133 301 133 302 L129 303 Q114 303 105 300 Q103 300 103 302 Q86 299 81 299 L68 301 L59 300 L50 302 L40 301 Q13 308 2 321 Q3 324 -1 329 L-1 332 Q5 338 22 391 L37 440 Q83 568 84 579 Q106 642 133 697 L137 695 Q143 698 146 698 Z M126 558 Q125 547 83 430 Q83 426 55 341 L57 341 Q59 341 59 343 L66 340 Q82 340 131 345 L133 382 L128 529 L130 528 Q128 532 127 547 L129 551 Q127 554 127 558 L126 558 Z " />
<glyph glyph-name="five" unicode="5" horiz-adv-x="360" d="M229 717 L231 713 L235 715 L239 713 L242 715 Q261 703 261 687 Q258 686 253 686 L255 682 Q255 680 241 673 L229 673 L211 671 L211 673 L207 671 Q187 673 172 673 Q170 673 170 675 L167 673 L155 673 Q145 673 120 667 L120 669 Q86 660 81 660 Q85 643 85 615 L85 613 L81 608 Q85 608 85 602 Q85 594 81 517 Q81 515 80 512 Q80 510 81 510 Q78 475 78 464 Q80 464 80 462 L89 464 L113 464 Q117 464 120 465 Q195 453 218 430 Q272 377 272 334 Q276 334 279 303 Q278 299 278 295 Q281 295 285 218 Q277 111 261 92 Q253 54 207 12 Q180 -10 154 -10 L150 -10 Q148 -10 148 -8 Q144 -10 142 -10 Q79 1 61 21 L31 53 Q28 57 24 57 L24 58 L26 62 Q20 62 15 84 Q9 84 6 103 Q3 103 0 108 L0 138 Q3 138 15 147 L28 145 Q31 147 33 147 Q56 120 56 114 L54 114 Q64 89 74 70 Q93 43 120 36 L124 38 Q131 34 139 34 L146 34 Q173 34 205 88 Q228 127 228 142 Q242 200 242 234 Q242 238 241 242 Q241 243 242 243 Q238 312 228 351 Q209 386 191 403 Q154 421 115 421 L105 419 L105 421 L102 419 L93 421 Q90 421 72 417 Q72 419 70 419 Q70 416 57 414 Q31 431 31 451 L33 451 Q31 455 30 467 Q31 475 31 480 L30 484 Q33 504 37 547 Q37 549 35 549 L41 601 Q39 621 39 649 L39 654 Q33 678 33 680 Q34 684 37 684 L35 687 L35 689 Q102 715 174 715 L176 715 Q178 715 178 713 Q179 713 179 715 L189 713 L194 713 L204 715 L204 713 Q206 715 229 717 Z " />
<glyph glyph-name="six" unicode="6" horiz-adv-x="341" d="M189 713 Q233 710 233 684 L233 678 Q226 667 215 667 Q213 667 213 669 Q175 669 146 634 Q128 619 109 591 Q105 587 98 565 Q90 547 87 543 Q89 543 89 541 Q83 541 65 462 Q62 449 56 434 Q56 432 57 432 Q50 399 44 353 Q43 353 43 351 Q46 350 46 347 Q46 343 44 343 L46 330 L46 314 Q46 310 48 306 Q46 303 46 299 L46 295 L48 286 Q44 285 44 282 L46 269 Q65 291 78 293 Q104 316 128 316 L130 312 Q130 312 137 314 Q154 314 200 292 Q257 247 257 173 L255 173 Q259 165 259 149 L259 140 Q259 81 218 21 L191 5 Q191 -7 152 -10 Q145 -10 135 -8 Q132 -10 126 -10 L126 -8 L122 -10 Q52 9 52 27 Q32 49 17 99 L17 103 L19 103 L17 107 L17 108 L19 112 Q14 112 11 144 L11 160 Q6 167 6 173 L6 177 Q6 179 7 179 Q4 190 4 194 L6 197 Q4 200 4 205 L4 206 L6 210 Q2 210 2 214 L2 258 Q2 270 0 282 Q2 289 2 303 L2 305 Q2 306 4 306 L2 310 L2 342 Q2 346 4 349 Q2 352 2 356 L2 373 Q2 375 4 375 L2 379 Q8 424 15 453 Q13 456 13 458 Q17 458 17 462 L15 465 Q27 503 43 567 Q61 614 74 634 Q128 697 165 710 Q168 708 170 708 L172 712 Q176 710 178 710 Q184 713 189 713 Z M52 169 Q54 166 54 164 L52 164 Q61 85 78 62 Q91 27 126 27 Q131 27 139 25 Q159 25 189 60 Q215 112 215 145 Q215 211 204 225 Q204 249 154 271 Q139 277 135 277 Q74 250 74 234 Q54 199 54 171 Q52 171 52 169 Z " />
<glyph glyph-name="seven" unicode="7" horiz-adv-x="309" d="M13 704 Q15 704 33 700 L37 702 L41 700 L44 702 Q52 701 52 699 L56 700 L57 700 Q59 700 59 699 L63 700 L65 700 Q67 700 67 699 Q68 699 68 700 L76 699 Q162 699 202 704 L202 702 Q205 704 207 704 Q231 691 231 673 Q230 641 228 641 Q229 638 229 636 L205 504 L205 493 L202 488 L202 475 Q194 430 189 408 L191 404 Q187 393 172 288 Q137 107 124 55 L126 51 Q122 36 122 20 L122 10 Q122 -7 96 -10 Q74 -10 70 18 Q75 18 81 90 L96 144 Q96 145 94 145 Q99 170 104 177 Q104 179 102 179 Q131 332 141 408 L142 408 L141 412 L146 440 Q144 443 144 445 Q149 445 163 551 Q168 583 176 612 Q174 615 174 617 Q179 617 179 647 L179 649 L181 652 Q174 656 170 656 Q168 656 168 654 L155 656 L148 656 Q144 656 141 654 L137 656 Q127 654 122 654 Q120 654 117 656 Q113 654 111 654 L107 656 Q104 654 102 654 L102 656 L98 654 L96 654 Q92 654 89 656 Q86 654 81 654 L80 654 Q75 654 72 656 L68 654 L41 658 Q37 656 35 656 Q35 659 17 663 Q0 680 0 687 L2 691 Q0 691 0 693 Q9 704 13 704 Z " />
<glyph glyph-name="eight" unicode="8" horiz-adv-x="332" d="M120 715 Q191 715 222 656 Q239 636 239 601 Q239 555 209 469 L200 454 Q202 454 202 453 Q196 453 181 414 Q178 412 163 375 L163 373 L196 334 Q229 279 229 269 Q228 269 228 268 Q240 259 252 212 L250 208 Q253 202 253 194 Q253 156 248 145 L250 142 Q241 126 229 86 Q192 27 157 16 Q145 0 96 -8 Q90 -10 89 -10 L89 -8 Q87 -8 87 -10 Q38 -10 22 23 Q6 56 0 116 Q2 119 2 123 L0 127 Q5 162 7 162 Q7 164 6 164 Q6 185 20 227 Q35 274 68 325 Q92 355 102 379 Q91 379 54 440 Q37 476 31 484 L33 484 Q13 520 13 562 L15 562 Q15 564 13 564 Q17 604 35 645 Q48 679 72 699 Q96 712 120 715 Z M115 671 Q80 650 72 619 Q63 590 56 549 Q60 497 118 417 L126 410 Q131 426 150 462 Q165 492 181 538 Q181 539 179 539 Q192 590 192 599 L191 602 Q191 604 192 604 Q192 642 163 663 Q153 671 133 671 L126 671 L117 669 Q117 671 115 671 Z M137 340 Q91 275 74 240 Q48 177 48 116 Q48 104 52 90 L50 90 Q64 31 76 31 L80 33 L93 33 Q150 50 181 99 L192 127 Q191 127 191 129 Q205 153 205 175 L204 197 Q205 201 205 203 Q179 295 137 340 Z " />
<glyph glyph-name="nine" unicode="9" horiz-adv-x="332" d="M179 708 Q218 708 233 680 L248 662 Q248 658 253 652 Q253 650 252 650 Q253 647 253 645 L246 610 Q248 594 248 582 L248 576 Q248 575 246 575 Q246 573 248 573 L246 554 L246 547 Q246 545 244 545 Q246 541 246 539 Q244 534 242 534 Q242 532 244 532 Q241 508 239 508 L241 504 Q236 496 231 432 Q231 430 233 430 L229 390 Q231 373 231 347 L229 343 Q231 340 231 336 L231 317 L229 306 Q231 303 231 301 Q231 299 229 299 L231 290 Q231 277 228 264 Q231 243 231 229 L229 221 Q231 219 233 199 Q233 194 229 184 Q229 181 233 171 Q231 168 231 166 L233 162 Q233 160 231 160 Q235 144 235 132 Q233 123 233 121 Q235 118 235 116 L233 116 L235 112 L235 99 Q235 90 237 81 L235 73 Q242 6 242 3 Q230 -9 222 -10 Q218 -8 216 -8 Q213 -10 211 -10 Q211 -6 207 -6 Q207 -8 205 -8 Q205 -6 191 -1 Q187 5 185 36 L187 40 Q185 43 185 47 L187 47 L185 51 L185 73 Q185 77 183 81 Q183 83 185 83 L183 95 L183 140 Q183 142 185 142 Q183 153 181 153 L183 160 Q183 164 181 181 Q181 184 183 184 Q179 218 179 269 Q179 271 181 275 L179 286 L179 310 Q179 312 181 312 L179 316 L179 354 Q179 361 178 371 L179 375 Q178 378 178 386 Q159 377 135 371 Q49 371 19 443 Q14 453 0 497 L4 499 Q0 506 0 514 L0 528 Q0 563 15 601 Q23 635 80 678 Q126 708 179 708 Z M150 654 Q148 654 148 656 Q119 651 74 608 Q48 557 48 517 Q60 438 70 438 Q78 421 104 412 Q105 412 115 410 Q143 410 170 445 Q178 457 185 488 L183 491 Q187 557 192 580 Q191 583 191 588 Q202 659 202 663 Q192 663 192 665 L189 663 Q187 663 183 665 Q150 662 150 654 Z " />
<glyph glyph-name="colon" unicode="&#x3a;" horiz-adv-x="135" d="M38 388 L41 386 Q44 388 48 388 Q77 364 77 346 L77 339 Q68 310 54 310 Q54 306 38 306 L38 308 L34 306 Q19 306 5 339 L5 346 Q5 366 30 386 Q34 386 38 388 Z M51 69 Q72 69 82 39 L82 24 Q73 7 53 -5 L44 -3 L31 -3 Q8 12 8 29 Q12 67 44 67 Q44 69 51 69 Z " />
<glyph glyph-name="semicolon" unicode="&#x3b;" horiz-adv-x="155" d="M62 382 Q87 366 87 353 Q90 353 90 344 L90 340 Q78 308 62 308 Q62 304 58 304 L56 304 Q26 304 15 330 L15 346 Q15 375 62 382 Z M45 59 Q83 39 83 2 L83 -6 Q83 -8 82 -8 Q82 -10 83 -10 Q72 -62 56 -72 Q56 -83 40 -84 Q40 -88 36 -88 Q23 -83 23 -81 L25 -77 Q14 -77 13 -61 Q11 -61 11 -59 Q16 -44 25 -30 L27 -21 Q14 -17 2 2 L0 2 Q0 4 2 4 Q2 6 0 10 Q0 43 29 57 L33 55 L45 59 Z " />
<glyph glyph-name="less" unicode="&#x3c;" horiz-adv-x="297" d="M152 456 Q154 456 154 454 L163 456 L175 456 Q191 447 191 427 Q180 413 119 376 Q101 357 65 333 L65 331 Q102 315 213 273 Q224 262 224 259 L222 255 Q224 252 224 248 L224 246 Q208 229 204 228 Q193 228 125 255 Q19 293 2 311 Q0 311 0 313 L0 324 Q0 326 2 326 L0 329 L0 331 Q0 346 25 360 Q27 360 92 419 Q96 419 152 456 Z " />
<glyph glyph-name="equal" unicode="&#x3d;" horiz-adv-x="352" d="M51 409 L52 405 L56 407 L62 407 Q63 407 63 405 L67 407 Q71 407 74 405 L78 407 Q82 407 101 403 L105 405 Q108 403 110 403 Q112 403 112 405 L121 403 L128 403 L139 405 Q142 403 148 403 Q152 405 154 405 L154 403 Q156 405 183 407 L201 405 Q204 407 208 407 L208 405 L211 407 L224 407 Q228 407 231 409 Q234 407 238 407 L251 407 L260 409 L260 407 L264 409 Q271 404 284 402 L284 396 Q279 360 266 360 L262 362 Q258 360 256 360 Q250 364 246 364 L235 364 L217 362 L217 364 L213 362 L206 362 Q204 362 204 364 L201 362 L155 362 Q154 362 154 364 Q147 360 139 360 L139 362 L136 360 L130 360 Q125 360 125 362 L116 360 L101 360 Q100 360 100 362 L96 360 L87 360 Q83 360 80 362 Q76 360 74 360 Q69 360 60 362 L25 358 Q5 370 5 373 L3 373 Q3 396 25 400 Q30 400 38 407 L42 405 Q47 409 51 409 Z M226 315 Q244 314 244 312 L248 313 L262 313 Q264 313 264 312 L268 313 L274 313 Q293 313 298 293 Q296 288 294 288 Q298 282 298 279 Q278 267 278 264 Q259 266 248 270 Q244 268 242 268 L242 270 L238 268 Q226 268 226 271 L222 270 L213 270 Q185 270 175 266 Q173 266 173 268 Q170 268 170 266 Q152 268 143 268 L125 268 Q109 268 23 261 Q23 264 5 271 Q0 278 0 284 L0 286 Q0 290 5 290 L3 293 Q3 297 23 308 Q23 310 25 310 L29 308 Q29 312 33 312 L40 312 Q42 312 42 310 Q45 312 47 312 L54 310 Q56 310 56 312 Q58 312 62 310 Q84 312 87 313 L90 312 L94 313 Q97 312 101 312 L105 313 Q108 312 110 312 Q114 313 116 313 L116 312 L119 313 L126 313 Q130 313 134 312 L137 313 L141 312 L148 313 L157 312 L161 313 L165 312 L173 313 L173 312 L177 313 L184 313 Q186 313 186 312 L190 313 Q199 313 226 315 Z " />
<glyph glyph-name="greater" unicode="&#x3e;" horiz-adv-x="280" d="M33 438 Q72 426 177 384 L191 379 Q191 380 193 380 Q193 378 231 362 Q231 358 237 354 L235 350 Q239 350 240 333 Q149 259 65 216 Q65 213 52 207 Q35 210 25 222 Q25 224 23 227 L25 230 L23 234 Q23 250 62 267 Q119 300 155 328 L166 339 Q165 339 165 341 L161 339 Q153 339 69 379 Q52 381 52 384 Q51 384 51 382 Q0 390 0 413 L0 417 Q0 418 2 418 L0 422 Q7 438 33 438 Z " />
<glyph glyph-name="question" unicode="&#x3f;" horiz-adv-x="294" d="M96 716 Q98 716 98 714 L107 716 L111 716 Q113 716 113 714 Q115 714 115 716 Q158 706 194 670 L213 629 Q213 627 211 627 L218 601 Q218 599 216 599 L220 581 Q218 569 218 557 L218 549 Q215 545 211 522 Q205 493 176 435 Q178 435 178 433 Q147 382 142 350 Q136 329 133 324 Q133 322 135 322 Q115 252 115 185 L117 181 Q115 178 115 176 Q117 152 118 150 Q117 146 117 144 Q120 133 120 130 L118 130 L120 126 L120 120 Q120 118 118 118 L122 111 L120 107 Q122 104 122 102 Q120 87 93 76 L87 76 Q72 81 68 93 L68 94 Q68 96 70 96 L68 100 L68 111 Q68 115 70 118 Q65 134 65 176 L65 179 L63 191 Q65 194 65 200 L63 213 L65 213 L63 216 Q64 228 67 228 L65 231 L65 233 Q65 235 67 235 L65 239 L65 244 L68 250 L68 265 Q94 399 141 479 Q155 516 165 549 L163 553 Q168 567 168 574 Q168 615 144 655 Q112 677 100 677 Q80 677 74 657 Q71 657 63 636 Q52 624 52 586 Q52 585 54 585 L50 577 Q57 549 57 548 Q53 531 39 524 Q35 524 35 527 Q32 525 30 525 Q2 530 2 540 Q0 571 0 588 Q0 633 33 688 Q45 705 70 710 Q73 712 91 714 Q91 712 93 712 Q93 716 96 716 Z M105 50 Q124 50 128 20 Q128 5 89 0 Q71 0 68 22 Q81 50 105 50 Z " />
<glyph glyph-name="at" unicode="&#x40;" horiz-adv-x="440" d="M186 484 Q189 483 193 483 Q195 483 195 484 Q253 479 258 470 L262 472 L264 472 Q314 439 336 396 Q362 350 374 275 L372 275 L374 271 L374 243 Q364 159 353 159 Q349 143 320 116 Q312 112 291 112 L289 112 Q267 112 244 150 Q221 104 191 104 Q152 104 139 168 Q135 205 132 217 L134 228 L132 250 Q138 307 152 328 Q171 353 188 353 L190 353 Q244 353 268 304 Q276 304 289 244 Q289 235 291 228 Q289 225 289 223 L291 205 L289 205 L286 207 L286 203 L287 199 Q284 199 284 194 L286 190 L284 187 Q292 159 296 159 Q316 159 329 212 Q330 235 333 235 L331 239 L331 251 Q331 267 307 360 L304 358 L286 391 Q250 443 195 443 Q191 443 188 445 Q185 443 181 443 L177 443 Q175 443 175 445 L172 443 L161 443 Q133 440 101 416 Q54 354 45 259 Q45 257 47 257 L42 219 L43 215 Q42 200 42 192 Q42 190 43 187 Q42 183 42 179 L43 161 L42 161 Q43 158 43 156 L42 152 Q43 149 43 145 Q43 143 42 143 L43 140 L43 116 Q43 112 45 109 Q45 107 43 107 Q45 91 51 67 Q49 64 49 62 Q52 62 58 26 Q78 -35 98 -64 Q130 -108 197 -108 Q200 -106 202 -106 L202 -108 Q268 -93 278 -74 Q312 -46 312 21 Q318 29 329 29 Q349 29 356 13 L356 6 Q353 2 347 -36 Q344 -36 340 -56 Q317 -98 302 -112 Q279 -136 226 -146 Q202 -149 202 -151 L199 -149 L195 -151 L191 -149 L183 -151 Q112 -151 65 -97 Q65 -93 56 -81 Q56 -77 43 -63 Q39 -46 34 -41 L36 -38 Q33 -38 25 -18 L27 -14 Q11 33 11 39 L15 39 L15 42 Q15 51 9 51 L13 57 L13 60 L9 58 Q7 62 7 63 L9 76 Q6 76 3 82 L3 87 L7 87 L7 104 L3 104 L5 112 L5 120 L2 125 L2 138 L5 138 L5 148 L2 148 L2 159 L5 159 L5 167 Q0 167 0 185 L0 188 Q0 190 2 190 Q2 192 0 192 Q1 215 3 215 L2 219 L2 221 Q2 225 5 225 Q5 223 7 223 Q7 238 9 239 Q5 241 3 241 L3 244 L9 244 L9 248 L5 248 L5 268 Q6 271 9 271 Q9 270 11 270 L9 279 L9 280 L15 280 L15 286 L11 284 L9 284 L9 286 Q27 381 67 425 Q75 431 87 448 Q142 484 186 484 Z M168 255 Q168 253 170 253 L168 241 Q168 170 190 150 Q211 164 224 207 Q230 231 233 239 L231 243 Q233 248 235 248 L233 251 Q236 261 240 266 Q240 283 211 310 L208 308 L202 311 L195 311 Q184 311 172 271 Q170 255 168 255 Z M7 261 Q9 257 9 255 L11 255 L11 261 L7 261 Z M2 231 L5 231 L5 226 L2 226 L2 231 Z M9 47 L13 47 L13 42 L9 42 L9 47 Z " />
<glyph glyph-name="A" unicode="A" horiz-adv-x="346" d="M124 699 Q150 690 150 667 Q152 667 170 619 L215 453 Q222 393 226 393 Q226 391 224 391 Q265 132 278 86 L276 86 L292 23 Q294 23 294 21 L294 3 L290 5 Q290 0 270 -6 Q270 -10 266 -10 Q245 -10 235 60 Q220 108 191 314 L170 314 L152 312 L152 314 L148 312 Q146 312 146 314 L142 312 L139 312 Q137 312 137 314 Q135 314 135 312 Q126 314 94 316 Q93 264 89 264 Q89 262 91 262 Q89 245 87 245 L89 242 Q77 175 74 169 L76 166 Q67 135 59 79 L57 79 L59 75 L59 73 Q59 71 57 71 L59 68 L52 40 Q52 38 54 38 L52 29 L52 25 L54 16 Q47 12 39 -3 Q37 -3 19 -6 Q17 -6 17 -4 L13 -6 L11 -6 Q8 -6 0 7 Q0 9 2 9 L0 12 L0 14 L4 20 Q4 21 2 21 Q4 41 11 68 Q9 71 9 73 L11 73 L9 77 Q13 85 17 110 Q15 110 15 112 Q19 112 19 116 L17 125 Q23 125 44 269 L46 269 Q46 271 44 271 Q46 284 48 284 Q48 286 46 286 Q50 326 56 360 L54 364 Q56 373 57 373 Q57 375 56 375 Q56 384 76 536 Q76 538 74 538 Q85 629 96 689 Q115 694 115 697 L118 695 L124 699 Z M128 589 Q120 533 118 532 L120 528 Q119 512 117 512 Q117 510 118 510 Q117 485 104 423 Q104 421 105 421 Q102 398 102 373 L100 373 L102 369 L100 358 L100 356 L118 356 Q120 356 120 354 Q122 354 122 356 L131 354 L144 354 Q148 354 152 356 Q155 354 159 354 L174 354 L183 356 Q161 496 135 562 Q131 589 128 589 Z " />
<glyph glyph-name="B" unicode="B" horiz-adv-x="284" d="M17 720 Q51 720 120 685 Q135 677 165 644 Q163 644 163 642 Q179 617 194 551 Q192 540 189 540 Q189 538 191 538 Q191 483 154 414 Q123 387 109 387 L109 381 Q128 381 178 290 Q194 236 198 216 Q200 216 200 215 L198 215 L200 211 L200 204 Q200 194 205 174 L204 174 L205 170 Q205 168 204 168 L205 165 L205 154 Q205 126 202 126 Q202 124 204 124 Q187 52 170 52 Q150 28 126 20 Q115 13 111 13 Q111 15 109 15 Q88 2 54 2 Q54 0 52 0 Q20 4 20 11 Q4 17 0 31 L0 35 Q1 39 4 39 L0 61 L2 65 Q2 67 0 67 L2 76 Q2 78 0 81 Q0 83 2 83 L0 93 L2 105 Q0 109 0 111 Q0 113 2 113 Q2 115 0 118 Q2 138 2 150 Q2 152 0 155 L2 167 L2 189 Q2 191 4 191 L2 194 L2 220 Q2 222 4 222 Q4 224 2 224 L4 233 L2 250 L6 252 L4 255 L4 259 Q4 265 6 265 L4 274 L4 285 Q4 287 6 287 L4 290 Q4 292 6 292 L2 305 Q4 318 6 318 Q4 342 2 342 L4 352 L4 396 Q4 400 2 403 Q4 407 4 411 L4 442 Q4 444 6 444 L2 466 Q4 469 4 474 Q4 478 2 481 Q2 483 4 483 L2 492 L2 500 Q2 501 4 501 L2 505 L2 531 Q2 533 4 533 L2 537 L2 544 Q2 559 4 579 L2 583 Q4 586 4 590 Q4 594 2 594 Q4 610 6 614 Q4 617 4 622 Q4 628 6 631 L4 644 Q6 669 6 675 Q4 679 4 681 L6 681 L4 685 L4 686 Q4 690 7 690 Q7 692 6 692 Q9 720 17 720 Z M52 672 Q52 670 50 670 L52 666 L52 659 Q52 648 50 629 Q52 625 52 623 L50 623 L52 620 L52 616 L50 605 Q50 603 52 603 L50 594 L50 575 Q50 574 48 574 L50 570 L50 568 Q50 566 48 566 Q48 564 50 564 L48 551 L48 537 Q48 529 50 516 Q48 513 48 509 Q50 506 50 501 L48 501 L50 498 L48 475 L50 464 Q48 447 48 431 L48 414 Q48 401 54 400 Q59 409 96 429 Q122 445 130 472 Q141 500 142 531 Q144 531 146 540 Q142 552 142 555 L144 555 Q137 602 120 629 Q102 648 59 672 L56 670 L52 672 Z M50 361 Q48 357 48 355 Q52 335 52 333 L50 324 L54 300 L52 300 L54 296 Q52 289 50 289 Q51 285 54 268 Q52 257 50 257 L52 253 L52 246 Q52 244 50 244 Q50 242 52 242 L48 198 Q50 196 52 172 L50 172 Q52 168 52 167 L50 163 L54 152 L52 148 L54 144 Q52 135 50 135 L54 118 Q50 109 50 104 L52 93 L50 93 L52 89 L52 83 Q52 79 50 76 Q52 72 56 48 L54 48 Q56 41 65 41 Q80 50 111 57 Q148 87 148 111 Q151 111 155 139 L155 155 Q156 159 159 159 Q155 172 148 218 L150 218 L131 276 Q130 276 130 278 L130 279 Q130 281 131 281 Q93 357 54 357 Q54 361 50 361 Z " />
<glyph glyph-name="C" unicode="C" horiz-adv-x="311" d="M122 716 L131 716 Q208 716 216 677 L215 677 L216 673 Q216 669 200 662 L200 664 L196 662 Q163 673 150 673 L141 672 L141 673 L137 672 Q135 672 135 673 Q89 655 72 614 Q66 606 54 559 L56 555 Q52 540 50 511 Q50 509 52 505 L48 448 L50 444 L48 440 Q48 434 50 431 Q48 407 48 392 L48 355 Q48 351 50 348 Q48 345 48 340 L48 333 Q48 318 50 294 L48 290 L56 250 L54 250 Q57 240 61 211 L59 207 Q63 200 63 196 L61 196 Q66 163 68 155 L67 152 Q78 92 104 57 Q121 39 130 39 Q177 39 218 81 Q228 83 229 83 Q253 80 253 61 Q255 61 255 59 L255 54 L216 20 Q212 20 205 13 Q165 0 137 0 L124 0 Q122 0 122 2 L118 0 Q73 0 33 98 L20 150 Q20 152 22 152 L15 183 L17 183 L15 187 L15 191 Q15 192 17 192 Q15 195 13 213 L15 213 Q13 218 11 235 L13 235 Q6 268 6 276 L7 276 L4 285 Q4 287 6 287 Q2 306 2 313 L4 313 Q4 315 2 315 L4 324 L4 327 L2 337 L4 337 L2 340 L2 359 Q2 361 4 361 L2 364 Q2 366 4 366 L0 385 Q2 401 4 401 L2 405 L2 440 Q2 442 4 442 Q2 446 2 448 L4 451 Q2 455 2 459 Q2 461 4 461 L2 464 Q2 600 44 660 Q58 685 89 701 Q89 707 122 716 Z " />
<glyph glyph-name="D" unicode="D" horiz-adv-x="316" d="M30 713 L30 712 Q31 712 31 713 Q33 713 37 712 Q39 712 52 713 Q95 713 135 689 Q173 660 189 604 L207 515 Q205 512 205 510 L209 508 L207 504 Q213 460 216 449 L215 441 Q216 422 220 412 Q220 410 218 410 Q224 345 226 345 L224 332 L224 299 Q224 243 220 229 L222 225 Q216 205 216 201 L216 188 Q216 186 215 186 Q215 184 216 184 Q204 106 191 79 Q181 45 159 25 Q141 11 141 9 Q116 -3 98 -3 L98 -1 L67 -10 Q46 -6 46 -4 L43 -6 L41 -6 Q22 1 22 18 L20 27 L22 34 Q20 44 20 51 L22 51 L20 55 L20 101 L19 123 L20 123 Q19 127 19 129 Q19 131 20 131 L19 140 L19 158 Q19 165 17 175 Q17 177 19 177 Q17 181 15 231 L17 231 Q15 240 13 240 L15 249 L15 255 Q15 259 13 262 Q13 264 15 264 L13 273 L13 275 Q13 280 15 280 Q12 305 11 310 Q13 314 13 316 L11 325 Q13 325 13 327 L9 329 L11 336 Q11 346 7 375 L9 375 Q9 377 7 377 Q6 416 6 436 L6 453 L4 465 L6 465 L4 469 L4 480 Q4 490 6 497 Q4 507 4 515 L4 536 Q4 540 2 543 Q4 547 4 549 L2 556 L4 560 Q4 562 2 562 L4 571 L4 593 L6 604 Q4 607 4 613 L4 615 L6 626 L4 630 Q6 633 6 638 Q4 643 2 643 L4 656 L2 667 Q4 670 4 675 Q0 687 0 691 L0 695 Q7 713 30 713 Z M56 662 Q56 657 57 654 L56 641 Q59 622 59 621 Q57 621 57 619 Q59 619 59 617 L56 615 L59 597 Q56 590 56 576 L56 488 Q56 480 54 473 Q56 466 56 458 L56 451 Q56 410 59 391 L57 391 L59 388 Q59 382 57 379 L61 342 L59 342 L61 338 L61 325 L63 314 Q63 312 61 312 Q65 291 65 284 L63 284 L65 280 L65 238 Q65 214 68 205 Q67 201 67 199 Q68 195 68 194 L67 194 L68 190 L68 160 L70 138 L68 138 L70 134 L70 114 Q70 110 72 107 Q70 103 70 99 L70 79 L72 70 L70 70 L72 66 Q72 64 70 64 L74 38 Q78 38 87 42 Q89 42 89 40 Q129 40 146 103 Q163 138 172 264 Q174 266 174 303 L174 319 Q174 362 170 382 L172 382 L161 460 L163 460 Q161 474 157 478 L159 488 Q140 606 118 641 Q100 665 67 665 Q56 664 56 662 Z " />
<glyph glyph-name="E" unicode="E" horiz-adv-x="300" d="M80 685 L81 681 Q83 681 83 683 L93 681 L131 681 Q138 681 148 679 Q151 681 155 681 L159 679 Q163 681 165 681 L168 679 Q172 681 176 681 Q185 677 192 664 Q188 640 148 640 L141 642 Q96 644 83 644 L83 646 L80 644 L48 644 L48 635 Q48 633 46 633 L48 629 L48 620 Q48 611 44 611 Q48 601 48 598 L46 598 Q46 596 48 596 Q48 594 46 590 Q46 589 48 579 L46 562 Q48 553 48 544 L46 544 Q46 542 48 542 Q48 538 46 535 Q48 509 48 490 L48 479 L50 468 Q48 465 48 459 Q48 447 52 433 L50 433 L52 429 Q52 427 50 427 L52 424 L50 411 L52 392 L50 392 Q54 385 54 377 L54 372 L67 372 Q72 372 72 374 L81 372 L89 372 Q99 372 115 374 L118 372 Q128 374 135 374 Q148 374 154 357 Q154 340 128 331 L115 333 L87 333 L74 331 L74 333 L59 329 Q59 333 56 333 L54 329 L54 322 Q54 316 56 316 L54 307 L54 290 Q54 286 56 283 Q56 281 54 281 L56 274 Q54 226 54 209 L56 205 L54 202 L56 192 L54 189 Q56 179 57 179 L56 170 L56 105 Q56 101 57 98 Q56 95 56 91 L56 72 L57 61 L57 54 Q82 50 131 50 L133 50 Q137 50 141 52 Q144 50 148 50 L165 50 Q171 50 181 52 Q183 52 183 50 L202 52 L226 52 Q241 43 241 30 Q227 9 216 9 Q216 7 204 6 L200 7 L192 6 L181 7 Q179 7 179 6 L170 7 L168 7 L157 6 Q154 7 152 7 L144 6 Q134 7 130 7 L126 6 Q122 7 120 7 L104 6 L104 7 L100 6 L94 6 Q90 6 87 7 Q84 6 80 6 L72 7 Q69 6 63 6 L63 7 Q61 7 61 6 L52 7 L46 7 Q35 6 35 2 L26 4 L19 0 Q15 2 9 2 L9 4 Q9 6 11 6 Q7 12 7 20 L7 83 Q7 85 9 85 L7 89 L7 96 Q7 98 9 98 L7 102 L7 105 Q7 107 9 107 L7 111 L7 209 Q7 213 9 216 L7 220 Q9 223 9 228 Q9 229 7 229 L9 239 L9 266 L7 285 L9 285 L7 289 L7 292 Q7 294 9 294 L7 298 L7 376 Q7 380 6 383 L7 387 Q7 390 4 400 Q4 404 6 407 Q2 446 2 501 L2 520 L0 529 L2 529 Q2 531 0 531 Q0 535 2 535 Q0 572 0 590 L0 627 Q0 629 2 629 L0 633 Q0 641 2 651 Q0 659 0 664 Q19 683 37 683 L37 681 Q41 683 43 683 L46 681 Q49 683 54 683 L61 681 Q70 685 80 685 Z " />
<glyph glyph-name="F" unicode="F" horiz-adv-x="303" d="M19 697 Q25 697 33 692 L52 692 L70 694 L70 692 L74 694 L83 694 Q96 694 124 696 L124 694 L128 696 Q229 693 229 685 Q235 680 237 673 Q235 670 235 668 L237 664 Q235 649 222 649 L222 651 L218 649 L209 649 L198 651 L194 649 Q178 651 170 655 L167 653 L159 655 Q149 653 144 653 L144 655 L141 653 L120 653 Q118 653 118 651 L115 653 Q98 651 94 651 L94 653 L91 651 Q89 651 89 653 L70 649 L70 651 L63 648 Q59 649 57 649 Q54 648 52 648 Q52 649 50 649 Q47 628 44 618 Q46 614 46 612 Q44 612 44 611 L48 609 L46 605 L46 590 L48 581 L46 581 L48 577 L48 551 Q48 547 50 544 Q48 529 46 529 Q46 527 48 524 Q50 450 50 413 L52 413 Q81 416 85 418 L89 416 L96 420 Q98 420 102 418 L133 422 L133 420 L148 424 L152 422 Q171 424 181 424 Q200 415 200 401 Q200 400 198 400 L200 396 L200 394 Q200 382 165 379 L165 381 L161 379 L148 381 Q72 372 67 366 L63 368 L59 366 Q56 368 54 368 L54 366 L57 278 L56 278 Q59 270 59 265 L57 265 L59 261 L59 244 L61 235 L59 235 Q59 233 61 233 Q61 231 59 228 Q61 209 61 198 L59 194 Q61 191 61 187 Q61 178 59 165 Q61 155 61 148 Q59 144 59 142 L61 139 L59 135 L61 128 Q61 126 59 126 L61 113 L61 37 Q61 33 63 30 Q61 26 61 24 L63 20 Q61 17 61 13 Q63 9 63 7 L50 0 Q41 2 41 6 Q39 6 39 4 Q20 4 13 24 L15 31 Q13 35 13 37 L15 37 L13 41 L13 65 Q13 69 11 72 Q12 76 15 96 Q13 108 13 120 L13 128 Q13 130 15 130 L13 133 L13 146 Q13 152 11 152 L13 161 L13 224 L11 233 L13 233 Q11 237 11 239 Q11 242 13 242 L11 255 L11 276 Q11 285 9 307 L11 307 L7 316 L9 320 Q7 323 7 327 Q7 329 9 329 L7 339 L7 357 Q7 399 4 409 Q4 411 6 411 L4 420 L4 426 Q4 438 6 448 Q4 457 4 470 L4 477 Q4 481 2 485 L4 488 Q2 524 0 524 L2 533 L2 557 Q2 559 4 559 L2 562 L2 566 Q2 568 4 568 L2 572 L2 577 Q2 579 4 579 L0 598 Q0 599 2 599 L0 609 L0 622 Q0 637 2 657 Q0 660 0 662 L2 662 L0 666 Q0 697 19 697 Z " />
<glyph glyph-name="G" unicode="G" horiz-adv-x="316" d="M151 701 Q188 700 225 680 Q225 677 239 665 Q239 657 241 654 Q235 641 222 642 L214 642 Q209 642 191 655 L187 653 L159 660 L156 658 Q154 658 154 660 Q131 660 101 628 L84 599 Q86 599 86 597 Q82 597 76 567 Q70 566 70 553 Q72 553 72 551 Q67 551 62 521 L60 521 L61 512 L59 505 Q63 504 63 501 Q59 501 59 496 Q58 451 53 451 Q54 448 54 446 L52 438 Q52 436 54 436 L52 427 L50 353 L54 340 L52 340 L54 337 L54 335 Q53 333 52 333 L53 329 L51 325 Q53 322 53 318 L51 318 L53 314 L53 296 L51 292 Q54 291 54 288 L54 285 Q54 283 52 283 L54 279 L54 259 Q56 244 60 207 L58 207 Q61 198 63 177 L61 177 L63 173 Q63 172 61 172 Q67 143 67 134 L65 135 Q89 38 130 37 Q160 36 171 60 Q181 82 186 85 Q187 101 193 126 Q193 128 191 128 L195 150 Q192 166 193 194 L195 309 L179 309 Q172 310 132 303 Q106 307 101 313 Q101 311 99 311 Q99 315 96 315 L98 323 L96 332 Q101 332 102 341 Q104 341 104 339 Q117 342 144 345 L144 344 Q145 349 226 351 Q226 349 228 349 Q228 351 230 351 Q244 339 244 328 Q244 325 240 314 Q242 310 242 308 L240 308 L242 304 L241 301 Q241 299 240 299 L241 295 Q241 293 239 293 Q243 287 243 282 L242 265 Q242 247 238 247 L240 243 Q240 241 238 241 Q242 235 242 230 L241 215 Q241 193 237 193 L239 190 Q239 188 237 188 Q242 179 241 141 Q241 136 237 116 Q237 114 239 114 Q238 84 217 40 Q183 -2 133 0 Q64 1 27 93 L21 121 Q23 121 23 123 Q19 123 19 126 Q19 128 21 128 Q19 133 16 152 Q18 152 18 154 Q14 154 14 158 L14 162 Q4 294 5 317 L5 327 Q5 331 4 334 Q4 336 5 336 Q4 371 1 382 Q3 385 3 390 Q3 391 1 401 L3 401 Q3 402 1 403 L4 412 Q4 416 7 460 L8 460 Q8 462 7 462 Q11 489 13 489 Q13 491 11 491 L13 500 L14 526 Q14 530 16 534 L14 537 Q33 625 63 660 Q93 702 151 701 Z " />
<glyph glyph-name="H" unicode="H" horiz-adv-x="309" d="M187 714 Q187 711 213 707 Q222 697 222 673 L220 673 L222 670 L222 668 Q222 666 220 666 L222 662 L222 638 Q222 628 220 609 L222 605 Q218 580 218 557 L216 557 L218 553 L216 535 Q216 531 218 531 L216 518 L216 509 Q216 488 215 455 Q215 453 216 453 L215 444 L215 409 Q215 405 216 401 Q216 400 215 400 Q217 357 218 346 Q216 342 216 340 L218 337 L216 333 Q216 331 218 331 L216 322 L216 316 Q216 304 220 281 L218 281 L220 278 L220 259 Q220 257 218 257 Q220 253 222 237 L220 237 L224 218 Q222 215 222 213 Q222 211 224 211 L222 202 Q222 195 224 192 L222 183 Q224 173 224 168 L222 168 L226 159 L224 150 Q226 129 228 126 Q228 124 226 124 L228 115 L228 102 Q228 100 226 100 L228 96 L228 76 Q228 72 229 68 Q229 67 228 67 L229 59 Q229 55 228 39 L229 30 Q228 26 228 24 Q229 20 229 19 Q227 19 220 7 L216 9 L204 7 Q178 12 178 33 Q179 37 179 41 L178 50 L179 50 L178 54 L178 70 Q178 76 176 76 L178 85 L178 96 Q178 108 176 133 L178 133 Q176 137 176 139 Q176 161 172 181 Q174 188 174 196 L174 200 Q174 204 172 207 Q172 209 174 209 L172 218 L172 239 Q172 241 174 241 L172 244 Q170 292 168 292 Q168 294 170 294 L167 329 L168 329 L167 333 Q167 341 170 348 Q142 346 130 346 L126 346 L117 344 L117 346 L85 340 L81 342 Q78 340 74 340 Q72 340 68 342 L57 340 L50 340 L52 318 Q52 316 50 316 L52 313 L52 281 Q52 277 54 274 Q52 270 52 268 Q54 220 56 220 Q54 213 54 207 Q54 182 57 163 L56 163 L57 159 Q57 155 56 152 Q59 93 63 72 Q63 70 61 70 L67 11 Q67 6 56 0 L52 2 L39 0 Q24 4 15 20 L15 33 Q15 35 17 35 Q13 50 11 80 Q13 89 13 102 Q13 104 11 107 Q13 111 13 113 Q11 116 11 118 L13 118 L11 122 L11 131 Q11 136 13 139 Q11 142 11 146 L13 146 Q11 150 11 152 Q11 161 9 183 Q9 185 11 198 Q7 214 7 216 Q9 220 9 222 Q6 229 6 237 Q6 239 7 239 Q7 241 6 241 L7 248 Q7 256 6 290 Q6 292 7 302 L4 331 L6 331 L4 335 L4 342 Q4 346 6 350 Q4 354 2 377 Q6 466 6 500 L4 507 Q6 512 7 512 L6 525 L6 555 Q6 557 7 557 L6 561 Q6 573 7 583 L4 612 Q7 612 7 618 Q6 621 6 623 L7 623 L6 627 L6 640 Q6 649 2 649 L4 659 Q4 661 2 664 L4 672 Q2 691 0 694 Q2 703 4 703 L2 707 L2 709 Q7 709 15 710 Q52 710 52 675 Q52 668 54 660 L52 660 L54 657 L54 655 Q54 653 52 653 L54 649 Q52 636 52 635 L54 631 L52 627 Q54 624 54 620 Q52 620 52 618 Q57 618 57 614 Q57 612 52 609 L54 605 Q54 603 52 599 Q53 585 56 585 L54 575 L54 537 Q54 532 52 529 Q56 518 56 514 L52 512 Q54 496 56 492 Q54 488 52 475 L54 472 L52 468 L54 464 L52 453 Q52 451 54 451 L52 442 L52 427 Q52 426 50 426 L52 422 L52 420 Q52 418 50 418 Q50 416 52 416 L50 400 Q50 381 61 381 Q65 383 67 383 L67 381 Q82 385 111 389 Q114 387 118 387 Q122 389 124 389 L124 387 L128 389 L144 389 Q168 389 168 398 L167 401 L167 448 Q167 452 168 455 Q168 457 167 457 L168 466 L168 477 L167 487 L168 487 L167 490 L167 494 Q167 501 168 511 Q168 512 167 512 L168 522 L168 531 Q168 535 167 538 Q168 555 170 555 L168 559 Q168 560 170 570 Q170 574 168 574 Q172 603 172 646 Q172 650 170 660 Q172 667 172 677 L172 686 Q172 688 174 688 L172 692 Q172 705 187 714 Z " />
<glyph glyph-name="I" unicode="I" horiz-adv-x="128" d="M30 688 L31 688 Q57 681 57 666 L57 660 Q54 660 54 657 Q57 656 57 653 Q57 651 56 651 Q57 641 57 636 L56 623 Q57 620 57 618 L56 618 L57 614 L57 612 Q57 611 56 611 L57 607 L57 603 Q57 597 56 594 L59 574 L57 574 Q59 570 59 568 Q56 562 56 559 L57 549 L56 549 Q56 548 57 548 L56 538 Q56 537 57 537 L56 527 L56 492 Q56 490 54 490 L56 487 Q56 480 59 422 L57 422 L59 418 Q59 413 57 403 Q59 394 59 392 Q57 379 57 370 L59 366 Q57 362 56 350 L57 346 Q57 344 56 344 L57 335 L57 296 Q57 294 56 294 L57 290 L57 285 Q57 283 56 283 L57 279 Q57 278 56 278 Q57 255 59 255 L57 246 L57 220 Q52 197 52 142 Q52 140 50 137 L52 126 L52 115 Q52 111 50 107 Q52 105 54 74 L52 70 Q54 67 54 63 L52 63 Q56 58 57 39 L56 39 L57 35 Q57 33 56 33 Q57 21 59 17 Q43 0 39 0 L33 0 Q11 7 11 9 Q6 22 6 30 L7 30 Q4 38 4 59 Q4 61 6 61 Q2 68 2 76 L2 93 Q2 94 4 94 L2 98 L2 120 Q2 126 0 130 Q9 224 9 241 L9 255 Q9 261 7 265 L9 276 L9 302 Q9 306 7 309 L9 313 L7 331 L9 350 Q7 357 7 366 L9 366 Q9 368 7 368 L9 377 L9 390 Q9 402 11 418 Q7 438 6 479 Q7 482 7 487 Q4 496 4 500 L6 500 L4 503 Q4 505 6 505 Q6 507 4 507 L9 586 Q7 593 6 651 L7 655 Q7 657 6 657 Q6 683 13 683 Q20 688 30 688 Z " />
<glyph glyph-name="J" unicode="J" horiz-adv-x="319" d="M198 712 Q198 710 218 697 Q218 695 220 692 L218 688 L220 677 L218 677 L220 673 Q220 672 218 672 L220 664 Q220 653 218 635 Q218 625 222 599 L220 596 Q222 569 226 557 Q224 547 224 542 L226 529 Q226 527 224 527 L226 518 L226 507 Q226 505 224 505 Q227 499 229 488 Q228 485 228 481 Q228 478 231 472 L229 468 Q231 464 231 463 L228 461 L229 457 L229 451 Q229 450 228 450 Q229 446 229 444 Q229 423 228 390 Q229 374 229 370 L228 357 Q228 351 231 326 Q228 325 228 322 Q231 321 231 318 Q231 316 229 316 L231 313 L231 303 Q231 288 233 279 Q231 248 229 244 L231 237 Q229 216 229 200 Q229 198 228 198 L229 194 Q229 192 228 192 L229 189 L229 183 Q229 179 226 179 L228 176 L228 172 Q228 170 226 170 L228 167 Q218 111 205 98 Q187 49 157 17 Q130 0 118 0 L118 2 Q115 0 113 0 Q87 5 68 19 Q36 42 19 102 Q8 124 4 165 Q6 165 6 167 L2 168 Q2 170 4 170 L0 202 L2 205 L0 209 L4 222 L2 226 Q2 237 26 246 Q47 241 56 231 L54 222 Q54 220 56 220 L54 211 L56 200 L54 196 L56 187 L54 174 Q56 170 56 168 L54 168 Q68 103 85 76 Q85 65 113 43 Q144 67 170 139 Q170 160 178 174 L178 176 Q178 181 176 181 Q180 224 181 224 L179 228 Q181 240 181 248 Q181 250 179 250 L181 259 L181 294 Q181 296 183 296 Q183 298 181 298 L183 309 Q183 328 179 346 Q183 346 183 350 Q183 353 179 364 L181 376 L179 383 L181 387 Q181 389 179 389 L181 398 L181 411 Q181 417 179 420 Q183 443 183 450 Q183 456 179 488 L181 488 L179 492 Q179 494 181 494 L179 507 L179 527 Q179 569 176 579 L178 583 L176 590 L178 594 Q175 597 174 612 L176 612 Q174 616 174 618 Q174 624 176 631 L170 694 Q179 710 187 710 Q188 710 198 712 Z " />
<glyph glyph-name="K" unicode="K" horiz-adv-x="309" d="M17 701 L27 701 Q29 701 29 699 L32 701 Q59 691 59 675 Q57 654 55 654 L57 650 Q57 648 55 648 L57 644 L55 636 Q57 633 57 631 L55 631 Q55 629 57 629 L55 619 L55 617 L57 608 L55 608 Q55 606 57 606 L55 597 L57 577 L55 577 L57 574 L57 564 Q57 560 55 557 Q57 553 57 551 L55 551 L57 547 L55 543 L57 532 L55 532 Q55 530 57 530 Q56 518 53 518 Q55 503 57 503 L55 494 L55 467 Q55 461 57 458 L55 446 L55 431 L57 421 L55 421 Q55 420 57 420 Q57 418 55 414 Q57 391 57 380 Q55 380 55 378 L59 376 Q89 440 89 446 Q103 475 110 507 Q118 531 148 606 Q169 660 169 665 Q178 681 188 688 L192 688 Q218 688 223 676 Q225 666 225 661 Q216 628 196 581 Q198 581 198 579 Q186 568 186 555 Q166 507 135 421 Q122 389 122 387 Q108 372 108 362 Q93 331 93 319 L95 309 Q93 309 93 307 Q96 305 118 256 Q160 166 160 163 Q158 163 158 161 Q171 137 190 81 Q190 77 215 18 Q213 18 213 16 Q219 16 221 1 Q214 -14 194 -20 Q176 -20 164 -1 L164 3 Q166 3 166 5 Q162 6 135 75 Q137 79 137 81 Q131 89 93 184 L95 187 Q86 195 61 252 L59 252 Q59 243 57 233 Q59 229 59 227 L57 227 L59 224 L59 220 Q59 218 57 218 Q59 214 59 212 Q59 199 61 170 L59 163 Q61 152 61 147 Q59 128 59 125 Q63 110 63 102 L61 90 Q65 53 65 10 Q59 3 46 -5 L44 -5 Q34 -5 34 -1 L30 -3 Q17 1 11 18 L11 20 Q11 44 10 79 L11 83 Q10 86 10 90 L11 90 Q10 94 8 113 L10 125 Q10 128 6 138 L8 142 Q8 144 6 144 L8 157 L8 195 Q8 205 6 224 L8 224 Q6 229 4 246 L6 250 L4 254 Q4 258 6 262 Q4 278 4 288 L6 300 Q4 303 4 307 Q4 309 6 309 L4 319 L4 330 Q4 334 6 338 Q4 341 4 345 L4 353 Q4 355 6 355 L4 359 L6 370 Q4 390 4 401 Q4 403 6 406 Q4 410 4 414 L4 433 L2 437 Q6 437 6 440 Q4 464 4 469 L6 479 Q3 500 2 505 L6 551 Q4 555 4 557 L6 557 L4 560 L4 576 L6 585 Q2 585 2 589 L6 591 Q2 609 2 614 Q2 617 4 617 L2 636 L2 667 Q2 671 0 675 Q0 691 17 701 Z " />
<glyph glyph-name="L" unicode="L" horiz-adv-x="265" d="M22 686 L26 684 Q28 684 31 686 Q52 686 59 665 Q59 661 61 658 L57 584 Q59 581 59 576 L57 573 L61 562 L59 558 L61 554 Q57 547 57 539 Q57 538 59 538 L57 528 L57 510 Q57 502 54 486 L56 482 L54 471 Q56 467 56 465 L54 465 L56 462 L56 445 Q56 436 52 436 L54 427 L54 410 Q54 408 52 408 L54 404 Q54 400 52 377 Q52 368 54 353 Q52 332 52 314 L54 292 Q52 284 52 279 Q56 250 56 229 L57 219 L56 219 L59 199 L56 186 Q57 176 57 169 L57 157 Q57 152 59 149 Q59 147 57 147 L59 138 L59 136 Q59 132 56 132 Q59 128 61 84 L59 84 L61 81 L61 55 L63 33 L192 42 L207 31 Q207 23 209 23 Q209 -3 146 -3 L96 -8 L93 -6 Q74 -10 61 -10 Q25 -10 13 7 Q13 9 15 12 L9 47 L11 47 Q11 49 9 49 Q11 71 11 81 L11 84 Q11 89 9 92 L11 95 Q9 105 7 105 L9 114 L9 147 Q9 151 6 151 L7 155 L7 175 Q7 195 4 210 Q6 220 6 229 L6 232 Q6 236 2 251 L4 251 L2 255 L2 266 Q2 268 4 268 Q2 271 2 273 Q2 275 4 279 Q0 293 0 310 L0 321 Q0 323 2 323 L0 327 L2 330 Q2 332 0 332 Q0 334 2 338 L0 360 L2 377 L0 380 Q4 410 7 569 Q7 570 9 580 L7 584 Q7 586 9 589 Q7 605 7 615 L7 617 Q7 624 9 634 Q7 637 7 641 L9 641 L6 650 Q6 675 22 686 Z " />
<glyph glyph-name="M" unicode="M" horiz-adv-x="423" d="M292 714 Q305 710 305 699 Q309 699 309 696 L307 696 Q311 688 311 685 L309 685 L311 681 L311 662 L316 649 L315 640 L322 579 L320 579 L322 575 L322 555 L320 551 L322 551 L318 537 L322 535 L320 531 L320 529 L322 520 L318 518 Q322 509 322 475 L322 457 Q322 455 320 455 Q320 453 322 453 L320 444 L320 435 L322 426 L320 426 L322 422 L322 372 Q322 370 320 370 L322 366 L322 363 L320 359 L324 357 L322 344 Q322 343 324 333 Q322 330 322 326 Q324 322 324 320 Q324 318 322 318 L324 305 L324 287 Q324 285 322 285 Q322 283 324 283 Q322 270 320 270 L322 266 Q322 265 320 265 L322 255 L322 239 L324 226 L322 226 L324 222 L324 192 Q324 191 322 191 Q323 186 326 167 L324 167 L326 163 Q327 129 327 105 L327 104 L329 100 L326 98 L327 94 L327 43 Q327 35 329 22 Q329 11 313 6 Q313 0 292 0 L287 0 Q274 6 274 28 L274 30 Q274 31 276 31 L272 48 Q276 60 276 83 Q276 89 274 118 L276 118 L274 122 L274 161 Q274 165 272 168 Q274 172 274 176 L274 179 Q274 184 272 187 Q274 190 274 194 Q272 198 272 200 L274 200 L272 204 Q272 205 274 205 L272 209 Q272 211 274 211 Q272 214 270 228 L272 228 Q272 229 270 229 L272 248 L272 250 Q272 253 268 253 L270 263 Q270 264 268 274 L270 274 Q270 276 268 276 L270 285 L270 313 Q270 317 272 320 Q272 322 270 322 L272 331 L272 337 Q272 343 270 353 L272 357 Q270 370 270 377 L270 392 Q270 398 268 398 L270 407 L270 461 Q270 465 268 468 L270 472 L268 483 L270 483 L268 487 L268 490 Q268 492 270 492 L268 496 L268 500 Q268 504 270 507 Q266 513 266 518 L266 522 Q266 524 268 524 L266 527 Q266 529 268 529 L266 533 L266 562 Q266 564 268 564 L266 568 L266 586 L265 596 L266 596 L265 599 L265 601 Q265 603 266 603 Q265 606 265 612 L261 612 Q261 607 233 562 Q205 519 196 490 Q185 487 179 483 L174 483 Q172 483 172 485 L168 483 L165 483 Q142 490 142 500 Q134 508 72 594 Q69 594 63 609 L61 609 L61 607 Q65 523 68 490 L67 490 L68 487 L67 483 Q68 480 68 475 Q68 474 67 474 Q67 472 68 472 Q67 447 67 435 L67 405 Q67 403 65 403 Q67 400 67 398 L65 394 Q67 391 67 387 L67 385 Q67 383 65 383 Q65 381 67 381 Q63 369 61 342 Q63 322 65 318 Q65 316 63 316 Q63 314 65 311 Q65 301 63 259 Q65 209 67 200 Q63 191 63 183 Q65 180 65 178 L63 178 Q63 176 65 176 L63 168 Q63 165 65 165 Q63 155 63 154 Q63 129 67 113 Q65 109 65 107 L70 26 Q70 15 54 9 Q52 4 39 4 L33 4 Q17 6 17 20 L19 20 L17 24 L17 37 Q17 41 15 44 Q17 48 17 52 L15 56 Q17 59 17 61 Q17 63 15 76 L17 83 Q13 87 11 139 L13 139 Q11 142 11 144 Q11 147 13 163 Q13 165 11 165 L13 174 L13 218 Q13 222 11 226 Q13 229 13 233 L11 241 L15 242 Q13 246 11 259 L13 263 L11 274 L13 274 L11 278 Q13 281 13 283 Q11 287 11 289 L13 289 L11 292 L11 298 Q11 300 13 300 L11 303 L11 326 Q11 331 13 331 L11 340 Q11 388 15 435 L13 446 Q15 449 15 451 Q13 455 13 457 Q13 459 15 459 L13 468 L13 500 L11 509 L13 509 Q11 512 11 514 Q11 527 7 555 L9 555 Q6 563 6 585 L6 599 Q6 604 4 607 Q6 610 6 614 L2 620 L6 625 Q2 625 2 629 Q2 631 4 631 L2 635 L2 636 L6 642 L2 644 Q2 646 4 646 L0 677 Q10 707 28 707 Q28 709 33 709 L41 709 Q58 709 67 675 Q72 675 74 666 Q78 665 78 662 Q76 662 76 660 Q91 645 141 579 Q152 564 163 551 L161 548 L168 548 Q168 558 215 623 Q260 704 265 709 Q281 714 292 714 Z " />
<glyph glyph-name="N" unicode="N" horiz-adv-x="388" d="M44 705 Q162 592 242 494 Q250 487 250 483 L253 483 L252 487 Q252 489 253 489 L252 492 L252 494 Q252 496 253 496 L252 500 L252 511 L250 522 Q252 526 252 528 L250 531 L252 535 L250 544 L252 552 Q252 554 250 554 L252 566 L252 585 Q252 589 250 592 Q250 594 252 594 Q248 623 244 628 Q244 629 246 633 L244 642 Q246 646 246 648 L244 652 Q246 655 246 659 L242 665 Q256 698 266 698 L266 696 Q273 700 281 700 Q285 699 285 696 L289 698 Q298 690 298 681 L296 681 Q300 672 300 668 L296 666 L298 657 L298 655 Q298 651 296 648 Q298 637 300 637 L298 628 Q298 623 300 613 Q300 611 298 607 Q300 588 300 578 L300 570 Q300 565 302 565 L300 555 L300 515 Q300 510 302 507 L300 504 Q302 500 302 496 L298 494 Q300 493 302 463 L300 455 Q300 454 302 454 L300 435 L300 420 Q300 418 298 418 L302 396 Q300 393 300 389 L300 376 Q300 374 298 374 Q298 372 300 372 L298 363 L298 361 Q298 357 300 354 Q298 350 298 348 Q298 346 300 346 L298 339 Q300 282 300 267 Q299 246 296 246 L298 243 L298 211 Q298 209 296 209 L298 206 Q300 165 300 152 L298 152 L300 148 L298 139 Q300 129 300 124 L298 124 L300 121 L300 106 L302 95 Q300 91 300 89 Q302 86 302 84 L300 84 L302 80 L302 78 Q302 72 300 69 L303 36 Q300 28 300 15 L302 11 L300 11 L302 8 Q302 -9 274 -20 Q252 -17 252 -11 Q253 -11 253 -9 Q248 -9 248 -5 L250 -5 L248 -1 Q252 5 252 13 L252 58 L250 69 L252 73 Q252 74 250 74 L252 84 Q252 86 250 89 Q252 92 252 97 L250 100 Q250 102 252 102 L250 111 Q250 117 252 117 Q249 184 246 184 L250 219 Q248 222 248 224 L252 232 Q250 244 250 252 L252 252 L250 256 Q250 258 252 258 L250 261 L250 265 Q250 267 252 267 Q252 269 250 269 Q250 271 252 274 Q252 288 248 322 L252 324 L250 328 L250 335 L252 339 L248 341 Q252 350 252 363 L250 376 Q250 378 252 378 Q250 413 242 413 Q244 413 244 415 L159 515 Q101 583 89 591 L56 622 L54 622 Q54 613 52 600 L59 492 L57 492 L59 489 L59 480 Q59 478 57 478 Q59 474 61 450 L59 450 L61 446 L61 444 Q61 443 59 443 Q61 435 63 435 L61 426 L61 409 Q61 400 63 381 L61 381 L63 378 L63 352 Q63 348 65 344 L63 341 Q65 338 65 333 L63 333 L65 330 L65 311 Q65 307 67 304 Q67 302 65 302 L67 293 L67 272 Q67 265 65 252 Q67 250 67 239 L65 239 L67 235 L67 215 Q67 205 68 184 L67 184 L68 180 L68 156 Q68 147 67 137 Q69 112 70 108 L68 104 Q70 91 72 87 Q72 85 70 85 Q76 47 76 32 Q76 2 61 -5 Q59 -5 59 -3 Q53 -7 50 -7 L50 -5 L46 -7 Q26 -2 26 15 L26 21 Q26 23 28 23 Q26 26 24 45 L26 45 Q19 71 19 80 L20 84 Q19 87 19 89 L20 93 Q19 96 19 98 L20 102 Q20 104 19 104 L20 111 Q17 128 17 130 L19 130 L17 134 Q17 135 19 135 L17 139 L17 143 Q17 152 19 161 L17 171 Q17 173 19 176 L15 204 Q19 204 19 208 Q15 208 15 211 Q19 217 19 221 L17 228 Q17 230 19 230 L17 243 L17 272 L15 285 L17 285 L15 289 L15 307 L13 317 L15 317 L13 320 Q15 324 15 326 Q15 328 13 328 Q14 343 17 343 L13 354 L15 357 Q13 361 13 363 L15 367 Q11 376 11 380 L13 383 Q11 387 11 391 Q11 393 13 393 L11 396 L11 411 Q11 421 9 443 L13 444 Q12 448 9 470 L11 470 L9 474 Q9 476 11 476 L9 480 L9 502 Q9 506 7 509 Q7 511 9 511 Q6 534 6 557 L7 557 Q6 562 4 579 L6 579 L2 600 Q3 607 6 607 Q4 609 2 635 L4 635 L2 639 Q2 644 0 674 Q2 689 19 702 L20 702 L24 700 Q30 703 44 705 Z " />
<glyph glyph-name="O" unicode="O" horiz-adv-x="370" d="M141 699 L163 699 Q169 690 218 682 Q253 661 257 632 Q263 632 270 610 Q283 593 290 515 L289 515 L290 512 Q290 510 289 510 L290 506 L289 502 Q292 502 292 499 Q292 497 290 497 L292 488 L292 473 Q292 471 290 471 L292 467 L292 453 Q292 436 296 421 Q296 419 294 419 L296 410 L296 390 Q296 385 298 382 L296 379 Q296 377 298 377 L296 364 L296 303 Q296 298 298 295 Q296 282 294 282 L296 273 Q296 260 292 253 Q294 249 294 245 L294 243 Q294 242 292 242 Q292 240 294 240 Q293 218 290 218 L292 214 Q287 191 279 142 L278 142 Q278 140 279 140 Q279 119 261 83 Q257 83 255 71 Q239 41 213 23 Q200 16 200 12 Q169 -10 141 -10 Q85 -1 85 10 Q49 44 37 79 Q20 124 9 221 L11 221 L2 321 L4 321 L2 325 L2 338 Q2 342 0 345 L2 349 Q2 351 0 351 L2 360 L2 362 Q2 375 0 403 L2 403 L0 406 Q2 410 2 412 Q0 415 0 417 L2 417 Q2 419 0 419 L4 456 L2 464 Q2 489 20 569 L20 573 Q25 573 33 601 Q55 640 67 658 Q100 693 131 697 L141 699 Z M67 552 L68 549 Q63 549 50 467 Q50 465 52 465 L50 456 L50 427 Q50 406 48 373 Q50 369 50 367 L48 367 L50 364 L50 336 Q51 323 54 323 L52 314 L52 288 Q52 284 54 280 L52 277 L54 268 L52 268 Q56 258 56 255 L54 251 L59 210 L57 210 Q68 131 74 121 L72 121 Q81 86 98 57 Q121 29 137 29 Q160 29 181 55 Q198 55 226 127 L228 127 Q228 129 226 129 Q239 209 244 214 L242 218 Q250 255 250 262 L250 358 Q250 373 252 393 Q250 397 250 399 Q252 406 252 412 Q250 415 250 417 L252 417 Q250 422 248 441 L250 454 Q250 464 244 484 L246 484 L244 488 L244 502 Q244 504 246 504 L244 508 Q244 510 246 514 Q246 570 207 639 Q207 650 146 656 Q116 646 98 613 L81 582 Q78 582 67 552 Z " />
<glyph glyph-name="P" unicode="P" horiz-adv-x="272" d="M28 710 L31 710 Q37 710 37 703 Q39 703 39 705 L48 703 Q52 703 56 705 Q103 698 133 681 Q179 653 196 594 Q211 530 211 500 L209 500 L211 496 L211 481 Q211 475 213 472 Q211 450 209 450 Q209 448 211 448 Q209 428 207 424 Q207 422 209 422 Q205 398 202 398 Q204 394 204 392 Q202 364 159 313 Q156 313 141 296 Q135 295 113 278 Q89 270 68 270 L61 270 L57 272 L57 270 Q57 268 59 268 L57 255 L57 250 Q57 246 59 242 Q57 237 54 204 Q56 191 56 183 L56 146 L57 137 L56 137 L57 133 L57 118 Q57 117 56 117 Q57 111 59 111 Q57 85 54 67 Q54 65 56 65 Q54 50 52 50 L54 46 L54 30 L56 17 Q45 3 26 0 Q26 2 7 9 Q7 16 2 24 L4 24 Q2 33 0 33 Q2 53 4 57 Q4 59 2 59 L6 93 L4 96 L7 113 Q6 116 6 120 L7 120 L6 124 L7 131 Q7 133 6 133 L7 142 L7 165 L6 176 Q7 179 7 185 L7 189 Q7 194 6 194 L9 229 Q7 233 7 235 L9 235 Q9 237 7 237 Q11 254 11 259 Q9 263 9 265 L11 265 L9 268 L9 300 Q9 309 11 327 L7 329 L11 339 Q11 340 9 340 L11 350 L11 353 Q11 360 9 370 L11 374 L9 385 L9 387 Q9 389 11 389 Q11 390 9 390 L11 398 Q9 411 9 413 L11 422 L9 422 Q11 425 11 427 Q11 436 9 470 L11 470 L9 474 L9 483 Q9 485 11 485 L9 488 Q9 490 11 490 Q11 492 9 492 Q11 526 11 542 L11 574 Q11 578 9 581 Q11 584 11 586 Q9 597 9 601 Q11 601 11 603 Q7 603 7 607 Q7 628 4 660 L6 660 L4 664 L4 666 Q4 668 6 668 L4 672 L4 686 Q4 709 19 709 L20 709 L24 707 Q25 710 28 710 Z M50 664 L52 655 L52 648 Q52 642 50 642 Q56 595 56 557 L56 468 Q56 453 57 433 Q56 430 56 424 L57 414 L56 411 Q56 409 57 409 L56 396 L56 390 L57 377 L56 377 L57 374 L57 370 Q57 368 56 368 L57 364 L57 355 Q57 353 56 353 L57 350 L57 311 L56 307 Q57 307 57 305 Q94 314 94 320 Q161 358 161 461 L161 479 L163 490 Q162 493 159 525 L161 525 Q157 537 157 540 L159 540 Q155 546 155 551 L157 551 Q135 648 113 648 Q103 657 65 664 L52 662 Q52 664 50 664 Z " />
<glyph glyph-name="Q" unicode="Q" horiz-adv-x="357" d="M133 698 L133 696 L137 698 L154 698 Q155 698 155 696 L159 698 Q179 695 189 681 Q213 679 235 656 Q266 596 266 545 Q266 524 268 508 L266 508 Q268 504 268 502 Q268 496 270 467 L268 463 Q270 460 270 456 L270 448 Q270 447 268 447 L270 443 L270 422 Q270 418 272 415 Q272 413 270 413 L272 404 L272 402 Q272 400 270 400 Q270 398 272 398 Q272 394 270 391 Q272 367 272 352 L272 345 Q272 330 270 306 Q272 302 272 300 L270 300 L272 297 L272 287 Q272 286 270 286 L272 282 Q270 249 270 241 L272 237 Q270 234 270 230 Q270 226 272 223 L270 219 Q270 217 272 217 Q268 163 265 147 Q265 145 266 145 Q261 100 246 71 Q236 51 233 51 Q270 -28 290 -64 L289 -68 Q292 -68 292 -71 L292 -73 Q281 -90 279 -90 L270 -90 Q239 -90 233 -60 L194 14 Q191 12 189 12 L189 10 L192 10 L192 6 L183 8 Q171 -5 135 -5 L131 -5 Q130 -5 130 -3 Q128 -3 128 -5 Q90 -5 48 64 Q22 130 13 173 Q13 178 9 188 L11 191 Q9 200 6 200 Q7 208 9 208 Q6 215 6 219 L7 219 L6 223 Q2 292 0 299 Q0 300 2 300 Q0 319 0 328 L0 352 Q0 354 2 354 L0 358 Q0 373 4 424 L2 428 Q4 437 6 437 Q6 439 4 439 Q9 480 9 495 L11 498 Q9 498 9 500 Q14 500 22 565 Q40 637 81 678 Q111 694 133 698 Z M48 374 Q48 373 50 373 L48 363 L48 334 Q48 332 46 332 L48 328 L48 302 L46 299 Q50 299 50 293 Q50 254 54 225 Q54 223 52 223 Q68 117 102 62 Q114 42 135 34 L142 34 Q162 34 178 54 Q136 126 131 139 Q133 162 152 162 L154 165 Q177 159 181 149 Q187 144 187 143 L185 143 Q195 126 205 101 L209 101 Q224 171 224 175 L222 178 Q223 197 226 197 L224 200 L224 226 Q224 228 226 228 L224 232 L224 236 Q224 237 226 237 Q226 239 224 239 L226 249 L226 258 Q226 262 224 265 L226 269 Q224 272 224 274 L226 278 Q226 280 224 280 L226 289 Q228 334 228 339 Q226 343 226 345 Q228 348 228 350 L226 363 Q226 369 228 376 Q226 397 226 413 L226 430 Q226 432 228 432 L226 435 Q222 497 222 524 Q222 526 224 530 Q222 534 220 550 L222 550 L220 554 L220 556 Q220 558 222 558 Q218 565 218 569 L220 569 Q216 576 216 580 Q218 580 218 582 Q215 585 196 637 Q196 643 165 648 Q152 655 152 657 L152 659 Q131 653 113 639 Q80 600 70 548 Q56 489 48 374 Z " />
<glyph glyph-name="R" unicode="R" horiz-adv-x="335" d="M22 712 Q74 712 122 686 L122 685 L126 686 Q132 677 157 659 Q191 608 191 599 Q204 587 218 501 Q216 498 216 496 L220 494 Q220 492 218 492 Q220 474 220 464 L220 461 Q220 374 165 342 Q165 344 163 344 Q163 338 122 320 Q122 316 100 311 L100 313 Q94 311 94 309 Q139 253 174 191 Q212 143 268 50 Q268 45 278 28 L278 24 Q278 22 276 22 L278 19 Q273 7 248 7 L246 7 Q229 7 211 56 Q208 56 189 91 Q162 124 83 250 Q64 272 63 272 L61 268 Q63 256 63 248 Q63 246 61 242 L63 231 L63 211 Q63 207 61 204 L63 200 L61 196 Q63 193 63 189 Q63 187 61 187 L63 183 L63 178 Q63 176 61 176 Q61 174 63 174 L61 165 Q59 103 59 74 L61 65 Q61 63 59 63 L65 20 Q62 10 56 6 L46 6 Q46 0 43 0 Q43 5 35 6 L31 4 Q17 4 15 31 L17 35 Q15 39 15 41 Q15 43 17 43 L13 63 Q13 65 15 65 L13 87 L13 115 Q13 117 15 117 L13 120 L13 122 Q13 124 15 124 L13 128 L13 133 Q13 135 15 135 Q15 137 13 137 L15 150 L15 176 L17 187 Q15 190 15 196 Q15 204 17 204 L15 216 L15 261 Q15 271 17 287 Q15 290 15 292 L17 296 L15 300 L17 303 Q15 307 15 309 L17 309 L15 313 L15 363 Q15 364 17 364 L15 368 L17 372 Q15 375 15 377 L17 377 L15 381 L15 383 Q15 385 17 385 L15 389 L15 438 Q15 443 13 446 L15 450 Q13 473 11 475 Q13 479 13 483 L11 492 L13 492 L9 509 L11 512 Q9 540 7 542 L9 546 Q9 548 7 548 Q7 550 9 553 Q7 581 6 583 L7 586 Q5 617 4 620 Q6 623 6 625 L2 644 L4 644 Q2 647 2 649 L4 653 Q2 656 0 670 L2 670 L0 673 L0 694 Q5 707 20 712 L22 712 Z M54 666 Q54 662 52 662 L54 659 L54 653 Q54 651 52 651 L54 648 L54 646 Q54 644 52 644 L54 640 L54 622 Q54 617 56 614 Q54 611 54 607 L56 596 Q56 594 54 594 L56 585 L56 564 L57 555 L56 555 L57 551 Q57 549 56 549 L57 546 Q57 544 56 544 L57 535 Q57 498 61 440 Q61 438 59 438 L61 429 L61 407 Q61 397 63 381 Q61 378 61 372 L63 368 L61 364 Q61 362 63 359 L61 348 L61 344 Q83 344 128 372 Q155 385 170 422 Q168 422 168 424 Q174 424 174 457 L174 470 Q174 483 170 490 L172 494 Q155 588 142 588 Q127 635 85 657 L54 666 Z " />
<glyph glyph-name="S" unicode="S" horiz-adv-x="344" d="M161 711 Q163 711 167 709 Q170 711 174 711 Q201 707 231 679 Q246 663 272 587 Q272 559 241 557 L220 572 Q215 596 196 640 Q184 670 152 670 Q102 670 85 616 Q77 585 74 585 Q74 583 76 583 L74 570 L74 566 L87 526 Q106 488 130 457 Q228 365 228 357 Q266 312 279 228 Q279 221 283 211 Q281 152 281 134 Q278 113 276 113 L278 110 Q274 71 229 15 Q179 -20 137 -20 L137 -18 L133 -20 L120 -20 Q86 -14 65 0 Q2 65 2 110 L2 113 Q2 115 4 115 L0 128 Q2 128 11 158 Q23 171 37 171 Q54 171 54 143 L52 143 Q54 139 54 137 L52 130 Q54 126 54 124 L52 121 Q57 80 102 36 Q112 23 142 23 L144 23 Q146 23 146 21 Q175 21 207 56 Q229 102 229 139 L233 143 L231 147 Q231 148 233 152 L231 163 Q231 167 233 171 L231 174 Q233 182 233 187 L231 191 Q233 194 233 196 Q229 227 226 230 Q226 232 228 232 Q222 259 215 274 Q216 278 216 280 L192 320 Q192 329 91 435 Q42 483 39 517 Q34 517 26 563 L28 563 L26 566 Q26 570 30 578 Q26 578 26 581 L26 589 Q26 591 28 591 L26 594 Q26 597 31 600 L30 603 Q35 628 39 628 Q39 626 41 626 Q41 630 46 639 Q43 639 43 642 L43 644 Q45 644 61 672 Q98 711 161 711 Z " />
<glyph glyph-name="T" unicode="T" horiz-adv-x="414" d="M279 702 Q284 702 303 699 Q307 700 311 700 L327 682 L327 671 Q322 654 298 654 Q294 656 274 658 Q256 654 218 650 L215 652 Q211 650 209 650 L209 652 L205 650 L204 650 L192 652 Q185 650 185 647 Q188 633 191 608 L189 604 Q191 591 191 582 L189 578 L192 569 Q192 567 191 567 L192 558 L192 549 Q192 547 191 547 Q194 536 194 523 L192 523 Q196 515 196 493 Q196 489 194 486 Q196 483 198 460 Q198 458 196 458 L198 445 L198 428 Q198 427 196 427 L198 423 L198 417 L196 406 L198 403 Q196 393 196 386 L196 379 Q196 374 198 371 Q196 368 196 364 L196 362 L198 353 L196 353 L198 349 L198 343 Q198 337 196 334 L198 323 L198 314 Q198 312 196 312 Q196 310 198 310 L194 266 L196 262 Q195 258 192 242 L194 225 Q194 224 192 201 L194 192 L192 182 L194 179 Q192 175 192 173 Q194 170 194 168 L192 168 L194 164 L194 145 Q194 144 192 144 L194 140 L192 136 Q194 133 194 129 L192 129 Q192 127 194 127 L192 118 Q194 95 194 94 L192 90 L196 64 Q194 61 194 57 Q196 53 196 51 L194 51 L196 47 L196 33 Q196 31 194 31 L196 27 L196 21 Q196 20 194 20 L196 16 L196 9 Q188 -7 178 -10 L174 -8 Q170 -10 168 -10 Q168 -6 154 -4 Q154 -1 148 5 Q150 5 150 7 Q146 7 146 10 L146 27 Q146 31 144 34 Q146 38 146 40 Q146 42 144 46 L146 55 Q144 78 142 81 Q144 91 144 97 L144 114 Q144 116 146 116 L144 120 L144 142 Q144 144 146 144 L144 147 L144 162 Q144 166 142 169 Q144 173 144 177 Q144 185 142 197 Q144 207 144 214 Q142 217 142 219 L144 223 Q144 225 142 229 Q144 239 144 243 Q144 249 142 256 Q144 269 144 280 L144 292 Q145 295 148 295 Q146 299 146 301 Q146 316 148 340 Q146 350 146 356 L148 360 Q147 364 144 380 Q146 388 146 395 Q146 397 144 401 Q146 415 148 419 Q146 432 144 432 L146 441 L146 458 Q146 462 144 465 L146 469 Q144 473 144 475 L146 482 Q144 488 142 488 L144 497 Q144 519 141 539 L142 543 L139 567 L141 567 L133 619 L135 623 Q132 640 128 645 Q130 648 130 650 L126 652 L120 652 Q114 652 111 650 Q104 652 98 652 L89 650 L89 652 L85 650 L65 650 Q61 650 57 649 Q41 651 33 654 L30 652 Q19 652 0 673 L0 680 Q8 700 31 700 L37 700 L39 697 L43 699 Q56 695 59 695 Q60 699 63 699 L68 695 L78 695 Q82 695 85 697 Q87 697 87 695 L96 697 Q100 697 100 695 L109 697 L113 697 Q121 697 133 695 L137 697 Q140 695 142 695 Q144 695 144 697 L154 695 Q159 695 167 699 Q173 695 181 695 L191 695 L279 702 Z " />
<glyph glyph-name="U" unicode="U" horiz-adv-x="341" d="M20 708 Q54 708 54 680 L54 673 L52 669 Q55 665 57 641 Q54 641 54 638 Q56 634 56 632 L54 628 Q56 625 56 623 L54 623 L56 619 Q54 606 52 606 Q56 595 56 591 L54 588 L59 573 L57 569 L59 565 L57 562 Q61 542 61 541 Q61 539 59 539 Q61 522 63 517 L61 506 L61 499 L63 488 L61 484 L63 480 L61 467 Q61 465 63 465 L59 432 Q61 416 61 404 L61 380 Q61 374 63 364 Q61 360 61 356 L63 334 L61 330 Q63 327 65 312 Q65 310 63 306 L67 284 L65 280 Q68 273 68 260 L68 258 Q68 256 67 256 L68 253 Q68 251 67 251 L68 242 L68 236 Q68 232 67 229 Q70 222 72 201 L70 201 L72 197 Q72 195 70 195 L72 192 L70 179 L74 160 L72 157 L76 142 L74 142 Q78 134 78 131 L76 131 Q77 125 83 105 Q81 101 81 97 Q84 97 93 70 Q98 54 130 34 L148 34 Q186 34 205 131 L204 134 Q207 141 207 149 L207 157 Q207 161 205 164 Q207 167 207 171 L207 173 Q207 181 205 188 Q205 190 207 194 Q205 209 205 219 L205 231 Q205 237 207 247 Q205 250 205 255 L207 258 Q205 261 205 266 L207 269 Q205 273 205 275 Q205 277 207 277 L205 286 L207 297 Q205 304 205 312 L205 316 Q205 317 207 317 L205 321 L205 327 Q205 329 207 329 L205 332 L205 356 Q205 364 207 377 L205 380 Q207 384 207 386 Q207 388 205 388 L207 397 L207 412 L209 416 Q205 416 205 419 Q205 421 207 421 L205 430 L205 458 Q205 460 207 460 L205 464 L205 482 Q205 484 207 484 Q205 488 205 490 Q205 496 207 499 Q205 509 205 515 L205 517 Q205 521 207 525 L205 528 Q207 549 207 564 Q207 565 205 569 Q207 572 207 576 Q207 579 205 599 Q207 602 207 604 Q204 610 204 615 L204 639 Q204 647 205 660 Q204 663 204 669 Q217 689 231 689 Q257 681 257 660 Q253 655 253 652 Q253 646 255 643 L253 630 Q253 625 255 615 Q253 603 253 595 Q253 594 255 584 Q253 580 253 578 Q253 574 255 571 L252 523 Q253 516 253 506 L252 506 Q253 503 253 501 Q253 494 252 462 L253 458 Q252 451 252 445 L253 434 Q253 433 252 427 Q253 411 253 401 L252 401 L253 397 L253 377 Q253 375 252 375 Q252 373 253 373 Q253 372 252 366 Q252 364 253 360 Q252 342 250 342 L253 330 L252 327 L253 317 L252 317 L253 314 L253 286 Q253 279 252 269 Q253 266 253 262 Q252 243 252 240 L253 231 Q253 229 252 225 Q255 182 255 173 L253 173 L255 169 Q255 168 253 168 L255 164 Q255 132 248 110 L250 107 L242 84 Q244 84 244 83 Q242 83 237 68 Q229 44 191 5 Q162 -4 137 -10 Q115 -5 115 -4 L111 -6 Q108 -6 105 -1 L102 -3 Q56 23 48 47 Q35 79 28 120 L30 123 Q26 136 22 171 L24 171 L22 175 L22 190 Q22 194 20 197 Q20 199 22 199 L13 317 L15 317 L13 321 Q13 323 15 327 Q13 346 11 349 Q11 351 13 351 L9 401 L11 401 L9 404 L9 416 L7 427 Q9 429 9 438 L7 441 L9 445 L7 449 Q7 450 9 460 L7 473 L9 473 Q9 475 7 475 L9 484 L9 504 Q9 506 11 506 L9 510 L9 527 Q9 550 6 560 Q6 562 7 562 L4 580 Q6 584 6 586 L0 606 L4 608 L0 628 L2 638 L0 650 L2 663 Q0 680 0 691 Q14 707 20 708 Z " />
<glyph glyph-name="V" unicode="V" horiz-adv-x="360" d="M30 695 Q51 695 65 660 L61 654 L61 652 Q68 644 68 639 Q68 638 67 638 Q67 610 98 465 L96 465 L102 440 L100 440 L122 347 L124 347 Q124 345 122 342 Q124 325 128 317 L126 314 Q130 305 141 236 Q146 222 157 182 L155 179 Q157 175 157 171 Q157 169 155 169 Q168 119 168 118 Q167 118 167 116 L170 114 L174 114 Q174 121 176 121 Q176 123 174 123 Q176 144 179 144 L178 147 L181 175 L179 179 Q183 190 183 194 Q181 197 181 199 Q183 206 185 206 Q185 208 183 208 Q186 231 189 231 Q189 232 187 232 Q191 277 192 277 Q192 279 191 279 Q198 335 200 342 L198 345 Q202 352 205 390 Q205 391 204 391 Q207 412 209 412 Q209 414 207 414 Q209 436 211 436 Q211 438 209 438 Q211 454 213 454 Q213 456 211 456 Q216 507 222 534 Q218 534 218 538 Q222 538 224 554 Q224 556 222 556 Q224 589 228 589 L226 593 Q229 597 231 613 Q231 615 229 615 Q231 634 233 634 L231 638 L231 641 Q231 643 233 643 L231 647 Q237 680 248 680 L252 680 Q284 680 289 652 Q285 652 285 649 L289 647 Q289 637 279 608 Q281 604 281 602 Q278 586 276 586 Q276 584 278 584 Q274 569 274 549 L274 543 Q274 541 272 541 L274 538 L274 536 Q270 532 265 488 Q266 484 266 482 L265 478 L266 475 L235 206 Q235 205 237 205 Q235 178 226 142 Q226 140 228 140 Q223 81 220 81 L222 77 Q218 71 218 66 L220 62 Q216 56 213 21 Q209 19 178 -10 L168 -8 Q165 -10 163 -10 Q142 -10 135 38 L137 38 Q120 91 100 186 L102 186 Q78 277 70 345 L54 425 Q50 451 43 475 L44 475 Q39 492 39 495 L43 495 Q38 500 35 521 Q31 521 31 530 L33 530 L19 595 L17 595 Q19 599 19 601 Q15 610 6 654 Q4 654 2 660 L4 669 Q0 669 0 673 L0 682 Q8 682 11 689 Q9 689 9 691 Q12 693 30 695 Z M170 112 L170 108 Q172 105 172 101 L174 101 L174 105 Q172 108 172 112 L170 112 Z " />
<glyph glyph-name="W" unicode="W" horiz-adv-x="411" d="M23 704 Q50 703 56 686 Q64 686 65 668 Q67 668 67 666 L63 664 Q66 644 66 618 L69 616 L67 612 Q68 571 72 555 L70 555 L73 540 Q73 538 71 538 Q74 489 73 445 L75 442 Q75 440 73 440 L76 412 L74 412 Q76 408 76 407 Q75 366 78 351 L76 347 Q79 344 81 305 L79 305 L81 301 L80 295 Q80 294 79 294 Q80 290 82 275 Q80 275 80 273 L84 271 Q84 269 82 269 Q83 229 88 205 L86 197 Q87 176 90 166 L88 158 Q92 141 91 123 L93 123 L129 242 L144 303 Q146 303 149 310 L153 308 L157 308 Q157 316 161 316 Q194 315 206 267 Q212 258 225 216 Q230 210 255 141 Q272 107 272 100 L276 100 Q274 110 272 110 L274 119 L276 178 Q276 180 278 180 Q274 186 274 189 L278 196 L276 200 Q281 223 281 226 Q279 233 277 233 L279 243 L279 256 Q279 257 281 257 L280 261 L280 278 Q280 280 282 280 L280 283 Q280 285 282 285 L280 298 L280 300 Q281 313 284 313 L283 317 Q283 319 285 322 Q283 335 283 342 Q283 344 285 344 L283 348 L286 365 L284 368 Q284 370 286 370 L284 383 L286 396 Q285 400 285 402 Q285 404 287 407 L284 435 L286 439 Q284 449 284 455 L284 457 Q284 459 286 459 L284 463 Q283 494 283 511 L284 518 Q284 520 286 520 L284 524 L284 537 Q284 539 286 539 L284 542 L286 546 L285 555 L286 555 L285 559 Q284 601 282 605 Q282 607 284 607 Q282 621 281 626 Q283 629 283 633 Q279 654 280 663 L281 663 Q278 669 278 672 Q278 676 282 685 Q280 685 280 687 Q290 693 290 694 L293 692 L299 696 L303 694 L306 695 Q313 695 323 682 Q321 682 321 680 Q323 680 326 675 L324 675 L326 671 L326 654 L327 643 Q327 641 325 641 L328 610 L326 610 Q330 600 329 576 L329 560 Q329 556 331 552 Q331 550 329 551 L330 538 L330 517 Q330 515 328 515 L330 512 L329 460 Q328 438 332 430 Q332 428 330 428 L332 382 Q330 379 330 377 Q332 373 332 369 L330 369 Q330 367 332 367 L330 358 L328 279 Q328 277 326 277 L328 273 L327 240 Q327 238 325 238 Q325 236 327 236 L325 218 L324 205 Q324 203 323 203 Q323 201 324 201 Q324 199 322 195 Q323 155 325 142 L323 123 Q323 79 323 62 L321 62 L323 58 Q319 52 319 44 L319 33 Q318 22 320 3 Q320 -4 303 -13 Q264 -6 264 12 Q249 27 173 225 L171 225 Q171 208 129 85 L131 81 Q111 26 111 15 Q111 4 88 -5 Q88 -2 70 3 Q54 13 54 31 Q52 31 52 37 Q52 39 54 39 L46 85 Q46 87 48 87 Q48 91 40 159 L42 159 Q41 164 39 182 L41 182 L37 191 Q37 193 39 193 Q38 222 32 267 L34 271 L29 330 L31 330 L30 334 L30 339 Q30 364 25 397 Q26 398 27 398 L24 430 L26 430 L24 434 L25 469 L24 478 L26 478 L24 482 L24 498 L23 510 Q23 511 24 511 L21 535 Q21 537 23 537 Q20 572 21 593 L17 595 L19 598 L17 608 L19 608 Q18 610 16 634 L18 634 Q14 641 15 645 L16 645 Q11 660 11 663 L13 663 Q8 681 8 686 L18 700 L23 704 Z " />
<glyph glyph-name="X" unicode="X" horiz-adv-x="373" d="M241 700 L263 687 L263 686 L259 686 L259 684 Q265 684 265 675 L265 667 Q251 637 237 584 Q234 583 224 543 Q200 469 176 386 Q183 361 205 305 Q229 216 237 216 Q237 214 235 214 Q250 152 289 57 L309 3 Q301 -5 289 -10 L289 -8 Q287 -8 287 -10 Q253 -10 248 31 Q248 37 235 68 Q235 71 218 110 Q185 204 185 208 Q175 225 168 256 Q155 285 155 297 L152 297 Q152 274 96 64 Q90 39 85 33 L87 29 Q79 4 67 -3 L50 -4 Q33 -4 24 12 L24 21 L39 60 L37 64 Q46 83 80 206 Q96 257 107 323 Q112 323 118 364 Q123 379 126 379 Q116 399 105 441 Q99 453 67 539 Q46 578 31 612 L30 612 Q30 613 31 613 Q0 676 0 682 Q4 693 7 693 Q11 691 15 691 Q15 695 19 695 Q23 695 26 693 L30 695 Q52 695 81 610 Q116 548 142 475 Q146 465 146 462 L148 462 L181 573 Q181 575 187 578 L185 582 L222 691 L231 699 L237 695 L241 700 Z " />
<glyph glyph-name="Y" unicode="Y" horiz-adv-x="354" d="M241 707 L263 694 L263 692 L259 692 L259 690 Q265 690 265 681 L265 673 Q250 643 228 561 Q200 481 176 385 L176 376 Q176 371 178 368 Q176 359 174 359 L176 355 L174 352 Q176 348 176 346 Q176 344 174 344 Q178 321 178 296 L176 296 L178 292 L178 285 Q178 283 176 283 L178 279 Q178 278 176 278 Q179 260 179 228 L179 220 Q176 202 176 200 L176 137 Q176 135 174 135 L178 120 L176 117 Q180 55 183 54 L181 50 L185 33 L183 33 L187 17 Q174 0 159 0 Q159 3 139 7 Q133 19 133 30 L135 30 L128 76 L128 94 Q128 99 126 102 Q128 105 128 109 L128 113 Q128 117 126 120 L128 124 Q126 130 124 130 L126 139 L126 155 Q126 183 130 183 Q130 185 128 185 Q130 192 131 231 Q130 244 130 252 L131 252 L130 255 Q130 257 131 257 L130 266 L130 285 Q130 301 126 309 Q128 313 128 315 L126 324 L128 333 Q126 343 126 344 Q126 346 128 346 L126 359 L126 389 Q118 401 102 455 Q74 531 33 614 Q33 618 30 618 Q30 620 31 620 Q0 682 0 688 Q4 699 7 699 Q11 697 15 697 Q15 701 19 701 Q23 701 26 699 L30 701 Q52 701 81 616 Q116 555 142 481 Q146 472 146 468 L148 468 L181 579 Q181 582 187 585 L185 588 L222 697 L231 705 L237 701 L241 707 Z " />
<glyph glyph-name="Z" unicode="Z" horiz-adv-x="370" d="M72 706 L83 702 Q86 704 91 704 L93 704 Q94 704 94 702 Q96 702 96 704 Q120 700 155 700 L165 702 L168 700 Q170 700 170 702 Q172 702 176 700 L211 704 Q214 702 222 702 Q224 702 228 704 L239 702 L257 702 Q265 702 272 680 Q272 660 244 575 Q237 562 231 538 Q227 533 204 456 Q197 449 189 406 Q177 376 174 375 L176 371 Q131 240 105 147 L105 144 Q101 144 98 125 Q100 125 100 123 Q97 123 94 114 L96 110 Q91 101 85 84 L85 81 L87 77 Q82 77 78 57 Q80 57 80 55 Q76 54 76 51 L76 49 L78 46 L81 47 L107 47 Q111 47 115 46 Q117 46 117 47 L126 46 L128 46 L146 47 L146 46 L150 47 Q152 47 152 46 L155 47 L159 47 Q161 47 161 46 L165 47 L168 47 Q174 47 174 46 L183 47 L200 47 Q202 47 202 46 L205 47 L207 47 Q209 47 209 46 L213 47 Q215 47 215 46 L218 47 Q220 47 220 46 L224 47 L229 47 Q231 47 231 46 L235 47 L242 46 L253 47 L257 46 L261 47 Q283 44 283 21 L281 18 L283 14 Q283 5 268 -3 L268 -4 Q252 -3 248 -1 L244 -3 Q241 -1 239 -1 Q232 -3 231 -3 Q229 -3 229 -1 L200 -4 L196 -3 L142 -6 L142 -4 L139 -6 L113 -6 Q109 -6 105 -8 Q102 -6 98 -6 Q92 -8 91 -8 L91 -6 L87 -8 L72 -8 L59 -10 L59 -8 L56 -10 Q51 -10 48 -8 L44 -10 Q7 -10 0 10 L0 21 Q0 36 13 51 L43 114 Q43 120 81 242 Q150 440 150 456 Q155 461 168 508 Q167 508 167 510 Q172 510 196 589 Q215 641 215 652 L209 652 L200 650 L200 652 L185 649 L181 650 Q178 649 176 649 L172 650 L168 649 Q158 650 154 650 Q134 647 128 647 L113 647 Q111 647 111 649 Q109 649 109 647 L100 649 Q93 649 83 647 Q54 652 54 676 Q52 676 52 678 Q55 696 67 704 Q69 704 72 706 Z " />
<glyph glyph-name="bracketleft" unicode="&#x5b;" horiz-adv-x="307" d="M170 730 Q189 730 197 712 L195 708 Q204 708 204 703 L204 696 L203 692 L170 681 L165 681 L156 683 Q156 681 154 681 L150 683 Q146 683 143 681 Q135 684 126 687 Q126 685 118 683 Q105 685 98 685 L78 685 Q67 685 51 681 L47 683 L49 674 L49 658 L51 645 Q49 645 49 644 Q49 639 51 636 L49 629 L51 620 L49 616 Q51 616 51 614 Q51 610 49 607 L51 604 Q51 602 49 598 L51 598 Q51 594 49 571 Q49 567 51 564 Q49 561 49 557 L49 539 Q49 529 47 513 Q49 509 51 495 Q49 495 49 493 L51 490 L49 486 Q49 483 52 477 L51 468 L58 334 Q56 331 56 329 L58 325 Q58 323 56 320 L58 307 Q58 303 56 300 Q58 297 58 293 L58 289 L56 286 Q58 286 58 284 L58 271 Q58 262 52 262 L52 250 L54 250 L54 257 L58 257 L58 231 L60 222 Q58 222 58 217 L58 211 L52 211 L52 208 L58 208 L58 203 L60 193 Q57 192 52 192 L52 188 L56 190 L58 190 Q58 186 60 183 L58 179 Q60 169 60 163 L60 146 L58 143 Q60 143 60 141 L60 130 L56 130 L56 126 L60 126 L60 125 L56 125 L56 107 L54 94 Q62 92 62 83 Q62 82 60 78 Q62 78 62 76 L62 71 L58 71 L58 76 L54 76 Q54 67 60 67 L60 65 L56 65 L56 58 Q58 58 58 60 Q61 60 62 56 Q62 53 58 53 L58 56 L56 56 L56 54 Q59 49 62 49 Q62 45 60 42 L62 38 L60 35 Q62 31 62 29 L60 20 Q62 20 65 18 Q67 18 70 20 L74 18 L78 20 Q81 20 82 17 L94 18 Q97 18 98 15 L110 18 L121 17 L128 17 L137 18 Q137 17 139 17 Q162 18 163 18 L138 17 L141 18 Q145 18 149 17 Q168 18 172 20 L174 17 Q177 17 177 20 Q186 20 186 17 Q204 14 204 5 L203 2 L206 0 Q200 -22 149 -31 L145 -29 Q135 -31 163 -31 L146 -31 Q142 -31 139 -32 Q136 -31 132 -31 L123 -31 Q113 -31 92 -32 Q92 -31 90 -31 L90 -32 Q81 -32 63 -31 Q60 -31 60 -34 Q56 -34 45 -31 L45 -32 Q32 -31 31 -31 Q23 -31 7 -1 Q10 2 13 13 Q11 13 9 18 L13 20 Q13 22 11 22 L13 35 L13 76 L11 85 Q13 85 13 89 Q13 95 11 105 L13 108 L11 112 Q11 114 13 118 L9 201 Q11 204 11 208 Q9 211 9 213 L11 217 Q9 217 9 219 L9 226 L11 229 L9 229 Q9 231 11 235 Q9 238 9 242 L9 275 L7 284 Q9 284 9 289 L9 296 L7 307 Q9 311 9 312 L7 331 L9 343 Q9 346 5 363 L7 373 Q5 388 5 399 L5 403 L7 407 Q5 407 3 419 Q5 423 5 425 L3 428 L5 432 Q3 435 3 439 L3 441 L5 445 L3 445 Q3 467 0 490 Q2 490 2 492 Q0 495 0 499 L0 533 L2 546 Q0 546 0 553 L0 560 L2 564 L0 564 L2 573 L2 645 L0 658 Q2 658 2 660 L0 660 Q0 662 2 665 L0 676 L0 719 Q10 732 25 732 L49 732 L58 734 Q58 732 60 732 Q60 734 62 734 L70 734 L74 732 Q74 734 76 734 L108 734 L112 732 Q112 734 114 734 L128 734 L132 732 L132 734 Q154 730 170 730 Z M52 246 L52 239 L54 239 L54 246 L52 246 Z M60 108 Q60 107 62 107 L60 98 L58 98 L58 110 L62 110 Q62 108 60 108 Z M54 89 Q56 85 56 80 L58 80 L58 89 L54 89 Z " />
<glyph glyph-name="backslash" unicode="&#x5c;" horiz-adv-x="278" d="M22 712 L28 712 Q30 712 30 710 L33 712 Q54 712 61 678 L59 678 Q67 666 72 615 Q83 581 98 488 Q139 296 168 190 L198 92 L231 9 Q228 9 222 -4 Q219 -4 215 -8 Q213 -8 213 -6 L209 -8 L207 -8 L204 -6 Q204 -10 202 -10 L198 -8 L194 -10 Q178 -10 167 40 Q147 77 133 142 Q115 192 81 327 L83 327 Q83 329 41 506 Q41 508 39 517 Q41 517 41 519 Q37 519 37 523 L37 525 Q37 527 39 527 Q33 544 19 625 Q15 627 4 678 Q0 678 0 687 L2 687 L0 691 Q8 710 20 710 Q20 708 22 708 L22 712 Z " />
<glyph glyph-name="bracketright" unicode="&#x5d;" horiz-adv-x="290" d="M75 734 L75 732 L79 734 L93 734 Q95 734 95 732 L99 734 L132 734 Q133 734 133 732 L137 734 L146 734 Q148 734 148 732 Q150 732 150 734 L158 732 L182 732 Q197 732 207 719 L207 676 L205 665 Q207 662 207 660 L205 660 Q205 658 207 658 L205 645 L205 573 L207 564 L205 564 L207 560 L207 553 Q207 546 205 546 L207 533 L207 499 Q207 495 205 492 Q205 490 207 490 Q204 467 204 445 L202 445 L204 441 L204 439 Q204 435 202 432 L204 428 L202 425 Q202 423 204 419 Q202 407 200 407 L202 403 L202 399 Q202 388 200 373 L202 363 Q198 346 198 343 L200 331 L198 312 Q198 311 200 307 L198 296 L198 289 Q198 284 200 284 L198 275 L198 242 Q198 238 196 235 Q198 231 198 229 L196 229 L198 226 L198 219 Q198 217 196 217 L198 213 Q198 211 196 208 Q196 204 198 201 L195 118 Q196 114 196 112 L195 108 L196 105 Q195 95 195 89 Q195 85 196 85 L195 76 L195 35 L196 22 Q195 22 195 20 L198 18 Q196 13 195 13 Q197 2 200 -1 Q184 -31 176 -31 Q175 -31 162 -32 L162 -31 Q151 -34 148 -34 Q148 -31 144 -31 Q126 -32 117 -32 L117 -31 Q115 -31 115 -32 Q94 -31 85 -31 L75 -31 Q71 -31 68 -32 Q65 -31 94 -31 L78 -31 Q71 -31 62 -29 L58 -31 Q6 -22 0 0 L3 2 L2 5 Q2 14 20 17 Q20 20 29 20 Q29 17 33 17 L34 20 Q39 18 58 17 Q61 18 65 18 L69 17 L78 18 Q79 18 68 17 Q70 17 70 18 L79 17 L86 17 L97 18 L110 15 Q110 18 113 18 L126 17 Q127 20 130 20 L133 18 L137 20 Q140 18 142 18 Q146 20 148 20 L146 29 Q146 31 148 35 L146 38 L148 42 Q146 45 146 49 Q149 49 151 54 L151 56 L150 56 L150 53 Q146 53 146 56 Q146 60 150 60 Q150 58 151 58 L151 65 L148 65 L148 67 Q153 67 153 76 L150 76 L150 71 L146 71 L146 76 Q146 78 148 78 Q146 82 146 83 Q146 92 153 94 L151 107 L151 125 L148 125 L148 126 L151 126 L151 130 L148 130 L148 141 Q148 143 150 143 L148 146 L148 163 Q148 169 150 179 L148 183 Q150 186 150 190 L151 190 L155 188 L155 192 Q151 192 148 193 L150 203 L150 208 L155 208 L155 211 L150 211 L150 217 Q150 222 148 222 L150 231 L150 257 L153 257 L153 250 L155 250 L155 262 Q150 262 150 271 L150 284 Q150 286 151 286 L150 289 L150 293 Q150 297 151 300 Q150 303 150 307 L151 320 Q150 323 150 325 L151 329 Q151 331 150 334 L157 468 L155 477 Q158 483 158 486 L157 490 L158 493 Q158 495 157 495 Q158 509 160 513 Q158 529 158 539 L158 557 Q158 561 157 564 Q158 567 158 571 Q157 594 157 598 L158 598 Q157 602 157 604 L158 607 Q157 610 157 614 Q157 616 158 616 L157 620 L158 629 L157 636 Q158 639 158 644 Q158 645 157 645 L158 658 L158 674 L160 683 L157 681 Q140 685 130 685 L110 685 Q102 685 90 683 Q81 685 81 687 Q72 684 63 681 Q60 683 56 683 L52 681 Q51 681 51 683 L42 681 L36 681 L3 692 L2 696 L2 703 Q2 708 11 708 L9 712 Q17 730 36 730 Q52 730 75 734 Z M153 246 L153 239 L155 239 L155 246 L153 246 Z M146 110 L150 110 L150 98 L148 98 L146 107 Q148 107 148 108 Q146 108 146 110 Z M150 89 L150 80 L151 80 Q151 85 153 89 L150 89 Z " />
<glyph glyph-name="asciicircum" unicode="&#x5e;" horiz-adv-x="273" d="M72 744 L74 744 Q76 744 76 743 L80 744 Q111 725 148 674 Q173 640 173 636 Q173 631 177 627 L177 614 Q169 604 161 600 Q159 600 159 602 L155 600 L152 600 Q150 600 150 602 L146 600 Q145 600 145 602 L141 600 Q136 600 136 609 L132 607 Q109 649 78 679 Q72 671 54 614 Q46 599 36 591 L33 592 L27 589 Q0 592 0 616 L0 623 Q15 650 36 708 Q41 708 51 737 Q63 744 72 744 Z " />
<glyph glyph-name="underscore" unicode="&#x5f;" horiz-adv-x="521" d="M188 -47 L146 -47 L134 -46 Q134 -47 130 -47 Q128 -47 125 -46 L125 -47 L83 -44 Q83 -46 82 -46 Q76 -44 56 -42 Q56 -44 51 -44 L47 -42 L47 -44 Q45 -44 42 -42 Q37 -42 27 -44 Q11 -33 11 -31 Q0 -29 0 -11 Q12 5 33 5 Q33 3 34 3 L38 5 Q42 5 42 1 L45 3 Q57 3 70 -1 L74 1 L94 -2 Q95 -2 101 -1 Q126 -2 128 -4 L128 -2 Q130 -2 134 -4 L150 -2 L161 -4 Q161 -2 163 -2 Q166 -4 170 -4 L172 -4 L181 -2 Q181 -4 183 -4 L191 -2 Q213 -4 222 -4 Q224 -4 228 -6 Q228 -4 229 -4 L260 -4 L269 -6 Q269 -4 271 -4 L274 -6 Q274 -4 286 -2 Q289 -4 292 -4 L302 -4 Q306 -4 309 -2 Q312 -4 316 -4 L322 -4 L334 -2 Q334 -4 336 -4 Q336 -2 343 -1 L347 -2 L351 -1 Q354 -2 358 -2 L371 -2 L374 -4 Q374 -2 379 -1 L397 -4 Q397 -2 399 -2 L421 -2 L425 -4 Q425 -2 426 -2 L448 -2 Q456 -2 462 -6 Q462 -4 472 -2 Q474 -2 477 -4 L490 -2 Q497 -2 508 -8 Q508 -10 506 -10 L508 -13 Q509 -13 509 -11 Q519 -17 519 -28 Q516 -28 515 -31 Q515 -46 497 -49 L455 -46 Q449 -47 439 -47 L434 -47 L425 -46 Q425 -47 423 -47 L414 -44 Q414 -46 412 -46 L376 -46 L367 -44 Q367 -46 354 -47 L351 -46 Q347 -47 343 -47 L331 -47 L327 -46 L327 -47 Q323 -47 320 -46 Q306 -49 304 -49 Q302 -49 298 -47 L294 -49 L282 -47 Q276 -47 251 -49 Q235 -47 231 -47 Q228 -49 226 -49 L222 -47 L211 -49 L209 -49 L201 -47 Q201 -49 199 -49 L188 -47 Z " />
<glyph glyph-name="grave" unicode="&#x60;" horiz-adv-x="197" d="M23 726 L36 726 Q77 684 150 625 Q157 611 157 609 Q157 590 132 585 Q132 587 130 587 Q130 583 126 583 L123 583 Q112 583 106 596 Q103 596 58 634 Q18 662 0 692 L0 694 Q0 708 21 725 Q21 726 23 726 Z " />
<glyph glyph-name="a" unicode="a" horiz-adv-x="346" d="M124 699 Q150 690 150 667 Q152 667 170 619 L215 453 Q222 393 226 393 Q226 391 224 391 Q265 132 278 86 L276 86 L292 23 Q294 23 294 21 L294 3 L290 5 Q290 0 270 -6 Q270 -10 266 -10 Q245 -10 235 60 Q220 108 191 314 L170 314 L152 312 L152 314 L148 312 Q146 312 146 314 L142 312 L139 312 Q137 312 137 314 Q135 314 135 312 Q126 314 94 316 Q93 264 89 264 Q89 262 91 262 Q89 245 87 245 L89 242 Q77 175 74 169 L76 166 Q67 135 59 79 L57 79 L59 75 L59 73 Q59 71 57 71 L59 68 L52 40 Q52 38 54 38 L52 29 L52 25 L54 16 Q47 12 39 -3 Q37 -3 19 -6 Q17 -6 17 -4 L13 -6 L11 -6 Q8 -6 0 7 Q0 9 2 9 L0 12 L0 14 L4 20 Q4 21 2 21 Q4 41 11 68 Q9 71 9 73 L11 73 L9 77 Q13 85 17 110 Q15 110 15 112 Q19 112 19 116 L17 125 Q23 125 44 269 L46 269 Q46 271 44 271 Q46 284 48 284 Q48 286 46 286 Q50 326 56 360 L54 364 Q56 373 57 373 Q57 375 56 375 Q56 384 76 536 Q76 538 74 538 Q85 629 96 689 Q115 694 115 697 L118 695 L124 699 Z M128 589 Q120 533 118 532 L120 528 Q119 512 117 512 Q117 510 118 510 Q117 485 104 423 Q104 421 105 421 Q102 398 102 373 L100 373 L102 369 L100 358 L100 356 L118 356 Q120 356 120 354 Q122 354 122 356 L131 354 L144 354 Q148 354 152 356 Q155 354 159 354 L174 354 L183 356 Q161 496 135 562 Q131 589 128 589 Z " />
<glyph glyph-name="b" unicode="b" horiz-adv-x="284" d="M17 720 Q51 720 120 685 Q135 677 165 644 Q163 644 163 642 Q179 617 194 551 Q192 540 189 540 Q189 538 191 538 Q191 483 154 414 Q123 387 109 387 L109 381 Q128 381 178 290 Q194 236 198 216 Q200 216 200 215 L198 215 L200 211 L200 204 Q200 194 205 174 L204 174 L205 170 Q205 168 204 168 L205 165 L205 154 Q205 126 202 126 Q202 124 204 124 Q187 52 170 52 Q150 28 126 20 Q115 13 111 13 Q111 15 109 15 Q88 2 54 2 Q54 0 52 0 Q20 4 20 11 Q4 17 0 31 L0 35 Q1 39 4 39 L0 61 L2 65 Q2 67 0 67 L2 76 Q2 78 0 81 Q0 83 2 83 L0 93 L2 105 Q0 109 0 111 Q0 113 2 113 Q2 115 0 118 Q2 138 2 150 Q2 152 0 155 L2 167 L2 189 Q2 191 4 191 L2 194 L2 220 Q2 222 4 222 Q4 224 2 224 L4 233 L2 250 L6 252 L4 255 L4 259 Q4 265 6 265 L4 274 L4 285 Q4 287 6 287 L4 290 Q4 292 6 292 L2 305 Q4 318 6 318 Q4 342 2 342 L4 352 L4 396 Q4 400 2 403 Q4 407 4 411 L4 442 Q4 444 6 444 L2 466 Q4 469 4 474 Q4 478 2 481 Q2 483 4 483 L2 492 L2 500 Q2 501 4 501 L2 505 L2 531 Q2 533 4 533 L2 537 L2 544 Q2 559 4 579 L2 583 Q4 586 4 590 Q4 594 2 594 Q4 610 6 614 Q4 617 4 622 Q4 628 6 631 L4 644 Q6 669 6 675 Q4 679 4 681 L6 681 L4 685 L4 686 Q4 690 7 690 Q7 692 6 692 Q9 720 17 720 Z M52 672 Q52 670 50 670 L52 666 L52 659 Q52 648 50 629 Q52 625 52 623 L50 623 L52 620 L52 616 L50 605 Q50 603 52 603 L50 594 L50 575 Q50 574 48 574 L50 570 L50 568 Q50 566 48 566 Q48 564 50 564 L48 551 L48 537 Q48 529 50 516 Q48 513 48 509 Q50 506 50 501 L48 501 L50 498 L48 475 L50 464 Q48 447 48 431 L48 414 Q48 401 54 400 Q59 409 96 429 Q122 445 130 472 Q141 500 142 531 Q144 531 146 540 Q142 552 142 555 L144 555 Q137 602 120 629 Q102 648 59 672 L56 670 L52 672 Z M50 361 Q48 357 48 355 Q52 335 52 333 L50 324 L54 300 L52 300 L54 296 Q52 289 50 289 Q51 285 54 268 Q52 257 50 257 L52 253 L52 246 Q52 244 50 244 Q50 242 52 242 L48 198 Q50 196 52 172 L50 172 Q52 168 52 167 L50 163 L54 152 L52 148 L54 144 Q52 135 50 135 L54 118 Q50 109 50 104 L52 93 L50 93 L52 89 L52 83 Q52 79 50 76 Q52 72 56 48 L54 48 Q56 41 65 41 Q80 50 111 57 Q148 87 148 111 Q151 111 155 139 L155 155 Q156 159 159 159 Q155 172 148 218 L150 218 L131 276 Q130 276 130 278 L130 279 Q130 281 131 281 Q93 357 54 357 Q54 361 50 361 Z " />
<glyph glyph-name="c" unicode="c" horiz-adv-x="309" d="M122 716 L131 716 Q208 716 216 677 L215 677 L216 673 Q216 669 200 662 L200 664 L196 662 Q163 673 150 673 L141 672 L141 673 L137 672 Q135 672 135 673 Q89 655 72 614 Q66 606 54 559 L56 555 Q52 540 50 511 Q50 509 52 505 L48 448 L50 444 L48 440 Q48 434 50 431 Q48 407 48 392 L48 355 Q48 351 50 348 Q48 345 48 340 L48 333 Q48 318 50 294 L48 290 L56 250 L54 250 Q57 240 61 211 L59 207 Q63 200 63 196 L61 196 Q66 163 68 155 L67 152 Q78 92 104 57 Q121 39 130 39 Q177 39 218 81 Q228 83 229 83 Q253 80 253 61 Q255 61 255 59 L255 54 L216 20 Q212 20 205 13 Q165 0 137 0 L124 0 Q122 0 122 2 L118 0 Q73 0 33 98 L20 150 Q20 152 22 152 L15 183 L17 183 L15 187 L15 191 Q15 192 17 192 Q15 195 13 213 L15 213 Q13 218 11 235 L13 235 Q6 268 6 276 L7 276 L4 285 Q4 287 6 287 Q2 306 2 313 L4 313 Q4 315 2 315 L4 324 L4 327 L2 337 L4 337 L2 340 L2 359 Q2 361 4 361 L2 364 Q2 366 4 366 L0 385 Q2 401 4 401 L2 405 L2 440 Q2 442 4 442 Q2 446 2 448 L4 451 Q2 455 2 459 Q2 461 4 461 L2 464 Q2 600 44 660 Q58 685 89 701 Q89 707 122 716 Z " />
<glyph glyph-name="d" unicode="d" horiz-adv-x="316" d="M30 713 L30 712 Q31 712 31 713 Q33 713 37 712 Q39 712 52 713 Q95 713 135 689 Q173 660 189 604 L207 515 Q205 512 205 510 L209 508 L207 504 Q213 460 216 449 L215 441 Q216 422 220 412 Q220 410 218 410 Q224 345 226 345 L224 332 L224 299 Q224 243 220 229 L222 225 Q216 205 216 201 L216 188 Q216 186 215 186 Q215 184 216 184 Q204 106 191 79 Q181 45 159 25 Q141 11 141 9 Q116 -3 98 -3 L98 -1 L67 -10 Q46 -6 46 -4 L43 -6 L41 -6 Q22 1 22 18 L20 27 L22 34 Q20 44 20 51 L22 51 L20 55 L20 101 L19 123 L20 123 Q19 127 19 129 Q19 131 20 131 L19 140 L19 158 Q19 165 17 175 Q17 177 19 177 Q17 181 15 231 L17 231 Q15 240 13 240 L15 249 L15 255 Q15 259 13 262 Q13 264 15 264 L13 273 L13 275 Q13 280 15 280 Q12 305 11 310 Q13 314 13 316 L11 325 Q13 325 13 327 L9 329 L11 336 Q11 346 7 375 L9 375 Q9 377 7 377 Q6 416 6 436 L6 453 L4 465 L6 465 L4 469 L4 480 Q4 490 6 497 Q4 507 4 515 L4 536 Q4 540 2 543 Q4 547 4 549 L2 556 L4 560 Q4 562 2 562 L4 571 L4 593 L6 604 Q4 607 4 613 L4 615 L6 626 L4 630 Q6 633 6 638 Q4 643 2 643 L4 656 L2 667 Q4 670 4 675 Q0 687 0 691 L0 695 Q7 713 30 713 Z M56 662 Q56 657 57 654 L56 641 Q59 622 59 621 Q57 621 57 619 Q59 619 59 617 L56 615 L59 597 Q56 590 56 576 L56 488 Q56 480 54 473 Q56 466 56 458 L56 451 Q56 410 59 391 L57 391 L59 388 Q59 382 57 379 L61 342 L59 342 L61 338 L61 325 L63 314 Q63 312 61 312 Q65 291 65 284 L63 284 L65 280 L65 238 Q65 214 68 205 Q67 201 67 199 Q68 195 68 194 L67 194 L68 190 L68 160 L70 138 L68 138 L70 134 L70 114 Q70 110 72 107 Q70 103 70 99 L70 79 L72 70 L70 70 L72 66 Q72 64 70 64 L74 38 Q78 38 87 42 Q89 42 89 40 Q129 40 146 103 Q163 138 172 264 Q174 266 174 303 L174 319 Q174 362 170 382 L172 382 L161 460 L163 460 Q161 474 157 478 L159 488 Q140 606 118 641 Q100 665 67 665 Q56 664 56 662 Z " />
<glyph glyph-name="e" unicode="e" horiz-adv-x="300" d="M80 685 L81 681 Q83 681 83 683 L93 681 L131 681 Q138 681 148 679 Q151 681 155 681 L159 679 Q163 681 165 681 L168 679 Q172 681 176 681 Q185 677 192 664 Q188 640 148 640 L141 642 Q96 644 83 644 L83 646 L80 644 L48 644 L48 635 Q48 633 46 633 L48 629 L48 620 Q48 611 44 611 Q48 601 48 598 L46 598 Q46 596 48 596 Q48 594 46 590 Q46 589 48 579 L46 562 Q48 553 48 544 L46 544 Q46 542 48 542 Q48 538 46 535 Q48 509 48 490 L48 479 L50 468 Q48 465 48 459 Q48 447 52 433 L50 433 L52 429 Q52 427 50 427 L52 424 L50 411 L52 392 L50 392 Q54 385 54 377 L54 372 L67 372 Q72 372 72 374 L81 372 L89 372 Q99 372 115 374 L118 372 Q128 374 135 374 Q148 374 154 357 Q154 340 128 331 L115 333 L87 333 L74 331 L74 333 L59 329 Q59 333 56 333 L54 329 L54 322 Q54 316 56 316 L54 307 L54 290 Q54 286 56 283 Q56 281 54 281 L56 274 Q54 226 54 209 L56 205 L54 202 L56 192 L54 189 Q56 179 57 179 L56 170 L56 105 Q56 101 57 98 Q56 95 56 91 L56 72 L57 61 L57 54 Q82 50 131 50 L133 50 Q137 50 141 52 Q144 50 148 50 L165 50 Q171 50 181 52 Q183 52 183 50 L202 52 L226 52 Q241 43 241 30 Q227 9 216 9 Q216 7 204 6 L200 7 L192 6 L181 7 Q179 7 179 6 L170 7 L168 7 L157 6 Q154 7 152 7 L144 6 Q134 7 130 7 L126 6 Q122 7 120 7 L104 6 L104 7 L100 6 L94 6 Q90 6 87 7 Q84 6 80 6 L72 7 Q69 6 63 6 L63 7 Q61 7 61 6 L52 7 L46 7 Q35 6 35 2 L26 4 L19 0 Q15 2 9 2 L9 4 Q9 6 11 6 Q7 12 7 20 L7 83 Q7 85 9 85 L7 89 L7 96 Q7 98 9 98 L7 102 L7 105 Q7 107 9 107 L7 111 L7 209 Q7 213 9 216 L7 220 Q9 223 9 228 Q9 229 7 229 L9 239 L9 266 L7 285 L9 285 L7 289 L7 292 Q7 294 9 294 L7 298 L7 376 Q7 380 6 383 L7 387 Q7 390 4 400 Q4 404 6 407 Q2 446 2 501 L2 520 L0 529 L2 529 Q2 531 0 531 Q0 535 2 535 Q0 572 0 590 L0 627 Q0 629 2 629 L0 633 Q0 641 2 651 Q0 659 0 664 Q19 683 37 683 L37 681 Q41 683 43 683 L46 681 Q49 683 54 683 L61 681 Q70 685 80 685 Z " />
<glyph glyph-name="f" unicode="f" horiz-adv-x="303" d="M19 697 Q25 697 33 692 L52 692 L70 694 L70 692 L74 694 L83 694 Q96 694 124 696 L124 694 L128 696 Q229 693 229 685 Q235 680 237 673 Q235 670 235 668 L237 664 Q235 649 222 649 L222 651 L218 649 L209 649 L198 651 L194 649 Q178 651 170 655 L167 653 L159 655 Q149 653 144 653 L144 655 L141 653 L120 653 Q118 653 118 651 L115 653 Q98 651 94 651 L94 653 L91 651 Q89 651 89 653 L70 649 L70 651 L63 648 Q59 649 57 649 Q54 648 52 648 Q52 649 50 649 Q47 628 44 618 Q46 614 46 612 Q44 612 44 611 L48 609 L46 605 L46 590 L48 581 L46 581 L48 577 L48 551 Q48 547 50 544 Q48 529 46 529 Q46 527 48 524 Q50 450 50 413 L52 413 Q81 416 85 418 L89 416 L96 420 Q98 420 102 418 L133 422 L133 420 L148 424 L152 422 Q171 424 181 424 Q200 415 200 401 Q200 400 198 400 L200 396 L200 394 Q200 382 165 379 L165 381 L161 379 L148 381 Q72 372 67 366 L63 368 L59 366 Q56 368 54 368 L54 366 L57 278 L56 278 Q59 270 59 265 L57 265 L59 261 L59 244 L61 235 L59 235 Q59 233 61 233 Q61 231 59 228 Q61 209 61 198 L59 194 Q61 191 61 187 Q61 178 59 165 Q61 155 61 148 Q59 144 59 142 L61 139 L59 135 L61 128 Q61 126 59 126 L61 113 L61 37 Q61 33 63 30 Q61 26 61 24 L63 20 Q61 17 61 13 Q63 9 63 7 L50 0 Q41 2 41 6 Q39 6 39 4 Q20 4 13 24 L15 31 Q13 35 13 37 L15 37 L13 41 L13 65 Q13 69 11 72 Q12 76 15 96 Q13 108 13 120 L13 128 Q13 130 15 130 L13 133 L13 146 Q13 152 11 152 L13 161 L13 224 L11 233 L13 233 Q11 237 11 239 Q11 242 13 242 L11 255 L11 276 Q11 285 9 307 L11 307 L7 316 L9 320 Q7 323 7 327 Q7 329 9 329 L7 339 L7 357 Q7 399 4 409 Q4 411 6 411 L4 420 L4 426 Q4 438 6 448 Q4 457 4 470 L4 477 Q4 481 2 485 L4 488 Q2 524 0 524 L2 533 L2 557 Q2 559 4 559 L2 562 L2 566 Q2 568 4 568 L2 572 L2 577 Q2 579 4 579 L0 598 Q0 599 2 599 L0 609 L0 622 Q0 637 2 657 Q0 660 0 662 L2 662 L0 666 Q0 697 19 697 Z " />
<glyph glyph-name="g" unicode="g" horiz-adv-x="316" d="M151 701 Q188 700 225 680 Q225 677 239 665 Q239 657 241 654 Q235 641 222 642 L214 642 Q209 642 191 655 L187 653 L159 660 L156 658 Q154 658 154 660 Q131 660 101 628 L84 599 Q86 599 86 597 Q82 597 76 567 Q70 566 70 553 Q72 553 72 551 Q67 551 62 521 L60 521 L61 512 L59 505 Q63 504 63 501 Q59 501 59 496 Q58 451 53 451 Q54 448 54 446 L52 438 Q52 436 54 436 L52 427 L50 353 L54 340 L52 340 L54 337 L54 335 Q53 333 52 333 L53 329 L51 325 Q53 322 53 318 L51 318 L53 314 L53 296 L51 292 Q54 291 54 288 L54 285 Q54 283 52 283 L54 279 L54 259 Q56 244 60 207 L58 207 Q61 198 63 177 L61 177 L63 173 Q63 172 61 172 Q67 143 67 134 L65 135 Q89 38 130 37 Q160 36 171 60 Q181 82 186 85 Q187 101 193 126 Q193 128 191 128 L195 150 Q192 166 193 194 L195 309 L179 309 Q172 310 132 303 Q106 307 101 313 Q101 311 99 311 Q99 315 96 315 L98 323 L96 332 Q101 332 102 341 Q104 341 104 339 Q117 342 144 345 L144 344 Q145 349 226 351 Q226 349 228 349 Q228 351 230 351 Q244 339 244 328 Q244 325 240 314 Q242 310 242 308 L240 308 L242 304 L241 301 Q241 299 240 299 L241 295 Q241 293 239 293 Q243 287 243 282 L242 265 Q242 247 238 247 L240 243 Q240 241 238 241 Q242 235 242 230 L241 215 Q241 193 237 193 L239 190 Q239 188 237 188 Q242 179 241 141 Q241 136 237 116 Q237 114 239 114 Q238 84 217 40 Q183 -2 133 0 Q64 1 27 93 L21 121 Q23 121 23 123 Q19 123 19 126 Q19 128 21 128 Q19 133 16 152 Q18 152 18 154 Q14 154 14 158 L14 162 Q4 294 5 317 L5 327 Q5 331 4 334 Q4 336 5 336 Q4 371 1 382 Q3 385 3 390 Q3 391 1 401 L3 401 Q3 402 1 403 L4 412 Q4 416 7 460 L8 460 Q8 462 7 462 Q11 489 13 489 Q13 491 11 491 L13 500 L14 526 Q14 530 16 534 L14 537 Q33 625 63 660 Q93 702 151 701 Z " />
<glyph glyph-name="h" unicode="h" horiz-adv-x="309" d="M187 714 Q187 711 213 707 Q222 697 222 673 L220 673 L222 670 L222 668 Q222 666 220 666 L222 662 L222 638 Q222 628 220 609 L222 605 Q218 580 218 557 L216 557 L218 553 L216 535 Q216 531 218 531 L216 518 L216 509 Q216 488 215 455 Q215 453 216 453 L215 444 L215 409 Q215 405 216 401 Q216 400 215 400 Q217 357 218 346 Q216 342 216 340 L218 337 L216 333 Q216 331 218 331 L216 322 L216 316 Q216 304 220 281 L218 281 L220 278 L220 259 Q220 257 218 257 Q220 253 222 237 L220 237 L224 218 Q222 215 222 213 Q222 211 224 211 L222 202 Q222 195 224 192 L222 183 Q224 173 224 168 L222 168 L226 159 L224 150 Q226 129 228 126 Q228 124 226 124 L228 115 L228 102 Q228 100 226 100 L228 96 L228 76 Q228 72 229 68 Q229 67 228 67 L229 59 Q229 55 228 39 L229 30 Q228 26 228 24 Q229 20 229 19 Q227 19 220 7 L216 9 L204 7 Q178 12 178 33 Q179 37 179 41 L178 50 L179 50 L178 54 L178 70 Q178 76 176 76 L178 85 L178 96 Q178 108 176 133 L178 133 Q176 137 176 139 Q176 161 172 181 Q174 188 174 196 L174 200 Q174 204 172 207 Q172 209 174 209 L172 218 L172 239 Q172 241 174 241 L172 244 Q170 292 168 292 Q168 294 170 294 L167 329 L168 329 L167 333 Q167 341 170 348 Q142 346 130 346 L126 346 L117 344 L117 346 L85 340 L81 342 Q78 340 74 340 Q72 340 68 342 L57 340 L50 340 L52 318 Q52 316 50 316 L52 313 L52 281 Q52 277 54 274 Q52 270 52 268 Q54 220 56 220 Q54 213 54 207 Q54 182 57 163 L56 163 L57 159 Q57 155 56 152 Q59 93 63 72 Q63 70 61 70 L67 11 Q67 6 56 0 L52 2 L39 0 Q24 4 15 20 L15 33 Q15 35 17 35 Q13 50 11 80 Q13 89 13 102 Q13 104 11 107 Q13 111 13 113 Q11 116 11 118 L13 118 L11 122 L11 131 Q11 136 13 139 Q11 142 11 146 L13 146 Q11 150 11 152 Q11 161 9 183 Q9 185 11 198 Q7 214 7 216 Q9 220 9 222 Q6 229 6 237 Q6 239 7 239 Q7 241 6 241 L7 248 Q7 256 6 290 Q6 292 7 302 L4 331 L6 331 L4 335 L4 342 Q4 346 6 350 Q4 354 2 377 Q6 466 6 500 L4 507 Q6 512 7 512 L6 525 L6 555 Q6 557 7 557 L6 561 Q6 573 7 583 L4 612 Q7 612 7 618 Q6 621 6 623 L7 623 L6 627 L6 640 Q6 649 2 649 L4 659 Q4 661 2 664 L4 672 Q2 691 0 694 Q2 703 4 703 L2 707 L2 709 Q7 709 15 710 Q52 710 52 675 Q52 668 54 660 L52 660 L54 657 L54 655 Q54 653 52 653 L54 649 Q52 636 52 635 L54 631 L52 627 Q54 624 54 620 Q52 620 52 618 Q57 618 57 614 Q57 612 52 609 L54 605 Q54 603 52 599 Q53 585 56 585 L54 575 L54 537 Q54 532 52 529 Q56 518 56 514 L52 512 Q54 496 56 492 Q54 488 52 475 L54 472 L52 468 L54 464 L52 453 Q52 451 54 451 L52 442 L52 427 Q52 426 50 426 L52 422 L52 420 Q52 418 50 418 Q50 416 52 416 L50 400 Q50 381 61 381 Q65 383 67 383 L67 381 Q82 385 111 389 Q114 387 118 387 Q122 389 124 389 L124 387 L128 389 L144 389 Q168 389 168 398 L167 401 L167 448 Q167 452 168 455 Q168 457 167 457 L168 466 L168 477 L167 487 L168 487 L167 490 L167 494 Q167 501 168 511 Q168 512 167 512 L168 522 L168 531 Q168 535 167 538 Q168 555 170 555 L168 559 Q168 560 170 570 Q170 574 168 574 Q172 603 172 646 Q172 650 170 660 Q172 667 172 677 L172 686 Q172 688 174 688 L172 692 Q172 705 187 714 Z " />
<glyph glyph-name="i" unicode="i" horiz-adv-x="128" d="M30 688 L31 688 Q57 681 57 666 L57 660 Q54 660 54 657 Q57 656 57 653 Q57 651 56 651 Q57 641 57 636 L56 623 Q57 620 57 618 L56 618 L57 614 L57 612 Q57 611 56 611 L57 607 L57 603 Q57 597 56 594 L59 574 L57 574 Q59 570 59 568 Q56 562 56 559 L57 549 L56 549 Q56 548 57 548 L56 538 Q56 537 57 537 L56 527 L56 492 Q56 490 54 490 L56 487 Q56 480 59 422 L57 422 L59 418 Q59 413 57 403 Q59 394 59 392 Q57 379 57 370 L59 366 Q57 362 56 350 L57 346 Q57 344 56 344 L57 335 L57 296 Q57 294 56 294 L57 290 L57 285 Q57 283 56 283 L57 279 Q57 278 56 278 Q57 255 59 255 L57 246 L57 220 Q52 197 52 142 Q52 140 50 137 L52 126 L52 115 Q52 111 50 107 Q52 105 54 74 L52 70 Q54 67 54 63 L52 63 Q56 58 57 39 L56 39 L57 35 Q57 33 56 33 Q57 21 59 17 Q43 0 39 0 L33 0 Q11 7 11 9 Q6 22 6 30 L7 30 Q4 38 4 59 Q4 61 6 61 Q2 68 2 76 L2 93 Q2 94 4 94 L2 98 L2 120 Q2 126 0 130 Q9 224 9 241 L9 255 Q9 261 7 265 L9 276 L9 302 Q9 306 7 309 L9 313 L7 331 L9 350 Q7 357 7 366 L9 366 Q9 368 7 368 L9 377 L9 390 Q9 402 11 418 Q7 438 6 479 Q7 482 7 487 Q4 496 4 500 L6 500 L4 503 Q4 505 6 505 Q6 507 4 507 L9 586 Q7 593 6 651 L7 655 Q7 657 6 657 Q6 683 13 683 Q20 688 30 688 Z " />
<glyph glyph-name="j" unicode="j" horiz-adv-x="319" d="M198 712 Q198 710 218 697 Q218 695 220 692 L218 688 L220 677 L218 677 L220 673 Q220 672 218 672 L220 664 Q220 653 218 635 Q218 625 222 599 L220 596 Q222 569 226 557 Q224 547 224 542 L226 529 Q226 527 224 527 L226 518 L226 507 Q226 505 224 505 Q227 499 229 488 Q228 485 228 481 Q228 478 231 472 L229 468 Q231 464 231 463 L228 461 L229 457 L229 451 Q229 450 228 450 Q229 446 229 444 Q229 423 228 390 Q229 374 229 370 L228 357 Q228 351 231 326 Q228 325 228 322 Q231 321 231 318 Q231 316 229 316 L231 313 L231 303 Q231 288 233 279 Q231 248 229 244 L231 237 Q229 216 229 200 Q229 198 228 198 L229 194 Q229 192 228 192 L229 189 L229 183 Q229 179 226 179 L228 176 L228 172 Q228 170 226 170 L228 167 Q218 111 205 98 Q187 49 157 17 Q130 0 118 0 L118 2 Q115 0 113 0 Q87 5 68 19 Q36 42 19 102 Q8 124 4 165 Q6 165 6 167 L2 168 Q2 170 4 170 L0 202 L2 205 L0 209 L4 222 L2 226 Q2 237 26 246 Q47 241 56 231 L54 222 Q54 220 56 220 L54 211 L56 200 L54 196 L56 187 L54 174 Q56 170 56 168 L54 168 Q68 103 85 76 Q85 65 113 43 Q144 67 170 139 Q170 160 178 174 L178 176 Q178 181 176 181 Q180 224 181 224 L179 228 Q181 240 181 248 Q181 250 179 250 L181 259 L181 294 Q181 296 183 296 Q183 298 181 298 L183 309 Q183 328 179 346 Q183 346 183 350 Q183 353 179 364 L181 376 L179 383 L181 387 Q181 389 179 389 L181 398 L181 411 Q181 417 179 420 Q183 443 183 450 Q183 456 179 488 L181 488 L179 492 Q179 494 181 494 L179 507 L179 527 Q179 569 176 579 L178 583 L176 590 L178 594 Q175 597 174 612 L176 612 Q174 616 174 618 Q174 624 176 631 L170 694 Q179 710 187 710 Q188 710 198 712 Z " />
<glyph glyph-name="k" unicode="k" horiz-adv-x="309" d="M17 701 L27 701 Q29 701 29 699 L32 701 Q59 691 59 675 Q57 654 55 654 L57 650 Q57 648 55 648 L57 644 L55 636 Q57 633 57 631 L55 631 Q55 629 57 629 L55 619 L55 617 L57 608 L55 608 Q55 606 57 606 L55 597 L57 577 L55 577 L57 574 L57 564 Q57 560 55 557 Q57 553 57 551 L55 551 L57 547 L55 543 L57 532 L55 532 Q55 530 57 530 Q56 518 53 518 Q55 503 57 503 L55 494 L55 467 Q55 461 57 458 L55 446 L55 431 L57 421 L55 421 Q55 420 57 420 Q57 418 55 414 Q57 391 57 380 Q55 380 55 378 L59 376 Q89 440 89 446 Q103 475 110 507 Q118 531 148 606 Q169 660 169 665 Q178 681 188 688 L192 688 Q218 688 223 676 Q225 666 225 661 Q216 628 196 581 Q198 581 198 579 Q186 568 186 555 Q166 507 135 421 Q122 389 122 387 Q108 372 108 362 Q93 331 93 319 L95 309 Q93 309 93 307 Q96 305 118 256 Q160 166 160 163 Q158 163 158 161 Q171 137 190 81 Q190 77 215 18 Q213 18 213 16 Q219 16 221 1 Q214 -14 194 -20 Q176 -20 164 -1 L164 3 Q166 3 166 5 Q162 6 135 75 Q137 79 137 81 Q131 89 93 184 L95 187 Q86 195 61 252 L59 252 Q59 243 57 233 Q59 229 59 227 L57 227 L59 224 L59 220 Q59 218 57 218 Q59 214 59 212 Q59 199 61 170 L59 163 Q61 152 61 147 Q59 128 59 125 Q63 110 63 102 L61 90 Q65 53 65 10 Q59 3 46 -5 L44 -5 Q34 -5 34 -1 L30 -3 Q17 1 11 18 L11 20 Q11 44 10 79 L11 83 Q10 86 10 90 L11 90 Q10 94 8 113 L10 125 Q10 128 6 138 L8 142 Q8 144 6 144 L8 157 L8 195 Q8 205 6 224 L8 224 Q6 229 4 246 L6 250 L4 254 Q4 258 6 262 Q4 278 4 288 L6 300 Q4 303 4 307 Q4 309 6 309 L4 319 L4 330 Q4 334 6 338 Q4 341 4 345 L4 353 Q4 355 6 355 L4 359 L6 370 Q4 390 4 401 Q4 403 6 406 Q4 410 4 414 L4 433 L2 437 Q6 437 6 440 Q4 464 4 469 L6 479 Q3 500 2 505 L6 551 Q4 555 4 557 L6 557 L4 560 L4 576 L6 585 Q2 585 2 589 L6 591 Q2 609 2 614 Q2 617 4 617 L2 636 L2 667 Q2 671 0 675 Q0 691 17 701 Z " />
<glyph glyph-name="l" unicode="l" horiz-adv-x="265" d="M22 686 L26 684 Q28 684 31 686 Q52 686 59 665 Q59 661 61 658 L57 584 Q59 581 59 576 L57 573 L61 562 L59 558 L61 554 Q57 547 57 539 Q57 538 59 538 L57 528 L57 510 Q57 502 54 486 L56 482 L54 471 Q56 467 56 465 L54 465 L56 462 L56 445 Q56 436 52 436 L54 427 L54 410 Q54 408 52 408 L54 404 Q54 400 52 377 Q52 368 54 353 Q52 332 52 314 L54 292 Q52 284 52 279 Q56 250 56 229 L57 219 L56 219 L59 199 L56 186 Q57 176 57 169 L57 157 Q57 152 59 149 Q59 147 57 147 L59 138 L59 136 Q59 132 56 132 Q59 128 61 84 L59 84 L61 81 L61 55 L63 33 L192 42 L207 31 Q207 23 209 23 Q209 -3 146 -3 L96 -8 L93 -6 Q74 -10 61 -10 Q25 -10 13 7 Q13 9 15 12 L9 47 L11 47 Q11 49 9 49 Q11 71 11 81 L11 84 Q11 89 9 92 L11 95 Q9 105 7 105 L9 114 L9 147 Q9 151 6 151 L7 155 L7 175 Q7 195 4 210 Q6 220 6 229 L6 232 Q6 236 2 251 L4 251 L2 255 L2 266 Q2 268 4 268 Q2 271 2 273 Q2 275 4 279 Q0 293 0 310 L0 321 Q0 323 2 323 L0 327 L2 330 Q2 332 0 332 Q0 334 2 338 L0 360 L2 377 L0 380 Q4 410 7 569 Q7 570 9 580 L7 584 Q7 586 9 589 Q7 605 7 615 L7 617 Q7 624 9 634 Q7 637 7 641 L9 641 L6 650 Q6 675 22 686 Z " />
<glyph glyph-name="m" unicode="m" horiz-adv-x="423" d="M292 714 Q305 710 305 699 Q309 699 309 696 L307 696 Q311 688 311 685 L309 685 L311 681 L311 662 L316 649 L315 640 L322 579 L320 579 L322 575 L322 555 L320 551 L322 551 L318 537 L322 535 L320 531 L320 529 L322 520 L318 518 Q322 509 322 475 L322 457 Q322 455 320 455 Q320 453 322 453 L320 444 L320 435 L322 426 L320 426 L322 422 L322 372 Q322 370 320 370 L322 366 L322 363 L320 359 L324 357 L322 344 Q322 343 324 333 Q322 330 322 326 Q324 322 324 320 Q324 318 322 318 L324 305 L324 287 Q324 285 322 285 Q322 283 324 283 Q322 270 320 270 L322 266 Q322 265 320 265 L322 255 L322 239 L324 226 L322 226 L324 222 L324 192 Q324 191 322 191 Q323 186 326 167 L324 167 L326 163 Q327 129 327 105 L327 104 L329 100 L326 98 L327 94 L327 43 Q327 35 329 22 Q329 11 313 6 Q313 0 292 0 L287 0 Q274 6 274 28 L274 30 Q274 31 276 31 L272 48 Q276 60 276 83 Q276 89 274 118 L276 118 L274 122 L274 161 Q274 165 272 168 Q274 172 274 176 L274 179 Q274 184 272 187 Q274 190 274 194 Q272 198 272 200 L274 200 L272 204 Q272 205 274 205 L272 209 Q272 211 274 211 Q272 214 270 228 L272 228 Q272 229 270 229 L272 248 L272 250 Q272 253 268 253 L270 263 Q270 264 268 274 L270 274 Q270 276 268 276 L270 285 L270 313 Q270 317 272 320 Q272 322 270 322 L272 331 L272 337 Q272 343 270 353 L272 357 Q270 370 270 377 L270 392 Q270 398 268 398 L270 407 L270 461 Q270 465 268 468 L270 472 L268 483 L270 483 L268 487 L268 490 Q268 492 270 492 L268 496 L268 500 Q268 504 270 507 Q266 513 266 518 L266 522 Q266 524 268 524 L266 527 Q266 529 268 529 L266 533 L266 562 Q266 564 268 564 L266 568 L266 586 L265 596 L266 596 L265 599 L265 601 Q265 603 266 603 Q265 606 265 612 L261 612 Q261 607 233 562 Q205 519 196 490 Q185 487 179 483 L174 483 Q172 483 172 485 L168 483 L165 483 Q142 490 142 500 Q134 508 72 594 Q69 594 63 609 L61 609 L61 607 Q65 523 68 490 L67 490 L68 487 L67 483 Q68 480 68 475 Q68 474 67 474 Q67 472 68 472 Q67 447 67 435 L67 405 Q67 403 65 403 Q67 400 67 398 L65 394 Q67 391 67 387 L67 385 Q67 383 65 383 Q65 381 67 381 Q63 369 61 342 Q63 322 65 318 Q65 316 63 316 Q63 314 65 311 Q65 301 63 259 Q65 209 67 200 Q63 191 63 183 Q65 180 65 178 L63 178 Q63 176 65 176 L63 168 Q63 165 65 165 Q63 155 63 154 Q63 129 67 113 Q65 109 65 107 L70 26 Q70 15 54 9 Q52 4 39 4 L33 4 Q17 6 17 20 L19 20 L17 24 L17 37 Q17 41 15 44 Q17 48 17 52 L15 56 Q17 59 17 61 Q17 63 15 76 L17 83 Q13 87 11 139 L13 139 Q11 142 11 144 Q11 147 13 163 Q13 165 11 165 L13 174 L13 218 Q13 222 11 226 Q13 229 13 233 L11 241 L15 242 Q13 246 11 259 L13 263 L11 274 L13 274 L11 278 Q13 281 13 283 Q11 287 11 289 L13 289 L11 292 L11 298 Q11 300 13 300 L11 303 L11 326 Q11 331 13 331 L11 340 Q11 388 15 435 L13 446 Q15 449 15 451 Q13 455 13 457 Q13 459 15 459 L13 468 L13 500 L11 509 L13 509 Q11 512 11 514 Q11 527 7 555 L9 555 Q6 563 6 585 L6 599 Q6 604 4 607 Q6 610 6 614 L2 620 L6 625 Q2 625 2 629 Q2 631 4 631 L2 635 L2 636 L6 642 L2 644 Q2 646 4 646 L0 677 Q10 707 28 707 Q28 709 33 709 L41 709 Q58 709 67 675 Q72 675 74 666 Q78 665 78 662 Q76 662 76 660 Q91 645 141 579 Q152 564 163 551 L161 548 L168 548 Q168 558 215 623 Q260 704 265 709 Q281 714 292 714 Z " />
<glyph glyph-name="n" unicode="n" horiz-adv-x="388" d="M44 705 Q162 592 242 494 Q250 487 250 483 L253 483 L252 487 Q252 489 253 489 L252 492 L252 494 Q252 496 253 496 L252 500 L252 511 L250 522 Q252 526 252 528 L250 531 L252 535 L250 544 L252 552 Q252 554 250 554 L252 566 L252 585 Q252 589 250 592 Q250 594 252 594 Q248 623 244 628 Q244 629 246 633 L244 642 Q246 646 246 648 L244 652 Q246 655 246 659 L242 665 Q256 698 266 698 L266 696 Q273 700 281 700 Q285 699 285 696 L289 698 Q298 690 298 681 L296 681 Q300 672 300 668 L296 666 L298 657 L298 655 Q298 651 296 648 Q298 637 300 637 L298 628 Q298 623 300 613 Q300 611 298 607 Q300 588 300 578 L300 570 Q300 565 302 565 L300 555 L300 515 Q300 510 302 507 L300 504 Q302 500 302 496 L298 494 Q300 493 302 463 L300 455 Q300 454 302 454 L300 435 L300 420 Q300 418 298 418 L302 396 Q300 393 300 389 L300 376 Q300 374 298 374 Q298 372 300 372 L298 363 L298 361 Q298 357 300 354 Q298 350 298 348 Q298 346 300 346 L298 339 Q300 282 300 267 Q299 246 296 246 L298 243 L298 211 Q298 209 296 209 L298 206 Q300 165 300 152 L298 152 L300 148 L298 139 Q300 129 300 124 L298 124 L300 121 L300 106 L302 95 Q300 91 300 89 Q302 86 302 84 L300 84 L302 80 L302 78 Q302 72 300 69 L303 36 Q300 28 300 15 L302 11 L300 11 L302 8 Q302 -9 274 -20 Q252 -17 252 -11 Q253 -11 253 -9 Q248 -9 248 -5 L250 -5 L248 -1 Q252 5 252 13 L252 58 L250 69 L252 73 Q252 74 250 74 L252 84 Q252 86 250 89 Q252 92 252 97 L250 100 Q250 102 252 102 L250 111 Q250 117 252 117 Q249 184 246 184 L250 219 Q248 222 248 224 L252 232 Q250 244 250 252 L252 252 L250 256 Q250 258 252 258 L250 261 L250 265 Q250 267 252 267 Q252 269 250 269 Q250 271 252 274 Q252 288 248 322 L252 324 L250 328 L250 335 L252 339 L248 341 Q252 350 252 363 L250 376 Q250 378 252 378 Q250 413 242 413 Q244 413 244 415 L159 515 Q101 583 89 591 L56 622 L54 622 Q54 613 52 600 L59 492 L57 492 L59 489 L59 480 Q59 478 57 478 Q59 474 61 450 L59 450 L61 446 L61 444 Q61 443 59 443 Q61 435 63 435 L61 426 L61 409 Q61 400 63 381 L61 381 L63 378 L63 352 Q63 348 65 344 L63 341 Q65 338 65 333 L63 333 L65 330 L65 311 Q65 307 67 304 Q67 302 65 302 L67 293 L67 272 Q67 265 65 252 Q67 250 67 239 L65 239 L67 235 L67 215 Q67 205 68 184 L67 184 L68 180 L68 156 Q68 147 67 137 Q69 112 70 108 L68 104 Q70 91 72 87 Q72 85 70 85 Q76 47 76 32 Q76 2 61 -5 Q59 -5 59 -3 Q53 -7 50 -7 L50 -5 L46 -7 Q26 -2 26 15 L26 21 Q26 23 28 23 Q26 26 24 45 L26 45 Q19 71 19 80 L20 84 Q19 87 19 89 L20 93 Q19 96 19 98 L20 102 Q20 104 19 104 L20 111 Q17 128 17 130 L19 130 L17 134 Q17 135 19 135 L17 139 L17 143 Q17 152 19 161 L17 171 Q17 173 19 176 L15 204 Q19 204 19 208 Q15 208 15 211 Q19 217 19 221 L17 228 Q17 230 19 230 L17 243 L17 272 L15 285 L17 285 L15 289 L15 307 L13 317 L15 317 L13 320 Q15 324 15 326 Q15 328 13 328 Q14 343 17 343 L13 354 L15 357 Q13 361 13 363 L15 367 Q11 376 11 380 L13 383 Q11 387 11 391 Q11 393 13 393 L11 396 L11 411 Q11 421 9 443 L13 444 Q12 448 9 470 L11 470 L9 474 Q9 476 11 476 L9 480 L9 502 Q9 506 7 509 Q7 511 9 511 Q6 534 6 557 L7 557 Q6 562 4 579 L6 579 L2 600 Q3 607 6 607 Q4 609 2 635 L4 635 L2 639 Q2 644 0 674 Q2 689 19 702 L20 702 L24 700 Q30 703 44 705 Z " />
<glyph glyph-name="o" unicode="o" horiz-adv-x="370" d="M141 699 L163 699 Q169 690 218 682 Q253 661 257 632 Q263 632 270 610 Q283 593 290 515 L289 515 L290 512 Q290 510 289 510 L290 506 L289 502 Q292 502 292 499 Q292 497 290 497 L292 488 L292 473 Q292 471 290 471 L292 467 L292 453 Q292 436 296 421 Q296 419 294 419 L296 410 L296 390 Q296 385 298 382 L296 379 Q296 377 298 377 L296 364 L296 303 Q296 298 298 295 Q296 282 294 282 L296 273 Q296 260 292 253 Q294 249 294 245 L294 243 Q294 242 292 242 Q292 240 294 240 Q293 218 290 218 L292 214 Q287 191 279 142 L278 142 Q278 140 279 140 Q279 119 261 83 Q257 83 255 71 Q239 41 213 23 Q200 16 200 12 Q169 -10 141 -10 Q85 -1 85 10 Q49 44 37 79 Q20 124 9 221 L11 221 L2 321 L4 321 L2 325 L2 338 Q2 342 0 345 L2 349 Q2 351 0 351 L2 360 L2 362 Q2 375 0 403 L2 403 L0 406 Q2 410 2 412 Q0 415 0 417 L2 417 Q2 419 0 419 L4 456 L2 464 Q2 489 20 569 L20 573 Q25 573 33 601 Q55 640 67 658 Q100 693 131 697 L141 699 Z M67 552 L68 549 Q63 549 50 467 Q50 465 52 465 L50 456 L50 427 Q50 406 48 373 Q50 369 50 367 L48 367 L50 364 L50 336 Q51 323 54 323 L52 314 L52 288 Q52 284 54 280 L52 277 L54 268 L52 268 Q56 258 56 255 L54 251 L59 210 L57 210 Q68 131 74 121 L72 121 Q81 86 98 57 Q121 29 137 29 Q160 29 181 55 Q198 55 226 127 L228 127 Q228 129 226 129 Q239 209 244 214 L242 218 Q250 255 250 262 L250 358 Q250 373 252 393 Q250 397 250 399 Q252 406 252 412 Q250 415 250 417 L252 417 Q250 422 248 441 L250 454 Q250 464 244 484 L246 484 L244 488 L244 502 Q244 504 246 504 L244 508 Q244 510 246 514 Q246 570 207 639 Q207 650 146 656 Q116 646 98 613 L81 582 Q78 582 67 552 Z " />
<glyph glyph-name="p" unicode="p" horiz-adv-x="272" d="M28 710 L31 710 Q37 710 37 703 Q39 703 39 705 L48 703 Q52 703 56 705 Q103 698 133 681 Q179 653 196 594 Q211 530 211 500 L209 500 L211 496 L211 481 Q211 475 213 472 Q211 450 209 450 Q209 448 211 448 Q209 428 207 424 Q207 422 209 422 Q205 398 202 398 Q204 394 204 392 Q202 364 159 313 Q156 313 141 296 Q135 295 113 278 Q89 270 68 270 L61 270 L57 272 L57 270 Q57 268 59 268 L57 255 L57 250 Q57 246 59 242 Q57 237 54 204 Q56 191 56 183 L56 146 L57 137 L56 137 L57 133 L57 118 Q57 117 56 117 Q57 111 59 111 Q57 85 54 67 Q54 65 56 65 Q54 50 52 50 L54 46 L54 30 L56 17 Q45 3 26 0 Q26 2 7 9 Q7 16 2 24 L4 24 Q2 33 0 33 Q2 53 4 57 Q4 59 2 59 L6 93 L4 96 L7 113 Q6 116 6 120 L7 120 L6 124 L7 131 Q7 133 6 133 L7 142 L7 165 L6 176 Q7 179 7 185 L7 189 Q7 194 6 194 L9 229 Q7 233 7 235 L9 235 Q9 237 7 237 Q11 254 11 259 Q9 263 9 265 L11 265 L9 268 L9 300 Q9 309 11 327 L7 329 L11 339 Q11 340 9 340 L11 350 L11 353 Q11 360 9 370 L11 374 L9 385 L9 387 Q9 389 11 389 Q11 390 9 390 L11 398 Q9 411 9 413 L11 422 L9 422 Q11 425 11 427 Q11 436 9 470 L11 470 L9 474 L9 483 Q9 485 11 485 L9 488 Q9 490 11 490 Q11 492 9 492 Q11 526 11 542 L11 574 Q11 578 9 581 Q11 584 11 586 Q9 597 9 601 Q11 601 11 603 Q7 603 7 607 Q7 628 4 660 L6 660 L4 664 L4 666 Q4 668 6 668 L4 672 L4 686 Q4 709 19 709 L20 709 L24 707 Q25 710 28 710 Z M50 664 L52 655 L52 648 Q52 642 50 642 Q56 595 56 557 L56 468 Q56 453 57 433 Q56 430 56 424 L57 414 L56 411 Q56 409 57 409 L56 396 L56 390 L57 377 L56 377 L57 374 L57 370 Q57 368 56 368 L57 364 L57 355 Q57 353 56 353 L57 350 L57 311 L56 307 Q57 307 57 305 Q94 314 94 320 Q161 358 161 461 L161 479 L163 490 Q162 493 159 525 L161 525 Q157 537 157 540 L159 540 Q155 546 155 551 L157 551 Q135 648 113 648 Q103 657 65 664 L52 662 Q52 664 50 664 Z " />
<glyph glyph-name="q" unicode="q" horiz-adv-x="357" d="M133 698 L133 696 L137 698 L154 698 Q155 698 155 696 L159 698 Q179 695 189 681 Q213 679 235 656 Q266 596 266 545 Q266 524 268 508 L266 508 Q268 504 268 502 Q268 496 270 467 L268 463 Q270 460 270 456 L270 448 Q270 447 268 447 L270 443 L270 422 Q270 418 272 415 Q272 413 270 413 L272 404 L272 402 Q272 400 270 400 Q270 398 272 398 Q272 394 270 391 Q272 367 272 352 L272 345 Q272 330 270 306 Q272 302 272 300 L270 300 L272 297 L272 287 Q272 286 270 286 L272 282 Q270 249 270 241 L272 237 Q270 234 270 230 Q270 226 272 223 L270 219 Q270 217 272 217 Q268 163 265 147 Q265 145 266 145 Q261 100 246 71 Q236 51 233 51 Q270 -28 290 -64 L289 -68 Q292 -68 292 -71 L292 -73 Q281 -90 279 -90 L270 -90 Q239 -90 233 -60 L194 14 Q191 12 189 12 L189 10 L192 10 L192 6 L183 8 Q171 -5 135 -5 L131 -5 Q130 -5 130 -3 Q128 -3 128 -5 Q90 -5 48 64 Q22 130 13 173 Q13 178 9 188 L11 191 Q9 200 6 200 Q7 208 9 208 Q6 215 6 219 L7 219 L6 223 Q2 292 0 299 Q0 300 2 300 Q0 319 0 328 L0 352 Q0 354 2 354 L0 358 Q0 373 4 424 L2 428 Q4 437 6 437 Q6 439 4 439 Q9 480 9 495 L11 498 Q9 498 9 500 Q14 500 22 565 Q40 637 81 678 Q111 694 133 698 Z M48 374 Q48 373 50 373 L48 363 L48 334 Q48 332 46 332 L48 328 L48 302 L46 299 Q50 299 50 293 Q50 254 54 225 Q54 223 52 223 Q68 117 102 62 Q114 42 135 34 L142 34 Q162 34 178 54 Q136 126 131 139 Q133 162 152 162 L154 165 Q177 159 181 149 Q187 144 187 143 L185 143 Q195 126 205 101 L209 101 Q224 171 224 175 L222 178 Q223 197 226 197 L224 200 L224 226 Q224 228 226 228 L224 232 L224 236 Q224 237 226 237 Q226 239 224 239 L226 249 L226 258 Q226 262 224 265 L226 269 Q224 272 224 274 L226 278 Q226 280 224 280 L226 289 Q228 334 228 339 Q226 343 226 345 Q228 348 228 350 L226 363 Q226 369 228 376 Q226 397 226 413 L226 430 Q226 432 228 432 L226 435 Q222 497 222 524 Q222 526 224 530 Q222 534 220 550 L222 550 L220 554 L220 556 Q220 558 222 558 Q218 565 218 569 L220 569 Q216 576 216 580 Q218 580 218 582 Q215 585 196 637 Q196 643 165 648 Q152 655 152 657 L152 659 Q131 653 113 639 Q80 600 70 548 Q56 489 48 374 Z " />
<glyph glyph-name="r" unicode="r" horiz-adv-x="335" d="M22 712 Q74 712 122 686 L122 685 L126 686 Q132 677 157 659 Q191 608 191 599 Q204 587 218 501 Q216 498 216 496 L220 494 Q220 492 218 492 Q220 474 220 464 L220 461 Q220 374 165 342 Q165 344 163 344 Q163 338 122 320 Q122 316 100 311 L100 313 Q94 311 94 309 Q139 253 174 191 Q212 143 268 50 Q268 45 278 28 L278 24 Q278 22 276 22 L278 19 Q273 7 248 7 L246 7 Q229 7 211 56 Q208 56 189 91 Q162 124 83 250 Q64 272 63 272 L61 268 Q63 256 63 248 Q63 246 61 242 L63 231 L63 211 Q63 207 61 204 L63 200 L61 196 Q63 193 63 189 Q63 187 61 187 L63 183 L63 178 Q63 176 61 176 Q61 174 63 174 L61 165 Q59 103 59 74 L61 65 Q61 63 59 63 L65 20 Q62 10 56 6 L46 6 Q46 0 43 0 Q43 5 35 6 L31 4 Q17 4 15 31 L17 35 Q15 39 15 41 Q15 43 17 43 L13 63 Q13 65 15 65 L13 87 L13 115 Q13 117 15 117 L13 120 L13 122 Q13 124 15 124 L13 128 L13 133 Q13 135 15 135 Q15 137 13 137 L15 150 L15 176 L17 187 Q15 190 15 196 Q15 204 17 204 L15 216 L15 261 Q15 271 17 287 Q15 290 15 292 L17 296 L15 300 L17 303 Q15 307 15 309 L17 309 L15 313 L15 363 Q15 364 17 364 L15 368 L17 372 Q15 375 15 377 L17 377 L15 381 L15 383 Q15 385 17 385 L15 389 L15 438 Q15 443 13 446 L15 450 Q13 473 11 475 Q13 479 13 483 L11 492 L13 492 L9 509 L11 512 Q9 540 7 542 L9 546 Q9 548 7 548 Q7 550 9 553 Q7 581 6 583 L7 586 Q5 617 4 620 Q6 623 6 625 L2 644 L4 644 Q2 647 2 649 L4 653 Q2 656 0 670 L2 670 L0 673 L0 694 Q5 707 20 712 L22 712 Z M54 666 Q54 662 52 662 L54 659 L54 653 Q54 651 52 651 L54 648 L54 646 Q54 644 52 644 L54 640 L54 622 Q54 617 56 614 Q54 611 54 607 L56 596 Q56 594 54 594 L56 585 L56 564 L57 555 L56 555 L57 551 Q57 549 56 549 L57 546 Q57 544 56 544 L57 535 Q57 498 61 440 Q61 438 59 438 L61 429 L61 407 Q61 397 63 381 Q61 378 61 372 L63 368 L61 364 Q61 362 63 359 L61 348 L61 344 Q83 344 128 372 Q155 385 170 422 Q168 422 168 424 Q174 424 174 457 L174 470 Q174 483 170 490 L172 494 Q155 588 142 588 Q127 635 85 657 L54 666 Z " />
<glyph glyph-name="s" unicode="s" horiz-adv-x="344" d="M161 711 Q163 711 167 709 Q170 711 174 711 Q201 707 231 679 Q246 663 272 587 Q272 559 241 557 L220 572 Q215 596 196 640 Q184 670 152 670 Q102 670 85 616 Q77 585 74 585 Q74 583 76 583 L74 570 L74 566 L87 526 Q106 488 130 457 Q228 365 228 357 Q266 312 279 228 Q279 221 283 211 Q281 152 281 134 Q278 113 276 113 L278 110 Q274 71 229 15 Q179 -20 137 -20 L137 -18 L133 -20 L120 -20 Q86 -14 65 0 Q2 65 2 110 L2 113 Q2 115 4 115 L0 128 Q2 128 11 158 Q23 171 37 171 Q54 171 54 143 L52 143 Q54 139 54 137 L52 130 Q54 126 54 124 L52 121 Q57 80 102 36 Q112 23 142 23 L144 23 Q146 23 146 21 Q175 21 207 56 Q229 102 229 139 L233 143 L231 147 Q231 148 233 152 L231 163 Q231 167 233 171 L231 174 Q233 182 233 187 L231 191 Q233 194 233 196 Q229 227 226 230 Q226 232 228 232 Q222 259 215 274 Q216 278 216 280 L192 320 Q192 329 91 435 Q42 483 39 517 Q34 517 26 563 L28 563 L26 566 Q26 570 30 578 Q26 578 26 581 L26 589 Q26 591 28 591 L26 594 Q26 597 31 600 L30 603 Q35 628 39 628 Q39 626 41 626 Q41 630 46 639 Q43 639 43 642 L43 644 Q45 644 61 672 Q98 711 161 711 Z " />
<glyph glyph-name="t" unicode="t" horiz-adv-x="414" d="M279 702 Q284 702 303 699 Q307 700 311 700 L327 682 L327 671 Q322 654 298 654 Q294 656 274 658 Q256 654 218 650 L215 652 Q211 650 209 650 L209 652 L205 650 L204 650 L192 652 Q185 650 185 647 Q188 633 191 608 L189 604 Q191 591 191 582 L189 578 L192 569 Q192 567 191 567 L192 558 L192 549 Q192 547 191 547 Q194 536 194 523 L192 523 Q196 515 196 493 Q196 489 194 486 Q196 483 198 460 Q198 458 196 458 L198 445 L198 428 Q198 427 196 427 L198 423 L198 417 L196 406 L198 403 Q196 393 196 386 L196 379 Q196 374 198 371 Q196 368 196 364 L196 362 L198 353 L196 353 L198 349 L198 343 Q198 337 196 334 L198 323 L198 314 Q198 312 196 312 Q196 310 198 310 L194 266 L196 262 Q195 258 192 242 L194 225 Q194 224 192 201 L194 192 L192 182 L194 179 Q192 175 192 173 Q194 170 194 168 L192 168 L194 164 L194 145 Q194 144 192 144 L194 140 L192 136 Q194 133 194 129 L192 129 Q192 127 194 127 L192 118 Q194 95 194 94 L192 90 L196 64 Q194 61 194 57 Q196 53 196 51 L194 51 L196 47 L196 33 Q196 31 194 31 L196 27 L196 21 Q196 20 194 20 L196 16 L196 9 Q188 -7 178 -10 L174 -8 Q170 -10 168 -10 Q168 -6 154 -4 Q154 -1 148 5 Q150 5 150 7 Q146 7 146 10 L146 27 Q146 31 144 34 Q146 38 146 40 Q146 42 144 46 L146 55 Q144 78 142 81 Q144 91 144 97 L144 114 Q144 116 146 116 L144 120 L144 142 Q144 144 146 144 L144 147 L144 162 Q144 166 142 169 Q144 173 144 177 Q144 185 142 197 Q144 207 144 214 Q142 217 142 219 L144 223 Q144 225 142 229 Q144 239 144 243 Q144 249 142 256 Q144 269 144 280 L144 292 Q145 295 148 295 Q146 299 146 301 Q146 316 148 340 Q146 350 146 356 L148 360 Q147 364 144 380 Q146 388 146 395 Q146 397 144 401 Q146 415 148 419 Q146 432 144 432 L146 441 L146 458 Q146 462 144 465 L146 469 Q144 473 144 475 L146 482 Q144 488 142 488 L144 497 Q144 519 141 539 L142 543 L139 567 L141 567 L133 619 L135 623 Q132 640 128 645 Q130 648 130 650 L126 652 L120 652 Q114 652 111 650 Q104 652 98 652 L89 650 L89 652 L85 650 L65 650 Q61 650 57 649 Q41 651 33 654 L30 652 Q19 652 0 673 L0 680 Q8 700 31 700 L37 700 L39 697 L43 699 Q56 695 59 695 Q60 699 63 699 L68 695 L78 695 Q82 695 85 697 Q87 697 87 695 L96 697 Q100 697 100 695 L109 697 L113 697 Q121 697 133 695 L137 697 Q140 695 142 695 Q144 695 144 697 L154 695 Q159 695 167 699 Q173 695 181 695 L191 695 L279 702 Z " />
<glyph glyph-name="u" unicode="u" horiz-adv-x="341" d="M20 708 Q54 708 54 680 L54 673 L52 669 Q55 665 57 641 Q54 641 54 638 Q56 634 56 632 L54 628 Q56 625 56 623 L54 623 L56 619 Q54 606 52 606 Q56 595 56 591 L54 588 L59 573 L57 569 L59 565 L57 562 Q61 542 61 541 Q61 539 59 539 Q61 522 63 517 L61 506 L61 499 L63 488 L61 484 L63 480 L61 467 Q61 465 63 465 L59 432 Q61 416 61 404 L61 380 Q61 374 63 364 Q61 360 61 356 L63 334 L61 330 Q63 327 65 312 Q65 310 63 306 L67 284 L65 280 Q68 273 68 260 L68 258 Q68 256 67 256 L68 253 Q68 251 67 251 L68 242 L68 236 Q68 232 67 229 Q70 222 72 201 L70 201 L72 197 Q72 195 70 195 L72 192 L70 179 L74 160 L72 157 L76 142 L74 142 Q78 134 78 131 L76 131 Q77 125 83 105 Q81 101 81 97 Q84 97 93 70 Q98 54 130 34 L148 34 Q186 34 205 131 L204 134 Q207 141 207 149 L207 157 Q207 161 205 164 Q207 167 207 171 L207 173 Q207 181 205 188 Q205 190 207 194 Q205 209 205 219 L205 231 Q205 237 207 247 Q205 250 205 255 L207 258 Q205 261 205 266 L207 269 Q205 273 205 275 Q205 277 207 277 L205 286 L207 297 Q205 304 205 312 L205 316 Q205 317 207 317 L205 321 L205 327 Q205 329 207 329 L205 332 L205 356 Q205 364 207 377 L205 380 Q207 384 207 386 Q207 388 205 388 L207 397 L207 412 L209 416 Q205 416 205 419 Q205 421 207 421 L205 430 L205 458 Q205 460 207 460 L205 464 L205 482 Q205 484 207 484 Q205 488 205 490 Q205 496 207 499 Q205 509 205 515 L205 517 Q205 521 207 525 L205 528 Q207 549 207 564 Q207 565 205 569 Q207 572 207 576 Q207 579 205 599 Q207 602 207 604 Q204 610 204 615 L204 639 Q204 647 205 660 Q204 663 204 669 Q217 689 231 689 Q257 681 257 660 Q253 655 253 652 Q253 646 255 643 L253 630 Q253 625 255 615 Q253 603 253 595 Q253 594 255 584 Q253 580 253 578 Q253 574 255 571 L252 523 Q253 516 253 506 L252 506 Q253 503 253 501 Q253 494 252 462 L253 458 Q252 451 252 445 L253 434 Q253 433 252 427 Q253 411 253 401 L252 401 L253 397 L253 377 Q253 375 252 375 Q252 373 253 373 Q253 372 252 366 Q252 364 253 360 Q252 342 250 342 L253 330 L252 327 L253 317 L252 317 L253 314 L253 286 Q253 279 252 269 Q253 266 253 262 Q252 243 252 240 L253 231 Q253 229 252 225 Q255 182 255 173 L253 173 L255 169 Q255 168 253 168 L255 164 Q255 132 248 110 L250 107 L242 84 Q244 84 244 83 Q242 83 237 68 Q229 44 191 5 Q162 -4 137 -10 Q115 -5 115 -4 L111 -6 Q108 -6 105 -1 L102 -3 Q56 23 48 47 Q35 79 28 120 L30 123 Q26 136 22 171 L24 171 L22 175 L22 190 Q22 194 20 197 Q20 199 22 199 L13 317 L15 317 L13 321 Q13 323 15 327 Q13 346 11 349 Q11 351 13 351 L9 401 L11 401 L9 404 L9 416 L7 427 Q9 429 9 438 L7 441 L9 445 L7 449 Q7 450 9 460 L7 473 L9 473 Q9 475 7 475 L9 484 L9 504 Q9 506 11 506 L9 510 L9 527 Q9 550 6 560 Q6 562 7 562 L4 580 Q6 584 6 586 L0 606 L4 608 L0 628 L2 638 L0 650 L2 663 Q0 680 0 691 Q14 707 20 708 Z " />
<glyph glyph-name="v" unicode="v" horiz-adv-x="360" d="M30 695 Q51 695 65 660 L61 654 L61 652 Q68 644 68 639 Q68 638 67 638 Q67 610 98 465 L96 465 L102 440 L100 440 L122 347 L124 347 Q124 345 122 342 Q124 325 128 317 L126 314 Q130 305 141 236 Q146 222 157 182 L155 179 Q157 175 157 171 Q157 169 155 169 Q168 119 168 118 Q167 118 167 116 L170 114 L174 114 Q174 121 176 121 Q176 123 174 123 Q176 144 179 144 L178 147 L181 175 L179 179 Q183 190 183 194 Q181 197 181 199 Q183 206 185 206 Q185 208 183 208 Q186 231 189 231 Q189 232 187 232 Q191 277 192 277 Q192 279 191 279 Q198 335 200 342 L198 345 Q202 352 205 390 Q205 391 204 391 Q207 412 209 412 Q209 414 207 414 Q209 436 211 436 Q211 438 209 438 Q211 454 213 454 Q213 456 211 456 Q216 507 222 534 Q218 534 218 538 Q222 538 224 554 Q224 556 222 556 Q224 589 228 589 L226 593 Q229 597 231 613 Q231 615 229 615 Q231 634 233 634 L231 638 L231 641 Q231 643 233 643 L231 647 Q237 680 248 680 L252 680 Q284 680 289 652 Q285 652 285 649 L289 647 Q289 637 279 608 Q281 604 281 602 Q278 586 276 586 Q276 584 278 584 Q274 569 274 549 L274 543 Q274 541 272 541 L274 538 L274 536 Q270 532 265 488 Q266 484 266 482 L265 478 L266 475 L235 206 Q235 205 237 205 Q235 178 226 142 Q226 140 228 140 Q223 81 220 81 L222 77 Q218 71 218 66 L220 62 Q216 56 213 21 Q209 19 178 -10 L168 -8 Q165 -10 163 -10 Q142 -10 135 38 L137 38 Q120 91 100 186 L102 186 Q78 277 70 345 L54 425 Q50 451 43 475 L44 475 Q39 492 39 495 L43 495 Q38 500 35 521 Q31 521 31 530 L33 530 L19 595 L17 595 Q19 599 19 601 Q15 610 6 654 Q4 654 2 660 L4 669 Q0 669 0 673 L0 682 Q8 682 11 689 Q9 689 9 691 Q12 693 30 695 Z M170 112 L170 108 Q172 105 172 101 L174 101 L174 105 Q172 108 172 112 L170 112 Z " />
<glyph glyph-name="w" unicode="w" horiz-adv-x="411" d="M23 704 Q50 703 56 686 Q64 686 65 668 Q67 668 67 666 L63 664 Q66 644 66 618 L69 616 L67 612 Q68 571 72 555 L70 555 L73 540 Q73 538 71 538 Q74 489 73 445 L75 442 Q75 440 73 440 L76 412 L74 412 Q76 408 76 407 Q75 366 78 351 L76 347 Q79 344 81 305 L79 305 L81 301 L80 295 Q80 294 79 294 Q80 290 82 275 Q80 275 80 273 L84 271 Q84 269 82 269 Q83 229 88 205 L86 197 Q87 176 90 166 L88 158 Q92 141 91 123 L93 123 L129 242 L144 303 Q146 303 149 310 L153 308 L157 308 Q157 316 161 316 Q194 315 206 267 Q212 258 225 216 Q230 210 255 141 Q272 107 272 100 L276 100 Q274 110 272 110 L274 119 L276 178 Q276 180 278 180 Q274 186 274 189 L278 196 L276 200 Q281 223 281 226 Q279 233 277 233 L279 243 L279 256 Q279 257 281 257 L280 261 L280 278 Q280 280 282 280 L280 283 Q280 285 282 285 L280 298 L280 300 Q281 313 284 313 L283 317 Q283 319 285 322 Q283 335 283 342 Q283 344 285 344 L283 348 L286 365 L284 368 Q284 370 286 370 L284 383 L286 396 Q285 400 285 402 Q285 404 287 407 L284 435 L286 439 Q284 449 284 455 L284 457 Q284 459 286 459 L284 463 Q283 494 283 511 L284 518 Q284 520 286 520 L284 524 L284 537 Q284 539 286 539 L284 542 L286 546 L285 555 L286 555 L285 559 Q284 601 282 605 Q282 607 284 607 Q282 621 281 626 Q283 629 283 633 Q279 654 280 663 L281 663 Q278 669 278 672 Q278 676 282 685 Q280 685 280 687 Q290 693 290 694 L293 692 L299 696 L303 694 L306 695 Q313 695 323 682 Q321 682 321 680 Q323 680 326 675 L324 675 L326 671 L326 654 L327 643 Q327 641 325 641 L328 610 L326 610 Q330 600 329 576 L329 560 Q329 556 331 552 Q331 550 329 551 L330 538 L330 517 Q330 515 328 515 L330 512 L329 460 Q328 438 332 430 Q332 428 330 428 L332 382 Q330 379 330 377 Q332 373 332 369 L330 369 Q330 367 332 367 L330 358 L328 279 Q328 277 326 277 L328 273 L327 240 Q327 238 325 238 Q325 236 327 236 L325 218 L324 205 Q324 203 323 203 Q323 201 324 201 Q324 199 322 195 Q323 155 325 142 L323 123 Q323 79 323 62 L321 62 L323 58 Q319 52 319 44 L319 33 Q318 22 320 3 Q320 -4 303 -13 Q264 -6 264 12 Q249 27 173 225 L171 225 Q171 208 129 85 L131 81 Q111 26 111 15 Q111 4 88 -5 Q88 -2 70 3 Q54 13 54 31 Q52 31 52 37 Q52 39 54 39 L46 85 Q46 87 48 87 Q48 91 40 159 L42 159 Q41 164 39 182 L41 182 L37 191 Q37 193 39 193 Q38 222 32 267 L34 271 L29 330 L31 330 L30 334 L30 339 Q30 364 25 397 Q26 398 27 398 L24 430 L26 430 L24 434 L25 469 L24 478 L26 478 L24 482 L24 498 L23 510 Q23 511 24 511 L21 535 Q21 537 23 537 Q20 572 21 593 L17 595 L19 598 L17 608 L19 608 Q18 610 16 634 L18 634 Q14 641 15 645 L16 645 Q11 660 11 663 L13 663 Q8 681 8 686 L18 700 L23 704 Z " />
<glyph glyph-name="x" unicode="x" horiz-adv-x="373" d="M241 700 L263 687 L263 686 L259 686 L259 684 Q265 684 265 675 L265 667 Q251 637 237 584 Q234 583 224 543 Q200 469 176 386 Q183 361 205 305 Q229 216 237 216 Q237 214 235 214 Q250 152 289 57 L309 3 Q301 -5 289 -10 L289 -8 Q287 -8 287 -10 Q253 -10 248 31 Q248 37 235 68 Q235 71 218 110 Q185 204 185 208 Q175 225 168 256 Q155 285 155 297 L152 297 Q152 274 96 64 Q90 39 85 33 L87 29 Q79 4 67 -3 L50 -4 Q33 -4 24 12 L24 21 L39 60 L37 64 Q46 83 80 206 Q96 257 107 323 Q112 323 118 364 Q123 379 126 379 Q116 399 105 441 Q99 453 67 539 Q46 578 31 612 L30 612 Q30 613 31 613 Q0 676 0 682 Q4 693 7 693 Q11 691 15 691 Q15 695 19 695 Q23 695 26 693 L30 695 Q52 695 81 610 Q116 548 142 475 Q146 465 146 462 L148 462 L181 573 Q181 575 187 578 L185 582 L222 691 L231 699 L237 695 L241 700 Z " />
<glyph glyph-name="y" unicode="y" horiz-adv-x="354" d="M241 707 L263 694 L263 692 L259 692 L259 690 Q265 690 265 681 L265 673 Q250 643 228 561 Q200 481 176 385 L176 376 Q176 371 178 368 Q176 359 174 359 L176 355 L174 352 Q176 348 176 346 Q176 344 174 344 Q178 321 178 296 L176 296 L178 292 L178 285 Q178 283 176 283 L178 279 Q178 278 176 278 Q179 260 179 228 L179 220 Q176 202 176 200 L176 137 Q176 135 174 135 L178 120 L176 117 Q180 55 183 54 L181 50 L185 33 L183 33 L187 17 Q174 0 159 0 Q159 3 139 7 Q133 19 133 30 L135 30 L128 76 L128 94 Q128 99 126 102 Q128 105 128 109 L128 113 Q128 117 126 120 L128 124 Q126 130 124 130 L126 139 L126 155 Q126 183 130 183 Q130 185 128 185 Q130 192 131 231 Q130 244 130 252 L131 252 L130 255 Q130 257 131 257 L130 266 L130 285 Q130 301 126 309 Q128 313 128 315 L126 324 L128 333 Q126 343 126 344 Q126 346 128 346 L126 359 L126 389 Q118 401 102 455 Q74 531 33 614 Q33 618 30 618 Q30 620 31 620 Q0 682 0 688 Q4 699 7 699 Q11 697 15 697 Q15 701 19 701 Q23 701 26 699 L30 701 Q52 701 81 616 Q116 555 142 481 Q146 472 146 468 L148 468 L181 579 Q181 582 187 585 L185 588 L222 697 L231 705 L237 701 L241 707 Z " />
<glyph glyph-name="z" unicode="z" horiz-adv-x="370" d="M72 706 L83 702 Q86 704 91 704 L93 704 Q94 704 94 702 Q96 702 96 704 Q120 700 155 700 L165 702 L168 700 Q170 700 170 702 Q172 702 176 700 L211 704 Q214 702 222 702 Q224 702 228 704 L239 702 L257 702 Q265 702 272 680 Q272 660 244 575 Q237 562 231 538 Q227 533 204 456 Q197 449 189 406 Q177 376 174 375 L176 371 Q131 240 105 147 L105 144 Q101 144 98 125 Q100 125 100 123 Q97 123 94 114 L96 110 Q91 101 85 84 L85 81 L87 77 Q82 77 78 57 Q80 57 80 55 Q76 54 76 51 L76 49 L78 46 L81 47 L107 47 Q111 47 115 46 Q117 46 117 47 L126 46 L128 46 L146 47 L146 46 L150 47 Q152 47 152 46 L155 47 L159 47 Q161 47 161 46 L165 47 L168 47 Q174 47 174 46 L183 47 L200 47 Q202 47 202 46 L205 47 L207 47 Q209 47 209 46 L213 47 Q215 47 215 46 L218 47 Q220 47 220 46 L224 47 L229 47 Q231 47 231 46 L235 47 L242 46 L253 47 L257 46 L261 47 Q283 44 283 21 L281 18 L283 14 Q283 5 268 -3 L268 -4 Q252 -3 248 -1 L244 -3 Q241 -1 239 -1 Q232 -3 231 -3 Q229 -3 229 -1 L200 -4 L196 -3 L142 -6 L142 -4 L139 -6 L113 -6 Q109 -6 105 -8 Q102 -6 98 -6 Q92 -8 91 -8 L91 -6 L87 -8 L72 -8 L59 -10 L59 -8 L56 -10 Q51 -10 48 -8 L44 -10 Q7 -10 0 10 L0 21 Q0 36 13 51 L43 114 Q43 120 81 242 Q150 440 150 456 Q155 461 168 508 Q167 508 167 510 Q172 510 196 589 Q215 641 215 652 L209 652 L200 650 L200 652 L185 649 L181 650 Q178 649 176 649 L172 650 L168 649 Q158 650 154 650 Q134 647 128 647 L113 647 Q111 647 111 649 Q109 649 109 647 L100 649 Q93 649 83 647 Q54 652 54 676 Q52 676 52 678 Q55 696 67 704 Q69 704 72 706 Z " />
<glyph glyph-name="braceleft" unicode="&#x7b;" horiz-adv-x="266" d="M240 696 Q240 677 195 677 Q195 678 193 678 Q179 672 170 664 Q155 652 145 595 L146 595 Q145 574 143 572 L145 572 Q145 568 143 564 Q143 562 145 559 Q143 526 143 503 L143 501 L141 492 Q143 492 143 491 Q139 448 132 418 Q112 372 80 355 Q91 340 105 299 L103 295 Q106 295 108 277 Q106 277 106 275 Q108 275 110 259 Q108 256 108 254 L110 250 L108 247 Q110 247 110 245 Q110 233 108 218 Q108 216 110 212 L108 202 L108 182 L110 169 Q108 169 108 167 Q108 165 110 162 Q110 160 108 156 Q122 46 132 46 Q132 28 190 19 Q190 21 191 21 Q191 17 197 17 Q205 3 208 3 Q208 1 206 1 Q206 -2 209 -8 Q192 -24 181 -24 Q148 -20 148 -17 Q111 -17 98 4 Q76 27 63 99 Q65 99 65 100 Q63 100 63 102 L63 104 Q63 120 60 135 L62 138 Q58 154 58 174 Q58 176 60 180 L56 182 L58 190 L58 208 L60 212 L58 212 Q58 218 60 221 L56 247 Q58 247 58 249 Q54 293 51 293 L52 297 L51 297 Q45 321 21 340 L18 339 L16 339 Q9 342 0 353 L0 357 L2 360 L0 360 Q0 370 9 378 Q63 403 63 407 Q77 407 85 461 Q83 461 83 463 Q85 466 85 471 Q85 475 83 478 L87 491 L85 491 Q85 494 88 503 Q88 505 87 509 Q88 527 88 538 L88 572 Q88 613 105 651 Q120 697 166 720 L175 720 Q188 720 215 722 L240 696 Z " />
<glyph glyph-name="bar" unicode="&#x7c;" horiz-adv-x="100" d="M25 792 L36 792 Q44 792 50 739 L50 722 L53 714 L53 712 Q53 707 51 702 L53 697 Q53 695 51 695 L57 588 L55 583 L56 568 L56 563 Q56 561 54 561 L56 556 L55 531 Q55 528 53 529 L55 523 L54 516 Q54 514 53 514 L54 509 L53 484 Q51 417 54 323 L52 323 L54 318 L54 313 Q53 311 52 311 L53 305 L53 283 L54 266 L52 266 L54 261 Q54 258 52 258 L53 253 Q53 251 52 251 L53 246 L49 102 L50 72 L48 72 L49 67 L48 35 Q48 26 50 13 L48 8 Q50 -87 54 -139 Q52 -144 52 -146 L54 -151 Q49 -168 40 -175 L26 -175 Q24 -175 24 -172 L21 -175 Q13 -174 5 -152 L5 -135 Q5 -129 4 -125 L6 -120 L2 -45 Q3 -43 4 -43 Q2 -16 3 32 Q5 32 5 34 Q1 34 1 39 L3 44 Q2 49 2 51 L4 56 Q2 61 2 64 L4 69 Q2 73 3 79 L5 79 L3 83 L4 131 Q5 141 3 151 Q5 160 6 170 L6 185 Q6 191 5 195 L7 200 Q7 203 5 203 L7 215 L6 228 L7 228 L6 232 Q6 235 8 235 L6 240 L6 255 Q6 257 8 257 Q7 262 7 265 Q6 358 7 376 L5 389 L7 394 Q6 424 5 428 Q5 431 6 431 Q6 464 6 480 L8 550 L7 565 Q9 569 9 577 L8 589 L10 589 L8 594 Q8 597 10 597 L8 602 L8 609 Q9 641 4 659 Q6 664 7 669 L5 679 L7 679 Q4 688 4 706 L4 713 Q5 719 6 724 Q5 729 4 761 L6 766 L5 781 L25 792 Z " />
<glyph glyph-name="braceright" unicode="&#x7d;" horiz-adv-x="290" d="M25 722 Q52 720 65 720 L74 720 Q121 697 136 651 Q152 613 152 572 L152 538 Q152 527 154 509 Q152 505 152 503 Q155 494 155 491 L154 491 L157 478 Q155 475 155 471 Q155 466 157 463 Q157 461 155 461 Q164 407 177 407 Q177 403 231 378 Q240 370 240 360 L238 360 L240 357 L240 353 Q231 342 224 339 L222 339 L219 340 Q195 321 190 297 L188 297 L190 293 Q186 293 183 249 Q183 247 184 247 L181 221 Q183 218 183 212 L181 212 L183 208 L183 190 L184 182 L181 180 Q183 176 183 174 Q183 154 179 138 L181 135 Q177 120 177 104 L177 102 Q177 100 175 100 Q175 99 177 99 Q164 27 143 4 Q129 -17 92 -17 Q92 -20 60 -24 Q48 -24 31 -8 Q34 -2 34 1 Q33 1 33 3 Q35 3 43 17 Q49 17 49 21 Q51 21 51 19 Q108 28 108 46 Q118 46 132 156 Q130 160 130 162 Q132 165 132 167 Q132 169 130 169 L132 182 L132 202 L130 212 Q132 216 132 218 Q130 233 130 245 Q130 247 132 247 L130 250 L132 254 Q132 256 130 259 Q132 275 134 275 Q134 277 132 277 Q134 295 137 295 L136 299 Q149 340 161 355 Q128 372 108 418 Q101 448 98 491 Q98 492 100 492 L98 501 L98 503 Q98 526 96 559 Q98 562 98 564 Q96 568 96 572 L98 572 Q96 574 94 595 L96 595 Q85 652 70 664 Q61 672 47 678 Q45 678 45 677 Q0 677 0 696 L25 722 Z " />
<glyph glyph-name="asciitilde" unicode="&#x7e;" horiz-adv-x="360" d="M59 393 L63 392 L67 393 Q124 393 154 349 Q176 316 196 314 L204 314 Q222 336 222 349 Q228 370 233 380 Q240 380 244 384 L248 384 L252 382 Q252 386 255 386 L259 386 Q274 373 274 353 L272 349 Q274 346 274 342 L274 338 Q274 334 272 330 L274 327 Q269 304 263 299 Q232 262 200 262 Q198 262 189 264 Q185 262 181 262 L181 264 L178 262 Q149 270 128 299 Q116 310 113 319 Q109 319 96 338 L80 343 Q76 342 74 342 L74 343 Q48 329 48 305 Q37 279 22 279 Q19 277 15 277 Q2 291 0 305 L0 312 Q0 337 20 366 Q37 388 59 393 Z " />
<glyph glyph-name="exclamdown" unicode="&#xa1;" horiz-adv-x="135" d="M27 675 Q31 674 33 674 L36 675 Q54 667 60 648 L60 645 L58 645 L62 636 Q57 620 47 614 L42 614 Q11 614 0 632 L0 634 Q0 636 2 636 L0 639 L0 641 Q0 662 27 675 Z M43 587 L63 571 L62 567 L65 562 L63 558 L65 555 Q60 526 60 520 L62 513 Q60 510 60 506 Q60 504 62 504 L60 495 Q60 447 76 318 L74 314 L78 291 Q78 289 76 289 L82 248 L80 248 L82 244 L82 187 Q82 186 80 186 L82 182 Q80 148 80 135 Q80 133 82 130 Q80 127 80 123 L80 104 L82 94 L80 90 L82 86 Q82 83 80 79 Q83 45 85 5 Q77 -15 60 -15 Q60 -11 56 -11 L51 -15 L47 -15 Q33 -13 33 1 L33 16 Q33 26 31 45 Q31 47 33 47 L31 56 L31 70 Q31 80 29 96 Q29 97 31 97 L29 106 L29 117 Q29 121 31 125 Q29 145 27 145 L29 153 L29 204 Q29 208 27 211 Q27 213 29 213 L23 272 L25 272 Q23 276 21 292 L23 296 L20 320 L21 320 L15 367 L16 367 L15 370 L15 383 L5 460 L7 460 Q6 465 3 482 L5 482 L3 486 L3 489 Q3 491 5 491 L3 495 L3 499 Q3 500 5 500 Q5 502 3 502 L5 511 L5 529 L7 533 L3 535 Q7 539 9 571 Q20 587 43 587 Z " />
<glyph glyph-name="cent" unicode="&#xa2;" horiz-adv-x="319" d="M148 783 Q179 783 189 753 L189 751 Q187 740 185 740 Q185 738 187 738 Q183 710 181 710 Q181 704 205 696 Q216 680 216 673 L215 673 L216 670 Q216 665 200 659 L200 660 L196 659 Q185 660 179 664 L176 664 L176 655 Q176 653 174 653 Q174 651 176 651 L170 612 L172 609 Q170 603 168 603 L170 594 L168 586 Q170 583 170 581 Q167 577 165 546 L167 542 L150 398 Q150 396 152 396 Q146 354 144 350 L146 346 Q142 339 142 333 Q144 329 144 327 Q141 327 141 324 L141 303 Q141 302 139 302 Q141 298 141 296 Q141 290 137 281 Q139 278 139 274 L135 272 Q135 270 137 266 Q135 244 131 244 L133 240 Q124 170 120 157 Q122 154 122 152 Q122 128 118 128 L120 124 Q117 118 117 113 L118 109 Q117 100 115 100 Q117 96 117 94 Q115 89 113 89 L115 85 Q113 78 111 78 L113 74 L113 65 Q113 63 111 63 Q111 61 113 61 L111 52 L111 48 Q120 35 130 35 Q177 35 218 78 Q220 78 229 80 Q253 76 253 57 Q255 57 255 55 L255 50 Q233 29 211 15 Q211 7 152 -4 Q131 -4 131 -6 Q122 -4 122 -2 L118 -4 L107 -2 Q107 -4 105 -4 L107 -7 L107 -9 Q107 -15 105 -15 L107 -24 L107 -30 Q107 -43 89 -50 Q89 -47 83 -44 Q83 -48 80 -48 L78 -48 Q74 -48 74 -44 L70 -46 Q59 -41 59 -39 L61 -35 Q56 -35 56 -31 Q56 -30 57 -30 Q54 -24 54 -20 L56 -20 Q56 -19 54 -19 Q55 -4 57 -4 L54 6 Q56 11 57 11 Q57 13 56 13 Q58 35 59 39 Q33 84 20 144 L20 146 Q20 148 22 148 L15 179 L17 179 L15 183 L15 187 Q15 189 17 189 Q15 191 13 209 L15 209 Q13 214 11 231 L13 231 Q6 265 6 272 L7 272 L4 281 Q4 283 6 283 Q2 302 2 309 L4 309 Q4 311 2 311 L4 320 L4 324 L2 333 L4 333 L2 337 L2 355 Q2 357 4 357 L2 361 Q2 363 4 363 L0 381 Q2 398 4 398 L2 401 L2 437 Q2 438 4 438 Q2 442 2 444 L4 448 Q2 451 2 455 Q2 457 4 457 L2 461 Q2 600 46 659 Q46 668 80 692 Q93 705 128 714 Q128 720 130 720 L128 723 Q130 727 130 729 Q126 729 126 733 Q130 736 133 764 Q131 767 131 771 L148 783 Z M54 555 L56 551 Q52 536 50 507 Q50 505 52 501 L48 444 L50 440 L48 437 Q48 430 50 427 Q48 403 48 388 L48 351 Q48 347 50 344 Q48 341 48 337 L48 329 Q48 315 50 290 L48 287 L56 246 L54 246 Q57 236 61 207 L59 203 Q63 196 63 192 L61 192 Q66 159 68 152 L67 148 Q68 144 68 142 L70 142 Q70 158 72 159 L70 163 Q74 172 74 176 Q74 178 72 178 Q74 192 76 196 L74 200 Q78 223 81 233 L80 237 Q83 249 85 265 Q83 268 83 270 L87 272 L85 276 L91 318 L89 322 L93 342 L91 346 L100 392 Q100 394 98 394 L102 411 Q102 413 100 413 Q102 439 105 448 Q105 450 104 450 Q110 514 113 518 L111 522 L113 525 L111 529 Q115 536 115 544 L113 555 Q114 562 117 562 Q117 564 115 564 Q120 618 122 618 Q121 625 118 625 Q122 640 122 660 L124 664 L122 664 Q83 645 63 590 Q55 555 54 555 Z " />
<glyph glyph-name="sterling" unicode="&#xa3;" horiz-adv-x="404" d="M206 714 Q258 697 272 674 Q272 668 278 653 Q268 640 258 640 L258 642 L254 640 Q235 652 219 666 Q200 670 200 672 Q159 662 145 640 Q130 606 126 603 L128 600 Q117 572 113 544 Q113 542 115 542 Q111 525 111 492 L111 480 L108 480 L108 470 Q108 463 113 455 Q111 430 110 426 Q111 416 111 409 L111 396 L110 383 L111 383 Q128 385 130 385 L130 383 L134 385 L147 385 Q151 385 154 383 Q157 385 161 385 Q165 385 165 383 L174 385 L176 385 Q206 383 206 357 Q204 349 191 341 L187 343 Q182 341 182 339 L152 343 Q145 341 111 339 Q111 341 110 341 Q110 338 104 335 Q106 332 108 319 L104 317 L106 307 Q105 289 102 289 L104 285 L104 283 Q104 282 102 282 L104 278 Q104 274 100 274 L102 270 Q102 269 100 269 L102 265 L102 254 L98 248 L98 230 Q98 199 89 187 Q82 155 78 128 L74 124 Q76 121 76 119 Q71 110 71 84 Q104 78 117 69 Q195 21 219 21 Q248 21 285 63 Q290 93 295 93 Q299 98 311 104 Q313 104 313 102 L317 104 Q341 101 341 91 Q341 87 339 84 L344 74 Q341 74 335 47 Q315 22 298 10 Q256 -18 239 -18 L239 -16 Q237 -18 217 -20 L217 -18 Q215 -18 215 -20 Q184 -20 130 10 Q126 16 111 19 Q111 22 93 30 Q88 38 67 45 L58 37 Q58 39 56 39 L41 2 Q39 2 30 -5 Q26 -3 24 -3 Q24 -7 21 -7 L10 -5 Q6 -7 4 -7 Q2 -3 2 -1 L-1 -3 L-9 0 Q-7 4 -7 6 Q-7 8 -9 8 Q-9 12 4 54 Q26 116 47 228 Q48 228 48 230 Q47 233 47 235 Q50 241 50 246 L50 252 Q50 272 54 304 Q52 307 52 311 L54 311 Q54 313 52 313 L54 322 L54 332 Q50 332 47 330 L43 332 L36 330 L32 332 Q29 330 24 330 L23 330 Q21 330 21 332 L17 330 Q8 330 -20 348 Q-14 374 -1 374 Q0 376 13 376 L19 376 Q21 376 21 374 Q23 374 23 376 L32 374 L34 374 Q36 374 54 378 L58 378 L58 380 Q58 386 56 396 L58 400 L56 407 Q57 426 60 426 Q60 428 58 428 Q58 431 60 431 Q58 468 58 487 Q58 558 65 568 Q65 570 63 570 Q65 586 69 596 Q67 596 67 598 Q70 600 87 648 Q106 679 134 692 Q145 706 191 713 Q199 713 206 714 Z " />
<glyph glyph-name="currency" unicode="&#xa4;" horiz-adv-x="349" d="M15 481 Q24 479 29 476 L33 478 Q64 442 70 427 L72 427 Q72 432 128 447 L128 445 L132 447 Q148 447 172 434 L175 434 Q175 442 217 476 Q220 478 226 478 Q248 468 248 459 L248 456 Q248 437 208 398 L206 398 L206 396 Q220 373 220 364 L220 358 Q220 356 219 356 Q219 354 220 354 L219 346 Q219 339 220 336 Q219 321 211 306 L248 257 L250 248 Q246 235 237 223 L237 221 L231 221 Q212 221 197 251 L186 262 Q157 235 126 235 L126 237 L123 235 Q109 235 74 250 Q42 210 31 210 Q18 210 7 235 L7 243 L11 248 L7 248 L7 251 Q47 289 47 293 Q40 306 31 349 Q37 376 45 394 Q39 394 13 430 Q10 430 5 437 L5 439 L7 443 Q0 443 0 448 Q0 450 2 450 L0 459 Q0 479 9 479 Q11 479 15 481 Z M72 344 Q89 286 110 286 Q149 286 173 331 Q179 351 179 354 Q177 358 177 360 Q179 360 179 362 Q173 362 173 365 L173 369 L175 373 Q172 373 161 389 Q141 396 128 396 Q78 383 78 358 Q74 358 72 344 Z " />
<glyph glyph-name="yen" unicode="&#xa5;" horiz-adv-x="357" d="M241 707 L263 694 L263 692 L259 692 L259 690 Q265 690 265 681 L265 673 Q250 642 239 596 Q233 586 200 472 Q194 469 194 444 Q198 446 200 446 L200 444 L204 446 L205 446 L216 444 Q226 448 231 448 Q248 447 248 444 Q253 446 253 448 L266 446 L281 446 Q283 446 296 431 L296 422 L294 418 Q298 418 298 414 Q296 407 294 407 L296 403 Q296 401 281 394 Q271 396 266 396 Q252 396 235 392 Q225 394 216 394 Q212 394 209 392 Q206 394 202 394 L194 394 L183 392 Q180 394 178 394 L176 390 L176 376 Q176 371 178 368 Q176 359 174 359 L176 355 L174 352 Q176 346 178 346 L191 348 L194 346 Q198 348 200 348 L200 346 L204 348 L205 348 L216 346 Q226 350 231 350 Q248 348 248 346 Q253 348 253 350 L266 348 L281 348 L296 333 L296 324 L294 320 Q298 319 298 316 Q296 309 294 309 L296 305 Q296 303 281 296 Q271 298 266 298 Q252 298 235 294 Q225 296 216 296 Q212 296 209 294 Q206 296 202 296 L194 296 L183 294 Q180 296 178 296 L178 285 Q178 283 176 283 L178 279 Q178 278 176 278 Q179 260 179 228 L179 220 Q176 202 176 200 L176 137 Q176 135 174 135 L178 120 L176 117 Q180 55 183 54 L181 50 L185 33 L183 33 L187 17 Q174 0 159 0 Q159 3 139 7 Q133 19 133 30 L135 30 L128 76 L128 94 Q128 99 126 102 Q128 105 128 109 L128 113 Q128 117 126 120 L128 124 Q126 130 124 130 L126 139 L126 155 Q126 183 130 183 Q130 185 128 185 Q130 192 131 231 Q130 244 130 252 L131 252 L130 255 Q130 257 131 257 L130 266 L130 294 L128 294 L124 292 Q120 294 118 294 L111 292 L107 294 Q91 292 87 290 L76 292 Q71 292 46 287 Q31 291 31 292 L28 290 Q9 306 9 316 Q13 316 13 320 Q11 323 11 327 Q17 330 22 344 L39 350 Q49 348 56 348 L76 348 Q78 348 78 346 L81 348 L83 348 Q85 348 85 346 Q87 346 87 348 Q104 346 104 344 Q107 346 109 346 L113 344 Q116 346 120 346 Q124 344 126 344 Q126 346 128 346 L126 359 L126 390 L118 392 L111 390 L107 392 Q91 390 87 389 L76 390 Q71 390 46 385 Q31 389 31 390 L28 389 Q9 404 9 414 Q13 414 13 418 Q11 421 11 426 Q17 428 22 442 L39 448 Q49 446 56 446 L76 446 Q78 446 78 444 L81 446 L83 446 Q85 446 85 444 Q87 444 87 446 Q101 444 105 442 L105 446 Q74 530 41 599 Q32 618 30 618 Q30 620 31 620 Q0 682 0 688 Q4 699 7 699 Q11 697 15 697 Q15 701 19 701 Q23 701 26 699 L30 701 Q52 701 81 616 Q116 555 142 481 Q146 472 146 468 L148 468 L181 579 Q181 582 187 585 L185 588 L222 697 L231 705 L237 701 L241 707 Z " />
<glyph glyph-name="brokenbar" unicode="&#xa6;" horiz-adv-x="121" d="M47 465 L47 459 Q47 452 25 447 L25 445 Q6 445 2 461 Q2 463 0 463 L2 476 L2 512 Q2 514 3 514 L2 517 L2 530 Q2 534 3 537 Q2 540 2 544 Q2 546 3 550 Q3 551 2 551 L3 561 L2 569 Q3 573 3 575 L2 582 Q2 586 3 586 L2 607 L2 615 Q2 631 3 662 Q2 665 2 669 Q3 672 3 674 L2 678 Q2 680 3 680 L0 714 Q5 747 18 747 Q26 747 38 727 Q43 727 43 723 L42 720 Q42 718 43 718 Q43 716 42 712 Q45 667 45 631 Q45 629 43 620 Q45 617 45 615 Q45 613 43 613 L45 604 L45 566 Q45 564 43 564 L45 561 L45 544 L43 533 Q45 530 45 524 L45 522 Q45 519 43 515 L45 512 L43 508 Q43 506 45 506 L43 499 Q45 483 45 479 L43 479 Q47 473 47 465 Z M47 -21 L47 -26 Q47 -34 25 -39 L25 -41 Q6 -41 2 -25 Q2 -23 0 -23 L2 -10 L2 26 Q2 28 3 28 L2 31 L2 44 Q2 48 3 51 Q2 54 2 59 Q2 61 3 64 Q3 65 2 65 L3 75 L2 83 Q3 87 3 89 L2 96 Q2 100 3 100 L2 122 L2 129 Q2 146 3 176 Q2 179 2 183 Q3 187 3 188 L2 192 Q2 194 3 194 L0 228 Q5 261 18 261 Q26 261 38 241 Q43 241 43 237 L42 234 Q42 232 43 232 Q43 230 42 227 Q45 181 45 145 Q45 144 43 134 Q45 131 45 129 Q45 127 43 127 L45 118 L45 80 Q45 78 43 78 L45 75 L45 59 L43 47 Q45 44 45 39 L45 37 Q45 33 43 29 L45 26 L43 22 Q43 21 45 21 L43 13 Q45 -3 45 -7 L43 -7 Q47 -13 47 -21 Z " />
<glyph glyph-name="section" unicode="&#xa7;" horiz-adv-x="326" d="M67 207 Q83 203 133 197 Q174 199 199 222 Q228 246 227 282 Q226 299 222 314 Q213 332 203 336 Q188 353 163 360 Q158 360 137 360 Q96 358 49 312 Q39 292 37 273 Q40 257 43 249 L42 249 Q49 231 67 207 Z M171 395 Q162 402 148 410 Q144 415 97 438 Q38 482 22 513 Q1 535 -9 579 Q-8 579 -8 581 Q-11 581 -11 583 L-12 594 Q-12 597 -13 600 Q-13 604 -9 604 L-12 607 Q-14 643 20 671 Q24 683 83 711 Q115 719 123 719 L123 718 L125 719 Q167 717 182 709 Q221 689 241 650 Q243 637 246 626 Q245 624 245 621 Q246 621 247 619 Q238 606 231 606 Q213 605 212 625 Q202 652 188 657 Q173 674 148 681 Q144 681 122 681 Q82 679 34 632 Q24 613 22 594 Q25 578 29 570 L27 570 Q37 544 71 506 Q96 481 125 465 Q139 457 161 445 L205 414 Q236 382 250 349 Q261 311 262 294 L263 286 Q263 283 264 280 Q259 235 242 217 Q212 180 166 167 Q163 167 148 165 L148 166 L146 164 L136 164 Q120 164 108 165 Q124 153 140 145 Q154 136 176 125 L219 93 Q250 61 265 27 Q276 -11 277 -27 L277 -36 Q277 -39 279 -41 Q273 -86 256 -104 Q227 -141 181 -153 Q177 -153 163 -157 L163 -155 L160 -157 L151 -157 Q106 -156 98 -152 L95 -153 Q83 -150 61 -143 Q61 -144 60 -144 Q37 -130 36 -127 Q6 -100 0 -78 Q-2 -78 -15 -43 L-15 -37 L-17 -23 Q-9 -12 -3 -12 Q20 -15 21 -33 L20 -33 Q46 -99 80 -113 Q94 -118 148 -124 Q188 -122 213 -99 Q243 -75 241 -39 Q238 21 203 57 Q197 69 163 89 Q158 93 111 117 Q65 151 46 177 L45 177 Q45 178 45 178 Q40 186 37 192 Q16 213 5 258 Q6 258 6 260 Q4 259 3 262 L3 273 Q3 276 1 278 Q1 282 1 283 L2 286 Q1 321 35 350 Q39 362 98 390 Q129 397 138 398 L138 396 L140 398 Q158 397 171 395 Z " />
<glyph glyph-name="dieresis" unicode="&#xa8;" horiz-adv-x="300" d="M-4 643 L-2 646 Q-4 649 -4 654 Q20 683 38 683 L45 683 Q74 674 74 659 Q78 659 78 643 L76 643 L78 639 Q78 624 45 610 L38 610 Q18 610 -2 636 Q-2 640 -4 643 Z M144 652 Q144 672 174 683 L188 683 Q206 674 218 653 L216 645 L216 632 Q201 608 183 608 Q146 613 146 645 Q144 645 144 652 Z " />
<glyph glyph-name="copyright" unicode="&#xa9;" horiz-adv-x="683" d="M271 657 Q275 655 276 655 Q278 655 278 657 L287 655 L301 655 Q348 655 411 637 Q474 620 559 508 Q571 491 583.5 466.5 Q596 442 609 410 L609 407 Q609 405 607 405 Q611 397 613 387 Q611 383 611 382 Q615 381 615 378 Q615 376 613 376 L618 358 L616 347 L616 344 L618 331 L616 331 Q618 327 618 326 Q615 297 613 297 Q615 293 615 292 Q604 266 596 247.5 Q588 229 582 218 Q550 164 503 119 Q451 79 406 74 Q389 68 386 65 Q384 65 384 67 Q381 64 357 59 Q357 61 355 61 Q355 58 352 58 L348 59 Q348 55 332 54 Q332 56 330 56 Q330 52 327 52 L323 54 Q313 52 299 50.5 Q285 49 267 47 L267 49 L264 47 L233 47 Q230 47 226 45 Q192 52 170 57 Q148 62 138 67 Q97 78 57 131 Q43 147 22 194 L24 194 L12 216 L13 220 Q10 220 1 265 L3 268 Q1 272 1 275 Q3 281 3 281 L-1 283 Q0 292 3 292 L1 295 L1 297 Q1 319 4 319 L3 328 L3 349 Q6 352 8 378 Q13 401 21 427.5 Q29 454 40 486 Q56 515 70 538 Q84 561 98 578 Q151 626 184 639 Q190 646 271 657 Z M251 607 Q208 601 177 576 Q136 549 121 513 Q116 508 110 497.5 Q104 487 96 473 Q88 458 79.5 435 Q71 412 64 385 Q62 385 57 356 Q55 356 55 354 L55 342 Q55 337 54 334 Q55 332 55 327 L55 325 Q55 316 52 316 L54 313 Q54 311 52 311 Q52 309 54 309 L52 297 L52 291 Q52 280 55 264 L54 264 Q54 260 73 212 Q78 202 82 193.5 Q86 185 91 178 Q122 129 158 118 Q168 115 175.5 112 Q183 109 190 106 L194 108 L214 100 Q216 100 216 102 L225 100 L237 100 Q239 100 239 99 L250 102 L259 100 Q281 101 284 104 Q288 102 289 102 Q304 106 307 106 L316 104 Q319 106 333 110.5 Q347 115 370 117 Q375 121 386.5 124 Q398 127 415 131 Q454 147 467 155 Q474 162 482 169 Q490 176 499 184 Q533 224 552 259.5 Q571 295 571 326 Q571 328 570.5 333 Q570 338 569 347 L571 347 Q564 399 551 416 Q538 444 523 468.5 Q508 493 490 513 Q481 521 474.5 528 Q468 535 463 542 Q456 548 444.5 557.5 Q433 567 416 580 Q401 593 383 599 Q365 605 348 605 Q348 607 345 607 Q343 607 343 605 Q323 608 301 608 L301 610 Q300 610 300 608 Q300 608 294 610 Q289 609 285 608.5 Q281 608 278 608 L278 610 Q264 609 255 605 L251 607 Z M300 533 Q366 533 390 504 L390 481 Q390 478 381 472 L361 472 Q361 478 305 486 Q263 486 238 428 Q232 428 219 362 L219 324 Q219 269 267 229 Q295 214 316 214 Q347 214 377 254 Q381 257 384 257 Q417 257 417 238 L417 223 Q383 171 319 171 Q216 171 175 284 Q175 292 172 324 Q172 482 258 526 Q267 528 277.5 530 Q288 532 300 533 Z " />
<glyph glyph-name="guillemotleft" unicode="&#xab;" horiz-adv-x="445" d="M152 456 Q154 456 154 454 L163 456 L175 456 Q191 447 191 427 Q180 413 119 376 Q101 357 65 333 L65 331 Q102 315 213 273 Q224 262 224 259 L222 255 Q224 252 224 248 L224 246 Q208 229 204 228 Q193 228 125 255 Q19 293 2 311 Q0 311 0 313 L0 324 Q0 326 2 326 L0 329 L0 331 Q0 346 25 360 Q27 360 92 419 Q96 419 152 456 Z M321 470 Q323 470 323 469 L332 470 L345 470 Q361 461 361 441 Q350 427 289 391 Q270 372 234 348 L234 346 Q271 330 383 288 Q394 276 394 273 L392 270 Q394 267 394 263 L394 261 Q377 243 374 243 Q363 243 294 270 Q188 308 171 326 Q169 326 169 328 L169 338 Q169 340 171 340 L169 344 L169 346 Q169 361 195 375 Q197 375 262 434 Q265 434 321 470 Z " />
<glyph glyph-name="logicalnot" unicode="&#xac;" horiz-adv-x="461" d="M368 363 Q387 363 392 302 L390 302 Q392 298 392 296 L390 284 Q390 282 392 282 Q387 240 386 235 Q386 233 388 233 L386 220 L386 208 L388 197 Q386 193 386 191 Q388 182 388 173 Q367 155 346 155 Q334 165 334 175 L336 179 Q336 181 334 181 Q336 193 337 197 Q336 200 336 204 L336 208 Q336 209 337 209 Q337 211 336 211 L337 219 Q337 241 341 284 Q341 285 339 285 L341 296 Q341 298 339 314 L137 305 L193 305 L175 303 L175 305 L172 303 L163 303 Q161 303 161 305 L157 303 L96 303 Q94 303 94 305 Q92 305 92 303 L74 305 L45 305 Q41 305 38 303 Q35 305 31 305 Q29 305 25 303 Q2 305 2 318 Q0 318 0 320 L0 323 Q0 343 13 347 Q22 356 29 356 L31 356 Q33 356 33 354 L36 356 Q58 354 58 352 L62 354 L69 352 L72 354 L76 352 Q80 354 82 354 L88 352 Q92 354 94 354 L94 352 Q96 352 96 354 L105 352 Q106 352 106 354 L116 352 L186 352 Q198 352 142 354 L142 352 L146 354 Q147 354 157 352 L160 354 Q162 354 162 352 L180 354 L194 354 L204 356 L204 354 Q207 356 209 356 Q231 356 242 359 Q243 359 243 357 Q276 360 279 361 L283 359 Q293 361 297 361 L297 359 L301 361 Q303 361 303 359 Q307 361 309 361 Q320 361 368 363 Z " />
<glyph glyph-name="registered" unicode="&#xae;" horiz-adv-x="683" d="M274 520 Q356 520 382 473 Q390 452 390 446 L390 430 Q390 374 323 340 Q312 338 312 335 Q362 277 400 220 L400 202 Q400 182 368 182 L364 182 Q348 195 287 283 L271 299 L271 250 Q271 242 271.5 230.5 Q272 219 273 203 Q273 193 255 180 L244 180 Q221 180 220 214 L220 216 Q221 269 221.5 299.5 Q222 330 222 338 Q221 401 220.5 440.5 Q220 480 220 497 Q220 520 265 520 L274 520 Z M267 466 Q269 431 270 410.5 Q271 390 271 382 Q300 385 323 403 Q337 426 337 434 Q337 459 312 459 Q303 463 267 468 L267 466 Z M271 657 Q275 655 276 655 Q278 655 278 657 L287 655 L301 655 Q348 655 411 637 Q474 620 559 508 Q571 491 583.5 466.5 Q596 442 609 410 L609 407 Q609 405 607 405 Q611 397 613 387 Q611 383 611 382 Q615 381 615 378 Q615 376 613 376 L618 358 L616 347 L616 344 L618 331 L616 331 Q618 327 618 326 Q615 297 613 297 Q615 293 615 292 Q604 266 596 247.5 Q588 229 582 218 Q550 164 503 119 Q451 79 406 74 Q389 68 386 65 Q384 65 384 67 Q381 64 357 59 Q357 61 355 61 Q355 58 352 58 L348 59 Q348 55 332 54 Q332 56 330 56 Q330 52 327 52 L323 54 Q313 52 299 50.5 Q285 49 267 47 L267 49 L264 47 L233 47 Q230 47 226 45 Q192 52 170 57 Q148 62 138 67 Q97 78 57 131 Q43 147 22 194 L24 194 L12 216 L13 220 Q10 220 1 265 L3 268 Q1 272 1 275 Q3 281 3 281 L-1 283 Q0 292 3 292 L1 295 L1 297 Q1 319 4 319 L3 328 L3 349 Q6 352 8 378 Q13 401 21 427.5 Q29 454 40 486 Q56 515 70 538 Q84 561 98 578 Q151 626 184 639 Q190 646 271 657 Z M251 607 Q208 601 177 576 Q136 549 121 513 Q116 508 110 497.5 Q104 487 96 473 Q88 458 79.5 435 Q71 412 64 385 Q62 385 57 356 Q55 356 55 354 L55 342 Q55 337 54 334 Q55 332 55 327 L55 325 Q55 316 52 316 L54 313 Q54 311 52 311 Q52 309 54 309 L52 297 L52 291 Q52 280 55 264 L54 264 Q54 260 73 212 Q78 202 82 193.5 Q86 185 91 178 Q122 129 158 118 Q168 115 175.5 112 Q183 109 190 106 L194 108 L214 100 Q216 100 216 102 L225 100 L237 100 Q239 100 239 99 L250 102 L259 100 Q281 101 284 104 Q288 102 289 102 Q304 106 307 106 L316 104 Q319 106 333 110.5 Q347 115 370 117 Q375 121 386.5 124 Q398 127 415 131 Q454 147 467 155 Q474 162 482 169 Q490 176 499 184 Q533 224 552 259.5 Q571 295 571 326 Q571 328 570.5 333 Q570 338 569 347 L571 347 Q564 399 551 416 Q538 444 523 468.5 Q508 493 490 513 Q481 521 474.5 528 Q468 535 463 542 Q456 548 444.5 557.5 Q433 567 416 580 Q401 593 383 599 Q365 605 348 605 Q348 607 345 607 Q343 607 343 605 Q323 608 301 608 L301 610 Q300 610 300 608 Q300 608 294 610 Q289 609 285 608.5 Q281 608 278 608 L278 610 Q264 609 255 605 L251 607 Z " />
<glyph glyph-name="overscore" unicode="&#xaf;" horiz-adv-x="580" d="M199 689 Q201 689 201 687 L209 689 L211 689 L222 687 L226 689 Q228 689 231 687 Q235 687 251 689 Q276 687 282 687 L294 689 L298 687 Q302 689 304 689 Q306 689 320 686 Q323 687 327 687 L327 686 L331 687 L343 687 Q347 687 351 686 L354 687 Q367 686 367 684 L376 686 L412 686 Q414 686 414 684 L423 687 Q425 687 425 686 L434 687 L439 687 Q449 687 455 686 L497 689 Q515 686 515 671 Q516 667 519 667 Q519 656 509 651 Q509 653 508 653 L506 649 Q508 649 508 647 Q497 642 490 642 L477 644 Q474 642 472 642 Q462 644 462 646 Q456 642 448 642 L426 642 Q425 642 425 644 L421 642 L399 642 Q397 642 397 644 L379 640 Q374 642 374 644 L371 642 L358 642 Q354 642 351 640 L347 642 L343 640 Q336 642 336 644 Q334 644 334 642 L322 644 L316 644 Q312 644 309 642 Q306 644 302 644 L292 644 Q289 644 286 642 Q274 644 274 646 L271 644 Q269 644 269 646 L260 644 L229 644 Q228 644 228 646 Q224 644 222 644 Q213 644 191 642 L183 644 Q181 644 181 642 L172 644 L170 644 Q166 644 163 642 Q161 642 161 644 L150 642 L134 644 Q130 642 128 642 L128 644 Q126 642 101 640 Q95 642 94 642 L74 638 L70 640 Q57 637 45 637 L42 638 Q42 635 38 635 L34 637 Q33 637 33 635 Q12 635 0 651 Q0 668 11 671 Q11 673 27 684 Q37 682 42 682 Q45 684 47 684 L47 682 L51 684 Q56 684 56 682 Q76 684 82 686 Q83 686 83 684 L125 687 L125 686 Q128 687 130 687 Q134 687 134 686 L146 687 L188 687 L199 689 Z " />
<glyph glyph-name="degree" unicode="&#xb0;" horiz-adv-x="204" d="M87 719 Q113 719 143 679 Q143 673 145 663 Q145 624 108 596 Q101 593 96 593 L88 594 L85 593 Q83 593 83 594 L74 593 L69 593 L65 594 Q65 591 62 591 L58 591 Q0 608 0 647 L0 652 Q9 679 18 683 Q54 717 85 717 Q85 719 87 719 Z M72 672 Q72 674 70 674 Q51 652 49 652 L49 645 Q65 632 72 632 Q91 632 94 663 Q94 672 85 678 Q80 678 72 672 Z " />
<glyph glyph-name="plusminus" unicode="&#xb1;" horiz-adv-x="495" d="M250 211 L255 211 Q261 211 266 189 L268 189 Q268 170 254 166 Q252 166 252 164 L240 166 L209 166 Q207 166 207 167 L203 166 L193 166 Q189 166 185 167 Q184 166 179 166 Q177 166 175 167 Q173 167 173 166 L165 167 L157 166 Q154 167 153 167 L146 166 Q143 166 143 167 L123 166 L117 166 Q102 166 75 167 Q73 166 69 166 Q66 167 64 167 L61 166 Q59 166 59 167 L29 164 Q0 169 0 182 Q0 190 18 202 Q18 208 20 208 L24 206 Q26 206 26 208 Q28 208 30 206 Q71 209 103 209 Q104 209 112 208 Q115 209 117 209 Q119 209 119 208 L127 209 L161 209 Q162 209 162 208 L165 209 L179 209 L189 208 Q192 209 197 209 L199 209 Q202 209 205 208 L209 209 L211 208 Q213 208 213 209 L220 208 Q234 209 238 209 L238 208 Q243 211 250 211 Z M127 495 Q142 495 155 476 Q155 473 151 473 L155 465 L151 463 L153 454 L153 452 Q153 448 151 445 L153 441 Q151 428 151 421 L151 412 Q155 412 155 410 L159 412 Q161 412 161 410 L164 412 L166 412 Q168 412 168 410 L172 412 L179 410 L188 412 L198 410 Q218 412 235 412 L238 412 L247 413 Q264 405 264 402 Q272 392 273 380 Q268 363 255 363 L253 363 L249 365 L247 362 Q244 362 244 363 Q213 362 198 362 L173 362 Q169 362 166 363 L149 358 L149 356 L151 347 L149 347 Q149 345 151 345 L149 336 Q149 332 151 328 L149 325 Q151 321 151 319 L149 319 L151 315 L151 312 Q151 310 149 310 L151 306 L149 293 L151 275 Q141 258 136 258 L133 260 L124 258 Q99 267 99 278 Q99 320 98 325 L99 328 L98 332 L99 336 Q98 339 98 341 L99 341 L98 345 L98 347 L99 351 Q92 354 92 356 Q90 356 90 354 Q88 354 85 356 L68 354 Q32 354 -2 378 L0 382 L-6 389 Q-3 389 5 400 Q9 400 16 408 Q19 410 24 410 Q55 404 87 404 Q89 404 101 410 L99 419 L99 439 L98 450 Q98 483 116 487 Q124 495 127 495 Z " />
<glyph glyph-name="acute" unicode="&#xb4;" horiz-adv-x="228" d="M23 726 L36 726 Q77 684 150 625 Q157 611 157 609 Q157 590 132 585 Q132 587 130 587 Q130 583 126 583 L123 583 Q112 583 106 596 Q103 596 58 634 Q18 662 0 692 L0 694 Q0 708 21 725 Q21 726 23 726 Z " />
<glyph glyph-name="paragraph" unicode="&#xb6;" horiz-adv-x="357" d="M142 707 L268 707 Q273 707 276 686 L276 672 Q276 670 274 670 L276 666 L276 664 Q276 662 274 662 Q274 660 276 660 Q272 627 272 605 L268 603 L270 599 Q270 598 268 585 Q268 583 270 583 L268 574 L268 542 Q268 526 270 492 L268 492 L270 488 Q270 487 268 487 L270 483 L270 474 Q270 472 268 472 L270 468 Q268 442 268 424 L270 424 Q270 422 268 422 L270 413 L268 396 Q270 392 270 390 L268 390 L270 387 L270 385 L268 374 L270 370 Q268 360 268 353 L268 350 Q268 345 270 342 L268 339 L272 329 L268 327 Q270 309 270 300 L270 268 Q270 266 268 266 Q268 265 270 265 Q270 263 268 259 Q268 254 272 237 L270 237 Q270 235 272 235 Q272 231 270 231 Q273 200 274 196 Q272 193 272 189 L272 185 Q272 179 274 176 L272 165 L272 142 Q272 138 274 135 L272 131 L274 122 L272 122 L274 118 Q274 116 272 113 L276 96 L274 93 L278 61 Q278 59 276 59 Q278 39 279 35 L276 24 Q278 24 278 22 Q269 6 266 6 Q259 6 252 0 Q234 4 224 17 L226 30 L226 46 Q226 48 228 48 L224 63 Q224 65 226 65 Q224 73 220 109 Q222 115 224 115 L222 118 L222 133 Q222 135 224 135 Q224 137 222 137 L224 146 L224 183 Q224 192 226 202 Q222 239 220 242 Q222 246 222 250 L222 255 L220 266 Q222 270 222 272 L202 268 Q202 266 204 266 Q204 264 202 261 Q202 256 205 239 L204 239 Q204 237 205 237 Q205 233 204 233 Q206 202 207 198 Q205 195 205 191 L205 187 Q205 181 207 178 L205 167 L205 144 Q205 140 207 137 L205 133 L207 124 L205 124 L207 120 Q207 118 205 115 L209 98 L207 94 L211 63 Q211 61 209 61 Q211 41 213 37 L209 26 Q211 26 211 24 Q202 7 200 7 Q193 7 185 2 Q167 6 157 19 L159 31 L159 48 Q159 50 161 50 L157 65 Q157 67 159 67 Q157 75 154 111 Q155 117 157 117 L155 120 L155 135 Q155 137 157 137 Q157 139 155 139 L157 148 L157 185 Q157 194 159 204 Q155 240 154 244 Q155 247 155 252 L155 253 L154 272 L144 272 Q101 272 81 294 Q70 294 37 335 Q9 375 9 398 Q11 398 11 400 Q8 400 4 422 Q4 424 6 424 L2 450 L4 450 L0 472 L2 483 L2 498 Q2 500 4 500 L2 503 Q2 556 30 631 Q33 631 44 653 Q70 689 126 705 Q133 707 142 707 Z M56 555 Q57 551 57 549 Q56 544 54 544 Q54 542 56 542 Q54 529 52 529 Q52 527 54 527 Q51 495 50 492 L52 481 L52 463 Q52 353 131 313 Q144 311 155 311 L155 352 Q155 353 157 353 L155 357 L155 366 Q155 368 157 368 L155 372 L155 376 Q155 377 157 377 Q157 379 155 379 L157 392 L157 398 L155 409 L157 413 L155 416 L157 426 Q157 433 155 433 Q157 458 157 470 L157 559 Q157 598 163 642 Q161 645 161 649 L161 657 L163 666 L159 664 Q158 664 148 666 Q107 659 89 642 Q67 614 63 579 Q58 555 56 555 Z M209 664 Q205 628 205 607 L202 605 L204 601 Q202 588 202 586 Q202 585 204 585 L202 575 L202 544 Q202 528 204 494 L202 494 L204 490 Q204 488 202 488 L204 485 L204 475 Q204 474 202 474 L204 470 Q202 444 202 426 L204 426 Q204 424 202 424 L204 414 L202 398 Q204 394 204 392 L202 392 L204 389 L204 387 L202 376 L204 372 Q202 362 202 355 L202 352 Q202 347 204 344 L202 340 L205 331 Q202 331 202 326 Q204 312 204 311 L222 311 L222 350 Q222 352 224 352 L222 355 L222 364 Q222 366 224 366 L222 370 L222 374 Q222 376 224 376 Q224 377 222 377 L224 390 L224 396 L222 407 L224 411 L222 414 L224 424 Q224 431 222 431 Q224 456 224 468 L224 557 Q224 597 229 640 Q228 643 228 648 L228 655 L229 664 L226 662 Q216 664 209 664 Z " />
<glyph glyph-name="middot" unicode="&#xb7;" horiz-adv-x="125" d="M-4 339 L-2 343 Q-4 346 -4 350 Q20 379 38 379 L45 379 Q74 370 74 355 Q78 355 78 339 L76 339 L78 335 Q78 320 45 307 L38 307 Q18 307 -2 332 Q-2 336 -4 339 Z " />
<glyph glyph-name="cedilla" unicode="&#xb8;" horiz-adv-x="175" d="M83 18 Q67 -11 60 -23 Q75 -33 91 -55 Q91 -61 93 -71 Q93 -110 56 -138 Q49 -141 44 -141 L36 -140 L33 -141 Q31 -141 31 -140 L22 -141 L17 -141 L13 -140 Q13 -143 10 -143 L6 -143 L0 -141 L0 -99 Q13 -102 20 -102 Q39 -102 42 -71 Q42 -62 33 -56 L30 -56 L30 -55 Q6 -58 0 -42 Q-1 -40 1 -24 Q24 17 41 50 L62 59 L106 59 Q94 35 83 18 Z " />
<glyph glyph-name="onesuperior" unicode="&#xb9;" horiz-adv-x="263" d="M102 735 L105 733 L109 735 Q137 728 137 707 Q141 685 142 679 L141 676 Q142 655 142 641 L142 637 Q142 633 141 629 Q141 628 142 628 L141 618 Q141 615 144 604 L141 602 Q141 600 142 600 L141 581 L141 552 Q141 550 139 550 L141 546 L141 530 Q141 522 142 515 Q141 507 141 502 L142 489 Q141 485 141 483 Q142 476 142 470 L141 467 L142 463 Q142 461 141 461 Q142 448 144 444 Q142 441 142 437 Q142 435 144 432 L142 420 L142 417 Q142 413 144 409 Q142 406 142 402 Q142 398 144 398 L142 389 L142 348 Q142 346 141 346 L144 326 Q144 324 142 324 Q142 322 144 319 L142 466 L144 463 Q144 461 142 461 L144 452 L144 448 Q144 442 142 439 Q146 413 146 394 L144 394 L148 383 Q146 376 146 370 Q148 367 148 365 L146 365 L148 361 Q148 359 146 359 Q146 357 148 357 L146 348 L146 339 L148 326 L146 326 Q148 322 148 320 Q148 312 146 309 Q148 297 148 289 L148 276 L146 265 Q148 261 148 259 L146 259 Q150 252 150 239 Q138 213 122 213 L120 213 Q102 219 102 222 Q98 256 96 259 L100 261 L98 265 L98 280 Q98 289 100 307 L96 309 Q98 313 98 315 Q98 320 96 328 Q98 348 100 348 Q98 351 96 372 Q98 382 98 387 L96 391 Q96 392 98 392 Q96 412 94 417 L96 424 Q94 444 94 459 L96 459 L94 463 L94 348 L93 358 L94 358 Q94 359 93 359 L94 369 L94 400 L93 411 Q94 414 94 420 L93 424 Q94 428 94 430 Q91 430 91 433 Q93 439 94 439 Q91 458 89 528 Q91 539 91 554 Q89 570 89 574 L91 574 Q91 576 89 576 L91 585 L91 594 L89 594 L65 533 Q65 524 61 524 L63 520 Q48 487 24 487 Q0 490 0 517 Q3 521 35 600 L61 670 Q83 735 102 735 Z " />
<glyph glyph-name="ordmasculine" unicode="&#xba;" horiz-adv-x="228" d="M76 721 Q101 721 129 676 Q129 668 131 657 Q131 612 97 582 Q89 577 84 577 L78 579 L74 577 Q72 577 72 579 L64 577 L59 577 L55 579 Q55 575 52 575 L48 575 Q-7 595 -7 639 L-7 645 Q1 675 10 680 Q44 719 74 719 Q74 721 76 721 Z M62 667 Q62 670 60 670 Q42 645 40 645 L40 637 Q56 623 62 623 Q80 623 83 657 Q83 668 74 674 Q70 674 62 667 Z " />
<glyph glyph-name="guillemotright" unicode="&#xbb;" horiz-adv-x="459" d="M33 419 Q72 406 177 365 L191 359 Q191 361 193 361 Q193 359 231 343 Q231 338 237 334 L235 330 Q239 330 240 314 Q149 240 65 197 Q65 194 52 187 Q35 191 25 202 Q25 204 23 208 L25 211 L23 215 Q23 231 62 247 Q119 281 155 309 L166 319 Q165 319 165 321 L161 319 Q153 319 69 359 Q52 361 52 365 Q51 365 51 363 Q0 370 0 394 L0 397 Q0 399 2 399 L0 402 Q7 419 33 419 Z M209 438 Q249 426 354 384 L368 379 Q368 380 370 380 Q370 378 408 362 Q408 358 413 354 L411 350 Q415 350 417 333 Q326 259 241 216 Q241 213 229 207 Q211 210 202 222 Q202 224 200 227 L202 230 L200 234 Q200 250 238 267 Q295 300 332 328 L342 339 Q341 339 341 341 L337 339 Q330 339 245 379 Q229 381 229 384 Q227 384 227 382 Q176 390 176 413 L176 417 Q176 418 178 418 L176 422 Q184 438 209 438 Z " />
<glyph glyph-name="questiondown" unicode="&#xbf;" horiz-adv-x="281" d="M139 676 Q163 664 163 642 Q160 632 144 622 Q142 622 142 624 L139 622 Q111 622 100 642 L100 653 Q100 676 139 676 Z M133 600 L135 596 L139 598 Q167 591 167 570 L168 566 Q167 561 165 561 Q167 534 170 524 Q167 523 167 520 L167 513 L168 504 L167 504 Q170 495 170 487 Q157 419 150 413 Q142 391 98 319 Q87 297 87 291 Q79 289 59 217 L61 213 Q57 208 52 178 L54 174 Q52 163 48 152 L50 148 Q46 124 46 119 L48 111 L46 108 Q46 50 78 30 L107 21 L115 21 Q137 30 155 76 L163 115 Q161 118 161 122 Q161 124 163 128 Q161 132 161 134 L163 134 Q161 137 161 139 Q161 153 179 156 L187 156 Q211 148 211 121 L211 111 Q211 110 209 110 Q209 108 211 108 Q200 41 179 17 Q149 -18 126 -18 L126 -16 L117 -20 Q105 -18 105 -16 Q104 -16 104 -18 Q49 -8 30 11 Q7 36 2 78 L0 85 Q0 87 2 87 L0 100 L0 119 Q0 164 6 184 Q6 185 4 185 Q6 202 11 206 Q11 208 9 208 Q15 250 30 293 Q51 342 96 415 Q117 463 117 489 Q117 494 113 531 L115 531 L113 535 L113 537 Q113 539 115 539 Q111 551 109 579 Q113 593 133 600 Z " />
<glyph glyph-name="Agrave" unicode="&#xc0;" horiz-adv-x="357" d="M11 868 L24 868 Q65 825 137 767 Q145 753 145 750 Q145 732 119 727 Q119 729 117 729 Q117 725 114 725 L110 725 Q100 725 94 738 Q90 738 45 776 Q5 803 -13 833 L-13 835 Q-13 850 9 866 Q9 868 11 868 Z M124 699 Q150 690 150 667 Q152 667 170 619 L215 453 Q222 393 226 393 Q226 391 224 391 Q265 132 278 86 L276 86 L292 23 Q294 23 294 21 L294 3 L290 5 Q290 0 270 -6 Q270 -10 266 -10 Q245 -10 235 60 Q220 108 191 314 L170 314 L152 312 L152 314 L148 312 Q146 312 146 314 L142 312 L139 312 Q137 312 137 314 Q135 314 135 312 Q126 314 94 316 Q93 264 89 264 Q89 262 91 262 Q89 245 87 245 L89 242 Q77 175 74 169 L76 166 Q67 135 59 79 L57 79 L59 75 L59 73 Q59 71 57 71 L59 68 L52 40 Q52 38 54 38 L52 29 L52 25 L54 16 Q47 12 39 -3 Q37 -3 19 -6 Q17 -6 17 -4 L13 -6 L11 -6 Q8 -6 0 7 Q0 9 2 9 L0 12 L0 14 L4 20 Q4 21 2 21 Q4 41 11 68 Q9 71 9 73 L11 73 L9 77 Q13 85 17 110 Q15 110 15 112 Q19 112 19 116 L17 125 Q23 125 44 269 L46 269 Q46 271 44 271 Q46 284 48 284 Q48 286 46 286 Q50 326 56 360 L54 364 Q56 373 57 373 Q57 375 56 375 Q56 384 76 536 Q76 538 74 538 Q85 629 96 689 Q115 694 115 697 L118 695 L124 699 Z M128 589 Q120 533 118 532 L120 528 Q119 512 117 512 Q117 510 118 510 Q117 485 104 423 Q104 421 105 421 Q102 398 102 373 L100 373 L102 369 L100 358 L100 356 L118 356 Q120 356 120 354 Q122 354 122 356 L131 354 L144 354 Q148 354 152 356 Q155 354 159 354 L174 354 L183 356 Q161 496 135 562 Q131 589 128 589 Z " />
<glyph glyph-name="Aacute" unicode="&#xc1;" horiz-adv-x="357" d="M250 866 Q271 850 271 835 L271 833 Q254 803 214 776 Q168 738 165 738 Q159 725 148 725 L145 725 Q141 725 141 729 Q139 729 139 727 Q114 732 114 750 Q114 753 121 767 Q194 825 235 868 L248 868 Q250 868 250 866 Z M124 699 Q150 690 150 667 Q152 667 170 619 L215 453 Q222 393 226 393 Q226 391 224 391 Q265 132 278 86 L276 86 L292 23 Q294 23 294 21 L294 3 L290 5 Q290 0 270 -6 Q270 -10 266 -10 Q245 -10 235 60 Q220 108 191 314 L170 314 L152 312 L152 314 L148 312 Q146 312 146 314 L142 312 L139 312 Q137 312 137 314 Q135 314 135 312 Q126 314 94 316 Q93 264 89 264 Q89 262 91 262 Q89 245 87 245 L89 242 Q77 175 74 169 L76 166 Q67 135 59 79 L57 79 L59 75 L59 73 Q59 71 57 71 L59 68 L52 40 Q52 38 54 38 L52 29 L52 25 L54 16 Q47 12 39 -3 Q37 -3 19 -6 Q17 -6 17 -4 L13 -6 L11 -6 Q8 -6 0 7 Q0 9 2 9 L0 12 L0 14 L4 20 Q4 21 2 21 Q4 41 11 68 Q9 71 9 73 L11 73 L9 77 Q13 85 17 110 Q15 110 15 112 Q19 112 19 116 L17 125 Q23 125 44 269 L46 269 Q46 271 44 271 Q46 284 48 284 Q48 286 46 286 Q50 326 56 360 L54 364 Q56 373 57 373 Q57 375 56 375 Q56 384 76 536 Q76 538 74 538 Q85 629 96 689 Q115 694 115 697 L118 695 L124 699 Z M128 589 Q120 533 118 532 L120 528 Q119 512 117 512 Q117 510 118 510 Q117 485 104 423 Q104 421 105 421 Q102 398 102 373 L100 373 L102 369 L100 358 L100 356 L118 356 Q120 356 120 354 Q122 354 122 356 L131 354 L144 354 Q148 354 152 356 Q155 354 159 354 L174 354 L183 356 Q161 496 135 562 Q131 589 128 589 Z " />
<glyph glyph-name="Acircumflex" unicode="&#xc2;" horiz-adv-x="357" d="M119 861 L120 861 Q122 861 122 860 L126 861 Q158 842 194 791 Q220 757 220 753 Q220 749 223 744 L223 731 Q216 721 207 717 Q205 717 205 719 L202 717 L198 717 Q196 717 196 719 L193 717 Q191 717 191 719 L187 717 Q182 717 182 726 L178 724 Q155 767 124 796 Q119 789 100 731 Q93 716 82 708 L79 709 L74 706 Q46 709 46 733 L46 740 Q61 767 82 825 Q87 825 97 854 Q109 861 119 861 Z M124 699 Q150 690 150 667 Q152 667 170 619 L215 453 Q222 393 226 393 Q226 391 224 391 Q265 132 278 86 L276 86 L292 23 Q294 23 294 21 L294 3 L290 5 Q290 0 270 -6 Q270 -10 266 -10 Q245 -10 235 60 Q220 108 191 314 L170 314 L152 312 L152 314 L148 312 Q146 312 146 314 L142 312 L139 312 Q137 312 137 314 Q135 314 135 312 Q126 314 94 316 Q93 264 89 264 Q89 262 91 262 Q89 245 87 245 L89 242 Q77 175 74 169 L76 166 Q67 135 59 79 L57 79 L59 75 L59 73 Q59 71 57 71 L59 68 L52 40 Q52 38 54 38 L52 29 L52 25 L54 16 Q47 12 39 -3 Q37 -3 19 -6 Q17 -6 17 -4 L13 -6 L11 -6 Q8 -6 0 7 Q0 9 2 9 L0 12 L0 14 L4 20 Q4 21 2 21 Q4 41 11 68 Q9 71 9 73 L11 73 L9 77 Q13 85 17 110 Q15 110 15 112 Q19 112 19 116 L17 125 Q23 125 44 269 L46 269 Q46 271 44 271 Q46 284 48 284 Q48 286 46 286 Q50 326 56 360 L54 364 Q56 373 57 373 Q57 375 56 375 Q56 384 76 536 Q76 538 74 538 Q85 629 96 689 Q115 694 115 697 L118 695 L124 699 Z M128 589 Q120 533 118 532 L120 528 Q119 512 117 512 Q117 510 118 510 Q117 485 104 423 Q104 421 105 421 Q102 398 102 373 L100 373 L102 369 L100 358 L100 356 L118 356 Q120 356 120 354 Q122 354 122 356 L131 354 L144 354 Q148 354 152 356 Q155 354 159 354 L174 354 L183 356 Q161 496 135 562 Q131 589 128 589 Z " />
<glyph glyph-name="Atilde" unicode="&#xc3;" horiz-adv-x="357" d="M124 699 Q150 690 150 667 Q152 667 170 619 L215 453 Q222 393 226 393 Q226 391 224 391 Q265 132 278 86 L276 86 L292 23 Q294 23 294 21 L294 3 L290 5 Q290 0 270 -6 Q270 -10 266 -10 Q245 -10 235 60 Q220 108 191 314 L170 314 L152 312 L152 314 L148 312 Q146 312 146 314 L142 312 L139 312 Q137 312 137 314 Q135 314 135 312 Q126 314 94 316 Q93 264 89 264 Q89 262 91 262 Q89 245 87 245 L89 242 Q77 175 74 169 L76 166 Q67 135 59 79 L57 79 L59 75 L59 73 Q59 71 57 71 L59 68 L52 40 Q52 38 54 38 L52 29 L52 25 L54 16 Q47 12 39 -3 Q37 -3 19 -6 Q17 -6 17 -4 L13 -6 L11 -6 Q8 -6 0 7 Q0 9 2 9 L0 12 L0 14 L4 20 Q4 21 2 21 Q4 41 11 68 Q9 71 9 73 L11 73 L9 77 Q13 85 17 110 Q15 110 15 112 Q19 112 19 116 L17 125 Q23 125 44 269 L46 269 Q46 271 44 271 Q46 284 48 284 Q48 286 46 286 Q50 326 56 360 L54 364 Q56 373 57 373 Q57 375 56 375 Q56 384 76 536 Q76 538 74 538 Q85 629 96 689 Q115 694 115 697 L118 695 L124 699 Z M128 589 Q120 533 118 532 L120 528 Q119 512 117 512 Q117 510 118 510 Q117 485 104 423 Q104 421 105 421 Q102 398 102 373 L100 373 L102 369 L100 358 L100 356 L118 356 Q120 356 120 354 Q122 354 122 356 L131 354 L144 354 Q148 354 152 356 Q155 354 159 354 L174 354 L183 356 Q161 496 135 562 Q131 589 128 589 Z M55 854 L59 853 L63 854 Q120 854 150 810 Q172 777 192 775 L200 775 Q218 797 218 810 Q224 831 229 841 Q236 841 240 845 L244 845 L248 843 Q248 847 251 847 L255 847 Q270 834 270 814 L268 810 Q270 807 270 803 L270 799 Q270 795 268 791 L270 788 Q265 765 259 760 Q228 723 196 723 Q194 723 185 725 Q181 723 177 723 L177 725 L174 723 Q145 731 124 760 Q112 771 109 780 Q105 780 92 799 L76 804 Q72 803 70 803 L70 804 Q44 790 44 766 Q33 740 18 740 Q15 738 11 738 Q-2 752 -4 766 L-4 773 Q-4 798 16 827 Q33 849 55 854 Z " />
<glyph glyph-name="Adieresis" unicode="&#xc4;" horiz-adv-x="357" d="M17 757 L19 760 Q17 763 17 768 Q41 796 59 796 L66 796 Q95 788 95 773 Q99 773 99 757 L97 757 L99 753 Q99 738 66 724 L59 724 Q39 724 19 750 Q19 753 17 757 Z M165 766 Q165 786 195 796 L210 796 Q227 788 239 767 L237 758 L237 746 Q222 722 204 722 Q167 727 167 758 Q165 758 165 766 Z M124 699 Q150 690 150 667 Q152 667 170 619 L215 453 Q222 393 226 393 Q226 391 224 391 Q265 132 278 86 L276 86 L292 23 Q294 23 294 21 L294 3 L290 5 Q290 0 270 -6 Q270 -10 266 -10 Q245 -10 235 60 Q220 108 191 314 L170 314 L152 312 L152 314 L148 312 Q146 312 146 314 L142 312 L139 312 Q137 312 137 314 Q135 314 135 312 Q126 314 94 316 Q93 264 89 264 Q89 262 91 262 Q89 245 87 245 L89 242 Q77 175 74 169 L76 166 Q67 135 59 79 L57 79 L59 75 L59 73 Q59 71 57 71 L59 68 L52 40 Q52 38 54 38 L52 29 L52 25 L54 16 Q47 12 39 -3 Q37 -3 19 -6 Q17 -6 17 -4 L13 -6 L11 -6 Q8 -6 0 7 Q0 9 2 9 L0 12 L0 14 L4 20 Q4 21 2 21 Q4 41 11 68 Q9 71 9 73 L11 73 L9 77 Q13 85 17 110 Q15 110 15 112 Q19 112 19 116 L17 125 Q23 125 44 269 L46 269 Q46 271 44 271 Q46 284 48 284 Q48 286 46 286 Q50 326 56 360 L54 364 Q56 373 57 373 Q57 375 56 375 Q56 384 76 536 Q76 538 74 538 Q85 629 96 689 Q115 694 115 697 L118 695 L124 699 Z M128 589 Q120 533 118 532 L120 528 Q119 512 117 512 Q117 510 118 510 Q117 485 104 423 Q104 421 105 421 Q102 398 102 373 L100 373 L102 369 L100 358 L100 356 L118 356 Q120 356 120 354 Q122 354 122 356 L131 354 L144 354 Q148 354 152 356 Q155 354 159 354 L174 354 L183 356 Q161 496 135 562 Q131 589 128 589 Z " />
<glyph glyph-name="Aring" unicode="&#xc5;" horiz-adv-x="354" d="M136 858 Q162 858 190 812 Q190 805 192 794 Q192 749 157 718 Q150 714 145 714 L138 716 L135 714 Q133 714 133 716 L125 714 L119 714 L116 716 Q116 712 112 712 L109 712 Q54 732 54 775 L54 782 Q62 812 71 817 Q105 855 135 855 Q135 858 136 858 Z M123 804 Q123 807 121 807 Q102 782 100 782 L100 773 Q116 759 123 759 Q141 759 143 794 Q143 805 135 811 Q130 811 123 804 Z M124 699 Q150 690 150 667 Q152 667 170 619 L215 453 Q222 393 226 393 Q226 391 224 391 Q265 132 278 86 L276 86 L292 23 Q294 23 294 21 L294 3 L290 5 Q290 0 270 -6 Q270 -10 266 -10 Q245 -10 235 60 Q220 108 191 314 L170 314 L152 312 L152 314 L148 312 Q146 312 146 314 L142 312 L139 312 Q137 312 137 314 Q135 314 135 312 Q126 314 94 316 Q93 264 89 264 Q89 262 91 262 Q89 245 87 245 L89 242 Q77 175 74 169 L76 166 Q67 135 59 79 L57 79 L59 75 L59 73 Q59 71 57 71 L59 68 L52 40 Q52 38 54 38 L52 29 L52 25 L54 16 Q47 12 39 -3 Q37 -3 19 -6 Q17 -6 17 -4 L13 -6 L11 -6 Q8 -6 0 7 Q0 9 2 9 L0 12 L0 14 L4 20 Q4 21 2 21 Q4 41 11 68 Q9 71 9 73 L11 73 L9 77 Q13 85 17 110 Q15 110 15 112 Q19 112 19 116 L17 125 Q23 125 44 269 L46 269 Q46 271 44 271 Q46 284 48 284 Q48 286 46 286 Q50 326 56 360 L54 364 Q56 373 57 373 Q57 375 56 375 Q56 384 76 536 Q76 538 74 538 Q85 629 96 689 Q115 694 115 697 L118 695 L124 699 Z M128 589 Q120 533 118 532 L120 528 Q119 512 117 512 Q117 510 118 510 Q117 485 104 423 Q104 421 105 421 Q102 398 102 373 L100 373 L102 369 L100 358 L100 356 L118 356 Q120 356 120 354 Q122 354 122 356 L131 354 L144 354 Q148 354 152 356 Q155 354 159 354 L174 354 L183 356 Q161 496 135 562 Q131 589 128 589 Z " />
<glyph glyph-name="AE" unicode="&#xc6;" horiz-adv-x="597" d="M388 674 L396 673 L418 673 L429 674 Q447 673 447 671 L451 673 L469 673 Q494 663 494 655 L494 646 L471 624 L461 625 L453 624 Q434 625 434 627 L431 625 L402 625 Q398 625 395 627 Q392 625 388 625 Q386 625 386 627 L382 625 Q380 625 380 627 L371 625 L405 625 L396 624 L396 625 L392 624 L377 624 Q345 624 314 620 L311 622 Q307 620 305 620 Q312 568 312 530 L314 526 L312 522 Q312 515 314 512 Q312 488 312 474 L312 418 Q312 411 314 403 Q312 396 312 389 L312 375 Q312 367 314 360 Q312 353 312 346 L312 326 Q312 322 314 318 Q312 315 312 312 Q319 308 327 308 L331 308 Q334 308 338 310 L341 308 Q345 310 349 310 L349 308 L353 310 Q356 310 359 308 L363 310 L372 308 L385 310 L392 308 L403 310 Q404 310 410 308 Q413 310 417 310 L417 308 L421 310 Q422 310 366 308 L370 310 Q372 308 377 308 Q386 308 386 312 L395 310 Q405 310 407 312 Q417 310 424 310 L438 310 L442 308 Q442 310 443 310 Q461 298 461 288 L461 284 Q449 263 424 263 L409 263 Q405 263 402 261 Q384 263 384 264 L380 263 L377 263 Q375 263 375 264 L371 263 L362 263 Q424 263 421 264 Q418 263 414 263 L412 263 Q410 263 410 264 L407 263 L374 263 Q370 263 367 261 Q364 263 359 263 L347 263 L329 261 L329 263 Q314 260 314 255 L314 250 Q314 241 316 232 L314 221 Q314 219 316 219 L314 210 L314 192 Q314 188 316 185 Q314 182 314 178 L314 176 Q315 172 318 172 L316 168 Q316 165 318 161 Q316 158 316 156 L320 154 Q320 150 318 150 L322 107 Q320 101 320 91 L322 87 L320 83 Q322 80 322 78 L320 75 Q323 67 323 55 L322 51 L361 44 L365 46 L372 44 Q374 44 377 46 Q387 44 394 44 L401 44 Q407 44 407 46 L416 44 L375 44 Q379 44 382 46 L386 44 Q389 46 393 46 Q395 46 395 44 L398 46 L414 46 L424 47 L424 46 L427 47 L429 47 Q463 47 489 53 L491 49 L494 51 L505 51 Q524 36 525 29 Q514 8 505 8 Q505 4 494 4 Q463 4 411 -3 Q408 -1 406 -1 Q404 -1 391 -3 Q389 -3 389 -1 L377 -3 L394 -3 Q390 -3 387 -5 Q383 -3 379 -3 L376 -3 L367 -5 L367 -3 Q365 -3 365 -5 L296 2 L292 0 Q273 10 273 17 Q271 17 271 19 L271 26 Q271 39 268 46 Q268 67 274 67 L274 77 Q274 112 271 124 Q271 125 273 125 L271 143 L271 178 L269 190 L271 190 L269 194 L269 199 Q269 201 271 201 L269 205 L269 210 Q269 212 271 212 L269 215 L269 232 Q269 239 268 251 Q269 255 269 257 Q265 260 253 263 L250 261 L244 261 Q237 261 228 263 Q224 261 222 261 L219 263 Q215 261 211 261 Q209 261 209 263 Q128 258 128 253 Q128 246 101 174 Q99 174 90 147 L45 15 Q43 13 36 -1 Q29 -1 29 -3 Q0 -3 0 17 L0 24 Q38 120 90 281 Q95 287 145 423 Q229 620 240 638 L238 642 Q243 656 258 662 Q266 671 287 671 L289 671 Q292 670 292 667 L311 671 L314 669 L318 671 Q321 669 323 669 L327 671 Q329 671 329 669 Q353 673 397 673 L419 673 Q421 673 421 671 L425 673 Q426 673 426 671 L364 673 L382 673 Q388 673 388 674 Z M262 583 Q241 528 188 409 Q150 309 150 306 L152 306 Q171 306 209 310 L213 308 Q226 310 233 310 L260 310 Q262 310 262 308 Q266 310 268 310 L268 313 Q268 317 266 320 Q268 323 268 328 Q268 333 266 333 L268 346 L268 389 L266 402 L268 402 L266 405 L266 414 Q266 416 268 416 L266 420 L266 423 Q266 442 268 463 L266 476 L268 485 Q268 486 266 486 L268 499 L268 512 Q268 521 266 539 L268 539 L266 542 L266 553 Q266 561 264 573 Q266 576 266 581 L262 583 Z " />
<glyph glyph-name="Ccedilla" unicode="&#xc7;" horiz-adv-x="311" d="M169 -30 Q153 -59 146 -71 Q161 -81 177 -103 Q177 -109 179 -119 Q179 -158 142 -186 Q135 -189 130 -189 L122 -188 L119 -189 Q117 -189 117 -188 L108 -189 L103 -189 L99 -188 Q99 -191 96 -191 L92 -191 L86 -189 L86 -147 Q99 -150 106 -150 Q125 -150 128 -119 Q128 -110 119 -104 L116 -104 L116 -103 Q92 -106 86 -90 Q85 -88 87 -72 Q109 -32 126 0 L124 0 Q122 0 122 2 L118 0 Q73 0 33 98 L20 150 Q20 152 22 152 L15 183 L17 183 L15 187 L15 191 Q15 192 17 192 Q15 195 13 213 L15 213 Q13 218 11 235 L13 235 Q6 268 6 276 L7 276 L4 285 Q4 287 6 287 Q2 306 2 313 L4 313 Q4 315 2 315 L4 324 L4 327 L2 337 L4 337 L2 340 L2 359 Q2 361 4 361 L2 364 Q2 366 4 366 L0 385 Q2 401 4 401 L2 405 L2 440 Q2 442 4 442 Q2 446 2 448 L4 451 Q2 455 2 459 Q2 461 4 461 L2 464 Q2 600 44 660 Q58 685 89 701 Q89 707 122 716 L131 716 Q208 716 216 677 L215 677 L216 673 Q216 669 200 662 L200 664 L196 662 Q163 673 150 673 L141 672 L141 673 L137 672 Q135 672 135 673 Q89 655 72 614 Q66 606 54 559 L56 555 Q52 540 50 511 Q50 509 52 505 L48 448 L50 444 L48 440 Q48 434 50 431 Q48 407 48 392 L48 355 Q48 351 50 348 Q48 345 48 340 L48 333 Q48 318 50 294 L48 290 L56 250 L54 250 Q57 240 61 211 L59 207 Q63 200 63 196 L61 196 Q66 163 68 155 L67 152 Q78 92 104 57 Q121 39 130 39 Q177 39 218 81 Q228 83 229 83 Q253 80 253 61 Q255 61 255 59 L255 54 L216 20 Q212 20 205 13 Q198 10 191 8 Q179 -14 169 -30 Z " />
<glyph glyph-name="Egrave" unicode="&#xc8;" horiz-adv-x="300" d="M4 868 L16 868 Q58 825 130 767 Q138 753 138 750 Q138 732 112 727 Q112 729 110 729 Q110 725 107 725 L103 725 Q93 725 87 738 Q83 738 38 776 Q-2 803 -20 833 L-20 835 Q-20 850 2 866 Q2 868 4 868 Z M80 685 L81 681 Q83 681 83 683 L93 681 L131 681 Q138 681 148 679 Q151 681 155 681 L159 679 Q163 681 165 681 L168 679 Q172 681 176 681 Q185 677 192 664 Q188 640 148 640 L141 642 Q96 644 83 644 L83 646 L80 644 L48 644 L48 635 Q48 633 46 633 L48 629 L48 620 Q48 611 44 611 Q48 601 48 598 L46 598 Q46 596 48 596 Q48 594 46 590 Q46 589 48 579 L46 562 Q48 553 48 544 L46 544 Q46 542 48 542 Q48 538 46 535 Q48 509 48 490 L48 479 L50 468 Q48 465 48 459 Q48 447 52 433 L50 433 L52 429 Q52 427 50 427 L52 424 L50 411 L52 392 L50 392 Q54 385 54 377 L54 372 L67 372 Q72 372 72 374 L81 372 L89 372 Q99 372 115 374 L118 372 Q128 374 135 374 Q148 374 154 357 Q154 340 128 331 L115 333 L87 333 L74 331 L74 333 L59 329 Q59 333 56 333 L54 329 L54 322 Q54 316 56 316 L54 307 L54 290 Q54 286 56 283 Q56 281 54 281 L56 274 Q54 226 54 209 L56 205 L54 202 L56 192 L54 189 Q56 179 57 179 L56 170 L56 105 Q56 101 57 98 Q56 95 56 91 L56 72 L57 61 L57 54 Q82 50 131 50 L133 50 Q137 50 141 52 Q144 50 148 50 L165 50 Q171 50 181 52 Q183 52 183 50 L202 52 L226 52 Q241 43 241 30 Q227 9 216 9 Q216 7 204 6 L200 7 L192 6 L181 7 Q179 7 179 6 L170 7 L168 7 L157 6 Q154 7 152 7 L144 6 Q134 7 130 7 L126 6 Q122 7 120 7 L104 6 L104 7 L100 6 L94 6 Q90 6 87 7 Q84 6 80 6 L72 7 Q69 6 63 6 L63 7 Q61 7 61 6 L52 7 L46 7 Q35 6 35 2 L26 4 L19 0 Q15 2 9 2 L9 4 Q9 6 11 6 Q7 12 7 20 L7 83 Q7 85 9 85 L7 89 L7 96 Q7 98 9 98 L7 102 L7 105 Q7 107 9 107 L7 111 L7 209 Q7 213 9 216 L7 220 Q9 223 9 228 Q9 229 7 229 L9 239 L9 266 L7 285 L9 285 L7 289 L7 292 Q7 294 9 294 L7 298 L7 376 Q7 380 6 383 L7 387 Q7 390 4 400 Q4 404 6 407 Q2 446 2 501 L2 520 L0 529 L2 529 Q2 531 0 531 Q0 535 2 535 Q0 572 0 590 L0 627 Q0 629 2 629 L0 633 Q0 641 2 651 Q0 659 0 664 Q19 683 37 683 L37 681 Q41 683 43 683 L46 681 Q49 683 54 683 L61 681 Q70 685 80 685 Z " />
<glyph glyph-name="Eacute" unicode="&#xc9;" horiz-adv-x="300" d="M208 866 Q229 850 229 835 L229 833 Q211 803 171 776 Q126 738 123 738 Q117 725 106 725 L103 725 Q99 725 99 729 Q97 729 97 727 Q72 732 72 750 Q72 753 79 767 Q152 825 193 868 L206 868 Q208 868 208 866 Z M80 685 L81 681 Q83 681 83 683 L93 681 L131 681 Q138 681 148 679 Q151 681 155 681 L159 679 Q163 681 165 681 L168 679 Q172 681 176 681 Q185 677 192 664 Q188 640 148 640 L141 642 Q96 644 83 644 L83 646 L80 644 L48 644 L48 635 Q48 633 46 633 L48 629 L48 620 Q48 611 44 611 Q48 601 48 598 L46 598 Q46 596 48 596 Q48 594 46 590 Q46 589 48 579 L46 562 Q48 553 48 544 L46 544 Q46 542 48 542 Q48 538 46 535 Q48 509 48 490 L48 479 L50 468 Q48 465 48 459 Q48 447 52 433 L50 433 L52 429 Q52 427 50 427 L52 424 L50 411 L52 392 L50 392 Q54 385 54 377 L54 372 L67 372 Q72 372 72 374 L81 372 L89 372 Q99 372 115 374 L118 372 Q128 374 135 374 Q148 374 154 357 Q154 340 128 331 L115 333 L87 333 L74 331 L74 333 L59 329 Q59 333 56 333 L54 329 L54 322 Q54 316 56 316 L54 307 L54 290 Q54 286 56 283 Q56 281 54 281 L56 274 Q54 226 54 209 L56 205 L54 202 L56 192 L54 189 Q56 179 57 179 L56 170 L56 105 Q56 101 57 98 Q56 95 56 91 L56 72 L57 61 L57 54 Q82 50 131 50 L133 50 Q137 50 141 52 Q144 50 148 50 L165 50 Q171 50 181 52 Q183 52 183 50 L202 52 L226 52 Q241 43 241 30 Q227 9 216 9 Q216 7 204 6 L200 7 L192 6 L181 7 Q179 7 179 6 L170 7 L168 7 L157 6 Q154 7 152 7 L144 6 Q134 7 130 7 L126 6 Q122 7 120 7 L104 6 L104 7 L100 6 L94 6 Q90 6 87 7 Q84 6 80 6 L72 7 Q69 6 63 6 L63 7 Q61 7 61 6 L52 7 L46 7 Q35 6 35 2 L26 4 L19 0 Q15 2 9 2 L9 4 Q9 6 11 6 Q7 12 7 20 L7 83 Q7 85 9 85 L7 89 L7 96 Q7 98 9 98 L7 102 L7 105 Q7 107 9 107 L7 111 L7 209 Q7 213 9 216 L7 220 Q9 223 9 228 Q9 229 7 229 L9 239 L9 266 L7 285 L9 285 L7 289 L7 292 Q7 294 9 294 L7 298 L7 376 Q7 380 6 383 L7 387 Q7 390 4 400 Q4 404 6 407 Q2 446 2 501 L2 520 L0 529 L2 529 Q2 531 0 531 Q0 535 2 535 Q0 572 0 590 L0 627 Q0 629 2 629 L0 633 Q0 641 2 651 Q0 659 0 664 Q19 683 37 683 L37 681 Q41 683 43 683 L46 681 Q49 683 54 683 L61 681 Q70 685 80 685 Z " />
<glyph glyph-name="Ecircumflex" unicode="&#xca;" horiz-adv-x="300" d="M81 861 L83 861 Q84 861 84 860 L88 861 Q120 842 156 791 Q182 757 182 753 Q182 749 186 744 L186 731 Q178 721 169 717 Q168 717 168 719 L164 717 L160 717 Q158 717 158 719 L155 717 Q153 717 153 719 L150 717 Q145 717 144 726 L140 724 Q117 767 86 796 Q81 789 63 731 Q55 716 45 708 L41 709 L36 706 Q9 709 9 733 L9 740 Q23 767 45 825 Q50 825 59 854 Q72 861 81 861 Z M80 685 L81 681 Q83 681 83 683 L93 681 L131 681 Q138 681 148 679 Q151 681 155 681 L159 679 Q163 681 165 681 L168 679 Q172 681 176 681 Q185 677 192 664 Q188 640 148 640 L141 642 Q96 644 83 644 L83 646 L80 644 L48 644 L48 635 Q48 633 46 633 L48 629 L48 620 Q48 611 44 611 Q48 601 48 598 L46 598 Q46 596 48 596 Q48 594 46 590 Q46 589 48 579 L46 562 Q48 553 48 544 L46 544 Q46 542 48 542 Q48 538 46 535 Q48 509 48 490 L48 479 L50 468 Q48 465 48 459 Q48 447 52 433 L50 433 L52 429 Q52 427 50 427 L52 424 L50 411 L52 392 L50 392 Q54 385 54 377 L54 372 L67 372 Q72 372 72 374 L81 372 L89 372 Q99 372 115 374 L118 372 Q128 374 135 374 Q148 374 154 357 Q154 340 128 331 L115 333 L87 333 L74 331 L74 333 L59 329 Q59 333 56 333 L54 329 L54 322 Q54 316 56 316 L54 307 L54 290 Q54 286 56 283 Q56 281 54 281 L56 274 Q54 226 54 209 L56 205 L54 202 L56 192 L54 189 Q56 179 57 179 L56 170 L56 105 Q56 101 57 98 Q56 95 56 91 L56 72 L57 61 L57 54 Q82 50 131 50 L133 50 Q137 50 141 52 Q144 50 148 50 L165 50 Q171 50 181 52 Q183 52 183 50 L202 52 L226 52 Q241 43 241 30 Q227 9 216 9 Q216 7 204 6 L200 7 L192 6 L181 7 Q179 7 179 6 L170 7 L168 7 L157 6 Q154 7 152 7 L144 6 Q134 7 130 7 L126 6 Q122 7 120 7 L104 6 L104 7 L100 6 L94 6 Q90 6 87 7 Q84 6 80 6 L72 7 Q69 6 63 6 L63 7 Q61 7 61 6 L52 7 L46 7 Q35 6 35 2 L26 4 L19 0 Q15 2 9 2 L9 4 Q9 6 11 6 Q7 12 7 20 L7 83 Q7 85 9 85 L7 89 L7 96 Q7 98 9 98 L7 102 L7 105 Q7 107 9 107 L7 111 L7 209 Q7 213 9 216 L7 220 Q9 223 9 228 Q9 229 7 229 L9 239 L9 266 L7 285 L9 285 L7 289 L7 292 Q7 294 9 294 L7 298 L7 376 Q7 380 6 383 L7 387 Q7 390 4 400 Q4 404 6 407 Q2 446 2 501 L2 520 L0 529 L2 529 Q2 531 0 531 Q0 535 2 535 Q0 572 0 590 L0 627 Q0 629 2 629 L0 633 Q0 641 2 651 Q0 659 0 664 Q19 683 37 683 L37 681 Q41 683 43 683 L46 681 Q49 683 54 683 L61 681 Q70 685 80 685 Z " />
<glyph glyph-name="Edieresis" unicode="&#xcb;" horiz-adv-x="300" d="M-14 757 L-12 760 Q-14 763 -14 768 Q9 796 27 796 L34 796 Q63 788 63 773 Q67 773 67 757 L65 757 L67 753 Q67 738 34 724 L27 724 Q8 724 -12 750 Q-12 753 -14 757 Z M133 766 Q133 786 164 796 L178 796 Q195 788 207 767 L205 758 L205 746 Q190 722 173 722 Q135 727 135 758 Q133 758 133 766 Z M80 685 L81 681 Q83 681 83 683 L93 681 L131 681 Q138 681 148 679 Q151 681 155 681 L159 679 Q163 681 165 681 L168 679 Q172 681 176 681 Q185 677 192 664 Q188 640 148 640 L141 642 Q96 644 83 644 L83 646 L80 644 L48 644 L48 635 Q48 633 46 633 L48 629 L48 620 Q48 611 44 611 Q48 601 48 598 L46 598 Q46 596 48 596 Q48 594 46 590 Q46 589 48 579 L46 562 Q48 553 48 544 L46 544 Q46 542 48 542 Q48 538 46 535 Q48 509 48 490 L48 479 L50 468 Q48 465 48 459 Q48 447 52 433 L50 433 L52 429 Q52 427 50 427 L52 424 L50 411 L52 392 L50 392 Q54 385 54 377 L54 372 L67 372 Q72 372 72 374 L81 372 L89 372 Q99 372 115 374 L118 372 Q128 374 135 374 Q148 374 154 357 Q154 340 128 331 L115 333 L87 333 L74 331 L74 333 L59 329 Q59 333 56 333 L54 329 L54 322 Q54 316 56 316 L54 307 L54 290 Q54 286 56 283 Q56 281 54 281 L56 274 Q54 226 54 209 L56 205 L54 202 L56 192 L54 189 Q56 179 57 179 L56 170 L56 105 Q56 101 57 98 Q56 95 56 91 L56 72 L57 61 L57 54 Q82 50 131 50 L133 50 Q137 50 141 52 Q144 50 148 50 L165 50 Q171 50 181 52 Q183 52 183 50 L202 52 L226 52 Q241 43 241 30 Q227 9 216 9 Q216 7 204 6 L200 7 L192 6 L181 7 Q179 7 179 6 L170 7 L168 7 L157 6 Q154 7 152 7 L144 6 Q134 7 130 7 L126 6 Q122 7 120 7 L104 6 L104 7 L100 6 L94 6 Q90 6 87 7 Q84 6 80 6 L72 7 Q69 6 63 6 L63 7 Q61 7 61 6 L52 7 L46 7 Q35 6 35 2 L26 4 L19 0 Q15 2 9 2 L9 4 Q9 6 11 6 Q7 12 7 20 L7 83 Q7 85 9 85 L7 89 L7 96 Q7 98 9 98 L7 102 L7 105 Q7 107 9 107 L7 111 L7 209 Q7 213 9 216 L7 220 Q9 223 9 228 Q9 229 7 229 L9 239 L9 266 L7 285 L9 285 L7 289 L7 292 Q7 294 9 294 L7 298 L7 376 Q7 380 6 383 L7 387 Q7 390 4 400 Q4 404 6 407 Q2 446 2 501 L2 520 L0 529 L2 529 Q2 531 0 531 Q0 535 2 535 Q0 572 0 590 L0 627 Q0 629 2 629 L0 633 Q0 641 2 651 Q0 659 0 664 Q19 683 37 683 L37 681 Q41 683 43 683 L46 681 Q49 683 54 683 L61 681 Q70 685 80 685 Z " />
</font>
</svg>
