<?xml version="1.0" encoding="UTF-8"?>
<svg xmlns="http://www.w3.org/2000/svg" xmlns:xlink="http://www.w3.org/1999/xlink" version="1.2" >
<font id="Fenway Park JF">
<font-face  font-family="FenwayParkJF" units-per-em="1000" ascent="800" descent="-250" font-style="normal" font-weight="400" font-stretch="normal" cap-height="750" x-height="500" underline-position="-133" underline-thickness="20" />
<missing-glyph  horiz-adv-x="500" d="M63 0 L63 800 L438 800 L438 0 L63 0 Z M125 63 L375 63 L375 738 L125 738 L125 63 Z " />
<glyph glyph-name="space" unicode="&#x20;" horiz-adv-x="315" d="" />
<glyph glyph-name="exclam" unicode="&#x21;" horiz-adv-x="249" d="M111 64 Q127 94 152.5 115.5 Q178 137 198 137 Q223 137 223 108 Q223 89 210 64 Q195 34 169.5 13 Q144 -8 123 -8 Q99 -8 99 20 Q99 40 111 64 Z M399 698 Q403 706 409 705 L492 693 Q498 692 495 685 L258 188 Q253 179 245 179 L183 179 Q175 179 180 190 L399 698 Z " />
<glyph glyph-name="quotedbl" unicode="&#x22;" horiz-adv-x="364" d="M300 606 Q253 522 199 492 Q175 479 168 489 Q164 497 175 506 Q209 532 230 566 Q227 566 224 566 Q200 566 200 594 Q200 614 212 638 Q228 668 253.5 689.5 Q279 711 299 711 Q323 711 323 682 Q323 646 300 606 Z M424 606 Q377 522 323 492 Q299 479 292 489 Q288 497 299 506 Q333 532 354 566 Q351 566 348 566 Q324 566 324 594 Q324 614 336 638 Q352 668 377.5 689.5 Q403 711 423 711 Q447 711 447 682 Q447 646 424 606 Z " />
<glyph glyph-name="numbersign" unicode="&#x23;" horiz-adv-x="769" d="M451 712 L372 490 L497 490 L577 712 L657 712 L579 490 L726 490 L701 419 L553 419 L508 290 L665 290 L640 219 L483 219 L404 -2 L323 -2 L402 219 L276 219 L197 -2 L116 -2 L194 219 L43 219 L69 290 L220 290 L265 419 L104 419 L129 490 L291 490 L370 712 L451 712 Z M473 419 L346 419 L301 290 L428 290 L473 419 Z " />
<glyph glyph-name="dollar" unicode="&#x24;" horiz-adv-x="604" d="M248 128 Q260 126 273 126 Q340 126 362 163 Q369 175 369 190 Q369 230 316 290 L248 128 Z M361 604 Q328 606 306 590 Q281 573 281 541 Q281 512 306 473 L361 604 Z M547 509 Q536 481 510 459.5 Q484 438 456 438 Q427 438 414 459 Q408 469 409 480 Q410 488 414 494 L415 495 Q420 500 423 496 Q427 492 433 492 Q455 492 459 519 Q463 546 434 572 L362 401 L364 399 L394 366 Q476 278 476 220 Q476 192 461 162 Q437 116 378.5 86 Q320 56 250 56 Q234 56 218 57 L200 14 L113 14 L140 78 Q46 121 46 199 Q46 244 78 276.5 Q110 309 155 307 Q169 306 190 290 Q211 274 201 262 Q198 259 196 261 Q182 265 166 252.5 Q150 240 147 220 Q142 189 174 160 L256 355 Q189 437 189 519 Q189 560 208 590 Q270 691 393 680 L415 733 L502 733 L471 659 Q554 618 554 547 Q554 528 547 509 Z " />
<glyph glyph-name="percent" unicode="&#x25;" horiz-adv-x="620" d="M540 338 Q560 338 572 306 Q580 282 580 257 Q580 169 497 83.5 Q414 -2 327 -2 Q286 -2 258.5 26 Q231 54 231 96 Q231 168 308 239 Q385 310 459 310 Q458 338 540 338 Z M300 109 Q300 93 313 83.5 Q326 74 343 74 Q395 74 433 122 Q467 166 467 219 Q467 244 463 263 Q413 252 360 206 Q300 155 300 109 Z M626 712 Q631 712 635 702 Q634 693 617 680 Q560 636 371 379 Q212 164 134 41 Q120 21 115 15 Q105 4 87 -2 Q55 -13 52 -13 Q41 -13 41 -1 Q41 72 487 683 Q472 667 437 650 Q402 633 379 629 Q379 539 296.5 452.5 Q214 366 124 366 Q84 366 56.5 395.5 Q29 425 29 465 Q29 536 106.5 607 Q184 678 256 678 Q252 707 337 707 Q365 707 374 657 Q403 664 494 722 Q507 717 534 710 Q551 707 580 709 Q619 712 626 712 Z M265 588 Q265 613 261 632 Q212 624 157 576 Q99 525 99 478 Q99 443 141 443 Q193 443 229 489 Q265 535 265 588 Z " />
<glyph glyph-name="ampersand" unicode="&#x26;" horiz-adv-x="715" d="M477 288 Q512 319 536 334 Q581 362 626 366 Q669 371 715.5 349.5 Q762 328 768 304 Q772 290 745 254 Q721 223 705 211 Q701 208 696 209 Q697 228 679 244 Q658 263 624 263 Q591 263 566 247 Q564 246 528 217 Q530 211 530 203 Q530 114 443 39 Q360 -33 270 -33 Q234 -33 198 -22 Q131 -2 88 46 Q40 99 40 165 Q40 212 66 262 Q109 340 191 384 Q262 422 333 422 Q349 422 362 419 Q258 484 258 563 Q258 607 286 658 Q322 723 385 757 Q438 785 498 785 Q568 785 610.5 744 Q653 703 653 631 Q653 581 631 533 Q620 510 595 493 Q570 476 547 476 Q525 476 513 492 Q501 505 504 514 Q505 519 518.5 528.5 Q532 538 536 544 Q558 580 558 630 Q558 688 523 699 Q513 703 501 703 Q466 703 432 675 Q395 645 374 594 Q367 577 367 562 Q367 508 456 454 Q477 442 501 426 Q505 422 505 411 Q505 366 470 336 Q462 330 449 335 L413 349 Q396 356 375 356 Q321 356 264.5 315.5 Q208 275 181 215 Q171 191 171 167 Q171 132 193 104.5 Q215 77 249 67 Q276 59 299 59 Q350 59 391 101 Q406 115 406 135 Q406 146 400 159 Q371 143 341 143 Q312 143 309 162 Q307 173 337 218 Q365 260 379 272 Q400 289 451 289 Q464 289 477 288 Z " />
<glyph glyph-name="quotesingle" unicode="&#x27;" horiz-adv-x="233" d="M316 606 Q269 522 215 492 Q191 479 185 489 Q180 497 191 506 Q225 532 246 566 Q243 566 241 566 Q216 566 216 594 Q216 614 229 638 Q244 668 269.5 689.5 Q295 711 316 711 Q339 711 339 682 Q339 646 316 606 Z " />
<glyph glyph-name="parenleft" unicode="&#x28;" horiz-adv-x="259" d="M311 776 L325 755 Q239 673 195 592 Q155 518 124 397 Q106 322 106 248 Q106 105 173 -11 L153 -28 Q27 104 27 306 Q27 365 40 420 Q62 512 149 624 Q232 728 311 776 Z " />
<glyph glyph-name="parenright" unicode="&#x29;" horiz-adv-x="441" d="M174 -28 L160 -7 Q246 76 290 157 Q330 230 361 351 Q379 426 379 500 Q379 643 312 759 L332 776 Q458 645 458 442 Q458 383 445 329 Q423 236 336 125 Q253 20 174 -28 Z " />
<glyph glyph-name="asterisk" unicode="&#x2a;" horiz-adv-x="511" d="M344 484 Q309 484 313 510 Q314 518 333 552 Q356 592 360 601 L357 603 Q333 576 284 531 Q279 527 272 527 Q255 527 245 543 Q238 554 238 565 Q238 582 253 589 Q287 595 354 610 L354 614 Q325 617 296 620 Q256 628 256 651 Q256 661 262 673 Q274 693 293 693 Q300 693 305 689 Q320 668 360 621 L364 624 Q363 632 353 676 Q346 705 347 713 Q350 739 388 739 Q421 739 421 718 Q421 709 402 676 Q376 632 372 623 L374 621 Q404 652 451 690 Q456 692 461 692 Q489 692 489 656 Q489 632 466 626 Q438 623 377 615 L377 611 Q411 607 464 592 Q477 585 477 572 Q477 558 464 545 Q451 532 437 532 Q427 532 419 539 Q405 559 374 602 L369 601 Q369 587 377 551.5 Q385 516 384 511 Q380 484 344 484 Z " />
<glyph glyph-name="plus" unicode="&#x2b;" horiz-adv-x="765" d="M673 321 L407 321 L407 73 L339 73 L339 321 L88 321 L88 389 L339 389 L339 658 L407 658 L407 389 L673 389 L673 321 Z " />
<glyph glyph-name="comma" unicode="&#x2c;" horiz-adv-x="249" d="M199 32 Q151 -52 97 -82 Q73 -95 67 -85 Q63 -77 74 -68 Q108 -42 129 -8 Q126 -8 123 -8 Q99 -8 99 20 Q99 40 111 64 Q127 94 152.5 115.5 Q178 137 198 137 Q222 137 222 108 Q222 72 199 32 Z " />
<glyph glyph-name="&amp;#x2d;" unicode="&#x2d;" horiz-adv-x="504" d="M384 199 Q402 199 417 217 Q432 235 437 253 Q441 272 430 272 L187 272 Q165 272 150 256 Q135 240 135 218 Q135 199 146 199 L384 199 Z " />
<glyph glyph-name="&amp;#x2010;" unicode="&#x2010;" horiz-adv-x="504" d="M384 199 Q402 199 417 217 Q432 235 437 253 Q441 272 430 272 L187 272 Q165 272 150 256 Q135 240 135 218 Q135 199 146 199 L384 199 Z " />
<glyph glyph-name="period" unicode="&#x2e;" horiz-adv-x="299" d="M111 64 Q127 94 152.5 115.5 Q178 137 198 137 Q223 137 223 108 Q223 89 210 64 Q195 34 169.5 13 Q144 -8 123 -8 Q99 -8 99 20 Q99 40 111 64 Z " />
<glyph glyph-name="slash" unicode="&#x2f;" horiz-adv-x="517" d="M527 787 Q542 819 576 819 Q587 819 591 814 Q599 805 591 787 L200 -28 Q188 -54 157 -54 Q124 -54 137 -28 L527 787 Z " />
<glyph glyph-name="zero" unicode="0" horiz-adv-x="578" d="M439 701 Q454 701 473.5 690 Q493 679 502 666 Q507 658 512 623 Q515 604 541 570 Q564 538 564 497 Q564 413 503.5 293.5 Q443 174 358 92 Q263 0 178 0 Q106 0 64 55 Q26 105 26 178 Q26 281 89 396 Q145 497 230 577 Q271 615 330 653 Q403 701 439 701 Z M146 183 Q146 159 158 140 Q171 117 194 117 Q273 117 376 290 Q458 429 472 523 Q480 580 440 582 Q410 583 354 536 Q313 503 280 464 Q233 409 193 331 Q146 241 146 183 Z " />
<glyph glyph-name="one" unicode="1" horiz-adv-x="378" d="M385 704 Q392 703 412.5 679 Q433 655 433 649 Q433 642 404 601 Q385 576 366 550 Q254 387 157 165 Q128 99 122 52 Q122 43 116 26 Q107 12 93 12 Q77 12 43 40 Q9 68 9 84 Q9 87 12 97 Q57 249 202 492 Q225 530 228 552 Q224 551 185 537 Q156 526 134 526 Q95 526 95 564 Q95 579 102.5 594 Q110 609 124 609 Q208 609 305 660 Q308 662 344 689 Q366 706 385 704 Z " />
<glyph glyph-name="two" unicode="2" horiz-adv-x="610" d="M231 545 Q231 563 250 589 Q286 639 359 670 Q427 698 493 698 Q561 698 599.5 660.5 Q638 623 638 555 Q638 476 493 374 Q434 335 320 251 Q285 228 219 178 Q205 166 205 159 Q205 145 221 145 Q235 145 277.5 153 Q320 161 342 161 Q372 161 403 150 Q444 137 444 113 Q444 89 425.5 60 Q407 31 393 29 Q388 28 361.5 36.5 Q335 45 316 45 Q194 45 62 0 Q42 -7 21 35 Q2 72 2 95 Q2 138 133 240 Q255 332 376 423 Q507 527 507 575 Q507 593 495 606 Q483 619 469 620 Q387 624 328 555 Q316 533 304 511 Q287 482 270 482 Q262 482 246.5 509 Q231 536 231 545 Z " />
<glyph glyph-name="three" unicode="3" horiz-adv-x="572" d="M460 705 Q521 705 556 663.5 Q591 622 588 563 Q583 480 450 395 Q491 361 491 302 Q491 261 472 222 Q430 134 337 69 Q240 0 147 0 Q79 0 43 44 Q10 85 11 154 Q12 188 40.5 239 Q69 290 95 292 Q156 297 156 215 Q156 204 141 184.5 Q126 165 126 154 Q126 111 163 111 Q224 111 291 163 Q361 219 361 278 Q361 321 321 321 Q321 321 261 318 Q239 317 239 386 Q239 402 301 429 Q390 468 417 486 Q479 526 478 575 Q478 597 462 610 Q446 623 424 623 Q380 623 350 596 Q343 590 308 547 Q286 520 265 520 Q246 520 228 530 Q207 541 207 559 Q207 579 244 616 Q273 644 300 662 Q366 705 460 705 Z " />
<glyph glyph-name="four" unicode="4" horiz-adv-x="583" d="M519 695 Q538 695 562 667.5 Q586 640 586 619 Q586 606 532 528 Q498 479 464 431 Q426 374 426 358 Q459 357 492 355 Q545 350 545 331 Q545 310 529 274 Q511 232 493 232 Q477 242 455 242 Q388 242 358 223 Q345 214 313 141.5 Q281 69 280 50 Q280 43 280 32 Q281 18 281 14 Q281 3 250 3 Q233 3 212 15 Q191 27 170 27 Q158 39 158 54 Q158 71 185 131 Q210 185 224 206 Q215 204 142 186 Q79 170 69 170 Q45 170 27 200 Q16 226 4 251 Q1 257 1 267 Q1 314 114 422 Q216 520 342 606 Q473 695 519 695 Z M151 310 Q151 295 171 295 Q214 295 273 315 Q280 317 290 337 Q298 353 384 489 Q398 511 398 530 Q398 545 389 545 Q361 545 256 446 Q151 347 151 329 L151 310 Z " />
<glyph glyph-name="five" unicode="5" horiz-adv-x="605" d="M568 701 Q632 701 632 672 Q632 653 624 616 Q615 573 606 575 Q553 586 502 586 Q451 586 402 575 Q367 567 354 557 Q337 546 323 515 Q317 501 306 471 Q344 483 378 483 Q438 483 470 442 Q497 407 497 349 Q497 301 478 257 Q436 159 346 84 Q247 1 148 1 Q81 1 45 44 Q12 84 11 153 Q10 184 30 217 Q52 254 77 254 Q87 254 97 247 Q107 240 117 234 Q127 228 140 222 Q153 216 153 205 Q146 190 140 175 Q131 155 131 142 Q131 111 167 111 Q222 111 290 174 Q323 205 350 261 Q377 317 377 357 Q377 380 367 392 Q353 407 330 407 Q286 407 241 370 Q226 353 198 322 Q188 323 158.5 346.5 Q129 370 130 379 Q224 512 235 633 Q237 652 239.5 654 Q242 656 260 656 Q278 656 366 672 Q525 701 568 701 Z " />
<glyph glyph-name="six" unicode="6" horiz-adv-x="571" d="M521 704 Q586 704 586 681 Q586 674 571 655 Q561 632 537 594 Q533 590 526 590 Q475 590 417 556.5 Q359 523 329 479 Q389 480 428 441 Q467 402 467 342 Q467 230 356.5 115 Q246 0 135 0 Q73 0 38.5 38 Q4 76 4 139 Q4 241 83 363 Q145 459 240 547 Q410 704 521 704 Z M302 416 Q248 416 191 322 Q139 235 139 175 Q139 110 184 110 Q249 110 313 191 Q374 267 374 334 Q374 416 302 416 Z " />
<glyph glyph-name="seven" unicode="7" horiz-adv-x="523" d="M603 605 Q603 596 570 568 Q524 526 432 443 L466 441 Q489 416 489 389 Q489 370 474 355 L354 358 Q313 317 256.5 243 Q200 169 173 119 Q144 66 144 23 Q144 17 133.5 11 Q123 5 117 5 Q103 5 85 14 Q60 25 54 27 Q20 37 20 55 Q20 95 100 211 Q156 291 213 359 Q209 359 202 359 Q195 358 192 358 Q184 358 184 374 Q184 412 213 448 L297 454 Q338 492 416 579 Q351 554 270 554 Q218 554 202 559 Q169 567 154 601 Q126 662 126 671 Q126 679 143 679 Q137 679 189 670 Q229 663 286 663 Q373 663 520 694 Q544 699 559 699 Q578 699 592 661 Q603 630 603 605 Z " />
<glyph glyph-name="eight" unicode="8" horiz-adv-x="600" d="M581 610 Q611 586 611 545 Q611 495 573 447 Q529 389 442 364 Q442 360 463 323 Q484 286 484 243 Q484 220 467 183 Q430 103 347 52 Q264 1 175 1 Q105 1 60 36 Q11 74 11 142 Q11 299 246 384 Q214 436 214 484 Q214 492 221 512 Q248 591 346 648 Q438 700 526 700 Q552 700 582 692 Q622 680 622 661 Q622 656 609 646 Q600 639 592 625 Q584 611 581 610 Z M376 441 Q410 444 458 473 Q514 508 514 544 Q514 615 454 615 Q400 615 365 579 Q346 559 346 527 Q346 481 376 441 Z M144 178 Q141 146 158 120.5 Q175 95 205 90 Q215 88 225 88 Q270 88 305.5 117 Q341 146 355 195 Q360 211 360 225 Q360 250 345 275 Q331 296 317 316 Q267 305 214 270 Q148 225 144 178 Z " />
<glyph glyph-name="nine" unicode="9" horiz-adv-x="583" d="M29 88 Q29 101 37 107 Q55 110 81.5 116.5 Q108 123 172 167 Q242 213 242 233 Q242 245 220 252 Q204 256 187 260 Q117 289 117 365 Q117 437 171 517 Q225 597 305 648 Q385 699 464 699 Q523 699 558 662 Q593 625 593 566 Q593 444 451 275 Q324 123 194 52 Q102 2 44 2 Q25 2 25 15 Q25 26 27 50.5 Q29 75 29 88 Z M242 392 Q242 341 284 341 Q346 341 415 424 Q480 505 480 569 Q480 619 431 619 Q363 619 301 538 Q242 462 242 392 Z " />
<glyph glyph-name="colon" unicode="&#x3a;" horiz-adv-x="389" d="M111 64 Q127 94 152.5 115.5 Q178 137 198 137 Q223 137 223 108 Q223 89 210 64 Q195 34 169.5 13 Q144 -8 123 -8 Q99 -8 99 20 Q99 40 111 64 Z M234 333 Q249 363 274.5 384.5 Q300 406 321 406 Q345 406 345 377 Q345 357 333 333 Q317 303 291.5 281.5 Q266 260 246 260 Q221 260 221 289 Q221 309 234 333 Z " />
<glyph glyph-name="semicolon" unicode="&#x3b;" horiz-adv-x="332" d="M199 32 Q151 -52 97 -82 Q73 -95 67 -85 Q63 -77 74 -68 Q108 -42 129 -8 Q126 -8 123 -8 Q99 -8 99 20 Q99 40 111 64 Q127 94 152.5 115.5 Q178 137 198 137 Q222 137 222 108 Q222 72 199 32 Z M234 333 Q249 363 274.5 384.5 Q300 406 321 406 Q345 406 345 377 Q345 357 333 333 Q317 303 291.5 281.5 Q266 260 246 260 Q221 260 221 289 Q221 309 234 333 Z " />
<glyph glyph-name="less" unicode="&#x3c;" horiz-adv-x="833" d="M704 491 L231 298 L704 106 L704 31 L129 267 L129 330 L704 566 L704 491 Z " />
<glyph glyph-name="equal" unicode="&#x3d;" horiz-adv-x="833" d="M709 429 L709 361 L124 361 L124 429 L709 429 Z M709 235 L709 167 L124 167 L124 235 L709 235 Z " />
<glyph glyph-name="greater" unicode="&#x3e;" horiz-adv-x="833" d="M704 330 L704 267 L129 31 L129 106 L603 298 L129 491 L129 566 L704 330 Z " />
<glyph glyph-name="question" unicode="&#x3f;" horiz-adv-x="621" d="M185 64 Q200 94 225.5 115.5 Q251 137 272 137 Q296 137 296 108 Q296 89 284 64 Q268 34 242.5 13 Q217 -8 197 -8 Q172 -8 172 20 Q172 40 185 64 Z M303 606 Q323 638 358 663 Q398 693 435 693 Q446 693 456 690 Q507 676 507 608 Q507 550 472 488 Q452 450 411 412 Q352 357 350 354 Q331 333 299 281 Q261 222 261 205 Q261 190 282 179 Q300 170 317 170 Q339 170 346 184 Q393 280 432 317 Q479 357 526 398 Q573 439 595 504 Q610 545 610 586 Q610 652 576.5 699.5 Q543 747 490 759 Q466 765 442 765 Q324 765 244 650 Q211 603 211 542 Q211 489 237 469 Q252 456 273 456 Q298 456 325 473 Q349 488 359 507 Q369 528 359 536 Q345 548 324 523 Q311 507 297 507 Q276 507 276 533 Q276 563 303 606 Z " />
<glyph glyph-name="at" unicode="&#x40;" horiz-adv-x="1000" d="M581 232 L610 347 Q593 437 513 437 Q446 437 400 373.5 Q354 310 354 218 Q354 111 445 111 Q492 111 529.5 144.5 Q567 178 581 232 Z M627 417 L655 473 L719 473 L648 192 Q644 176 644 163 Q644 117 693 117 Q742 117 795 167 Q878 245 878 372 Q878 498 785.5 577 Q693 656 541 656 Q412 656 318.5 600 Q225 544 173.5 453.5 Q122 363 122 254 Q122 86 246 -9 Q348 -87 502 -87 Q672 -87 805 6 L832 -34 Q687 -143 508 -143 Q320 -143 201 -52 Q52 62 52 255 Q52 418 151 539 Q296 716 545 716 Q711 716 820 632 Q949 532 949 381 Q949 208 828 112 Q758 57 674 57 Q576 57 576 134 L576 143 Q523 58 429 58 Q276 58 276 220 Q276 335 343.5 412.5 Q411 490 509 490 Q592 490 627 417 Z " />
<glyph glyph-name="A" unicode="A" horiz-adv-x="741" d="M452 367 Q531 332 591 256 Q599 291 608 328 Q634 431 676 526 Q694 566 769 711 Q772 717 770 718 Q768 719 762 717 Q655 684 586 601 Q544 549 476 415 L452 367 Z M548 12 Q553 29 553 60 Q553 174 473 256 Q450 280 416 297 L359 185 Q306 79 235 27 Q175 -16 115 -16 Q84 -16 59 -4 Q16 17 16 66 Q16 87 25 113 Q29 126 40 128 Q45 128 47.5 125.5 Q50 123 50 117 Q49 103 59 89 Q69 75 86 72 Q171 59 246 207 L306 327 Q269 330 261 323.5 Q253 317 252 310 Q256 297 250 266 Q234 236 202 236 Q189 236 179 243 Q157 255 157 284 Q157 319 186 347 Q239 399 334 395 L340 395 L362 438 Q456 625 575 690 Q688 752 810 755 Q833 755 835 750 Q838 746 831 732 Q751 587 713 372 Q679 179 679 14 Q680 0 670 0 L556 0 Q545 0 548 12 Z " />
<glyph glyph-name="B" unicode="B" horiz-adv-x="718" d="M343 161 Q377 183 399 176 Q414 171 398 148 Q394 141 394 126 Q394 99 406 77 Q421 50 447 46 Q492 40 526 74.5 Q560 109 577 171 Q582 189 582 206 Q582 293 455 316 L411 324 Q378 245 343 161 Z M689 119 Q661 43 593 1 Q534 -35 465 -35 Q444 -35 425 -31 Q315 -10 315 85 Q315 98 318 112 Q240 -16 124 -16 Q92 -16 67 -4 Q17 20 17 76 Q17 92 22 113 Q25 126 37 128 Q41 128 44 125.5 Q47 123 47 117 Q47 103 58.5 89 Q70 75 87 72 Q121 67 158 96 Q204 132 235 207 L332 438 Q399 599 525 671 Q544 682 560 689 Q545 692 528 693 Q442 697 369 662 Q301 629 267 576 Q245 539 245 496 Q245 448 263 439 Q276 433 267 423 Q258 414 241 418 Q217 423 190 447 Q152 482 152 530 Q152 540 154 551 Q171 644 297 707 Q417 767 550 761 Q671 756 749 695 Q827 634 827 550 Q827 527 820 505 Q803 440 739 391 Q682 348 611 335 Q648 318 672 283 Q702 242 702 190 Q702 156 689 119 Z M699 506 Q707 527 707 549 Q707 631 618 672 Q578 644 551 612 Q510 566 460 445 L444 405 Q476 397 510 397 Q574 397 623 422 Q679 450 699 506 Z " />
<glyph glyph-name="C" unicode="C" horiz-adv-x="567" d="M573 758 Q551 764 524 764 Q432 764 335 696 Q226 619 150.5 479 Q75 339 75 207 Q75 122 108 62 Q141 2 199 -17 Q238 -30 278 -30 Q357 -30 428 18 Q487 57 520 110 Q541 146 541 178 Q541 234 482 234 Q451 233 428 208 Q410 189 403 166 Q402 162 405 161 Q406 160 416 161 Q424 162 427 159 Q429 156 427 148 Q421 123 387 95 Q346 62 301 62 Q277 62 254 72 Q185 102 185 200 Q185 292 249.5 417.5 Q314 543 405 615 Q484 677 535 670 Q581 663 581 614 Q581 584 565 557 Q561 551 563 548 Q566 541 582 541 Q636 540 655 593 Q665 619 665 646 Q665 732 573 758 Z " />
<glyph glyph-name="D" unicode="D" horiz-adv-x="761" d="M65 136 Q81 146 107 146 Q148 146 206 121 Q235 155 256 207 L353 438 Q421 599 547 671 Q566 682 582 689 Q566 692 549 693 Q464 697 390 662 Q322 629 289 576 Q265 537 265 496 Q265 456 284 439 Q297 428 286 421 Q276 415 262 418 Q236 423 210 447 Q174 481 174 529 Q174 540 176 551 Q191 640 292.5 702 Q394 764 521 764 Q546 764 571 761 Q728 743 790 632 Q825 570 825 484 Q825 380 775 264 Q656 -10 417 -10 Q342 -10 262 20 Q212 -17 151 -17 Q104 -17 72 6 Q35 32 35 77 Q35 119 65 136 Z M650 266 Q717 395 717 506 Q717 626 639 672 Q600 644 572 612 Q532 566 469 415 L353 134 Q344 113 325 84 Q356 74 387 74 Q467 74 541 132 Q608 185 650 266 Z " />
<glyph glyph-name="E" unicode="E" horiz-adv-x="547" d="M560 775 Q535 784 503 784 Q444 784 389 756 Q325 723 286 658 Q251 600 251 545 Q251 447 349 386 Q328 389 306 389 Q135 389 66 262 Q40 213 40 165 Q40 100 88 47 Q131 -1 198 -22 Q238 -35 279 -35 Q357 -35 423 9 Q484 48 511 106 Q529 143 529 174 Q529 206 511 224.5 Q493 243 462 243 Q409 243 392 195 Q389 186 389 178 Q389 150 412 150 Q414 150 420 152 Q425 154 426 152 Q429 149 426 140 Q418 108 391 89 Q346 59 301 59 Q276 59 249 67 Q215 77 193 104.5 Q171 132 171 167 Q171 191 181 215 Q205 268 259 298 Q305 323 356 323 Q381 323 399 316 L435 302 Q449 297 456 303 Q491 333 491 378 Q491 389 487.5 392.5 Q484 396 442 421 Q366 468 366 549 Q366 573 374 594 Q395 645 432 675 Q466 703 501 703 Q513 703 523 699 Q555 689 555 648 Q555 621 542 617 Q538 616 528 623 Q518 630 506 630 Q473 630 455 593 Q450 583 450 574 Q450 551 474 536 Q495 523 520 523 Q574 523 612 574 Q642 615 642 664 Q642 747 560 775 Z " />
<glyph glyph-name="F" unicode="F" horiz-adv-x="515" d="M579 371 Q570 341 563 326 Q546 289 516 252 Q461 182 392 165 Q385 164 383 170 Q382 173 414 202 Q446 231 454 250 Q455 253 454 255 Q453 258 448 256 Q427 244 399 249 Q391 250 383 252 L336 141 Q304 67 240 27 Q185 -8 125 -8 Q92 -8 68 3 Q21 26 21 84 Q21 103 26 121 Q29 134 41 135 Q45 136 48 133 Q51 130 51 125 Q50 111 61.5 96.5 Q73 82 90 80 Q123 74 161 104 Q206 139 241 214 L287 315 Q266 330 240 330 Q200 330 178 307 Q169 298 163 303 Q156 309 163 322 Q182 356 195 369 Q226 403 272 403 Q303 404 326 396 Q383 513 443 566 Q468 589 498 602 Q502 603 502 607 Q502 611 493.5 612 Q485 613 454 619 L321 647 Q293 653 270 653 Q203 653 181 605 Q163 566 181 541 Q187 534 180.5 525.5 Q174 517 167 522 Q130 548 130 600 Q130 617 135 636 Q149 690 196 728 Q248 771 317 771 Q343 771 369 765 L515 731 Q565 720 618 720 Q691 720 759 741 Q805 755 821 765 Q841 778 841 758 Q841 750 829 734 Q782 672 714 638 Q662 612 606 607 Q575 594 546 565 Q500 517 426 350 Q429 350 431 349 Q492 343 559 387 Q569 394 576 389 Q584 384 579 371 Z " />
<glyph glyph-name="G" unicode="G" horiz-adv-x="656" d="M460 618 Q428 479 333 330 Q280 246 198 165 Q122 91 71 65 Q45 52 32 62 Q26 67 26 75 Q26 92 48 105 Q93 130 159 195 Q237 271 292 356 Q340 430 374 516 Q408 602 405 644 Q392 654 380 669 Q365 686 365 713 Q365 752 397 774 Q417 788 437 788 Q459 788 472 773 Q492 750 484 710 Q549 689 612 691 Q707 694 748 726 Q796 790 848 790 Q864 790 876.5 780 Q889 770 889 754 Q889 730 866 706 Q841 678 796 665 Q778 660 761 637 Q732 599 705 518 Q685 430 665 342 Q635 210 595 147 Q487 -26 323 -26 Q295 -26 268 -20 Q177 1 177 76 Q176 145 236 171 Q251 178 267 178 Q312 178 312 137 Q312 130 310 123 Q304 95 283 82 Q272 76 260 69 Q255 54 284 49 Q292 48 303 48 Q385 47 483 196 Q512 239 557 350 Q623 510 632 529 Q655 579 682 618 Q690 630 686 632 Q684 633 670 627 Q624 609 554 609 Q500 608 460 618 Z " />
<glyph glyph-name="H" unicode="H" horiz-adv-x="732" d="M526 7 Q529 25 529 48 Q529 175 450 256 Q430 277 401 293 L336 141 Q304 67 240 27 Q185 -8 125 -8 Q92 -8 68 3 Q20 27 20 81 Q20 98 26 121 Q29 134 41 135 Q45 136 48 133 Q51 130 51 125 Q50 111 61.5 96.5 Q73 82 90 80 Q124 74 161 104 Q207 139 241 214 L291 327 Q248 331 237 322 Q230 317 229 310 Q233 297 227 266 Q211 237 179 237 Q167 237 156 243 Q134 255 134 284 Q134 319 163 347 Q215 398 311 395 Q316 395 321 395 L341 438 Q397 565 489 652 Q485 652 481 652 Q453 652 426 663 Q395 676 389 677 Q347 682 329 653 Q321 641 322 627 Q322 614 331.5 609 Q341 604 341 597 Q341 591 326 592 Q306 593 290 604 Q271 618 271 642 Q271 698 324 734 Q371 765 429 765 Q459 765 504.5 749 Q550 733 574 733 Q593 733 651 748 Q671 753 676 747.5 Q681 742 681 737 Q681 726 664 717 Q628 697 593 662 Q534 600 456 420 L432 365 Q460 353 481 338 Q552 286 589 228 Q610 288 627 328 Q746 617 886 749 Q900 762 908 762 Q912 762 916 759 Q924 750 911 732 Q875 684 828 589 Q774 479 739 372 Q674 175 650 8 Q648 0 642 0 L536 0 Q526 0 526 7 Z " />
<glyph glyph-name="I" unicode="I" horiz-adv-x="530" d="M348 193 Q394 246 439 314 Q498 404 539 498 Q580 592 580 640 Q580 676 555 676 Q518 676 469 600.5 Q420 525 385 420 Q345 303 348 193 Z M554 286 Q477 159 373 76 Q387 46 408 31 Q418 24 418 12 Q418 -15 390 -15 Q357 -15 327 44 Q237 -14 163 -14 Q141 -14 123 -9 Q41 14 41 145 Q41 184 50 239 Q55 264 73 258 Q114 244 158 242 Q212 239 249 246 Q262 249 263 233 Q263 212 246 207 Q211 196 175 196 Q142 196 120 204 Q116 206 112 205 Q105 203 105 178 Q105 138 123 109 Q143 75 181 75 Q228 75 300 143 Q297 168 297 197 Q297 312 339 442 Q385 584 469.5 684.5 Q554 785 618 775 Q681 766 681 658 Q681 497 554 286 Z " />
<glyph glyph-name="J" unicode="J" horiz-adv-x="481" d="M271 116 Q142 63 91 -17 Q59 -67 59 -106 Q59 -144 87 -144 Q114 -144 155 -95 Q196 -46 233 33 L271 116 Z M493 135 Q489 135 485 136 Q459 148 406 147 L355 31 Q312 -67 244 -138 Q167 -216 96 -216 Q82 -216 69 -213 Q-5 -196 -5 -111 Q-5 -53 30 0 Q118 132 301 184 L303 185 L462 529 Q488 586 488 626 Q488 671 458 671 Q432 671 394 633 Q352 592 319 528 Q269 432 269 329 Q269 281 280 253 Q292 222 276 209 Q259 196 249 212 Q215 265 215 359 Q215 443 246 522 Q288 631 368 696 Q439 754 507 754 Q598 754 598 645 Q598 586 571 524 L430 202 Q474 200 502 189 Q520 182 520 166 Q520 155 511.5 145 Q503 135 493 135 Z " />
<glyph glyph-name="K" unicode="K" horiz-adv-x="749" d="M676 747.5 Q681 742 681 737 Q681 726 664 717 Q629 698 593 662 Q543 610 465 434 Q525 424 563 442 Q620 469 679 541 Q724 601 769 660 Q819 721 862 729 Q876 732 889 732 Q933 732 958 701 Q979 674 979 635 Q979 613 971.5 595 Q964 577 954 579 Q940 581 945 600 Q946 604 946 608 Q946 646 914 652 Q907 653 900 653 Q849 653 808 577 Q770 507 751 479 Q699 402 650 379 Q620 365 590 359 Q635 316 635 259 Q635 231 626 186 Q616 138 616 131 Q613 64 652 60 Q688 56 707 89 Q717 107 730 102 Q739 98 732 81 Q717 47 678 19 Q635 -11 591 -11 Q558 -11 531 7 Q499 29 499 84 Q499 112 509.5 172.5 Q520 233 520 259 Q520 288 511 306 Q494 341 431 357 L336 141 Q303 67 239 27 Q184 -8 125 -8 Q92 -8 68 3 Q20 27 20 81 Q20 98 26 121 Q29 134 41 135 Q45 136 48 133 Q51 130 51 125 Q50 111 61.5 96.5 Q73 82 90 80 Q124 74 161 104 Q207 139 241 214 L341 438 Q397 565 489 652 Q485 652 481 652 Q453 652 426 663 Q395 676 389 677 Q347 682 329 653 Q321 641 322 627 Q322 614 331.5 609 Q341 604 341 597 Q341 591 326 592 Q306 593 290 604 Q271 618 271 642 Q271 698 324 734 Q371 765 429 765 Q459 765 504.5 749 Q550 733 574 733 Q593 733 651 748 Q671 753 676 747.5 Z " />
<glyph glyph-name="L" unicode="L" horiz-adv-x="743" d="M644 770 Q523 765 444 647 Q416 605 378 514 Q347 442 316 370 Q252 230 243 211 Q215 153 204 138 Q142 144 92 124 Q39 103 27 57 Q24 45 24 35 Q24 -20 99 -20 Q192 -20 258 47 Q278 46 341 8 Q408 -32 466 -39 Q491 -42 515 -42 Q588 -42 652 -8 Q729 34 729 101 Q729 138 702 138 Q695 138 687.5 133 Q680 128 680 122 Q680 116 680 110 Q679 100 667 87 Q643 61 558 61 Q528 61 499 65 Q447 72 395 93 Q332 119 319 122 Q355 170 425 334 Q502 514 524 556 Q561 630 592 643.5 Q623 657 641 646 Q656 636 654 613 Q654 603 633 586 Q625 579 640.5 573 Q656 567 678 565 Q716 562 748 594.5 Q780 627 780 665 Q780 711 735 743 Q694 772 644 770 Z " />
<glyph glyph-name="M" unicode="M" horiz-adv-x="897" d="M119 145 Q111 147 103 147 Q52 147 34 93 Q29 80 29 68 Q29 34 58 14 Q84 -4 118 -4 Q195 -4 276 77 Q311 112 378 203 Q451 304 465 320 Q475 331 479 326 Q481 323 475 307 Q456 255 444 171 Q421 15 425 1 Q427 -12 441 -9 Q447 -7 453 3 Q519 135 662 314 Q676 332 681 329 Q684 327 672 297 Q625 177 625 80 Q625 -51 737 -55 Q793 -57 834.5 -20 Q876 17 872 66 Q869 101 829 109 Q820 110 815 105 Q809 100 815 93 Q827 79 812 56.5 Q797 34 771 34 Q730 33 727 77 Q723 161 824 422 Q923 675 980 744 Q991 757 978 761 Q968 764 945 750 Q882 713 768 577 Q677 469 614 376 Q604 361 597 361 Q593 361 592 365 Q591 370 592 379 Q604 442 638 542 Q680 661 727 739 Q737 756 730 761 Q721 766 701 751 Q591 668 412 419 Q362 349 292 240 Q232 147 223 136 Q203 112 179 107 Q161 103 150 116 Q145 123 140 131 Q132 141 119 145 Z " />
<glyph glyph-name="N" unicode="N" horiz-adv-x="704" d="M982 742 Q986 748 987 751 Q988 755 986 756.5 Q984 758 979 758 Q963 758 947 748 Q876 704 767 578 Q674 469 613 374 Q603 359 596 359 Q592 358 591 366 Q591 368 591 377 Q593 425 624 522 Q663 649 722 737 Q734 753 725 758 Q717 764 697 749 Q572 653 406 417 Q356 346 287 238 Q228 145 219 134 Q194 104 172 104 Q154 104 149 113 Q144 122 138 131 Q132 140 115 145 Q106 147 97 147 Q48 147 32 93 Q28 82 28 72 Q28 36 57 14 Q83 -7 120 -7 Q194 -7 271 75 Q298 102 377 205 Q449 298 477 323 Q488 333 490 329 Q493 326 487 310 Q469 260 470 168 Q473 51 491 3 Q496 -9 507 -6 Q516 -4 519 6 Q563 162 666 302 Q758 426 887 516 Q897 568 928 641 Q958 710 982 742 Z " />
<glyph glyph-name="O" unicode="O" horiz-adv-x="596" d="M199 -17 Q133 -14 97.5 30 Q62 74 62 149 Q62 248 124 373 Q203 535 337 649.5 Q471 764 582 764 Q719 764 719 609 Q719 553 699 484 Q732 493 765 512 Q783 522 796 522 Q815 522 815 504 Q815 483 789 467 Q740 438 680 427 Q617 261 495 131 Q347 -24 199 -17 Z M632 474 Q647 526 647 565 Q647 615 622 642 Q601 665 567 665 Q530 612 530 562 Q530 540 538 521 Q556 476 632 474 Z M612 421 Q515 423 485 489 Q472 516 472 548 Q472 595 498 648 Q354 583 252 374 Q197 262 197 188 Q197 93 279 82 Q366 71 478 205 Q565 310 612 421 Z " />
<glyph glyph-name="P" unicode="P" horiz-adv-x="654" d="M399 297 L332 134 Q301 60 238 20 Q184 -15 124 -15 Q91 -15 67 -4 Q17 20 17 76 Q17 92 22 113 Q25 126 37 128 Q41 128 44 125.5 Q47 123 47 117 Q47 103 58.5 89 Q70 75 87 72 Q121 67 158 96 Q204 132 235 207 L332 438 Q399 599 525 671 Q544 682 560 689 Q545 692 528 693 Q442 697 369 662 Q301 629 267 576 Q245 539 245 496 Q245 448 263 439 Q276 433 267 423 Q258 414 241 418 Q217 423 190 447 Q152 482 152 530 Q152 540 154 551 Q171 644 297 707 Q417 767 550 761 Q674 755 749 694 Q824 633 824 542 Q824 524 820 505 Q804 410 697 343 Q598 281 489 280 Q438 279 399 297 Z M618 672 Q578 644 551 612 Q510 566 448 415 L431 375 Q468 367 506 370 Q570 374 622 408 Q679 446 699 506 Q707 527 707 548 Q707 631 618 672 Z " />
<glyph glyph-name="Q" unicode="Q" horiz-adv-x="645" d="M257 71 Q222 93 186 96 Q150 99 121 88.5 Q92 78 89 61 Q86 44 105 36 Q124 28 165 30 Q200 32 257 71 Z M609 71 Q615 64 599 43 Q577 14 543 -7 Q501 -33 462 -32 Q376 -30 320 21 L314 26 Q232 -15 143 -15 Q10 -15 20 57 Q24 89 67.5 117.5 Q111 146 172 148 Q251 151 322 123 Q394 188 452 267 Q502 334 537 428 Q575 526 575 594 Q575 659 539 676 Q525 683 508 683 Q440 683 356.5 596.5 Q273 510 269 447 Q268 418 294 418 Q309 418 323.5 427.5 Q338 437 344 428 Q349 421 339 405 Q288 323 215 326 Q149 330 149 403 Q149 422 155 445 Q180 540 278 641 Q396 762 521 762 Q534 762 547 761 Q693 745 693 577 Q693 472 635 360 Q548 192 402 82 Q463 52 516 52 Q553 52 583 68 Q603 79 609 71 Z " />
<glyph glyph-name="R" unicode="R" horiz-adv-x="741" d="M710 72 Q691 34 656 8 Q618 -21 579 -21 Q542 -21 520 7 Q506 25 506 65 Q506 82 509.5 122 Q513 162 513 182 Q513 235 493 263 Q453 319 411 324 Q412 328 351 178 Q309 77 242 26 Q186 -16 124 -16 Q92 -16 67 -4 Q17 20 17 76 Q17 92 22 113 Q25 126 37 128 Q41 128 44 125.5 Q47 123 47 117 Q47 103 58.5 89 Q70 75 87 72 Q121 67 158 96 Q204 132 235 207 L332 438 Q399 599 525 671 Q544 682 560 689 Q545 692 528 693 Q442 697 369 662 Q301 629 267 576 Q245 539 245 496 Q245 448 263 439 Q276 433 267 423 Q258 414 241 418 Q217 423 190 447 Q152 482 152 530 Q152 540 154 551 Q171 644 297 707 Q417 767 550 761 Q671 756 749 695 Q827 634 827 550 Q827 527 820 505 Q802 435 729 386 Q668 346 585 328 Q620 313 633 282 Q639 267 639 248 Q639 222 624 172.5 Q609 123 609 106 Q609 84 625 74 Q634 68 645 68 Q674 68 694 96 Q701 105 708 105 Q716 105 716 94 Q716 85 710 72 Z M699 506 Q707 527 707 549 Q707 635 618 672 Q578 644 551 612 Q510 566 460 445 L444 405 Q476 397 510 397 Q574 397 623 422 Q679 450 699 506 Z " />
<glyph glyph-name="S" unicode="S" horiz-adv-x="632" d="M524 484 Q519 494 520 506 Q521 515 526 521 Q530 524 530 523 Q537 516 547 516 Q560 516 571.5 528 Q583 540 585 556 Q590 587 563 618 Q536 649 498 662 Q471 672 443 672 Q378 672 354 626 Q344 607 344 586 Q344 515 453 397 L492 355 Q597 242 597 168 Q597 133 578 96 Q548 37 473 -1.5 Q398 -40 308 -40 Q267 -40 226 -31 Q147 -13 97.5 36 Q48 85 48 142 Q48 197 88.5 238 Q129 279 184 276 Q227 274 239 239 Q243 229 240 226 Q240 226 240 226 Q235 227 230 227 Q210 227 191 210.5 Q172 194 169 170 Q164 136 189.5 105 Q215 74 259 57 Q296 42 339 42 Q428 42 458 92 Q468 110 468 131 Q468 190 390 272 L344 320 Q235 435 235 555 Q235 606 258 646 Q322 762 466 762 Q496 762 528 756 Q608 741 655 692 Q698 646 698 589 Q698 567 690 545 Q677 510 643.5 483 Q610 456 577 456 Q539 456 524 484 Z " />
<glyph glyph-name="T" unicode="T" horiz-adv-x="420" d="M841 758 Q841 750 829 734 Q782 672 714 638 Q662 612 606 607 Q575 594 546 565 Q495 512 411 316 L336 141 Q304 67 240 27 Q185 -8 125 -8 Q92 -8 68 3 Q21 26 21 84 Q21 103 26 121 Q29 134 41 135 Q45 136 48 133 Q51 130 51 125 Q50 111 61.5 96.5 Q73 82 90 80 Q124 74 162 103 Q209 138 242 212 L296 334 Q370 502 443 566 Q468 589 498 602 Q502 603 502 607 Q502 611 493.5 612 Q485 613 454 619 L321 647 Q293 653 270 653 Q203 653 181 605 Q163 566 181 541 Q187 534 180.5 525.5 Q174 517 167 522 Q130 548 130 600 Q130 617 135 636 Q149 690 196 728 Q248 771 317 771 Q343 771 369 765 L515 731 Q565 720 618 720 Q691 720 759 741 Q805 755 821 765 Q841 778 841 758 Z " />
<glyph glyph-name="U" unicode="U" horiz-adv-x="641" d="M387 105 Q345 60 293 29 Q232 -6 178 -6 Q141 -6 110 11 Q29 56 29 178 Q29 334 173 513 Q256 615 256 658 Q256 691 223 691 Q199 691 171.5 671 Q144 651 132 621 Q124 605 124 589 Q124 560 145 561 Q147 560 149 557 Q148 535 117.5 517 Q87 499 64 499 Q24 499 24 554 Q24 594 50 639 Q82 695 137.5 729 Q193 763 253 763 Q267 763 281 761 Q362 749 362 670 Q362 644 353 612 Q338 561 279 482 Q246 438 213 394 Q162 321 146 263 Q137 232 137 201 Q137 124 185 100 Q201 92 220 92 Q299 92 383 183 Q386 226 400 274 Q460 477 567 647 Q570 652 576 654 L697 702 Q701 704 703 702 Q706 701 704 697 Q667 630 636 566 Q563 414 528.5 309.5 Q494 205 494 139 Q494 50 552 50 Q591 50 607 82 Q612 93 622 93 Q632 93 630 82 Q626 51 598 25 Q564 -8 518 -8 Q503 -8 488 -4 Q407 14 387 105 Z " />
<glyph glyph-name="V" unicode="V" horiz-adv-x="504" d="M434 477 Q495 645 561 704 Q615 753 675 753 Q673 738 673 718 Q673 640 696 577 Q685 581 671 581 Q637 581 609 561 Q541 512 502 411 Q485 353 469 295 Q446 220 402 154 Q350 77 280 29 Q210 -19 147 -19 Q115 -19 89 -6.5 Q63 6 45.5 52 Q28 98 28 162 Q28 186 31 210 Q46 354 173 513 Q256 615 256 658 Q256 691 223 691 Q199 691 171.5 671 Q144 651 132 621 Q124 605 124 589 Q124 560 145 561 Q147 560 149 557 Q148 535 117.5 517 Q87 499 64 499 Q24 499 24 554 Q24 594 50 639 Q82 695 137.5 729 Q193 763 253 763 Q267 763 281 761 Q369 748 369 660 Q369 635 361 608 Q346 557 287 478 Q224 394 223 393 Q175 322 155 262 Q134 196 134 148 Q134 102 156 90 Q168 84 182 84 Q219 84 263 125 Q307 166 346 231 Q377 285 400 362 Q417 419 434 477 Z " />
<glyph glyph-name="W" unicode="W" horiz-adv-x="572" d="M865 561 Q873 559 881 559 Q932 559 950 612 Q954 625 954 638 Q954 671 926 692 Q900 710 865 710 Q789 710 708 629 Q673 594 606 503 Q533 402 519 386 Q509 375 505 380 Q503 383 509 399 Q528 451 540 535 Q562 691 559 705 Q556 718 543 715 Q536 713 531 702 Q446 534 321 391 Q307 375 303 377 Q300 379 312 408 Q359 529 359 626 Q359 756 246 761 Q191 763 149 726 Q107 689 112 640 Q115 605 155 597 Q164 596 169 601 Q174 606 169 612 Q157 627 172 649.5 Q187 672 213 672 Q254 672 256 629 Q260 558 179 336 Q78 60 26 -3 Q15 -16 29 -20 Q38 -22 61 -9 Q124 29 227 147 Q311 243 370 330 Q380 345 387 345 Q390 345 392 341 Q393 336 391 327 Q357 133 279 2 Q269 -15 276 -19 Q285 -25 305 -10 Q412 70 571 287 Q626 360 693 465 Q756 563 761 569 Q780 593 804 599 Q823 603 834 590 Q839 582 844 575 Q852 565 865 561 Z " />
<glyph glyph-name="X" unicode="X" horiz-adv-x="671" d="M646 96 Q629 49 589 18 Q543 -19 480 -18 Q386 -17 358 121 Q353 150 357 241 L101 3 Q78 -18 39 -18 Q-4 -18 -4 1 Q-4 7 4 14 L365 346 Q384 523 384 567 Q384 593 381 609 Q371 659 330 659 Q311 659 297 644.5 Q283 630 283 611 Q283 598 290 586 Q291 584 286 580 Q265 564 234 569 Q212 572 199 592 Q186 612 186 638 Q186 651 189 662 Q204 716 253 745 Q295 770 348 770 Q412 770 452 734 Q492 698 501 634 Q507 588 492 460 L740 689 Q763 711 798 711 Q835 711 835 692 Q835 685 827 678 L481 354 Q476 288 476 243 Q476 52 545 52 Q599 52 626 102 Q636 119 645 117 Q653 115 646 96 Z " />
<glyph glyph-name="Y" unicode="Y" horiz-adv-x="467" d="M660 732 L432 202 Q476 200 504 189 Q522 182 522 166 Q522 155 513.5 145 Q505 135 494 135 Q490 135 487 136 Q460 148 408 147 L357 31 Q314 -68 248 -137 Q172 -217 98 -217 Q83 -217 69 -213 Q-4 -196 -4 -109 Q-4 -52 30 0 Q118 132 303 185 L315 211 Q274 199 240 199 Q189 199 160 225 Q126 256 126 311 Q126 403 206 513 Q278 611 278 655 Q278 691 242 691 Q219 691 193 671 Q167 651 157 621 Q152 607 152 594 Q152 560 175 561 Q179 561 179 557 Q180 535 150.5 517 Q121 499 98 499 Q54 499 54 562 Q54 599 74 639 Q101 695 154 729 Q207 763 267 763 Q282 763 296 761 Q383 748 383 658 Q383 637 378 612 Q366 559 314 482 Q253 391 253 350 Q253 309 300 309 Q339 309 370 335 L548 734 Q555 750 568 750 L651 752 Q658 752 661 747 Q664 740 660 732 Z M271 116 Q142 63 91 -17 Q59 -67 59 -106 Q59 -144 87 -144 Q114 -144 155 -95 Q196 -46 233 33 L271 116 Z " />
<glyph glyph-name="Z" unicode="Z" horiz-adv-x="474" d="M549 516 Q512 417 427.5 332 Q343 247 272 234 Q345 208 375 138 Q402 146 442 154 Q469 159 472 142 Q476 119 450 112 Q430 107 387 96 Q394 52 379 4 Q346 -101 264.5 -174.5 Q183 -248 99 -245 Q14 -242 14 -156 Q14 -112 36 -72 Q86 18 258 95 Q246 125 207 147 Q174 164 137 167 Q133 168 131 175 Q128 189 136.5 219.5 Q145 250 158 251 Q223 254 308 316 Q388 374 424 434 Q468 509 468 572 Q468 624 436 640 Q423 646 408 646 Q378 646 346.5 624.5 Q315 603 295 573 Q283 555 283 542 Q283 530 297 532 Q305 533 307 527 Q309 520 303 513 Q279 480 238 480 Q220 480 208 491 Q192 506 192 539 Q192 599 240 662 Q276 709 330 737.5 Q384 766 438 766 Q467 766 492 757 Q574 731 574 637 Q574 585 549 516 Z M267 53 Q203 22 145 -24 Q67 -85 67 -146 Q67 -182 100 -182 Q128 -182 164 -156 Q204 -128 237 -79 Q274 -26 267 53 Z " />
<glyph glyph-name="bracketleft" unicode="&#x5b;" horiz-adv-x="354" d="M96 -140 L258 779 L453 779 L441 711 L334 711 L196 -72 L303 -72 L291 -140 L96 -140 Z " />
<glyph glyph-name="backslash" unicode="&#x5c;" horiz-adv-x="301" d="M240 -53 L-1 778 L59 778 L302 -53 L240 -53 Z " />
<glyph glyph-name="bracketright" unicode="&#x5d;" horiz-adv-x="354" d="M370 779 L208 -140 L13 -140 L25 -72 L132 -72 L270 711 L163 711 L175 779 L370 779 Z " />
<glyph glyph-name="asciicircum" unicode="&#x5e;" horiz-adv-x="1000" d="M545 712 L794 440 L706 440 L500 645 L293 440 L205 440 L454 712 L545 712 Z " />
<glyph glyph-name="underscore" unicode="&#x5f;" horiz-adv-x="500" d="M500 -86 L500 -156 L0 -156 L0 -86 L500 -86 Z " />
<glyph glyph-name="grave" unicode="&#x60;" horiz-adv-x="182" d="M304 796 L297 781 Q258 801 222 838 Q178 884 184 918 Q190 952 224 952 Q237 952 241 931 Q242 909 252 867 Q266 835 304 796 Z " />
<glyph glyph-name="a" unicode="a" horiz-adv-x="384" d="M491 169 Q462 101 417 56 Q356 -4 281 -7 Q237 -9 215 21 Q200 42 199 70 Q180 43 143 21 Q101 -5 67 -5 Q46 -5 31 5 Q6 22 6 67 Q6 134 46.5 210.5 Q87 287 150 341 Q219 400 280 399 Q320 399 326 377 L331 387 Q334 393 341 393 L412 393 Q419 393 415 384 L311 153 Q299 125 299 106 Q299 79 328 79 Q385 79 450 214 Q457 226 475 215 Q494 204 494 182 Q494 175 491 169 Z M294 314 Q298 324 298 332 Q298 351 279 351 Q249 351 212 322 Q170 287 140.5 227.5 Q111 168 111 132 Q111 92 146 92 Q191 92 214 140 L294 314 Z " />
<glyph glyph-name="b" unicode="b" horiz-adv-x="382" d="M488 166 Q464 103 419 60 Q351 -7 286 -7 Q274 -7 263 -4 Q227 3 211 30 Q151 -10 90 -10 Q52 -10 25.5 14.5 Q-1 39 -1 76 Q-1 101 11 126 L268 662 Q276 680 301 691.5 Q326 703 350 703 Q381 703 381 683 Q381 677 377 669 L240 388 Q259 399 282 399 Q298 399 312 394 Q364 375 364 299 Q364 206 293 111 Q306 79 331 79 Q385 79 446 209 Q454 225 467 221 Q491 213 491 180 Q491 172 488 166 Z M283.5 332.5 Q273 344 257 344 Q234 344 214 329 L124 144 Q120 136 120 126 Q120 90 152 90 Q158 90 166 92 Q204 102 249 173 Q294 244 294 297 Q294 321 283.5 332.5 Z " />
<glyph glyph-name="c" unicode="c" horiz-adv-x="323" d="M374 343 Q373 313 353 283 Q330 248 302 248 Q274 248 273 275 Q273 300 295 320.5 Q317 341 341 337 Q340 355 312 355 Q282 355 241 311 Q203 271 173.5 213 Q144 155 144 113 Q144 53 206 53 Q268 53 323 111 Q353 142 375 186 Q379 195 388 195 Q397 195 407 186 Q425 171 417 147 Q405 113 369 69 Q299 -13 175 -13 Q144 -13 115 -7 Q31 11 31 102 Q31 159 65 220 Q108 295 175.5 348 Q243 401 306 401 Q333 401 353.5 386 Q374 371 374 343 Z " />
<glyph glyph-name="d" unicode="d" horiz-adv-x="384" d="M491 169 Q462 101 417 56 Q356 -4 281 -7 Q237 -9 215 21 Q200 42 199 70 Q180 43 143 21 Q101 -5 67 -5 Q46 -5 31 5 Q6 22 6 67 Q6 134 46.5 210.5 Q87 287 150 341 Q219 400 280 399 Q320 399 326 377 L490 742 Q493 748 500 748 L571 748 Q578 748 574 739 L311 153 Q299 125 299 106 Q299 79 328 79 Q385 79 450 214 Q457 226 475 215 Q494 204 494 182 Q494 175 491 169 Z M294 314 Q298 324 298 332 Q298 351 279 351 Q249 351 212 322 Q170 287 140.5 227.5 Q111 168 111 132 Q111 92 146 92 Q191 92 214 140 L294 314 Z " />
<glyph glyph-name="e" unicode="e" horiz-adv-x="324" d="M155 173 Q282 231 319 316 Q325 330 325 339 Q325 353 312 355 Q290 358 247 314.5 Q204 271 174 213 Q163 192 155 173 Z M417 147 Q405 113 369 69 Q299 -13 175 -13 Q144 -13 115 -7 Q32 11 32 101 Q32 159 65 220 Q107 296 175 348 Q243 400 306 401 Q337 401 354 389 Q373 374 371 344 Q365 274 287 207 Q220 149 144 124 Q139 68 177 57 Q191 53 206 53 Q268 53 323 111 Q353 142 375 186 Q379 195 388 195 Q397 195 407 186 Q425 171 417 147 Z " />
<glyph glyph-name="f" unicode="f" horiz-adv-x="332" d="M220 306 Q314 352 395 455 Q439 512 469 573 Q496 630 496 658 Q496 672 488 675 Q471 680 415 613 Q353 541 286 428 Q252 370 220 306 Z M543 755 Q564 748 564 716 Q564 669 521 582 Q482 503 432 438 Q315 285 195 246 L192 245 L186 233 Q232 147 291 125 Q324 111 348 130 Q366 145 388 192 Q390 197 396 197 Q406 197 418.5 183.5 Q431 170 431 157 Q431 153 430 150 Q411 108 395 90 Q358 50 298 50 Q285 50 271 52 Q214 59 162 159 L-6 -178 Q-17 -200 -47 -214 Q-77 -228 -98 -224 Q-114 -221 -114 -207 Q-114 -200 -110 -190 L68 187 Q43 197 43 216 Q42 236 51.5 262 Q61 288 70.5 296 Q80 304 114 306 L146 363 Q237 528 339 639 Q448 759 520 759 Q532 759 543 755 Z " />
<glyph glyph-name="g" unicode="g" horiz-adv-x="384" d="M477 138 Q464 113 449 92 Q387 7 232 -31 L172 -159 Q150 -205 101 -230 Q58 -253 13 -253 Q-23 -253 -47 -236 Q-75 -217 -75 -182 Q-75 -158 -61 -130 Q-38 -86 47 -44 Q102 -20 158 4 L182 53 Q162 32 129 15 Q93 -4 64 -4 Q44 -4 31 5 Q6 22 6 67 Q6 134 46.5 210.5 Q87 287 150 341 Q219 400 280 399 Q320 399 326 377 L331 387 Q334 393 341 393 L412 393 Q419 393 415 384 L268 44 Q299 57 330 71 Q375 94 403 132 Q427 164 450 214 Q457 227 475 215 Q494 203 494 181 Q494 170 477 138 Z M294 314 Q298 324 298 332 Q298 351 279 351 Q249 351 212 322 Q170 287 140.5 227.5 Q111 168 111 132 Q111 92 146 92 Q191 92 214 140 L294 314 Z M126 -67 Q1 -105 -13 -146 Q-17 -154 -17 -162 Q-17 -188 18 -188 Q68 -188 94 -133 L126 -67 Z " />
<glyph glyph-name="h" unicode="h" horiz-adv-x="397" d="M372 659 L232 355 Q273 402 321 399 Q350 398 367.5 377 Q385 356 385 322 Q385 314 384 306 Q381 281 345 203 Q312 129 312 105 Q312 79 341 79 Q399 79 465 216 Q470 226 489 214 Q508 202 508 182 Q508 175 505 167 Q465 77 402 32 Q350 -6 295 -6 Q255 -6 229 15.5 Q203 37 203 77 Q203 106 219 139 L261 228 Q281 270 281 300 Q281 322 264 322 Q240 322 204 272 Q177 233 156 189 L72 9 Q68 0 59 0 L-24 0 Q-33 0 -29 9 L262 642 Q271 661 300.5 680 Q330 699 354 702 Q379 705 379 685 Q379 675 372 659 Z " />
<glyph glyph-name="i" unicode="i" horiz-adv-x="210" d="M146 387 Q149 393 156 393 L239 393 Q246 393 242 384 L138 153 Q126 125 126 106 Q126 79 155 79 Q212 79 277 214 Q284 226 302 215 Q321 204 321 182 Q321 175 318 169 Q289 101 244 56 Q183 -4 108 -7 Q65 -9 39.5 14.5 Q14 38 14 77 Q14 107 29 139 L146 387 Z M204 514 Q220 544 245 565.5 Q270 587 291 587 Q316 587 316 558 Q316 539 303 514 Q287 484 262 463 Q237 442 216 442 Q191 442 191 471 Q191 490 204 514 Z " />
<glyph glyph-name="j" unicode="j" horiz-adv-x="217" d="M325 171 Q296 86 205 9 Q119 -64 27 -89 L2 -141 Q-39 -225 -104 -263 Q-157 -293 -204 -293 Q-236 -293 -259 -277.5 Q-282 -262 -282 -232 Q-282 -199 -258 -158 Q-234 -117 -197 -88 Q-124 -28 -36 -19 L141 385 Q145 393 153 393 L246 393 Q256 393 250 382 L65 -12 Q125 11 191 79 Q244 133 282 211 Q288 223 302 218 Q327 210 327 183 Q327 177 325 171 Z M-61 -88 Q-127 -93 -175.5 -134.5 Q-224 -176 -224 -211 Q-224 -236 -196 -236 Q-170 -236 -139.5 -216 Q-109 -196 -94 -161 L-61 -88 Z M224 555 Q240 585 265.5 606.5 Q291 628 311 628 Q336 628 336 599 Q336 579 323 555 Q308 525 282.5 503.5 Q257 482 236 482 Q212 482 212 511 Q212 530 224 555 Z " />
<glyph glyph-name="k" unicode="k" horiz-adv-x="389" d="M496 171 Q460 84 399 36 Q344 -6 284 -6 Q208 -6 200 62 Q197 87 211.5 129.5 Q226 172 226 181 Q226 199 194 197 Q162 195 159 212 L61 10 Q56 1 49 1 L-26 1 Q-36 1 -31 11 L270 652 Q280 673 307 688.5 Q334 704 357 705 Q381 706 381 687 Q381 680 377 670 Q320 546 184 265 Q191 258 199 259 Q212 261 241 296 Q280 343 301 360 Q342 394 385 394 Q451 394 456 332 Q458 299 437 271 Q416 243 385 243 Q369 243 361 254.5 Q353 266 354 280 Q358 312 391 324 Q406 330 406 342 Q406 350 393 349 Q371 347 319 287 Q292 254 265 221 Q317 211 312 164 Q312 154 307 133 Q302 112 302 103 Q302 78 328 78 Q359 78 396 120 Q430 159 453 213 Q457 221 467 219 Q478 217 488 206 Q498 195 498 182 Q498 176 496 171 Z " />
<glyph glyph-name="l" unicode="l" horiz-adv-x="262" d="M210 304 Q284 359 350 458 Q388 515 412 575 Q435 630 435 661 Q435 680 425 682 Q407 686 356 615 Q301 538 243 422 Q135 203 135 105 Q135 54 175 54 Q212 54 262 110 Q291 142 313 186 Q317 195 326 195 Q335 195 345 186 Q362 172 353 149 Q336 101 308 69 Q233 -15 139 -15 Q111 -15 87 -5 Q38 15 38 99 Q38 221 141 415 Q222 568 319 671 Q409 767 461 767 Q497 767 497 717 Q497 668 463 585 Q432 509 390 444 Q313 327 227 260 Q218 253 211 253 Q203 253 200 264 Q193 292 210 304 Z " />
<glyph glyph-name="m" unicode="m" horiz-adv-x="569" d="M222 379 L205 340 Q260 396 317 395 Q368 395 380 343 Q433 397 491 396 Q520 395 538 375 Q556 355 556 322 Q556 314 555 306 Q551 278 516 203 Q483 133 483 105 Q483 79 512 79 Q571 79 636 216 Q641 226 660 214 Q679 202 679 183 Q679 175 676 168 Q636 77 573 32 Q521 -6 466 -6 Q379 -6 379 74 Q379 103 394 139 L431 227 Q451 277 451 301 Q451 323 436 323 Q415 323 382 273 Q363 245 337 189 L256 13 Q250 0 242 0 L163 0 Q152 0 157 11 L259 228 Q279 269 279 298 Q279 323 261 323 Q219 323 153 189 L65 9 Q61 0 52 0 L-26 0 Q-36 0 -32 9 L144 385 Q147 393 158 393 L215 393 Q228 393 222 379 Z " />
<glyph glyph-name="n" unicode="n" horiz-adv-x="398" d="M226 381 L207 338 Q259 398 321 395 Q386 393 386 322 Q386 314 385 306 Q382 281 346 203 Q313 129 313 105 Q313 79 342 79 Q400 79 466 216 Q471 226 490 214 Q509 202 509 182 Q509 175 506 167 Q466 77 403 32 Q351 -6 296 -6 Q256 -6 230 15.5 Q204 37 204 77 Q204 106 220 139 L263 228 Q283 268 283 297 Q283 323 264 323 Q240 323 203 275 Q176 240 152 188 L69 9 Q65 0 56 0 L-23 0 Q-32 0 -28 9 L145 384 Q149 393 160 393 L217 393 Q231 393 226 381 Z " />
<glyph glyph-name="o" unicode="o" horiz-adv-x="402" d="M373 194 Q354 155 325 118 Q351 101 375 104 Q418 110 466 210 Q473 224 486 218 Q498 213 506 200.5 Q514 188 511 177 Q508 161 488 127 Q466 87 445 68 Q413 39 363 39 Q313 39 277 66 Q191 -15 112 -15 Q70 -15 47 11.5 Q24 38 24 84 Q24 134 52 194 Q94 280 170 341.5 Q246 403 313 403 Q355 403 378 376.5 Q401 350 401 304 Q401 254 373 194 Z M246 308 Q189 274 152 196 Q131 152 131 118 Q131 73 165 73 Q197 73 238 112 Q213 157 217 206 Q224 268 246 308 Z M318 274 Q318 300 306 312 Q275 263 277 207 Q278 189 284 172 Q318 229 318 274 Z " />
<glyph glyph-name="p" unicode="p" horiz-adv-x="371" d="M375 315 Q374 202 283 96 Q290 81 305 79 Q366 72 432 207 Q440 224 456 218 Q478 211 478 183 Q478 173 473 162 Q448 107 411 65 Q349 -3 270 -6 Q221 -8 196 22 Q164 2 128 1 Q90 0 65 27 L-48 -184 Q-57 -202 -81 -214 Q-105 -226 -126 -226 Q-160 -226 -145 -197 L162 402 Q168 413 179 410 L236 393 Q245 391 246 378 Q272 395 302 395 Q333 395 353 376 Q375 354 375 315 Z M194 288 Q151 198 93 85 Q104 70 132 70 Q195 70 252 185 Q287 256 287 303 Q287 337 260 337 Q242 337 223 322.5 Q204 308 194 288 Z " />
<glyph glyph-name="q" unicode="q" horiz-adv-x="384" d="M411 384 L262 75 L266 72 Q295 63 346 83 Q394 102 446 208 Q452 220 463 220 Q474 219 483 207 Q492 195 492 181 Q492 175 490 169 Q459 87 402 42 Q349 2 304 -5 Q307 -56 280.5 -113 Q254 -170 213 -208 Q167 -250 120 -251 Q56 -253 56 -197 Q56 -164 79 -120 L152 17 Q130 6 106 6 Q71 6 49.5 29.5 Q28 53 28 99 Q28 179 76 260 Q155 390 254 392 Q299 393 318 356 L331 385 Q335 393 342 393 L406 393 Q409 393 411 390 Q413 387 411 384 Z M293 308 Q293 321 284.5 326.5 Q276 332 265 330 Q206 322 147 214 Q117 158 117 112 Q117 71 147 71 Q175 71 188 96 Q241 202 293 308 Z M216 -119 Q253 -50 250 -19 Q247 1 229 9 Q206 -38 143 -164 Q125 -200 125 -212 Q125 -218 129 -220 Q155 -231 216 -119 Z " />
<glyph glyph-name="r" unicode="r" horiz-adv-x="363" d="M185 434 Q208 434 221 418.5 Q234 403 234 388 Q233 378 234 376 Q235 372 247 370 Q259 368 266.5 371.5 Q274 375 283 383 Q298 392 310 392 L381 392 Q399 392 389 372 L303 186 Q279 134 279 107 Q279 79 307 79 Q346 79 388 139 Q411 179 434 219 Q442 232 461 210 Q480 188 471 167 Q445 105 395 55 Q334 -6 271 -5 Q171 -4 171 83 Q171 113 185 143 L248 280 Q260 307 250 316 Q235 330 207 321 Q177 312 166 287 Q157 268 134 218 Q88 121 65 95 Q63 92 59 92 Q48 94 39.5 113 Q31 132 34 151 Q35 156 37 160 Q48 181 89 262 Q106 295 121 335 Q115 344 114 357 Q113 388 133.5 411 Q154 434 185 434 Z " />
<glyph glyph-name="s" unicode="s" horiz-adv-x="328" d="M303 188 Q302 134 268 81 Q264 74 266 71 Q272 63 301 85 Q321 102 332 114 Q374 162 395 215 Q397 220 403 220 Q415 220 427 209.5 Q439 199 439 185 Q439 158 401 105 Q368 61 341 39 Q285 -6 224 -6 Q197 -6 176 5 Q130 -14 89 -14 Q56 -14 29 -1 Q-24 23 -21 81 Q-18 123 13 153 Q91 230 174 381 Q188 405 190 414 Q202 456 243 456 Q278 456 278 425 Q278 412 270 398 Q267 393 244 370 Q228 353 228 338 Q228 330 245.5 305.5 Q263 281 282 256 Q303 223 303 188 Z M192 140 Q199 167 199 194 Q199 239 183 268 Q148 197 100 150 Q119 136 119 113 Q119 101 113 87 Q97 46 51 46 Q45 46 40 47 Q53 27 82 27 Q166 26 192 140 Z " />
<glyph glyph-name="t" unicode="t" horiz-adv-x="227" d="M334 169 Q257 -7 104 -7 Q62 -7 37 15.5 Q12 38 12 76 Q12 106 28 139 L113 319 L94 319 Q83 319 83 338 Q83 360 98 376 Q113 392 135 392 L148 392 L208 519 Q220 544 253 558 Q280 569 304 566 Q319 563 319 552 Q319 547 316 541 L248 392 L298 392 Q309 392 305 373 Q301 355 285.5 337 Q270 319 252 319 L214 319 L138 153 Q125 125 125 107 Q125 75 160 75 Q184 75 208 93 Q255 129 294 214 Q300 226 318 215 Q337 204 337 182 Q337 175 334 169 Z " />
<glyph glyph-name="u" unicode="u" horiz-adv-x="383" d="M410 382 L315 170 Q296 129 296 106 Q296 83 316 80 Q379 71 447 210 Q452 219 461 219 Q477 219 486 200.5 Q495 182 489 167 Q458 91 401 42 Q340 -8 276 -7 Q208 -5 193 62 Q131 -6 70 -6 Q38 -6 18.5 14 Q-1 34 -1 66 Q-1 89 10 115 L124 371 Q131 385 155.5 397 Q180 409 201 409 Q224 409 224 393 Q224 388 221 382 L120 140 Q111 118 111 103 Q111 82 126 79 Q147 74 171.5 92 Q196 110 207 137 L307 364 Q313 378 343.5 391 Q374 404 396 403 Q413 402 413 391 Q413 387 410 382 Z " />
<glyph glyph-name="v" unicode="v" horiz-adv-x="371" d="M366 236 Q322 160 271 106 Q289 79 313 79 Q353 79 391 134 Q422 179 438 215 Q440 222 453 218 Q481 210 481 183 Q481 174 477 164 Q460 124 427 82.5 Q394 41 366 26 Q332 7 322 3 Q290 -8 249 -5 Q232 -4 211.5 8.5 Q191 21 183 33 Q137 5 91 -1 Q52 -6 30 14 Q8 34 8 72 Q8 97 18 127 L109 385 Q112 393 119 393 L205 393 Q214 393 211 383 L129 148 Q119 120 119 101 Q119 73 137 71 Q169 67 218 120 Q262 167 286 217 Q301 251 301 281 Q301 312 281 312 Q274 312 266 309 Q258 306 258 316 Q258 340 283 371 Q314 408 354 408 Q361 408 369 407 Q407 400 407 355 Q407 306 366 236 Z " />
<glyph glyph-name="w" unicode="w" horiz-adv-x="548" d="M311 140 L415 382 Q418 388 418 393 Q418 409 395 409 Q374 409 349.5 397 Q325 385 318 371 L206 124 Q166 71 133 79 Q118 82 118 103 Q118 119 127 140 L233 378 Q235 383 235 388 Q235 409 209 409 Q188 409 163 397 Q138 385 132 371 L18 115 Q6 89 6 66 Q6 37 23 18.5 Q40 0 62 -5 Q72 -7 83 -7 Q144 -7 191 52 Q192 30 209.5 13 Q227 -4 246 -5 Q307 -8 358 33 Q366 21 386.5 8.5 Q407 -4 424 -5 Q465 -8 497 3 Q507 7 541 26 Q569 41 602 82.5 Q635 124 652 164 Q656 174 656 183 Q656 210 628 218 Q615 222 613 215 Q597 179 566 134 Q528 79 488 79 Q464 79 446 106 Q497 160 541 236 Q582 306 582 355 Q582 400 544 407 Q536 408 529 408 Q489 408 458 371 Q433 340 433 316 Q433 306 441 309 Q449 312 456 312 Q477 312 477 281 Q477 250 461 217 Q433 163 394 121 Q349 74 317 79 Q302 81 302 102 Q302 118 311 140 Z " />
<glyph glyph-name="x" unicode="x" horiz-adv-x="482" d="M590 171 Q561 102 513 53 Q488 28 450 10.5 Q412 -7 382 -7 Q320 -7 303 86 L298 115 Q211 1 134 1 Q78 2 78 54 Q79 77 96 95 Q113 113 139 113 Q180 113 180 74 Q180 67 178 60 Q178 58 179 57 Q181 55 185 58 Q232 93 285 192 L277 244 Q266 320 241 324 Q197 331 63 88 Q61 86 59 86 Q50 86 38.5 101 Q27 116 27 130 Q27 135 29 138 Q81 257 134 318 Q213 410 271 406 Q306 404 331 366 Q352 335 356 301 L358 278 Q421 390 490 398 Q522 402 541.5 387.5 Q561 373 558 350 Q550 287 494 285 Q460 284 460 315 Q460 323 464 330 Q468 336 460 337 Q457 337 455 336 Q422 313 367 200 L381 137 Q394 78 423 78 Q453 78 489 120 Q523 158 549 214 Q551 220 558 220 Q569 220 580.5 207.5 Q592 195 592 181 Q592 176 590 171 Z " />
<glyph glyph-name="y" unicode="y" horiz-adv-x="367" d="M165 418 Q207 413 207 368 Q207 357 204 345 Q198 311 156.5 223.5 Q115 136 113 124 Q107 88 141 87 Q166 86 194 121 L314 387 Q316 393 324 393 L395 393 Q402 393 398 384 L250 44 Q281 57 312 71 Q358 94 386 132 Q409 164 433 214 Q439 227 458 215 Q477 203 477 181 Q477 168 454 126 Q443 108 431 92 Q370 7 215 -31 L154 -159 Q108 -257 -3 -257 Q-93 -257 -93 -184 Q-93 -159 -78 -130 Q-55 -86 29 -44 Q85 -20 140 4 Q143 9 159 45 Q117 9 71 9 Q42 9 23.5 31 Q5 53 9 92 Q11 112 54 190 Q104 281 113 306 Q125 338 115 347 Q95 364 111 390 Q130 421 165 418 Z M109 -67 Q-16 -105 -31 -146 Q-34 -154 -34 -162 Q-34 -188 0 -188 Q50 -188 77 -133 L109 -67 Z " />
<glyph glyph-name="z" unicode="z" horiz-adv-x="478" d="M558 116 Q494 10 326 -31 L265 -159 Q242 -209 193 -235 Q153 -256 107 -256 Q70 -256 46 -240 Q18 -220 18 -184 Q18 -159 33 -130 Q67 -65 256 6 Q276 42 276 62 Q276 73 271 84 Q227 50 188 50 Q176 50 162 53 Q148 56 138 69 Q128 82 131 98 Q145 158 217 169 Q250 174 281 163 Q297 188 335 246 Q312 238 290 238 Q256 238 239 256 Q230 265 230 292 Q230 298 231 310 Q231 322 231 326 Q231 337 228 338 Q211 343 141 225 Q102 157 63 89 Q60 84 56 84 Q45 84 33 104 Q21 124 26 134 Q175 441 294 433 Q340 430 335 379 Q334 367 316 331 Q300 300 303 294 Q308 284 320 284 Q335 284 354 298.5 Q373 313 381 329 Q431 431 487 435 Q522 438 522 408 Q522 370 442 269 Q380 191 328 141 Q361 125 361 71 Q361 56 357 41 Q455 74 497 132 Q520 164 544 214 Q550 227 569 215 Q588 203 588 181 Q588 164 558 116 Z M220 -67 Q95 -105 80 -146 Q77 -154 77 -162 Q77 -188 111 -188 Q161 -188 188 -133 L220 -67 Z " />
<glyph glyph-name="braceleft" unicode="&#x7b;" horiz-adv-x="500" d="M548 708 L528 708 Q467 708 444 685 Q421 662 409 596 L388 478 Q375 405 351 371 Q323 334 262 319 Q339 298 339 225 Q339 200 332 160 L311 42 Q306 9 306 -10 Q306 -43 324.5 -56.5 Q343 -70 392 -70 L411 -70 L398 -142 L377 -142 Q283 -142 248 -118 Q217 -96 217 -46 Q217 -20 226 32 L247 152 Q252 181 252 202 Q252 245 229 264.5 Q206 284 153 284 Q150 284 142 284 Q135 283 132 283 L145 356 Q149 356 156 356 Q163 355 167 355 Q231 355 262 384.5 Q293 414 306 486 L327 606 Q338 670 351 699 Q368 737 402 756 Q448 781 543 781 L561 781 L548 708 Z " />
<glyph glyph-name="bar" unicode="&#x7c;" horiz-adv-x="500" d="M287 824 L287 -176 L214 -176 L214 824 L287 824 Z " />
<glyph glyph-name="braceright" unicode="&#x7d;" horiz-adv-x="500" d="M388 606 L367 486 Q362 457 362 437 Q362 393 385 374 Q408 355 460 355 Q463 355 470 356 Q478 356 482 356 L469 283 Q465 283 458 284 Q451 284 448 284 Q383 284 352 254 Q321 224 308 152 L287 32 Q275 -32 262 -61 Q245 -99 211 -118 Q168 -142 74 -142 L53 -142 L66 -70 L85 -70 Q146 -70 169.5 -46.5 Q193 -23 205 43 L225 160 Q238 233 264 268.5 Q290 304 351 319 Q274 340 274 414 Q274 439 281 478 L302 596 Q308 628 308 647 Q308 681 289 694.5 Q270 708 222 708 L203 708 L216 781 L234 781 Q329 781 365 756 Q397 734 397 684 Q397 658 388 606 Z " />
<glyph glyph-name="asciitilde" unicode="&#x7e;" horiz-adv-x="833" d="M800 300 Q689 231 598 231 Q556 231 463 265 Q375 297 327 297 Q249 297 126 220 L139 296 Q254 366 341 366 Q395 366 482 333 Q569 300 611 300 Q693 300 813 376 L800 300 Z " />
<glyph glyph-name="Adieresis" unicode="&#xc4;" horiz-adv-x="741" d="M452 367 Q531 332 591 256 Q599 291 608 328 Q634 431 676 526 Q694 566 769 711 Q772 717 770 718 Q768 719 762 717 Q655 684 586 601 Q544 549 476 415 L452 367 Z M548 12 Q553 29 553 60 Q553 174 473 256 Q450 280 416 297 L359 185 Q306 79 235 27 Q175 -16 115 -16 Q84 -16 59 -4 Q16 17 16 66 Q16 87 25 113 Q29 126 40 128 Q45 128 47.5 125.5 Q50 123 50 117 Q49 103 59 89 Q69 75 86 72 Q171 59 246 207 L306 327 Q269 330 261 323.5 Q253 317 252 310 Q256 297 250 266 Q234 236 202 236 Q189 236 179 243 Q157 255 157 284 Q157 319 186 347 Q239 399 334 395 L340 395 L362 438 Q456 625 575 690 Q688 752 810 755 Q833 755 835 750 Q838 746 831 732 Q751 587 713 372 Q679 179 679 14 Q680 0 670 0 L556 0 Q545 0 548 12 Z M822 856 Q826 876 842.5 889.5 Q859 903 878 903 Q898 903 909.5 889.5 Q921 876 917 856 Q914 837 897.5 823 Q881 809 862 809 Q841 809 830 822.5 Q819 836 822 856 Z M689 856 Q693 876 709 889.5 Q725 903 744 903 Q764 903 775.5 889.5 Q787 876 783 856 Q780 836 764 822.5 Q748 809 728 809 Q708 809 697 823 Q686 837 689 856 Z " />
<glyph glyph-name="Aring" unicode="&#xc5;" horiz-adv-x="741" d="M452 367 Q531 332 591 256 Q599 291 608 328 Q634 431 676 526 Q694 566 769 711 Q772 717 770 718 Q768 719 762 717 Q655 684 586 601 Q544 549 476 415 L452 367 Z M548 12 Q553 29 553 60 Q553 174 473 256 Q450 280 416 297 L359 185 Q306 79 235 27 Q175 -16 115 -16 Q84 -16 59 -4 Q16 17 16 66 Q16 87 25 113 Q29 126 40 128 Q45 128 47.5 125.5 Q50 123 50 117 Q49 103 59 89 Q69 75 86 72 Q171 59 246 207 L306 327 Q269 330 261 323.5 Q253 317 252 310 Q256 297 250 266 Q234 236 202 236 Q189 236 179 243 Q157 255 157 284 Q157 319 186 347 Q239 399 334 395 L340 395 L362 438 Q456 625 575 690 Q688 752 810 755 Q833 755 835 750 Q838 746 831 732 Q751 587 713 372 Q679 179 679 14 Q680 0 670 0 L556 0 Q545 0 548 12 Z M824 979 Q857 979 876.5 960 Q896 941 896 911 Q896 870 865.5 839.5 Q835 809 794 809 Q763 809 743 829 Q723 849 723 879 Q723 919 754 949 Q785 979 824 979 Z M800 843 Q821 843 838.5 858 Q856 873 859 894 Q863 915 851 929.5 Q839 944 818 944 Q797 944 779.5 929.5 Q762 915 758 894 Q755 873 767 858 Q779 843 800 843 Z " />
<glyph glyph-name="Ccedilla" unicode="&#xc7;" horiz-adv-x="527" d="M262 -25 L241 -64 Q236 -72 236 -81 Q236 -88 240.5 -102.5 Q245 -117 245 -125 Q245 -137 238 -149 Q218 -183 177 -183 Q129 -183 129 -142 Q129 -132 134.5 -121.5 Q140 -111 152 -107 Q163 -102 171 -107 Q189 -116 176 -136 Q175 -137 166.5 -143 Q158 -149 160 -152 Q162 -155 169 -155 Q191 -155 202 -135 Q206 -128 206 -122 Q206 -117 199.5 -109.5 Q193 -102 191 -97 Q185 -84 186 -74 Q188 -61 200 -39 L211 -20 Q139 -4 103 64 Q73 120 73 202 Q73 337 151 480 Q226 619 335 696 Q432 764 524 764 Q551 764 573 758 Q665 732 665 646 Q665 619 655 593 Q636 540 582 541 Q566 541 563 548 Q561 551 565 557 Q581 584 581 614 Q581 663 535 670 Q484 677 405 615 Q314 543 249.5 417.5 Q185 292 185 200 Q185 102 254 72 Q277 62 301 62 Q346 62 387 95 Q421 123 427 148 Q429 156 427 159 Q424 162 416 161 Q406 160 405 161 Q402 162 403 166 Q409 186 425 200 Q445 218 470 215 Q512 210 512 168 Q512 144 497 118 Q467 67 413 28 Q341 -25 262 -25 Z " />
<glyph glyph-name="Eacute" unicode="&#xc9;" horiz-adv-x="543" d="M560 775 Q535 784 503 784 Q444 784 389 756 Q325 723 286 658 Q251 600 251 545 Q251 447 349 386 Q328 389 306 389 Q135 389 66 262 Q40 213 40 165 Q40 100 88 47 Q131 -1 198 -22 Q238 -35 279 -35 Q357 -35 423 9 Q484 48 511 106 Q529 143 529 174 Q529 206 511 224.5 Q493 243 462 243 Q409 243 392 195 Q389 186 389 178 Q389 150 412 150 Q414 150 420 152 Q425 154 426 152 Q429 149 426 140 Q418 108 391 89 Q346 59 301 59 Q276 59 249 67 Q215 77 193 104.5 Q171 132 171 167 Q171 191 181 215 Q205 268 259 298 Q305 323 356 323 Q381 323 399 316 L435 302 Q449 297 456 303 Q491 333 491 378 Q491 389 487.5 392.5 Q484 396 442 421 Q366 468 366 549 Q366 573 374 594 Q395 645 432 675 Q466 703 501 703 Q513 703 523 699 Q555 689 555 648 Q555 621 542 617 Q538 616 528 623 Q518 630 506 630 Q473 630 455 593 Q450 583 450 574 Q450 551 474 536 Q495 523 520 523 Q574 523 612 574 Q642 615 642 664 Q642 747 560 775 Z M528 833 Q579 871 605 904 Q614 915 623 935 Q635 961 638 968 Q651 989 667 989 Q697 989 691 954 Q685 921 624 874 Q574 836 530 818 L528 833 Z " />
<glyph glyph-name="Ntilde" unicode="&#xd1;" horiz-adv-x="704" d="M982 742 Q986 748 987 751 Q988 755 986 756.5 Q984 758 979 758 Q963 758 947 748 Q876 704 767 578 Q674 469 613 374 Q603 359 596 359 Q592 358 591 366 Q591 368 591 377 Q593 425 624 522 Q663 649 722 737 Q734 753 725 758 Q717 764 697 749 Q572 653 406 417 Q356 346 287 238 Q228 145 219 134 Q194 104 172 104 Q154 104 149 113 Q144 122 138 131 Q132 140 115 145 Q106 147 97 147 Q48 147 32 93 Q28 82 28 72 Q28 36 57 14 Q83 -7 120 -7 Q194 -7 271 75 Q298 102 377 205 Q449 298 477 323 Q488 333 490 329 Q493 326 487 310 Q469 260 470 168 Q473 51 491 3 Q496 -9 507 -6 Q516 -4 519 6 Q563 162 666 302 Q758 426 887 516 Q897 568 928 641 Q958 710 982 742 Z M981 928 L997 928 Q961 835 888 835 Q870 835 836 848 Q802 861 783 861 Q764 861 755 853 Q752 850 739 829 L719 829 Q751 915 815 915 Q837 915 871 900.5 Q905 886 920 886 Q938 886 953 900.5 Q968 915 981 928 Z " />
<glyph glyph-name="Odieresis" unicode="&#xd6;" horiz-adv-x="635" d="M199 -17 Q133 -14 97.5 30 Q62 74 62 149 Q62 248 124 373 Q203 535 337 649.5 Q471 764 582 764 Q719 764 719 609 Q719 553 699 484 Q732 493 765 512 Q783 522 796 522 Q815 522 815 504 Q815 483 789 467 Q740 438 680 427 Q617 261 495 131 Q347 -24 199 -17 Z M632 474 Q647 526 647 565 Q647 616 622 642 Q601 665 567 665 Q530 612 530 562 Q530 540 538 521 Q556 476 632 474 Z M612 421 Q515 423 485 489 Q472 516 472 548 Q472 595 498 648 Q354 583 252 374 Q197 262 197 188 Q197 93 279 82 Q366 71 478 205 Q565 310 612 421 Z M655 861 Q658 881 674.5 894.5 Q691 908 711 908 Q731 908 742 894 Q753 880 750 861 Q746 841 730 827.5 Q714 814 695 814 Q674 814 662.5 827 Q651 840 655 861 Z M522 861 Q525 880 541.5 894 Q558 908 577 908 Q597 908 608 894 Q619 880 616 861 Q612 840 596.5 827 Q581 814 561 814 Q541 814 529.5 827.5 Q518 841 522 861 Z " />
<glyph glyph-name="Udieresis" unicode="&#xdc;" horiz-adv-x="641" d="M387 105 Q345 60 293 29 Q232 -6 178 -6 Q141 -6 110 11 Q29 56 29 178 Q29 334 173 513 Q256 615 256 658 Q256 691 223 691 Q199 691 171.5 671 Q144 651 132 621 Q124 605 124 589 Q124 560 145 561 Q147 560 149 557 Q148 535 117.5 517 Q87 499 64 499 Q24 499 24 554 Q24 594 50 639 Q82 695 137.5 729 Q193 763 253 763 Q267 763 281 761 Q362 749 362 670 Q362 644 353 612 Q338 561 279 482 Q246 438 213 394 Q162 321 146 263 Q137 232 137 201 Q137 124 185 100 Q201 92 220 92 Q299 92 383 183 Q386 226 400 274 Q460 477 567 647 Q570 652 576 654 L697 702 Q701 704 703 702 Q706 701 704 697 Q667 630 636 566 Q563 414 528.5 309.5 Q494 205 494 139 Q494 50 552 50 Q591 50 607 82 Q612 93 622 93 Q632 93 630 82 Q626 51 598 25 Q564 -8 518 -8 Q503 -8 488 -4 Q407 14 387 105 Z M525 809 Q528 829 544.5 842.5 Q561 856 581 856 Q600 856 611.5 842.5 Q623 829 620 809 Q616 790 600 776 Q584 762 564 762 Q544 762 532.5 775.5 Q521 789 525 809 Z M392 809 Q395 829 411 842.5 Q427 856 447 856 Q466 856 477.5 842.5 Q489 829 486 809 Q482 789 466.5 775.5 Q451 762 430 762 Q411 762 399.5 776 Q388 790 392 809 Z " />
<glyph glyph-name="aacute" unicode="&#xe1;" horiz-adv-x="384" d="M491 169 Q462 101 417 56 Q356 -4 281 -7 Q237 -9 215 21 Q200 42 199 70 Q180 43 143 21 Q101 -5 67 -5 Q46 -5 31 5 Q6 22 6 67 Q6 134 46.5 210.5 Q87 287 150 341 Q219 400 280 399 Q320 399 326 377 L331 387 Q334 393 341 393 L412 393 Q419 393 415 384 L311 153 Q299 125 299 106 Q299 79 328 79 Q385 79 450 214 Q457 226 475 215 Q494 204 494 182 Q494 175 491 169 Z M294 314 Q298 324 298 332 Q298 351 279 351 Q249 351 212 322 Q170 287 140.5 227.5 Q111 168 111 132 Q111 92 146 92 Q191 92 214 140 L294 314 Z M280 451 Q332 490 358 522 Q367 533 375 553 Q387 579 391 586 Q403 607 420 607 Q450 607 443 572 Q438 539 376 492 Q326 455 282 436 L280 451 Z " />
<glyph glyph-name="agrave" unicode="&#xe0;" horiz-adv-x="384" d="M491 169 Q462 101 417 56 Q356 -4 281 -7 Q237 -9 215 21 Q200 42 199 70 Q180 43 143 21 Q101 -5 67 -5 Q46 -5 31 5 Q6 22 6 67 Q6 134 46.5 210.5 Q87 287 150 341 Q219 400 280 399 Q320 399 326 377 L331 387 Q334 393 341 393 L412 393 Q419 393 415 384 L311 153 Q299 125 299 106 Q299 79 328 79 Q385 79 450 214 Q457 226 475 215 Q494 204 494 182 Q494 175 491 169 Z M294 314 Q298 324 298 332 Q298 351 279 351 Q249 351 212 322 Q170 287 140.5 227.5 Q111 168 111 132 Q111 92 146 92 Q191 92 214 140 L294 314 Z M331 447 L323 432 Q284 453 249 489 Q204 535 210 569 Q216 603 250 603 Q263 603 268 582 Q269 560 278 518 Q293 486 331 447 Z " />
<glyph glyph-name="acircumflex" unicode="&#xe2;" horiz-adv-x="384" d="M491 169 Q462 101 417 56 Q356 -4 281 -7 Q237 -9 215 21 Q200 42 199 70 Q180 43 143 21 Q101 -5 67 -5 Q46 -5 31 5 Q6 22 6 67 Q6 134 46.5 210.5 Q87 287 150 341 Q219 400 280 399 Q320 399 326 377 L331 387 Q334 393 341 393 L412 393 Q419 393 415 384 L311 153 Q299 125 299 106 Q299 79 328 79 Q385 79 450 214 Q457 226 475 215 Q494 204 494 182 Q494 175 491 169 Z M294 314 Q298 324 298 332 Q298 351 279 351 Q249 351 212 322 Q170 287 140.5 227.5 Q111 168 111 132 Q111 92 146 92 Q191 92 214 140 L294 314 Z M364 600 L375 600 Q390 502 419 445 L396 437 Q379 451 367 482 Q359 509 351 535 Q315 508 280 482 Q237 451 204 441 L186 448 Q287 519 364 600 Z " />
<glyph glyph-name="adieresis" unicode="&#xe4;" horiz-adv-x="384" d="M491 169 Q462 101 417 56 Q356 -4 281 -7 Q237 -9 215 21 Q200 42 199 70 Q180 43 143 21 Q101 -5 67 -5 Q46 -5 31 5 Q6 22 6 67 Q6 134 46.5 210.5 Q87 287 150 341 Q219 400 280 399 Q320 399 326 377 L331 387 Q334 393 341 393 L412 393 Q419 393 415 384 L311 153 Q299 125 299 106 Q299 79 328 79 Q385 79 450 214 Q457 226 475 215 Q494 204 494 182 Q494 175 491 169 Z M294 314 Q298 324 298 332 Q298 351 279 351 Q249 351 212 322 Q170 287 140.5 227.5 Q111 168 111 132 Q111 92 146 92 Q191 92 214 140 L294 314 Z M340 494 Q344 514 360.5 527.5 Q377 541 397 541 Q416 541 427.5 527 Q439 513 435 494 Q432 474 416 460.5 Q400 447 380 447 Q360 447 348.5 460.5 Q337 474 340 494 Z M207 494 Q211 513 227 527 Q243 541 263 541 Q282 541 293.5 527 Q305 513 301 494 Q298 473 282 460 Q266 447 246 447 Q227 447 215.5 460.5 Q204 474 207 494 Z " />
<glyph glyph-name="atilde" unicode="&#xe3;" horiz-adv-x="384" d="M491 169 Q462 101 417 56 Q356 -4 281 -7 Q237 -9 215 21 Q200 42 199 70 Q180 43 143 21 Q101 -5 67 -5 Q46 -5 31 5 Q6 22 6 67 Q6 134 46.5 210.5 Q87 287 150 341 Q219 400 280 399 Q320 399 326 377 L331 387 Q334 393 341 393 L412 393 Q419 393 415 384 L311 153 Q299 125 299 106 Q299 79 328 79 Q385 79 450 214 Q457 226 475 215 Q494 204 494 182 Q494 175 491 169 Z M294 314 Q298 324 298 332 Q298 351 279 351 Q249 351 212 322 Q170 287 140.5 227.5 Q111 168 111 132 Q111 92 146 92 Q191 92 214 140 L294 314 Z M455 543 L471 543 Q435 450 362 450 Q344 450 310 463 Q276 476 257 476 Q237 476 229 467 Q226 465 213 444 L193 444 Q224 530 289 530 Q311 530 344.5 515.5 Q378 501 394 501 Q412 501 428 516 Q441 529 455 543 Z " />
<glyph glyph-name="aring" unicode="&#xe5;" horiz-adv-x="384" d="M491 169 Q462 101 417 56 Q356 -4 281 -7 Q237 -9 215 21 Q200 42 199 70 Q180 43 143 21 Q101 -5 67 -5 Q46 -5 31 5 Q6 22 6 67 Q6 134 46.5 210.5 Q87 287 150 341 Q219 400 280 399 Q320 399 326 377 L331 387 Q334 393 341 393 L412 393 Q419 393 415 384 L311 153 Q299 125 299 106 Q299 79 328 79 Q385 79 450 214 Q457 226 475 215 Q494 204 494 182 Q494 175 491 169 Z M294 314 Q298 324 298 332 Q298 351 279 351 Q249 351 212 322 Q170 287 140.5 227.5 Q111 168 111 132 Q111 92 146 92 Q191 92 214 140 L294 314 Z M353 622 Q386 622 405.5 603 Q425 584 425 554 Q425 513 394.5 482.5 Q364 452 323 452 Q292 452 272 472 Q252 492 252 522 Q252 562 283 592 Q314 622 353 622 Z M329 486 Q350 486 367.5 501 Q385 516 388 537 Q392 558 380 572.5 Q368 587 347 587 Q326 587 308.5 572.5 Q291 558 287 537 Q284 516 296 501 Q308 486 329 486 Z " />
<glyph glyph-name="ccedilla" unicode="&#xe7;" horiz-adv-x="323" d="M172 -13 L151 -53 Q147 -61 147 -69 Q147 -77 151.5 -91 Q156 -105 156 -113 Q156 -125 149 -138 Q129 -172 88 -172 Q39 -172 39 -131 Q39 -121 44.5 -110.5 Q50 -100 62 -95 Q73 -91 81 -95 Q99 -105 86 -125 Q86 -126 77 -131.5 Q68 -137 70 -141 Q72 -143 79 -143 Q102 -143 112 -124 Q116 -116 116 -111 Q116 -105 109.5 -97.5 Q103 -90 101 -86 Q95 -72 96 -62 Q98 -51 111 -28 L121 -8 L115 -7 Q31 10 31 101 Q31 159 65 220 Q108 295 175.5 348 Q243 401 306 401 Q332 401 351.5 386 Q371 371 371 344 Q370 314 351 283 Q329 248 301 248 Q274 248 273 275 Q273 300 295 320.5 Q317 341 341 337 Q340 355 312 355 Q282 355 241 311 Q203 271 173.5 213 Q144 155 144 113 Q144 53 206 53 Q268 53 323 111 Q353 142 375 186 Q379 195 388 195 Q397 195 407 186 Q425 171 417 147 Q405 113 369 69 Q298 -15 172 -13 Z " />
<glyph glyph-name="eacute" unicode="&#xe9;" horiz-adv-x="324" d="M155 173 Q282 231 319 316 Q325 330 325 339 Q325 353 312 355 Q290 358 247 314.5 Q204 271 174 213 Q163 192 155 173 Z M417 147 Q405 113 369 69 Q299 -13 175 -13 Q144 -13 115 -7 Q32 11 32 101 Q32 159 65 220 Q107 296 175 348 Q243 400 306 401 Q337 401 354 389 Q373 374 371 344 Q365 274 287 207 Q220 149 144 124 Q139 68 177 57 Q191 53 206 53 Q268 53 323 111 Q353 142 375 186 Q379 195 388 195 Q397 195 407 186 Q425 171 417 147 Z M289 447 Q341 486 367 518 Q376 529 385 549 Q396 575 400 582 Q412 603 429 603 Q459 603 453 568 Q447 535 385 489 Q336 451 292 432 L289 447 Z " />
<glyph glyph-name="egrave" unicode="&#xe8;" horiz-adv-x="324" d="M155 173 Q282 231 319 316 Q325 330 325 339 Q325 353 312 355 Q290 358 247 314.5 Q204 271 174 213 Q163 192 155 173 Z M417 147 Q405 113 369 69 Q299 -13 175 -13 Q144 -13 115 -7 Q32 11 32 101 Q32 159 65 220 Q107 296 175 348 Q243 400 306 401 Q337 401 354 389 Q373 374 371 344 Q365 274 287 207 Q220 149 144 124 Q139 68 177 57 Q191 53 206 53 Q268 53 323 111 Q353 142 375 186 Q379 195 388 195 Q397 195 407 186 Q425 171 417 147 Z M336 441 L328 426 Q290 446 254 482 Q210 529 216 563 Q222 597 256 597 Q268 597 273 576 Q274 553 284 512 Q298 480 336 441 Z " />
<glyph glyph-name="ecircumflex" unicode="&#xea;" horiz-adv-x="324" d="M155 173 Q282 231 319 316 Q325 330 325 339 Q325 353 312 355 Q290 358 247 314.5 Q204 271 174 213 Q163 192 155 173 Z M417 147 Q405 113 369 69 Q299 -13 175 -13 Q144 -13 115 -7 Q32 11 32 101 Q32 159 65 220 Q107 296 175 348 Q243 400 306 401 Q337 401 354 389 Q373 374 371 344 Q365 274 287 207 Q220 149 144 124 Q139 68 177 57 Q191 53 206 53 Q268 53 323 111 Q353 142 375 186 Q379 195 388 195 Q397 195 407 186 Q425 171 417 147 Z M368 599 L379 599 Q394 500 422 444 L399 436 Q382 450 371 481 Q363 508 354 534 Q319 507 284 480 Q240 450 208 440 L190 447 Q291 518 368 599 Z " />
<glyph glyph-name="edieresis" unicode="&#xeb;" horiz-adv-x="324" d="M155 173 Q282 231 319 316 Q325 330 325 339 Q325 353 312 355 Q290 358 247 314.5 Q204 271 174 213 Q163 192 155 173 Z M417 147 Q405 113 369 69 Q299 -13 175 -13 Q144 -13 115 -7 Q32 11 32 101 Q32 159 65 220 Q107 296 175 348 Q243 400 306 401 Q337 401 354 389 Q373 374 371 344 Q365 274 287 207 Q220 149 144 124 Q139 68 177 57 Q191 53 206 53 Q268 53 323 111 Q353 142 375 186 Q379 195 388 195 Q397 195 407 186 Q425 171 417 147 Z M333 493 Q337 513 353.5 526.5 Q370 540 390 540 Q409 540 420.5 526 Q432 512 428 493 Q425 473 408.5 459.5 Q392 446 373 446 Q353 446 341.5 459 Q330 472 333 493 Z M200 493 Q204 512 220 526 Q236 540 256 540 Q275 540 286.5 526 Q298 512 294 493 Q291 472 275 459 Q259 446 239 446 Q219 446 208 459.5 Q197 473 200 493 Z " />
<glyph glyph-name="iacute" unicode="&#xed;" horiz-adv-x="210" d="M146 387 Q149 393 156 393 L239 393 Q246 393 242 384 L138 153 Q126 125 126 106 Q126 79 155 79 Q212 79 277 214 Q284 226 302 215 Q321 204 321 182 Q321 175 318 169 Q289 101 244 56 Q183 -4 108 -7 Q65 -9 39.5 14.5 Q14 38 14 77 Q14 107 29 139 L146 387 Z M188 448 Q239 487 265 519 Q274 530 283 551 Q294 576 298 583 Q311 604 327 604 Q357 604 351 569 Q345 536 284 490 Q234 452 190 433 L188 448 Z " />
<glyph glyph-name="igrave" unicode="&#xec;" horiz-adv-x="210" d="M146 387 Q149 393 156 393 L239 393 Q246 393 242 384 L138 153 Q126 125 126 106 Q126 79 155 79 Q212 79 277 214 Q284 226 302 215 Q321 204 321 182 Q321 175 318 169 Q289 101 244 56 Q183 -4 108 -7 Q65 -9 39.5 14.5 Q14 38 14 77 Q14 107 29 139 L146 387 Z M239 438 L232 423 Q193 444 158 480 Q113 526 119 560 Q125 594 159 594 Q172 594 176 573 Q177 551 187 509 Q202 477 239 438 Z " />
<glyph glyph-name="icircumflex" unicode="&#xee;" horiz-adv-x="210" d="M146 387 Q149 393 156 393 L239 393 Q246 393 242 384 L138 153 Q126 125 126 106 Q126 79 155 79 Q212 79 277 214 Q284 226 302 215 Q321 204 321 182 Q321 175 318 169 Q289 101 244 56 Q183 -4 108 -7 Q65 -9 39.5 14.5 Q14 38 14 77 Q14 107 29 139 L146 387 Z M286 603 L297 603 Q312 504 341 448 L318 440 Q301 454 289 485 Q281 511 273 538 Q238 511 202 484 Q159 454 126 444 L109 451 Q210 522 286 603 Z " />
<glyph glyph-name="idieresis" unicode="&#xef;" horiz-adv-x="210" d="M146 387 Q149 393 156 393 L239 393 Q246 393 242 384 L138 153 Q126 125 126 106 Q126 79 155 79 Q212 79 277 214 Q284 226 302 215 Q321 204 321 182 Q321 175 318 169 Q289 101 244 56 Q183 -4 108 -7 Q65 -9 39.5 14.5 Q14 38 14 77 Q14 107 29 139 L146 387 Z M253 502 Q256 522 272.5 535.5 Q289 549 309 549 Q328 549 339.5 535 Q351 521 348 502 Q344 482 328 468.5 Q312 455 292 455 Q272 455 260.5 468.5 Q249 482 253 502 Z M120 502 Q123 521 139 535 Q155 549 175 549 Q194 549 205.5 535 Q217 521 214 502 Q210 482 194.5 468.5 Q179 455 158 455 Q139 455 127.5 468.5 Q116 482 120 502 Z " />
<glyph glyph-name="ntilde" unicode="&#xf1;" horiz-adv-x="400" d="M226 381 L207 338 Q259 398 321 395 Q386 393 386 322 Q386 314 385 306 Q382 281 346 203 Q313 129 313 105 Q313 79 342 79 Q400 79 466 216 Q471 226 490 214 Q509 202 509 182 Q509 175 506 167 Q466 77 403 32 Q351 -6 296 -6 Q256 -6 230 15.5 Q204 37 204 77 Q204 106 220 139 L263 228 Q283 268 283 297 Q283 323 264 323 Q240 323 203 275 Q176 240 152 188 L69 9 Q65 0 56 0 L-23 0 Q-32 0 -28 9 L145 384 Q149 393 160 393 L217 393 Q231 393 226 381 Z M438 542 L454 542 Q418 449 345 449 Q326 449 292 462 Q258 475 239 475 Q220 475 211 466 Q209 464 196 443 L176 443 Q207 529 272 529 Q293 529 327 514.5 Q361 500 377 500 Q395 500 409.5 514 Q424 528 438 542 Z " />
<glyph glyph-name="oacute" unicode="&#xf3;" horiz-adv-x="403" d="M373 194 Q354 155 325 118 Q351 101 375 104 Q418 110 466 210 Q473 224 486 218 Q498 213 506 200.5 Q514 188 511 177 Q508 161 488 127 Q466 87 445 68 Q413 39 363 39 Q313 39 277 66 Q191 -15 112 -15 Q70 -15 47 11.5 Q24 38 24 84 Q24 134 52 194 Q94 280 170 341.5 Q246 403 313 403 Q355 403 378 376.5 Q401 350 401 304 Q401 254 373 194 Z M246 308 Q189 274 152 196 Q131 152 131 118 Q131 73 165 73 Q197 73 238 112 Q213 157 217 206 Q224 268 246 308 Z M318 274 Q318 300 306 312 Q275 263 277 207 Q278 189 284 172 Q318 229 318 274 Z M302 449 Q354 488 380 520 Q389 531 398 551 Q409 577 413 584 Q425 605 442 605 Q472 605 466 570 Q460 537 399 491 Q349 453 305 434 L302 449 Z " />
<glyph glyph-name="ograve" unicode="&#xf2;" horiz-adv-x="403" d="M373 194 Q354 155 325 118 Q351 101 375 104 Q418 110 466 210 Q473 224 486 218 Q498 213 506 200.5 Q514 188 511 177 Q508 161 488 127 Q466 87 445 68 Q413 39 363 39 Q313 39 277 66 Q191 -15 112 -15 Q70 -15 47 11.5 Q24 38 24 84 Q24 134 52 194 Q94 280 170 341.5 Q246 403 313 403 Q355 403 378 376.5 Q401 350 401 304 Q401 254 373 194 Z M246 308 Q189 274 152 196 Q131 152 131 118 Q131 73 165 73 Q197 73 238 112 Q213 157 217 206 Q224 268 246 308 Z M318 274 Q318 300 306 312 Q275 263 277 207 Q278 189 284 172 Q318 229 318 274 Z M353 457 L345 442 Q306 462 271 499 Q226 545 232 579 Q238 613 272 613 Q285 613 289 592 Q290 570 300 528 Q315 496 353 457 Z " />
<glyph glyph-name="ocircumflex" unicode="&#xf4;" horiz-adv-x="403" d="M373 194 Q354 155 325 118 Q351 101 375 104 Q418 110 466 210 Q473 224 486 218 Q498 213 506 200.5 Q514 188 511 177 Q508 161 488 127 Q466 87 445 68 Q413 39 363 39 Q313 39 277 66 Q191 -15 112 -15 Q70 -15 47 11.5 Q24 38 24 84 Q24 134 52 194 Q94 280 170 341.5 Q246 403 313 403 Q355 403 378 376.5 Q401 350 401 304 Q401 254 373 194 Z M246 308 Q189 274 152 196 Q131 152 131 118 Q131 73 165 73 Q197 73 238 112 Q213 157 217 206 Q224 268 246 308 Z M318 274 Q318 300 306 312 Q275 263 277 207 Q278 189 284 172 Q318 229 318 274 Z M398 607 L409 607 Q424 508 453 452 L429 444 Q412 458 401 488 Q393 515 384 542 Q349 515 314 488 Q270 457 238 448 L220 455 Q321 525 398 607 Z " />
<glyph glyph-name="odieresis" unicode="&#xf6;" horiz-adv-x="403" d="M373 194 Q354 155 325 118 Q351 101 375 104 Q418 110 466 210 Q473 224 486 218 Q498 213 506 200.5 Q514 188 511 177 Q508 161 488 127 Q466 87 445 68 Q413 39 363 39 Q313 39 277 66 Q191 -15 112 -15 Q70 -15 47 11.5 Q24 38 24 84 Q24 134 52 194 Q94 280 170 341.5 Q246 403 313 403 Q355 403 378 376.5 Q401 350 401 304 Q401 254 373 194 Z M246 308 Q189 274 152 196 Q131 152 131 118 Q131 73 165 73 Q197 73 238 112 Q213 157 217 206 Q224 268 246 308 Z M318 274 Q318 300 306 312 Q275 263 277 207 Q278 189 284 172 Q318 229 318 274 Z M385 503 Q388 523 404.5 536.5 Q421 550 441 550 Q461 550 472 536 Q483 522 480 503 Q476 483 460 469.5 Q444 456 425 456 Q404 456 392.5 469.5 Q381 483 385 503 Z M252 503 Q255 522 271.5 536 Q288 550 307 550 Q327 550 338 536 Q349 522 346 503 Q342 483 326.5 469.5 Q311 456 291 456 Q271 456 259.5 469.5 Q248 483 252 503 Z " />
<glyph glyph-name="otilde" unicode="&#xf5;" horiz-adv-x="403" d="M373 194 Q354 155 325 118 Q351 101 375 104 Q418 110 466 210 Q473 224 486 218 Q498 213 506 200.5 Q514 188 511 177 Q508 161 488 127 Q466 87 445 68 Q413 39 363 39 Q313 39 277 66 Q191 -15 112 -15 Q70 -15 47 11.5 Q24 38 24 84 Q24 134 52 194 Q94 280 170 341.5 Q246 403 313 403 Q355 403 378 376.5 Q401 350 401 304 Q401 254 373 194 Z M246 308 Q189 274 152 196 Q131 152 131 118 Q131 73 165 73 Q197 73 238 112 Q213 157 217 206 Q224 268 246 308 Z M318 274 Q318 300 306 312 Q275 263 277 207 Q278 189 284 172 Q318 229 318 274 Z M494 544 L510 544 Q473 451 400 451 Q382 451 348 464 Q314 477 295 477 Q276 477 267 468 Q264 466 251 445 L231 445 Q263 531 327 531 Q349 531 383 516.5 Q417 502 432 502 Q450 502 465 516 Q480 530 494 544 Z " />
<glyph glyph-name="uacute" unicode="&#xfa;" horiz-adv-x="383" d="M410 382 L315 170 Q296 129 296 106 Q296 83 316 80 Q379 71 447 210 Q452 219 461 219 Q477 219 486 200.5 Q495 182 489 167 Q458 91 401 42 Q340 -8 276 -7 Q208 -5 193 62 Q131 -6 70 -6 Q38 -6 18.5 14 Q-1 34 -1 66 Q-1 89 10 115 L124 371 Q131 385 155.5 397 Q180 409 201 409 Q224 409 224 393 Q224 388 221 382 L120 140 Q111 118 111 103 Q111 82 126 79 Q147 74 171.5 92 Q196 110 207 137 L307 364 Q313 378 343.5 391 Q374 404 396 403 Q413 402 413 391 Q413 387 410 382 Z M273 442 Q324 481 350 513 Q359 525 368 545 Q380 571 384 577 Q396 598 412 598 Q442 598 436 563 Q430 531 369 484 Q319 446 275 427 L273 442 Z " />
<glyph glyph-name="ugrave" unicode="&#xf9;" horiz-adv-x="383" d="M410 382 L315 170 Q296 129 296 106 Q296 83 316 80 Q379 71 447 210 Q452 219 461 219 Q477 219 486 200.5 Q495 182 489 167 Q458 91 401 42 Q340 -8 276 -7 Q208 -5 193 62 Q131 -6 70 -6 Q38 -6 18.5 14 Q-1 34 -1 66 Q-1 89 10 115 L124 371 Q131 385 155.5 397 Q180 409 201 409 Q224 409 224 393 Q224 388 221 382 L120 140 Q111 118 111 103 Q111 82 126 79 Q147 74 171.5 92 Q196 110 207 137 L307 364 Q313 378 343.5 391 Q374 404 396 403 Q413 402 413 391 Q413 387 410 382 Z M301 437 L293 422 Q255 442 219 479 Q174 525 180 559 Q186 593 220 593 Q233 593 238 572 Q239 550 249 508 Q263 476 301 437 Z " />
<glyph glyph-name="ucircumflex" unicode="&#xfb;" horiz-adv-x="383" d="M410 382 L315 170 Q296 129 296 106 Q296 83 316 80 Q379 71 447 210 Q452 219 461 219 Q477 219 486 200.5 Q495 182 489 167 Q458 91 401 42 Q340 -8 276 -7 Q208 -5 193 62 Q131 -6 70 -6 Q38 -6 18.5 14 Q-1 34 -1 66 Q-1 89 10 115 L124 371 Q131 385 155.5 397 Q180 409 201 409 Q224 409 224 393 Q224 388 221 382 L120 140 Q111 118 111 103 Q111 82 126 79 Q147 74 171.5 92 Q196 110 207 137 L307 364 Q313 378 343.5 391 Q374 404 396 403 Q413 402 413 391 Q413 387 410 382 Z M347 593 L358 593 Q373 495 402 438 L379 430 Q362 444 350 475 Q342 502 334 528 Q299 502 263 475 Q220 444 187 434 L170 441 Q271 512 347 593 Z " />
<glyph glyph-name="udieresis" unicode="&#xfc;" horiz-adv-x="383" d="M410 382 L315 170 Q296 129 296 106 Q296 83 316 80 Q379 71 447 210 Q452 219 461 219 Q477 219 486 200.5 Q495 182 489 167 Q458 91 401 42 Q340 -8 276 -7 Q208 -5 193 62 Q131 -6 70 -6 Q38 -6 18.5 14 Q-1 34 -1 66 Q-1 89 10 115 L124 371 Q131 385 155.5 397 Q180 409 201 409 Q224 409 224 393 Q224 388 221 382 L120 140 Q111 118 111 103 Q111 82 126 79 Q147 74 171.5 92 Q196 110 207 137 L307 364 Q313 378 343.5 391 Q374 404 396 403 Q413 402 413 391 Q413 387 410 382 Z M316 480 Q319 500 335.5 513.5 Q352 527 372 527 Q391 527 402.5 513 Q414 499 411 480 Q407 460 391 446.5 Q375 433 355 433 Q335 433 323.5 446.5 Q312 460 316 480 Z M183 480 Q186 499 202 513 Q218 527 238 527 Q257 527 268.5 513 Q280 499 277 480 Q273 460 257.5 446.5 Q242 433 221 433 Q202 433 190.5 446.5 Q179 460 183 480 Z " />
<glyph glyph-name="cent" unicode="&#xa2;" horiz-adv-x="567" d="M159 190 L312 555 Q247 499 201 408 Q151 311 151 240 Q151 212 159 190 Z M474 733 L452 681 Q526 660 526 590 Q526 568 519 547 Q502 503 457 504 Q438 504 438 515 Q438 518 440 522 Q453 542 453 564 Q453 600 420 605 L223 136 Q230 135 237 135 Q271 135 302 160 Q328 181 333 200 Q334 204 333 205 Q332 206 328 205 Q319 204 318 205 Q311 207 314 214 Q319 233 334 249 Q353 270 379 270 Q429 271 429 223 Q429 196 412 167 Q386 124 339 93 Q282 55 220 55 Q205 55 190 58 L172 14 L85 14 L116 88 Q57 138 57 245 Q57 350 117 462 Q166 554 236 612 Q299 665 365 681 L387 733 L474 733 Z " />
<glyph glyph-name="sterling" unicode="&#xa3;" horiz-adv-x="682" d="M509 324 L344 324 Q298 221 276 192 Q286 189 334 170 Q374 154 414 148 Q436 145 458 145 Q524 145 541 165 Q553 178 552 187 Q551 196 561 202 Q564 204 568 204 Q589 204 589 176 Q589 125 530 93 Q482 67 426 67 Q408 67 388 69 Q344 74 294.5 104 Q245 134 230 135 Q180 84 109 84 Q51 84 51 125 Q51 133 53 142 Q63 179 108 196 Q144 208 189 204 Q199 219 248 324 L195 324 L195 395 L280 395 Q302 447 324 499 Q351 562 372 592 Q432 682 525 686 Q562 688 595 664.5 Q628 641 628 606 Q628 577 603.5 552.5 Q579 528 550 530 Q515 545 516 546 Q523 551 532 567 Q533 584 522 592 Q508 600 485.5 590 Q463 580 438 533 Q420 500 375 395 L509 395 L509 324 Z " />
<glyph glyph-name="section" unicode="&#xa7;" horiz-adv-x="500" d="M73 68 L158 68 L158 66 Q158 -20 252 -20 Q291 -20 313.5 -1.5 Q336 17 336 49 Q336 81 308 107 Q286 127 226 160 L137 209 Q39 263 39 347 Q39 430 126 488 Q81 526 81 586 Q81 653 126.5 696 Q172 739 245 739 Q324 739 369 697 Q414 655 414 582 L414 577 L331 577 Q330 617 306.5 641 Q283 665 245 665 Q209 665 188.5 646.5 Q168 628 168 597 Q168 551 241 512 L362 447 Q461 394 461 300 Q461 257 436.5 220 Q412 183 371 166 Q421 123 421 59 Q421 -8 372 -52 Q323 -96 244 -96 Q167 -96 120 -51.5 Q73 -7 73 68 Z M321 212 Q371 242 371 291 Q371 321 348 344 Q331 362 284 388 L178 447 Q126 416 126 374 Q126 343 149 320 Q165 303 213 275 L321 212 Z " />
<glyph glyph-name="bullet" unicode="&#x2022;" horiz-adv-x="590" d="M150 372 Q150 432 192.5 474 Q235 516 295 516 Q354 516 396.5 474 Q439 432 439 372 Q439 313 396.5 270 Q354 227 294 227 Q234 227 192 269.5 Q150 312 150 372 Z " />
<glyph glyph-name="paragraph" unicode="&#xb6;" horiz-adv-x="500" d="M468 680 L409 680 L409 0 L355 0 L355 680 L268 680 L268 0 L214 0 L214 382 Q130 386 81 432.5 Q32 479 32 552 Q32 628 84 675 Q136 722 224 722 L468 722 L468 680 Z " />
<glyph glyph-name="germandbls" unicode="&#xdf;" horiz-adv-x="482" d="M-268 -166 Q-268 -142 -252 -125 Q-236 -108 -212 -108 Q-187 -108 -171 -128 Q-166 -135 -163 -165 Q-162 -182 -138 -182 Q-118 -182 -111 -165 L136 363 Q213 530 323 646 Q430 759 507 759 Q521 759 532 755 Q556 747 556 703 Q556 648 522 559 Q489 474 448 411 Q392 327 336 290 Q465 271 465 177 Q465 149 453 113 Q426 38 356 -9.5 Q286 -57 208 -58 Q160 -59 134 -35 Q112 -14 112 19 Q112 72 166 72 Q192 72 208 52 Q214 43 215 21 Q215 5 225 5 Q261 3 309 39 Q364 81 378 136 Q380 145 380 154 Q380 192 341 216 Q306 239 259 239 Q250 239 241 238 Q233 237 229.5 239.5 Q226 242 227 248 Q229 260 243.5 276 Q258 292 270 297 Q324 319 402 434 Q440 490 465 556 Q487 615 487 651 Q487 672 478 675 Q459 682 402 613.5 Q345 545 276 428 Q248 381 176 229 L3 -137 Q-23 -192 -73 -222 Q-114 -247 -157 -247 Q-197 -247 -230 -226 Q-268 -203 -268 -166 Z " />
<glyph glyph-name="registered" unicode="&#xae;" horiz-adv-x="792" d="M759 447 Q759 342 684.5 267 Q610 192 504 192 Q399 192 324 267 Q249 342 249 447 Q249 553 324 627.5 Q399 702 504 702 Q610 702 684.5 627.5 Q759 553 759 447 Z M571 442 Q593 432 593 409 Q593 399 587 379 Q581 359 581 352 Q581 343 587 339 Q602 330 615 348 Q620 354 623 351 Q626 348 621 338 Q609 314 586 304 Q565 296 552 305 Q539 314 539 335 Q539 342 540.5 358.5 Q542 375 542 383 Q542 404 534 415 Q518 438 501 440 Q502 441 477 381 Q445 303 386 303 Q373 303 363 308 Q336 320 344 355 Q346 360 350 361 Q353 361 356 350.5 Q359 340 371 338 Q405 333 430 393 L469 486 Q496 551 547 580 Q555 584 561 587 Q555 588 548 589 Q475 592 443 541 Q434 527 434 509 Q434 490 440.5 487 Q447 484 443 480 Q440 476 433 478 Q421 480 410 492 Q394 509 398 531 Q404 569 454 593.5 Q504 618 557 616 Q606 614 637.5 589.5 Q669 565 669 531 Q669 496 636 470 Q610 450 571 442 Z M621 531 Q621 565 585 580 Q569 569 557 556 Q541 537 521 489 L514 473 Q546 465 575 475 Q621 489 621 531 Z M505 660 Q417 660 354.5 598 Q292 536 292 448 Q292 359 354.5 297 Q417 235 505 235 Q593 235 655.5 297 Q718 359 718 448 Q718 536 655.5 598 Q593 660 505 660 Z " />
<glyph glyph-name="copyright" unicode="&#xa9;" horiz-adv-x="715" d="M503 614 Q464 614 424 586 Q378 554 346.5 495.5 Q315 437 315 382 Q315 305 367 288 Q383 283 400 283 Q465 283 501 341 Q510 356 510 370 Q510 393 485 393 Q461 392 452 364 Q452 363 453 362 Q453 362 458 362 Q461 362 462 357 Q460 346 445 335 Q428 321 409 321 Q361 321 361 379 Q361 417 388 469.5 Q415 522 453 552 Q486 578 507 575 Q526 572 526 552 Q526 547 522.5 535.5 Q519 524 519 524 Q520 521 527 521 Q549 521 558 543 Q562 554 562 565 Q562 614 503 614 Z M696 447 Q696 342 621 267 Q546 192 441 192 Q335 192 260.5 267 Q186 342 186 447 Q186 553 260.5 627.5 Q335 702 441 702 Q546 702 621 627.5 Q696 553 696 447 Z M441 660 Q353 660 291 598 Q229 536 229 448 Q229 359 291 297 Q353 235 441 235 Q530 235 592 297 Q654 359 654 448 Q654 536 592 598 Q530 660 441 660 Z " />
<glyph glyph-name="trademark" unicode="&#x2122;" horiz-adv-x="810" d="M582 695 Q582 692 577 684 Q557 657 527 643 Q505 631 480 629 Q467 623 454 611 Q432 588 395 503 L362 426 Q334 361 271 361 Q238 361 228 384 Q223 399 227 417 Q229 423 234 424 Q237 424 240 412.5 Q243 401 255 399 Q293 393 321 457 L345 510 Q377 584 409 611 Q420 621 433 627 Q435 628 435 629 Q434 631 430.5 631.5 Q427 632 414 634 L356 647 Q344 649 334 649 Q305 649 295 628 Q287 611 295 600 Q298 597 295 594 Q292 590 289 592 Q273 603 273 626 Q273 657 298 678.5 Q323 700 354 700 Q365 700 377 698 L440 683 Q470 676 508 680 Q551 683 574 698 Q583 704 582 695 Z M427 428 Q400 435 390 405 Q388 400 388 394 Q388 370 418 364 Q454 356 496 398 Q511 414 540 453 Q572 497 577 503 Q582 509 584 507 Q585 505 583 499 Q574 476 569 439 Q559 371 560 365 Q562 359 567 361 Q570 362 573 366 Q602 424 664 502 Q670 509 672 508 Q673 507 668 494 Q648 442 648 400 Q648 343 697 341 Q721 340 739 356 Q757 372 755 393 Q754 409 736 412 Q733 413 730 411 Q728 408 730 405 Q737 398 729 388.5 Q721 379 711 379 Q693 379 692 398 Q690 435 735 548 Q777 659 802 689 Q807 694 801 696 Q797 697 787 691 Q730 658 643 528 Q639 522 636 522 Q634 523 634 530 Q648 613 692 687 Q697 694 693 696 Q689 698 681 692 Q633 656 555 547 Q519 491 473 424 Q464 414 454 411 Q446 410 442.5 415 Q439 420 427 428 Z " />
<glyph glyph-name="acute" unicode="&#xb4;" horiz-adv-x="180" d="M162 787 Q213 826 239 858 Q248 870 257 890 Q268 916 272 922 Q285 943 301 943 Q331 943 325 908 Q319 875 258 829 Q208 791 164 772 L162 787 Z " />
<glyph glyph-name="dieresis" unicode="&#xa8;" horiz-adv-x="295" d="M312 833 Q316 853 332.5 866.5 Q349 880 369 880 Q388 880 399.5 866 Q411 852 407 833 Q404 813 388 799.5 Q372 786 352 786 Q332 786 320.5 799 Q309 812 312 833 Z M179 833 Q183 852 199 866 Q215 880 235 880 Q254 880 265.5 866 Q277 852 273 833 Q270 812 254 799 Q238 786 218 786 Q199 786 187.5 799.5 Q176 813 179 833 Z " />
<glyph glyph-name="AE" unicode="&#xc6;" horiz-adv-x="1015" d="M725 583 Q689 475 671 372 L670 369 Q719 391 780 391 Q801 391 823 388 Q785 415 758 457 Q724 509 724 564 Q724 574 725 583 Z M793 750 Q795 746 788 732 Q772 704 756 665 Q796 727 865 759 Q922 785 982 785 Q1013 785 1034 777 Q1128 745 1128 634 Q1128 583 1105 535 Q1094 512 1069 495.5 Q1044 479 1020 479 Q999 479 987.5 493 Q976 507 978 516 Q980 521 993 530.5 Q1006 540 1010 546 Q1033 582 1033 632 Q1033 704 979 704 Q945 704 908 676 Q869 645 849 596 Q840 575 840 551 Q840 470 916 423 Q937 411 961 395 Q965 391 965 380 Q965 335 930 305 Q923 299 909 304 L874 318 Q855 325 830 325 Q779 325 733 300 Q679 270 656 217 Q646 194 646 170 Q646 131 669.5 99 Q693 67 727 57 Q756 49 782 49 Q832 49 875 79 Q903 99 911 130 Q913 139 911 143 Q909 144 904 143 Q898 140 896 140 Q873 140 873 168 Q873 176 877 186 Q893 231 947 231 Q976 231 994 213 Q1012 195 1012 164 Q1012 137 997 104 Q973 50 904 10 Q831 -32 750 -32 Q681 -32 626 0 L513 0 Q502 0 505 12 Q510 29 510 60 Q510 174 430 256 Q407 280 373 297 L316 185 Q263 79 192 27 Q133 -16 72 -16 Q41 -16 17 -4 Q-27 17 -27 66 Q-27 87 -18 113 Q-14 126 -3 128 Q2 128 4.5 125.5 Q7 123 7 117 Q6 103 16 89 Q26 75 43 72 Q128 59 203 207 L263 327 Q226 330 218 323.5 Q210 317 209 310 Q213 297 207 266 Q191 236 159 236 Q146 236 136 243 Q114 255 114 284 Q114 319 143 347 Q196 399 291 395 L297 395 L319 438 Q413 625 532 690 Q645 752 767 755 Q790 755 793 750 Z M726 711 Q729 717 727 718 Q726 719 719 717 Q612 684 544 601 Q501 549 433 415 L409 367 Q488 332 548 256 Q556 291 565 328 Q591 431 633 526 Q651 566 726 711 Z " />
<glyph glyph-name="Oslash" unicode="&#xd8;" horiz-adv-x="579" d="M797 504 Q797 483 772 467 Q723 438 662 427 Q600 261 477 131 Q330 -24 181 -17 Q105 -14 70 45 L16 0 Q4 -10 -6 -3 Q-15 3 -15 19 Q-15 39 2 54 L50 95 Q45 120 45 149 Q45 248 106 373 Q186 535 320 649.5 Q454 764 564 764 Q681 764 699 648 L786 722 Q796 730 804.5 721.5 Q813 713 813 697 Q813 675 795 660 L700 580 Q697 535 682 484 Q715 493 747 512 Q765 522 778 522 Q797 522 797 504 Z M628 587 Q618 664 550 665 Q513 612 513 562 Q513 525 531 505 L628 587 Z M624 515 L581 478 Q596 475 614 474 Q621 496 624 515 Z M483 464 Q454 497 454 548 Q454 595 481 648 Q337 583 234 374 Q186 275 180 206 L483 464 Z M595 421 Q557 422 528 433 L186 144 Q203 90 261 82 Q348 71 460 205 Q547 310 595 421 Z " />
<glyph glyph-name="ae" unicode="&#xe6;" horiz-adv-x="512" d="M415 384 L413 379 Q456 400 494 401 Q525 401 542 389 Q561 374 559 344 Q553 274 475 207 Q408 149 332 124 Q327 68 365 57 Q379 53 394 53 Q456 53 511 111 Q541 142 563 186 Q567 195 576 195 Q585 195 595 186 Q613 171 605 147 Q593 113 557 69 Q485 -15 365 -15 Q332 -15 303 -7 Q236 12 221 83 Q191 47 147 21 Q103 -5 67 -5 Q46 -5 31 5 Q6 22 6 67 Q6 134 46.5 210.5 Q87 287 150 341 Q219 400 280 399 Q320 399 326 377 L331 387 Q334 393 341 393 L412 393 Q419 393 415 384 Z M507 316 Q513 330 513 339 Q513 353 500 355 Q478 358 435 314.5 Q392 271 362 213 Q351 192 343 173 Q470 231 507 316 Z M294 314 Q298 324 298 332 Q298 351 279 351 Q249 351 212 322 Q170 287 140.5 227.5 Q111 168 111 132 Q111 92 146 92 Q191 92 214 140 L294 314 Z " />
<glyph glyph-name="oslash" unicode="&#xf8;" horiz-adv-x="403" d="M511 177 Q508 161 488 127 Q466 87 445 68 Q413 39 363 39 Q313 39 277 66 Q191 -15 112 -15 Q92 -15 76 -8 L19 -67 Q8 -78 -2 -72 Q-10 -65 -10 -49 Q-10 -29 5 -13 L39 22 Q24 47 24 84 Q24 134 52 194 Q94 280 170 341.5 Q246 403 313 403 Q355 403 379 375 L436 434 Q444 443 452 435 Q460 427 460 411 Q460 389 444 372 L400 326 Q401 316 401 304 Q401 254 373 194 Q354 155 325 118 Q351 101 375 104 Q418 110 466 210 Q473 224 486 218 Q498 213 506 200.5 Q514 188 511 177 Z M311 305 Q309 309 306 312 Q299 301 293 287 L311 305 Z M313 236 L278 200 Q279 186 284 172 Q304 205 313 236 Z M246 308 Q189 274 152 196 Q131 152 131 118 L218 208 Q224 269 246 308 Z M238 112 Q229 128 224 145 L155 74 Q160 73 165 73 Q197 73 238 112 Z " />
<glyph glyph-name="questiondown" unicode="&#xbf;" horiz-adv-x="461" d="M447 690 Q432 660 406.5 639 Q381 618 360 618 Q336 618 336 646 Q336 666 348 690 Q364 720 389.5 741.5 Q415 763 435 763 Q460 763 460 734 Q460 715 447 690 Z M329 149 Q308 116 274 91 Q233 62 197 62 Q186 62 176 65 Q125 79 125 146 Q125 204 160 267 Q180 304 220 342 Q279 398 282 401 Q301 422 333 473 Q370 532 370 550 Q370 565 349 575 Q332 584 314 584 Q293 584 286 570 Q239 475 200 438 Q153 398 106 358 Q58 315 36 251 Q22 209 22 168 Q22 103 55.5 55 Q89 7 142 -5 Q166 -10 190 -10 Q308 -10 388 104 Q423 156 423 216 Q423 266 395 286 Q379 297 358 297 Q333 297 308 281.5 Q283 266 273 246.5 Q263 227 272 218 Q287 206 308 231 Q321 248 335 248 Q356 248 356 222 Q356 192 329 149 Z " />
<glyph glyph-name="exclamdown" unicode="&#xa1;" horiz-adv-x="306" d="M394 633 Q378 602 352.5 581 Q327 560 307 560 Q282 560 282 589 Q282 608 295 633 Q310 663 335.5 684 Q361 705 382 705 Q406 705 406 676 Q406 657 394 633 Z M106 -1 Q102 -9 96 -8 L13 4 Q7 4 10 12 L247 509 Q252 518 260 518 L322 518 Q330 518 325 507 L106 -1 Z " />
<glyph glyph-name="ellipsis" unicode="&#x2026;" horiz-adv-x="669" d="M111 64 Q127 94 152.5 115.5 Q178 137 198 137 Q223 137 223 108 Q223 89 210 64 Q195 34 169.5 13 Q144 -8 123 -8 Q99 -8 99 20 Q99 40 111 64 Z M331 64 Q347 94 372.5 115.5 Q398 137 418 137 Q443 137 443 108 Q443 89 430 64 Q415 34 389.5 13 Q364 -8 343 -8 Q319 -8 319 20 Q319 40 331 64 Z M531 64 Q547 94 572.5 115.5 Q598 137 618 137 Q643 137 643 108 Q643 89 630 64 Q615 34 589.5 13 Q564 -8 543 -8 Q519 -8 519 20 Q519 40 531 64 Z " />
<glyph glyph-name="nbspace" unicode="&#xa0;" horiz-adv-x="315" d="" />
<glyph glyph-name="Agrave" unicode="&#xc0;" horiz-adv-x="741" d="M452 367 Q531 332 591 256 Q599 291 608 328 Q634 431 676 526 Q694 566 769 711 Q772 717 770 718 Q768 719 762 717 Q655 684 586 601 Q544 549 476 415 L452 367 Z M548 12 Q553 29 553 60 Q553 174 473 256 Q450 280 416 297 L359 185 Q306 79 235 27 Q175 -16 115 -16 Q84 -16 59 -4 Q16 17 16 66 Q16 87 25 113 Q29 126 40 128 Q45 128 47.5 125.5 Q50 123 50 117 Q49 103 59 89 Q69 75 86 72 Q171 59 246 207 L306 327 Q269 330 261 323.5 Q253 317 252 310 Q256 297 250 266 Q234 236 202 236 Q189 236 179 243 Q157 255 157 284 Q157 319 186 347 Q239 399 334 395 L340 395 L362 438 Q456 625 575 690 Q688 752 810 755 Q833 755 835 750 Q838 746 831 732 Q751 587 713 372 Q679 179 679 14 Q680 0 670 0 L556 0 Q545 0 548 12 Z M814 802 L806 787 Q767 807 732 844 Q687 890 693 924 Q699 958 733 958 Q746 958 751 937 Q751 915 761 873 Q776 841 814 802 Z " />
<glyph glyph-name="Atilde" unicode="&#xc3;" horiz-adv-x="741" d="M452 367 Q531 332 591 256 Q599 291 608 328 Q634 431 676 526 Q694 566 769 711 Q772 717 770 718 Q768 719 762 717 Q655 684 586 601 Q544 549 476 415 L452 367 Z M548 12 Q553 29 553 60 Q553 174 473 256 Q450 280 416 297 L359 185 Q306 79 235 27 Q175 -16 115 -16 Q84 -16 59 -4 Q16 17 16 66 Q16 87 25 113 Q29 126 40 128 Q45 128 47.5 125.5 Q50 123 50 117 Q49 103 59 89 Q69 75 86 72 Q171 59 246 207 L306 327 Q269 330 261 323.5 Q253 317 252 310 Q256 297 250 266 Q234 236 202 236 Q189 236 179 243 Q157 255 157 284 Q157 319 186 347 Q239 399 334 395 L340 395 L362 438 Q456 625 575 690 Q688 752 810 755 Q833 755 835 750 Q838 746 831 732 Q751 587 713 372 Q679 179 679 14 Q680 0 670 0 L556 0 Q545 0 548 12 Z M915 904 L931 904 Q894 811 821 811 Q803 811 769 824 Q735 837 716 837 Q697 837 688 829 Q686 826 672 805 L652 805 Q684 891 749 891 Q770 891 804 876.5 Q838 862 853 862 Q871 862 886 876 Q901 890 915 904 Z " />
<glyph glyph-name="Otilde" unicode="&#xd5;" horiz-adv-x="635" d="M199 -17 Q133 -14 97.5 30 Q62 74 62 149 Q62 248 124 373 Q203 535 337 649.5 Q471 764 582 764 Q719 764 719 609 Q719 553 699 484 Q732 493 765 512 Q783 522 796 522 Q815 522 815 504 Q815 483 789 467 Q740 438 680 427 Q617 261 495 131 Q347 -24 199 -17 Z M632 474 Q647 526 647 565 Q647 616 622 642 Q601 665 567 665 Q530 612 530 562 Q530 540 538 521 Q556 476 632 474 Z M612 421 Q515 423 485 489 Q472 516 472 548 Q472 595 498 648 Q354 583 252 374 Q197 262 197 188 Q197 93 279 82 Q366 71 478 205 Q565 310 612 421 Z M751 914 L767 914 Q731 821 658 821 Q639 821 605.5 834 Q572 847 552 847 Q533 847 524 839 Q522 837 509 815 L489 815 Q520 901 585 901 Q606 901 640 886.5 Q674 872 690 872 Q708 872 724 887 Q737 901 751 914 Z " />
<glyph glyph-name="OE" unicode="&#x152;" horiz-adv-x="994" d="M482 137 Q332 -25 181 -17 Q116 -14 80.5 30 Q45 74 45 149 Q45 248 106 373 Q185 535 319.5 649.5 Q454 764 564 764 Q699 764 702 625 Q709 644 721 662 Q761 724 830 756 Q887 783 948 783 Q979 783 1000 775 Q1093 743 1093 632 Q1093 581 1071 533 Q1060 510 1035 493.5 Q1010 477 986 477 Q965 477 953 491 Q941 505 944 514 Q945 519 958.5 528.5 Q972 538 976 544 Q998 580 998 630 Q998 702 945 702 Q910 702 874 674 Q835 643 814 594 Q805 573 805 549 Q805 468 882 421 Q903 409 927 393 Q931 389 931 378 Q931 333 896 303 Q889 297 875 302 L839 316 Q821 323 796 323 Q745 323 699 298 Q645 268 621 215 Q611 192 611 168 Q611 129 635 97 Q659 65 693 55 Q721 47 747 47 Q798 47 841 77 Q868 97 876 128 Q879 137 876 141 Q875 142 870 141 Q864 138 862 138 Q839 138 839 166 Q839 174 842 184 Q858 229 912 229 Q942 229 960 211 Q978 193 978 162 Q978 135 963 102 Q938 48 869 8 Q796 -34 716 -34 Q675 -34 638 -22 Q579 -4 537 37 Q492 81 482 137 Z M641 373 Q712 396 789 386 Q707 443 692 533 Q675 445 641 373 Z M549 665 Q479 661 385 575.5 Q291 490 234 374 Q179 262 179 188 Q179 93 261 82 Q357 70 481 232 Q523 287 569 389 Q624 512 624 585 Q624 668 549 665 Z " />
<glyph glyph-name="oe" unicode="&#x153;" horiz-adv-x="565" d="M277 69 Q189 -15 109 -15 Q67 -15 44 11.5 Q21 38 21 84 Q21 134 49 194 Q91 280 167 341.5 Q243 403 310 403 Q383 403 396 331 Q474 400 548 401 Q579 401 596 389 Q615 374 613 344 Q607 274 529 207 Q462 149 386 124 Q381 68 419 57 Q433 53 448 53 Q510 53 565 111 Q595 142 617 186 Q621 195 630 195 Q639 195 649 186 Q667 171 659 147 Q647 113 611 69 Q541 -13 417 -13 Q386 -13 357 -7 Q292 7 277 69 Z M561 316 Q567 330 567 339 Q567 353 554 355 Q532 358 489 314.5 Q446 271 416 213 Q405 192 397 173 Q524 231 561 316 Z M294 196 Q315 240 315 274 Q315 320 281 320 Q251 320 212.5 284 Q174 248 149 196 Q128 152 128 118 Q128 73 162 73 Q193 73 231.5 109 Q270 145 294 196 Z " />
<glyph glyph-name="endash" unicode="&#x2013;" horiz-adv-x="576" d="M484 199 Q502 199 517 217 Q532 235 537 253 Q541 272 530 272 L187 272 Q165 272 150 256 Q135 240 135 218 Q135 199 146 199 L484 199 Z " />
<glyph glyph-name="emdash" unicode="&#x2014;" horiz-adv-x="806" d="M724 199 Q742 199 757 217 Q772 235 777 253 Q781 272 770 272 L187 272 Q165 272 150 256 Q135 240 135 218 Q135 199 146 199 L724 199 Z " />
<glyph glyph-name="quotedblleft" unicode="&#x201c;" horiz-adv-x="364" d="M315 598 Q362 682 416 712 Q440 726 446 715 Q451 707 440 699 Q406 672 385 638 Q388 639 390 639 Q415 639 415 610 Q415 591 402 566 Q387 536 361.5 515 Q336 494 315 494 Q292 494 292 523 Q292 558 315 598 Z M191 598 Q238 682 292 712 Q316 726 322 715 Q327 707 316 699 Q282 672 261 638 Q264 639 266 639 Q291 639 291 610 Q291 591 278 566 Q263 536 237.5 515 Q212 494 191 494 Q168 494 168 523 Q168 558 191 598 Z " />
<glyph glyph-name="quotedblright" unicode="&#x201d;" horiz-adv-x="364" d="M300 606 Q253 522 199 492 Q175 479 168 489 Q164 497 175 506 Q209 532 230 566 Q227 566 224 566 Q200 566 200 594 Q200 614 212 638 Q228 668 253.5 689.5 Q279 711 299 711 Q323 711 323 682 Q323 646 300 606 Z M424 606 Q377 522 323 492 Q299 479 292 489 Q288 497 299 506 Q333 532 354 566 Q351 566 348 566 Q324 566 324 594 Q324 614 336 638 Q352 668 377.5 689.5 Q403 711 423 711 Q447 711 447 682 Q447 646 424 606 Z " />
<glyph glyph-name="quoteleft" unicode="&#x2018;" horiz-adv-x="237" d="M188 598 Q235 682 289 712 Q313 726 319 715 Q324 707 313 699 Q279 672 258 638 Q261 639 263 639 Q288 639 288 610 Q288 591 275 566 Q260 536 234.5 515 Q209 494 188 494 Q165 494 165 523 Q165 558 188 598 Z " />
<glyph glyph-name="quoteright" unicode="&#x2019;" horiz-adv-x="249" d="M300 606 Q253 522 199 492 Q175 479 168 489 Q164 497 175 506 Q209 532 230 566 Q227 566 224 566 Q200 566 200 594 Q200 614 212 638 Q228 668 253.5 689.5 Q279 711 299 711 Q323 711 323 682 Q323 646 300 606 Z " />
<glyph glyph-name="divide" unicode="&#xf7;" horiz-adv-x="243" d="M135 255 Q231 255 228 95 Q227 39 195 -47 Q148 -175 53 -289 Q-27 -384 -167 -455 Q-329 -539 -499 -546 Q-565 -549 -631 -549 Q-727 -549 -919.5 -536 Q-1112 -523 -1209 -523 Q-1816 -523 -1919 -774 Q-1930 -800 -1949 -800 Q-1965 -800 -1973 -779 Q-1993 -720 -2091 -673 Q-2198 -622 -2317 -628 Q-2348 -629 -2348 -619 Q-2348 -610 -2328 -597 Q-2161 -490 -2035 -432 Q-1859 -352 -1659 -312 Q-1496 -280 -1333 -280 Q-1184 -280 -919 -316 Q-807 -332 -696 -348 Q-573 -365 -481 -364 Q-311 -362 -162 -299 Q-31 -243 44 -158 Q156 -31 171 105 Q173 121 173 134 Q173 189 142 193 Q123 196 92 137 Q52 64 34 64 Q20 64 10 87 Q1 110 10 122 Q39 158 63 209 Q72 228 92.5 241.5 Q113 255 135 255 Z " />
<glyph glyph-name="ydieresis" unicode="&#xff;" horiz-adv-x="367" d="M165 418 Q207 413 207 368 Q207 357 204 345 Q198 311 156.5 223.5 Q115 136 113 124 Q107 88 141 87 Q166 86 194 121 L314 387 Q316 393 324 393 L395 393 Q402 393 398 384 L250 44 Q281 57 312 71 Q358 94 386 132 Q409 164 433 214 Q439 227 458 215 Q477 203 477 181 Q477 167 452 124 Q442 107 431 92 Q370 7 215 -31 L154 -159 Q108 -257 -3 -257 Q-93 -257 -93 -184 Q-93 -159 -78 -130 Q-55 -86 29 -44 Q85 -20 140 4 Q143 9 159 45 Q117 9 71 9 Q42 9 23.5 31 Q5 53 9 92 Q11 112 54 190 Q104 281 113 306 Q125 338 115 347 Q95 364 111 390 Q130 421 165 418 Z M109 -67 Q-16 -105 -31 -146 Q-34 -154 -34 -162 Q-34 -188 0 -188 Q50 -188 77 -133 L109 -67 Z M312 504 Q316 524 332.5 537.5 Q349 551 369 551 Q388 551 399.5 537.5 Q411 524 407 504 Q404 485 388 471 Q372 457 352 457 Q332 457 320.5 470.5 Q309 484 312 504 Z M179 504 Q183 524 199 537.5 Q215 551 235 551 Q254 551 265.5 537.5 Q277 524 273 504 Q270 484 254 470.5 Q238 457 218 457 Q199 457 187.5 471 Q176 485 179 504 Z " />
<glyph glyph-name="Ydieresis" unicode="&#x178;" horiz-adv-x="467" d="M660 732 L432 202 Q476 200 504 189 Q522 182 522 166 Q522 155 513.5 145 Q505 135 494 135 Q490 135 487 136 Q460 148 408 147 L357 31 Q314 -68 248 -137 Q172 -217 98 -217 Q83 -217 69 -213 Q-4 -196 -4 -109 Q-4 -52 30 0 Q118 132 303 185 L315 211 Q274 199 240 199 Q189 199 160 225 Q126 256 126 311 Q126 403 206 513 Q278 611 278 655 Q278 691 242 691 Q219 691 193 671 Q167 651 157 621 Q152 607 152 594 Q152 560 175 561 Q179 561 179 557 Q180 535 150.5 517 Q121 499 98 499 Q54 499 54 562 Q54 599 74 639 Q101 695 154 729 Q207 763 267 763 Q282 763 296 761 Q383 748 383 658 Q383 637 378 612 Q366 559 314 482 Q253 391 253 350 Q253 309 300 309 Q339 309 370 335 L548 734 Q555 750 568 750 L651 752 Q658 752 661 747 Q664 740 660 732 Z M271 116 Q142 63 91 -17 Q59 -67 59 -106 Q59 -144 87 -144 Q114 -144 155 -95 Q196 -46 233 33 L271 116 Z M514 851 Q518 871 534.5 884.5 Q551 898 571 898 Q590 898 601.5 884 Q613 870 609 851 Q606 831 590 817.5 Q574 804 554 804 Q534 804 522.5 817.5 Q511 831 514 851 Z M381 851 Q385 870 401 884 Q417 898 437 898 Q456 898 467.5 884 Q479 870 475 851 Q472 830 456 817 Q440 804 420 804 Q401 804 389.5 817.5 Q378 831 381 851 Z " />
<glyph glyph-name="currency" unicode="&#xa4;" horiz-adv-x="656" d="M369 350 Q369 322 339 322 L229 322 Q211 268 211 225 Q211 142 270 116 Q289 108 309 108 Q347 108 381 136 Q410 160 415 181 Q417 188 414.5 190 Q412 192 406 192 Q397 191 396 191 Q394 192 395 196 Q400 215 415 231 Q435 253 461 253 Q511 253 511 206 Q511 179 493 149 Q465 104 416 71 Q356 31 290 31 Q256 31 223 42 Q174 58 146.5 108.5 Q119 159 119 231 Q119 275 130 322 L83 322 Q53 322 53 350 Q53 379 83 379 L146 379 Q154 401 164 422 L123 422 Q93 422 93 450 Q93 479 123 479 L193 479 Q256 586 344 646 Q423 699 497 699 Q519 699 538 693 Q615 672 615 599 Q615 577 607 554 Q591 510 545 511 Q532 511 529 517 Q528 520 531 524 Q544 547 544 572 Q544 614 506 619 Q472 624 419 590 Q359 550 309 479 L379 479 Q409 479 409 450 Q409 422 379 422 L274 422 Q262 401 252 379 L339 379 Q369 379 369 350 Z " />
<glyph glyph-name="daggerdbl" unicode="&#x2021;" horiz-adv-x="530" d="M315 63 Q228 -16 140 -16 Q110 -16 87 -5 Q38 16 38 99 Q38 222 141 415 Q222 568 319 671 Q409 767 461 767 Q497 767 497 717 Q497 668 463 585 Q432 509 390 444 Q313 327 227 260 Q218 253 211 253 Q203 253 200 264 Q193 292 210 304 Q284 359 350 458 Q388 515 412 575 Q435 630 435 661 Q435 680 425 682 Q407 686 356 615 Q301 538 243 422 Q135 203 135 105 Q135 66 156 57 Q164 53 175 53 Q224 53 295 129 Q356 193 385 255 L415 319 L396 319 Q385 319 385 338 Q385 360 400 376 Q415 392 437 392 L450 392 L510 519 Q522 544 555 558 Q582 569 606 566 Q621 563 621 552 Q621 547 618 541 L550 392 L600 392 Q611 392 607 373 Q603 355 587.5 337 Q572 319 554 319 L516 319 L440 153 Q427 125 427 107 Q427 75 462 75 Q486 75 510 93 Q557 129 596 214 Q602 226 620 215 Q639 204 639 182 Q639 175 636 169 Q559 -7 406 -7 Q324 -7 315 63 Z " />
<glyph glyph-name="&amp;#xb7;" unicode="&#xb7;" horiz-adv-x="316" d="M178 284 Q193 314 218.5 335.5 Q244 357 265 357 Q289 357 289 328 Q289 309 277 284 Q261 254 235.5 233 Q210 212 190 212 Q165 212 165 240 Q165 260 178 284 Z " />
<glyph glyph-name="&amp;#x2219;" unicode="&#x2219;" horiz-adv-x="316" d="M178 284 Q193 314 218.5 335.5 Q244 357 265 357 Q289 357 289 328 Q289 309 277 284 Q261 254 235.5 233 Q210 212 190 212 Q165 212 165 240 Q165 260 178 284 Z " />
<glyph glyph-name="quotesinglbase" unicode="&#x201a;" horiz-adv-x="327" d="M289 106 Q242 22 188 -8 Q164 -21 158 -11 Q154 -3 165 6 Q198 32 219 66 Q217 66 214 66 Q189 66 189 94 Q189 114 202 138 Q217 168 242.5 189.5 Q268 211 289 211 Q312 211 312 182 Q312 146 289 106 Z " />
<glyph glyph-name="quotedblbase" unicode="&#x201e;" horiz-adv-x="392" d="M261 106 Q214 22 160 -8 Q136 -21 130 -11 Q125 -3 136 6 Q170 32 191 66 Q188 66 186 66 Q161 66 161 94 Q161 114 174 138 Q189 168 214.5 189.5 Q240 211 261 211 Q284 211 284 182 Q284 146 261 106 Z M385 106 Q338 22 284 -8 Q260 -21 254 -11 Q249 -3 260 6 Q294 32 315 66 Q312 66 310 66 Q285 66 285 94 Q285 114 298 138 Q313 168 338.5 189.5 Q364 211 385 211 Q408 211 408 182 Q408 146 385 106 Z " />
<glyph glyph-name="perthousand" unicode="&#x2030;" horiz-adv-x="677" d="M757 116 Q693 10 525 -31 L464 -159 Q418 -257 307 -257 Q217 -257 217 -184 Q217 -159 232 -130 Q255 -86 339 -44 Q395 -20 450 4 Q453 9 469 45 Q427 9 381 9 Q327 9 319 66 Q222 -16 138 -16 Q110 -16 87 -5 Q38 16 38 99 Q38 222 141 415 Q222 568 319 671 Q409 767 461 767 Q497 767 497 717 Q497 668 463 585 Q432 509 390 444 Q313 327 227 260 Q218 253 211 253 Q203 253 200 264 Q193 292 210 304 Q284 359 350 458 Q388 515 412 575 Q435 630 435 661 Q435 680 425 682 Q407 686 356 615 Q301 538 243 422 Q135 204 135 105 Q135 55 169 55 Q199 55 250 90.5 Q301 126 352 185 Q396 235 423 306 Q435 338 425 347 Q405 364 421 390 Q440 421 475 418 Q517 413 517 368 Q517 357 514 345 Q508 311 466.5 223.5 Q425 136 423 124 Q417 88 451 87 Q476 86 504 121 L624 387 Q626 393 634 393 L705 393 Q712 393 708 384 L560 44 Q591 57 622 71 Q668 94 696 132 Q719 164 743 214 Q749 227 768 215 Q787 203 787 181 Q787 164 757 116 Z M419 -67 Q294 -105 279 -146 Q276 -154 276 -162 Q276 -188 310 -188 Q360 -188 387 -133 L419 -67 Z " />
<glyph glyph-name="Acircumflex" unicode="&#xc2;" horiz-adv-x="741" d="M452 367 Q531 332 591 256 Q599 291 608 328 Q634 431 676 526 Q694 566 769 711 Q772 717 770 718 Q768 719 762 717 Q655 684 586 601 Q544 549 476 415 L452 367 Z M548 12 Q553 29 553 60 Q553 174 473 256 Q450 280 416 297 L359 185 Q306 79 235 27 Q175 -16 115 -16 Q84 -16 59 -4 Q16 17 16 66 Q16 87 25 113 Q29 126 40 128 Q45 128 47.5 125.5 Q50 123 50 117 Q49 103 59 89 Q69 75 86 72 Q171 59 246 207 L306 327 Q269 330 261 323.5 Q253 317 252 310 Q256 297 250 266 Q234 236 202 236 Q189 236 179 243 Q157 255 157 284 Q157 319 186 347 Q239 399 334 395 L340 395 L362 438 Q456 625 575 690 Q688 752 810 755 Q833 755 835 750 Q838 746 831 732 Q751 587 713 372 Q679 179 679 14 Q680 0 670 0 L556 0 Q545 0 548 12 Z M844 952 L855 952 Q870 853 899 797 L875 789 Q858 803 847 834 Q839 860 830 887 Q795 860 760 833 Q716 803 684 793 L666 800 Q767 871 844 952 Z " />
<glyph glyph-name="Ecircumflex" unicode="&#xca;" horiz-adv-x="543" d="M560 775 Q535 784 503 784 Q444 784 389 756 Q325 723 286 658 Q251 600 251 545 Q251 447 349 386 Q328 389 306 389 Q135 389 66 262 Q40 213 40 165 Q40 100 88 47 Q131 -1 198 -22 Q238 -35 279 -35 Q357 -35 423 9 Q484 48 511 106 Q529 143 529 174 Q529 206 511 224.5 Q493 243 462 243 Q409 243 392 195 Q389 186 389 178 Q389 150 412 150 Q414 150 420 152 Q425 154 426 152 Q429 149 426 140 Q418 108 391 89 Q346 59 301 59 Q276 59 249 67 Q215 77 193 104.5 Q171 132 171 167 Q171 191 181 215 Q205 268 259 298 Q305 323 356 323 Q381 323 399 316 L435 302 Q449 297 456 303 Q491 333 491 378 Q491 389 487.5 392.5 Q484 396 442 421 Q366 468 366 549 Q366 573 374 594 Q395 645 432 675 Q466 703 501 703 Q513 703 523 699 Q555 689 555 648 Q555 621 542 617 Q538 616 528 623 Q518 630 506 630 Q473 630 455 593 Q450 583 450 574 Q450 551 474 536 Q495 523 520 523 Q574 523 612 574 Q642 615 642 664 Q642 747 560 775 Z M594 986 L605 986 Q620 887 648 831 L625 823 Q608 837 597 868 Q588 894 580 921 Q545 894 510 867 Q466 836 434 827 L416 834 Q517 904 594 986 Z " />
<glyph glyph-name="Aacute" unicode="&#xc1;" horiz-adv-x="741" d="M452 367 Q531 332 591 256 Q599 291 608 328 Q634 431 676 526 Q694 566 769 711 Q772 717 770 718 Q768 719 762 717 Q655 684 586 601 Q544 549 476 415 L452 367 Z M548 12 Q553 29 553 60 Q553 174 473 256 Q450 280 416 297 L359 185 Q306 79 235 27 Q175 -16 115 -16 Q84 -16 59 -4 Q16 17 16 66 Q16 87 25 113 Q29 126 40 128 Q45 128 47.5 125.5 Q50 123 50 117 Q49 103 59 89 Q69 75 86 72 Q171 59 246 207 L306 327 Q269 330 261 323.5 Q253 317 252 310 Q256 297 250 266 Q234 236 202 236 Q189 236 179 243 Q157 255 157 284 Q157 319 186 347 Q239 399 334 395 L340 395 L362 438 Q456 625 575 690 Q688 752 810 755 Q833 755 835 750 Q838 746 831 732 Q751 587 713 372 Q679 179 679 14 Q680 0 670 0 L556 0 Q545 0 548 12 Z M763 819 Q815 858 841 890 Q850 901 859 921 Q870 947 874 954 Q886 975 903 975 Q933 975 927 940 Q921 907 860 860 Q810 823 766 804 L763 819 Z " />
<glyph glyph-name="Edieresis" unicode="&#xcb;" horiz-adv-x="543" d="M560 775 Q535 784 503 784 Q444 784 389 756 Q325 723 286 658 Q251 600 251 545 Q251 447 349 386 Q328 389 306 389 Q135 389 66 262 Q40 213 40 165 Q40 100 88 47 Q131 -1 198 -22 Q238 -35 279 -35 Q357 -35 423 9 Q484 48 511 106 Q529 143 529 174 Q529 206 511 224.5 Q493 243 462 243 Q409 243 392 195 Q389 186 389 178 Q389 150 412 150 Q414 150 420 152 Q425 154 426 152 Q429 149 426 140 Q418 108 391 89 Q346 59 301 59 Q276 59 249 67 Q215 77 193 104.5 Q171 132 171 167 Q171 191 181 215 Q205 268 259 298 Q305 323 356 323 Q381 323 399 316 L435 302 Q449 297 456 303 Q491 333 491 378 Q491 389 487.5 392.5 Q484 396 442 421 Q366 468 366 549 Q366 573 374 594 Q395 645 432 675 Q466 703 501 703 Q513 703 523 699 Q555 689 555 648 Q555 621 542 617 Q538 616 528 623 Q518 630 506 630 Q473 630 455 593 Q450 583 450 574 Q450 551 474 536 Q495 523 520 523 Q574 523 612 574 Q642 615 642 664 Q642 747 560 775 Z M564 871 Q567 891 583.5 904.5 Q600 918 620 918 Q640 918 651 904.5 Q662 891 659 871 Q655 852 639 838 Q623 824 603 824 Q583 824 571.5 837.5 Q560 851 564 871 Z M431 871 Q434 891 450.5 904.5 Q467 918 486 918 Q506 918 517 904.5 Q528 891 525 871 Q521 851 505.5 837.5 Q490 824 469 824 Q450 824 438.5 838 Q427 852 431 871 Z " />
<glyph glyph-name="Egrave" unicode="&#xc8;" horiz-adv-x="543" d="M560 775 Q535 784 503 784 Q444 784 389 756 Q325 723 286 658 Q251 600 251 545 Q251 447 349 386 Q328 389 306 389 Q135 389 66 262 Q40 213 40 165 Q40 100 88 47 Q131 -1 198 -22 Q238 -35 279 -35 Q357 -35 423 9 Q484 48 511 106 Q529 143 529 174 Q529 206 511 224.5 Q493 243 462 243 Q409 243 392 195 Q389 186 389 178 Q389 150 412 150 Q414 150 420 152 Q425 154 426 152 Q429 149 426 140 Q418 108 391 89 Q346 59 301 59 Q276 59 249 67 Q215 77 193 104.5 Q171 132 171 167 Q171 191 181 215 Q205 268 259 298 Q305 323 356 323 Q381 323 399 316 L435 302 Q449 297 456 303 Q491 333 491 378 Q491 389 487.5 392.5 Q484 396 442 421 Q366 468 366 549 Q366 573 374 594 Q395 645 432 675 Q466 703 501 703 Q513 703 523 699 Q555 689 555 648 Q555 621 542 617 Q538 616 528 623 Q518 630 506 630 Q473 630 455 593 Q450 583 450 574 Q450 551 474 536 Q495 523 520 523 Q574 523 612 574 Q642 615 642 664 Q642 747 560 775 Z M563 836 L556 821 Q517 841 481 878 Q437 924 443 958 Q449 992 483 992 Q496 992 500 971 Q501 949 511 907 Q526 875 563 836 Z " />
<glyph glyph-name="Iacute" unicode="&#xcd;" horiz-adv-x="557" d="M348 193 Q394 246 439 314 Q498 404 539 498 Q580 592 580 640 Q580 676 555 676 Q518 676 469 600.5 Q420 525 385 420 Q345 303 348 193 Z M554 286 Q477 159 373 76 Q387 46 408 31 Q418 24 418 12 Q418 -15 390 -15 Q357 -15 327 44 Q237 -14 163 -14 Q141 -14 123 -9 Q41 14 41 145 Q41 184 50 239 Q55 264 73 258 Q114 244 158 242 Q212 239 249 246 Q262 249 263 233 Q263 212 246 207 Q211 196 175 196 Q142 196 120 204 Q116 206 112 205 Q105 203 105 178 Q105 138 123 109 Q143 75 181 75 Q228 75 300 143 Q297 168 297 197 Q297 312 339 442 Q385 584 469.5 684.5 Q554 785 618 775 Q681 766 681 658 Q681 497 554 286 Z M612 831 Q663 870 689 902 Q698 913 707 933 Q719 959 723 966 Q735 987 751 987 Q781 987 775 952 Q769 919 708 873 Q658 835 614 816 L612 831 Z " />
<glyph glyph-name="Icircumflex" unicode="&#xce;" horiz-adv-x="557" d="M348 193 Q394 246 439 314 Q498 404 539 498 Q580 592 580 640 Q580 676 555 676 Q518 676 469 600.5 Q420 525 385 420 Q345 303 348 193 Z M554 286 Q477 159 373 76 Q387 46 408 31 Q418 24 418 12 Q418 -15 390 -15 Q357 -15 327 44 Q237 -14 163 -14 Q141 -14 123 -9 Q41 14 41 145 Q41 184 50 239 Q55 264 73 258 Q114 244 158 242 Q212 239 249 246 Q262 249 263 233 Q263 212 246 207 Q211 196 175 196 Q142 196 120 204 Q116 206 112 205 Q105 203 105 178 Q105 138 123 109 Q143 75 181 75 Q228 75 300 143 Q297 168 297 197 Q297 312 339 442 Q385 584 469.5 684.5 Q554 785 618 775 Q681 766 681 658 Q681 497 554 286 Z M681 958 L692 958 Q707 859 736 803 L712 795 Q696 809 684 840 Q676 866 668 893 Q632 866 597 839 Q553 809 521 799 L503 806 Q604 877 681 958 Z " />
<glyph glyph-name="Idieresis" unicode="&#xcf;" horiz-adv-x="557" d="M348 193 Q394 246 439 314 Q498 404 539 498 Q580 592 580 640 Q580 676 555 676 Q518 676 469 600.5 Q420 525 385 420 Q345 303 348 193 Z M554 286 Q477 159 373 76 Q387 46 408 31 Q418 24 418 12 Q418 -15 390 -15 Q357 -15 327 44 Q237 -14 163 -14 Q141 -14 123 -9 Q41 14 41 145 Q41 184 50 239 Q55 264 73 258 Q114 244 158 242 Q212 239 249 246 Q262 249 263 233 Q263 212 246 207 Q211 196 175 196 Q142 196 120 204 Q116 206 112 205 Q105 203 105 178 Q105 138 123 109 Q143 75 181 75 Q228 75 300 143 Q297 168 297 197 Q297 312 339 442 Q385 584 469.5 684.5 Q554 785 618 775 Q681 766 681 658 Q681 497 554 286 Z M655 866 Q658 886 674.5 899.5 Q691 913 711 913 Q730 913 741.5 899 Q753 885 750 866 Q746 846 730 832.5 Q714 819 694 819 Q674 819 662.5 832.5 Q651 846 655 866 Z M522 866 Q525 885 541 899 Q557 913 577 913 Q596 913 607.5 899 Q619 885 616 866 Q612 846 596.5 832.5 Q581 819 560 819 Q541 819 529.5 832.5 Q518 846 522 866 Z " />
<glyph glyph-name="Igrave" unicode="&#xcc;" horiz-adv-x="557" d="M348 193 Q394 246 439 314 Q498 404 539 498 Q580 592 580 640 Q580 676 555 676 Q518 676 469 600.5 Q420 525 385 420 Q345 303 348 193 Z M554 286 Q477 159 373 76 Q387 46 408 31 Q418 24 418 12 Q418 -15 390 -15 Q357 -15 327 44 Q237 -14 163 -14 Q141 -14 123 -9 Q41 14 41 145 Q41 184 50 239 Q55 264 73 258 Q114 244 158 242 Q212 239 249 246 Q262 249 263 233 Q263 212 246 207 Q211 196 175 196 Q142 196 120 204 Q116 206 112 205 Q105 203 105 178 Q105 138 123 109 Q143 75 181 75 Q228 75 300 143 Q297 168 297 197 Q297 312 339 442 Q385 584 469.5 684.5 Q554 785 618 775 Q681 766 681 658 Q681 497 554 286 Z M655 822 L647 807 Q608 828 573 864 Q528 910 534 944 Q540 978 574 978 Q587 978 591 957 Q592 935 602 893 Q617 861 655 822 Z " />
<glyph glyph-name="Oacute" unicode="&#xd3;" horiz-adv-x="635" d="M199 -17 Q133 -14 97.5 30 Q62 74 62 149 Q62 248 124 373 Q203 535 337 649.5 Q471 764 582 764 Q719 764 719 609 Q719 553 699 484 Q732 493 765 512 Q783 522 796 522 Q815 522 815 504 Q815 483 789 467 Q740 438 680 427 Q617 261 495 131 Q347 -24 199 -17 Z M632 474 Q647 526 647 565 Q647 616 622 642 Q601 665 567 665 Q530 612 530 562 Q530 540 538 521 Q556 476 632 474 Z M612 421 Q515 423 485 489 Q472 516 472 548 Q472 595 498 648 Q354 583 252 374 Q197 262 197 188 Q197 93 279 82 Q366 71 478 205 Q565 310 612 421 Z M585 834 Q636 873 662 905 Q671 916 680 937 Q691 962 695 969 Q708 990 724 990 Q754 990 748 955 Q742 922 681 876 Q631 838 587 819 L585 834 Z " />
<glyph glyph-name="Ocircumflex" unicode="&#xd4;" horiz-adv-x="635" d="M199 -17 Q133 -14 97.5 30 Q62 74 62 149 Q62 248 124 373 Q203 535 337 649.5 Q471 764 582 764 Q719 764 719 609 Q719 553 699 484 Q732 493 765 512 Q783 522 796 522 Q815 522 815 504 Q815 483 789 467 Q740 438 680 427 Q617 261 495 131 Q347 -24 199 -17 Z M632 474 Q647 526 647 565 Q647 616 622 642 Q601 665 567 665 Q530 612 530 562 Q530 540 538 521 Q556 476 632 474 Z M612 421 Q515 423 485 489 Q472 516 472 548 Q472 595 498 648 Q354 583 252 374 Q197 262 197 188 Q197 93 279 82 Q366 71 478 205 Q565 310 612 421 Z M672 969 L683 969 Q697 870 726 814 L703 806 Q686 820 675 851 Q666 877 658 904 Q623 877 587 850 Q544 819 512 810 L494 817 Q595 887 672 969 Z " />
<glyph glyph-name="Ograve" unicode="&#xd2;" horiz-adv-x="635" d="M199 -17 Q133 -14 97.5 30 Q62 74 62 149 Q62 248 124 373 Q203 535 337 649.5 Q471 764 582 764 Q719 764 719 609 Q719 553 699 484 Q732 493 765 512 Q783 522 796 522 Q815 522 815 504 Q815 483 789 467 Q740 438 680 427 Q617 261 495 131 Q347 -24 199 -17 Z M632 474 Q647 526 647 565 Q647 616 622 642 Q601 665 567 665 Q530 612 530 562 Q530 540 538 521 Q556 476 632 474 Z M612 421 Q515 423 485 489 Q472 516 472 548 Q472 595 498 648 Q354 583 252 374 Q197 262 197 188 Q197 93 279 82 Q366 71 478 205 Q565 310 612 421 Z M628 810 L620 795 Q581 815 546 852 Q501 898 507 932 Q513 966 547 966 Q560 966 565 945 Q566 923 575 881 Q590 849 628 810 Z " />
<glyph glyph-name="Uacute" unicode="&#xda;" horiz-adv-x="641" d="M387 105 Q345 60 293 29 Q232 -6 178 -6 Q141 -6 110 11 Q29 56 29 178 Q29 334 173 513 Q256 615 256 658 Q256 691 223 691 Q199 691 171.5 671 Q144 651 132 621 Q124 605 124 589 Q124 560 145 561 Q147 560 149 557 Q148 535 117.5 517 Q87 499 64 499 Q24 499 24 554 Q24 594 50 639 Q82 695 137.5 729 Q193 763 253 763 Q267 763 281 761 Q362 749 362 670 Q362 644 353 612 Q338 561 279 482 Q246 438 213 394 Q162 321 146 263 Q137 232 137 201 Q137 124 185 100 Q201 92 220 92 Q299 92 383 183 Q386 226 400 274 Q460 477 567 647 Q570 652 576 654 L697 702 Q701 704 703 702 Q706 701 704 697 Q667 630 636 566 Q563 414 528.5 309.5 Q494 205 494 139 Q494 50 552 50 Q591 50 607 82 Q612 93 622 93 Q632 93 630 82 Q626 51 598 25 Q564 -8 518 -8 Q503 -8 488 -4 Q407 14 387 105 Z M464 766 Q516 805 542 837 Q551 848 560 868 Q571 894 575 901 Q587 922 604 922 Q634 922 628 887 Q622 854 560 808 Q511 770 467 751 L464 766 Z " />
<glyph glyph-name="Ucircumflex" unicode="&#xdb;" horiz-adv-x="641" d="M387 105 Q345 60 293 29 Q232 -6 178 -6 Q141 -6 110 11 Q29 56 29 178 Q29 334 173 513 Q256 615 256 658 Q256 691 223 691 Q199 691 171.5 671 Q144 651 132 621 Q124 605 124 589 Q124 560 145 561 Q147 560 149 557 Q148 535 117.5 517 Q87 499 64 499 Q24 499 24 554 Q24 594 50 639 Q82 695 137.5 729 Q193 763 253 763 Q267 763 281 761 Q362 749 362 670 Q362 644 353 612 Q338 561 279 482 Q246 438 213 394 Q162 321 146 263 Q137 232 137 201 Q137 124 185 100 Q201 92 220 92 Q299 92 383 183 Q386 226 400 274 Q460 477 567 647 Q570 652 576 654 L697 702 Q701 704 703 702 Q706 701 704 697 Q667 630 636 566 Q563 414 528.5 309.5 Q494 205 494 139 Q494 50 552 50 Q591 50 607 82 Q612 93 622 93 Q632 93 630 82 Q626 51 598 25 Q564 -8 518 -8 Q503 -8 488 -4 Q407 14 387 105 Z M564 950 L575 950 Q590 852 619 795 L596 787 Q579 802 567 832 Q559 859 551 885 Q515 859 480 832 Q437 801 404 791 L386 798 Q487 869 564 950 Z " />
<glyph glyph-name="Ugrave" unicode="&#xd9;" horiz-adv-x="641" d="M387 105 Q345 60 293 29 Q232 -6 178 -6 Q141 -6 110 11 Q29 56 29 178 Q29 334 173 513 Q256 615 256 658 Q256 691 223 691 Q199 691 171.5 671 Q144 651 132 621 Q124 605 124 589 Q124 560 145 561 Q147 560 149 557 Q148 535 117.5 517 Q87 499 64 499 Q24 499 24 554 Q24 594 50 639 Q82 695 137.5 729 Q193 763 253 763 Q267 763 281 761 Q362 749 362 670 Q362 644 353 612 Q338 561 279 482 Q246 438 213 394 Q162 321 146 263 Q137 232 137 201 Q137 124 185 100 Q201 92 220 92 Q299 92 383 183 Q386 226 400 274 Q460 477 567 647 Q570 652 576 654 L697 702 Q701 704 703 702 Q706 701 704 697 Q667 630 636 566 Q563 414 528.5 309.5 Q494 205 494 139 Q494 50 552 50 Q591 50 607 82 Q612 93 622 93 Q632 93 630 82 Q626 51 598 25 Q564 -8 518 -8 Q503 -8 488 -4 Q407 14 387 105 Z M525 771 L517 756 Q478 777 443 813 Q398 859 404 893 Q410 927 444 927 Q457 927 462 906 Q463 884 472 842 Q487 810 525 771 Z " />
<glyph glyph-name="circumflex" unicode="&#x2c6;" horiz-adv-x="272" d="M340 943 L351 943 Q365 844 394 788 L371 780 Q354 794 342 825 Q334 851 326 878 Q291 851 255 824 Q212 793 180 784 L162 791 Q263 861 340 943 Z " />
<glyph glyph-name="tilde" unicode="&#x2dc;" horiz-adv-x="278" d="M411 887 L427 887 Q390 794 318 794 Q299 794 265 807 Q231 820 212 820 Q193 820 184 812 Q182 810 169 788 L149 788 Q180 874 245 874 Q266 874 300 859.5 Q334 845 350 845 Q367 845 382 859.5 Q397 874 411 887 Z " />
<glyph glyph-name="cedilla" unicode="&#xb8;" horiz-adv-x="170" d="M88 2 L140 2 L111 -53 Q107 -61 107 -69 Q107 -77 111.5 -91 Q116 -105 116 -113 Q116 -125 109 -138 Q89 -172 48 -172 Q-1 -172 -1 -131 Q-1 -121 4.5 -110.5 Q10 -100 22 -95 Q33 -91 41 -95 Q59 -105 46 -125 Q46 -126 37 -131.5 Q28 -137 30 -141 Q32 -143 39 -143 Q62 -143 72 -124 Q76 -116 76 -111 Q76 -105 69.5 -97.5 Q63 -90 61 -86 Q55 -72 56 -62 Q58 -49 71 -28 L88 2 Z " />
<glyph glyph-name="Scaron" unicode="&#x160;" horiz-adv-x="603" d="M524 484 Q519 494 520 506 Q521 515 526 521 Q530 524 530 523 Q537 516 547 516 Q560 516 571.5 528 Q583 540 585 556 Q590 587 563 618 Q536 649 498 662 Q471 672 443 672 Q378 672 354 626 Q344 607 344 586 Q344 515 453 397 L492 355 Q597 242 597 168 Q597 133 578 96 Q548 37 473 -1.5 Q398 -40 308 -40 Q267 -40 226 -31 Q147 -13 97.5 36 Q48 85 48 142 Q48 197 88.5 238 Q129 279 184 276 Q227 274 239 239 Q243 229 240 226 Q240 226 240 226 Q235 227 230 227 Q210 227 191 210.5 Q172 194 169 170 Q164 136 189.5 105 Q215 74 259 57 Q296 42 339 42 Q428 42 458 92 Q468 110 468 131 Q468 190 390 272 L344 320 Q235 435 235 555 Q235 606 258 646 Q322 762 466 762 Q496 762 528 756 Q608 741 655 692 Q698 646 698 589 Q698 567 690 545 Q677 510 643.5 483 Q610 456 577 456 Q539 456 524 484 Z M564 790 L553 790 Q538 888 510 945 L533 953 Q550 938 561 908 Q569 881 578 855 Q613 881 648 908 Q692 939 724 949 L742 942 Q641 871 564 790 Z " />
<glyph glyph-name="scaron" unicode="&#x161;" horiz-adv-x="338" d="M303 188 Q302 134 268 81 Q264 74 266 71 Q272 63 301 85 Q321 102 332 114 Q374 162 395 215 Q397 220 403 220 Q415 220 427 209.5 Q439 199 439 185 Q439 158 401 105 Q368 61 341 39 Q285 -6 224 -6 Q197 -6 176 5 Q130 -14 89 -14 Q56 -14 29 -1 Q-24 23 -21 81 Q-18 123 13 153 Q91 230 174 381 Q188 405 190 414 Q202 456 243 456 Q278 456 278 425 Q278 412 270 398 Q267 393 244 370 Q228 353 228 338 Q228 330 245.5 305.5 Q263 281 282 256 Q303 223 303 188 Z M192 140 Q199 167 199 194 Q199 239 183 268 Q148 197 100 150 Q119 136 119 113 Q119 101 113 87 Q97 46 51 46 Q45 46 40 47 Q53 27 82 27 Q166 26 192 140 Z M254 497 L243 497 Q229 596 200 652 L223 660 Q240 646 252 615 Q260 589 268 562 Q303 589 339 616 Q382 647 414 656 L432 649 Q331 579 254 497 Z " />
<glyph glyph-name="Eth" unicode="&#xd0;" horiz-adv-x="761" d="M451 371 L532 371 L516 283 L415 283 L353 134 Q344 113 325 84 Q356 74 387 74 Q467 74 541 132 Q608 185 650 266 Q717 395 717 506 Q717 626 639 672 Q600 644 572 612 Q532 566 469 415 L451 371 Z M236 371 L325 371 L353 438 Q421 599 547 671 Q566 682 582 689 Q566 692 549 693 Q464 697 390 662 Q322 629 289 576 Q267 539 267 496 Q267 448 284 439 Q297 433 288 423 Q280 414 262 418 Q239 423 212 447 Q174 482 174 530 Q174 637 300 706 Q406 764 521 764 Q546 764 571 761 Q693 747 759.5 677.5 Q826 608 826 489 Q826 380 772 265 Q643 -9 411 -9 Q339 -9 262 20 Q212 -17 151 -17 Q104 -17 72 6 Q35 32 35 77 Q35 119 65 136 Q81 146 107 146 Q148 146 206 121 Q235 155 256 207 L288 283 L220 283 L236 371 Z " />
<glyph glyph-name="eth" unicode="&#xf0;" horiz-adv-x="384" d="M491 169 Q462 101 417 56 Q356 -4 281 -7 Q237 -9 215 21 Q200 42 199 70 Q180 43 143 21 Q101 -5 67 -5 Q46 -5 31 5 Q6 22 6 67 Q6 134 46.5 210.5 Q87 287 150 341 Q219 400 280 399 Q320 399 326 377 L383 502 L253 502 L266 578 L417 578 L490 742 Q493 748 500 748 L571 748 Q578 748 574 739 L502 578 L562 578 L549 502 L468 502 L311 153 Q299 125 299 106 Q299 79 328 79 Q385 79 450 214 Q457 226 475 215 Q494 204 494 182 Q494 175 491 169 Z M294 314 Q298 324 298 332 Q298 351 279 351 Q249 351 212 322 Q170 287 140.5 227.5 Q111 168 111 132 Q111 92 146 92 Q191 92 214 140 L294 314 Z " />
<glyph glyph-name="Yacute" unicode="&#xdd;" horiz-adv-x="467" d="M660 732 L432 202 Q476 200 504 189 Q522 182 522 166 Q522 155 513.5 145 Q505 135 494 135 Q490 135 487 136 Q460 148 408 147 L357 31 Q314 -68 248 -137 Q172 -217 98 -217 Q83 -217 69 -213 Q-4 -196 -4 -109 Q-4 -52 30 0 Q118 132 303 185 L315 211 Q274 199 240 199 Q189 199 160 225 Q126 256 126 311 Q126 403 206 513 Q278 611 278 655 Q278 691 242 691 Q219 691 193 671 Q167 651 157 621 Q152 607 152 594 Q152 560 175 561 Q179 561 179 557 Q180 535 150.5 517 Q121 499 98 499 Q54 499 54 562 Q54 599 74 639 Q101 695 154 729 Q207 763 267 763 Q282 763 296 761 Q383 748 383 658 Q383 637 378 612 Q366 559 314 482 Q253 391 253 350 Q253 309 300 309 Q339 309 370 335 L548 734 Q555 750 568 750 L651 752 Q658 752 661 747 Q664 740 660 732 Z M271 116 Q142 63 91 -17 Q59 -67 59 -106 Q59 -144 87 -144 Q114 -144 155 -95 Q196 -46 233 33 L271 116 Z M437 787 Q489 826 515 858 Q524 869 533 889 Q544 915 548 922 Q560 943 577 943 Q607 943 601 908 Q595 875 533 828 Q484 791 440 772 L437 787 Z " />
<glyph glyph-name="yacute" unicode="&#xfd;" horiz-adv-x="367" d="M165 418 Q207 413 207 368 Q207 357 204 345 Q198 311 156.5 223.5 Q115 136 113 124 Q107 88 141 87 Q166 86 194 121 L314 387 Q316 393 324 393 L395 393 Q402 393 398 384 L250 44 Q281 57 312 71 Q358 94 386 132 Q409 164 433 214 Q439 227 458 215 Q477 203 477 181 Q477 167 452 124 Q442 107 431 92 Q370 7 215 -31 L154 -159 Q108 -257 -3 -257 Q-93 -257 -93 -184 Q-93 -159 -78 -130 Q-55 -86 29 -44 Q85 -20 140 4 Q143 9 159 45 Q117 9 71 9 Q42 9 23.5 31 Q5 53 9 92 Q11 112 54 190 Q104 281 113 306 Q125 338 115 347 Q95 364 111 390 Q130 421 165 418 Z M109 -67 Q-16 -105 -31 -146 Q-34 -154 -34 -162 Q-34 -188 0 -188 Q50 -188 77 -133 L109 -67 Z M256 451 Q307 490 333 522 Q342 533 351 553 Q362 579 366 586 Q379 607 395 607 Q425 607 419 572 Q413 539 352 492 Q302 455 258 436 L256 451 Z " />
<glyph glyph-name="Lslash" unicode="&#x141;" horiz-adv-x="743" d="M638 461 L433 352 L425 334 Q355 170 319 122 Q332 119 395 93 Q447 72 499 65 Q528 61 558 61 Q643 61 667 87 Q681 103 680 117 Q679 128 692 136 Q696 138 702 138 Q729 138 729 101 Q729 34 652 -8 Q588 -42 515 -42 Q491 -42 466 -39 Q408 -32 341 8 Q278 46 258 47 Q192 -20 99 -20 Q24 -20 24 35 Q24 45 27 57 Q40 106 99 127 Q146 144 204 138 Q218 157 267 263 L120 185 L132 253 L305 345 L316 370 Q347 442 378 514 Q416 605 444 647 Q523 765 644 770 Q694 772 735 743 Q780 711 780 665 Q780 627 748 594.5 Q716 562 678 565 Q631 585 633 586 Q639 590 644 595 Q654 604 654 613 Q656 636 641 646 Q623 657 594.5 644.5 Q566 632 537 581 Q514 540 467 432 L650 529 L638 461 Z " />
<glyph glyph-name="lslash" unicode="&#x142;" horiz-adv-x="268" d="M432 616 Q440 644 440 661 Q440 680 431 682 Q402 688 314 541 L432 616 Z M503 717 Q503 691 493 654 L530 677 L519 620 L470 589 Q439 511 395 444 Q319 327 232 260 Q224 253 217 253 Q209 253 206 264 Q199 292 216 304 Q290 359 356 458 Q385 502 407 549 L270 462 Q140 217 140 105 Q140 54 181 54 Q218 54 268 110 Q297 142 318 186 Q323 195 331 195 Q341 195 351 186 Q367 172 359 149 Q342 101 313 69 Q238 -15 145 -15 Q116 -15 93 -5 Q44 15 44 99 Q44 206 124 371 L82 344 L92 401 L164 447 Q243 587 333 680 Q418 767 466 767 Q503 767 503 717 Z " />
<glyph glyph-name="Zcaron" unicode="&#x17d;" horiz-adv-x="474" d="M549 516 Q512 417 427.5 332 Q343 247 272 234 Q345 208 375 138 Q402 146 442 154 Q469 159 472 142 Q476 119 450 112 Q430 107 387 96 Q394 52 379 4 Q346 -101 264.5 -174.5 Q183 -248 99 -245 Q14 -242 14 -156 Q14 -112 36 -72 Q86 18 258 95 Q246 125 207 147 Q174 164 137 167 Q133 168 131 175 Q128 189 136.5 219.5 Q145 250 158 251 Q223 254 308 316 Q388 374 424 434 Q468 509 468 572 Q468 624 436 640 Q423 646 408 646 Q378 646 346.5 624.5 Q315 603 295 573 Q283 555 283 542 Q283 530 297 532 Q305 533 307 527 Q309 520 303 513 Q279 480 238 480 Q220 480 208 491 Q192 506 192 539 Q192 599 240 662 Q276 709 330 737.5 Q384 766 438 766 Q467 766 492 757 Q574 731 574 637 Q574 585 549 516 Z M267 53 Q203 22 145 -24 Q67 -85 67 -146 Q67 -182 100 -182 Q128 -182 164 -156 Q204 -128 237 -79 Q274 -26 267 53 Z M471 789 L460 789 Q445 888 416 944 L439 952 Q456 938 468 908 Q476 881 484 854 Q519 881 555 908 Q598 939 631 948 L648 941 Q547 871 471 789 Z " />
<glyph glyph-name="zcaron" unicode="&#x17e;" horiz-adv-x="478" d="M557 113 Q493 10 326 -31 L265 -159 Q242 -209 193 -235 Q153 -256 107 -256 Q70 -256 46 -240 Q18 -220 18 -184 Q18 -159 33 -130 Q67 -65 256 6 Q276 42 276 62 Q276 73 271 84 Q227 50 188 50 Q176 50 162 53 Q148 56 138 69 Q128 82 131 98 Q145 158 217 169 Q250 174 281 163 Q297 188 335 246 Q312 238 290 238 Q256 238 239 256 Q230 265 230 292 Q230 298 231 310 Q232 322 232 326 Q232 337 228 338 Q211 343 141 225 Q102 157 63 89 Q60 84 56 84 Q45 84 33 104 Q21 124 26 134 Q175 441 294 433 Q340 430 335 379 Q334 367 316 331 Q300 300 303 294 Q308 284 320 284 Q335 284 354 298.5 Q373 313 381 329 Q431 431 487 435 Q522 438 522 408 Q522 370 442 269 Q380 191 328 141 Q361 125 361 71 Q361 56 357 41 Q455 74 497 132 Q520 164 544 214 Q550 227 569 215 Q588 203 588 181 Q588 163 557 113 Z M220 -67 Q95 -105 80 -146 Q77 -154 77 -162 Q77 -188 111 -188 Q161 -188 188 -133 L220 -67 Z M381 471 L370 471 Q355 570 326 626 L350 634 Q366 620 378 589 Q386 563 394 536 Q430 563 465 590 Q509 621 541 630 L559 623 Q458 553 381 471 Z " />
<glyph glyph-name="fi" unicode="&#xf001;" horiz-adv-x="550" d="M658 555 Q643 525 617.5 503.5 Q592 482 571 482 Q547 482 547 511 Q547 530 559 555 Q575 585 600.5 606.5 Q626 628 646 628 Q671 628 671 599 Q671 579 658 555 Z M381 168 Q312 133 250 133 Q191 133 162 159 L-6 -178 Q-17 -200 -47 -214 Q-77 -228 -98 -224 Q-114 -221 -114 -207 Q-114 -200 -110 -190 L68 187 Q43 197 43 216 Q42 236 51.5 262 Q61 288 70.5 296 Q80 304 114 306 L146 363 Q237 528 339 639 Q448 759 520 759 Q532 759 543 755 Q564 748 564 716 Q564 669 521 582 Q482 503 432 438 Q315 285 195 246 L192 245 L186 233 Q216 198 263 198 Q300 198 352 220 Q419 249 446 306 L484 387 Q487 393 494 393 L577 393 Q584 393 580 384 L476 153 Q464 125 464 106 Q464 79 493 79 Q550 79 615 214 Q622 226 640 215 Q659 204 659 182 Q659 175 656 169 Q627 101 582 56 Q521 -4 446 -7 Q403 -9 377.5 14.5 Q352 38 352 77 Q352 107 367 139 L381 168 Z M488 675 Q471 680 415 613 Q353 541 286 428 Q252 370 220 306 Q314 352 395 455 Q439 512 469 573 Q496 630 496 658 Q496 672 488 675 Z " />
<glyph glyph-name="fl" unicode="&#xf002;" horiz-adv-x="605" d="M385 145 Q329 114 281 114 Q243 114 206 129 Q169 144 162 159 L-6 -178 Q-17 -200 -47 -214 Q-77 -228 -98 -224 Q-114 -221 -114 -207 Q-114 -200 -110 -190 L68 187 Q43 197 43 216 Q42 236 51.5 262 Q61 288 70.5 296 Q80 304 114 306 L146 363 Q237 528 339 639 Q448 759 520 759 Q532 759 543 755 Q564 748 564 716 Q564 669 521 582 Q482 503 432 438 Q315 285 195 246 L192 245 L186 233 Q212 185 289 185 Q315 185 335 191 Q392 208 421 275 Q439 320 485 415 Q566 568 663 671 Q753 767 804 767 Q841 767 841 717 Q841 668 807 585 Q776 509 733 444 Q657 327 570 260 Q562 253 555 253 Q547 253 544 264 Q537 292 554 304 Q628 359 694 458 Q732 515 756 575 Q778 630 778 661 Q778 680 769 682 Q751 686 700 615 Q644 538 587 422 Q478 203 478 105 Q478 54 519 54 Q556 54 606 110 Q635 142 656 186 Q661 195 669 195 Q679 195 689 186 Q705 172 697 149 Q680 101 651 69 Q576 -15 483 -15 Q454 -15 431 -5 Q382 15 382 99 Q382 120 385 145 Z M488 675 Q471 680 415 613 Q353 541 286 428 Q252 370 220 306 Q314 352 395 455 Q439 512 469 573 Q496 630 496 658 Q496 672 488 675 Z " />
<glyph glyph-name="apple" unicode="&#xf000;" horiz-adv-x="1368" d="M1117 855 Q1117 829 1105 781 Q1079 682 1030 591 Q961 462 894 462 Q852 462 840 507 Q834 534 845 575 Q823 525 791 485 Q748 429 709 429 Q687 429 674 450 Q664 468 664 492 Q664 549 711 652 Q751 742 789 791 Q808 815 824 819 Q840 822 844 807 Q847 793 834 771 Q775 682 755 646 Q705 554 705 505 Q705 495 707 487 Q714 460 735 465 Q793 480 903 763 Q914 793 932 798 Q955 803 960 784 Q962 773 917 679 Q870 580 870 539 Q870 496 898 496 Q940 496 993 604 Q1031 681 1050 752 Q1062 797 1066 844 Q1069 880 1090 885 Q1117 892 1117 855 Z M671 616 Q674 602 653 594 Q652 593 621 585 L617 584 Q592 441 564 396 Q556 383 543 380 Q526 375 522 390 Q520 397 543 475 Q557 522 571 569 Q509 545 451 516 Q425 470 373 362 Q365 346 352 343 Q336 339 332 351 Q329 367 403 490 Q385 479 360 466 Q355 465 354 469 Q351 483 423 522 Q459 591 510 663 Q581 763 618 772 Q641 778 641 737 Q641 706 624 615 Q632 617 653 622 Q668 626 671 616 Z M1354 347 Q1358 331 1328 302.5 Q1298 274 1281 273 Q1271 212 1234 212 Q1213 212 1193.5 228.5 Q1174 245 1169 265 Q1167 275 1176 277 Q1200 283 1241 283 Q1252 351 1237 410 L1235 414 Q1214 382 1173 318 Q1104 203 1054 203 Q1032 203 1027 224 Q1022 246 1069 361 Q977 198 917 183 Q888 176 883 196 Q878 216 908 282 Q938 348 937 353 L935 354 Q920 350 877 283 Q843 230 826 196 Q820 184 808 159 Q804 152 799 151 Q792 149 782.5 152.5 Q773 156 771 163 Q769 171 801 252.5 Q833 334 830 348 L826 350 Q824 349 820 346 Q776 306 724 220 Q698 177 658 175 Q643 147 609.5 126.5 Q576 106 544 106 Q502 106 492 146 Q485 171 495 198 Q489 189 470 158 Q465 132 434 124 Q416 119 396 129 Q407 100 407 65 Q407 6 383 -42 Q355 -96 307 -108 Q299 -110 293 -110 Q263 -110 263 -59 Q263 20 336 198 Q400 355 448 428 Q460 446 474 450 Q494 455 499 436 Q508 401 403 242 Q391 226 370 192 Q369 190 359 157 Q308 -17 308 -59 Q308 -82 318 -80 Q341 -74 360 -6 Q374 45 377 87 Q379 117 375 152 Q375 159 377 159 Q376 159 398.5 148.5 Q421 138 435 142 Q447 145 455 156 Q457 167 513 247 Q554 306 586 311 L592 312 Q615 336 639 336 Q663 336 678 313 Q690 292 690 266 Q690 230 668 195 Q693 193 708 218 Q806 379 851 390 Q869 394 872 382 Q879 356 834 252 Q922 393 965 404 Q982 408 985 396 Q990 376 959.5 306 Q929 236 932 227 Q933 223 940 225 Q966 231 1009 290 Q1012 294 1065 375 Q1074 387 1091 414 Q1091 414 1112 461 Q1092 450 1051 433 Q1046 432 1045 436 Q1040 457 1124 492 Q1134 519 1145 545 Q1160 575 1185 581 Q1196 584 1197 579 Q1198 576 1168 510 Q1220 533 1248 540 Q1252 541 1254 534 Q1260 512 1219 496 Q1187 486 1156 476 Q1131 414 1106 352 Q1069 254 1073 236 Q1075 230 1081 232 Q1113 240 1182.5 354 Q1252 468 1258 470 Q1270 473 1272 464 Q1287 404 1287 333 Q1287 308 1284 290 L1287 290 Q1304 295 1327 323 Q1338 336 1349 350 Q1353 351 1354 347 Z M451 697 Q458 668 428 655 Q433 663 432 668 Q431 673 416 669 Q396 664 378 657 L383 654 Q333 457 306 393 Q238 234 130 207 Q119 205 106 205 Q43 205 31 250 Q26 270 43 275 Q51 277 69 260.5 Q87 244 108 244 Q117 244 127 247 Q213 268 274 413 Q318 516 336 638 Q321 633 277 606 Q270 604 267 614 Q261 640 329 675 Q381 701 420 711 Q446 717 451 697 Z M1238 267 Q1212 267 1199 264 Q1194 262 1196 257 Q1197 250 1207.5 240.5 Q1218 231 1224 233 Q1232 235 1238 267 Z M592 705.5 Q591 711 588 710 Q569 706 470 551 Q532 583 579 601 Q593 659 593 692 Q593 700 592 705.5 Z M621 308 Q589 300 589 253 Q589 207 634 197 Q652 238 652 271 Q652 316 621 308 Z M620 175 Q581 182 572 217 Q564 248 575 274 Q531 221 531 179 Q531 132 563 132 Q594 132 620 175 Z " />
<glyph glyph-name="dotlessi" unicode="&#x131;" horiz-adv-x="210" d="M146 387 Q149 393 156 393 L239 393 Q246 393 242 384 L138 153 Q126 125 126 106 Q126 79 155 79 Q212 79 277 214 Q284 226 302 215 Q321 204 321 182 Q321 175 318 169 Q289 101 244 56 Q183 -4 108 -7 Q65 -9 39.5 14.5 Q14 38 14 77 Q14 107 29 139 L146 387 Z " />
<glyph glyph-name="breve" unicode="&#x2d8;" horiz-adv-x="474" d="" />
<glyph glyph-name="ring" unicode="&#x2da;" horiz-adv-x="226" d="M279 946 Q312 946 331.5 927 Q351 908 351 877 Q351 837 320.5 806.5 Q290 776 249 776 Q218 776 198 796 Q178 816 178 846 Q178 885 209 915.5 Q240 946 279 946 Z M255 810 Q276 810 293.5 825 Q311 840 314 861 Q318 882 306 896.5 Q294 911 273 911 Q252 911 234.5 896.5 Q217 882 213 861 Q210 840 222 825 Q234 810 255 810 Z " />
<glyph glyph-name="caron" unicode="&#x2c7;" horiz-adv-x="328" d="M277 779 L266 779 Q251 878 222 934 L245 942 Q262 928 274 897 Q282 871 290 844 Q325 871 361 898 Q404 929 437 938 L454 931 Q353 861 277 779 Z " />
</font>
</svg>
