<?xml version="1.0" encoding="utf-8"?>
<!-- Generator: Adobe Illustrator 19.1.0, SVG Export Plug-In . SVG Version: 6.00 Build 0)  -->
<svg version="1.1" id="Layer_1" xmlns="http://www.w3.org/2000/svg" xmlns:xlink="http://www.w3.org/1999/xlink" x="0px" y="0px"
	 viewBox="0 0 40.8 9.3" style="enable-background:new 0 0 40.8 9.3;" xml:space="preserve">
<style type="text/css">
	.st0{fill:#60AA45;}
	.st1{fill:#F4F4ED;}
</style>
<g>
	<g>
		<g>
			<g>
				<path class="st0" d="M38.6,9.1C26.6,7,14.2,7,2.2,9.1C2,9.1,1.8,9.1,1.7,9.1c-0.1,0-0.2,0-0.3-0.1C1.3,9,1.2,8.8,1.2,8.7
					c0-0.2,0-0.5,0-0.8c0-0.4,0.1-0.8,0.1-1.4c0-0.8-0.1-1.6-0.4-2.3C0.8,3.6,0.6,3.2,0.5,2.9C0.3,2.5,0.2,2.2,0.2,2.1
					c0-0.2,0-0.3,0.1-0.4c0.1-0.1,0.2-0.2,0.3-0.2c0.1,0,0.3-0.1,0.5-0.1c12.9-1.7,25.8-1.7,38.7,0c0.2,0,0.4,0.1,0.5,0.1
					c0.1,0,0.2,0.1,0.3,0.2c0.1,0.1,0.1,0.2,0.1,0.4c0,0.2-0.2,0.4-0.3,0.8c-0.1,0.4-0.3,0.8-0.5,1.3c-0.3,0.7-0.4,1.5-0.4,2.3
					c0,0.5,0.1,1,0.1,1.4c0,0.4,0,0.7,0,0.8c0,0.2-0.1,0.3-0.2,0.4c-0.1,0.1-0.2,0.1-0.3,0.1C39,9.1,38.8,9.1,38.6,9.1z"/>
			</g>
		</g>
		<g>
			<g>
				<g>
					<g>
						<path class="st1" d="M6.5,6.2C6.4,6.2,6.4,6.1,6.5,6.2C6.4,6.1,6.4,6.1,6.3,6.1C6,6.1,5.6,6.2,5.3,6.2c-0.1,0-0.1,0-0.1,0.1
							c0,0.2-0.1,0.5-0.1,0.7c0,0.1,0,0.1-0.1,0.1c-0.2,0-0.5,0.1-0.7,0.1c-0.1,0-0.1,0-0.1,0c0,0,0-0.1,0-0.1
							C4.2,5.6,4.5,4,4.7,2.4c0-0.1,0-0.1,0.1-0.1c0.3,0,0.7-0.1,1-0.1c0.1,0,0.1,0,0.2,0.1c0.6,1.5,1.2,3,1.8,4.5c0,0,0,0.1,0,0.1
							c0,0-0.1,0.1-0.1,0.1C7.4,6.9,7.2,6.9,6.9,7c-0.1,0-0.1,0-0.1-0.1C6.7,6.6,6.6,6.4,6.5,6.2z M6,5.1C6.1,5.1,6.1,5.1,6,5.1
							C5.9,4.5,5.7,4,5.5,3.4c0,0,0,0,0,0c0,0,0,0,0,0c0,0,0,0,0,0C5.4,4,5.3,4.6,5.3,5.1c0,0.1,0,0.1,0.1,0.1
							C5.6,5.2,5.8,5.2,6,5.1z"/>
						<path class="st1" d="M9.3,6.6c0,0,0,0.1,0,0.1c0,0-0.1,0-0.1,0.1c-0.2,0-0.4,0-0.6,0.1c0,0-0.1,0-0.1,0c0,0,0-0.1-0.1-0.1
							C8.3,5.1,8.1,3.6,7.9,2c0,0,0-0.1,0-0.1c0,0,0.1,0,0.1-0.1c0.2,0,0.4,0,0.7-0.1c0,0,0.1,0,0.1,0c0,0,0,0.1,0.1,0.1
							C9,3.5,9.2,5,9.3,6.6z"/>
						<path class="st1" d="M11.3,6.4c0,0,0,0.1,0,0.1c0,0-0.1,0-0.1,0c-0.2,0-0.4,0-0.6,0c0,0-0.1,0-0.1,0c0,0,0-0.1-0.1-0.1
							c-0.1-1.6-0.3-3.1-0.4-4.7c0,0,0-0.1,0-0.1c0,0,0.1,0,0.1-0.1c0.2,0,0.4,0,0.7-0.1c0,0,0.1,0,0.1,0c0,0,0,0.1,0.1,0.1
							C11.1,3.3,11.2,4.9,11.3,6.4z"/>
						<path class="st1" d="M16.4,6.3c-0.1,0-0.1,0-0.1,0c0,0,0-0.1-0.1-0.1c-0.4-0.8-0.7-1.6-1.1-2.4c0,0,0,0,0,0c0,0,0,0,0,0
							c0,0.8,0.1,1.6,0.1,2.4c0,0,0,0.1,0,0.1c0,0-0.1,0-0.1,0c-0.2,0-0.5,0-0.7,0c0,0-0.1,0-0.1,0c0,0,0-0.1,0-0.1
							c-0.1-1.5-0.2-3.1-0.2-4.6c0,0,0-0.1,0-0.1c0,0,0.1,0,0.1,0c0.3,0,0.6,0,0.9,0c0.1,0,0.1,0,0.1,0c0,0,0.1,0.1,0.1,0.1
							c0.4,0.9,0.7,1.7,1.1,2.6c0,0,0,0,0,0c0,0,0,0,0,0c0-0.9-0.1-1.8-0.1-2.6c0,0,0-0.1,0-0.1c0,0,0.1,0,0.1,0c0.2,0,0.5,0,0.7,0
							c0,0,0.1,0,0.1,0c0,0,0,0.1,0,0.1c0,1.5,0.1,3.1,0.1,4.6c0,0,0,0.1,0,0.1c0,0-0.1,0-0.1,0C16.9,6.3,16.7,6.3,16.4,6.3z"/>
						<path class="st1" d="M19.7,3.4c0,0-0.1,0-0.1,0c-0.1,0-0.1,0-0.2,0c-0.1,0-0.1,0-0.1,0.1c0,0-0.1,0.1-0.1,0.1
							c0,0.1,0,0.1-0.1,0.1c0,0-0.1,0-0.1,0c-0.2,0-0.3,0-0.5,0c0,0-0.1,0-0.1,0c0,0,0-0.1,0-0.1c0-0.1,0-0.3,0.1-0.4
							c0.1-0.1,0.2-0.2,0.3-0.3c0.1-0.1,0.3-0.2,0.4-0.2c0.2-0.1,0.4-0.1,0.6-0.1c0.4,0,0.8,0.1,1.1,0.3c0.3,0.2,0.4,0.5,0.4,0.9
							c0,0.7,0,1.4,0,2.2c0,0,0,0.1,0,0.1c0,0-0.1,0-0.1,0c-0.1,0-0.2,0-0.4,0c0,0-0.1,0-0.1,0c0,0,0-0.1-0.1-0.1c0,0,0,0-0.1,0
							c0,0-0.1,0-0.1,0c0,0-0.1,0.1-0.2,0.1c-0.1,0-0.1,0.1-0.2,0.1c-0.1,0-0.2,0-0.3,0c-0.4,0-0.7-0.1-1-0.3
							c-0.2-0.2-0.4-0.5-0.4-0.8c0-0.1,0-0.2,0.1-0.4c0-0.1,0.1-0.2,0.2-0.4c0.1-0.1,0.2-0.2,0.4-0.3c0.2-0.1,0.3-0.1,0.5-0.1
							c0.2,0,0.5,0,0.7,0c0,0,0.1,0,0.1-0.1c0,0,0-0.1,0-0.1c0-0.1-0.1-0.3-0.2-0.3C20,3.5,19.9,3.4,19.7,3.4z M19.5,4.8
							c-0.1,0-0.1,0-0.2,0c0,0-0.1,0.1-0.1,0.1c0,0,0,0.1-0.1,0.1c0,0,0,0.1,0,0.1c0,0.1,0,0.2,0.1,0.3c0.1,0.1,0.2,0.1,0.3,0.1
							c0.2,0,0.4,0,0.5-0.1c0.1-0.1,0.2-0.2,0.2-0.4c0-0.1,0-0.1,0-0.2c0,0,0-0.1-0.1-0.1C20,4.8,19.7,4.8,19.5,4.8z"/>
						<path class="st1" d="M24.4,2.8c0,0,0.1,0,0.1,0c0,0,0,0.1,0,0.1c0,0.2,0,0.4,0,0.6c0,0,0,0.1,0,0.1c0,0-0.1,0-0.1,0
							c-0.3,0-0.5,0-0.8,0c0,0-0.1,0-0.1,0.1c0,0.4,0,0.8,0,1.3c0,0.1,0,0.2,0.1,0.3c0.1,0.1,0.2,0.1,0.3,0.1c0.2,0,0.3,0,0.5,0
							c0,0,0.1,0,0.1,0c0,0,0,0.1,0,0.1c0,0.2,0,0.4,0,0.6c0,0,0,0.1,0,0.1c0,0-0.1,0-0.1,0c-0.2,0-0.3,0-0.5,0
							c-0.4,0-0.7-0.1-1-0.4c-0.2-0.2-0.4-0.5-0.4-0.9c0-0.4,0-0.9,0-1.3c0,0,0-0.1-0.1-0.1c-0.2,0-0.4,0-0.6,0c0,0-0.1,0-0.1,0
							c0,0,0-0.1,0-0.1c0-0.2,0-0.4,0-0.6c0,0,0-0.1,0-0.1c0,0,0.1,0,0.1,0c0.2,0,0.4,0,0.6,0c0,0,0.1,0,0.1-0.1c0-0.4,0-0.7,0-1.1
							c0,0,0-0.1,0-0.1c0,0,0.1,0,0.1,0c0.2,0,0.4,0,0.7,0c0,0,0.1,0,0.1,0c0,0,0,0.1,0,0.1c0,0.4,0,0.7,0,1.1c0,0,0,0.1,0.1,0.1
							C23.9,2.8,24.2,2.8,24.4,2.8z"/>
						<path class="st1" d="M25.3,3C25.3,2.9,25.3,2.9,25.3,3c0.1-0.1,0.1-0.1,0.2-0.1c0.2,0,0.4,0,0.7,0c0,0,0.1,0,0.1,0
							c0,0,0,0.1,0,0.1c0,0.7-0.1,1.4-0.1,2.1c0,0.1,0,0.2,0.1,0.3c0.1,0.1,0.2,0.1,0.4,0.1c0.2,0,0.3,0,0.4-0.1
							c0.1-0.1,0.2-0.2,0.2-0.3c0-0.7,0.1-1.4,0.1-2.2c0,0,0-0.1,0-0.1c0,0,0.1,0,0.1,0c0.2,0,0.4,0,0.7,0c0,0,0.1,0,0.1,0
							c0,0,0,0.1,0,0.1c-0.1,1.1-0.1,2.1-0.2,3.2c0,0,0,0.1,0,0.1c0,0-0.1,0-0.1,0c-0.1,0-0.2,0-0.4,0c0,0-0.1,0-0.1,0
							c0,0,0,0-0.1-0.1c0,0,0,0-0.1-0.1c0,0,0,0-0.1,0c-0.1,0-0.1,0-0.1,0c0,0-0.1,0-0.1,0.1c-0.1,0-0.1,0-0.2,0.1
							c-0.1,0-0.2,0-0.3,0c-0.2,0-0.4-0.1-0.5-0.1c-0.2-0.1-0.3-0.2-0.4-0.3c-0.1-0.1-0.2-0.3-0.3-0.4c-0.1-0.2-0.1-0.3-0.1-0.5
							C25.2,4.4,25.2,3.7,25.3,3z"/>
						<path class="st1" d="M31.1,4c-0.3,0-0.5,0-0.7,0.2c-0.2,0.1-0.3,0.3-0.3,0.6c0,0.6-0.1,1.1-0.1,1.7c0,0,0,0.1-0.1,0.1
							c0,0-0.1,0-0.1,0c-0.2,0-0.4,0-0.6,0c0,0-0.1,0-0.1,0c0,0,0-0.1,0-0.1c0.1-1.1,0.2-2.1,0.2-3.2c0,0,0-0.1,0.1-0.1
							c0,0,0.1,0,0.1,0c0.1,0,0.2,0,0.4,0c0,0,0.1,0,0.1,0c0,0,0,0,0.1,0.1c0,0.1,0,0.1,0.1,0.2c0,0.1,0.1,0.1,0.1,0.1
							c0.1,0,0.1,0,0.2,0c0,0,0.1-0.1,0.2-0.1c0.1,0,0.2-0.1,0.3-0.1c0.1,0,0.3,0,0.4,0c0.1,0,0.2,0,0.2,0c0,0,0.1,0,0.1,0.1
							c0,0,0,0.1,0,0.1c0,0.2,0,0.4,0,0.6c0,0,0,0.1-0.1,0.1c0,0-0.1,0-0.1,0C31.3,4,31.2,4,31.1,4z"/>
						<path class="st1" d="M33.5,4.1c0,0-0.1,0-0.1,0c-0.1,0-0.1,0-0.2,0c-0.1,0-0.1,0-0.1,0.1c0,0-0.1,0.1-0.1,0.1
							c0,0.1,0,0.1-0.1,0.1c0,0-0.1,0-0.1,0c-0.2,0-0.3,0-0.5-0.1c0,0-0.1,0-0.1-0.1c0,0,0-0.1,0-0.1c0-0.1,0.1-0.3,0.1-0.4
							c0.1-0.1,0.2-0.2,0.3-0.3c0.1-0.1,0.3-0.1,0.5-0.2c0.2,0,0.4,0,0.6,0c0.4,0,0.8,0.2,1,0.4c0.2,0.2,0.3,0.6,0.3,1
							c-0.1,0.7-0.2,1.4-0.3,2.2c0,0,0,0.1-0.1,0.1c0,0-0.1,0-0.1,0c-0.1,0-0.2,0-0.4,0c0,0-0.1,0-0.1-0.1c0,0,0-0.1,0-0.1
							c0,0,0-0.1-0.1-0.1c0,0-0.1,0-0.1,0c0,0-0.1,0-0.2,0.1c-0.1,0-0.2,0-0.2,0.1c-0.1,0-0.2,0-0.3,0c-0.4,0-0.7-0.2-0.9-0.4
							c-0.2-0.2-0.3-0.5-0.3-0.9c0-0.1,0-0.2,0.1-0.4C32,5.2,32.1,5.1,32.2,5c0.1-0.1,0.3-0.2,0.4-0.2c0.2-0.1,0.3-0.1,0.6,0
							c0.2,0,0.5,0.1,0.7,0.1c0,0,0.1,0,0.1-0.1c0,0,0-0.1,0-0.1c0-0.1,0-0.3-0.1-0.3C33.8,4.2,33.7,4.1,33.5,4.1z M33.1,5.4
							c-0.1,0-0.1,0-0.2,0c-0.1,0-0.1,0-0.1,0.1c0,0-0.1,0.1-0.1,0.1c0,0,0,0.1,0,0.1c0,0.1,0,0.2,0.1,0.3c0.1,0.1,0.2,0.1,0.3,0.1
							c0.2,0,0.4,0,0.5,0c0.1-0.1,0.2-0.2,0.2-0.4c0-0.1,0-0.1,0-0.2c0,0,0-0.1-0.1-0.1C33.6,5.5,33.4,5.5,33.1,5.4z"/>
						<path class="st1" d="M36.6,7.1C36.6,7.2,36.6,7.2,36.6,7.1c-0.1,0.1-0.1,0.1-0.2,0.1c-0.2,0-0.4-0.1-0.6-0.1
							c0,0-0.1,0-0.1-0.1c0,0,0-0.1,0-0.1c0.2-1.6,0.4-3.1,0.6-4.7c0,0,0-0.1,0.1-0.1c0,0,0.1,0,0.1,0c0.2,0,0.4,0.1,0.7,0.1
							c0,0,0.1,0,0.1,0.1c0,0,0,0.1,0,0.1C37,4,36.8,5.6,36.6,7.1z"/>
					</g>
				</g>
			</g>
		</g>
	</g>
</g>
</svg>
